<svg width="151" height="146" viewBox="0 0 151 146" fill="none" xmlns="http://www.w3.org/2000/svg">
<path d="M73.5 1C33.4678 1 1 33.2438 1 73C1 112.756 33.4678 145 73.5 145C113.532 145 146 112.756 146 73C146 52.0668 136.991 33.2016 122.627 20.0762" stroke="#A5378A" stroke-width="2"/>
<path d="M141.898 96C144.529 88.7746 146 80.9645 146 72.9039C146 62.212 143.503 52.1048 139 43" stroke="#DDA52B" stroke-width="10"/>
<path d="M76.9794 42C78.0928 42 78.9588 41.1226 79 39.9945V30.8444C78.9175 29.7163 77.9278 28.9225 76.8144 29.006C75.866 29.0896 75.0825 29.8834 75 30.8444V39.9945C75 41.1226 75.9072 42 76.9794 42Z" fill="#089CB5"/>
<path d="M53.0747 44.2202C53.4855 44.7401 54.1702 45 54.8549 45C55.3113 45 55.7678 44.8267 56.1786 44.5668C57.1371 43.8303 57.274 42.5306 56.4981 41.6209L49.9253 33.7796C49.1493 32.8699 47.78 32.7399 46.8214 33.4764C45.8629 34.2128 45.726 35.5125 46.5019 36.4223L53.1204 44.2202H53.0747Z" fill="#71C7AA"/>
<path d="M97.8481 44.5677C98.2567 44.8703 98.7107 45 99.2101 45C99.8912 45 100.527 44.7406 100.935 44.2219L107.519 36.441C108.29 35.5333 108.109 34.1932 107.155 33.4584C106.202 32.7235 104.795 32.8964 104.023 33.8042L97.4849 41.6283C96.713 42.536 96.8946 43.8329 97.8027 44.5677H97.8481Z" fill="#71C7AA"/>
<path d="M97.0245 53H56.06C55.4687 53 54.9197 53.2525 54.5396 53.6732L37.0558 73.2814C36.4223 73.618 36 74.3333 36 75.0487C36 75.5957 36.1689 76.1427 36.549 76.5634L74.853 116.243C75.1486 116.621 75.5709 116.874 76.0354 117H76.7956C77.049 116.958 77.2602 116.874 77.4713 116.705C77.6825 116.579 77.8514 116.411 77.9781 116.243L116.282 76.5634C116.662 76.1427 116.873 75.5957 116.831 75.0487H117C117 74.3333 116.62 73.6601 115.986 73.2814L98.5448 53.6732C98.1647 53.2525 97.6157 53 97.0245 53ZM96.5177 57.4602C96.2221 57.2498 95.8843 57.0815 95.4619 57.0815H96.1376L96.4755 57.4602H96.5177ZM57.0313 57.1657L82.6236 57.0394H87.1423L96.4755 57.4181L96.7711 57.6285L110.75 73.4497C111.299 73.7443 111.637 74.3333 111.637 74.9645H111.51C111.51 75.4273 111.341 75.9323 111.003 76.2689L110.243 77.0263H110.327L82.2013 106.186V106.06L77.7669 110.73C77.6402 110.899 77.4713 111.025 77.3024 111.151C77.1335 111.277 76.9223 111.362 76.7112 111.404H76.0777C75.6554 111.32 75.3175 111.109 75.0219 110.773L41.7857 76.3531C41.4479 76.0164 41.2789 75.5536 41.3212 75.0487C41.3212 74.4175 41.7012 73.8284 42.2503 73.5339L56.2289 57.7127C56.44 57.5023 56.6934 57.334 56.989 57.2498L57.1157 57.1236H57.5803C57.5803 57.1236 57.2002 57.2078 56.989 57.2498" fill="#089CB5"/>
<path d="M64.1783 66.8261C64.426 66.9565 64.6737 67 64.9627 67C65.7059 66.913 66.3253 66.3913 66.6143 65.6957L70 57H65.9124L63.146 64.1304C62.7331 65.2174 63.2286 66.4348 64.2195 66.8696" fill="#71C7AA"/>
<path d="M76.6067 109.199L63.457 76.8573H89.543L76.6067 109.199ZM111.146 73.2964L110.719 72.8774H93.8551L87.2802 57H82.712L89.2868 72.8774H42.4089L41.9393 73.2964C41.3842 73.5896 41 74.1761 41 74.8045C41 75.2653 41.1281 75.768 41.4696 76.1032L42.3235 76.8573H59.0595L70.7577 105.889L75.0271 110.372C75.2832 110.707 75.6675 110.916 76.0944 111H76.7348C76.9483 110.958 77.1618 110.874 77.3325 110.749C77.5033 110.623 77.6741 110.497 77.8022 110.33L82.3277 105.68L93.9832 76.8154H110.634L111.36 76.0613C111.701 75.7261 111.872 75.2234 111.872 74.7626H112C112 74.1342 111.658 73.5477 111.103 73.2545" fill="#71C7AA"/>
</svg>
