<svg width="139" height="135" viewBox="0 0 139 135" fill="none" xmlns="http://www.w3.org/2000/svg">
<path d="M67.5 1C30.7808 1 1 30.7808 1 67.5C1 104.219 30.7808 134 67.5 134C104.219 134 134 104.219 134 67.5C134 48.1659 125.736 30.7418 112.561 18.619" stroke="#A5378A" stroke-width="2"/>
<path d="M130.484 89C132.739 82.3199 134 75.0993 134 67.647C134 57.762 131.86 48.4177 128 40" stroke="#DDA52B" stroke-width="10"/>
<path d="M84.8471 78.9627C84.4515 78.9627 84.0559 78.7387 83.8581 78.4027L75.3921 63.3573H73.5327C73.1767 63.3573 72.8206 63.1706 72.6228 62.9092L68.192 56.6372C67.836 56.1519 67.9942 55.5172 68.5085 55.1812C69.0228 54.8452 69.6953 54.9945 70.0514 55.4799L74.1657 61.3039H76.1042C76.4998 61.3039 76.8954 61.5279 77.0932 61.8639L85.8757 77.4693C86.1527 77.992 85.9548 78.6267 85.401 78.888C85.2428 78.9627 85.0449 79 84.8867 79L84.8471 78.9627Z" fill="#71C7AA"/>
<path d="M34.0598 90.9607C33.8346 90.9607 33.6093 90.8821 33.4217 90.725C32.9712 90.3714 32.8586 89.6642 33.1964 89.1927L37.7384 82.8671C38.0387 82.4742 38.5267 82.3171 38.9772 82.5135L43.4816 84.3601L53.0161 67.5443C53.3164 67.0335 53.9545 66.8371 54.48 67.1514C54.968 67.4657 55.1557 68.1336 54.8554 68.6837L44.8705 86.3246C44.6077 86.796 44.0447 86.9925 43.5567 86.796L38.9396 84.9102L34.8856 90.5678C34.6604 90.8428 34.3601 91 34.0223 91L34.0598 90.9607Z" fill="#71C7AA"/>
<path d="M47.8403 91.2078C55.7413 91.2078 63.6033 92.7384 73.3725 94.8576C94.9737 99.5276 106.183 98.9782 111.943 97.4477L90.6924 71.3895L86.5279 74.2544C86.2554 74.4113 85.944 74.4898 85.6327 74.4113C85.3213 74.3328 85.0878 74.1366 84.9321 73.8619L77.4982 59.7733H75.4353C75.0851 59.7733 74.7348 59.577 74.5402 59.3023L69.0912 51.0218L58.3879 67.1119C58.2322 67.3474 57.9598 67.5436 57.6484 67.5828C57.337 67.6221 57.0257 67.5828 56.7921 67.3474L53.2114 64.4826L42.9362 81.9855C42.6638 82.4564 42.08 82.6526 41.6129 82.4564L37.137 80.6904L26.2391 95.2892C34.2568 92.3852 41.0291 91.2078 47.8403 91.2078ZM16.0807 101.961C15.6915 101.961 15.3022 101.725 15.1076 101.333C14.8352 100.783 15.1076 100.116 15.6136 99.8416C17.9878 98.6642 20.2452 97.6439 22.3859 96.7805L35.8915 78.6497C36.2029 78.2573 36.7089 78.1003 37.1759 78.2965L41.5351 80.0233L51.9659 62.2456C52.1216 61.9709 52.3941 61.7747 52.7054 61.7355C53.0168 61.6962 53.3282 61.7355 53.6006 61.9709L57.2203 64.9142L68.1571 48.4709C68.3517 48.157 68.702 48 69.0523 48C69.4026 48 69.7529 48.1962 69.9475 48.4709L75.9802 57.6148H78.1209C78.5101 57.6148 78.8993 57.8503 79.0939 58.2035L86.2554 71.8212L90.2643 69.0741C90.7313 68.7602 91.3541 68.8387 91.7433 69.2703L114.162 96.7805C117.276 95.5247 117.898 94.0334 117.898 94.0334L120 94.6613C119.922 94.9753 119.066 97.4084 114.24 99.1352C114.24 99.1352 114.201 99.1352 114.162 99.1352C113.617 99.3314 112.994 99.5276 112.333 99.6846C104.042 101.804 90.7703 100.901 72.9055 97.0552C51.1486 92.3459 39.6669 90.5799 16.5477 101.882C16.392 101.961 16.2364 102 16.0807 102V101.961Z" fill="#089CB5"/>
<path d="M65.9223 86C65.5035 86 65.1226 85.7668 64.9322 85.3393L57.0876 66.5275C56.8591 65.9833 57.0876 65.3226 57.6588 65.0894C58.1919 64.8562 58.8393 65.0894 59.0678 65.6724L66.9124 84.4842C67.1409 85.0283 66.9124 85.6891 66.3412 85.9223C66.1889 86 66.0747 86 65.9223 86Z" fill="#71C7AA"/>
<path d="M94.8462 90C94.4361 90 94.0261 89.7663 93.8211 89.4158L85.1288 73.6024C84.8418 73.0571 85.0468 72.395 85.6208 72.1224C86.1948 71.8497 86.8919 72.0445 87.1789 72.5897L95.8712 88.4031C96.1582 88.9484 95.9532 89.6105 95.3792 89.8832C95.2152 89.961 95.0102 90 94.8462 90Z" fill="#71C7AA"/>
<path d="M69 50C68.4286 50 68 49.4789 68 48.8776V32.1224C68 31.481 68.4643 31 69 31C69.5357 31 70 31.5211 70 32.1224V48.8776C70 49.4789 69.5357 50 69 50Z" fill="#71C7AA"/>
<path d="M82.8911 44H69.1089C68.4752 44 68 43.4719 68 42.8625C68 42.2531 68.5148 41.725 69.1089 41.725H81.7426V33.275H69.1089C68.4752 33.275 68 32.7469 68 32.1375C68 31.5281 68.5148 31 69.1089 31H82.8911C83.5248 31 84 31.5281 84 32.1375V42.8625C84 43.4719 83.4852 44 82.8911 44Z" fill="#71C7AA"/>
</svg>
