<svg width="148" height="144" viewBox="0 0 148 144" fill="none" xmlns="http://www.w3.org/2000/svg">
<path d="M118.715 66.721C118.341 66.2903 117.968 65.8988 117.594 65.5464C117.179 65.1158 116.806 64.7634 116.474 64.4111C115.935 63.863 115.022 63.863 114.441 64.4111C113.86 64.92 113.86 65.7814 114.399 66.3295C114.773 66.721 115.146 67.0733 115.478 67.3865C115.852 67.778 116.184 68.1304 116.516 68.5219C117.013 69.1092 117.926 69.1483 118.507 68.6785C119.088 68.2087 119.171 67.3474 118.673 66.7993" fill="#089CB5"/>
<path d="M113.567 61.3389C112.258 60.0222 110.907 58.7932 109.513 57.6082C108.12 56.4231 106.727 55.3258 105.291 54.2724C104.658 53.7896 103.729 53.9652 103.264 54.6674C102.8 55.3258 102.969 56.2914 103.602 56.7742C104.953 57.7837 106.347 58.8371 107.656 59.9783C108.964 61.0756 110.273 62.3045 111.54 63.5774C112.131 64.148 113.06 64.148 113.609 63.5335C114.158 62.919 114.116 61.9534 113.567 61.3828V61.3389Z" fill="#089CB5"/>
<path d="M91.8571 81.4484C91.8571 80.6593 91.2333 79.9948 90.4431 79.9948H85.9519C85.1618 79.9948 84.538 80.6178 84.538 81.4484C84.538 82.279 85.1618 82.8605 85.9519 82.8605H90.4431C91.2333 82.8605 91.8571 82.2375 91.8571 81.4484ZM91.8571 87.0967C91.8571 86.3076 91.2333 85.6846 90.4431 85.6846H85.9519C85.1618 85.6846 84.538 86.3076 84.538 87.0967C84.538 87.8858 85.1618 88.5088 85.9519 88.5088H90.4431C91.2333 88.5088 91.8571 87.8858 91.8571 87.0967ZM72.2703 84.1895C72.2703 84.9786 72.9357 85.6016 73.7258 85.6016H74.7654V88.9656C74.7654 89.7547 75.3892 90.4192 76.1793 90.4192C76.9695 90.4192 77.5932 89.7547 77.5932 88.9656V84.148C77.5932 83.3589 76.9695 82.6943 76.1793 82.6943H73.7258C72.9357 82.6943 72.2703 83.3173 72.2703 84.148M72.2703 73.7651C72.2703 74.5542 72.9357 75.2187 73.7258 75.2187H74.7654V78.5827C74.7654 79.3718 75.3892 79.9948 76.1793 79.9948C76.9695 79.9948 77.5932 79.3718 77.5932 78.5827V73.7651C77.5932 72.976 76.9695 72.353 76.1793 72.353H73.7258C72.9357 72.353 72.2703 72.976 72.2703 73.7651ZM72.2703 63.3407C72.2703 64.1298 72.9357 64.7943 73.7258 64.7943H74.7654V68.1583C74.7654 68.9474 75.3892 69.5704 76.1793 69.5704C76.9695 69.5704 77.5932 68.9474 77.5932 68.1583V63.3407C77.5932 62.5516 76.9695 61.9286 76.1793 61.9286H73.7258C72.9357 61.9286 72.2703 62.5516 72.2703 63.3407ZM71.3138 42.8657C71.5634 42.8657 71.7713 42.8657 72.0208 42.8657C72.2287 42.8657 72.3951 42.8657 72.603 42.8657C72.6862 42.8657 72.7277 42.8657 72.8109 42.8657C80.6706 43.0733 87.7817 46.3958 92.8967 51.6703C98.0117 56.9033 101.172 64.0882 101.172 71.9792C101.172 78.0844 99.3008 83.7742 96.0572 88.4672V78.0428C96.0572 77.5444 95.8077 77.0876 95.3918 76.8384L82.0845 68.7813V58.6892C82.0845 57.9001 81.4607 57.2771 80.6706 57.2771H80.1715V50.2583C80.1715 50.2583 80.1715 49.8845 80.0468 49.6768C79.7141 48.9708 78.8824 48.6385 78.1754 48.9293L67.8622 53.4147C67.2801 53.6223 66.9058 54.1622 66.9058 54.7852V57.2771H66.4068C65.6166 57.2771 64.9513 57.9001 64.9513 58.6892V65.8741L56.3431 68.1583C55.6777 68.2829 55.2203 68.8644 55.2203 69.5704V76.6723H49.4815C48.6914 76.6723 48.0676 77.3368 48.0676 78.1259V88.5503C44.8239 83.8572 42.9526 78.1674 42.9526 72.0623C42.9526 64.1713 46.0715 57.0279 51.1865 51.7949C56.3015 46.5204 63.371 43.1979 71.2307 42.9487C71.2723 42.9487 71.3554 42.9487 71.4386 42.9487M50.8538 79.4549H61.9987V99.3069C59.1293 98.2687 56.4678 96.7735 54.0975 94.9461H54.7628C55.553 94.9461 56.2183 94.3232 56.2183 93.4925C56.2183 92.6619 55.5945 92.0805 54.7628 92.0805H50.937L50.8538 91.9974V89.2979H54.7628C55.553 89.2979 56.2183 88.6749 56.2183 87.8858C56.2183 87.0967 55.5945 86.4322 54.7628 86.4322H50.8538V83.6496H54.7628C55.553 83.6496 56.2183 83.0266 56.2183 82.196C56.2183 81.3653 55.5945 80.7839 54.7628 80.7839H50.8538V79.4549ZM64.7018 77.4199L67.9038 76.5477V78.0844L64.8265 78.915V78.0428C64.8265 77.8352 64.7849 77.6275 64.7018 77.4199ZM64.8681 81.8637L67.9454 81.0331V82.5698L64.8681 83.4004V81.8637ZM64.8681 86.3907L67.9454 85.56V87.0967L64.8681 87.9273V86.3907ZM64.8681 90.8761L67.9454 90.0454V91.5821L64.8681 92.4127V90.8761ZM64.8681 95.3615L67.9454 94.5308V96.0675L64.8681 96.8981V95.3615ZM64.8681 99.8469L67.9454 99.0162V100.802C66.9058 100.677 65.9077 100.47 64.8681 100.221V99.8469ZM67.9038 72.1038V73.6405L58.3392 76.2154C58.3392 76.2154 58.1313 76.2985 58.0065 76.34V74.7618L67.9038 72.1038ZM58.0065 71.7716V70.6087L63.4126 69.1551L67.9038 67.9507V69.1136L58.0065 71.7716ZM69.692 57.194V55.6158L77.2606 52.3348V57.194H69.692ZM68.9851 64.7112L67.7375 65.0435V60.0597H79.1319V100.221C78.3418 100.428 77.5101 100.594 76.72 100.719C77.219 100.511 77.5932 99.9714 77.5932 99.39V94.5724C77.5932 93.7833 76.9695 93.1603 76.1793 93.1603H73.7258C72.9357 93.1603 72.2703 93.7833 72.2703 94.5724C72.2703 95.3615 72.9357 96.026 73.7258 96.026H74.7654V99.39C74.7654 100.138 75.306 100.719 76.0546 100.802C75.0149 100.927 73.9337 101.01 72.8941 101.051C72.8109 101.051 72.7693 101.051 72.6862 101.051C72.4782 101.051 72.3119 101.051 72.104 101.051C71.8545 101.051 71.6049 101.051 71.3138 101.051C71.2307 101.051 71.1891 101.051 71.1059 101.051C71.0227 101.051 70.9396 101.051 70.8148 101.051V66.0818C70.8148 66.0818 70.8148 65.8326 70.7732 65.708C70.5653 64.9604 69.7752 64.5036 69.0266 64.7112M82.0429 72.1038L93.1878 78.8735V92.0389C93.1878 92.0389 93.0214 92.2051 92.9383 92.2881C92.5224 92.7034 92.1066 93.1188 91.6491 93.5341C91.7739 93.3264 91.8986 93.0357 91.8986 92.745C91.8986 91.9559 91.2749 91.2914 90.4847 91.2914H85.9935C85.2034 91.2914 84.5796 91.9143 84.5796 92.745C84.5796 93.5756 85.2034 94.157 85.9935 94.157H90.4847C90.6927 94.157 90.9422 94.1155 91.1085 94.0324C89.861 95.1123 88.4886 96.109 87.0747 96.9396H85.9935C85.245 96.9396 84.6212 97.5211 84.5796 98.2687C83.7895 98.6424 82.9578 99.0162 82.0845 99.3069V72.0623L82.0429 72.1038ZM72.0208 40C63.8285 40 56.4263 43.1564 50.7706 48.2232C50.2716 48.6801 49.6894 49.0954 49.232 49.5522C48.4418 50.3829 47.7765 51.2966 47.0279 52.2103C46.4873 52.8748 45.8635 53.5393 45.3645 54.2453C44.616 55.3666 43.9922 56.6126 43.41 57.8585C43.1189 58.44 42.7446 58.9799 42.4951 59.6029C41.7882 61.3056 41.2476 63.05 40.8733 64.8774C40.8317 65.085 40.707 65.2927 40.6654 65.5419C40.2495 67.6184 40 69.7781 40 71.9792C40 74.1804 40.2079 76.34 40.6654 78.4166C40.707 78.6243 40.7901 78.8319 40.8317 79.0396C41.2476 80.867 41.7882 82.6528 42.4951 84.3556C42.7446 84.8955 43.0773 85.3939 43.3268 85.9338C43.9506 87.2213 44.5744 88.5503 45.4061 89.7547C45.822 90.4192 46.4042 90.9591 46.8616 91.5821C47.6101 92.5788 48.3587 93.5756 49.232 94.4478C49.6894 94.9046 50.23 95.3199 50.729 95.7352C56.3847 100.802 63.8285 104 72.0208 104C79.7141 104 86.6589 101.176 92.1481 96.6905C93.1046 95.9014 94.0611 95.1538 94.9344 94.2816C94.9344 94.2816 94.976 94.2401 95.0175 94.1986C100.59 88.4257 104 80.6178 104 72.0208C104 63.4237 100.548 55.4912 94.9344 49.7184C94.0611 48.8047 93.063 48.0571 92.065 47.268C86.5757 42.8241 79.6309 40.0415 72.0208 40.0415" fill="#71C7AA"/>
<path d="M123.587 72.7896C118.243 80.2701 112.111 86.2961 105.482 90.8675C95.1252 98.0156 83.5664 101.59 72.0076 101.59C60.4489 101.59 48.8901 98.0156 38.5328 90.8675C31.9042 86.2961 25.7726 80.2286 20.4283 72.7481C20.0968 72.2909 20.0968 71.6675 20.4283 71.2104C25.7726 63.7299 31.9042 57.7039 38.5328 53.1325C48.8901 45.9844 60.4489 42.4104 72.0076 42.4104C83.5664 42.4104 95.1252 45.9844 105.482 53.1325C112.111 57.7039 118.284 63.7714 123.587 71.252C123.918 71.7091 123.918 72.3325 123.587 72.7896ZM126.736 71.2104C121.06 63.1065 114.555 56.5818 107.512 51.5948C96.5338 43.8649 84.2707 40 72.0076 40C59.7446 40 47.4816 43.8649 36.5028 51.5948C29.4598 56.5403 22.9555 63.0649 17.2796 71.1688C16.9068 71.626 16.9068 72.3325 17.2796 72.8312C22.9555 80.9351 29.4598 87.4597 36.5028 92.4052C47.523 100.135 59.7446 104 72.0076 104C84.2707 104 96.5338 100.135 107.512 92.4052C114.555 87.4597 121.06 80.9351 126.736 72.8312C127.067 72.374 127.109 71.7091 126.736 71.1688" fill="#089CB5"/>
<path d="M72 1C32.796 1 1 32.796 1 72C1 111.204 32.796 143 72 143C111.204 143 143 111.204 143 72C143 51.3576 134.177 32.7544 120.11 19.8113" stroke="#A5378A" stroke-width="2"/>
<path d="M138.898 95C141.529 87.911 143 80.2482 143 72.3396C143 61.8495 140.503 51.933 136 43" stroke="#DDA52B" stroke-width="10"/>
</svg>
