<svg width="40" height="71" viewBox="0 0 40 71" fill="none" xmlns="http://www.w3.org/2000/svg">
<path d="M17.787 24.097C17.7273 24.4672 17.6974 24.9024 17.6974 25.3976C17.6974 29.3546 19.1747 33.8018 22.1243 38.7442L24.1537 42.266C26.3671 45.8527 27.4713 49.3144 27.4713 52.6461C27.4713 55.7376 26.6108 58.2989 24.8898 60.3399C23.1639 62.3809 20.8957 63.3964 18.0705 63.3964C14.8722 63.3964 12.1067 61.9757 9.77388 59.1343C7.44108 56.2929 6.2722 52.7111 6.2722 48.384C6.2722 45.0473 7.10285 41.4656 8.76416 37.6337C10.4205 33.8068 13.4646 28.6743 17.8865 22.2461C17.8865 23.1115 17.8516 23.7318 17.792 24.097M32.8084 0.000119654C10.9378 18.6643 0 35.0974 0 49.3144C0 55.7376 1.93488 60.9652 5.80464 64.9771C9.6744 68.9991 14.6235 71.0051 20.647 71.0051C24.2084 71.0051 27.4664 70.1697 30.4159 68.4989C33.3655 66.8281 35.6685 64.607 37.3298 61.8256C38.9911 59.0442 39.8168 55.9277 39.8168 52.461C39.8168 48.0088 38.0361 43.3765 34.4747 38.5591L30.6049 33.3666C28.0284 30.0299 26.7352 26.5082 26.7352 22.7964C26.7352 20.2051 27.4116 17.4537 28.7646 14.5473C30.1125 11.6409 32.51 7.71893 35.952 2.77649L32.8184 -0.00488281L32.8084 0.000119654Z" fill="#ACCEDB"/>
</svg>
