<svg width="158" height="53" viewBox="0 0 158 53" fill="none" xmlns="http://www.w3.org/2000/svg">
<g clip-path="url(#clip0_1_4)">
<path d="M39.1198 49.7181H41.8525C41.9501 49.7181 42.0151 49.71 42.0395 49.6855C42.0639 49.661 42.0883 49.612 42.0964 49.5222L42.2916 47.9629C42.2998 47.8649 42.3079 47.7751 42.3079 47.7016C42.3079 47.4486 42.1778 47.2934 41.9094 47.2445C41.7467 47.2118 41.6654 47.171 41.6654 47.122C41.6654 47.0649 41.7061 47.0322 41.7955 47.0322C41.8281 47.0322 41.8769 47.0322 41.9257 47.0322C42.1127 47.0567 42.3242 47.0649 42.5519 47.0649C42.7552 47.0649 42.926 47.0567 43.0643 47.0404L43.1944 47.024C43.2595 47.024 43.3083 47.024 43.3245 47.024C43.4303 47.024 43.4791 47.0485 43.4791 47.1138C43.4791 47.1547 43.4547 47.1873 43.3977 47.2036L43.3327 47.2281C43.1781 47.2689 43.0805 47.3261 43.0317 47.3914C42.9911 47.4567 42.9504 47.6118 42.926 47.8567L42.4218 52.0285C42.4055 52.1428 42.3974 52.2244 42.3974 52.2816C42.3974 52.5428 42.5275 52.6898 42.7959 52.7469C42.9585 52.7796 43.0399 52.8204 43.0399 52.8694C43.0399 52.9265 42.9911 52.9592 42.8854 52.9592C42.8691 52.9592 42.8284 52.9592 42.7715 52.9592C42.5763 52.9347 42.3648 52.9265 42.1452 52.9265C41.9419 52.9265 41.7711 52.9265 41.6329 52.9429H41.5109C41.4458 52.9592 41.397 52.9673 41.3807 52.9673C41.275 52.9673 41.2262 52.9347 41.2262 52.8775C41.2262 52.8367 41.275 52.7959 41.3807 52.7714C41.5353 52.7306 41.6329 52.6734 41.6735 52.6081C41.7142 52.5428 41.7549 52.3877 41.7874 52.1428L41.9989 50.3712C41.9989 50.3712 42.007 50.2896 42.007 50.2488C42.007 50.1426 41.9419 50.0937 41.8199 50.0937H39.014C38.949 50.0937 38.9164 50.1426 38.9002 50.2324L38.6806 52.0448C38.6725 52.151 38.6643 52.2326 38.6643 52.2979C38.6643 52.551 38.7944 52.7061 39.0628 52.7632C39.2255 52.7959 39.3068 52.8367 39.3068 52.8857C39.3068 52.9429 39.258 52.9755 39.1523 52.9755C39.136 52.9755 39.0954 52.9755 39.0384 52.9755C38.8351 52.951 38.6318 52.9429 38.4122 52.9429C38.217 52.9429 38.0543 52.9429 37.9161 52.9592H37.7941C37.7209 52.9755 37.6802 52.9837 37.6558 52.9837C37.5501 52.9837 37.4932 52.951 37.4932 52.8939C37.4932 52.8531 37.542 52.8122 37.6477 52.7877C37.8754 52.7306 37.9974 52.5918 38.0299 52.3877L38.0543 52.1673L38.5667 47.9955C38.5749 47.9057 38.583 47.8241 38.583 47.7343C38.583 47.4812 38.4529 47.3261 38.1845 47.2771C38.0218 47.2445 37.9405 47.2036 37.9405 47.1547C37.9405 47.0975 37.9893 47.0649 38.0869 47.0649C38.1031 47.0649 38.1438 47.0649 38.2089 47.0649C38.4041 47.0893 38.6074 47.0975 38.8351 47.0975C39.0222 47.0975 39.1848 47.0893 39.3231 47.073L39.4532 47.0567C39.5264 47.0567 39.5752 47.0567 39.5915 47.0567C39.6972 47.0567 39.746 47.0812 39.746 47.1465C39.746 47.1873 39.7135 47.22 39.6647 47.2363L39.5915 47.2608C39.437 47.3016 39.3394 47.3587 39.2987 47.4241C39.258 47.4894 39.2174 47.6445 39.193 47.8894L38.9896 49.5059C38.9896 49.5548 38.9815 49.5875 38.9815 49.612C38.9815 49.7018 39.0303 49.7426 39.1279 49.7426" fill="#414042"/>
<path d="M48.0417 49.6202C47.7164 49.6202 47.4398 49.8079 47.2203 50.1753C47.0007 50.5427 46.8949 50.9998 46.8949 51.5468C46.8949 52.3469 47.1389 52.7469 47.6269 52.7469C47.9197 52.7469 48.1718 52.551 48.3914 52.1591C48.6029 51.7673 48.7086 51.2937 48.7086 50.7468C48.7086 49.9957 48.489 49.6202 48.0417 49.6202ZM48.0336 49.4161C48.4158 49.4161 48.7167 49.5467 48.9445 49.7998C49.1722 50.0528 49.286 50.3957 49.286 50.8202C49.286 51.4244 49.1152 51.9387 48.7818 52.3632C48.4483 52.7877 48.0336 53 47.5537 53C47.1877 53 46.8949 52.8694 46.6672 52.5918C46.4395 52.3224 46.3256 51.9714 46.3256 51.5387C46.3256 51.2203 46.3907 50.9019 46.5289 50.5753C46.6591 50.2488 46.8299 49.9957 47.0332 49.7998C47.3179 49.5385 47.6513 49.4079 48.0336 49.4079" fill="#414042"/>
<path d="M53.3525 50.3222C53.5477 50.0447 53.7673 49.8242 54.0113 49.6691C54.2472 49.514 54.4911 49.4405 54.7351 49.4405C55.093 49.4405 55.2719 49.6773 55.2719 50.159V50.3222C55.459 50.0528 55.6542 49.8406 55.8738 49.6773C56.0933 49.5222 56.3048 49.4405 56.5081 49.4405C56.7115 49.4405 56.866 49.5222 56.988 49.6936C57.11 49.8651 57.1669 50.0937 57.1669 50.3794C57.1669 50.4855 57.1669 50.5917 57.1588 50.6978L57.053 52.0775L57.0368 52.2571L57.053 52.3387C57.0774 52.404 57.1262 52.4367 57.1994 52.4367C57.3377 52.4367 57.476 52.3224 57.6224 52.102C57.6549 52.053 57.6874 52.0285 57.7281 52.0285C57.785 52.0285 57.8094 52.0612 57.8094 52.1346C57.8094 52.2326 57.7199 52.3877 57.5492 52.5836C57.3214 52.8449 57.0937 52.9755 56.866 52.9755C56.6383 52.9755 56.5325 52.7714 56.5325 52.3714C56.5325 52.3061 56.5325 52.1999 56.5488 52.0775L56.6464 50.7059C56.6464 50.6243 56.6545 50.5508 56.6545 50.4855C56.6545 50.0365 56.5 49.8161 56.1991 49.8161C55.9876 49.8161 55.8006 49.963 55.6298 50.2651C55.4671 50.5672 55.3532 50.959 55.2882 51.4407L55.1255 52.7551C55.1174 52.8449 55.093 52.8939 55.0523 52.9265C55.0117 52.9592 54.9385 52.9673 54.8327 52.9673C54.6945 52.9673 54.6213 52.9184 54.6213 52.8286V52.7551L54.8653 50.8447C54.8815 50.7304 54.8897 50.5998 54.8897 50.4529C54.8897 50.2569 54.8409 50.1018 54.7514 49.9794C54.6619 49.8651 54.5318 49.8079 54.3773 49.8079C54.1577 49.8079 53.9544 49.9549 53.7673 50.2406C53.5802 50.5263 53.4664 50.8856 53.4176 51.3019L53.2468 52.7632C53.2387 52.853 53.2061 52.902 53.1736 52.9347C53.1329 52.9673 53.0597 52.9755 52.954 52.9755C52.8157 52.9755 52.7425 52.9265 52.7425 52.8367C52.7425 52.8204 52.7425 52.7959 52.7507 52.7551L53.0028 50.6978C53.0109 50.608 53.0191 50.5427 53.0191 50.4774C53.0191 50.1916 52.954 50.0528 52.832 50.0447C52.71 50.0365 52.588 50.1671 52.4742 50.4284C52.4498 50.4937 52.4254 50.5263 52.3928 50.5263C52.344 50.5263 52.3278 50.4774 52.3278 50.3957C52.3278 50.2079 52.4091 50.0039 52.5718 49.7834C52.7344 49.563 52.8808 49.4569 53.0272 49.4569C53.2549 49.4569 53.3769 49.7508 53.3769 50.3304" fill="#414042"/>
<path d="M61.1521 51.0733C61.5831 51.0733 61.9491 50.9754 62.2419 50.7713C62.5347 50.5753 62.6811 50.3222 62.6811 50.0283C62.6811 49.7589 62.5428 49.6283 62.2826 49.6283C62.0467 49.6283 61.8109 49.7671 61.575 50.0528C61.3717 50.3059 61.2334 50.6406 61.1521 51.0733ZM61.1277 51.2366C61.1114 51.3591 61.1033 51.457 61.1033 51.5305C61.1033 51.8244 61.2009 52.0775 61.3961 52.2816C61.5913 52.4857 61.8271 52.5918 62.1037 52.5918C62.4534 52.5918 62.738 52.4857 62.9495 52.2652C63.0146 52.1999 63.0633 52.1673 63.0796 52.1673C63.1203 52.1673 63.1365 52.1918 63.1365 52.2489C63.1365 52.3469 63.039 52.4693 62.8356 52.6326C62.5103 52.8857 62.1443 53.0082 61.7458 53.0082C61.3961 53.0082 61.1196 52.8939 60.9162 52.6816C60.7129 52.4612 60.6072 52.1591 60.6072 51.7836C60.6072 51.2039 60.8024 50.6651 61.1846 50.1671C61.5669 49.6691 61.9817 49.416 62.429 49.416C62.6486 49.416 62.8275 49.4732 62.9658 49.5957C63.104 49.71 63.1691 49.8651 63.1691 50.0528C63.1691 50.3957 62.9414 50.6896 62.494 50.9509C62.1524 51.1468 61.697 51.2448 61.1196 51.2448" fill="#414042"/>
<path d="M64.7551 52.0285C64.7551 52.0285 64.8364 52.053 64.877 52.1101L64.999 52.2489C64.999 52.2489 65.0804 52.3387 65.1454 52.3877C65.1942 52.4285 65.2105 52.4612 65.2105 52.4938C65.2105 52.5183 65.178 52.5592 65.1292 52.6C64.9665 52.7306 64.8445 52.8367 64.7795 52.9265C64.7388 52.9837 64.6981 53.0082 64.6656 53.0082C64.6331 53.0082 64.6005 52.9755 64.5599 52.9184C64.4948 52.8122 64.4135 52.7143 64.324 52.6326C64.2752 52.5836 64.2427 52.5428 64.2427 52.5102C64.2427 52.4612 64.2752 52.4204 64.3484 52.3714C64.4216 52.3224 64.4785 52.2734 64.5029 52.2489L64.6331 52.1101C64.6819 52.0612 64.7225 52.0367 64.7551 52.0285Z" fill="#414042"/>
<path d="M73.1483 47.8731L72.6278 52.1673C72.6116 52.2734 72.6034 52.3551 72.6034 52.404C72.6034 52.5347 72.6441 52.6163 72.7173 52.6571C72.7905 52.6979 72.9531 52.7143 73.1971 52.7143C73.6526 52.7143 74.0267 52.6734 74.3114 52.5918C74.596 52.5102 74.8644 52.3632 75.1084 52.151C75.4418 51.8734 75.7184 51.4652 75.938 50.9427C76.1575 50.412 76.2633 49.8814 76.2633 49.3507C76.2633 48.6405 75.9949 48.0853 75.4744 47.6935C75.1165 47.4322 74.6285 47.3016 73.9942 47.3016C73.6444 47.3016 73.4249 47.3343 73.3354 47.3914C73.2459 47.4567 73.1809 47.6118 73.1483 47.8731ZM72.0097 52.1428L72.5221 47.9629C72.5384 47.8567 72.5465 47.7669 72.5465 47.7016C72.5465 47.4486 72.4082 47.2934 72.1398 47.2445C71.9772 47.2118 71.8958 47.171 71.8958 47.122C71.8958 47.0649 71.9446 47.0322 72.026 47.0322C72.091 47.0322 72.2049 47.0485 72.3676 47.073C72.4896 47.0893 72.5953 47.0975 72.701 47.0975C72.8149 47.0975 73.0263 47.0893 73.3435 47.0649C73.6607 47.0404 73.9698 47.0322 74.2626 47.0322C75.1409 47.0322 75.816 47.2608 76.2795 47.7098C76.7187 48.1343 76.9383 48.6813 76.9383 49.3507C76.9383 49.9549 76.8001 50.5345 76.5154 51.0897C76.2307 51.6366 75.8485 52.0856 75.3605 52.4285C75.0759 52.6245 74.7668 52.7633 74.4415 52.8449C74.1162 52.9265 73.7095 52.9673 73.2215 52.9673C72.9857 52.9673 72.7417 52.9592 72.5058 52.9347C72.3188 52.9184 72.1968 52.9102 72.1398 52.9102C72.0585 52.9102 71.969 52.9102 71.8715 52.9347C71.7413 52.9592 71.6519 52.9673 71.6112 52.9673C71.5055 52.9673 71.4567 52.9347 71.4567 52.8775C71.4567 52.8367 71.5055 52.7959 71.6031 52.7714C71.8308 52.7143 71.9528 52.5755 71.9853 52.3632L72.0097 52.1428Z" fill="#414042"/>
<path d="M80.3135 51.0733C80.7445 51.0733 81.1105 50.9754 81.4033 50.7713C81.6961 50.5753 81.8425 50.3222 81.8425 50.0283C81.8425 49.7589 81.7042 49.6283 81.444 49.6283C81.2081 49.6283 80.9722 49.7671 80.7445 50.0528C80.5412 50.3059 80.3948 50.6406 80.3216 51.0733M80.2891 51.2366C80.2728 51.3591 80.2647 51.457 80.2647 51.5305C80.2647 51.8244 80.3623 52.0775 80.5575 52.2816C80.7526 52.4857 80.9885 52.5918 81.265 52.5918C81.6147 52.5918 81.8994 52.4857 82.1109 52.2652C82.1759 52.1999 82.2247 52.1673 82.241 52.1673C82.2817 52.1673 82.2979 52.1918 82.2979 52.2489C82.2979 52.3469 82.2003 52.4693 81.997 52.6326C81.6717 52.8857 81.3057 53.0082 80.9072 53.0082C80.5575 53.0082 80.2809 52.8939 80.0776 52.6816C79.8743 52.4612 79.7686 52.1591 79.7686 51.7836C79.7686 51.2039 79.9637 50.6651 80.346 50.1671C80.7282 49.6691 81.143 49.416 81.5903 49.416C81.8099 49.416 81.9889 49.4732 82.1271 49.5957C82.2654 49.71 82.3305 49.8651 82.3305 50.0528C82.3305 50.3957 82.1027 50.6896 81.6554 50.9509C81.3138 51.1468 80.8584 51.2448 80.2809 51.2448" fill="#414042"/>
<path d="M85.6162 51.8815L86.153 47.5057C86.1692 47.3832 86.1774 47.3098 86.1774 47.2771C86.1774 47.1791 86.1042 47.1302 85.9334 47.1302H85.7138C85.5999 47.1302 85.5348 47.1057 85.543 47.0485C85.543 46.9832 85.5999 46.9506 85.7138 46.9506C86.0391 46.9342 86.2831 46.9097 86.4295 46.8771C86.5108 46.8608 86.5759 46.8526 86.6247 46.8526C86.6816 46.8526 86.706 46.8852 86.706 46.9506V46.9995L86.1042 51.9877C86.0879 52.0938 86.0798 52.1754 86.0798 52.2163C86.0798 52.3795 86.1367 52.4612 86.2424 52.4612C86.34 52.4612 86.4376 52.4122 86.5433 52.3142C86.6491 52.2163 86.7467 52.0856 86.828 51.9305C86.8605 51.8734 86.8931 51.8407 86.9256 51.8407C86.9825 51.8407 87.0151 51.8734 87.0151 51.9305C87.0151 51.9714 86.9825 52.0612 86.9093 52.1836C86.8361 52.3142 86.7711 52.4204 86.6979 52.5102C86.5921 52.6408 86.462 52.7551 86.3156 52.853C86.1692 52.9429 86.0472 52.9918 85.9415 52.9918C85.6975 52.9918 85.5674 52.7551 85.5674 52.2897C85.5674 52.1755 85.5755 52.0448 85.5918 51.8979" fill="#414042"/>
<path d="M90.9921 47.6853C90.9921 47.6853 91.0409 47.718 91.0653 47.7669C91.1141 47.8567 91.1385 47.9057 91.1548 47.9221L91.2524 48.0608C91.2524 48.0608 91.2931 48.1262 91.2931 48.1506C91.2931 48.1751 91.2686 48.2078 91.228 48.2486C91.1629 48.3139 91.0897 48.4037 91.0003 48.5099C90.9677 48.5507 90.9352 48.5752 90.9027 48.5752C90.8701 48.5752 90.8376 48.5507 90.8132 48.4935C90.7563 48.3711 90.6993 48.2731 90.6505 48.216C90.6261 48.1751 90.6099 48.1506 90.6099 48.1262C90.6099 48.0935 90.6261 48.0608 90.6505 48.0282L90.7725 47.9057C90.7725 47.9057 90.8213 47.8486 90.8864 47.7669C90.9271 47.718 90.9677 47.6935 90.9921 47.6935M90.252 51.1795L90.431 50.1181C90.4472 50.0365 90.4554 49.9712 90.4554 49.9059C90.4554 49.7916 90.374 49.7344 90.2032 49.7344H89.9755C89.8535 49.7344 89.7884 49.7018 89.7966 49.6446C89.7966 49.5793 89.8616 49.5467 89.9755 49.5467C90.2358 49.5467 90.4879 49.5222 90.7319 49.4732C90.8295 49.4569 90.9027 49.4487 90.9515 49.4487C91.0084 49.4487 91.0409 49.4814 91.0409 49.5548V49.6038L90.7969 50.7876C90.6749 51.3754 90.618 51.8244 90.618 52.1265C90.618 52.2979 90.6668 52.3877 90.7481 52.3959C90.8783 52.404 91.0084 52.2816 91.1304 52.0367C91.1629 51.9714 91.1955 51.9387 91.2361 51.9387C91.2849 51.9387 91.3012 51.9714 91.3012 52.0285C91.2931 52.2163 91.1792 52.4204 90.9759 52.6408C90.7644 52.8612 90.5773 52.9755 90.4147 52.9755C90.3252 52.9755 90.2602 52.9102 90.2032 52.7796C90.1463 52.6571 90.1219 52.4857 90.1219 52.2897C90.1219 52.0612 90.1707 51.6938 90.252 51.1795Z" fill="#414042"/>
<path d="M95.0424 50.061C94.9854 50.061 94.896 50.1345 94.774 50.3141C94.6113 50.5345 94.53 50.7549 94.53 50.9672C94.53 51.106 94.5625 51.2203 94.6276 51.3182C94.6926 51.4162 94.7658 51.4652 94.8553 51.4652C94.9204 51.4652 94.9692 51.4407 94.9854 51.3835C95.0098 51.3264 95.0342 51.1958 95.0505 50.9917C95.0586 50.9264 95.0749 50.8284 95.0912 50.7141L95.1156 50.5263C95.1318 50.4202 95.14 50.3386 95.14 50.2814C95.14 50.1508 95.1074 50.0773 95.0342 50.061M95.6361 50.3222L95.4978 51.4815C95.4897 51.5468 95.4897 51.6285 95.4897 51.7183C95.4897 52.2244 95.6117 52.4693 95.8557 52.4693C95.9695 52.4693 96.0997 52.4122 96.246 52.2897C96.3843 52.1673 96.5144 52.0122 96.6283 51.8244C96.9048 51.3509 97.0431 50.8447 97.0431 50.3141C97.0431 50.1916 97.0024 50.0365 96.9292 49.8324C96.9048 49.7671 96.8967 49.7263 96.8967 49.6936C96.8967 49.6283 96.9211 49.5793 96.9699 49.5303C97.0187 49.4814 97.0756 49.4569 97.1407 49.4569C97.3115 49.4569 97.3928 49.5957 97.3928 49.8651C97.3928 50.1835 97.3359 50.5345 97.222 50.9182C97.1081 51.3019 96.9699 51.6285 96.7991 51.8979C96.6202 52.1836 96.4006 52.4367 96.1403 52.6571C95.8719 52.8775 95.6686 52.9918 95.5059 52.9918C95.3677 52.9918 95.2538 52.8939 95.1644 52.6816C95.0668 52.4775 95.018 52.2326 95.018 51.955V51.8489C95.018 51.8489 95.018 51.8081 95.0098 51.7836C95.0017 51.7428 94.961 51.7183 94.8878 51.7101C94.5137 51.653 94.3267 51.3754 94.3267 50.8692C94.3267 50.5263 94.4324 50.2079 94.6357 49.8977C94.839 49.5875 95.0586 49.4405 95.2864 49.4405C95.5141 49.4405 95.6442 49.6528 95.6442 50.0773C95.6442 50.1671 95.6442 50.2406 95.6361 50.3222Z" fill="#414042"/>
<path d="M100.703 51.0733C101.134 51.0733 101.5 50.9754 101.793 50.7713C102.086 50.5753 102.232 50.3222 102.232 50.0283C102.232 49.7589 102.094 49.6283 101.825 49.6283C101.589 49.6283 101.354 49.7671 101.126 50.0528C100.923 50.3059 100.784 50.6406 100.703 51.0733ZM100.679 51.2366C100.662 51.3591 100.654 51.457 100.654 51.5305C100.654 51.8244 100.752 52.0775 100.947 52.2816C101.142 52.4857 101.378 52.5918 101.654 52.5918C102.004 52.5918 102.289 52.4857 102.5 52.2652C102.565 52.1999 102.614 52.1673 102.63 52.1673C102.671 52.1673 102.687 52.1918 102.687 52.2489C102.687 52.3469 102.59 52.4693 102.386 52.6326C102.061 52.8857 101.695 53.0082 101.297 53.0082C100.947 53.0082 100.67 52.8939 100.467 52.6816C100.264 52.4612 100.158 52.1591 100.158 51.7836C100.158 51.2039 100.353 50.6651 100.735 50.1671C101.118 49.6691 101.532 49.416 101.98 49.416C102.199 49.416 102.378 49.4732 102.508 49.5957C102.647 49.71 102.72 49.8651 102.72 50.0528C102.72 50.3957 102.492 50.6896 102.045 50.9509C101.703 51.1468 101.248 51.2448 100.67 51.2448" fill="#414042"/>
<path d="M106.795 50.3222C107.112 49.7344 107.437 49.4405 107.787 49.4405C107.99 49.4405 108.088 49.514 108.088 49.6446C108.088 49.6773 108.08 49.7263 108.063 49.7753C108.047 49.8406 108.031 49.8814 108.031 49.8977L107.982 50.1018C107.966 50.1916 107.917 50.2406 107.852 50.2488C107.819 50.2488 107.787 50.2161 107.762 50.1508C107.697 49.9875 107.6 49.9059 107.461 49.9059C107.323 49.9059 107.217 50.0528 107.12 50.3467C107.022 50.6406 106.933 51.106 106.86 51.7428L106.738 52.7551V52.8041C106.721 52.9184 106.632 52.9755 106.461 52.9755C106.307 52.9755 106.233 52.9265 106.233 52.8367C106.233 52.8122 106.233 52.7877 106.233 52.7551L106.445 51.0733C106.453 50.9754 106.461 50.8611 106.461 50.7304C106.461 50.3059 106.364 50.0937 106.168 50.0937C106.079 50.0937 106.006 50.1426 105.932 50.2324C105.859 50.3304 105.819 50.4447 105.794 50.5835C105.778 50.6896 105.745 50.7468 105.688 50.7468C105.623 50.7468 105.591 50.6733 105.591 50.5427C105.591 50.2488 105.664 50.012 105.81 49.8242C105.884 49.7344 105.965 49.6528 106.063 49.5793C106.16 49.5059 106.242 49.4732 106.298 49.4732C106.486 49.4732 106.648 49.7589 106.795 50.3304" fill="#414042"/>
<path d="M111.121 51.0733C111.552 51.0733 111.918 50.9754 112.211 50.7713C112.504 50.5753 112.65 50.3222 112.65 50.0283C112.65 49.7589 112.512 49.6283 112.244 49.6283C112.008 49.6283 111.772 49.7671 111.544 50.0528C111.341 50.3059 111.195 50.6406 111.121 51.0733ZM111.105 51.2366C111.089 51.3591 111.089 51.457 111.089 51.5305C111.089 51.8244 111.186 52.0775 111.382 52.2816C111.577 52.4857 111.813 52.5918 112.089 52.5918C112.439 52.5918 112.724 52.4857 112.935 52.2652C113 52.1999 113.049 52.1673 113.065 52.1673C113.106 52.1673 113.13 52.1918 113.13 52.2489C113.13 52.3469 113.024 52.4693 112.821 52.6326C112.496 52.8857 112.13 53.0082 111.731 53.0082C111.382 53.0082 111.105 52.8939 110.902 52.6816C110.698 52.4612 110.593 52.1591 110.593 51.7836C110.593 51.2039 110.788 50.6651 111.17 50.1671C111.552 49.6691 111.967 49.416 112.414 49.416C112.634 49.416 112.813 49.4732 112.951 49.5957C113.089 49.71 113.163 49.8651 113.163 50.0528C113.163 50.3957 112.935 50.6896 112.488 50.9509C112.146 51.1468 111.691 51.2448 111.113 51.2448" fill="#414042"/>
<path d="M118.303 51.1958L118.441 50.0937C118.441 50.0447 118.449 50.0039 118.449 49.9794C118.449 49.7508 118.278 49.6283 117.937 49.6283C117.668 49.6283 117.416 49.7753 117.172 50.061C117.01 50.2569 116.871 50.5182 116.766 50.8284C116.66 51.1468 116.603 51.4407 116.603 51.7183C116.603 51.9795 116.66 52.1836 116.774 52.3387C116.888 52.4938 117.042 52.5755 117.237 52.5755C117.514 52.5755 117.75 52.4449 117.961 52.1918C118.14 51.9713 118.254 51.6366 118.311 51.1958M118.197 52.102C117.88 52.6979 117.473 53 116.977 53C116.701 53 116.489 52.902 116.335 52.7061C116.18 52.5102 116.099 52.2408 116.099 51.8897C116.099 51.2774 116.294 50.7223 116.684 50.2161C117.075 49.7099 117.498 49.4569 117.969 49.4569C118.116 49.4569 118.303 49.5059 118.506 49.6038L118.766 47.4975C118.783 47.3832 118.791 47.3016 118.791 47.2608C118.791 47.1628 118.718 47.1138 118.563 47.1138H118.352C118.238 47.1138 118.181 47.0893 118.181 47.0322C118.181 46.9669 118.238 46.9342 118.352 46.9342C118.677 46.9179 118.913 46.8934 119.051 46.8608C119.132 46.8444 119.197 46.8363 119.246 46.8363C119.303 46.8363 119.328 46.8689 119.328 46.9342C119.328 46.9587 119.328 46.975 119.328 46.9832L118.75 51.6774C118.734 51.8489 118.718 51.9958 118.718 52.102C118.718 52.3551 118.783 52.4857 118.921 52.4857C119.075 52.4857 119.23 52.3632 119.376 52.1183L119.458 51.9877C119.49 51.9387 119.515 51.9142 119.547 51.9142C119.588 51.9142 119.612 51.9387 119.612 51.9877C119.612 52.1183 119.531 52.2897 119.376 52.502C119.165 52.7959 118.929 52.951 118.685 52.951C118.531 52.951 118.425 52.902 118.36 52.8122C118.295 52.7224 118.246 52.551 118.213 52.2979C118.213 52.2489 118.197 52.1836 118.189 52.0938" fill="#414042"/>
<path d="M120.531 52.0285C120.531 52.0285 120.613 52.053 120.653 52.1101L120.775 52.2489C120.775 52.2489 120.857 52.3387 120.922 52.3877C120.97 52.4285 120.987 52.4612 120.987 52.4938C120.987 52.5183 120.954 52.5592 120.905 52.6C120.743 52.7306 120.621 52.8367 120.556 52.9265C120.515 52.9837 120.474 53.0082 120.442 53.0082C120.409 53.0082 120.377 52.9755 120.336 52.9184C120.271 52.8122 120.19 52.7143 120.1 52.6326C120.051 52.5836 120.019 52.5428 120.019 52.5102C120.019 52.4612 120.051 52.4204 120.125 52.3714C120.198 52.3224 120.255 52.2734 120.287 52.2489L120.417 52.1101C120.466 52.0612 120.499 52.0367 120.539 52.0285" fill="#414042"/>
<path d="M151.331 1.02865C152.234 1.02865 153.08 1.20826 153.868 1.5593C154.657 1.91035 155.349 2.40019 155.95 3.02064C156.544 3.6411 157.024 4.35136 157.39 5.15958C157.756 5.96781 157.959 6.83318 158 7.7557V19.9444C158 20.5893 157.78 21.12 157.341 21.5527C156.902 21.9854 156.382 22.1976 155.788 22.1976C155.145 22.1976 154.617 21.9854 154.186 21.5527C153.755 21.12 153.543 20.5893 153.543 19.9444V8.01694C153.543 7.38016 153.332 6.84134 152.901 6.40866C152.47 5.97597 151.949 5.76371 151.331 5.76371C150.713 5.76371 150.184 5.97597 149.745 6.40866C149.306 6.84134 149.086 7.372 149.086 8.01694V19.9444C149.086 20.5893 148.875 21.12 148.444 21.5527C148.013 21.9854 147.492 22.1976 146.874 22.1976C146.256 22.1976 145.735 21.9854 145.304 21.5527C144.873 21.12 144.662 20.5893 144.662 19.9444V8.01694C144.662 7.38016 144.45 6.84134 144.019 6.40866C143.588 5.97597 143.06 5.76371 142.417 5.76371C141.775 5.76371 141.279 5.97597 140.847 6.40866C140.416 6.84134 140.205 7.372 140.205 8.01694V19.9444C140.205 20.5893 139.994 21.12 139.562 21.5527C139.131 21.9854 138.603 22.1976 137.96 22.1976C137.318 22.1976 136.822 21.9854 136.391 21.5527C135.96 21.12 135.748 20.5893 135.748 19.9444V7.7557C135.748 6.89849 135.919 6.05761 136.26 5.24122C136.602 4.42483 137.074 3.70641 137.684 3.08595C138.286 2.4655 139.001 1.9675 139.815 1.59196C140.628 1.21642 141.498 1.02865 142.425 1.02865C143.263 1.02865 144.052 1.18377 144.784 1.49399C145.524 1.80422 146.223 2.22058 146.882 2.75123C147.525 2.24507 148.208 1.82871 148.948 1.51032C149.688 1.19193 150.485 1.02865 151.339 1.02865M98.1248 9.0211C98.1248 8.53943 98.0353 8.07409 97.8483 7.63324C97.6612 7.19239 97.4009 6.80869 97.0756 6.47397C96.7422 6.13925 96.3599 5.88617 95.9207 5.6984C95.4816 5.51063 95.018 5.42083 94.5381 5.42083H90.9759V12.6459H94.5381C95.0261 12.6459 95.4816 12.5479 95.9207 12.3601C96.3599 12.1724 96.7422 11.9111 97.0756 11.5846C97.4091 11.258 97.6612 10.8743 97.8483 10.4416C98.0353 10.0089 98.1248 9.54359 98.1248 9.02927M93.6354 17.0707H90.9596V19.9852C90.9596 20.6057 90.7481 21.1282 90.3171 21.5608C89.886 21.9935 89.3655 22.2058 88.7474 22.2058C88.1293 22.2058 87.6088 21.9935 87.1777 21.5608C86.7467 21.1282 86.5352 20.6057 86.5352 19.9852V3.18392C86.5352 2.56346 86.7467 2.04097 87.1777 1.60829C87.6088 1.1756 88.1293 0.96334 88.7474 0.96334H94.5219C95.6198 0.96334 96.6608 1.1756 97.6449 1.59196C98.6209 2.00832 99.4749 2.58795 100.199 3.31454C100.923 4.04113 101.5 4.89834 101.915 5.878C102.33 6.86584 102.541 7.90265 102.541 9.01294C102.541 10.4743 102.191 11.805 101.5 13.0051C100.809 14.2052 99.8896 15.1604 98.7429 15.8706L101.248 18.3198C101.663 18.7606 101.874 19.2913 101.874 19.9117C101.874 20.5322 101.655 21.0628 101.215 21.5037C100.817 21.9445 100.313 22.165 99.6945 22.165C99.0763 22.165 98.5477 21.9445 98.1085 21.5037L93.6191 17.0625L93.6354 17.0707ZM75.4499 1.06947C76.0436 1.06947 76.556 1.2899 76.9871 1.73075C77.4181 2.1716 77.6296 2.69409 77.6296 3.29005V19.9852C77.6296 20.6057 77.4181 21.1282 76.9871 21.5608C76.556 21.9935 76.0436 22.2058 75.4499 22.2058C74.8074 22.2058 74.2788 21.9935 73.8477 21.5608C73.4167 21.1282 73.2052 20.6057 73.2052 19.9852V3.28189C73.2052 2.68592 73.4167 2.1716 73.8477 1.72258C74.2788 1.28173 74.8074 1.06131 75.4499 1.06131M60.2005 9.0211C60.2005 8.53943 60.1029 8.07409 59.9159 7.63324C59.7288 7.19239 59.4686 6.80869 59.1433 6.47397C58.8098 6.13925 58.4276 5.88617 57.9884 5.6984C57.5492 5.51063 57.0856 5.42083 56.5976 5.42083H53.0354V12.6459H56.5976C57.0856 12.6459 57.5411 12.5479 57.9884 12.3601C58.4276 12.1724 58.8098 11.9111 59.1433 11.5846C59.4767 11.258 59.7288 10.8743 59.9159 10.4416C60.1029 10.0089 60.2005 9.54359 60.2005 9.02927M55.7111 17.0707H53.0354V19.9852C53.0354 20.6057 52.8239 21.1282 52.3929 21.5608C51.9618 21.9935 51.4413 22.2058 50.8232 22.2058C50.2051 22.2058 49.6846 21.9935 49.2535 21.5608C48.8225 21.1282 48.611 20.6057 48.611 19.9852V3.18392C48.611 2.56346 48.8225 2.04097 49.2535 1.60829C49.6846 1.1756 50.2051 0.96334 50.8232 0.96334H56.5976C57.6956 0.96334 58.7366 1.1756 59.7207 1.59196C60.6967 2.00832 61.5506 2.58795 62.2745 3.31454C62.9983 4.04113 63.5757 4.89834 63.9905 5.878C64.4053 6.86584 64.6168 7.90265 64.6168 9.01294C64.6168 10.4743 64.2671 11.805 63.5757 13.0051C62.8844 14.2052 61.9654 15.1604 60.8187 15.8706L63.3236 18.3198C63.7384 18.7606 63.9499 19.2913 63.9499 19.9117C63.9499 20.5322 63.7303 21.0628 63.2911 21.5037C62.8926 21.9445 62.3883 22.165 61.7702 22.165C61.1521 22.165 60.6235 21.9445 60.1843 21.5037L55.6949 17.0625L55.7111 17.0707ZM37.4606 1.06947C38.03 1.06947 38.5586 1.28173 39.0303 1.69809C39.502 2.11445 39.7379 2.6451 39.7379 3.29005V19.9852C39.7379 20.2709 39.681 20.5485 39.559 20.8098C39.437 21.0792 39.2662 21.3159 39.0466 21.52C38.827 21.7323 38.5749 21.8956 38.3065 22.018C38.03 22.1405 37.7534 22.1976 37.4688 22.1976C36.9401 22.1976 36.4603 21.9854 36.013 21.5527C35.5738 21.12 35.3542 20.5975 35.3542 19.977V14.5399H28.1565V19.977C28.1565 20.5975 27.945 21.12 27.514 21.5527C27.0829 21.9854 26.5624 22.1976 25.9443 22.1976C25.2611 22.1976 24.7081 21.9854 24.277 21.569C23.846 21.1526 23.6183 20.6138 23.602 19.977V3.28189C23.602 2.59612 23.8379 2.0573 24.3096 1.65727C24.7813 1.25724 25.3262 1.06131 25.9443 1.06131C26.5624 1.06131 27.0829 1.28173 27.514 1.72258C27.945 2.16343 28.1565 2.68592 28.1565 3.28189V10.0416H35.3542V3.28189C35.3542 2.68592 35.5738 2.1716 36.013 1.72258C36.4522 1.28173 36.9401 1.06131 37.4688 1.06131M6.36815 5.50246C5.8395 5.50246 5.39219 5.6984 5.03433 6.0821C4.66835 6.4658 4.48129 6.94747 4.45689 7.52711C4.48129 8.03327 4.66835 8.47412 5.03433 8.83333C5.40032 9.20071 5.8395 9.38031 6.36815 9.38031H8.61286C9.42616 9.38031 10.2151 9.54359 10.9714 9.87831C11.7278 10.213 12.411 10.6702 13.0047 11.2498C13.5984 11.8376 14.0701 12.5234 14.428 13.3071C14.7777 14.0909 14.9566 14.9236 14.9566 15.8053C14.9566 16.687 14.7939 17.4871 14.4605 18.2545C14.127 19.03 13.6797 19.6995 13.1023 20.2791C12.533 20.8506 11.8579 21.3078 11.0934 21.6506C10.3208 21.9935 9.49936 22.1731 8.61286 22.1976H2.74082C2.08205 22.1976 1.54527 21.9854 1.12236 21.5527C0.707572 21.12 0.496114 20.5893 0.496114 19.9444C0.496114 19.3484 0.707572 18.8259 1.13862 18.3851C1.56967 17.9442 2.09832 17.7238 2.74082 17.7238H8.61286C9.11711 17.7238 9.57255 17.536 9.96294 17.1605C10.3615 16.785 10.5566 16.336 10.5566 15.8053C10.5566 15.2746 10.3615 14.793 9.97921 14.4338C9.59695 14.0664 9.14964 13.8786 8.64539 13.8541H6.36815C5.53045 13.8296 4.73341 13.65 3.96078 13.3235C3.18814 12.9888 2.5131 12.5479 1.92752 11.9846C1.34195 11.4213 0.878365 10.7518 0.528646 9.97628C0.178926 9.20071 0 8.36799 0 7.4618C0 6.64541 0.16266 5.85351 0.496114 5.07794C0.829567 4.30237 1.28502 3.62477 1.86246 3.02881C2.44804 2.43284 3.12308 1.95117 3.89571 1.5838C4.66835 1.21642 5.48978 1.03681 6.36815 1.03681H12.2402C12.8339 1.03681 13.3381 1.24908 13.7611 1.68176C14.1758 2.11445 14.4117 2.65327 14.4524 3.29005C14.4524 3.92683 14.2409 4.46565 13.8261 4.88201C13.4113 5.29837 12.8827 5.51063 12.2402 5.51063H6.36815V5.50246Z" fill="#414042"/>
<path d="M7.2872 28.5002C7.57186 28.5002 7.82398 28.6063 8.05984 28.8104C8.28756 29.0145 8.40956 29.2757 8.40956 29.5941V37.7988C8.40956 37.9376 8.37703 38.0764 8.3201 38.207C8.26316 38.3376 8.1737 38.4519 8.06797 38.5581C7.96224 38.6642 7.84025 38.7458 7.70199 38.803C7.56373 38.8601 7.42546 38.8928 7.2872 38.8928C7.02695 38.8928 6.79109 38.7867 6.5715 38.5744C6.35191 38.3621 6.24618 38.1091 6.24618 37.7988V35.1292H2.71645V37.7988C2.71645 38.1009 2.61072 38.3621 2.39926 38.5744C2.18781 38.7867 1.93568 38.8928 1.62663 38.8928C1.29317 38.8928 1.01665 38.7867 0.805194 38.5826C0.593736 38.3785 0.479874 38.1172 0.471741 37.7988V29.5941C0.471741 29.2594 0.585603 28.99 0.82146 28.7941C1.05732 28.5981 1.32571 28.5002 1.62663 28.5002C1.92755 28.5002 2.18781 28.6063 2.39926 28.8267C2.61072 29.0471 2.71645 29.3002 2.71645 29.5941V32.9168H6.25431V29.5941C6.25431 29.3002 6.36004 29.0471 6.57963 28.8267C6.79922 28.6063 7.03508 28.5002 7.29534 28.5002" fill="#414042"/>
<path d="M18.4294 32.4188C18.4294 32.1657 18.3806 31.929 18.2911 31.7086C18.2017 31.4881 18.0716 31.2922 17.9008 31.1289C17.73 30.9657 17.5348 30.835 17.3152 30.7371C17.0956 30.6391 16.8516 30.5901 16.5913 30.5901C16.3311 30.5901 16.0952 30.6391 15.8756 30.7289C15.656 30.8187 15.469 30.9412 15.3063 31.0963C15.1437 31.2514 15.0135 31.431 14.9159 31.6514C14.8183 31.8718 14.7696 32.1004 14.7696 32.3372V34.9415C14.7614 35.1945 14.8021 35.4313 14.8915 35.6517C14.981 35.8721 15.1111 36.0681 15.2819 36.2314C15.4446 36.3946 15.6398 36.5253 15.8675 36.6232C16.0871 36.7212 16.3392 36.7702 16.6239 36.7702C16.8597 36.7702 17.0875 36.7212 17.3071 36.6314C17.5266 36.5416 17.7137 36.4191 17.8764 36.264C18.039 36.1089 18.1691 35.9293 18.2667 35.7089C18.3643 35.4884 18.4131 35.2599 18.4131 35.0231L18.4294 32.4188ZM16.6157 38.8846C16.0708 38.8846 15.5666 38.7948 15.0949 38.5989C14.615 38.4111 14.2002 38.1417 13.8424 37.7988C13.4845 37.4559 13.1999 37.0559 12.9803 36.5906C12.7607 36.1252 12.655 35.6191 12.655 35.0721V32.4188C12.655 31.8718 12.7526 31.3657 12.9559 30.884C13.1592 30.4023 13.4357 29.986 13.7855 29.6268C14.1352 29.2676 14.55 28.99 15.0298 28.7777C15.5015 28.5736 16.0302 28.4675 16.6157 28.4675C17.1363 28.4675 17.6324 28.5655 18.1122 28.7532C18.5839 28.941 19.0068 29.2104 19.3647 29.5533C19.7226 29.8962 20.0072 30.2962 20.2268 30.7616C20.4464 31.2269 20.5521 31.7331 20.5521 32.2719V34.9251C20.5521 35.464 20.4545 35.9783 20.2512 36.4518C20.0479 36.9253 19.7714 37.3498 19.4216 37.7009C19.0719 38.0601 18.6571 38.3458 18.1773 38.5499C17.6974 38.754 17.1851 38.8601 16.6239 38.8601" fill="#414042"/>
<path d="M28.6607 38.8356C28.0995 38.8356 27.579 38.7295 27.1073 38.5254C26.6274 38.3213 26.2208 38.0356 25.8629 37.6764C25.5132 37.3172 25.2367 36.9008 25.0334 36.4191C24.8382 35.9456 24.7243 35.4313 24.7162 34.8925V29.488C24.7162 29.2022 24.8219 28.9655 25.0415 28.7696C25.2611 28.5736 25.5051 28.4757 25.7897 28.4757C26.0744 28.4757 26.3184 28.5818 26.538 28.7941C26.7494 29.0063 26.8633 29.2512 26.8633 29.537V34.9741C26.8633 35.2109 26.9121 35.4395 27.0097 35.6599C27.1073 35.8803 27.2374 36.0599 27.4001 36.215C27.5627 36.3701 27.7498 36.4926 27.9694 36.5824C28.189 36.6722 28.4086 36.7212 28.6526 36.7212C28.9128 36.7212 29.1568 36.6722 29.3764 36.5742C29.596 36.4763 29.7912 36.3457 29.962 36.1824C30.1328 36.0191 30.2629 35.8232 30.3524 35.6027C30.4418 35.3823 30.4906 35.1456 30.4906 34.8925V29.488C30.4906 29.1941 30.5964 28.9573 30.8078 28.7614C31.0193 28.5736 31.2714 28.4757 31.5642 28.4757C31.857 28.4838 32.101 28.5981 32.3043 28.8022C32.4995 29.0063 32.6052 29.2512 32.6052 29.537V35.0231C32.6052 35.5619 32.4995 36.0681 32.2799 36.5334C32.0603 36.9988 31.7756 37.407 31.4178 37.7498C31.0599 38.0927 30.6452 38.3621 30.1653 38.5499C29.6855 38.7377 29.1893 38.8356 28.677 38.8356" fill="#414042"/>
<path d="M39.9006 30.6799C39.6403 30.6799 39.4207 30.7779 39.2418 30.9657C39.0629 31.1534 38.9653 31.3902 38.9571 31.6759C38.9653 31.929 39.0629 32.1413 39.2418 32.3209C39.4207 32.5005 39.6403 32.5903 39.9006 32.5903H41.0067C41.4052 32.5903 41.7956 32.6719 42.1697 32.8352C42.5438 32.9985 42.8773 33.227 43.17 33.5128C43.4628 33.7985 43.6906 34.1332 43.8695 34.5169C44.0403 34.9006 44.1297 35.317 44.1297 35.7497C44.1297 36.1824 44.0484 36.5742 43.8857 36.9498C43.7231 37.3335 43.5035 37.66 43.2188 37.9458C42.9342 38.2315 42.6089 38.4519 42.2266 38.6234C41.8444 38.7948 41.4377 38.8846 41.0067 38.8928H38.1194C37.7941 38.8928 37.5339 38.7867 37.3224 38.5744C37.1191 38.3621 37.0134 38.1009 37.0134 37.7825C37.0134 37.4886 37.1191 37.2355 37.3305 37.0151C37.542 36.7947 37.8023 36.6885 38.1194 36.6885H41.0067C41.2588 36.6885 41.4784 36.5987 41.6736 36.411C41.8688 36.2232 41.9664 36.0028 41.9664 35.7415C41.9664 35.4803 41.8688 35.2435 41.6817 35.0639C41.4946 34.8843 41.275 34.7864 41.0229 34.7782H39.9006C39.4858 34.77 39.0954 34.6802 38.7132 34.5169C38.3309 34.3537 37.9974 34.1332 37.7128 33.8557C37.4281 33.5781 37.2004 33.2515 37.0215 32.8678C36.8507 32.4841 36.7612 32.0759 36.7612 31.6351C36.7612 31.2351 36.8426 30.8432 37.0052 30.4595C37.1679 30.084 37.3875 29.7411 37.6803 29.4472C37.9649 29.1533 38.2984 28.9165 38.6806 28.7369C39.0629 28.5573 39.4614 28.4675 39.8924 28.4675H42.7797C43.0724 28.4675 43.3246 28.5736 43.5279 28.7859C43.7312 28.9982 43.8451 29.2594 43.8695 29.5778C43.8695 29.8962 43.7638 30.1574 43.5604 30.3615C43.3571 30.5656 43.0968 30.6718 42.7797 30.6718H39.8924L39.9006 30.6799Z" fill="#414042"/>
<path d="M49.4569 28.5002C49.7496 28.5002 50.0018 28.6063 50.2132 28.8267C50.4247 29.0471 50.5304 29.3002 50.5304 29.5941V37.7988C50.5304 38.1009 50.4247 38.3621 50.2132 38.5744C50.0018 38.7867 49.7496 38.8928 49.4569 38.8928C49.1397 38.8928 48.8794 38.7867 48.668 38.5744C48.4565 38.3621 48.3508 38.1091 48.3508 37.7988V29.5941C48.3508 29.3002 48.4565 29.0471 48.668 28.8267C48.8794 28.6063 49.1397 28.5002 49.4569 28.5002Z" fill="#414042"/>
<path d="M58.7935 28.5328C59.3141 28.5328 59.8102 28.6308 60.2819 28.8185C60.7536 29.0063 61.1765 29.2757 61.5344 29.6186C61.8922 29.9615 62.1769 30.3615 62.3965 30.835C62.6079 31.3004 62.7218 31.8065 62.7218 32.3453V37.8315C62.7218 38.1091 62.6242 38.354 62.4209 38.5662C62.2175 38.7703 61.9735 38.8846 61.6808 38.8928C61.388 38.8928 61.1359 38.803 60.9244 38.6071C60.7129 38.4193 60.6072 38.1744 60.6072 37.8805V32.476C60.6072 32.2311 60.5584 31.9943 60.4689 31.7657C60.3795 31.5453 60.2494 31.3494 60.0786 31.1861C59.9078 31.0228 59.7207 30.8922 59.493 30.7942C59.2734 30.6962 59.0294 30.6473 58.7691 30.6473C58.5333 30.6473 58.3056 30.6962 58.086 30.786C57.8664 30.8758 57.6793 30.9983 57.5167 31.1534C57.354 31.3085 57.2239 31.4881 57.1263 31.7086C57.0287 31.929 56.9799 32.1576 56.9799 32.3943V37.8315C56.9799 38.1091 56.8742 38.3621 56.6546 38.5744C56.435 38.7867 56.191 38.8928 55.9063 38.8928C55.6217 38.8928 55.3777 38.7948 55.1581 38.5989C54.9385 38.403 54.8328 38.1662 54.8328 37.8805V32.476C54.8409 31.9372 54.9466 31.4228 55.15 30.9493C55.3533 30.4677 55.6298 30.0513 55.9795 29.6921C56.3292 29.3329 56.744 29.0553 57.2239 28.843C57.6956 28.6389 58.2161 28.5328 58.7773 28.5328" fill="#414042"/>
<path d="M70.8304 38.8846C70.3018 38.8765 69.8056 38.7785 69.3421 38.5907C68.8703 38.3948 68.4474 38.1254 68.0896 37.7825C67.7317 37.4396 67.4471 37.0314 67.2275 36.5661C67.016 36.1007 66.9022 35.5946 66.9022 35.0476V32.3943C66.9022 31.8555 66.9998 31.3412 67.2031 30.8677C67.4064 30.386 67.6829 29.9697 68.0326 29.6104C68.3824 29.2512 68.7972 28.9737 69.277 28.7614C69.7487 28.5573 70.2855 28.4512 70.8629 28.4512C71.1801 28.4512 71.4566 28.4757 71.7088 28.5328C72.1479 28.6063 72.5627 28.7532 72.945 28.9737C73.5143 29.3002 73.9697 29.7574 74.3032 30.3452C74.3439 30.4187 74.3845 30.5166 74.4252 30.6228C74.4577 30.7289 74.4821 30.835 74.4821 30.933C74.4821 31.2351 74.3764 31.4963 74.1568 31.7167C73.9372 31.9372 73.6851 32.0433 73.376 32.0433C73.1402 32.0433 72.945 31.978 72.7905 31.8555C72.6359 31.7331 72.5058 31.5779 72.3838 31.3902C72.2537 31.1697 72.0748 30.9983 71.847 30.8677C71.6681 30.7616 71.4241 30.6636 71.1313 30.5901C71.05 30.5819 70.9524 30.5738 70.8385 30.5738C70.5783 30.5738 70.3424 30.6228 70.1228 30.7126C69.9032 30.8024 69.7162 30.9248 69.5535 31.0799C69.3909 31.2351 69.2607 31.4147 69.1631 31.6351C69.0655 31.8555 69.0167 32.0841 69.0167 32.3209V34.9251C69.0086 35.2272 69.0493 35.4803 69.1387 35.6762C69.2282 35.8722 69.3583 36.0518 69.5291 36.215C69.6999 36.3783 69.887 36.5089 70.1147 36.6069C70.3343 36.7049 70.5864 36.762 70.8711 36.7702C71.1557 36.7702 71.3916 36.7294 71.5786 36.6396C71.7657 36.5579 71.9446 36.4355 72.0992 36.2722C72.2537 36.1171 72.3838 35.9293 72.4814 35.7089C72.579 35.4884 72.6278 35.268 72.6278 35.0394H72.2537C71.9609 35.0394 71.7088 34.9333 71.4973 34.721C71.2859 34.5088 71.1801 34.2475 71.1801 33.9455C71.1801 33.6434 71.2859 33.3658 71.4973 33.1536C71.7088 32.9413 71.9609 32.8352 72.2537 32.8352H73.677C73.9941 32.8352 74.2463 32.9413 74.4577 33.1536C74.6611 33.3658 74.7749 33.6271 74.7993 33.9455V34.9415C74.7668 35.4884 74.6529 35.9946 74.4496 36.4681C74.2463 36.9498 73.9779 37.3661 73.62 37.7254C73.2703 38.0846 72.8555 38.3703 72.3757 38.5744C71.904 38.7785 71.3834 38.8846 70.8223 38.8846" fill="#414042"/>
<path d="M88.1049 30.6799V33.1046H90.5529C90.862 33.1046 91.1222 33.2107 91.3337 33.4311C91.537 33.6516 91.6427 33.9047 91.6427 34.2149C91.6427 34.5251 91.537 34.7782 91.3337 34.9905C91.1304 35.2027 90.8701 35.3088 90.5529 35.3088H88.1049V37.7825C88.1049 38.1009 87.9992 38.3621 87.7877 38.5744C87.5762 38.7867 87.316 38.8928 86.9988 38.8928C86.6816 38.8928 86.4213 38.7867 86.2099 38.5744C85.9984 38.3621 85.8927 38.1009 85.8927 37.7825V29.5941C85.8927 29.3165 85.9984 29.0553 86.2099 28.8267C86.4213 28.5981 86.6816 28.4838 86.9988 28.4838H91.6346C91.9355 28.4838 92.1958 28.59 92.4072 28.8104C92.6187 29.0308 92.7244 29.2839 92.7244 29.5941C92.7244 29.9043 92.6187 30.1738 92.4072 30.3778C92.1958 30.5819 91.9437 30.6881 91.6346 30.6881H88.0967L88.1049 30.6799Z" fill="#414042"/>
<path d="M97.7344 28.5002C98.0272 28.5002 98.2793 28.6063 98.4908 28.8267C98.7022 29.0471 98.8079 29.3002 98.8079 29.5941V37.7988C98.8079 38.1009 98.7022 38.3621 98.4908 38.5744C98.2793 38.7867 98.0272 38.8928 97.7344 38.8928C97.4172 38.8928 97.1569 38.7867 96.9455 38.5744C96.734 38.3621 96.6283 38.1091 96.6283 37.7988V29.5941C96.6283 29.3002 96.734 29.0471 96.9455 28.8267C97.1569 28.6063 97.4172 28.5002 97.7344 28.5002Z" fill="#414042"/>
<path d="M107.079 28.5328C107.6 28.5328 108.096 28.6308 108.576 28.8185C109.047 29.0063 109.47 29.2757 109.828 29.6186C110.186 29.9615 110.471 30.3615 110.69 30.835C110.902 31.3004 111.016 31.8065 111.016 32.3453V37.8315C111.016 38.1091 110.918 38.354 110.715 38.5662C110.511 38.7703 110.267 38.8846 109.975 38.8928C109.682 38.8928 109.43 38.803 109.218 38.6071C109.007 38.4193 108.901 38.1744 108.901 37.8805V32.476C108.901 32.2311 108.852 31.9943 108.763 31.7657C108.673 31.5453 108.543 31.3494 108.372 31.1861C108.202 31.0228 108.006 30.8922 107.787 30.7942C107.567 30.6962 107.323 30.6473 107.063 30.6473C106.827 30.6473 106.599 30.6962 106.38 30.786C106.16 30.8758 105.973 30.9983 105.81 31.1534C105.648 31.3085 105.518 31.4881 105.42 31.7086C105.322 31.929 105.274 32.1576 105.274 32.3943V37.8315C105.274 38.1091 105.168 38.3621 104.948 38.5744C104.729 38.7867 104.485 38.8928 104.2 38.8928C103.915 38.8928 103.671 38.7948 103.452 38.5989C103.232 38.403 103.127 38.1662 103.127 37.8805V32.476C103.135 31.9372 103.24 31.4228 103.444 30.9493C103.647 30.4677 103.924 30.0513 104.273 29.6921C104.623 29.3329 105.038 29.0553 105.518 28.843C105.998 28.6389 106.51 28.5328 107.071 28.5328" fill="#414042"/>
<path d="M121.011 32.4188C121.011 32.1657 120.962 31.9372 120.873 31.7086C120.783 31.4881 120.653 31.2922 120.482 31.1289C120.312 30.9657 120.116 30.835 119.897 30.7371C119.677 30.6391 119.433 30.5901 119.173 30.5901C118.937 30.5901 118.709 30.6391 118.49 30.7289C118.27 30.8187 118.083 30.9412 117.921 31.0963C117.758 31.2514 117.628 31.431 117.53 31.6514C117.433 31.8718 117.384 32.1004 117.384 32.3372V33.7985H121.003V32.4188H121.011ZM119.189 28.4838C119.71 28.4838 120.206 28.5818 120.686 28.7696C121.157 28.9573 121.58 29.2267 121.938 29.5696C122.296 29.9125 122.581 30.3125 122.8 30.786C123.02 31.2514 123.126 31.7575 123.126 32.2964V37.7825C123.126 38.0682 123.028 38.305 122.825 38.5173C122.621 38.7214 122.377 38.8356 122.085 38.8438C121.792 38.8438 121.54 38.7458 121.328 38.5581C121.117 38.3703 121.011 38.1254 121.011 37.8315V35.9293H117.392V37.7825C117.392 38.0682 117.286 38.3132 117.067 38.5254C116.847 38.7377 116.603 38.8438 116.318 38.8438C116.034 38.8438 115.79 38.7458 115.57 38.5499C115.35 38.354 115.245 38.1172 115.245 37.8315V32.427C115.253 31.8882 115.359 31.3738 115.562 30.9003C115.765 30.4187 116.034 30.0023 116.392 29.6431C116.741 29.2839 117.156 29.0063 117.636 28.7941C118.116 28.59 118.628 28.4838 119.189 28.4838Z" fill="#414042"/>
<path d="M131.307 28.5328C131.828 28.5328 132.324 28.6308 132.804 28.8185C133.276 29.0063 133.699 29.2757 134.056 29.6186C134.414 29.9615 134.699 30.3615 134.918 30.835C135.13 31.3004 135.244 31.8065 135.244 32.3453V37.8315C135.244 38.1091 135.146 38.354 134.943 38.5662C134.74 38.7703 134.496 38.8846 134.203 38.8928C133.91 38.8928 133.658 38.803 133.446 38.6071C133.235 38.4193 133.129 38.1744 133.129 37.8805V32.476C133.129 32.2311 133.08 31.9943 132.991 31.7657C132.902 31.5453 132.771 31.3494 132.601 31.1861C132.43 31.0228 132.235 30.8922 132.015 30.7942C131.795 30.6962 131.551 30.6473 131.291 30.6473C131.055 30.6473 130.828 30.6962 130.608 30.786C130.388 30.8758 130.201 30.9983 130.039 31.1534C129.876 31.3085 129.746 31.4881 129.648 31.7086C129.551 31.929 129.502 32.1576 129.502 32.3943V37.8315C129.502 38.1091 129.396 38.3621 129.177 38.5744C128.957 38.7867 128.713 38.8928 128.428 38.8928C128.144 38.8928 127.9 38.7948 127.68 38.5989C127.461 38.403 127.355 38.1662 127.355 37.8805V32.476C127.363 31.9372 127.469 31.4228 127.672 30.9493C127.875 30.4677 128.144 30.0513 128.502 29.6921C128.851 29.3329 129.266 29.0553 129.746 28.843C130.226 28.6389 130.738 28.5328 131.299 28.5328" fill="#414042"/>
<path d="M145.898 35.3333C146.191 35.3333 146.443 35.4395 146.663 35.6517C146.882 35.864 146.988 36.1252 146.988 36.4436C146.988 36.5498 146.972 36.6559 146.931 36.7539C146.89 36.8518 146.85 36.958 146.793 37.0641C146.484 37.6192 146.036 38.0601 145.467 38.3948C144.898 38.7213 144.247 38.8928 143.523 38.8928H143.377C142.832 38.8928 142.328 38.803 141.856 38.6071C141.376 38.4193 140.961 38.1499 140.604 37.807C140.246 37.4641 139.961 37.0641 139.741 36.5987C139.53 36.1334 139.416 35.6272 139.416 35.0803V32.427C139.416 31.8882 139.514 31.3738 139.717 30.8922C139.92 30.4105 140.197 29.9941 140.547 29.6349C140.896 29.2757 141.311 28.9982 141.791 28.7859C142.263 28.5818 142.799 28.4757 143.377 28.4757C143.694 28.4757 143.971 28.5002 144.223 28.5573C144.662 28.6308 145.077 28.7777 145.451 28.9982C146.02 29.3247 146.476 29.7819 146.817 30.3697C146.858 30.4432 146.898 30.5411 146.939 30.6473C146.98 30.7534 146.996 30.8595 146.996 30.9575C146.996 31.2595 146.89 31.5208 146.671 31.7412C146.451 31.9616 146.199 32.0678 145.89 32.0678C145.654 32.0678 145.459 32.0106 145.304 31.88C145.15 31.7494 145.02 31.6024 144.898 31.4147C144.768 31.1942 144.589 31.0228 144.361 30.8922C144.182 30.786 143.938 30.6881 143.645 30.6146C143.556 30.6064 143.458 30.5983 143.352 30.5983C143.092 30.5983 142.856 30.6473 142.637 30.7371C142.417 30.8269 142.23 30.9493 142.067 31.1044C141.905 31.2596 141.775 31.4392 141.677 31.6596C141.579 31.88 141.531 32.1086 141.531 32.3453V34.9496C141.523 35.2027 141.563 35.4395 141.653 35.6599C141.742 35.8803 141.872 36.0762 142.043 36.2395C142.214 36.4028 142.401 36.5334 142.629 36.6314C142.848 36.7294 143.1 36.7783 143.385 36.7783H143.58C143.905 36.713 144.166 36.6232 144.361 36.5008C144.581 36.3701 144.759 36.1987 144.898 35.9783C145.02 35.7987 145.142 35.6436 145.272 35.5211C145.402 35.3986 145.613 35.3415 145.906 35.3415" fill="#414042"/>
<path d="M156.91 36.6885C157.211 36.6885 157.471 36.7947 157.683 37.0151C157.894 37.2355 158 37.4886 158 37.7825C158 38.1009 157.894 38.3621 157.683 38.5744C157.471 38.7867 157.211 38.8928 156.91 38.8928H152.274C151.99 38.8928 151.746 38.7867 151.518 38.5744C151.298 38.3621 151.185 38.1009 151.185 37.7825V29.5941C151.185 29.3165 151.29 29.0553 151.494 28.8267C151.697 28.5981 151.957 28.4838 152.274 28.4838H156.91C157.211 28.4838 157.471 28.59 157.683 28.8104C157.894 29.0308 158 29.2921 158 29.5941C158 29.8962 157.894 30.1738 157.683 30.3778C157.471 30.5819 157.211 30.6881 156.91 30.6881H153.34V32.5413H155.82C156.113 32.5413 156.365 32.6474 156.585 32.8678C156.804 33.0883 156.91 33.3413 156.91 33.6516C156.91 33.9618 156.804 34.2149 156.585 34.4271C156.365 34.6394 156.113 34.7455 155.82 34.7455H153.34V36.6967H156.91V36.6885Z" fill="#414042"/>
<path d="M128.965 11.2417C128.941 10.5804 128.843 9.55175 128.38 8.58025L128.184 8.51494C123.166 7.46996 118.693 10.7029 118.693 10.7029C120.962 7.50262 124.053 6.34335 126.159 5.93515L125.712 5.46981L124.996 4.75139L122.727 2.47366L121.06 0.824553C121.06 0.824553 119.262 -0.92252 117.319 0.669439L115.985 1.99199L111.821 6.18823C111.821 6.18823 109.731 8.01694 109.478 9.56808C109.478 9.56808 109.21 10.4824 109.243 11.6254V16.7033C109.243 16.7033 109.226 16.7033 109.226 16.7115V19.128C109.21 21.1445 110.772 21.8711 112.398 22.0833H112.406C113.252 22.1895 114.114 22.1568 114.781 22.0997H114.789C114.789 22.0997 114.797 22.0997 114.822 22.0997C115.147 22.067 115.416 22.0343 115.619 22.0017C115.782 21.9772 115.871 21.969 115.928 21.9364C115.952 21.9282 115.969 21.9201 115.969 21.9119C115.969 21.9119 115.969 21.9119 115.969 21.8874C115.969 21.8874 115.969 21.8874 115.969 21.8792C116.001 21.8221 116.001 21.6996 116.017 21.4139C116.115 19.9444 116.326 15.8624 116.424 15.593C116.497 15.4379 116.603 15.2991 116.814 15.242C117.05 15.1767 120.1 15.1685 120.45 15.1685C120.515 15.1685 121.556 15.1114 121.702 15.593C121.8 15.7318 122.011 19.9281 122.117 21.4302C122.133 21.716 122.142 21.8303 122.166 21.8956C122.207 21.9772 122.296 21.9772 122.524 22.0099C123.906 22.2221 128.746 22.7201 128.924 19.3729C128.924 19.3729 128.924 19.3566 128.924 19.3484V19.3321C128.924 19.2668 128.924 19.2015 128.924 19.1362V16.7197L128.941 11.9274C128.941 11.9274 128.941 11.658 128.916 11.2417" fill="#71C7AA"/>
<path d="M129.014 16.834C126.232 15.6583 123.817 15.4298 121.808 15.7645C121.792 15.7726 121.776 15.789 121.759 15.7971C121.865 16.7197 122.044 20.1648 122.142 21.4955C122.158 21.7894 122.158 21.9037 122.19 21.969C122.231 22.0507 122.32 22.0507 122.556 22.0833C123.963 22.2956 128.876 22.8018 129.055 19.4056C129.055 19.4056 129.055 19.3892 129.055 19.3811V19.3648C129.055 19.2994 129.055 19.2341 129.055 19.1688V16.8911C129.055 16.8911 129.022 16.8584 129.006 16.8421" fill="#C94194"/>
<path d="M113.496 22.2303C113.96 22.2303 114.407 22.2058 114.789 22.1731H114.797C114.797 22.1731 114.814 22.1731 114.83 22.1731C115.163 22.1405 115.44 22.1078 115.651 22.0752C115.822 22.0507 115.912 22.0425 115.969 22.0099C116.001 22.0017 116.009 21.9935 116.009 21.9854C116.009 21.9854 116.009 21.9854 116.009 21.9609C116.009 21.9609 116.009 21.9609 116.017 21.9527C116.05 21.8874 116.05 21.7731 116.066 21.4792C116.107 20.8424 116.172 19.7403 116.237 18.6463C114.936 19.7811 113.838 21.5853 113.488 22.2303" fill="#C94194"/>
<path d="M129.038 11.2417C129.014 10.5804 128.892 9.54359 128.428 8.57209L128.225 8.50678C123.207 7.4618 118.734 10.6947 118.734 10.6947C121.003 7.49446 124.093 6.33518 126.2 5.92699L125.753 5.46165L125.069 4.45749L125.24 4.62893C112.976 6.51479 110.78 22.0752 110.804 22.3854C110.837 22.4017 111.365 21.9527 111.398 21.9609C111.398 21.9609 111.357 22.018 111.845 22.0588C111.935 22.0588 112.097 22.0752 112.301 22.0752C114.708 7.2822 128.754 11.1519 129.046 11.2335" fill="#089CB5"/>
<path d="M116.261 18.6382L116.57 16.8095C116.57 16.8095 116.082 15.3155 117.603 15.2257L120.726 15.193C120.726 15.193 121.361 15.1848 121.792 15.7971C123.801 15.4543 126.241 15.6828 129.046 16.8911L129.063 11.9274C129.063 11.9274 129.079 11.658 129.063 11.2498C128.77 11.1682 114.993 6.90665 112.219 22.1486C112.585 22.1568 113.456 22.1486 113.919 22.1486C114.163 21.3078 114.757 19.9526 116.261 18.6463" fill="#089CB5"/>
<path d="M118.774 10.6702C118.905 10.6294 119.018 10.7518 119.108 11.0866C119.214 11.4376 119.311 11.7723 119.376 12.1234C119.417 12.2213 119.441 12.3765 119.401 12.5316C119.376 12.6622 119.336 12.8418 119.344 12.9479C119.515 13.299 119.677 13.8623 119.921 14.2378C120.019 14.2133 120.108 14.1562 120.206 14.0746C120.247 14.0337 120.23 13.846 120.206 13.7643C119.938 13.1765 120.141 12.703 120.499 12.4336C120.824 12.0581 121.214 11.9519 121.662 11.9519C122.174 11.9519 122.882 12.1397 123.069 12.5479C123.093 12.6051 123.126 12.6704 123.231 12.7112C123.329 12.7357 123.646 12.4663 123.996 13.0214C124.061 13.2337 124.012 13.4623 123.825 13.65C123.703 13.7562 123.662 13.8786 123.679 14.0174C123.695 14.099 123.841 14.099 123.849 14.4909C123.825 14.6624 123.768 14.7766 123.687 14.7848C123.5 14.9481 123.402 15.1359 123.443 15.3481L125.411 16.2625C125.663 16.3441 125.948 16.5482 125.866 17.0462C125.826 17.8136 125.744 18.6463 125.655 19.3892L125.59 19.4872C125.631 19.6342 125.614 19.7974 125.549 19.9852L126.582 19.8791L126.867 22.0752L124.451 22.4344C124.516 22.5813 124.516 22.7201 124.451 22.7854C124.394 22.8426 124.289 22.8426 124.167 22.8099L121.914 22.2221L121.58 21.2098C121.475 21.1282 121.369 21.1445 121.296 21.2261L121.19 21.667L118.254 21.9609C118.108 21.9527 118.091 21.7078 118.197 21.6506L119.775 21.2588L119.718 20.8261C118.929 20.6465 118.286 20.475 118.14 20.3281L118.539 17.8789C118.579 17.6748 118.563 17.4626 118.539 17.234C118.433 16.4666 118.327 15.7645 118.213 15.2257L117.725 13.3806L117.847 13.2745C117.847 13.2745 117.904 13.2173 117.904 13.1929C117.693 12.899 117.579 12.654 117.66 12.4663C117.457 12.3438 117.376 12.156 117.408 11.8621C117.489 11.6989 117.611 11.6091 117.766 11.6499C117.864 11.5111 117.969 11.4784 118.116 11.5274C118.213 11.3968 118.36 11.2988 118.506 11.2743C118.506 11.258 118.579 11.2335 118.579 11.209C118.579 10.8906 118.555 10.6784 118.742 10.6784" fill="#231F20"/>
<path d="M122.223 15.9523C122.142 15.9441 122.101 15.9931 122.117 16.0992C122.198 16.2625 122.329 16.4094 122.483 16.5319C122.613 16.638 122.727 16.638 122.817 16.5319C122.979 16.3278 123.142 16.0502 123.191 15.8461C123.207 15.74 123.109 15.7073 123.02 15.7563C122.776 15.838 122.516 15.9033 122.231 15.9523M120.694 15.8951C120.735 16.0992 120.84 16.2951 121.109 16.54C121.198 16.6217 121.174 16.5972 121.279 16.54C121.426 16.4176 121.507 16.2951 121.589 16.14C121.613 16.0339 121.589 15.9931 121.491 15.9767C121.206 15.9114 121.084 15.8135 120.848 15.7318C120.751 15.691 120.645 15.7318 120.686 15.8951M117.921 12.1397C117.839 12.0091 117.799 11.7887 117.79 11.6662C117.693 11.6254 117.668 11.6744 117.652 11.7723C117.636 12.0581 117.799 12.2703 117.921 12.1397ZM118.335 12.0091C118.238 11.8213 118.189 11.6335 118.189 11.4703C118.043 11.4131 117.986 11.4948 117.977 11.6335C117.961 12.0254 118.14 12.1969 118.343 12.0091M118.547 12.0091C118.628 12.0662 118.669 12.0336 118.693 11.9438C118.555 11.6907 118.636 11.405 118.612 11.258C118.49 11.2417 118.425 11.2825 118.384 11.4213C118.343 11.6009 118.384 11.7968 118.547 12.0173M118.864 11.3886L119.124 11.4784C119.1 11.1845 119.01 10.8417 118.88 10.662C118.799 10.5559 118.709 10.6131 118.709 10.7355C118.726 10.8825 118.848 11.0702 118.864 11.3886ZM119.303 12.3438C119.328 12.2377 119.311 12.1397 119.279 12.0499C119.173 11.7642 119.108 11.658 119.01 11.6091C118.929 11.5437 118.823 11.5682 118.807 11.6662C118.791 11.7887 118.872 11.9111 118.986 12.0336C118.84 12.0744 118.742 12.1315 118.734 12.2377C118.718 12.401 118.75 12.4418 118.905 12.5642C118.945 12.6295 118.905 12.6949 118.848 12.7112C118.807 12.6459 118.709 12.5724 118.661 12.5071C118.563 12.4254 118.522 12.3438 118.514 12.2622C118.474 12.156 118.433 12.0989 118.343 12.1805C118.286 12.2213 118.116 12.2213 118.034 12.2458C117.969 12.2703 117.929 12.3275 117.937 12.4336C117.937 12.6377 117.961 12.7928 118.181 12.9071C118.303 12.9479 118.465 12.9234 118.539 12.801C118.823 12.9724 119.222 12.8255 119.303 12.3601M122.752 13.9031C122.752 13.9929 122.686 14.0664 122.589 14.0664C122.491 14.0664 122.426 14.0011 122.426 13.9031C122.426 13.8051 122.491 13.7398 122.589 13.7398C122.686 13.7398 122.752 13.8051 122.752 13.9031ZM121.003 13.9439C121.003 13.846 121.084 13.7807 121.166 13.7807C121.263 13.7807 121.336 13.846 121.336 13.9439C121.336 14.0419 121.255 14.1072 121.166 14.1072C121.084 14.1072 121.003 14.0419 121.003 13.9439ZM123.24 15.291C123.199 14.5399 123.321 14.148 123.305 13.7153C123.321 13.5276 123.223 13.3888 123.118 13.3888L122.743 13.3235C122.678 13.299 122.556 13.3398 122.475 13.4296C122.337 13.5357 122.223 13.5929 122.207 13.5112C122.394 13.1847 122.54 13.0786 122.906 13.1847C122.987 13.1439 123.012 13.0949 122.987 13.0132C122.817 12.801 122.556 12.85 122.28 12.9153C122.182 12.9153 122.093 12.8908 122.028 12.85C121.865 12.9561 121.702 12.9561 121.491 12.9071C121.279 12.85 121.239 13.0704 121.328 13.1357C121.58 13.3153 121.702 13.4868 121.743 13.699C121.759 13.8705 121.719 14.099 121.702 14.295C121.767 14.4827 121.93 14.4827 122.101 14.3766C122.158 14.3521 122.223 14.3929 122.182 14.4827L122.036 14.6297C122.093 14.793 122.247 14.8338 122.654 14.5644L122.719 14.4419C122.76 14.4011 122.743 14.3766 122.784 14.3766C122.849 14.3521 122.922 14.4174 122.947 14.4827C122.922 14.5481 122.865 14.5726 122.784 14.5889C122.703 14.6705 122.654 14.7603 122.597 14.842C122.475 15.0052 122.386 15.3563 121.881 15.3236C121.385 15.3236 121.296 14.9236 121.141 14.7848L120.897 14.5562C120.873 14.4746 120.962 14.3929 121.019 14.4746C121.149 14.597 121.304 14.6868 121.458 14.7277C121.523 14.744 121.597 14.7113 121.662 14.6624C121.678 14.6215 121.678 14.5644 121.637 14.5236C121.572 14.4991 121.556 14.4419 121.556 14.3603C121.572 14.1725 121.572 14.0419 121.58 13.8378C121.58 13.6337 121.483 13.5031 121.336 13.3806C121.133 13.3153 121.027 13.3806 120.962 13.5194C120.881 13.601 120.791 13.5439 120.8 13.4541C120.84 13.348 120.889 13.2418 120.962 13.1439C120.962 13.0867 120.922 13.0051 120.881 12.9969C120.637 12.9969 120.547 13.1602 120.515 13.397L120.58 14.2623C120.596 14.5562 120.523 14.744 120.499 14.9726C120.499 15.2257 120.58 15.4134 120.751 15.5114C120.938 15.6339 121.271 15.7155 121.54 15.7971C121.678 15.838 121.792 15.838 121.93 15.8216C122.32 15.7237 122.711 15.6502 123.093 15.5767C123.174 15.5114 123.223 15.4298 123.215 15.2828M122.264 14.8583H121.58C121.458 14.8583 121.418 14.9154 121.499 15.0216C121.597 15.144 121.727 15.2257 121.914 15.2093C122.117 15.2093 122.264 15.1277 122.329 14.9399C122.345 14.8828 122.312 14.8583 122.264 14.8583ZM123.605 21.8466L123.467 21.0955C123.402 20.9975 123.329 20.9649 123.256 20.9649C123.158 21.0302 123.052 21.071 122.963 21.1118V21.4874C123.15 21.569 123.378 21.7731 123.605 21.8466ZM124.085 20.1893L123.573 20.2138L123.784 21.8956C123.971 21.9772 124.15 21.9935 124.297 21.9201L124.085 20.1811V20.1893ZM125.273 19.7158C125.378 19.6505 125.435 19.5525 125.46 19.4627C125.5 19.1688 125.354 19.1688 125.134 19.0872C125.053 19.0219 124.972 18.9811 124.891 18.9892C124.793 18.9076 124.703 18.8831 124.622 18.8913C124.5 18.8014 124.354 18.8096 124.264 18.8749C124.118 18.9811 123.98 19.2015 124.012 19.4627C124.053 19.6423 124.281 19.6097 124.305 19.3566C124.362 19.2178 124.508 19.2505 124.557 19.5035C124.573 19.6913 124.508 19.8954 124.728 19.8628L124.972 19.6913C124.996 19.8383 125.151 19.8301 125.265 19.7076M126.623 21.6262L126.42 20.0097L124.305 20.173L124.549 21.9201L126.623 21.6262Z" fill="white"/>
</g>
<defs>
<clipPath id="clip0_1_4">
<rect width="158" height="53" fill="white"/>
</clipPath>
</defs>
</svg>
