<?xml version="1.0" encoding="UTF-8"?>
<svg id="Layer_1" data-name="Layer 1" xmlns="http://www.w3.org/2000/svg" xmlns:xlink="http://www.w3.org/1999/xlink" viewBox="0 0 172.47 215.8">
  <defs>
    <style>
      .cls-1 {
        clip-path: url(#clippath);
      }

      .cls-2 {
        fill: none;
      }

      .cls-2, .cls-3, .cls-4, .cls-5, .cls-6, .cls-7 {
        stroke-width: 0px;
      }

      .cls-3 {
        fill: #71c7aa;
      }

      .cls-4 {
        fill: #58595b;
      }

      .cls-5 {
        fill: #e6e7e8;
      }

      .cls-6 {
        fill: #fff;
      }

      .cls-7 {
        fill: #a5378a;
      }
    </style>
    <clipPath id="clippath">
      <rect class="cls-2" width="172.47" height="215.8"/>
    </clipPath>
  </defs>
  <g>
    <path class="cls-4" d="M9.14,63.07h.39l1.79,4.81c.1.28.23.71.23.71h.02s.13-.43.23-.71l1.8-4.81h.39l-2.23,5.95h-.4l-2.23-5.95Z"/>
    <path class="cls-4" d="M17,66.43h.28v-.14c0-.94-.48-1.27-1.16-1.27-.74,0-1.22.41-1.22.41l-.2-.29s.51-.47,1.44-.47c.98,0,1.5.54,1.5,1.61v2.75h-.36v-.56c0-.23.03-.38.03-.38h-.02s-.38,1.04-1.49,1.04c-.69,0-1.44-.38-1.44-1.23,0-1.44,1.88-1.46,2.63-1.46ZM15.83,68.79c.93,0,1.45-.96,1.45-1.8v-.23h-.27c-.72,0-2.27,0-2.27,1.1,0,.45.37.93,1.09.93Z"/>
    <path class="cls-4" d="M19.03,63.07h.36v4.98c0,.59.31.66.5.66.07,0,.13,0,.13,0v.33s-.08.02-.15.02c-.25,0-.83-.09-.83-.89v-5.09Z"/>
    <path class="cls-4" d="M20.99,63.07h.42v.62h-.42v-.62ZM21.03,64.77h.36v4.25h-.36v-4.25Z"/>
    <path class="cls-4" d="M25.17,66.43h.28v-.14c0-.94-.48-1.27-1.16-1.27-.74,0-1.21.41-1.21.41l-.2-.29s.51-.47,1.44-.47c.98,0,1.5.54,1.5,1.61v2.75h-.36v-.56c0-.23.03-.38.03-.38h-.02s-.38,1.04-1.49,1.04c-.69,0-1.45-.38-1.45-1.23,0-1.44,1.88-1.46,2.63-1.46ZM23.99,68.79c.93,0,1.45-.96,1.45-1.8v-.23h-.27c-.72,0-2.27,0-2.27,1.1,0,.45.37.93,1.09.93Z"/>
    <path class="cls-4" d="M27.24,64.77h.36v.75c0,.2-.03.35-.03.35h.02c.14-.4.74-1.2,1.8-1.2s1.4.65,1.4,1.66v2.69h-.36v-2.57c0-.74-.09-1.44-1.05-1.44-.8,0-1.5.56-1.72,1.35-.05.18-.07.37-.07.58v2.07h-.36v-4.25Z"/>
    <path class="cls-4" d="M32.36,65.12h-.56v-.32h.56v-1.21h.36v1.21h1.11v.32h-1.11v2.34c0,1.12.67,1.27,1.01,1.27.12,0,.2-.02.2-.02v.33s-.08.02-.21.02c-.44,0-1.35-.16-1.35-1.57v-2.36Z"/>
    <path class="cls-4" d="M39.96,62.97c1.41,0,2.12.75,2.12.75l-.22.27s-.71-.67-1.9-.67c-1.46,0-2.58,1.15-2.58,2.69s1.11,2.77,2.6,2.77c1.28,0,2.01-.81,2.01-.81l.23.25s-.8.9-2.24.9c-1.73,0-2.98-1.39-2.98-3.12s1.27-3.03,2.95-3.03Z"/>
    <path class="cls-4" d="M45.77,66.43h.28v-.14c0-.94-.48-1.27-1.16-1.27-.74,0-1.21.41-1.21.41l-.2-.29s.51-.47,1.44-.47c.98,0,1.5.54,1.5,1.61v2.75h-.36v-.56c0-.23.03-.38.03-.38h-.02s-.38,1.04-1.49,1.04c-.69,0-1.45-.38-1.45-1.23,0-1.44,1.88-1.46,2.63-1.46ZM44.6,68.79c.93,0,1.45-.96,1.45-1.8v-.23h-.27c-.72,0-2.27,0-2.27,1.1,0,.45.37.93,1.09.93Z"/>
    <path class="cls-4" d="M47.84,64.77h.36v.51c0,.2-.03.34-.03.34h.02s.35-.95,1.53-.95,1.83.91,1.83,2.23-.79,2.23-1.89,2.23-1.49-.96-1.49-.96h-.02s.03.15.03.37v2.18h-.36v-5.95ZM49.67,68.77c.83,0,1.51-.69,1.51-1.88s-.61-1.88-1.48-1.88c-.78,0-1.51.55-1.51,1.89,0,.94.53,1.87,1.48,1.87Z"/>
    <path class="cls-4" d="M52.73,63.07h.42v.62h-.42v-.62ZM52.77,64.77h.36v4.25h-.36v-4.25Z"/>
    <path class="cls-4" d="M54.75,65.12h-.56v-.32h.56v-1.21h.36v1.21h1.11v.32h-1.11v2.34c0,1.12.67,1.27,1.01,1.27.12,0,.2-.02.2-.02v.33s-.08.02-.21.02c-.44,0-1.35-.16-1.35-1.57v-2.36Z"/>
    <path class="cls-4" d="M59.57,66.43h.28v-.14c0-.94-.48-1.27-1.16-1.27-.74,0-1.21.41-1.21.41l-.2-.29s.51-.47,1.44-.47c.98,0,1.5.54,1.5,1.61v2.75h-.36v-.56c0-.23.03-.38.03-.38h-.02s-.38,1.04-1.49,1.04c-.69,0-1.45-.38-1.45-1.23,0-1.44,1.88-1.46,2.63-1.46ZM58.4,68.79c.93,0,1.45-.96,1.45-1.8v-.23h-.27c-.72,0-2.27,0-2.27,1.1,0,.45.37.93,1.09.93Z"/>
    <path class="cls-4" d="M61.61,63.07h.36v4.98c0,.59.31.66.5.66.07,0,.13,0,.13,0v.33s-.08.02-.15.02c-.25,0-.83-.09-.83-.89v-5.09Z"/>
    <path class="cls-4" d="M66.43,63.07h.36l1.73,3.74c.14.29.29.67.29.67h.02s.15-.38.29-.67l1.73-3.74h.36l.48,5.95h-.37l-.37-4.54c-.03-.29-.03-.79-.03-.79h-.02s-.17.5-.31.79l-1.6,3.39h-.37l-1.59-3.39c-.13-.28-.31-.81-.31-.81h-.02s0,.52-.03.81l-.37,4.54h-.37l.48-5.95Z"/>
    <path class="cls-4" d="M75.47,66.43h.28v-.14c0-.94-.48-1.27-1.16-1.27-.74,0-1.21.41-1.21.41l-.2-.29s.51-.47,1.44-.47c.98,0,1.5.54,1.5,1.61v2.75h-.36v-.56c0-.23.03-.38.03-.38h-.02s-.38,1.04-1.49,1.04c-.69,0-1.45-.38-1.45-1.23,0-1.44,1.88-1.46,2.63-1.46ZM74.3,68.79c.93,0,1.45-.96,1.45-1.8v-.23h-.27c-.72,0-2.27,0-2.27,1.1,0,.45.37.93,1.09.93Z"/>
    <path class="cls-4" d="M77.54,64.77h.36v.75c0,.2-.03.35-.03.35h.02c.14-.4.74-1.2,1.8-1.2s1.4.65,1.4,1.66v2.69h-.36v-2.57c0-.74-.09-1.44-1.05-1.44-.8,0-1.5.56-1.72,1.35-.05.18-.07.37-.07.58v2.07h-.36v-4.25Z"/>
    <path class="cls-4" d="M84.81,66.43h.28v-.14c0-.94-.48-1.27-1.16-1.27-.74,0-1.22.41-1.22.41l-.2-.29s.51-.47,1.44-.47c.98,0,1.5.54,1.5,1.61v2.75h-.36v-.56c0-.23.03-.38.03-.38h-.02s-.38,1.04-1.49,1.04c-.69,0-1.44-.38-1.44-1.23,0-1.44,1.88-1.46,2.63-1.46ZM83.64,68.79c.93,0,1.45-.96,1.45-1.8v-.23h-.27c-.72,0-2.27,0-2.27,1.1,0,.45.37.93,1.09.93Z"/>
    <path class="cls-4" d="M88.29,70.46c.91,0,1.61-.43,1.61-1.46v-.49c0-.2.03-.35.03-.35h-.02c-.25.52-.72.87-1.43.87-1.11,0-1.89-.87-1.89-2.19s.72-2.16,1.83-2.16c1.21,0,1.48.83,1.48.83h.02s-.03-.06-.03-.16v-.57h.36v4.22c0,1.3-.94,1.81-1.95,1.81-.47,0-.92-.12-1.33-.33l.17-.31s.53.3,1.14.3ZM89.91,66.83c0-1.37-.65-1.81-1.48-1.81-.91,0-1.45.66-1.45,1.81s.63,1.84,1.54,1.84c.75,0,1.39-.47,1.39-1.84Z"/>
    <path class="cls-4" d="M93.52,64.67c1.16,0,1.73.91,1.73,1.94,0,.09-.02.23-.02.23h-3.41c0,1.23.83,1.94,1.82,1.94.82,0,1.32-.54,1.32-.54l.2.3s-.59.59-1.51.59c-1.2,0-2.19-.87-2.19-2.22,0-1.44.98-2.24,2.06-2.24ZM94.88,66.5c-.04-1.04-.66-1.5-1.37-1.5-.78,0-1.5.51-1.66,1.5h3.03Z"/>
    <path class="cls-4" d="M96.46,64.77h.36v.75c0,.2-.03.35-.03.35h.02c.21-.64.97-1.2,1.63-1.2.85,0,1.25.4,1.34,1.16h.02c.24-.6.88-1.16,1.62-1.16,1.1,0,1.42.65,1.42,1.66v2.69h-.36v-2.57c0-.8-.16-1.45-1.06-1.45-.71,0-1.31.63-1.5,1.29-.06.2-.08.41-.08.65v2.07h-.36v-2.57c0-.73-.1-1.45-1.04-1.45-.76,0-1.35.66-1.55,1.37-.05.18-.07.37-.07.58v2.07h-.36v-4.25Z"/>
    <path class="cls-4" d="M106.03,64.67c1.16,0,1.73.91,1.73,1.94,0,.09-.02.23-.02.23h-3.41c0,1.23.83,1.94,1.82,1.94.82,0,1.32-.54,1.32-.54l.2.3s-.6.59-1.51.59c-1.2,0-2.19-.87-2.19-2.22,0-1.44.98-2.24,2.07-2.24ZM107.38,66.5c-.04-1.04-.66-1.5-1.37-1.5-.78,0-1.5.51-1.66,1.5h3.03Z"/>
    <path class="cls-4" d="M108.96,64.77h.36v.75c0,.2-.03.35-.03.35h.02c.14-.4.74-1.2,1.8-1.2s1.4.65,1.4,1.66v2.69h-.36v-2.57c0-.74-.09-1.44-1.05-1.44-.8,0-1.5.56-1.72,1.35-.05.18-.07.37-.07.58v2.07h-.36v-4.25Z"/>
    <path class="cls-4" d="M114.08,65.12h-.56v-.32h.56v-1.21h.36v1.21h1.11v.32h-1.11v2.34c0,1.12.67,1.27,1.01,1.27.12,0,.2-.02.2-.02v.33s-.08.02-.21.02c-.44,0-1.35-.16-1.35-1.57v-2.36Z"/>
    <path class="cls-4" d="M116.69,68.5h.48l-.57,1.32h-.36l.45-1.32Z"/>
    <path class="cls-4" d="M121.18,63.07h.37v5.61h2.84v.34h-3.2v-5.95Z"/>
    <path class="cls-4" d="M125.34,68.48h.52v.54h-.52v-.54Z"/>
    <path class="cls-4" d="M127.4,63.07h1.96c1.04,0,1.81.65,1.81,1.73s-.77,1.75-1.81,1.75h-1.59v2.46h-.37v-5.95ZM129.34,66.21c.87,0,1.44-.52,1.44-1.41s-.58-1.39-1.44-1.39h-1.57v2.8h1.57Z"/>
    <path class="cls-4" d="M131.38,68.48h.52v.54h-.52v-.54Z"/>
  </g>
  <g>
    <path class="cls-4" d="M11.63,76.67c1.21,0,2.2.96,2.2,2.2s-.99,2.25-2.2,2.25-2.2-.99-2.2-2.25.99-2.2,2.2-2.2ZM11.63,80.77c1.01,0,1.83-.83,1.83-1.9s-.82-1.85-1.83-1.85-1.83.8-1.83,1.85.82,1.9,1.83,1.9Z"/>
    <path class="cls-4" d="M15.02,76.77h.36v.51c0,.2-.03.34-.03.34h.02s.35-.95,1.53-.95,1.83.91,1.83,2.23-.79,2.23-1.89,2.23-1.49-.96-1.49-.96h-.02s.03.15.03.37v2.18h-.36v-5.95ZM16.84,80.77c.83,0,1.51-.69,1.51-1.88s-.61-1.88-1.48-1.88c-.78,0-1.51.55-1.51,1.89,0,.94.53,1.87,1.48,1.87Z"/>
    <path class="cls-4" d="M21.71,76.67c1.16,0,1.73.91,1.73,1.94,0,.09-.02.23-.02.23h-3.41c0,1.23.83,1.94,1.82,1.94.82,0,1.32-.54,1.32-.54l.2.3s-.6.59-1.51.59c-1.2,0-2.19-.87-2.19-2.22,0-1.44.98-2.24,2.07-2.24ZM23.07,78.51c-.04-1.04-.66-1.5-1.37-1.5-.78,0-1.5.51-1.66,1.5h3.03Z"/>
    <path class="cls-4" d="M24.64,76.77h.36v.81c0,.2-.03.35-.03.35h.02c.21-.65.69-1.19,1.36-1.19.13,0,.25.03.25.03v.36s-.1-.02-.2-.02c-.66,0-1.08.56-1.27,1.19-.09.3-.13.61-.13.89v1.84h-.36v-4.25Z"/>
    <path class="cls-4" d="M29.8,78.43h.28v-.14c0-.94-.48-1.27-1.16-1.27-.74,0-1.22.41-1.22.41l-.2-.29s.51-.47,1.44-.47c.98,0,1.5.54,1.5,1.61v2.75h-.36v-.56c0-.23.03-.38.03-.38h-.02s-.38,1.04-1.49,1.04c-.69,0-1.44-.38-1.44-1.23,0-1.44,1.88-1.46,2.63-1.46ZM28.63,80.79c.93,0,1.45-.96,1.45-1.8v-.23h-.27c-.72,0-2.27,0-2.27,1.1,0,.45.37.93,1.09.93Z"/>
    <path class="cls-4" d="M31.99,77.12h-.56v-.32h.56v-1.21h.36v1.21h1.11v.32h-1.11v2.34c0,1.12.67,1.27,1.01,1.27.12,0,.2-.02.2-.02v.33s-.08.02-.21.02c-.44,0-1.35-.16-1.35-1.57v-2.36Z"/>
    <path class="cls-4" d="M36.29,76.67c1.16,0,1.73.91,1.73,1.94,0,.09-.02.23-.02.23h-3.41c0,1.23.83,1.94,1.82,1.94.82,0,1.32-.54,1.32-.54l.2.3s-.6.59-1.51.59c-1.2,0-2.19-.87-2.19-2.22,0-1.44.98-2.24,2.07-2.24ZM37.65,78.51c-.04-1.04-.66-1.5-1.37-1.5-.78,0-1.5.51-1.66,1.5h3.03Z"/>
    <path class="cls-4" d="M39.09,80.24s.48.54,1.32.54c.52,0,.98-.27.98-.8,0-1.08-2.34-.77-2.34-2.16,0-.76.64-1.15,1.36-1.15.87,0,1.26.46,1.26.46l-.21.29s-.35-.4-1.07-.4c-.48,0-.96.22-.96.77,0,1.1,2.34.77,2.34,2.18,0,.68-.58,1.15-1.36,1.15-1.03,0-1.54-.61-1.54-.61l.23-.27Z"/>
    <path class="cls-4" d="M47.57,78.43h.28v-.14c0-.94-.48-1.27-1.16-1.27-.74,0-1.22.41-1.22.41l-.2-.29s.51-.47,1.44-.47c.98,0,1.5.54,1.5,1.61v2.75h-.36v-.56c0-.23.03-.38.03-.38h-.02s-.38,1.04-1.49,1.04c-.69,0-1.44-.38-1.44-1.23,0-1.44,1.88-1.46,2.63-1.46ZM46.4,80.79c.93,0,1.45-.96,1.45-1.8v-.23h-.27c-.72,0-2.27,0-2.27,1.1,0,.45.37.93,1.09.93Z"/>
    <path class="cls-4" d="M49.51,80.24s.48.54,1.32.54c.52,0,.98-.27.98-.8,0-1.08-2.34-.77-2.34-2.16,0-.76.64-1.15,1.36-1.15.87,0,1.26.46,1.26.46l-.21.29s-.35-.4-1.07-.4c-.48,0-.96.22-.96.77,0,1.1,2.34.77,2.34,2.18,0,.68-.58,1.15-1.36,1.15-1.03,0-1.54-.61-1.54-.61l.23-.27Z"/>
    <path class="cls-4" d="M57.99,78.43h.28v-.14c0-.94-.48-1.27-1.16-1.27-.74,0-1.21.41-1.21.41l-.2-.29s.51-.47,1.44-.47c.98,0,1.5.54,1.5,1.61v2.75h-.36v-.56c0-.23.03-.38.03-.38h-.02s-.38,1.04-1.49,1.04c-.69,0-1.45-.38-1.45-1.23,0-1.44,1.88-1.46,2.63-1.46ZM56.82,80.79c.93,0,1.45-.96,1.45-1.8v-.23h-.27c-.72,0-2.27,0-2.27,1.1,0,.45.37.93,1.09.93Z"/>
    <path class="cls-4" d="M60.07,76.77h.36v.75c0,.2-.03.35-.03.35h.02c.14-.4.74-1.2,1.8-1.2s1.4.65,1.4,1.66v2.69h-.36v-2.57c0-.74-.09-1.44-1.05-1.44-.8,0-1.5.56-1.72,1.35-.05.18-.07.37-.07.58v2.07h-.36v-4.25Z"/>
    <path class="cls-4" d="M67.37,75.07h.42v.62h-.42v-.62ZM67.4,76.77h.36v4.25h-.36v-4.25Z"/>
    <path class="cls-4" d="M69.25,76.77h.36v.75c0,.2-.03.35-.03.35h.02c.14-.4.74-1.2,1.8-1.2s1.4.65,1.4,1.66v2.69h-.36v-2.57c0-.74-.09-1.44-1.05-1.44-.8,0-1.5.56-1.72,1.35-.05.18-.07.37-.07.58v2.07h-.36v-4.25Z"/>
    <path class="cls-4" d="M73.64,76.77h.38l1.31,3.33c.08.2.14.46.14.46h.02s.07-.25.14-.46l1.31-3.33h.37l-1.67,4.25h-.34l-1.67-4.25Z"/>
    <path class="cls-4" d="M79.99,76.67c1.16,0,1.73.91,1.73,1.94,0,.09-.02.23-.02.23h-3.41c0,1.23.83,1.94,1.82,1.94.82,0,1.32-.54,1.32-.54l.2.3s-.6.59-1.51.59c-1.2,0-2.19-.87-2.19-2.22,0-1.44.98-2.24,2.07-2.24ZM81.35,78.51c-.04-1.04-.66-1.5-1.37-1.5-.78,0-1.5.51-1.66,1.5h3.03Z"/>
    <path class="cls-4" d="M82.79,80.24s.48.54,1.32.54c.52,0,.98-.27.98-.8,0-1.08-2.34-.77-2.34-2.16,0-.76.64-1.15,1.36-1.15.87,0,1.26.46,1.26.46l-.21.29s-.35-.4-1.07-.4c-.48,0-.96.22-.96.77,0,1.1,2.34.77,2.34,2.18,0,.68-.58,1.15-1.36,1.15-1.03,0-1.54-.61-1.54-.61l.23-.27Z"/>
    <path class="cls-4" d="M86.76,77.12h-.56v-.32h.56v-1.21h.36v1.21h1.11v.32h-1.11v2.34c0,1.12.67,1.27,1.01,1.27.12,0,.2-.02.2-.02v.33s-.08.02-.21.02c-.44,0-1.35-.16-1.35-1.57v-2.36Z"/>
    <path class="cls-4" d="M89.3,76.77h.36v.75c0,.2-.03.35-.03.35h.02c.21-.64.97-1.2,1.63-1.2.85,0,1.25.4,1.34,1.16h.02c.24-.6.88-1.16,1.62-1.16,1.1,0,1.42.65,1.42,1.66v2.69h-.36v-2.57c0-.8-.16-1.45-1.06-1.45-.71,0-1.31.63-1.5,1.29-.06.2-.08.41-.08.65v2.07h-.36v-2.57c0-.73-.1-1.45-1.04-1.45-.76,0-1.35.66-1.55,1.37-.05.18-.07.37-.07.58v2.07h-.36v-4.25Z"/>
    <path class="cls-4" d="M98.87,76.67c1.16,0,1.73.91,1.73,1.94,0,.09-.02.23-.02.23h-3.41c0,1.23.83,1.94,1.82,1.94.82,0,1.32-.54,1.32-.54l.2.3s-.59.59-1.51.59c-1.2,0-2.19-.87-2.19-2.22,0-1.44.98-2.24,2.06-2.24ZM100.23,78.51c-.04-1.04-.66-1.5-1.37-1.5-.78,0-1.5.51-1.66,1.5h3.03Z"/>
    <path class="cls-4" d="M101.8,76.77h.36v.75c0,.2-.03.35-.03.35h.02c.14-.4.74-1.2,1.8-1.2s1.4.65,1.4,1.66v2.69h-.36v-2.57c0-.74-.09-1.44-1.04-1.44-.8,0-1.5.56-1.72,1.35-.05.18-.07.37-.07.58v2.07h-.36v-4.25Z"/>
    <path class="cls-4" d="M106.92,77.12h-.56v-.32h.56v-1.21h.36v1.21h1.11v.32h-1.11v2.34c0,1.12.67,1.27,1.01,1.27.12,0,.2-.02.2-.02v.33s-.08.02-.21.02c-.44,0-1.35-.16-1.35-1.57v-2.36Z"/>
    <path class="cls-4" d="M111.81,76.77h.36v.75c0,.2-.03.35-.03.35h.02c.21-.64.97-1.2,1.63-1.2.85,0,1.25.4,1.34,1.16h.02c.24-.6.88-1.16,1.62-1.16,1.1,0,1.42.65,1.42,1.66v2.69h-.36v-2.57c0-.8-.16-1.45-1.06-1.45-.71,0-1.31.63-1.5,1.29-.06.2-.08.41-.08.65v2.07h-.36v-2.57c0-.73-.1-1.45-1.04-1.45-.76,0-1.35.66-1.55,1.37-.05.18-.07.37-.07.58v2.07h-.36v-4.25Z"/>
    <path class="cls-4" d="M121.89,78.43h.28v-.14c0-.94-.48-1.27-1.16-1.27-.74,0-1.21.41-1.21.41l-.2-.29s.51-.47,1.44-.47c.98,0,1.5.54,1.5,1.61v2.75h-.36v-.56c0-.23.03-.38.03-.38h-.02s-.38,1.04-1.49,1.04c-.69,0-1.45-.38-1.45-1.23,0-1.44,1.88-1.46,2.63-1.46ZM120.72,80.79c.93,0,1.45-.96,1.45-1.8v-.23h-.27c-.72,0-2.27,0-2.27,1.1,0,.45.37.93,1.09.93Z"/>
    <path class="cls-4" d="M123.97,76.77h.36v.75c0,.2-.03.35-.03.35h.02c.14-.4.74-1.2,1.8-1.2s1.4.65,1.4,1.66v2.69h-.36v-2.57c0-.74-.09-1.44-1.05-1.44-.8,0-1.5.56-1.72,1.35-.05.18-.07.37-.07.58v2.07h-.36v-4.25Z"/>
    <path class="cls-4" d="M131.24,78.43h.28v-.14c0-.94-.48-1.27-1.16-1.27-.74,0-1.22.41-1.22.41l-.2-.29s.51-.47,1.44-.47c.98,0,1.5.54,1.5,1.61v2.75h-.36v-.56c0-.23.03-.38.03-.38h-.02s-.38,1.04-1.49,1.04c-.69,0-1.44-.38-1.44-1.23,0-1.44,1.88-1.46,2.63-1.46ZM130.06,80.79c.93,0,1.45-.96,1.45-1.8v-.23h-.27c-.72,0-2.27,0-2.27,1.1,0,.45.37.93,1.09.93Z"/>
    <path class="cls-4" d="M134.71,82.46c.91,0,1.61-.43,1.61-1.46v-.49c0-.2.03-.35.03-.35h-.02c-.25.52-.72.87-1.43.87-1.11,0-1.89-.87-1.89-2.19s.72-2.16,1.83-2.16c1.21,0,1.48.83,1.48.83h.02s-.03-.06-.03-.16v-.57h.36v4.22c0,1.3-.94,1.81-1.95,1.81-.47,0-.92-.12-1.33-.33l.17-.31s.53.3,1.14.3ZM136.34,78.83c0-1.37-.65-1.81-1.48-1.81-.91,0-1.45.66-1.45,1.81s.63,1.84,1.54,1.84c.75,0,1.39-.47,1.39-1.84Z"/>
    <path class="cls-4" d="M139.95,76.67c1.16,0,1.73.91,1.73,1.94,0,.09-.02.23-.02.23h-3.41c0,1.23.83,1.94,1.82,1.94.82,0,1.32-.54,1.32-.54l.2.3s-.59.59-1.51.59c-1.2,0-2.19-.87-2.19-2.22,0-1.44.98-2.24,2.06-2.24ZM141.31,78.51c-.04-1.04-.66-1.5-1.37-1.5-.78,0-1.5.51-1.66,1.5h3.03Z"/>
    <path class="cls-4" d="M142.88,76.77h.36v.81c0,.2-.03.35-.03.35h.02c.21-.65.69-1.19,1.36-1.19.13,0,.25.03.25.03v.36s-.1-.02-.2-.02c-.66,0-1.08.56-1.27,1.19-.09.3-.13.61-.13.89v1.84h-.36v-4.25Z"/>
  </g>
  <g>
    <path class="cls-4" d="M9.71,87.07h.36v4.98c0,.59.31.66.5.66.07,0,.13,0,.13,0v.33s-.08.02-.15.02c-.25,0-.83-.09-.83-.89v-5.09Z"/>
    <path class="cls-4" d="M13.59,88.67c1.21,0,2.2.96,2.2,2.2s-.99,2.25-2.2,2.25-2.2-.99-2.2-2.25.99-2.2,2.2-2.2ZM13.59,92.78c1.01,0,1.83-.83,1.83-1.9s-.82-1.85-1.83-1.85-1.83.8-1.83,1.85.82,1.9,1.83,1.9Z"/>
    <path class="cls-4" d="M18.87,88.67c1.01,0,1.52.6,1.52.6l-.22.29s-.49-.54-1.3-.54c-.99,0-1.82.74-1.82,1.89s.83,1.87,1.82,1.87c.93,0,1.42-.61,1.42-.61l.19.3s-.55.66-1.61.66c-1.2,0-2.19-.87-2.19-2.22s1.01-2.24,2.19-2.24Z"/>
    <path class="cls-4" d="M23.94,90.43h.28v-.14c0-.94-.48-1.27-1.16-1.27-.74,0-1.22.41-1.22.41l-.2-.29s.51-.47,1.44-.47c.98,0,1.5.54,1.5,1.61v2.75h-.36v-.56c0-.23.03-.38.03-.38h-.02s-.38,1.04-1.49,1.04c-.69,0-1.44-.38-1.44-1.23,0-1.44,1.88-1.46,2.63-1.46ZM22.77,92.79c.93,0,1.45-.96,1.45-1.8v-.23h-.27c-.72,0-2.27,0-2.27,1.1,0,.45.37.93,1.09.93Z"/>
    <path class="cls-4" d="M26.14,89.12h-.56v-.32h.56v-1.21h.36v1.21h1.11v.32h-1.11v2.34c0,1.12.67,1.27,1.01,1.27.12,0,.2-.02.2-.02v.33s-.08.02-.21.02c-.44,0-1.35-.16-1.35-1.57v-2.36Z"/>
    <path class="cls-4" d="M30.44,88.67c1.16,0,1.73.91,1.73,1.94,0,.09-.02.23-.02.23h-3.41c0,1.23.83,1.94,1.82,1.94.82,0,1.32-.54,1.32-.54l.2.3s-.6.59-1.51.59c-1.2,0-2.19-.87-2.19-2.22,0-1.44.98-2.24,2.07-2.24ZM31.8,90.51c-.04-1.04-.66-1.5-1.37-1.5-.78,0-1.5.51-1.66,1.5h3.03Z"/>
    <path class="cls-4" d="M34.99,88.67c1.07,0,1.47.96,1.47.96h.02s-.03-.15-.03-.35v-2.21h.36v5.95h-.36v-.54c0-.2.03-.32.03-.32h-.02s-.37.96-1.54.96-1.84-.91-1.84-2.23.79-2.23,1.9-2.23ZM34.94,92.78c.78,0,1.51-.55,1.51-1.89,0-.94-.48-1.87-1.48-1.87-.83,0-1.51.69-1.51,1.88s.61,1.88,1.48,1.88Z"/>
    <path class="cls-4" d="M40.62,87.07h.42v.62h-.42v-.62ZM40.65,88.77h.36v4.25h-.36v-4.25Z"/>
    <path class="cls-4" d="M42.51,88.77h.36v.75c0,.2-.03.35-.03.35h.02c.14-.4.74-1.2,1.8-1.2s1.4.65,1.4,1.66v2.69h-.36v-2.57c0-.74-.09-1.44-1.05-1.44-.8,0-1.5.56-1.72,1.35-.05.18-.07.37-.07.58v2.07h-.36v-4.25Z"/>
    <path class="cls-4" d="M49.82,92.1s.6.66,1.59.66c.74,0,1.33-.46,1.33-1.17,0-1.69-3.04-1.22-3.04-3.08,0-.79.71-1.54,1.79-1.54.97,0,1.51.55,1.51.55l-.2.31s-.51-.51-1.3-.51c-.88,0-1.41.59-1.41,1.17,0,1.57,3.04,1.09,3.04,3.08,0,.86-.66,1.55-1.72,1.55-1.17,0-1.82-.74-1.82-.74l.25-.28Z"/>
    <path class="cls-4" d="M56.63,90.43h.28v-.14c0-.94-.48-1.27-1.16-1.27-.74,0-1.22.41-1.22.41l-.2-.29s.51-.47,1.44-.47c.98,0,1.5.54,1.5,1.61v2.75h-.36v-.56c0-.23.03-.38.03-.38h-.02s-.38,1.04-1.49,1.04c-.69,0-1.44-.38-1.44-1.23,0-1.44,1.88-1.46,2.63-1.46ZM55.46,92.79c.93,0,1.45-.96,1.45-1.8v-.23h-.27c-.72,0-2.27,0-2.27,1.1,0,.45.37.93,1.09.93Z"/>
    <path class="cls-4" d="M58.71,88.77h.36v.75c0,.2-.03.35-.03.35h.02c.14-.4.74-1.2,1.8-1.2s1.4.65,1.4,1.66v2.69h-.36v-2.57c0-.74-.09-1.44-1.04-1.44-.8,0-1.5.56-1.72,1.35-.05.18-.07.37-.07.58v2.07h-.36v-4.25Z"/>
    <path class="cls-4" d="M66.21,87.07h3v.34h-2.63v2.48h2.28v.34h-2.28v2.79h-.37v-5.95Z"/>
    <path class="cls-4" d="M70.32,88.77h.36v.81c0,.2-.03.35-.03.35h.02c.21-.65.69-1.19,1.36-1.19.13,0,.25.03.25.03v.36s-.1-.02-.2-.02c-.66,0-1.08.56-1.27,1.19-.09.3-.13.61-.13.89v1.84h-.36v-4.25Z"/>
    <path class="cls-4" d="M75.48,90.43h.28v-.14c0-.94-.48-1.27-1.16-1.27-.74,0-1.21.41-1.21.41l-.2-.29s.51-.47,1.44-.47c.98,0,1.5.54,1.5,1.61v2.75h-.36v-.56c0-.23.03-.38.03-.38h-.02s-.38,1.04-1.49,1.04c-.69,0-1.45-.38-1.45-1.23,0-1.44,1.88-1.46,2.63-1.46ZM74.3,92.79c.93,0,1.45-.96,1.45-1.8v-.23h-.27c-.72,0-2.27,0-2.27,1.1,0,.45.37.93,1.09.93Z"/>
    <path class="cls-4" d="M77.55,88.77h.36v.75c0,.2-.03.35-.03.35h.02c.14-.4.74-1.2,1.8-1.2s1.4.65,1.4,1.66v2.69h-.36v-2.57c0-.74-.09-1.44-1.05-1.44-.8,0-1.5.56-1.72,1.35-.05.18-.07.37-.07.58v2.07h-.36v-4.25Z"/>
    <path class="cls-4" d="M84.43,88.67c1.01,0,1.52.6,1.52.6l-.22.29s-.48-.54-1.3-.54c-.99,0-1.82.74-1.82,1.89s.82,1.87,1.82,1.87c.94,0,1.42-.61,1.42-.61l.19.3s-.55.66-1.61.66c-1.2,0-2.19-.87-2.19-2.22s1.01-2.24,2.19-2.24Z"/>
    <path class="cls-4" d="M87.18,87.07h.42v.62h-.42v-.62ZM87.22,88.77h.36v4.25h-.36v-4.25Z"/>
    <path class="cls-4" d="M88.93,92.24s.48.54,1.32.54c.52,0,.98-.27.98-.8,0-1.08-2.34-.77-2.34-2.16,0-.76.64-1.15,1.36-1.15.87,0,1.26.46,1.26.46l-.21.29s-.35-.4-1.07-.4c-.48,0-.96.22-.96.77,0,1.1,2.34.77,2.34,2.18,0,.68-.58,1.15-1.36,1.15-1.03,0-1.54-.61-1.54-.61l.23-.27Z"/>
    <path class="cls-4" d="M94.67,88.67c1.01,0,1.52.6,1.52.6l-.22.29s-.48-.54-1.3-.54c-.99,0-1.82.74-1.82,1.89s.82,1.87,1.82,1.87c.94,0,1.42-.61,1.42-.61l.19.3s-.55.66-1.61.66c-1.2,0-2.19-.87-2.19-2.22s1.01-2.24,2.19-2.24Z"/>
    <path class="cls-4" d="M99.32,88.67c1.21,0,2.2.96,2.2,2.2s-.99,2.25-2.2,2.25-2.2-.99-2.2-2.25.99-2.2,2.2-2.2ZM99.32,92.78c1.01,0,1.83-.83,1.83-1.9s-.82-1.85-1.83-1.85-1.83.8-1.83,1.85.82,1.9,1.83,1.9Z"/>
    <path class="cls-4" d="M102.79,92.5h.48l-.57,1.32h-.36l.45-1.32Z"/>
    <path class="cls-4" d="M109.83,86.97c1.41,0,2.12.75,2.12.75l-.22.27s-.71-.67-1.9-.67c-1.46,0-2.58,1.15-2.58,2.69s1.11,2.77,2.6,2.77c1.28,0,2.01-.81,2.01-.81l.23.25s-.8.9-2.24.9c-1.73,0-2.98-1.39-2.98-3.12s1.27-3.03,2.95-3.03Z"/>
    <path class="cls-4" d="M115.63,90.43h.28v-.14c0-.94-.48-1.27-1.16-1.27-.74,0-1.21.41-1.21.41l-.2-.29s.51-.47,1.44-.47c.98,0,1.5.54,1.5,1.61v2.75h-.36v-.56c0-.23.03-.38.03-.38h-.02s-.38,1.04-1.49,1.04c-.69,0-1.45-.38-1.45-1.23,0-1.44,1.88-1.46,2.63-1.46ZM114.46,92.79c.93,0,1.45-.96,1.45-1.8v-.23h-.27c-.72,0-2.27,0-2.27,1.1,0,.45.37.93,1.09.93Z"/>
    <path class="cls-4" d="M117.66,87.07h.36v4.98c0,.59.31.66.5.66.07,0,.13,0,.13,0v.33s-.08.02-.15.02c-.25,0-.83-.09-.83-.89v-5.09Z"/>
    <path class="cls-4" d="M119.63,87.07h.42v.62h-.42v-.62ZM119.66,88.77h.36v4.25h-.36v-4.25Z"/>
    <path class="cls-4" d="M121.69,89.12h-.54v-.32h.54v-.2c0-1.4.92-1.57,1.34-1.57.14,0,.22.02.22.02v.33s-.08-.02-.2-.02c-.34,0-1.01.14-1.01,1.23v.2h1.16v.32h-1.16v3.9h-.36v-3.9Z"/>
    <path class="cls-4" d="M125.96,88.67c1.22,0,2.2.96,2.2,2.2s-.99,2.25-2.2,2.25-2.2-.99-2.2-2.25.99-2.2,2.2-2.2ZM125.96,92.78c1.01,0,1.83-.83,1.83-1.9s-.82-1.85-1.83-1.85-1.83.8-1.83,1.85.82,1.9,1.83,1.9Z"/>
    <path class="cls-4" d="M129.34,88.77h.36v.81c0,.2-.03.35-.03.35h.02c.21-.65.69-1.19,1.36-1.19.13,0,.25.03.25.03v.36s-.1-.02-.2-.02c-.66,0-1.08.56-1.27,1.19-.09.3-.13.61-.13.89v1.84h-.36v-4.25Z"/>
    <path class="cls-4" d="M132.21,88.77h.36v.75c0,.2-.03.35-.03.35h.02c.14-.4.74-1.2,1.8-1.2s1.4.65,1.4,1.66v2.69h-.36v-2.57c0-.74-.09-1.44-1.04-1.44-.8,0-1.5.56-1.72,1.35-.05.18-.07.37-.07.58v2.07h-.36v-4.25Z"/>
    <path class="cls-4" d="M137.16,87.07h.42v.62h-.42v-.62ZM137.19,88.77h.36v4.25h-.36v-4.25Z"/>
    <path class="cls-4" d="M141.33,90.43h.28v-.14c0-.94-.48-1.27-1.16-1.27-.74,0-1.22.41-1.22.41l-.2-.29s.51-.47,1.44-.47c.98,0,1.5.54,1.5,1.61v2.75h-.36v-.56c0-.23.03-.38.03-.38h-.02s-.38,1.04-1.49,1.04c-.69,0-1.44-.38-1.44-1.23,0-1.44,1.88-1.46,2.63-1.46ZM140.16,92.79c.93,0,1.45-.96,1.45-1.8v-.23h-.27c-.72,0-2.27,0-2.27,1.1,0,.45.37.93,1.09.93Z"/>
    <path class="cls-4" d="M143.41,92.49h.52v.54h-.52v-.54Z"/>
  </g>
  <g>
    <path class="cls-4" d="M10.22,99.08h.36l1.73,3.74c.14.29.29.67.29.67h.02s.15-.38.29-.67l1.73-3.74h.36l.48,5.95h-.37l-.37-4.54c-.03-.29-.03-.79-.03-.79h-.02s-.17.5-.31.79l-1.6,3.39h-.37l-1.59-3.39c-.13-.28-.31-.81-.31-.81h-.02s0,.52-.03.81l-.37,4.54h-.37l.48-5.95Z"/>
    <path class="cls-4" d="M19.26,102.43h.28v-.14c0-.94-.48-1.27-1.16-1.27-.74,0-1.21.41-1.21.41l-.2-.29s.51-.47,1.44-.47c.98,0,1.5.54,1.5,1.61v2.75h-.36v-.56c0-.23.03-.38.03-.38h-.02s-.38,1.04-1.49,1.04c-.69,0-1.45-.38-1.45-1.23,0-1.44,1.88-1.46,2.63-1.46ZM18.09,104.8c.93,0,1.45-.96,1.45-1.8v-.23h-.27c-.72,0-2.27,0-2.27,1.1,0,.45.37.93,1.09.93Z"/>
    <path class="cls-4" d="M21.33,100.77h.36v.75c0,.2-.03.35-.03.35h.02c.14-.4.74-1.2,1.8-1.2s1.4.65,1.4,1.66v2.69h-.36v-2.57c0-.74-.09-1.44-1.05-1.44-.8,0-1.5.56-1.72,1.35-.05.18-.07.37-.07.58v2.07h-.36v-4.25Z"/>
    <path class="cls-4" d="M28.6,102.43h.28v-.14c0-.94-.48-1.27-1.16-1.27-.74,0-1.22.41-1.22.41l-.2-.29s.51-.47,1.44-.47c.98,0,1.5.54,1.5,1.61v2.75h-.36v-.56c0-.23.03-.38.03-.38h-.02s-.38,1.04-1.49,1.04c-.69,0-1.44-.38-1.44-1.23,0-1.44,1.88-1.46,2.63-1.46ZM27.43,104.8c.93,0,1.45-.96,1.45-1.8v-.23h-.27c-.72,0-2.27,0-2.27,1.1,0,.45.37.93,1.09.93Z"/>
    <path class="cls-4" d="M32.08,106.46c.91,0,1.61-.43,1.61-1.46v-.49c0-.2.03-.35.03-.35h-.02c-.25.52-.72.87-1.43.87-1.11,0-1.89-.87-1.89-2.19s.72-2.16,1.83-2.16c1.21,0,1.48.83,1.48.83h.02s-.03-.06-.03-.16v-.57h.36v4.22c0,1.3-.94,1.81-1.95,1.81-.47,0-.92-.12-1.33-.33l.17-.31s.53.3,1.14.3ZM33.7,102.83c0-1.37-.65-1.81-1.48-1.81-.91,0-1.45.66-1.45,1.81s.63,1.84,1.54,1.84c.75,0,1.39-.47,1.39-1.84Z"/>
    <path class="cls-4" d="M35.51,99.08h.42v.62h-.42v-.62ZM35.55,100.77h.36v4.25h-.36v-4.25Z"/>
    <path class="cls-4" d="M37.4,100.77h.36v.75c0,.2-.03.35-.03.35h.02c.14-.4.74-1.2,1.8-1.2s1.4.65,1.4,1.66v2.69h-.36v-2.57c0-.74-.09-1.44-1.05-1.44-.8,0-1.5.56-1.72,1.35-.05.18-.07.37-.07.58v2.07h-.36v-4.25Z"/>
    <path class="cls-4" d="M43.78,106.46c.91,0,1.61-.43,1.61-1.46v-.49c0-.2.03-.35.03-.35h-.02c-.25.52-.72.87-1.43.87-1.11,0-1.89-.87-1.89-2.19s.72-2.16,1.83-2.16c1.21,0,1.48.83,1.48.83h.02s-.03-.06-.03-.16v-.57h.36v4.22c0,1.3-.94,1.81-1.95,1.81-.47,0-.92-.12-1.33-.33l.17-.31s.53.3,1.14.3ZM45.4,102.83c0-1.37-.65-1.81-1.48-1.81-.91,0-1.45.66-1.45,1.81s.63,1.84,1.54,1.84c.75,0,1.39-.47,1.39-1.84Z"/>
    <path class="cls-4" d="M51.89,102.43h.28v-.14c0-.94-.48-1.27-1.16-1.27-.74,0-1.21.41-1.21.41l-.2-.29s.51-.47,1.44-.47c.98,0,1.5.54,1.5,1.61v2.75h-.36v-.56c0-.23.03-.38.03-.38h-.02s-.38,1.04-1.49,1.04c-.69,0-1.45-.38-1.45-1.23,0-1.44,1.88-1.46,2.63-1.46ZM50.72,104.8c.93,0,1.45-.96,1.45-1.8v-.23h-.27c-.72,0-2.27,0-2.27,1.1,0,.45.37.93,1.09.93Z"/>
    <path class="cls-4" d="M53.96,100.77h.36v.51c0,.2-.03.34-.03.34h.02s.35-.95,1.53-.95,1.83.91,1.83,2.23-.79,2.23-1.89,2.23-1.49-.96-1.49-.96h-.02s.03.15.03.37v2.18h-.36v-5.95ZM55.79,104.78c.83,0,1.51-.69,1.51-1.88s-.61-1.88-1.48-1.88c-.78,0-1.51.55-1.51,1.89,0,.94.53,1.87,1.48,1.87Z"/>
    <path class="cls-4" d="M58.89,100.77h.36v.51c0,.2-.03.34-.03.34h.02s.35-.95,1.53-.95,1.84.91,1.84,2.23-.79,2.23-1.89,2.23-1.49-.96-1.49-.96h-.02s.03.15.03.37v2.18h-.36v-5.95ZM60.71,104.78c.83,0,1.51-.69,1.51-1.88s-.61-1.88-1.48-1.88c-.78,0-1.51.55-1.51,1.89,0,.94.53,1.87,1.48,1.87Z"/>
    <path class="cls-4" d="M63.81,100.77h.36v.81c0,.2-.03.35-.03.35h.02c.21-.65.69-1.19,1.36-1.19.13,0,.25.03.25.03v.36s-.1-.02-.2-.02c-.66,0-1.08.56-1.27,1.19-.09.3-.13.61-.13.89v1.84h-.36v-4.25Z"/>
    <path class="cls-4" d="M68.47,100.67c1.21,0,2.2.96,2.2,2.2s-.99,2.25-2.2,2.25-2.2-.99-2.2-2.25.99-2.2,2.2-2.2ZM68.47,104.78c1.01,0,1.83-.83,1.83-1.9s-.82-1.85-1.83-1.85-1.83.8-1.83,1.85.82,1.9,1.83,1.9Z"/>
    <path class="cls-4" d="M72.83,102.78l-1.37-2.01h.43l1.03,1.55c.07.11.14.24.14.24h.02s.08-.13.14-.24l1.03-1.55h.43l-1.37,2.01,1.53,2.24h-.44l-1.17-1.76c-.08-.12-.15-.25-.15-.25h-.02s-.07.12-.15.25l-1.17,1.76h-.44l1.53-2.24Z"/>
    <path class="cls-4" d="M75.82,99.08h.42v.62h-.42v-.62ZM75.85,100.77h.36v4.25h-.36v-4.25Z"/>
    <path class="cls-4" d="M77.7,100.77h.36v.75c0,.2-.03.35-.03.35h.02c.21-.64.97-1.2,1.63-1.2.85,0,1.25.4,1.34,1.16h.02c.24-.6.88-1.16,1.61-1.16,1.1,0,1.42.65,1.42,1.66v2.69h-.36v-2.57c0-.8-.16-1.45-1.06-1.45-.71,0-1.31.63-1.5,1.29-.06.2-.08.41-.08.65v2.07h-.36v-2.57c0-.73-.1-1.45-1.04-1.45-.76,0-1.35.66-1.55,1.37-.05.18-.07.37-.07.58v2.07h-.36v-4.25Z"/>
    <path class="cls-4" d="M87.79,102.43h.28v-.14c0-.94-.48-1.27-1.16-1.27-.74,0-1.21.41-1.21.41l-.2-.29s.51-.47,1.44-.47c.98,0,1.5.54,1.5,1.61v2.75h-.36v-.56c0-.23.03-.38.03-.38h-.02s-.38,1.04-1.49,1.04c-.69,0-1.45-.38-1.45-1.23,0-1.44,1.88-1.46,2.63-1.46ZM86.62,104.8c.93,0,1.45-.96,1.45-1.8v-.23h-.27c-.72,0-2.27,0-2.27,1.1,0,.45.37.93,1.09.93Z"/>
    <path class="cls-4" d="M89.99,101.12h-.56v-.32h.56v-1.21h.36v1.21h1.11v.32h-1.11v2.34c0,1.12.67,1.27,1.01,1.27.12,0,.2-.02.2-.02v.33s-.08.02-.21.02c-.44,0-1.35-.16-1.35-1.57v-2.36Z"/>
    <path class="cls-4" d="M94.29,100.67c1.16,0,1.73.91,1.73,1.94,0,.09-.02.23-.02.23h-3.41c0,1.23.83,1.94,1.82,1.94.82,0,1.32-.54,1.32-.54l.2.3s-.59.59-1.51.59c-1.2,0-2.19-.87-2.19-2.22,0-1.44.98-2.24,2.06-2.24ZM95.65,102.51c-.04-1.04-.66-1.5-1.37-1.5-.78,0-1.5.51-1.66,1.5h3.03Z"/>
    <path class="cls-4" d="M97.18,99.08h.36v4.98c0,.59.31.66.5.66.07,0,.13,0,.13,0v.33s-.08.02-.15.02c-.25,0-.83-.09-.83-.89v-5.09Z"/>
    <path class="cls-4" d="M98.66,106.27s.24.2.53.2c.41,0,.66-.37.83-.77l.31-.71-1.76-4.22h.38l1.4,3.39c.08.2.15.4.15.4h.02s.06-.2.14-.4l1.4-3.39h.38l-2.18,5.24c-.19.44-.54.79-1.08.79-.41,0-.69-.24-.69-.24l.16-.31Z"/>
    <path class="cls-4" d="M105.75,104.11s.6.66,1.59.66c.74,0,1.33-.46,1.33-1.17,0-1.65-3.07-1.27-3.07-3.08,0-.73.6-1.42,1.55-1.52v-.81h.37v.8c.89.03,1.38.54,1.38.54l-.2.31s-.51-.51-1.3-.51c-.88,0-1.41.59-1.41,1.17,0,1.53,3.07,1.13,3.07,3.08,0,.81-.59,1.46-1.54,1.54v.79h-.37v-.79c-1.06-.07-1.64-.73-1.64-.73l.25-.28Z"/>
    <path class="cls-4" d="M110.13,104.71c0-2.07,3.17-2.3,3.17-4.11,0-.71-.53-1.27-1.39-1.27-.95,0-1.44.85-1.44.85l-.27-.19s.54-1.02,1.73-1.02,1.76.78,1.76,1.63c0,2.03-3.16,2.29-3.16,4.08h3.25v.34h-3.62c-.02-.11-.03-.21-.03-.31Z"/>
    <path class="cls-4" d="M117.43,99.08h.36v2.21c0,.2-.03.35-.03.35h.02s.37-.96,1.54-.96,1.83.91,1.83,2.23-.79,2.23-1.9,2.23-1.47-.96-1.47-.96h-.02s.03.15.03.37v.48h-.36v-5.95ZM119.26,104.78c.83,0,1.51-.69,1.51-1.88s-.61-1.88-1.48-1.88c-.78,0-1.51.55-1.51,1.89,0,.94.48,1.87,1.48,1.87Z"/>
    <path class="cls-4" d="M122.32,99.08h.42v.62h-.42v-.62ZM122.35,100.77h.36v4.25h-.36v-4.25Z"/>
    <path class="cls-4" d="M124.16,99.08h.36v4.98c0,.59.31.66.5.66.07,0,.13,0,.13,0v.33s-.08.02-.15.02c-.25,0-.83-.09-.83-.89v-5.09Z"/>
    <path class="cls-4" d="M126.12,99.08h.36v4.98c0,.59.31.66.5.66.07,0,.13,0,.13,0v.33s-.08.02-.15.02c-.25,0-.83-.09-.83-.89v-5.09Z"/>
    <path class="cls-4" d="M128.08,99.08h.42v.62h-.42v-.62ZM128.12,100.77h.36v4.25h-.36v-4.25Z"/>
    <path class="cls-4" d="M131.86,100.67c1.22,0,2.2.96,2.2,2.2s-.99,2.25-2.2,2.25-2.2-.99-2.2-2.25.99-2.2,2.2-2.2ZM131.86,104.78c1.01,0,1.83-.83,1.83-1.9s-.82-1.85-1.83-1.85-1.83.8-1.83,1.85.82,1.9,1.83,1.9Z"/>
    <path class="cls-4" d="M135.24,100.77h.36v.75c0,.2-.03.35-.03.35h.02c.14-.4.74-1.2,1.8-1.2s1.4.65,1.4,1.66v2.69h-.36v-2.57c0-.74-.09-1.44-1.04-1.44-.8,0-1.5.56-1.72,1.35-.05.18-.07.37-.07.58v2.07h-.36v-4.25Z"/>
  </g>
  <g>
    <path class="cls-4" d="M9.61,116.24s.48.54,1.32.54c.52,0,.98-.27.98-.8,0-1.08-2.34-.77-2.34-2.16,0-.76.64-1.15,1.36-1.15.87,0,1.26.46,1.26.46l-.21.29s-.35-.4-1.07-.4c-.48,0-.96.22-.96.77,0,1.1,2.34.77,2.34,2.18,0,.68-.58,1.15-1.36,1.15-1.03,0-1.54-.61-1.54-.61l.23-.27Z"/>
    <path class="cls-4" d="M15.34,112.67c1.21,0,2.2.96,2.2,2.2s-.99,2.25-2.2,2.25-2.2-.99-2.2-2.25.99-2.2,2.2-2.2ZM15.34,116.78c1.01,0,1.83-.83,1.83-1.9s-.82-1.85-1.83-1.85-1.83.8-1.83,1.85.82,1.9,1.83,1.9Z"/>
    <path class="cls-4" d="M18.66,112.78h.36v2.57c0,.74.09,1.44,1.04,1.44,1.06,0,1.74-.94,1.74-1.93v-2.07h.36v4.25h-.36v-.75c0-.2.03-.35.03-.35h-.02c-.14.4-.73,1.2-1.76,1.2s-1.4-.58-1.4-1.66v-2.69Z"/>
    <path class="cls-4" d="M23.66,112.78h.36v.81c0,.2-.03.35-.03.35h.02c.21-.65.69-1.19,1.36-1.19.13,0,.25.03.25.03v.36s-.1-.02-.2-.02c-.66,0-1.08.56-1.27,1.19-.09.3-.13.61-.13.89v1.84h-.36v-4.25Z"/>
    <path class="cls-4" d="M28.34,112.67c1.01,0,1.52.6,1.52.6l-.22.29s-.49-.54-1.3-.54c-.99,0-1.82.74-1.82,1.89s.83,1.87,1.82,1.87c.93,0,1.42-.61,1.42-.61l.19.3s-.55.66-1.61.66c-1.2,0-2.19-.87-2.19-2.22s1.01-2.24,2.19-2.24Z"/>
    <path class="cls-4" d="M32.88,112.67c1.16,0,1.73.91,1.73,1.94,0,.09-.02.23-.02.23h-3.41c0,1.23.83,1.94,1.82,1.94.82,0,1.32-.54,1.32-.54l.2.3s-.6.59-1.51.59c-1.2,0-2.19-.87-2.19-2.22,0-1.44.98-2.24,2.07-2.24ZM34.24,114.51c-.04-1.04-.66-1.5-1.37-1.5-.78,0-1.5.51-1.66,1.5h3.03Z"/>
    <path class="cls-4" d="M37.43,112.67c1.07,0,1.47.96,1.47.96h.02s-.03-.15-.03-.35v-2.21h.36v5.95h-.36v-.54c0-.2.03-.32.03-.32h-.02s-.37.96-1.54.96-1.84-.91-1.84-2.23.79-2.23,1.9-2.23ZM37.38,116.78c.78,0,1.51-.55,1.51-1.89,0-.94-.48-1.87-1.48-1.87-.83,0-1.51.69-1.51,1.88s.61,1.88,1.48,1.88Z"/>
    <path class="cls-4" d="M43.27,113.13h-.54v-.32h.54v-.2c0-1.4.92-1.57,1.34-1.57.14,0,.22.02.22.02v.33s-.08-.02-.2-.02c-.34,0-1.01.14-1.01,1.23v.2h1.17v.32h-1.17v3.9h-.36v-3.9Z"/>
    <path class="cls-4" d="M45.69,112.78h.36v.81c0,.2-.03.35-.03.35h.02c.21-.65.69-1.19,1.36-1.19.13,0,.25.03.25.03v.36s-.1-.02-.2-.02c-.66,0-1.08.56-1.27,1.19-.09.3-.13.61-.13.89v1.84h-.36v-4.25Z"/>
    <path class="cls-4" d="M50.34,112.67c1.22,0,2.2.96,2.2,2.2s-.99,2.25-2.2,2.25-2.2-.99-2.2-2.25.99-2.2,2.2-2.2ZM50.34,116.78c1.01,0,1.83-.83,1.83-1.9s-.82-1.85-1.83-1.85-1.83.8-1.83,1.85.82,1.9,1.83,1.9Z"/>
    <path class="cls-4" d="M53.73,112.78h.36v.75c0,.2-.03.35-.03.35h.02c.21-.64.97-1.2,1.63-1.2.85,0,1.25.4,1.34,1.16h.02c.24-.6.88-1.16,1.62-1.16,1.1,0,1.42.65,1.42,1.66v2.69h-.36v-2.57c0-.8-.16-1.45-1.06-1.45-.71,0-1.31.63-1.5,1.29-.06.2-.08.41-.08.65v2.07h-.36v-2.57c0-.73-.1-1.45-1.04-1.45-.76,0-1.35.66-1.55,1.37-.05.18-.07.37-.07.58v2.07h-.36v-4.25Z"/>
    <path class="cls-4" d="M65.65,112.67c1.16,0,1.73.91,1.73,1.94,0,.09-.02.23-.02.23h-3.41c0,1.23.83,1.94,1.82,1.94.82,0,1.32-.54,1.32-.54l.2.3s-.6.59-1.51.59c-1.2,0-2.19-.87-2.19-2.22,0-1.44.98-2.24,2.07-2.24ZM67.01,114.51c-.04-1.04-.66-1.5-1.37-1.5-.78,0-1.5.51-1.66,1.5h3.03Z"/>
    <path class="cls-4" d="M68.58,112.78h.36v.75c0,.2-.03.35-.03.35h.02c.14-.4.74-1.2,1.8-1.2s1.4.65,1.4,1.66v2.69h-.36v-2.57c0-.74-.09-1.44-1.05-1.44-.8,0-1.5.56-1.72,1.35-.05.18-.07.37-.07.58v2.07h-.36v-4.25Z"/>
    <path class="cls-4" d="M75.19,112.67c1.07,0,1.47.96,1.47.96h.02s-.03-.15-.03-.35v-2.21h.36v5.95h-.36v-.54c0-.2.03-.32.03-.32h-.02s-.37.96-1.54.96-1.84-.91-1.84-2.23.79-2.23,1.9-2.23ZM75.14,116.78c.78,0,1.51-.55,1.51-1.89,0-.94-.48-1.87-1.48-1.87-.83,0-1.51.69-1.51,1.88s.61,1.88,1.48,1.88Z"/>
    <path class="cls-4" d="M80.38,112.67c1.21,0,2.2.96,2.2,2.2s-.99,2.25-2.2,2.25-2.2-.99-2.2-2.25.99-2.2,2.2-2.2ZM80.38,116.78c1.01,0,1.83-.83,1.83-1.9s-.82-1.85-1.83-1.85-1.83.8-1.83,1.85.82,1.9,1.83,1.9Z"/>
    <path class="cls-4" d="M83.2,112.78h.38l1.16,3.33c.07.2.14.46.14.46h.02s.08-.25.14-.46l1.16-3.31h.4l1.16,3.31c.07.2.14.46.14.46h.02s.07-.25.14-.46l1.16-3.33h.38l-1.5,4.25h-.38l-1.18-3.3c-.08-.2-.14-.46-.14-.46h-.02s-.07.25-.14.46l-1.17,3.3h-.38l-1.5-4.25Z"/>
    <path class="cls-4" d="M90.54,112.78h.36v.75c0,.2-.03.35-.03.35h.02c.21-.64.97-1.2,1.63-1.2.85,0,1.25.4,1.34,1.16h.02c.24-.6.88-1.16,1.61-1.16,1.1,0,1.42.65,1.42,1.66v2.69h-.36v-2.57c0-.8-.16-1.45-1.06-1.45-.71,0-1.31.63-1.5,1.29-.06.2-.08.41-.08.65v2.07h-.36v-2.57c0-.73-.1-1.45-1.04-1.45-.76,0-1.35.66-1.55,1.37-.05.18-.07.37-.07.58v2.07h-.36v-4.25Z"/>
    <path class="cls-4" d="M100.11,112.67c1.16,0,1.73.91,1.73,1.94,0,.09-.02.23-.02.23h-3.41c0,1.23.83,1.94,1.82,1.94.82,0,1.32-.54,1.32-.54l.2.3s-.6.59-1.51.59c-1.2,0-2.19-.87-2.19-2.22,0-1.44.98-2.24,2.07-2.24ZM101.47,114.51c-.04-1.04-.66-1.5-1.37-1.5-.78,0-1.5.51-1.66,1.5h3.03Z"/>
    <path class="cls-4" d="M103.04,112.78h.36v.75c0,.2-.03.35-.03.35h.02c.14-.4.74-1.2,1.8-1.2s1.4.65,1.4,1.66v2.69h-.36v-2.57c0-.74-.09-1.44-1.04-1.44-.8,0-1.5.56-1.72,1.35-.05.18-.07.37-.07.58v2.07h-.36v-4.25Z"/>
    <path class="cls-4" d="M108.16,113.13h-.56v-.32h.56v-1.21h.36v1.21h1.11v.32h-1.11v2.34c0,1.12.67,1.27,1.01,1.27.12,0,.2-.02.2-.02v.33s-.08.02-.21.02c-.44,0-1.35-.16-1.35-1.57v-2.36Z"/>
    <path class="cls-4" d="M110.56,116.24s.48.54,1.32.54c.52,0,.98-.27.98-.8,0-1.08-2.34-.77-2.34-2.16,0-.76.64-1.15,1.36-1.15.87,0,1.26.46,1.26.46l-.21.29s-.35-.4-1.07-.4c-.48,0-.96.22-.96.77,0,1.1,2.34.77,2.34,2.18,0,.68-.58,1.15-1.36,1.15-1.03,0-1.54-.61-1.54-.61l.23-.27Z"/>
    <path class="cls-4" d="M114.48,116.51h.48l-.57,1.32h-.36l.45-1.32Z"/>
  </g>
  <path class="cls-4" d="M9.93,125.13h-.54v-.32h.54v-.2c0-1.4.92-1.57,1.34-1.57.14,0,.22.02.22.02v.33s-.08-.02-.2-.02c-.34,0-1.01.14-1.01,1.23v.2h1.16v.32h-1.16v3.9h-.36v-3.9ZM14.18,124.68c1.22,0,2.2.96,2.2,2.2s-.99,2.25-2.2,2.25-2.2-.99-2.2-2.25.99-2.2,2.2-2.2ZM14.18,128.78c1.01,0,1.83-.82,1.83-1.9s-.82-1.85-1.83-1.85-1.83.8-1.83,1.85.82,1.9,1.83,1.9ZM17.51,124.78h.36v2.57c0,.74.09,1.44,1.05,1.44,1.06,0,1.74-.93,1.74-1.93v-2.07h.36v4.25h-.36v-.75c0-.2.03-.35.03-.35h-.02c-.14.4-.73,1.2-1.76,1.2s-1.4-.58-1.4-1.66v-2.69ZM22.51,124.78h.36v.75c0,.2-.03.35-.03.35h.02c.14-.4.74-1.2,1.8-1.2s1.4.65,1.4,1.66v2.69h-.36v-2.57c0-.74-.09-1.44-1.05-1.44-.8,0-1.5.56-1.72,1.35-.05.18-.07.37-.07.58v2.07h-.36v-4.25ZM29.11,124.68c1.07,0,1.47.96,1.47.96h.02s-.03-.15-.03-.35v-2.21h.36v5.95h-.36v-.54c0-.2.03-.32.03-.32h-.02s-.37.96-1.54.96-1.84-.91-1.84-2.23.79-2.23,1.9-2.23ZM29.06,128.78c.78,0,1.51-.55,1.51-1.89,0-.94-.48-1.87-1.48-1.87-.83,0-1.51.69-1.51,1.88s.61,1.88,1.48,1.88ZM34.7,126.44h.28v-.14c0-.94-.48-1.27-1.16-1.27-.74,0-1.22.41-1.22.41l-.2-.29s.51-.47,1.44-.47c.98,0,1.5.54,1.5,1.61v2.75h-.36v-.56c0-.23.03-.38.03-.38h-.02s-.38,1.05-1.49,1.05c-.69,0-1.44-.38-1.44-1.23,0-1.44,1.88-1.46,2.63-1.46ZM33.53,128.8c.93,0,1.45-.96,1.45-1.8v-.23h-.27c-.72,0-2.27,0-2.27,1.1,0,.45.37.93,1.09.93ZM36.89,125.13h-.56v-.32h.56v-1.21h.36v1.21h1.11v.32h-1.11v2.34c0,1.12.67,1.27,1.01,1.27.12,0,.2-.02.2-.02v.33s-.08.02-.21.02c-.44,0-1.35-.16-1.35-1.57v-2.36ZM39.39,123.08h.42v.62h-.42v-.62ZM39.42,124.78h.36v4.25h-.36v-4.25ZM43.16,124.68c1.22,0,2.2.96,2.2,2.2s-.99,2.25-2.2,2.25-2.2-.99-2.2-2.25.99-2.2,2.2-2.2ZM43.16,128.78c1.01,0,1.83-.82,1.83-1.9s-.82-1.85-1.83-1.85-1.83.8-1.83,1.85.82,1.9,1.83,1.9ZM46.54,124.78h.36v.75c0,.2-.03.35-.03.35h.02c.14-.4.74-1.2,1.8-1.2s1.4.65,1.4,1.66v2.69h-.36v-2.57c0-.74-.09-1.44-1.05-1.44-.8,0-1.5.56-1.72,1.35-.05.18-.07.37-.07.58v2.07h-.36v-4.25ZM51.39,128.25s.48.54,1.32.54c.52,0,.98-.27.98-.8,0-1.08-2.34-.77-2.34-2.16,0-.76.64-1.15,1.36-1.15.87,0,1.26.46,1.26.46l-.21.29s-.35-.4-1.07-.4c-.48,0-.96.22-.96.77,0,1.1,2.34.77,2.34,2.18,0,.68-.58,1.15-1.36,1.15-1.03,0-1.54-.61-1.54-.61l.23-.27ZM55.32,128.51h.48l-.57,1.32h-.36l.45-1.32ZM59.81,125.13h-.54v-.32h.54v-.2c0-1.4.92-1.57,1.34-1.57.14,0,.22.02.22.02v.33s-.08-.02-.2-.02c-.34,0-1.01.14-1.01,1.23v.2h1.16v.32h-1.16v3.9h-.36v-3.9ZM64.51,126.44h.28v-.14c0-.94-.48-1.27-1.16-1.27-.74,0-1.22.41-1.22.41l-.2-.29s.51-.47,1.44-.47c.98,0,1.5.54,1.5,1.61v2.75h-.36v-.56c0-.23.03-.38.03-.38h-.02s-.38,1.05-1.49,1.05c-.69,0-1.44-.38-1.44-1.23,0-1.44,1.88-1.46,2.63-1.46ZM63.34,128.8c.93,0,1.45-.96,1.45-1.8v-.23h-.27c-.72,0-2.27,0-2.27,1.1,0,.45.37.93,1.09.93ZM66.59,124.78h.36v.75c0,.2-.03.35-.03.35h.02c.21-.64.97-1.2,1.63-1.2.85,0,1.25.4,1.34,1.16h.02c.24-.59.88-1.16,1.61-1.16,1.1,0,1.42.65,1.42,1.66v2.69h-.36v-2.57c0-.8-.16-1.45-1.06-1.45-.71,0-1.31.63-1.5,1.29-.06.2-.08.41-.08.65v2.07h-.36v-2.57c0-.73-.1-1.45-1.04-1.45-.76,0-1.35.66-1.55,1.37-.05.18-.07.37-.07.58v2.07h-.36v-4.25ZM74.36,123.08h.42v.62h-.42v-.62ZM74.39,124.78h.36v4.25h-.36v-4.25ZM76.2,123.08h.36v4.98c0,.59.31.66.5.66.07,0,.13,0,.13,0v.33s-.08.02-.15.02c-.25,0-.83-.09-.83-.89v-5.09ZM77.68,130.27s.24.2.53.2c.41,0,.66-.37.83-.76l.31-.71-1.76-4.22h.38l1.4,3.39c.08.2.15.4.15.4h.02s.06-.2.14-.4l1.4-3.39h.38l-2.18,5.24c-.19.44-.54.79-1.08.79-.41,0-.69-.24-.69-.24l.16-.31ZM86.6,124.68c1.22,0,2.2.96,2.2,2.2s-.99,2.25-2.2,2.25-2.2-.99-2.2-2.25.99-2.2,2.2-2.2ZM86.6,128.78c1.01,0,1.83-.82,1.83-1.9s-.82-1.85-1.83-1.85-1.83.8-1.83,1.85.82,1.9,1.83,1.9ZM95.14,125.1h-2.06v3.93h-.36v-3.93h-2.24v3.93h-.36v-3.93h-.54v-.32h.54v-.17c0-1.4.92-1.57,1.34-1.57.14,0,.22.02.22.02v.33s-.08-.02-.2-.02c-.34,0-1.01.14-1.01,1.23v.18h2.24v-.17c0-1.4.92-1.57,1.34-1.57.14,0,.22.02.22.02v.33s-.08-.02-.2-.02c-.34,0-1.01.14-1.01,1.23v.18h2.41v4.25h-.36v-3.93ZM95.1,123.08h.42v.62h-.42v-.62ZM98.89,124.68c1.01,0,1.52.6,1.52.6l-.22.29s-.48-.54-1.3-.54c-.99,0-1.82.74-1.82,1.89s.82,1.87,1.82,1.87c.93,0,1.42-.61,1.42-.61l.19.3s-.55.66-1.61.66c-1.2,0-2.19-.87-2.19-2.22s1.01-2.24,2.19-2.24ZM103.42,124.68c1.16,0,1.73.91,1.73,1.94,0,.09-.02.23-.02.23h-3.41c0,1.23.83,1.94,1.82,1.94.82,0,1.32-.54,1.32-.54l.2.3s-.59.59-1.51.59c-1.2,0-2.19-.87-2.19-2.22,0-1.44.98-2.24,2.07-2.24ZM104.78,126.51c-.04-1.04-.66-1.5-1.37-1.5-.78,0-1.5.51-1.66,1.5h3.03ZM106.21,128.25s.48.54,1.32.54c.52,0,.98-.27.98-.8,0-1.08-2.34-.77-2.34-2.16,0-.76.64-1.15,1.36-1.15.87,0,1.26.46,1.26.46l-.21.29s-.35-.4-1.07-.4c-.48,0-.96.22-.96.77,0,1.1,2.34.77,2.34,2.18,0,.68-.58,1.15-1.36,1.15-1.03,0-1.54-.61-1.54-.61l.23-.27ZM114.7,126.44h.28v-.14c0-.94-.48-1.27-1.16-1.27-.74,0-1.22.41-1.22.41l-.2-.29s.51-.47,1.44-.47c.98,0,1.5.54,1.5,1.61v2.75h-.36v-.56c0-.23.03-.38.03-.38h-.02s-.38,1.05-1.49,1.05c-.69,0-1.44-.38-1.44-1.23,0-1.44,1.88-1.46,2.63-1.46ZM113.52,128.8c.93,0,1.45-.96,1.45-1.8v-.23h-.27c-.72,0-2.27,0-2.27,1.1,0,.45.37.93,1.09.93ZM116.77,124.78h.36v.75c0,.2-.03.35-.03.35h.02c.14-.4.74-1.2,1.8-1.2s1.4.65,1.4,1.66v2.69h-.36v-2.57c0-.74-.09-1.44-1.05-1.44-.8,0-1.5.56-1.72,1.35-.05.18-.07.37-.07.58v2.07h-.36v-4.25ZM123.38,124.68c1.07,0,1.47.96,1.47.96h.02s-.03-.15-.03-.35v-2.21h.36v5.95h-.36v-.54c0-.2.03-.32.03-.32h-.02s-.37.96-1.54.96-1.84-.91-1.84-2.23.79-2.23,1.9-2.23ZM123.32,128.78c.78,0,1.51-.55,1.51-1.89,0-.94-.48-1.87-1.48-1.87-.83,0-1.51.69-1.51,1.88s.61,1.88,1.48,1.88Z"/>
  <g>
    <path class="cls-4" d="M9.71,135.08h.42v.62h-.42v-.62ZM9.75,136.78h.36v4.25h-.36v-4.25Z"/>
    <path class="cls-4" d="M11.6,136.78h.36v.75c0,.2-.03.35-.03.35h.02c.14-.4.74-1.2,1.8-1.2s1.4.65,1.4,1.66v2.69h-.36v-2.57c0-.74-.09-1.44-1.05-1.44-.8,0-1.5.56-1.72,1.35-.05.18-.07.37-.07.58v2.07h-.36v-4.25Z"/>
    <path class="cls-4" d="M16.45,140.25s.48.54,1.32.54c.52,0,.98-.27.98-.8,0-1.08-2.34-.77-2.34-2.16,0-.76.64-1.15,1.36-1.15.87,0,1.26.46,1.26.46l-.21.29s-.35-.4-1.07-.4c-.48,0-.96.22-.96.77,0,1.1,2.34.77,2.34,2.18,0,.68-.58,1.15-1.36,1.15-1.03,0-1.54-.61-1.54-.61l.23-.27Z"/>
    <path class="cls-4" d="M20.42,137.13h-.56v-.32h.56v-1.21h.36v1.21h1.11v.32h-1.11v2.34c0,1.12.67,1.27,1.01,1.27.12,0,.2-.02.2-.02v.33s-.08.02-.21.02c-.44,0-1.35-.16-1.35-1.57v-2.36Z"/>
    <path class="cls-4" d="M22.92,135.08h.42v.62h-.42v-.62ZM22.96,136.78h.36v4.25h-.36v-4.25Z"/>
    <path class="cls-4" d="M24.95,137.13h-.56v-.32h.56v-1.21h.36v1.21h1.11v.32h-1.11v2.34c0,1.12.67,1.27,1.01,1.27.12,0,.2-.02.2-.02v.33s-.08.02-.21.02c-.44,0-1.35-.16-1.35-1.57v-2.36Z"/>
    <path class="cls-4" d="M27.42,136.78h.36v2.57c0,.74.09,1.44,1.05,1.44,1.06,0,1.74-.94,1.74-1.93v-2.07h.36v4.25h-.36v-.75c0-.2.03-.35.03-.35h-.02c-.14.4-.73,1.2-1.76,1.2s-1.4-.58-1.4-1.66v-2.69Z"/>
    <path class="cls-4" d="M32.55,137.13h-.56v-.32h.56v-1.21h.36v1.21h1.11v.32h-1.11v2.34c0,1.12.67,1.27,1.01,1.27.12,0,.2-.02.2-.02v.33s-.08.02-.21.02c-.44,0-1.35-.16-1.35-1.57v-2.36Z"/>
    <path class="cls-4" d="M35.05,135.08h.42v.62h-.42v-.62ZM35.09,136.78h.36v4.25h-.36v-4.25Z"/>
    <path class="cls-4" d="M38.83,136.68c1.22,0,2.2.96,2.2,2.2s-.99,2.25-2.2,2.25-2.2-.99-2.2-2.25.99-2.2,2.2-2.2ZM38.83,140.78c1.01,0,1.83-.83,1.83-1.9s-.82-1.85-1.83-1.85-1.83.8-1.83,1.85.82,1.9,1.83,1.9Z"/>
    <path class="cls-4" d="M42.21,136.78h.36v.75c0,.2-.03.35-.03.35h.02c.14-.4.74-1.2,1.8-1.2s1.4.65,1.4,1.66v2.69h-.36v-2.57c0-.74-.09-1.44-1.04-1.44-.8,0-1.5.56-1.72,1.35-.05.18-.07.37-.07.58v2.07h-.36v-4.25Z"/>
    <path class="cls-4" d="M47.05,140.25s.48.54,1.32.54c.52,0,.98-.27.98-.8,0-1.08-2.34-.77-2.34-2.16,0-.76.64-1.15,1.36-1.15.87,0,1.26.46,1.26.46l-.21.29s-.35-.4-1.07-.4c-.48,0-.96.22-.96.77,0,1.1,2.34.77,2.34,2.18,0,.68-.58,1.15-1.36,1.15-1.03,0-1.54-.61-1.54-.61l.23-.27Z"/>
    <path class="cls-4" d="M50.98,140.51h.48l-.57,1.32h-.36l.45-1.32Z"/>
    <path class="cls-4" d="M54.7,135.08h.39l1.79,4.81c.1.28.23.71.23.71h.02s.13-.43.23-.71l1.8-4.81h.39l-2.23,5.95h-.4l-2.23-5.95Z"/>
    <path class="cls-4" d="M62.56,138.44h.28v-.14c0-.94-.48-1.27-1.16-1.27-.74,0-1.21.41-1.21.41l-.2-.29s.51-.47,1.44-.47c.98,0,1.5.54,1.5,1.61v2.75h-.36v-.56c0-.23.03-.38.03-.38h-.02s-.38,1.04-1.49,1.04c-.69,0-1.45-.38-1.45-1.23,0-1.44,1.88-1.46,2.63-1.46ZM61.38,140.8c.93,0,1.45-.96,1.45-1.8v-.23h-.27c-.72,0-2.27,0-2.27,1.1,0,.45.37.93,1.09.93Z"/>
    <path class="cls-4" d="M64.59,135.08h.36v4.98c0,.59.31.66.5.66.07,0,.13,0,.13,0v.33s-.08.02-.15.02c-.25,0-.83-.09-.83-.89v-5.09Z"/>
    <path class="cls-4" d="M66.55,135.08h.42v.62h-.42v-.62ZM66.59,136.78h.36v4.25h-.36v-4.25Z"/>
    <path class="cls-4" d="M70.73,138.44h.28v-.14c0-.94-.48-1.27-1.16-1.27-.74,0-1.22.41-1.22.41l-.2-.29s.51-.47,1.44-.47c.98,0,1.5.54,1.5,1.61v2.75h-.36v-.56c0-.23.03-.38.03-.38h-.02s-.38,1.04-1.49,1.04c-.69,0-1.44-.38-1.44-1.23,0-1.44,1.88-1.46,2.63-1.46ZM69.55,140.8c.93,0,1.45-.96,1.45-1.8v-.23h-.27c-.72,0-2.27,0-2.27,1.1,0,.45.37.93,1.09.93Z"/>
    <path class="cls-4" d="M72.8,136.78h.36v.75c0,.2-.03.35-.03.35h.02c.14-.4.74-1.2,1.8-1.2s1.4.65,1.4,1.66v2.69h-.36v-2.57c0-.74-.09-1.44-1.04-1.44-.8,0-1.5.56-1.72,1.35-.05.18-.07.37-.07.58v2.07h-.36v-4.25Z"/>
    <path class="cls-4" d="M77.92,137.13h-.56v-.32h.56v-1.21h.36v1.21h1.11v.32h-1.11v2.34c0,1.12.67,1.27,1.01,1.27.12,0,.2-.02.2-.02v.33s-.08.02-.21.02c-.44,0-1.35-.16-1.35-1.57v-2.36Z"/>
    <path class="cls-4" d="M82.8,136.78h.36v.51c0,.2-.03.34-.03.34h.02s.35-.95,1.53-.95,1.83.91,1.83,2.23-.79,2.23-1.89,2.23-1.49-.96-1.49-.96h-.02s.03.15.03.37v2.18h-.36v-5.95ZM84.63,140.78c.83,0,1.51-.69,1.51-1.88s-.61-1.88-1.48-1.88c-.78,0-1.51.55-1.51,1.89,0,.94.53,1.87,1.48,1.87Z"/>
    <path class="cls-4" d="M87.67,136.78h.36v2.57c0,.74.09,1.44,1.05,1.44,1.06,0,1.74-.94,1.74-1.93v-2.07h.36v4.25h-.36v-.75c0-.2.03-.35.03-.35h-.02c-.14.4-.73,1.2-1.76,1.2s-1.4-.58-1.4-1.66v-2.69Z"/>
    <path class="cls-4" d="M92.66,136.78h.36v.81c0,.2-.03.35-.03.35h.02c.21-.65.69-1.19,1.36-1.19.13,0,.25.03.25.03v.36s-.1-.02-.2-.02c-.66,0-1.08.56-1.27,1.19-.09.3-.13.61-.13.89v1.84h-.36v-4.25Z"/>
    <path class="cls-4" d="M95.4,140.25s.48.54,1.32.54c.52,0,.98-.27.98-.8,0-1.08-2.34-.77-2.34-2.16,0-.76.64-1.15,1.36-1.15.87,0,1.26.46,1.26.46l-.21.29s-.35-.4-1.07-.4c-.48,0-.96.22-.96.77,0,1.1,2.34.77,2.34,2.18,0,.68-.58,1.15-1.36,1.15-1.03,0-1.54-.61-1.54-.61l.23-.27Z"/>
    <path class="cls-4" d="M99.18,136.78h.36v2.57c0,.74.09,1.44,1.04,1.44,1.06,0,1.74-.94,1.74-1.93v-2.07h.36v4.25h-.36v-.75c0-.2.03-.35.03-.35h-.02c-.14.4-.73,1.2-1.76,1.2s-1.4-.58-1.4-1.66v-2.69Z"/>
    <path class="cls-4" d="M105.95,136.68c1.16,0,1.73.91,1.73,1.94,0,.09-.02.23-.02.23h-3.41c0,1.23.83,1.94,1.82,1.94.82,0,1.32-.54,1.32-.54l.2.3s-.59.59-1.51.59c-1.2,0-2.19-.87-2.19-2.22,0-1.44.98-2.24,2.06-2.24ZM107.31,138.51c-.04-1.04-.66-1.5-1.37-1.5-.78,0-1.5.51-1.66,1.5h3.03Z"/>
    <path class="cls-4" d="M108.75,140.25s.48.54,1.32.54c.52,0,.98-.27.98-.8,0-1.08-2.34-.77-2.34-2.16,0-.76.64-1.15,1.36-1.15.87,0,1.26.46,1.26.46l-.21.29s-.35-.4-1.07-.4c-.48,0-.96.22-.96.77,0,1.1,2.34.77,2.34,2.18,0,.68-.58,1.15-1.36,1.15-1.03,0-1.54-.61-1.54-.61l.23-.27Z"/>
    <path class="cls-4" d="M114.91,135.08h.42v.62h-.42v-.62ZM114.94,136.78h.36v4.25h-.36v-4.25Z"/>
    <path class="cls-4" d="M116.93,137.13h-.56v-.32h.56v-1.21h.36v1.21h1.11v.32h-1.11v2.34c0,1.12.67,1.27,1.01,1.27.12,0,.2-.02.2-.02v.33s-.08.02-.21.02c-.44,0-1.35-.16-1.35-1.57v-2.36Z"/>
    <path class="cls-4" d="M119.33,140.25s.48.54,1.32.54c.52,0,.98-.27.98-.8,0-1.08-2.34-.77-2.34-2.16,0-.76.64-1.15,1.36-1.15.87,0,1.26.46,1.26.46l-.21.29s-.35-.4-1.07-.4c-.48,0-.96.22-.96.77,0,1.1,2.34.77,2.34,2.18,0,.68-.58,1.15-1.36,1.15-1.03,0-1.54-.61-1.54-.61l.23-.27Z"/>
  </g>
  <g>
    <path class="cls-4" d="M9.71,147.08h.42v.62h-.42v-.62ZM9.75,148.78h.36v4.25h-.36v-4.25Z"/>
    <path class="cls-4" d="M11.6,148.78h.36v.75c0,.2-.03.35-.03.35h.02c.14-.4.74-1.2,1.8-1.2s1.4.65,1.4,1.66v2.69h-.36v-2.57c0-.74-.09-1.44-1.05-1.44-.8,0-1.5.56-1.72,1.35-.05.18-.07.37-.07.58v2.07h-.36v-4.25Z"/>
    <path class="cls-4" d="M15.99,148.78h.38l1.31,3.33c.08.2.14.46.14.46h.02s.07-.25.14-.46l1.31-3.33h.37l-1.67,4.25h-.34l-1.67-4.25Z"/>
    <path class="cls-4" d="M22.34,148.68c1.16,0,1.73.91,1.73,1.94,0,.09-.02.23-.02.23h-3.41c0,1.23.83,1.94,1.82,1.94.82,0,1.32-.54,1.32-.54l.2.3s-.6.59-1.51.59c-1.2,0-2.19-.87-2.19-2.22,0-1.44.98-2.24,2.07-2.24ZM23.7,150.52c-.04-1.04-.66-1.5-1.37-1.5-.78,0-1.5.51-1.66,1.5h3.03Z"/>
    <path class="cls-4" d="M25.13,152.25s.48.54,1.32.54c.52,0,.98-.27.98-.8,0-1.08-2.34-.77-2.34-2.16,0-.76.64-1.15,1.36-1.15.87,0,1.26.46,1.26.46l-.21.29s-.35-.4-1.07-.4c-.48,0-.96.22-.96.77,0,1.1,2.34.77,2.34,2.18,0,.68-.58,1.15-1.36,1.15-1.03,0-1.54-.61-1.54-.61l.23-.27Z"/>
    <path class="cls-4" d="M29.11,149.13h-.56v-.32h.56v-1.21h.36v1.21h1.11v.32h-1.11v2.34c0,1.12.67,1.27,1.01,1.27.12,0,.2-.02.2-.02v.33s-.08.02-.21.02c-.44,0-1.35-.16-1.35-1.57v-2.36Z"/>
    <path class="cls-4" d="M31.64,148.78h.36v.75c0,.2-.03.35-.03.35h.02c.21-.64.97-1.2,1.63-1.2.85,0,1.25.4,1.34,1.16h.02c.24-.6.88-1.16,1.62-1.16,1.1,0,1.42.65,1.42,1.66v2.69h-.36v-2.57c0-.8-.16-1.45-1.06-1.45-.71,0-1.31.63-1.5,1.29-.06.2-.08.41-.08.65v2.07h-.36v-2.57c0-.73-.1-1.45-1.04-1.45-.76,0-1.35.66-1.55,1.37-.05.18-.07.37-.07.58v2.07h-.36v-4.25Z"/>
    <path class="cls-4" d="M41.21,148.68c1.16,0,1.73.91,1.73,1.94,0,.09-.02.23-.02.23h-3.41c0,1.23.83,1.94,1.82,1.94.82,0,1.32-.54,1.32-.54l.2.3s-.59.59-1.51.59c-1.2,0-2.19-.87-2.19-2.22,0-1.44.98-2.24,2.06-2.24ZM42.57,150.52c-.04-1.04-.66-1.5-1.37-1.5-.78,0-1.5.51-1.66,1.5h3.03Z"/>
    <path class="cls-4" d="M44.15,148.78h.36v.75c0,.2-.03.35-.03.35h.02c.14-.4.74-1.2,1.8-1.2s1.4.65,1.4,1.66v2.69h-.36v-2.57c0-.74-.09-1.44-1.05-1.44-.8,0-1.5.56-1.72,1.35-.05.18-.07.37-.07.58v2.07h-.36v-4.25Z"/>
    <path class="cls-4" d="M49.26,149.13h-.56v-.32h.56v-1.21h.36v1.21h1.11v.32h-1.11v2.34c0,1.12.67,1.27,1.01,1.27.12,0,.2-.02.2-.02v.33s-.08.02-.21.02c-.44,0-1.35-.16-1.35-1.57v-2.36Z"/>
    <path class="cls-4" d="M55.55,154.47c.91,0,1.61-.43,1.61-1.46v-.49c0-.2.03-.35.03-.35h-.02c-.25.52-.72.87-1.43.87-1.11,0-1.89-.87-1.89-2.19s.72-2.16,1.83-2.16c1.21,0,1.48.83,1.48.83h.02s-.03-.06-.03-.16v-.57h.36v4.22c0,1.3-.94,1.81-1.95,1.81-.47,0-.92-.12-1.33-.33l.17-.31s.53.3,1.14.3ZM57.18,150.84c0-1.37-.65-1.81-1.48-1.81-.91,0-1.45.66-1.45,1.81s.63,1.84,1.54,1.84c.75,0,1.39-.47,1.39-1.84Z"/>
    <path class="cls-4" d="M60.91,148.68c1.22,0,2.2.96,2.2,2.2s-.99,2.25-2.2,2.25-2.2-.99-2.2-2.25.99-2.2,2.2-2.2ZM60.91,152.79c1.01,0,1.83-.83,1.83-1.9s-.82-1.85-1.83-1.85-1.83.8-1.83,1.85.82,1.9,1.83,1.9Z"/>
    <path class="cls-4" d="M66.58,150.44h.28v-.14c0-.94-.48-1.27-1.16-1.27-.74,0-1.22.41-1.22.41l-.2-.29s.51-.47,1.44-.47c.98,0,1.5.54,1.5,1.61v2.75h-.36v-.56c0-.23.03-.38.03-.38h-.02s-.38,1.04-1.49,1.04c-.69,0-1.44-.38-1.44-1.23,0-1.44,1.88-1.46,2.63-1.46ZM65.41,152.8c.93,0,1.45-.96,1.45-1.8v-.23h-.27c-.72,0-2.27,0-2.27,1.1,0,.45.37.93,1.09.93Z"/>
    <path class="cls-4" d="M68.61,147.08h.36v4.98c0,.59.31.66.5.66.07,0,.13,0,.13,0v.33s-.08.02-.15.02c-.25,0-.83-.09-.83-.89v-5.09Z"/>
    <path class="cls-4" d="M74.85,148.68c1.21,0,2.2.96,2.2,2.2s-.99,2.25-2.2,2.25-2.2-.99-2.2-2.25.99-2.2,2.2-2.2ZM74.85,152.79c1.01,0,1.83-.83,1.83-1.9s-.82-1.85-1.83-1.85-1.83.8-1.83,1.85.82,1.9,1.83,1.9Z"/>
    <path class="cls-4" d="M78.38,149.13h-.54v-.32h.54v-.2c0-1.4.92-1.57,1.34-1.57.14,0,.22.02.22.02v.33s-.08-.02-.2-.02c-.34,0-1.01.14-1.01,1.23v.2h1.16v.32h-1.16v3.9h-.36v-3.9Z"/>
    <path class="cls-4" d="M85.44,150.44h.28v-.14c0-.94-.48-1.27-1.16-1.27-.74,0-1.21.41-1.21.41l-.2-.29s.51-.47,1.44-.47c.98,0,1.5.54,1.5,1.61v2.75h-.36v-.56c0-.23.03-.38.03-.38h-.02s-.38,1.04-1.49,1.04c-.69,0-1.45-.38-1.45-1.23,0-1.44,1.88-1.46,2.63-1.46ZM84.27,152.8c.93,0,1.45-.96,1.45-1.8v-.23h-.27c-.72,0-2.27,0-2.27,1.1,0,.45.37.93,1.09.93Z"/>
    <path class="cls-4" d="M89.41,148.68c1.01,0,1.52.6,1.52.6l-.22.29s-.49-.54-1.3-.54c-.99,0-1.82.74-1.82,1.89s.83,1.87,1.82,1.87c.93,0,1.42-.61,1.42-.61l.19.3s-.55.66-1.61.66c-1.2,0-2.19-.87-2.19-2.22s1.01-2.24,2.19-2.24Z"/>
    <path class="cls-4" d="M92.2,147.08h.36v2.45c0,.2-.03.35-.03.35h.02c.14-.4.74-1.2,1.8-1.2s1.4.65,1.4,1.66v2.69h-.36v-2.57c0-.74-.09-1.44-1.05-1.44-.8,0-1.5.56-1.72,1.35-.05.18-.07.37-.07.58v2.07h-.36v-5.95Z"/>
    <path class="cls-4" d="M97.14,147.08h.42v.62h-.42v-.62ZM97.18,148.78h.36v4.25h-.36v-4.25Z"/>
    <path class="cls-4" d="M100.8,148.68c1.16,0,1.73.91,1.73,1.94,0,.09-.02.23-.02.23h-3.41c0,1.23.83,1.94,1.82,1.94.82,0,1.32-.54,1.32-.54l.2.3s-.59.59-1.51.59c-1.2,0-2.19-.87-2.19-2.22,0-1.44.98-2.24,2.06-2.24ZM102.16,150.52c-.04-1.04-.66-1.5-1.37-1.5-.78,0-1.5.51-1.66,1.5h3.03Z"/>
    <path class="cls-4" d="M103.14,148.78h.38l1.31,3.33c.08.2.14.46.14.46h.02s.07-.25.14-.46l1.31-3.33h.37l-1.67,4.25h-.34l-1.67-4.25Z"/>
    <path class="cls-4" d="M107.68,147.08h.42v.62h-.42v-.62ZM107.72,148.78h.36v4.25h-.36v-4.25Z"/>
    <path class="cls-4" d="M109.57,148.78h.36v.75c0,.2-.03.35-.03.35h.02c.14-.4.74-1.2,1.8-1.2s1.4.65,1.4,1.66v2.69h-.36v-2.57c0-.74-.09-1.44-1.04-1.44-.8,0-1.5.56-1.72,1.35-.05.18-.07.37-.07.58v2.07h-.36v-4.25Z"/>
    <path class="cls-4" d="M115.95,154.47c.91,0,1.62-.43,1.62-1.46v-.49c0-.2.03-.35.03-.35h-.02c-.25.52-.72.87-1.43.87-1.1,0-1.89-.87-1.89-2.19s.72-2.16,1.83-2.16c1.21,0,1.48.83,1.48.83h.02s-.03-.06-.03-.16v-.57h.36v4.22c0,1.3-.93,1.81-1.95,1.81-.47,0-.92-.12-1.33-.33l.17-.31s.53.3,1.14.3ZM117.58,150.84c0-1.37-.65-1.81-1.48-1.81-.91,0-1.45.66-1.45,1.81s.63,1.84,1.54,1.84c.75,0,1.39-.47,1.39-1.84Z"/>
  </g>
  <g>
    <path class="cls-4" d="M11.52,160.68c1.16,0,1.73.91,1.73,1.94,0,.09-.02.23-.02.23h-3.41c0,1.23.83,1.94,1.82,1.94.82,0,1.32-.54,1.32-.54l.2.3s-.6.59-1.51.59c-1.2,0-2.19-.87-2.19-2.22,0-1.44.98-2.24,2.07-2.24ZM12.88,162.52c-.04-1.04-.66-1.5-1.37-1.5-.78,0-1.5.51-1.66,1.5h3.03Z"/>
    <path class="cls-4" d="M15.48,162.79l-1.37-2.01h.43l1.03,1.55c.07.11.14.24.14.24h.02s.08-.13.14-.24l1.03-1.55h.43l-1.37,2.01,1.53,2.24h-.44l-1.17-1.76c-.08-.12-.15-.25-.15-.25h-.02s-.07.12-.15.25l-1.17,1.76h-.44l1.53-2.24Z"/>
    <path class="cls-4" d="M20.34,160.68c1.01,0,1.52.6,1.52.6l-.22.29s-.48-.54-1.3-.54c-.99,0-1.82.74-1.82,1.89s.82,1.87,1.82,1.87c.94,0,1.42-.61,1.42-.61l.19.3s-.55.66-1.61.66c-1.2,0-2.19-.87-2.19-2.22s1.01-2.24,2.19-2.24Z"/>
    <path class="cls-4" d="M24.88,160.68c1.16,0,1.73.91,1.73,1.94,0,.09-.02.23-.02.23h-3.41c0,1.23.83,1.94,1.82,1.94.82,0,1.32-.54,1.32-.54l.2.3s-.59.59-1.51.59c-1.2,0-2.19-.87-2.19-2.22,0-1.44.98-2.24,2.06-2.24ZM26.24,162.52c-.04-1.04-.66-1.5-1.37-1.5-.78,0-1.5.51-1.66,1.5h3.03Z"/>
    <path class="cls-4" d="M27.81,160.79h.36v.51c0,.2-.03.34-.03.34h.02s.35-.95,1.53-.95,1.84.91,1.84,2.23-.79,2.23-1.89,2.23-1.49-.96-1.49-.96h-.02s.03.15.03.37v2.18h-.36v-5.95ZM29.64,164.79c.83,0,1.51-.69,1.51-1.88s-.61-1.88-1.48-1.88c-.78,0-1.51.55-1.51,1.89,0,.94.53,1.87,1.48,1.87Z"/>
    <path class="cls-4" d="M32.87,161.13h-.56v-.32h.56v-1.21h.36v1.21h1.11v.32h-1.11v2.34c0,1.12.67,1.27,1.01,1.27.12,0,.2-.02.2-.02v.33s-.08.02-.21.02c-.44,0-1.35-.16-1.35-1.57v-2.36Z"/>
    <path class="cls-4" d="M35.37,159.09h.42v.62h-.42v-.62ZM35.4,160.79h.36v4.25h-.36v-4.25Z"/>
    <path class="cls-4" d="M39.14,160.68c1.22,0,2.2.96,2.2,2.2s-.99,2.25-2.2,2.25-2.2-.99-2.2-2.25.99-2.2,2.2-2.2ZM39.14,164.79c1.01,0,1.83-.83,1.83-1.9s-.82-1.85-1.83-1.85-1.83.8-1.83,1.85.82,1.9,1.83,1.9Z"/>
    <path class="cls-4" d="M42.52,160.79h.36v.75c0,.2-.03.35-.03.35h.02c.14-.4.74-1.2,1.8-1.2s1.4.65,1.4,1.66v2.69h-.36v-2.57c0-.74-.09-1.44-1.04-1.44-.8,0-1.5.56-1.72,1.35-.05.18-.07.37-.07.58v2.07h-.36v-4.25Z"/>
    <path class="cls-4" d="M49.79,162.44h.28v-.14c0-.94-.48-1.27-1.16-1.27-.74,0-1.21.41-1.21.41l-.2-.29s.51-.47,1.44-.47c.98,0,1.5.54,1.5,1.61v2.75h-.36v-.56c0-.23.03-.38.03-.38h-.02s-.38,1.04-1.49,1.04c-.69,0-1.45-.38-1.45-1.23,0-1.44,1.88-1.46,2.63-1.46ZM48.62,164.81c.93,0,1.45-.96,1.45-1.8v-.23h-.27c-.72,0-2.27,0-2.27,1.1,0,.45.37.93,1.09.93Z"/>
    <path class="cls-4" d="M51.82,159.09h.36v4.98c0,.59.31.66.5.66.07,0,.13,0,.13,0v.33s-.08.02-.15.02c-.25,0-.83-.09-.83-.89v-5.09Z"/>
    <path class="cls-4" d="M56.17,160.79h.36v.81c0,.2-.03.35-.03.35h.02c.21-.65.69-1.19,1.36-1.19.13,0,.25.03.25.03v.36s-.1-.02-.2-.02c-.66,0-1.08.56-1.27,1.19-.09.3-.13.61-.13.89v1.84h-.36v-4.25Z"/>
    <path class="cls-4" d="M59.01,159.09h.42v.62h-.42v-.62ZM59.05,160.79h.36v4.25h-.36v-4.25Z"/>
    <path class="cls-4" d="M60.76,164.25s.48.54,1.32.54c.52,0,.98-.27.98-.8,0-1.08-2.34-.77-2.34-2.16,0-.76.64-1.15,1.36-1.15.87,0,1.26.46,1.26.46l-.21.29s-.35-.4-1.07-.4c-.48,0-.96.22-.96.77,0,1.1,2.34.77,2.34,2.18,0,.68-.58,1.15-1.36,1.15-1.03,0-1.54-.61-1.54-.61l.23-.27Z"/>
    <path class="cls-4" d="M64.61,159.09h.36v3.37h.76l1.38-1.67h.47l-1.54,1.83v.02l1.68,2.41h-.45l-1.54-2.24h-.76v2.24h-.36v-5.95Z"/>
    <path class="cls-4" d="M68.28,162.46h2.35v.34h-2.35v-.34Z"/>
    <path class="cls-4" d="M74,162.44h.28v-.14c0-.94-.48-1.27-1.16-1.27-.74,0-1.22.41-1.22.41l-.2-.29s.51-.47,1.44-.47c.98,0,1.5.54,1.5,1.61v2.75h-.36v-.56c0-.23.03-.38.03-.38h-.02s-.38,1.04-1.49,1.04c-.69,0-1.44-.38-1.44-1.23,0-1.44,1.88-1.46,2.63-1.46ZM72.83,164.81c.93,0,1.45-.96,1.45-1.8v-.23h-.27c-.72,0-2.27,0-2.27,1.1,0,.45.37.93,1.09.93Z"/>
    <path class="cls-4" d="M77.7,160.68c1.07,0,1.47.96,1.47.96h.02s-.03-.15-.03-.35v-2.21h.36v5.95h-.36v-.54c0-.2.03-.32.03-.32h-.02s-.37.96-1.54.96-1.84-.91-1.84-2.23.79-2.23,1.9-2.23ZM77.64,164.79c.78,0,1.51-.55,1.51-1.89,0-.94-.48-1.87-1.48-1.87-.83,0-1.51.69-1.51,1.88s.61,1.88,1.48,1.88Z"/>
    <path class="cls-4" d="M81.36,160.79v4.42c0,1.41-.92,1.57-1.35,1.57-.13,0-.21-.02-.21-.02v-.33s.08.02.19.02c.34,0,1.02-.14,1.02-1.23v-4.43h.36ZM80.97,159.09h.42v.62h-.42v-.62Z"/>
    <path class="cls-4" d="M82.8,160.79h.36v2.57c0,.74.09,1.44,1.04,1.44,1.06,0,1.74-.94,1.74-1.93v-2.07h.36v4.25h-.36v-.75c0-.2.03-.35.03-.35h-.02c-.14.4-.73,1.2-1.76,1.2s-1.4-.58-1.4-1.66v-2.69Z"/>
    <path class="cls-4" d="M87.66,164.25s.48.54,1.32.54c.52,0,.98-.27.98-.8,0-1.08-2.34-.77-2.34-2.16,0-.76.64-1.15,1.36-1.15.87,0,1.26.46,1.26.46l-.21.29s-.35-.4-1.07-.4c-.48,0-.96.22-.96.77,0,1.1,2.34.77,2.34,2.18,0,.68-.58,1.15-1.36,1.15-1.03,0-1.54-.61-1.54-.61l.23-.27Z"/>
    <path class="cls-4" d="M91.63,161.13h-.56v-.32h.56v-1.21h.36v1.21h1.11v.32h-1.11v2.34c0,1.12.67,1.27,1.01,1.27.12,0,.2-.02.2-.02v.33s-.08.02-.21.02c-.44,0-1.35-.16-1.35-1.57v-2.36Z"/>
    <path class="cls-4" d="M95.94,160.68c1.16,0,1.73.91,1.73,1.94,0,.09-.02.23-.02.23h-3.41c0,1.23.83,1.94,1.82,1.94.82,0,1.32-.54,1.32-.54l.2.3s-.59.59-1.51.59c-1.2,0-2.19-.87-2.19-2.22,0-1.44.98-2.24,2.06-2.24ZM97.3,162.52c-.04-1.04-.66-1.5-1.37-1.5-.78,0-1.5.51-1.66,1.5h3.03Z"/>
    <path class="cls-4" d="M100.49,160.68c1.07,0,1.47.96,1.47.96h.02s-.03-.15-.03-.35v-2.21h.36v5.95h-.36v-.54c0-.2.03-.32.03-.32h-.02s-.37.96-1.54.96-1.84-.91-1.84-2.23.79-2.23,1.9-2.23ZM100.44,164.79c.78,0,1.51-.55,1.51-1.89,0-.94-.48-1.87-1.48-1.87-.83,0-1.51.69-1.51,1.88s.61,1.88,1.48,1.88Z"/>
    <path class="cls-4" d="M106.15,160.79h.36v.81c0,.2-.03.35-.03.35h.02c.21-.65.69-1.19,1.36-1.19.13,0,.25.03.25.03v.36s-.1-.02-.2-.02c-.66,0-1.08.56-1.27,1.19-.09.3-.13.61-.13.89v1.84h-.36v-4.25Z"/>
    <path class="cls-4" d="M110.7,160.68c1.16,0,1.73.91,1.73,1.94,0,.09-.02.23-.02.23h-3.41c0,1.23.83,1.94,1.82,1.94.82,0,1.32-.54,1.32-.54l.2.3s-.6.59-1.51.59c-1.2,0-2.19-.87-2.19-2.22,0-1.44.98-2.24,2.07-2.24ZM112.06,162.52c-.04-1.04-.66-1.5-1.37-1.5-.78,0-1.5.51-1.66,1.5h3.03Z"/>
    <path class="cls-4" d="M113.77,161.13h-.56v-.32h.56v-1.21h.36v1.21h1.11v.32h-1.11v2.34c0,1.12.67,1.27,1.01,1.27.12,0,.2-.02.2-.02v.33s-.08.02-.21.02c-.44,0-1.35-.16-1.35-1.57v-2.36Z"/>
    <path class="cls-4" d="M116.24,160.79h.36v2.57c0,.74.09,1.44,1.04,1.44,1.06,0,1.74-.94,1.74-1.93v-2.07h.36v4.25h-.36v-.75c0-.2.03-.35.03-.35h-.02c-.14.4-.73,1.2-1.76,1.2s-1.4-.58-1.4-1.66v-2.69Z"/>
    <path class="cls-4" d="M121.24,160.79h.36v.81c0,.2-.03.35-.03.35h.02c.21-.65.69-1.19,1.36-1.19.13,0,.25.03.25.03v.36s-.1-.02-.2-.02c-.66,0-1.08.56-1.27,1.19-.09.3-.13.61-.13.89v1.84h-.36v-4.25Z"/>
    <path class="cls-4" d="M124.11,160.79h.36v.75c0,.2-.03.35-.03.35h.02c.14-.4.74-1.2,1.8-1.2s1.4.65,1.4,1.66v2.69h-.36v-2.57c0-.74-.09-1.44-1.04-1.44-.8,0-1.5.56-1.72,1.35-.05.18-.07.37-.07.58v2.07h-.36v-4.25Z"/>
    <path class="cls-4" d="M128.96,164.25s.48.54,1.32.54c.52,0,.98-.27.98-.8,0-1.08-2.34-.77-2.34-2.16,0-.76.64-1.15,1.36-1.15.87,0,1.26.46,1.26.46l-.21.29s-.35-.4-1.07-.4c-.48,0-.96.22-.96.77,0,1.1,2.34.77,2.34,2.18,0,.68-.58,1.15-1.36,1.15-1.03,0-1.54-.61-1.54-.61l.23-.27Z"/>
    <path class="cls-4" d="M132.8,164.5h.52v.54h-.52v-.54Z"/>
  </g>
  <g>
    <path class="cls-4" d="M9.83,171.09h.37v3.89c0,1.12.73,1.81,1.85,1.81s1.86-.69,1.86-1.83v-3.88h.37v3.91c0,1.31-.91,2.14-2.22,2.14s-2.23-.83-2.23-2.14v-3.91Z"/>
    <path class="cls-4" d="M16,173.14h-.56v-.32h.56v-1.21h.36v1.21h1.11v.32h-1.11v2.34c0,1.12.67,1.27,1.01,1.27.12,0,.2-.02.2-.02v.33s-.08.02-.21.02c-.44,0-1.35-.16-1.35-1.57v-2.36Z"/>
    <path class="cls-4" d="M18.49,171.09h.42v.62h-.42v-.62ZM18.53,172.79h.36v4.25h-.36v-4.25Z"/>
    <path class="cls-4" d="M20.34,171.09h.36v4.98c0,.59.31.66.5.66.07,0,.13,0,.13,0v.33s-.08.02-.15.02c-.25,0-.83-.09-.83-.89v-5.09Z"/>
    <path class="cls-4" d="M22.3,171.09h.42v.62h-.42v-.62ZM22.34,172.79h.36v4.25h-.36v-4.25Z"/>
    <path class="cls-4" d="M24.05,176.26s.48.54,1.32.54c.52,0,.98-.27.98-.8,0-1.08-2.34-.77-2.34-2.16,0-.76.64-1.15,1.36-1.15.87,0,1.26.46,1.26.46l-.21.29s-.35-.4-1.07-.4c-.48,0-.96.22-.96.77,0,1.1,2.34.77,2.34,2.18,0,.68-.58,1.15-1.36,1.15-1.03,0-1.54-.61-1.54-.61l.23-.27Z"/>
    <path class="cls-4" d="M27.86,171.09h.42v.62h-.42v-.62ZM27.89,172.79h.36v4.25h-.36v-4.25Z"/>
    <path class="cls-4" d="M29.75,172.79h.36v.75c0,.2-.03.35-.03.35h.02c.14-.4.74-1.2,1.8-1.2s1.4.65,1.4,1.66v2.69h-.36v-2.57c0-.74-.09-1.44-1.04-1.44-.8,0-1.5.56-1.72,1.35-.05.18-.07.37-.07.58v2.07h-.36v-4.25Z"/>
    <path class="cls-4" d="M36.13,178.47c.91,0,1.62-.43,1.62-1.46v-.49c0-.2.03-.35.03-.35h-.02c-.25.52-.72.87-1.43.87-1.1,0-1.89-.87-1.89-2.19s.72-2.16,1.83-2.16c1.21,0,1.48.83,1.48.83h.02s-.03-.06-.03-.16v-.57h.36v4.22c0,1.3-.93,1.81-1.95,1.81-.47,0-.92-.12-1.33-.33l.17-.31s.53.3,1.14.3ZM37.75,174.84c0-1.37-.65-1.81-1.48-1.81-.91,0-1.45.66-1.45,1.81s.63,1.84,1.54,1.84c.75,0,1.39-.47,1.39-1.84Z"/>
    <path class="cls-4" d="M44.24,174.45h.28v-.14c0-.94-.48-1.27-1.16-1.27-.74,0-1.22.41-1.22.41l-.2-.29s.51-.47,1.44-.47c.98,0,1.5.54,1.5,1.61v2.75h-.36v-.56c0-.23.03-.38.03-.38h-.02s-.38,1.04-1.49,1.04c-.69,0-1.44-.38-1.44-1.23,0-1.44,1.88-1.46,2.63-1.46ZM43.07,176.81c.93,0,1.45-.96,1.45-1.8v-.23h-.27c-.72,0-2.27,0-2.27,1.1,0,.45.37.93,1.09.93Z"/>
    <path class="cls-4" d="M48.85,173.14h-.54v-.32h.54v-.2c0-1.4.92-1.57,1.34-1.57.14,0,.22.02.22.02v.33s-.08-.02-.2-.02c-.34,0-1.01.14-1.01,1.23v.2h1.17v.32h-1.17v3.9h-.36v-3.9ZM51.22,171.09h.36v4.98c0,.59.31.66.5.66.07,0,.13,0,.13,0v.33s-.08.02-.15.02c-.25,0-.83-.09-.83-.89v-5.09Z"/>
    <path class="cls-4" d="M54.98,172.69c1.16,0,1.73.91,1.73,1.94,0,.09-.02.23-.02.23h-3.41c0,1.23.83,1.94,1.82,1.94.82,0,1.32-.54,1.32-.54l.2.3s-.59.59-1.51.59c-1.2,0-2.19-.87-2.19-2.22,0-1.44.98-2.24,2.06-2.24ZM56.34,174.52c-.04-1.04-.66-1.5-1.37-1.5-.78,0-1.5.51-1.66,1.5h3.03Z"/>
    <path class="cls-4" d="M58.94,174.79l-1.37-2.01h.43l1.03,1.55c.07.11.14.24.14.24h.02s.08-.13.14-.24l1.03-1.55h.43l-1.37,2.01,1.53,2.24h-.44l-1.17-1.76c-.08-.12-.15-.25-.15-.25h-.02s-.07.12-.15.25l-1.17,1.76h-.44l1.53-2.24Z"/>
    <path class="cls-4" d="M61.93,171.09h.42v.62h-.42v-.62ZM61.96,172.79h.36v4.25h-.36v-4.25Z"/>
    <path class="cls-4" d="M63.82,171.09h.36v2.21c0,.2-.03.35-.03.35h.02s.37-.96,1.54-.96,1.84.91,1.84,2.23-.79,2.23-1.9,2.23-1.47-.96-1.47-.96h-.02s.03.15.03.37v.48h-.36v-5.95ZM65.64,176.79c.83,0,1.51-.69,1.51-1.88s-.61-1.88-1.48-1.88c-.78,0-1.51.55-1.51,1.89,0,.94.49,1.87,1.48,1.87Z"/>
    <path class="cls-4" d="M68.69,171.09h.36v4.98c0,.59.31.66.5.66.07,0,.13,0,.13,0v.33s-.08.02-.15.02c-.25,0-.83-.09-.83-.89v-5.09Z"/>
    <path class="cls-4" d="M72.46,172.69c1.16,0,1.73.91,1.73,1.94,0,.09-.02.23-.02.23h-3.41c0,1.23.83,1.94,1.82,1.94.82,0,1.32-.54,1.32-.54l.2.3s-.59.59-1.51.59c-1.2,0-2.19-.87-2.19-2.22,0-1.44.98-2.24,2.06-2.24ZM73.82,174.52c-.04-1.04-.66-1.5-1.37-1.5-.78,0-1.5.51-1.66,1.5h3.03Z"/>
    <path class="cls-4" d="M77.75,172.79h.36v.75c0,.2-.03.35-.03.35h.02c.21-.64.97-1.2,1.63-1.2.85,0,1.25.4,1.34,1.16h.02c.24-.6.88-1.16,1.61-1.16,1.1,0,1.42.65,1.42,1.66v2.69h-.36v-2.57c0-.8-.16-1.45-1.06-1.45-.71,0-1.31.63-1.5,1.29-.06.2-.08.41-.08.65v2.07h-.36v-2.57c0-.73-.1-1.45-1.04-1.45-.76,0-1.35.66-1.55,1.37-.05.18-.07.37-.07.58v2.07h-.36v-4.25Z"/>
    <path class="cls-4" d="M87.84,174.45h.28v-.14c0-.94-.48-1.27-1.16-1.27-.74,0-1.22.41-1.22.41l-.2-.29s.51-.47,1.44-.47c.98,0,1.5.54,1.5,1.61v2.75h-.36v-.56c0-.23.03-.38.03-.38h-.02s-.38,1.04-1.49,1.04c-.69,0-1.44-.38-1.44-1.23,0-1.44,1.88-1.46,2.63-1.46ZM86.66,176.81c.93,0,1.45-.96,1.45-1.8v-.23h-.27c-.72,0-2.27,0-2.27,1.1,0,.45.37.93,1.09.93Z"/>
    <path class="cls-4" d="M89.91,172.79h.36v.75c0,.2-.03.35-.03.35h.02c.14-.4.74-1.2,1.8-1.2s1.4.65,1.4,1.66v2.69h-.36v-2.57c0-.74-.09-1.44-1.04-1.44-.8,0-1.5.56-1.72,1.35-.05.18-.07.37-.07.58v2.07h-.36v-4.25Z"/>
    <path class="cls-4" d="M96.51,172.69c1.07,0,1.47.96,1.47.96h.02s-.03-.15-.03-.35v-2.21h.36v5.95h-.36v-.54c0-.2.03-.32.03-.32h-.02s-.37.96-1.54.96-1.84-.91-1.84-2.23.79-2.23,1.9-2.23ZM96.46,176.79c.78,0,1.51-.55,1.51-1.89,0-.94-.48-1.87-1.48-1.87-.83,0-1.51.69-1.51,1.88s.61,1.88,1.48,1.88Z"/>
    <path class="cls-4" d="M102.11,174.45h.28v-.14c0-.94-.48-1.27-1.16-1.27-.74,0-1.21.41-1.21.41l-.2-.29s.51-.47,1.44-.47c.98,0,1.5.54,1.5,1.61v2.75h-.36v-.56c0-.23.03-.38.03-.38h-.02s-.38,1.04-1.49,1.04c-.69,0-1.45-.38-1.45-1.23,0-1.44,1.88-1.46,2.63-1.46ZM100.93,176.81c.93,0,1.45-.96,1.45-1.8v-.23h-.27c-.72,0-2.27,0-2.27,1.1,0,.45.37.93,1.09.93Z"/>
    <path class="cls-4" d="M104.3,173.14h-.56v-.32h.56v-1.21h.36v1.21h1.11v.32h-1.11v2.34c0,1.12.67,1.27,1.01,1.27.12,0,.2-.02.2-.02v.33s-.08.02-.21.02c-.44,0-1.35-.16-1.35-1.57v-2.36Z"/>
    <path class="cls-4" d="M108.6,172.69c1.16,0,1.73.91,1.73,1.94,0,.09-.02.23-.02.23h-3.41c0,1.23.83,1.94,1.82,1.94.82,0,1.32-.54,1.32-.54l.2.3s-.6.59-1.51.59c-1.2,0-2.19-.87-2.19-2.22,0-1.44.98-2.24,2.07-2.24ZM109.96,174.52c-.04-1.04-.66-1.5-1.37-1.5-.78,0-1.5.51-1.66,1.5h3.03Z"/>
    <path class="cls-4" d="M111.62,176.52h.48l-.57,1.32h-.36l.45-1.32Z"/>
  </g>
  <g>
    <path class="cls-4" d="M9.14,183.09h.39l1.79,4.81c.1.28.23.71.23.71h.02s.13-.43.23-.71l1.8-4.81h.39l-2.23,5.95h-.4l-2.23-5.95Z"/>
    <path class="cls-4" d="M17,186.45h.28v-.14c0-.94-.48-1.27-1.16-1.27-.74,0-1.22.41-1.22.41l-.2-.29s.51-.47,1.44-.47c.98,0,1.5.54,1.5,1.61v2.75h-.36v-.56c0-.23.03-.38.03-.38h-.02s-.38,1.04-1.49,1.04c-.69,0-1.44-.38-1.44-1.23,0-1.44,1.88-1.46,2.63-1.46ZM15.83,188.81c.93,0,1.45-.96,1.45-1.8v-.23h-.27c-.72,0-2.27,0-2.27,1.1,0,.45.37.93,1.09.93Z"/>
    <path class="cls-4" d="M19.03,183.09h.36v4.98c0,.59.31.66.5.66.07,0,.13,0,.13,0v.33s-.08.02-.15.02c-.25,0-.83-.09-.83-.89v-5.09Z"/>
    <path class="cls-4" d="M20.99,183.09h.42v.62h-.42v-.62ZM21.03,184.79h.36v4.25h-.36v-4.25Z"/>
    <path class="cls-4" d="M25.17,186.45h.28v-.14c0-.94-.48-1.27-1.16-1.27-.74,0-1.21.41-1.21.41l-.2-.29s.51-.47,1.44-.47c.98,0,1.5.54,1.5,1.61v2.75h-.36v-.56c0-.23.03-.38.03-.38h-.02s-.38,1.04-1.49,1.04c-.69,0-1.45-.38-1.45-1.23,0-1.44,1.88-1.46,2.63-1.46ZM23.99,188.81c.93,0,1.45-.96,1.45-1.8v-.23h-.27c-.72,0-2.27,0-2.27,1.1,0,.45.37.93,1.09.93Z"/>
    <path class="cls-4" d="M27.24,184.79h.36v.75c0,.2-.03.35-.03.35h.02c.14-.4.74-1.2,1.8-1.2s1.4.65,1.4,1.66v2.69h-.36v-2.57c0-.74-.09-1.44-1.05-1.44-.8,0-1.5.56-1.72,1.35-.05.18-.07.37-.07.58v2.07h-.36v-4.25Z"/>
    <path class="cls-4" d="M32.36,185.14h-.56v-.32h.56v-1.21h.36v1.21h1.11v.32h-1.11v2.34c0,1.12.67,1.27,1.01,1.27.12,0,.2-.02.2-.02v.33s-.08.02-.21.02c-.44,0-1.35-.16-1.35-1.57v-2.36Z"/>
    <path class="cls-4" d="M38.87,184.69c1.07,0,1.47.96,1.47.96h.02s-.03-.15-.03-.35v-2.21h.36v5.95h-.36v-.54c0-.2.03-.32.03-.32h-.02s-.37.96-1.54.96-1.84-.91-1.84-2.23.79-2.23,1.9-2.23ZM38.82,188.79c.78,0,1.51-.55,1.51-1.89,0-.94-.48-1.87-1.48-1.87-.83,0-1.51.69-1.51,1.88s.61,1.88,1.48,1.88Z"/>
    <path class="cls-4" d="M42.14,183.09h.42v.62h-.42v-.62ZM42.17,184.79h.36v4.25h-.36v-4.25Z"/>
    <path class="cls-4" d="M43.99,183.09h.36v4.98c0,.59.31.66.5.66.07,0,.13,0,.13,0v.33s-.08.02-.15.02c-.25,0-.83-.09-.83-.89v-5.09Z"/>
    <path class="cls-4" d="M45.95,183.09h.42v.62h-.42v-.62ZM45.98,184.79h.36v4.25h-.36v-4.25Z"/>
    <path class="cls-4" d="M49.24,190.48c.91,0,1.62-.43,1.62-1.46v-.49c0-.2.03-.35.03-.35h-.02c-.25.52-.72.87-1.43.87-1.1,0-1.89-.87-1.89-2.19s.72-2.16,1.83-2.16c1.21,0,1.48.83,1.48.83h.02s-.03-.06-.03-.16v-.57h.36v4.22c0,1.3-.93,1.81-1.95,1.81-.47,0-.92-.12-1.33-.33l.17-.31s.53.3,1.14.3ZM50.86,186.85c0-1.37-.65-1.81-1.48-1.81-.91,0-1.45.66-1.45,1.81s.63,1.84,1.54,1.84c.75,0,1.39-.47,1.39-1.84Z"/>
    <path class="cls-4" d="M54.47,184.69c1.16,0,1.73.91,1.73,1.94,0,.09-.02.23-.02.23h-3.41c0,1.23.83,1.94,1.82,1.94.82,0,1.32-.54,1.32-.54l.2.3s-.6.59-1.51.59c-1.2,0-2.19-.87-2.19-2.22,0-1.44.98-2.24,2.07-2.24ZM55.83,186.52c-.04-1.04-.66-1.5-1.37-1.5-.78,0-1.5.51-1.66,1.5h3.03Z"/>
    <path class="cls-4" d="M57.41,184.79h.36v.75c0,.2-.03.35-.03.35h.02c.14-.4.74-1.2,1.8-1.2s1.4.65,1.4,1.66v2.69h-.36v-2.57c0-.74-.09-1.44-1.05-1.44-.8,0-1.5.56-1.72,1.35-.05.18-.07.37-.07.58v2.07h-.36v-4.25Z"/>
    <path class="cls-4" d="M62.52,185.14h-.56v-.32h.56v-1.21h.36v1.21h1.11v.32h-1.11v2.34c0,1.12.67,1.27,1.01,1.27.12,0,.2-.02.2-.02v.33s-.08.02-.21.02c-.44,0-1.35-.16-1.35-1.57v-2.36Z"/>
    <path class="cls-4" d="M65.01,183.09h.36v4.98c0,.59.31.66.5.66.07,0,.13,0,.13,0v.33s-.08.02-.15.02c-.25,0-.83-.09-.83-.89v-5.09Z"/>
    <path class="cls-4" d="M66.49,190.28s.24.2.53.2c.41,0,.66-.37.83-.77l.31-.71-1.76-4.22h.38l1.4,3.39c.08.2.15.4.15.4h.02s.06-.2.14-.4l1.4-3.39h.38l-2.18,5.24c-.19.44-.54.79-1.08.79-.41,0-.69-.24-.69-.24l.16-.31Z"/>
    <path class="cls-4" d="M75.29,184.69c1.16,0,1.73.91,1.73,1.94,0,.09-.02.23-.02.23h-3.41c0,1.23.83,1.94,1.82,1.94.82,0,1.32-.54,1.32-.54l.2.3s-.6.59-1.51.59c-1.2,0-2.19-.87-2.19-2.22,0-1.44.98-2.24,2.07-2.24ZM76.65,186.52c-.04-1.04-.66-1.5-1.37-1.5-.78,0-1.5.51-1.66,1.5h3.03Z"/>
    <path class="cls-4" d="M79.25,186.8l-1.37-2.01h.43l1.03,1.55c.07.11.14.24.14.24h.02s.08-.13.14-.24l1.03-1.55h.43l-1.37,2.01,1.53,2.24h-.44l-1.17-1.76c-.08-.12-.15-.25-.15-.25h-.02s-.07.12-.15.25l-1.17,1.76h-.44l1.53-2.24Z"/>
    <path class="cls-4" d="M82.27,184.79h.36v.51c0,.2-.03.34-.03.34h.02s.35-.95,1.53-.95,1.84.91,1.84,2.23-.79,2.23-1.89,2.23-1.49-.96-1.49-.96h-.02s.03.15.03.37v2.18h-.36v-5.95ZM84.1,188.79c.83,0,1.51-.69,1.51-1.88s-.61-1.88-1.48-1.88c-.78,0-1.51.55-1.51,1.89,0,.94.53,1.87,1.48,1.87Z"/>
    <path class="cls-4" d="M87.15,183.09h.36v4.98c0,.59.31.66.5.66.07,0,.13,0,.13,0v.33s-.08.02-.15.02c-.25,0-.83-.09-.83-.89v-5.09Z"/>
    <path class="cls-4" d="M91.03,184.69c1.22,0,2.2.96,2.2,2.2s-.99,2.25-2.2,2.25-2.2-.99-2.2-2.25.99-2.2,2.2-2.2ZM91.03,188.79c1.01,0,1.83-.83,1.83-1.9s-.82-1.85-1.83-1.85-1.83.8-1.83,1.85.82,1.9,1.83,1.9Z"/>
    <path class="cls-4" d="M94.42,184.79h.36v.81c0,.2-.03.35-.03.35h.02c.21-.65.69-1.19,1.36-1.19.13,0,.25.03.25.03v.36s-.1-.02-.2-.02c-.66,0-1.08.56-1.27,1.19-.09.3-.13.61-.13.89v1.84h-.36v-4.25Z"/>
    <path class="cls-4" d="M98.95,184.69c1.16,0,1.73.91,1.73,1.94,0,.09-.02.23-.02.23h-3.41c0,1.23.83,1.94,1.82,1.94.82,0,1.32-.54,1.32-.54l.2.3s-.59.59-1.51.59c-1.2,0-2.19-.87-2.19-2.22,0-1.44.98-2.24,2.06-2.24ZM100.31,186.52c-.04-1.04-.66-1.5-1.37-1.5-.78,0-1.5.51-1.66,1.5h3.03Z"/>
    <path class="cls-4" d="M101.75,188.26s.48.54,1.32.54c.52,0,.98-.27.98-.8,0-1.08-2.34-.77-2.34-2.16,0-.76.64-1.15,1.36-1.15.87,0,1.26.46,1.26.46l-.21.29s-.35-.4-1.07-.4c-.48,0-.96.22-.96.77,0,1.1,2.34.77,2.34,2.18,0,.68-.58,1.15-1.36,1.15-1.03,0-1.54-.61-1.54-.61l.23-.27Z"/>
    <path class="cls-4" d="M109.35,190.48c.91,0,1.62-.43,1.62-1.46v-.49c0-.2.03-.35.03-.35h-.02c-.25.52-.72.87-1.43.87-1.1,0-1.89-.87-1.89-2.19s.72-2.16,1.83-2.16c1.21,0,1.48.83,1.48.83h.02s-.03-.06-.03-.16v-.57h.36v4.22c0,1.3-.93,1.81-1.95,1.81-.47,0-.92-.12-1.33-.33l.17-.31s.53.3,1.14.3ZM110.97,186.85c0-1.37-.65-1.81-1.48-1.81-.91,0-1.45.66-1.45,1.81s.63,1.84,1.54,1.84c.75,0,1.39-.47,1.39-1.84Z"/>
    <path class="cls-4" d="M112.77,183.09h.36v4.98c0,.59.31.66.5.66.07,0,.13,0,.13,0v.33s-.08.02-.15.02c-.25,0-.83-.09-.83-.89v-5.09Z"/>
    <path class="cls-4" d="M116.66,184.69c1.21,0,2.2.96,2.2,2.2s-.99,2.25-2.2,2.25-2.2-.99-2.2-2.25.99-2.2,2.2-2.2ZM116.66,188.79c1.01,0,1.83-.83,1.83-1.9s-.82-1.85-1.83-1.85-1.83.8-1.83,1.85.82,1.9,1.83,1.9Z"/>
    <path class="cls-4" d="M120.04,183.09h.36v2.21c0,.2-.03.35-.03.35h.02s.37-.96,1.54-.96,1.84.91,1.84,2.23-.79,2.23-1.9,2.23-1.47-.96-1.47-.96h-.02s.03.15.03.37v.48h-.36v-5.95ZM121.87,188.79c.83,0,1.51-.69,1.51-1.88s-.61-1.88-1.48-1.88c-.78,0-1.51.55-1.51,1.89,0,.94.49,1.87,1.48,1.87Z"/>
    <path class="cls-4" d="M127.25,186.45h.28v-.14c0-.94-.48-1.27-1.16-1.27-.74,0-1.22.41-1.22.41l-.2-.29s.51-.47,1.44-.47c.98,0,1.5.54,1.5,1.61v2.75h-.36v-.56c0-.23.03-.38.03-.38h-.02s-.38,1.04-1.49,1.04c-.69,0-1.44-.38-1.44-1.23,0-1.44,1.88-1.46,2.63-1.46ZM126.08,188.81c.93,0,1.45-.96,1.45-1.8v-.23h-.27c-.72,0-2.27,0-2.27,1.1,0,.45.37.93,1.09.93Z"/>
    <path class="cls-4" d="M129.28,183.09h.36v4.98c0,.59.31.66.5.66.07,0,.13,0,.13,0v.33s-.08.02-.15.02c-.25,0-.83-.09-.83-.89v-5.09Z"/>
  </g>
  <g>
    <path class="cls-4" d="M9.75,196.79h.36v.75c0,.2-.03.35-.03.35h.02c.21-.64.97-1.2,1.63-1.2.85,0,1.25.4,1.34,1.16h.02c.24-.6.88-1.16,1.62-1.16,1.1,0,1.42.65,1.42,1.66v2.69h-.36v-2.57c0-.8-.16-1.45-1.06-1.45-.71,0-1.31.63-1.5,1.29-.06.2-.08.41-.08.65v2.07h-.36v-2.57c0-.73-.1-1.45-1.04-1.45-.76,0-1.35.66-1.55,1.37-.05.18-.07.37-.07.58v2.07h-.36v-4.25Z"/>
    <path class="cls-4" d="M19.84,198.45h.28v-.14c0-.94-.48-1.27-1.16-1.27-.74,0-1.21.41-1.21.41l-.2-.29s.51-.47,1.44-.47c.98,0,1.5.54,1.5,1.61v2.75h-.36v-.56c0-.23.03-.38.03-.38h-.02s-.38,1.04-1.49,1.04c-.69,0-1.45-.38-1.45-1.23,0-1.44,1.88-1.46,2.63-1.46ZM18.66,200.81c.93,0,1.45-.96,1.45-1.8v-.23h-.27c-.72,0-2.27,0-2.27,1.1,0,.45.37.93,1.09.93Z"/>
    <path class="cls-4" d="M21.91,196.79h.36v.81c0,.2-.03.35-.03.35h.02c.21-.65.69-1.19,1.36-1.19.13,0,.25.03.25.03v.36s-.1-.02-.2-.02c-.66,0-1.08.56-1.27,1.19-.09.3-.13.61-.13.89v1.84h-.36v-4.25Z"/>
    <path class="cls-4" d="M24.78,195.09h.36v3.37h.76l1.38-1.67h.47l-1.54,1.83v.02l1.68,2.41h-.45l-1.54-2.24h-.76v2.24h-.36v-5.95Z"/>
    <path class="cls-4" d="M30.57,196.69c1.16,0,1.73.91,1.73,1.94,0,.09-.02.23-.02.23h-3.41c0,1.23.83,1.94,1.82,1.94.82,0,1.32-.54,1.32-.54l.2.3s-.6.59-1.51.59c-1.2,0-2.19-.87-2.19-2.22,0-1.44.98-2.24,2.07-2.24ZM31.93,198.53c-.04-1.04-.66-1.5-1.37-1.5-.78,0-1.5.51-1.66,1.5h3.03Z"/>
    <path class="cls-4" d="M33.64,197.14h-.56v-.32h.56v-1.21h.36v1.21h1.11v.32h-1.11v2.34c0,1.12.67,1.27,1.01,1.27.12,0,.2-.02.2-.02v.33s-.08.02-.21.02c-.44,0-1.35-.16-1.35-1.57v-2.36Z"/>
    <path class="cls-4" d="M36.04,200.26s.48.54,1.32.54c.52,0,.98-.27.98-.8,0-1.08-2.34-.77-2.34-2.16,0-.76.64-1.15,1.36-1.15.87,0,1.26.46,1.26.46l-.21.29s-.35-.4-1.07-.4c-.48,0-.96.22-.96.77,0,1.1,2.34.77,2.34,2.18,0,.68-.58,1.15-1.36,1.15-1.03,0-1.54-.61-1.54-.61l.23-.27Z"/>
    <path class="cls-4" d="M42.2,195.09h.42v.62h-.42v-.62ZM42.23,196.79h.36v4.25h-.36v-4.25Z"/>
    <path class="cls-4" d="M44.09,196.79h.36v.75c0,.2-.03.35-.03.35h.02c.14-.4.74-1.2,1.8-1.2s1.4.65,1.4,1.66v2.69h-.36v-2.57c0-.74-.09-1.44-1.05-1.44-.8,0-1.5.56-1.72,1.35-.05.18-.07.37-.07.58v2.07h-.36v-4.25Z"/>
    <path class="cls-4" d="M51.29,200.26s.48.54,1.32.54c.52,0,.98-.27.98-.8,0-1.08-2.34-.77-2.34-2.16,0-.76.64-1.15,1.36-1.15.87,0,1.26.46,1.26.46l-.21.29s-.35-.4-1.07-.4c-.48,0-.96.22-.96.77,0,1.1,2.34.77,2.34,2.18,0,.68-.58,1.15-1.36,1.15-1.03,0-1.54-.61-1.54-.61l.23-.27Z"/>
    <path class="cls-4" d="M56.9,196.69c1.16,0,1.73.91,1.73,1.94,0,.09-.02.23-.02.23h-3.41c0,1.23.83,1.94,1.82,1.94.82,0,1.32-.54,1.32-.54l.2.3s-.6.59-1.51.59c-1.2,0-2.19-.87-2.19-2.22,0-1.44.98-2.24,2.07-2.24ZM58.26,198.53c-.04-1.04-.66-1.5-1.37-1.5-.78,0-1.5.51-1.66,1.5h3.03Z"/>
    <path class="cls-4" d="M62.12,198.45h.28v-.14c0-.94-.48-1.27-1.16-1.27-.74,0-1.22.41-1.22.41l-.2-.29s.51-.47,1.44-.47c.98,0,1.5.54,1.5,1.61v2.75h-.36v-.56c0-.23.03-.38.03-.38h-.02s-.38,1.04-1.49,1.04c-.69,0-1.44-.38-1.44-1.23,0-1.44,1.88-1.46,2.63-1.46ZM60.94,200.81c.93,0,1.45-.96,1.45-1.8v-.23h-.27c-.72,0-2.27,0-2.27,1.1,0,.45.37.93,1.09.93Z"/>
    <path class="cls-4" d="M64.19,196.79h.36v.81c0,.2-.03.35-.03.35h.02c.21-.65.69-1.19,1.36-1.19.13,0,.25.03.25.03v.36s-.1-.02-.2-.02c-.66,0-1.08.56-1.27,1.19-.09.3-.13.61-.13.89v1.84h-.36v-4.25Z"/>
    <path class="cls-4" d="M68.86,196.69c1.01,0,1.52.6,1.52.6l-.22.29s-.49-.54-1.3-.54c-.99,0-1.82.74-1.82,1.89s.83,1.87,1.82,1.87c.93,0,1.42-.61,1.42-.61l.19.3s-.55.66-1.61.66c-1.2,0-2.19-.87-2.19-2.22s1.01-2.24,2.19-2.24Z"/>
    <path class="cls-4" d="M71.65,195.09h.36v2.45c0,.2-.03.35-.03.35h.02c.14-.4.74-1.2,1.8-1.2s1.4.65,1.4,1.66v2.69h-.36v-2.57c0-.74-.09-1.44-1.04-1.44-.8,0-1.5.56-1.72,1.35-.05.18-.07.37-.07.58v2.07h-.36v-5.95Z"/>
    <path class="cls-4" d="M80.87,196.69c1.22,0,2.2.96,2.2,2.2s-.99,2.25-2.2,2.25-2.2-.99-2.2-2.25.99-2.2,2.2-2.2ZM80.87,200.8c1.01,0,1.83-.83,1.83-1.9s-.82-1.85-1.83-1.85-1.83.8-1.83,1.85.82,1.9,1.83,1.9Z"/>
    <path class="cls-4" d="M84.42,197.14h-.54v-.32h.54v-.2c0-1.4.92-1.57,1.34-1.57.14,0,.22.02.22.02v.33s-.08-.02-.2-.02c-.34,0-1.01.14-1.01,1.23v.2h1.17v.32h-1.17v3.9h-.36v-3.9Z"/>
    <path class="cls-4" d="M91.07,196.69c1.22,0,2.2.96,2.2,2.2s-.99,2.25-2.2,2.25-2.2-.99-2.2-2.25.99-2.2,2.2-2.2ZM91.07,200.8c1.01,0,1.83-.83,1.83-1.9s-.82-1.85-1.83-1.85-1.83.8-1.83,1.85.82,1.9,1.83,1.9Z"/>
    <path class="cls-4" d="M94.46,196.79h.36v.51c0,.2-.03.34-.03.34h.02s.35-.95,1.53-.95,1.83.91,1.83,2.23-.79,2.23-1.89,2.23-1.49-.96-1.49-.96h-.02s.03.15.03.37v2.18h-.36v-5.95ZM96.28,200.8c.83,0,1.51-.69,1.51-1.88s-.61-1.88-1.48-1.88c-.78,0-1.51.55-1.51,1.89,0,.94.53,1.87,1.48,1.87Z"/>
    <path class="cls-4" d="M99.51,197.14h-.56v-.32h.56v-1.21h.36v1.21h1.11v.32h-1.11v2.34c0,1.12.67,1.27,1.01,1.27.12,0,.2-.02.2-.02v.33s-.08.02-.21.02c-.44,0-1.35-.16-1.35-1.57v-2.36Z"/>
    <path class="cls-4" d="M102.01,195.09h.42v.62h-.42v-.62ZM102.05,196.79h.36v4.25h-.36v-4.25Z"/>
    <path class="cls-4" d="M103.9,196.79h.36v.75c0,.2-.03.35-.03.35h.02c.21-.64.97-1.2,1.63-1.2.85,0,1.25.4,1.34,1.16h.02c.24-.6.88-1.16,1.61-1.16,1.1,0,1.42.65,1.42,1.66v2.69h-.36v-2.57c0-.8-.16-1.45-1.06-1.45-.71,0-1.31.63-1.5,1.29-.06.2-.08.41-.08.65v2.07h-.36v-2.57c0-.73-.1-1.45-1.04-1.45-.76,0-1.35.66-1.55,1.37-.05.18-.07.37-.07.58v2.07h-.36v-4.25Z"/>
    <path class="cls-4" d="M113.99,198.45h.28v-.14c0-.94-.48-1.27-1.16-1.27-.74,0-1.22.41-1.22.41l-.2-.29s.51-.47,1.44-.47c.98,0,1.5.54,1.5,1.61v2.75h-.36v-.56c0-.23.03-.38.03-.38h-.02s-.38,1.04-1.49,1.04c-.69,0-1.44-.38-1.44-1.23,0-1.44,1.88-1.46,2.63-1.46ZM112.82,200.81c.93,0,1.45-.96,1.45-1.8v-.23h-.27c-.72,0-2.27,0-2.27,1.1,0,.45.37.93,1.09.93Z"/>
    <path class="cls-4" d="M116.02,195.09h.36v4.98c0,.59.31.66.5.66.07,0,.13,0,.13,0v.33s-.08.02-.15.02c-.25,0-.83-.09-.83-.89v-5.09Z"/>
  </g>
  <g>
    <path class="cls-4" d="M9.71,207.09h.42v.62h-.42v-.62ZM9.75,208.79h.36v4.25h-.36v-4.25Z"/>
    <path class="cls-4" d="M11.6,208.79h.36v.75c0,.2-.03.35-.03.35h.02c.14-.4.74-1.2,1.8-1.2s1.4.65,1.4,1.66v2.69h-.36v-2.57c0-.74-.09-1.44-1.05-1.44-.8,0-1.5.56-1.72,1.35-.05.18-.07.37-.07.58v2.07h-.36v-4.25Z"/>
    <path class="cls-4" d="M15.99,208.79h.38l1.31,3.33c.08.2.14.46.14.46h.02s.07-.25.14-.46l1.31-3.33h.37l-1.67,4.25h-.34l-1.67-4.25Z"/>
    <path class="cls-4" d="M22.34,208.69c1.16,0,1.73.91,1.73,1.94,0,.09-.02.23-.02.23h-3.41c0,1.23.83,1.94,1.82,1.94.82,0,1.32-.54,1.32-.54l.2.3s-.6.59-1.51.59c-1.2,0-2.19-.87-2.19-2.22,0-1.44.98-2.24,2.07-2.24ZM23.7,210.53c-.04-1.04-.66-1.5-1.37-1.5-.78,0-1.5.51-1.66,1.5h3.03Z"/>
    <path class="cls-4" d="M25.13,212.26s.48.54,1.32.54c.52,0,.98-.27.98-.8,0-1.08-2.34-.77-2.34-2.16,0-.76.64-1.15,1.36-1.15.87,0,1.26.46,1.26.46l-.21.29s-.35-.4-1.07-.4c-.48,0-.96.22-.96.77,0,1.1,2.34.77,2.34,2.18,0,.68-.58,1.15-1.36,1.15-1.03,0-1.54-.61-1.54-.61l.23-.27Z"/>
    <path class="cls-4" d="M29.11,209.14h-.56v-.32h.56v-1.21h.36v1.21h1.11v.32h-1.11v2.34c0,1.12.67,1.27,1.01,1.27.12,0,.2-.02.2-.02v.33s-.08.02-.21.02c-.44,0-1.35-.16-1.35-1.57v-2.36Z"/>
    <path class="cls-4" d="M31.64,208.79h.36v.75c0,.2-.03.35-.03.35h.02c.21-.64.97-1.2,1.63-1.2.85,0,1.25.4,1.34,1.16h.02c.24-.6.88-1.16,1.62-1.16,1.1,0,1.42.65,1.42,1.66v2.69h-.36v-2.57c0-.8-.16-1.45-1.06-1.45-.71,0-1.31.63-1.5,1.29-.06.2-.08.41-.08.65v2.07h-.36v-2.57c0-.73-.1-1.45-1.04-1.45-.76,0-1.35.66-1.55,1.37-.05.18-.07.37-.07.58v2.07h-.36v-4.25Z"/>
    <path class="cls-4" d="M41.21,208.69c1.16,0,1.73.91,1.73,1.94,0,.09-.02.23-.02.23h-3.41c0,1.23.83,1.94,1.82,1.94.82,0,1.32-.54,1.32-.54l.2.3s-.59.59-1.51.59c-1.2,0-2.19-.87-2.19-2.22,0-1.44.98-2.24,2.06-2.24ZM42.57,210.53c-.04-1.04-.66-1.5-1.37-1.5-.78,0-1.5.51-1.66,1.5h3.03Z"/>
    <path class="cls-4" d="M44.15,208.79h.36v.75c0,.2-.03.35-.03.35h.02c.14-.4.74-1.2,1.8-1.2s1.4.65,1.4,1.66v2.69h-.36v-2.57c0-.74-.09-1.44-1.05-1.44-.8,0-1.5.56-1.72,1.35-.05.18-.07.37-.07.58v2.07h-.36v-4.25Z"/>
    <path class="cls-4" d="M49.26,209.14h-.56v-.32h.56v-1.21h.36v1.21h1.11v.32h-1.11v2.34c0,1.12.67,1.27,1.01,1.27.12,0,.2-.02.2-.02v.33s-.08.02-.21.02c-.44,0-1.35-.16-1.35-1.57v-2.36Z"/>
    <path class="cls-4" d="M56.04,208.69c1.21,0,2.2.96,2.2,2.2s-.99,2.25-2.2,2.25-2.2-.99-2.2-2.25.99-2.2,2.2-2.2ZM56.04,212.8c1.01,0,1.83-.83,1.83-1.9s-.82-1.85-1.83-1.85-1.83.8-1.83,1.85.82,1.9,1.83,1.9Z"/>
    <path class="cls-4" d="M59.42,208.79h.36v.51c0,.2-.03.34-.03.34h.02s.35-.95,1.53-.95,1.83.91,1.83,2.23-.79,2.23-1.89,2.23-1.49-.96-1.49-.96h-.02s.03.15.03.37v2.18h-.36v-5.95ZM61.25,212.8c.83,0,1.51-.69,1.51-1.88s-.61-1.88-1.48-1.88c-.78,0-1.51.55-1.51,1.89,0,.94.53,1.87,1.48,1.87Z"/>
    <path class="cls-4" d="M64.34,208.79h.36v.51c0,.2-.03.34-.03.34h.02s.35-.95,1.53-.95,1.84.91,1.84,2.23-.79,2.23-1.89,2.23-1.49-.96-1.49-.96h-.02s.03.15.03.37v2.18h-.36v-5.95ZM66.17,212.8c.83,0,1.51-.69,1.51-1.88s-.61-1.88-1.48-1.88c-.78,0-1.51.55-1.51,1.89,0,.94.53,1.87,1.48,1.87Z"/>
    <path class="cls-4" d="M71.15,208.69c1.22,0,2.2.96,2.2,2.2s-.99,2.25-2.2,2.25-2.2-.99-2.2-2.25.99-2.2,2.2-2.2ZM71.15,212.8c1.01,0,1.83-.83,1.83-1.9s-.82-1.85-1.83-1.85-1.83.8-1.83,1.85.82,1.9,1.83,1.9Z"/>
    <path class="cls-4" d="M74.53,208.79h.36v.81c0,.2-.03.35-.03.35h.02c.21-.65.69-1.19,1.36-1.19.13,0,.25.03.25.03v.36s-.1-.02-.2-.02c-.66,0-1.08.56-1.27,1.19-.09.3-.13.61-.13.89v1.84h-.36v-4.25Z"/>
    <path class="cls-4" d="M77.54,209.14h-.56v-.32h.56v-1.21h.36v1.21h1.11v.32h-1.11v2.34c0,1.12.67,1.27,1.01,1.27.12,0,.2-.02.2-.02v.33s-.08.02-.21.02c-.44,0-1.35-.16-1.35-1.57v-2.36Z"/>
    <path class="cls-4" d="M80.02,208.79h.36v2.57c0,.74.09,1.44,1.05,1.44,1.06,0,1.74-.94,1.74-1.93v-2.07h.36v4.25h-.36v-.75c0-.2.03-.35.03-.35h-.02c-.14.4-.73,1.2-1.76,1.2s-1.4-.58-1.4-1.66v-2.69Z"/>
    <path class="cls-4" d="M85.01,208.79h.36v.75c0,.2-.03.35-.03.35h.02c.14-.4.74-1.2,1.8-1.2s1.4.65,1.4,1.66v2.69h-.36v-2.57c0-.74-.09-1.44-1.04-1.44-.8,0-1.5.56-1.72,1.35-.05.18-.07.37-.07.58v2.07h-.36v-4.25Z"/>
    <path class="cls-4" d="M89.96,207.09h.42v.62h-.42v-.62ZM90,208.79h.36v4.25h-.36v-4.25Z"/>
    <path class="cls-4" d="M91.98,209.14h-.56v-.32h.56v-1.21h.36v1.21h1.11v.32h-1.11v2.34c0,1.12.67,1.27,1.01,1.27.12,0,.2-.02.2-.02v.33s-.08.02-.21.02c-.44,0-1.35-.16-1.35-1.57v-2.36Z"/>
    <path class="cls-4" d="M94.48,207.09h.42v.62h-.42v-.62ZM94.52,208.79h.36v4.25h-.36v-4.25Z"/>
    <path class="cls-4" d="M98.14,208.69c1.16,0,1.73.91,1.73,1.94,0,.09-.02.23-.02.23h-3.41c0,1.23.83,1.94,1.82,1.94.82,0,1.32-.54,1.32-.54l.2.3s-.59.59-1.51.59c-1.2,0-2.19-.87-2.19-2.22,0-1.44.98-2.24,2.06-2.24ZM99.5,210.53c-.04-1.04-.66-1.5-1.37-1.5-.78,0-1.5.51-1.66,1.5h3.03Z"/>
    <path class="cls-4" d="M100.93,212.26s.48.54,1.32.54c.52,0,.98-.27.98-.8,0-1.08-2.34-.77-2.34-2.16,0-.76.64-1.15,1.36-1.15.87,0,1.26.46,1.26.46l-.21.29s-.35-.4-1.07-.4c-.48,0-.96.22-.96.77,0,1.1,2.34.77,2.34,2.18,0,.68-.58,1.15-1.36,1.15-1.03,0-1.54-.61-1.54-.61l.23-.27Z"/>
    <path class="cls-4" d="M104.78,212.51h.52v.54h-.52v-.54Z"/>
  </g>
  <g>
    <path class="cls-3" d="M8.99,8h1.39l1.56,4.63c.14.41.26,1.04.27,1.04h.02s.13-.63.27-1.04l1.57-4.63h1.38l-2.59,7.1h-1.28l-2.59-7.1Z"/>
    <path class="cls-3" d="M18.54,11.9h.17v-.07c0-.67-.42-.9-.98-.9-.73,0-1.4.49-1.4.49l-.48-.91s.79-.63,2-.63c1.34,0,2.12.74,2.12,2.03v3.19h-1.17v-.42c0-.2.02-.36.02-.36h-.02s-.39.9-1.55.9c-.91,0-1.73-.57-1.73-1.59,0-1.62,2.19-1.73,3.02-1.73ZM17.57,14.23c.67,0,1.15-.72,1.15-1.34v-.12h-.22c-.65,0-1.7.09-1.7.8,0,.34.25.66.77.66Z"/>
    <path class="cls-3" d="M21.22,8h1.26v5.32c0,.56.19.7.52.7.1,0,.19-.01.19-.01v1.11s-.19.03-.4.03c-.7,0-1.57-.18-1.57-1.64v-5.51Z"/>
    <path class="cls-3" d="M24.13,8h1.26v1.13h-1.26v-1.13ZM24.13,10h1.27v5.1h-1.27v-5.1Z"/>
    <path class="cls-3" d="M29.39,11.9h.17v-.07c0-.67-.42-.9-.98-.9-.73,0-1.4.49-1.4.49l-.48-.91s.79-.63,2-.63c1.34,0,2.12.74,2.12,2.03v3.19h-1.17v-.42c0-.2.02-.36.02-.36h-.02s-.39.9-1.55.9c-.91,0-1.73-.57-1.73-1.59,0-1.62,2.19-1.73,3.02-1.73ZM28.42,14.23c.67,0,1.15-.72,1.15-1.34v-.12h-.22c-.65,0-1.7.09-1.7.8,0,.34.25.66.77.66Z"/>
    <path class="cls-3" d="M32.14,10h1.22v.59c0,.19-.02.35-.02.35h.02c.22-.43.78-1.06,1.81-1.06,1.13,0,1.77.59,1.77,1.94v3.28h-1.26v-3.02c0-.62-.16-1.04-.81-1.04s-1.18.43-1.37,1.04c-.07.21-.09.44-.09.68v2.34h-1.27v-5.1Z"/>
    <path class="cls-3" d="M38.49,11.09h-.66v-1.01h.69v-1.47h1.24v1.47h1.16v1.01h-1.16v1.98c0,.84.66.96,1.01.96.14,0,.23-.02.23-.02v1.11s-.15.03-.39.03c-.71,0-2.12-.21-2.12-1.92v-2.14Z"/>
    <path class="cls-3" d="M47.83,7.88c1.73,0,2.62.97,2.62.97l-.62.96s-.81-.75-1.94-.75c-1.5,0-2.38,1.12-2.38,2.44s.91,2.54,2.39,2.54c1.23,0,2.06-.9,2.06-.9l.68.93s-.98,1.15-2.79,1.15c-2.17,0-3.67-1.61-3.67-3.7s1.56-3.64,3.65-3.64Z"/>
    <path class="cls-3" d="M54.22,11.9h.17v-.07c0-.67-.42-.9-.98-.9-.73,0-1.4.49-1.4.49l-.48-.91s.79-.63,2-.63c1.34,0,2.12.74,2.12,2.03v3.19h-1.17v-.42c0-.2.02-.36.02-.36h-.02s-.39.9-1.55.9c-.91,0-1.73-.57-1.73-1.59,0-1.62,2.19-1.73,3.02-1.73ZM53.25,14.23c.67,0,1.15-.72,1.15-1.34v-.12h-.22c-.65,0-1.7.09-1.7.8,0,.34.25.66.77.66Z"/>
    <path class="cls-3" d="M56.97,10h1.16v.37c0,.19-.02.35-.02.35h.02s.44-.84,1.64-.84c1.38,0,2.26,1.09,2.26,2.67s-.99,2.67-2.33,2.67c-1.01,0-1.46-.7-1.46-.7h-.02s.02.18.02.44v2.14h-1.27v-7.1ZM59.47,14.15c.7,0,1.28-.57,1.28-1.58s-.52-1.6-1.27-1.6c-.66,0-1.28.48-1.28,1.61,0,.79.43,1.57,1.27,1.57Z"/>
    <path class="cls-3" d="M63.08,8h1.26v1.13h-1.26v-1.13ZM63.08,10h1.27v5.1h-1.27v-5.1Z"/>
    <path class="cls-3" d="M65.97,11.09h-.66v-1.01h.69v-1.47h1.24v1.47h1.16v1.01h-1.16v1.98c0,.84.66.96,1.01.96.14,0,.23-.02.23-.02v1.11s-.15.03-.39.03c-.71,0-2.12-.21-2.12-1.92v-2.14Z"/>
    <path class="cls-3" d="M72.11,11.9h.17v-.07c0-.67-.42-.9-.98-.9-.73,0-1.4.49-1.4.49l-.48-.91s.79-.63,2-.63c1.34,0,2.12.74,2.12,2.03v3.19h-1.17v-.42c0-.2.02-.36.02-.36h-.02s-.39.9-1.55.9c-.91,0-1.73-.57-1.73-1.59,0-1.62,2.19-1.73,3.02-1.73ZM71.14,14.23c.67,0,1.15-.72,1.15-1.34v-.12h-.22c-.65,0-1.7.09-1.7.8,0,.34.25.66.77.66Z"/>
    <path class="cls-3" d="M74.79,8h1.26v5.32c0,.56.19.7.52.7.1,0,.19-.01.19-.01v1.11s-.19.03-.4.03c-.7,0-1.57-.18-1.57-1.64v-5.51Z"/>
    <path class="cls-3" d="M80.69,8h1.38l1.39,3.51c.16.42.36,1.04.36,1.04h.02s.19-.62.35-1.04l1.39-3.51h1.38l.57,7.1h-1.28l-.3-3.97c-.03-.47,0-1.1,0-1.1h-.02s-.21.69-.38,1.1l-1.15,2.75h-1.13l-1.14-2.75c-.17-.41-.39-1.11-.39-1.11h-.02s.02.64-.01,1.11l-.3,3.97h-1.29l.58-7.1Z"/>
    <path class="cls-3" d="M91.5,11.9h.17v-.07c0-.67-.42-.9-.98-.9-.73,0-1.4.49-1.4.49l-.48-.91s.79-.63,2-.63c1.34,0,2.12.74,2.12,2.03v3.19h-1.17v-.42c0-.2.02-.36.02-.36h-.02s-.39.9-1.55.9c-.91,0-1.73-.57-1.73-1.59,0-1.62,2.19-1.73,3.02-1.73ZM90.53,14.23c.67,0,1.15-.72,1.15-1.34v-.12h-.22c-.65,0-1.7.09-1.7.8,0,.34.25.66.77.66Z"/>
    <path class="cls-3" d="M94.25,10h1.22v.59c0,.19-.02.35-.02.35h.02c.22-.43.78-1.06,1.81-1.06,1.13,0,1.77.59,1.77,1.94v3.28h-1.26v-3.02c0-.62-.16-1.04-.81-1.04s-1.18.43-1.37,1.04c-.07.21-.09.44-.09.68v2.34h-1.27v-5.1Z"/>
    <path class="cls-3" d="M102.97,11.9h.17v-.07c0-.67-.42-.9-.98-.9-.73,0-1.4.49-1.4.49l-.48-.91s.79-.63,2-.63c1.34,0,2.12.74,2.12,2.03v3.19h-1.17v-.42c0-.2.02-.36.02-.36h-.02s-.39.9-1.55.9c-.91,0-1.73-.57-1.73-1.59,0-1.62,2.19-1.73,3.02-1.73ZM102,14.23c.67,0,1.15-.72,1.15-1.34v-.12h-.22c-.65,0-1.7.09-1.7.8,0,.34.25.66.77.66Z"/>
    <path class="cls-3" d="M107.65,16.12c.78,0,1.44-.33,1.44-1.24v-.3c0-.12.02-.27.02-.27h-.02c-.3.45-.74.69-1.42.69-1.46,0-2.29-1.18-2.29-2.58s.79-2.54,2.26-2.54c1.11,0,1.51.65,1.51.65h.03s0-.06,0-.14v-.39h1.19v4.79c0,1.75-1.36,2.41-2.69,2.41-.64,0-1.32-.18-1.81-.44l.38-.97s.64.33,1.41.33ZM109.12,12.43c0-1.16-.57-1.47-1.26-1.47-.77,0-1.2.56-1.2,1.42s.46,1.55,1.28,1.55c.61,0,1.18-.35,1.18-1.5Z"/>
    <path class="cls-3" d="M113.99,9.88c1.47,0,2.26,1.07,2.26,2.42,0,.15-.03.49-.03.49h-3.52c.08.89.77,1.35,1.53,1.35.82,0,1.47-.56,1.47-.56l.49.91s-.78.73-2.05.73c-1.69,0-2.74-1.22-2.74-2.67,0-1.57,1.07-2.67,2.59-2.67ZM114.97,11.92c-.02-.69-.45-1.06-1.01-1.06-.65,0-1.1.4-1.22,1.06h2.23Z"/>
    <path class="cls-3" d="M117.3,10h1.22v.59c0,.19-.02.35-.02.35h.02c.25-.5.86-1.06,1.66-1.06s1.28.36,1.49,1.05h.02c.28-.55.94-1.05,1.74-1.05,1.06,0,1.67.6,1.67,1.94v3.28h-1.27v-3.04c0-.58-.11-1.02-.7-1.02-.65,0-1.08.52-1.23,1.16-.05.2-.06.42-.06.66v2.24h-1.27v-3.04c0-.55-.09-1.02-.69-1.02-.66,0-1.09.52-1.25,1.17-.05.19-.06.42-.06.65v2.24h-1.27v-5.1Z"/>
    <path class="cls-3" d="M128.66,9.88c1.47,0,2.26,1.07,2.26,2.42,0,.15-.03.49-.03.49h-3.52c.08.89.77,1.35,1.53,1.35.82,0,1.47-.56,1.47-.56l.49.91s-.78.73-2.05.73c-1.69,0-2.74-1.22-2.74-2.67,0-1.57,1.07-2.67,2.59-2.67ZM129.64,11.92c-.02-.69-.45-1.06-1.01-1.06-.65,0-1.1.4-1.22,1.06h2.23Z"/>
    <path class="cls-3" d="M131.97,10h1.22v.59c0,.19-.02.35-.02.35h.02c.22-.43.78-1.06,1.81-1.06,1.13,0,1.77.59,1.77,1.94v3.28h-1.26v-3.02c0-.62-.16-1.04-.81-1.04s-1.18.43-1.37,1.04c-.07.21-.09.44-.09.68v2.34h-1.27v-5.1Z"/>
    <path class="cls-3" d="M138.32,11.09h-.66v-1.01h.69v-1.47h1.24v1.47h1.16v1.01h-1.16v1.98c0,.84.66.96,1.01.96.14,0,.23-.02.23-.02v1.11s-.15.03-.39.03c-.71,0-2.12-.21-2.12-1.92v-2.14Z"/>
    <path class="cls-3" d="M142.01,13.81h1.25l-.96,2.34h-.96l.67-2.34Z"/>
    <path class="cls-3" d="M147.15,8h1.29v5.99h3.07v1.11h-4.36v-7.1Z"/>
    <path class="cls-3" d="M154.97,8h2.74c1.33,0,2.26.93,2.26,2.31s-.93,2.34-2.26,2.34h-1.45v2.45h-1.29v-7.1ZM157.47,11.53c.75,0,1.19-.48,1.19-1.22s-.44-1.2-1.17-1.2h-1.23v2.42h1.21Z"/>
  </g>
  <g class="cls-1">
    <path class="cls-5" d="M23.77,39.08l-1.54-14.69c.45-.05,1.09-.08,1.54-.08v14.77Z"/>
    <path class="cls-7" d="M23.77,39.08l-12.66-7.61c2.49-4.14,6.31-6.58,11.11-7.08l1.54,14.69Z"/>
    <path class="cls-5" d="M23.77,39.08v-14.77c8.16,0,14.77,6.61,14.77,14.77s-6.61,14.77-14.77,14.77-14.77-6.61-14.77-14.77c0-2.87.63-5.15,2.11-7.61l12.66,7.61Z"/>
    <path class="cls-6" d="M23.77,51.22c6.7,0,12.13-5.43,12.13-12.13s-5.43-12.14-12.13-12.14-12.14,5.43-12.14,12.14,5.43,12.13,12.14,12.13"/>
  </g>
  <g>
    <path class="cls-7" d="M46.7,42.74h2.24v-5.91c0-.36.01-.72.01-.72h-.03s-.12.25-.45.6l-.83.81-1.11-1.2,2.59-2.56h1.64v8.98h2.24v1.67h-6.32v-1.67Z"/>
    <path class="cls-7" d="M53.34,40.48l4.45-6.72h2.23v6.3h1.34v1.6h-1.34v2.75h-1.85v-2.75h-4.83v-1.18ZM58.18,40.06v-3.3c0-.53.07-1.11.07-1.11h-.03s-.23.57-.51.97l-2.39,3.41v.03h2.85Z"/>
    <path class="cls-7" d="M62.5,42.5h1.85v1.91h-1.85v-1.91Z"/>
    <path class="cls-7" d="M69.96,36.4c.32-.66.63-.97.63-.97v-.03s-.2.03-.71.03h-4.41v-1.67h7.1v1.35l-4.53,9.3h-1.95l3.87-8.01Z"/>
    <path class="cls-7" d="M73.44,39.53c0-2.79,1.56-5.95,4.76-5.95,1.31,0,2.11.45,2.11.45l-.55,1.67s-.66-.33-1.46-.33c-1.63,0-2.49,1.4-2.75,2.85h.03c.36-.44,1.19-.75,1.94-.75,2.04,0,3.32,1.63,3.32,3.55s-1.35,3.57-3.41,3.57c-2.15,0-3.99-1.84-3.99-5.05ZM78.97,41.02c0-1.08-.66-1.96-1.89-1.96-.93,0-1.69.5-1.69,1.15,0,1.33.95,2.61,2.04,2.61.96,0,1.54-.79,1.54-1.8Z"/>
    <path class="cls-7" d="M81.8,35.95c0-1.29,1.06-2.37,2.37-2.37s2.39,1.08,2.39,2.37-1.08,2.37-2.39,2.37-2.37-1.05-2.37-2.37ZM90.1,33.76h1.7l-7.93,10.65h-1.7l7.93-10.65ZM85.15,35.95c0-.54-.44-.99-.98-.99s-.96.45-.96.99.42.99.96.99.98-.43.98-.99ZM89.83,39.86c1.31,0,2.37,1.08,2.37,2.37s-1.06,2.35-2.37,2.35-2.37-1.05-2.37-2.35,1.05-2.37,2.37-2.37ZM89.83,43.21c.54,0,.98-.43.98-.99s-.44-.99-.98-.99-.96.45-.96.99.42.99.96.99Z"/>
  </g>
</svg>