<?xml version="1.0" encoding="UTF-8"?>
<svg id="Layer_1" data-name="Layer 1" xmlns="http://www.w3.org/2000/svg" xmlns:xlink="http://www.w3.org/1999/xlink" viewBox="0 0 519.5 602.88">
  <defs>
    <style>
      .cls-1 {
        clip-path: url(#clippath);
      }

      .cls-2, .cls-3, .cls-4 {
        fill: none;
      }

      .cls-2, .cls-5, .cls-6, .cls-7 {
        stroke-width: 0px;
      }

      .cls-8 {
        clip-path: url(#clippath-1);
      }

      .cls-9 {
        clip-path: url(#clippath-4);
      }

      .cls-10 {
        clip-path: url(#clippath-3);
      }

      .cls-11 {
        clip-path: url(#clippath-2);
      }

      .cls-12 {
        clip-path: url(#clippath-6);
      }

      .cls-13 {
        clip-path: url(#clippath-5);
      }

      .cls-3 {
        stroke-width: 4px;
      }

      .cls-3, .cls-4 {
        stroke: #dda52b;
      }

      .cls-4 {
        stroke-width: .5px;
      }

      .cls-5 {
        fill: #dda52b;
      }

      .cls-6 {
        fill: #fff;
      }

      .cls-7 {
        fill: #005167;
      }
    </style>
    <clipPath id="clippath">
      <rect class="cls-2" width="519.5" height="602.88"/>
    </clipPath>
    <clipPath id="clippath-1">
      <rect class="cls-2" width="519.5" height="602.88"/>
    </clipPath>
    <clipPath id="clippath-2">
      <rect class="cls-2" width="519.5" height="602.88"/>
    </clipPath>
    <clipPath id="clippath-3">
      <rect class="cls-2" width="519.5" height="602.88"/>
    </clipPath>
    <clipPath id="clippath-4">
      <rect class="cls-2" width="519.5" height="602.88"/>
    </clipPath>
    <clipPath id="clippath-5">
      <rect class="cls-2" width="519.5" height="602.88"/>
    </clipPath>
    <clipPath id="clippath-6">
      <rect class="cls-2" width="519.5" height="602.88"/>
    </clipPath>
  </defs>
  <line class="cls-4" x1="469.31" y1="117.94" x2="469.31" y2="94.27"/>
  <line class="cls-4" x1="106.13" y1="155.23" x2="82.46" y2="155.23"/>
  <line class="cls-4" x1="276.73" y1="95.01" x2="253.06" y2="95.01"/>
  <polyline class="cls-4" points="43.4 482.93 43.4 385.62 213.99 385.62 213.99 233.15 43.15 233.15 43.15 19.29 213.99 19.29 213.99 163.55 468.93 163.55 468.93 353.28 341.94 353.28 341.94 437.72"/>
  <g>
    <path class="cls-6" d="M18.26,519.94c1.45,0,2.18.79,2.18.79l-.42.63s-.7-.66-1.73-.66c-1.34,0-2.22,1.02-2.22,2.29s.89,2.37,2.23,2.37c1.13,0,1.85-.78,1.85-.78l.45.6s-.82.95-2.33.95c-1.8,0-3.07-1.38-3.07-3.14s1.31-3.07,3.05-3.07Z"/>
    <path class="cls-6" d="M23.59,521.64c1.28,0,2.32.94,2.32,2.24s-1.04,2.26-2.32,2.26-2.32-.95-2.32-2.26,1.04-2.24,2.32-2.24ZM23.59,525.43c.82,0,1.48-.65,1.48-1.55s-.66-1.53-1.48-1.53-1.48.64-1.48,1.53.67,1.55,1.48,1.55Z"/>
    <path class="cls-6" d="M26.88,521.74h.8v.57c0,.17-.02.31-.02.31h.02c.2-.5.81-.99,1.48-.99.72,0,1.15.33,1.29.98h.02c.24-.52.83-.98,1.53-.98.97,0,1.42.55,1.42,1.65v2.75h-.82v-2.58c0-.6-.12-1.08-.77-1.08-.6,0-1.05.51-1.21,1.1-.04.18-.06.37-.06.6v1.96h-.83v-2.58c0-.56-.08-1.08-.75-1.08s-1.07.52-1.23,1.13c-.04.17-.05.37-.05.56v1.96h-.82v-4.3Z"/>
    <path class="cls-6" d="M34.65,521.74h.8v.57c0,.17-.02.31-.02.31h.02c.2-.5.81-.99,1.48-.99.72,0,1.15.33,1.29.98h.02c.24-.52.83-.98,1.53-.98.97,0,1.42.55,1.42,1.65v2.75h-.82v-2.58c0-.6-.12-1.08-.76-1.08-.6,0-1.05.51-1.21,1.1-.04.18-.06.37-.06.6v1.96h-.82v-2.58c0-.56-.08-1.08-.75-1.08-.63,0-1.07.52-1.23,1.13-.04.17-.05.37-.05.56v1.96h-.82v-4.3Z"/>
    <path class="cls-6" d="M44.27,521.64c1.22,0,1.86.9,1.86,2.01,0,.11-.03.36-.03.36h-3.14c.04.94.71,1.42,1.48,1.42s1.27-.5,1.27-.5l.34.6s-.64.61-1.67.61c-1.35,0-2.28-.98-2.28-2.25,0-1.37.93-2.25,2.15-2.25ZM45.29,523.39c-.03-.74-.48-1.1-1.04-1.1-.63,0-1.14.39-1.26,1.1h2.29Z"/>
    <path class="cls-6" d="M47.14,521.74h.8v.57c0,.17-.02.31-.02.31h.02c.17-.37.68-.99,1.62-.99,1.01,0,1.48.55,1.48,1.65v2.75h-.82v-2.57c0-.6-.13-1.08-.82-1.08s-1.18.43-1.36,1.05c-.05.17-.07.37-.07.58v2.01h-.82v-4.3Z"/>
    <path class="cls-6" d="M54.26,521.64c1.08,0,1.62.63,1.62.63l-.39.58s-.46-.49-1.19-.49c-.87,0-1.5.65-1.5,1.53s.63,1.55,1.52,1.55c.8,0,1.33-.58,1.33-.58l.33.6s-.6.69-1.72.69c-1.35,0-2.3-.96-2.3-2.25s.95-2.25,2.3-2.25Z"/>
    <path class="cls-6" d="M58.77,521.64c1.22,0,1.86.9,1.86,2.01,0,.11-.03.36-.03.36h-3.14c.04.94.71,1.42,1.48,1.42s1.28-.5,1.28-.5l.34.6s-.64.61-1.67.61c-1.35,0-2.28-.98-2.28-2.25,0-1.37.93-2.25,2.15-2.25ZM59.79,523.39c-.03-.74-.48-1.1-1.04-1.1-.63,0-1.14.39-1.26,1.1h2.29Z"/>
    <path class="cls-6" d="M61.63,521.74h.8v.57c0,.17-.02.31-.02.31h.02c.21-.5.81-.99,1.48-.99.72,0,1.15.33,1.29.98h.02c.24-.52.83-.98,1.53-.98.97,0,1.42.55,1.42,1.65v2.75h-.82v-2.58c0-.6-.12-1.08-.76-1.08-.6,0-1.05.51-1.21,1.1-.04.18-.06.37-.06.6v1.96h-.83v-2.58c0-.56-.08-1.08-.75-1.08-.63,0-1.07.52-1.23,1.13-.04.17-.05.37-.05.56v1.96h-.82v-4.3Z"/>
    <path class="cls-6" d="M71.25,521.64c1.22,0,1.86.9,1.86,2.01,0,.11-.03.36-.03.36h-3.14c.04.94.71,1.42,1.48,1.42s1.27-.5,1.27-.5l.34.6s-.64.61-1.67.61c-1.35,0-2.28-.98-2.28-2.25,0-1.37.93-2.25,2.15-2.25ZM72.27,523.39c-.03-.74-.48-1.1-1.04-1.1-.63,0-1.14.39-1.26,1.1h2.29Z"/>
    <path class="cls-6" d="M74.12,521.74h.8v.57c0,.17-.02.31-.02.31h.02c.17-.37.68-.99,1.62-.99,1.01,0,1.48.55,1.48,1.65v2.75h-.82v-2.57c0-.6-.13-1.08-.82-1.08s-1.18.43-1.36,1.05c-.05.17-.07.37-.07.58v2.01h-.82v-4.3Z"/>
    <path class="cls-6" d="M79.42,522.46h-.56v-.66h.59v-1.24h.8v1.24h1.04v.66h-1.04v1.91c0,.86.6.97.92.97.12,0,.2-.02.2-.02v.73s-.12.02-.29.02c-.55,0-1.65-.17-1.65-1.61v-2.01Z"/>
  </g>
  <g>
    <path class="cls-6" d="M17.45,533.64c1.28,0,2.32.94,2.32,2.24s-1.04,2.26-2.32,2.26-2.32-.95-2.32-2.26,1.04-2.24,2.32-2.24ZM17.45,537.43c.82,0,1.48-.65,1.48-1.55s-.66-1.53-1.48-1.53-1.48.64-1.48,1.53.67,1.55,1.48,1.55Z"/>
    <path class="cls-6" d="M20.95,534.46h-.54v-.66h.54v-.2c0-1.42,1.07-1.6,1.61-1.6.19,0,.31.03.31.03v.71s-.08-.02-.21-.02c-.31,0-.9.1-.9.9v.19h1.02v.66h-1.02v3.58h-.82v-3.58Z"/>
    <path class="cls-6" d="M25.76,532.04h.82v1.96c0,.21-.02.37-.02.37h.02s.37-.73,1.38-.73c1.16,0,1.89.92,1.89,2.25s-.82,2.25-1.96,2.25c-.96,0-1.35-.74-1.35-.74h-.02s.02.14.02.32v.31h-.78v-6ZM27.77,537.44c.68,0,1.24-.56,1.24-1.54s-.5-1.54-1.22-1.54c-.64,0-1.24.45-1.24,1.55,0,.76.4,1.53,1.21,1.53Z"/>
    <path class="cls-6" d="M30.8,533.74h.82v2.57c0,.59.12,1.07.81,1.07.88,0,1.39-.77,1.39-1.62v-2.01h.82v4.3h-.8v-.57c0-.18.02-.31.02-.31h-.02c-.18.42-.74.99-1.58.99-.97,0-1.47-.51-1.47-1.65v-2.75Z"/>
    <path class="cls-6" d="M35.99,536.93s.48.5,1.23.5c.36,0,.71-.19.71-.54,0-.79-2.21-.63-2.21-2.03,0-.78.7-1.22,1.55-1.22.94,0,1.38.48,1.38.48l-.33.62s-.38-.38-1.06-.38c-.36,0-.71.15-.71.53,0,.77,2.21.6,2.21,2.01,0,.71-.61,1.25-1.56,1.25-1.05,0-1.63-.63-1.63-.63l.4-.59Z"/>
    <path class="cls-6" d="M39.74,532.04h.83v.84h-.83v-.84ZM39.75,533.74h.82v4.3h-.82v-4.3Z"/>
    <path class="cls-6" d="M41.87,533.74h.8v.57c0,.17-.02.31-.02.31h.02c.17-.37.68-.99,1.62-.99,1.01,0,1.48.55,1.48,1.65v2.75h-.82v-2.57c0-.6-.13-1.08-.82-1.08s-1.18.43-1.36,1.05c-.05.17-.07.37-.07.58v2.01h-.82v-4.3Z"/>
    <path class="cls-6" d="M48.85,533.64c1.21,0,1.86.9,1.86,2.01,0,.11-.03.36-.03.36h-3.14c.04.94.71,1.42,1.48,1.42s1.28-.5,1.28-.5l.34.6s-.64.61-1.67.61c-1.35,0-2.28-.98-2.28-2.25,0-1.37.93-2.25,2.15-2.25ZM49.87,535.39c-.03-.74-.48-1.1-1.04-1.1-.63,0-1.14.39-1.26,1.1h2.29Z"/>
    <path class="cls-6" d="M51.76,536.93s.48.5,1.23.5c.36,0,.71-.19.71-.54,0-.79-2.21-.63-2.21-2.03,0-.78.7-1.22,1.55-1.22.94,0,1.38.48,1.38.48l-.33.62s-.38-.38-1.06-.38c-.36,0-.71.15-.71.53,0,.77,2.21.6,2.21,2.01,0,.71-.61,1.25-1.56,1.25-1.05,0-1.63-.63-1.63-.63l.4-.59Z"/>
    <path class="cls-6" d="M55.57,536.93s.48.5,1.23.5c.36,0,.71-.19.71-.54,0-.79-2.21-.63-2.21-2.03,0-.78.7-1.22,1.56-1.22.94,0,1.38.48,1.38.48l-.33.62s-.38-.38-1.06-.38c-.36,0-.71.15-.71.53,0,.77,2.21.6,2.21,2.01,0,.71-.61,1.25-1.56,1.25-1.05,0-1.63-.63-1.63-.63l.4-.59Z"/>
  </g>
  <g class="cls-1">
    <path class="cls-7" d="M10.37,450.38c0,18.77,15.21,33.98,33.98,33.98s33.98-15.21,33.98-33.98-15.21-33.98-33.98-33.98-33.98,15.21-33.98,33.98"/>
    <path class="cls-4" d="M10.37,450.38c0,18.77,15.21,33.98,33.98,33.98s33.98-15.21,33.98-33.98-15.21-33.98-33.98-33.98-33.98,15.21-33.98,33.98Z"/>
    <path class="cls-3" d="M34.09,482.78c6.57,2.07,13.65,2.1,20.23.09"/>
  </g>
  <g>
    <path class="cls-6" d="M25.44,455.6c0-4.23,4.95-4.98,4.95-6.63,0-.8-.64-1.14-1.23-1.14-1.09,0-1.7,1.22-1.7,1.22l-2.08-1.39s1.06-2.46,4.03-2.46c1.87,0,3.91,1.07,3.91,3.51,0,3.57-4.61,4.26-4.69,5.73h4.87v2.4h-7.92c-.08-.45-.13-.85-.13-1.23Z"/>
    <path class="cls-6" d="M35.1,451.09c0-3.28,1.06-5.89,4.3-5.89s4.31,2.61,4.31,5.89-1.06,5.94-4.31,5.94-4.3-2.66-4.3-5.94ZM40.83,451.09c0-1.86-.32-3.33-1.43-3.33s-1.42,1.47-1.42,3.33.32,3.38,1.42,3.38,1.43-1.5,1.43-3.38Z"/>
    <path class="cls-6" d="M45.42,454.44h2.43v-4.77c0-.43.02-.88.02-.88h-.03s-.14.32-.45.61l-.69.62-1.62-1.73,3.09-2.9h2.42v9.04h2.45v2.4h-7.62v-2.4Z"/>
    <path class="cls-6" d="M54.3,454.44h2.43v-4.77c0-.43.02-.88.02-.88h-.03s-.14.32-.45.61l-.69.62-1.62-1.73,3.09-2.9h2.42v9.04h2.45v2.4h-7.62v-2.4Z"/>
  </g>
  <line class="cls-4" x1="44.35" y1="515.03" x2="44.35" y2="491.36"/>
  <g>
    <path class="cls-6" d="M18.66,314.57h3.31v.73h-2.46v1.97h2.1v.73h-2.1v2.57h-.84v-6Z"/>
    <path class="cls-6" d="M22.91,314.57h.83v.84h-.83v-.84ZM22.92,316.27h.82v4.3h-.82v-4.3Z"/>
    <path class="cls-6" d="M25.04,316.27h.8v.75c0,.18-.02.32-.02.32h.02c.2-.63.7-1.12,1.36-1.12.11,0,.21.02.21.02v.82s-.11-.03-.24-.03c-.53,0-1.01.37-1.21,1.01-.08.25-.1.51-.1.77v1.76h-.82v-4.3Z"/>
    <path class="cls-6" d="M28.27,319.46s.48.5,1.23.5c.36,0,.71-.19.71-.54,0-.79-2.21-.63-2.21-2.03,0-.78.7-1.22,1.56-1.22.94,0,1.38.48,1.38.48l-.33.62s-.38-.38-1.06-.38c-.36,0-.71.15-.71.53,0,.77,2.21.6,2.21,2.01,0,.71-.61,1.25-1.56,1.25-1.05,0-1.63-.63-1.63-.63l.4-.59Z"/>
    <path class="cls-6" d="M32.21,317h-.56v-.66h.59v-1.24h.8v1.24h1.04v.66h-1.04v1.91c0,.86.6.97.92.97.12,0,.2-.02.2-.02v.73s-.12.02-.29.02c-.55,0-1.65-.17-1.65-1.61v-2.01Z"/>
    <path class="cls-6" d="M37.43,314.57h1.84c.63,0,.89.05,1.12.14.61.23,1.01.83,1.01,1.62s-.42,1.41-1.08,1.62v.02s.07.08.18.27l1.28,2.33h-.95l-1.27-2.39h-1.28v2.39h-.84v-6ZM39.48,317.45c.65,0,1.06-.42,1.06-1.09,0-.44-.17-.76-.48-.93-.16-.08-.36-.14-.82-.14h-.97v2.15h1.21Z"/>
    <path class="cls-6" d="M44.71,316.17c1.28,0,2.32.94,2.32,2.24s-1.04,2.26-2.32,2.26-2.32-.95-2.32-2.26,1.04-2.24,2.32-2.24ZM44.71,319.96c.82,0,1.48-.65,1.48-1.55s-.66-1.53-1.48-1.53-1.48.64-1.48,1.53.67,1.55,1.48,1.55Z"/>
    <path class="cls-6" d="M47.95,316.27h.82v2.57c0,.59.12,1.07.81,1.07.88,0,1.39-.77,1.39-1.62v-2.01h.82v4.3h-.8v-.57c0-.18.02-.31.02-.31h-.02c-.18.42-.74.99-1.58.99-.97,0-1.47-.51-1.47-1.65v-2.75Z"/>
    <path class="cls-6" d="M53.1,316.27h.8v.57c0,.17-.02.31-.02.31h.02c.17-.37.68-.99,1.62-.99,1.01,0,1.48.55,1.48,1.65v2.75h-.82v-2.57c0-.6-.13-1.08-.82-1.08s-1.18.43-1.36,1.05c-.05.17-.07.37-.07.58v2.01h-.82v-4.3Z"/>
    <path class="cls-6" d="M59.89,316.17c.99,0,1.33.68,1.33.68h.02s-.02-.13-.02-.29v-1.99h.82v6h-.78v-.41c0-.17,0-.29,0-.29h-.02s-.35.8-1.41.8c-1.17,0-1.9-.92-1.9-2.25s.81-2.25,1.95-2.25ZM60,319.96c.64,0,1.24-.45,1.24-1.55,0-.76-.4-1.53-1.22-1.53-.68,0-1.24.56-1.24,1.54s.5,1.54,1.22,1.54Z"/>
    <path class="cls-6" d="M67.52,316.17c1.28,0,2.32.94,2.32,2.24s-1.04,2.26-2.32,2.26-2.32-.95-2.32-2.26,1.04-2.24,2.32-2.24ZM67.52,319.96c.82,0,1.48-.65,1.48-1.55s-.66-1.53-1.48-1.53-1.48.64-1.48,1.53.67,1.55,1.48,1.55Z"/>
    <path class="cls-6" d="M71.02,317h-.54v-.66h.54v-.2c0-1.42,1.07-1.6,1.62-1.6.19,0,.31.03.31.03v.71s-.08-.02-.21-.02c-.31,0-.9.1-.9.9v.19h1.02v.66h-1.02v3.58h-.82v-3.58Z"/>
    <path class="cls-6" d="M77.69,316.17c1.21,0,1.86.9,1.86,2.01,0,.11-.03.36-.03.36h-3.14c.04.94.71,1.42,1.48,1.42s1.28-.5,1.28-.5l.34.6s-.64.61-1.67.61c-1.35,0-2.28-.98-2.28-2.25,0-1.37.93-2.25,2.15-2.25ZM78.7,317.92c-.03-.74-.48-1.1-1.04-1.1-.63,0-1.14.39-1.26,1.1h2.29Z"/>
    <path class="cls-6" d="M82.22,316.17c.99,0,1.36.72,1.36.72h.02s0-.13,0-.3v-.32h.78v6h-.82v-1.96c0-.22.02-.37.02-.37h-.02s-.36.74-1.38.74c-1.17,0-1.9-.92-1.9-2.25s.81-2.25,1.95-2.25ZM82.33,319.96c.64,0,1.24-.45,1.24-1.55,0-.76-.4-1.53-1.22-1.53-.68,0-1.24.56-1.24,1.54s.5,1.54,1.21,1.54Z"/>
    <path class="cls-6" d="M85.6,316.27h.82v2.57c0,.59.12,1.07.81,1.07.88,0,1.39-.77,1.39-1.62v-2.01h.82v4.3h-.8v-.57c0-.18.02-.31.02-.31h-.02c-.18.42-.74.99-1.58.99-.97,0-1.47-.51-1.47-1.65v-2.75Z"/>
    <path class="cls-6" d="M90.73,314.57h.83v.84h-.83v-.84ZM90.74,316.27h.82v4.3h-.82v-4.3Z"/>
    <path class="cls-6" d="M93.04,317h-.56v-.66h.59v-1.24h.8v1.24h1.04v.66h-1.04v1.91c0,.86.6.97.92.97.12,0,.2-.02.2-.02v.73s-.12.02-.29.02c-.55,0-1.65-.17-1.65-1.61v-2.01Z"/>
    <path class="cls-6" d="M95.59,321.47s.24.18.5.18c.33,0,.61-.24.77-.63l.21-.49-1.8-4.25h.93l1.08,2.81c.09.22.16.52.16.52h.02s.07-.29.14-.51l1.05-2.82h.89l-2.02,5.07c-.26.66-.79,1.01-1.39,1.01-.48,0-.83-.26-.83-.26l.29-.63Z"/>
    <path class="cls-6" d="M102.41,314.57h.83v.84h-.83v-.84ZM102.42,316.27h.82v4.3h-.82v-4.3Z"/>
    <path class="cls-6" d="M104.54,316.27h.8v.57c0,.17-.02.31-.02.31h.02c.17-.37.68-.99,1.61-.99,1.01,0,1.48.55,1.48,1.65v2.75h-.82v-2.57c0-.6-.13-1.08-.82-1.08s-1.18.43-1.36,1.05c-.05.17-.07.37-.07.58v2.01h-.82v-4.3Z"/>
    <path class="cls-6" d="M109.87,317h-.54v-.66h.54v-.2c0-1.42,1.07-1.6,1.61-1.6.19,0,.31.03.31.03v.71s-.08-.02-.21-.02c-.31,0-.9.1-.9.9v.19h1.02v.66h-1.02v3.58h-.82v-3.58Z"/>
    <path class="cls-6" d="M112.44,316.27h.82v2.57c0,.59.12,1.07.81,1.07.88,0,1.39-.77,1.39-1.62v-2.01h.82v4.3h-.8v-.57c0-.18.02-.31.02-.31h-.02c-.18.42-.74.99-1.58.99-.97,0-1.47-.51-1.47-1.65v-2.75Z"/>
    <path class="cls-6" d="M117.63,319.46s.48.5,1.23.5c.36,0,.71-.19.71-.54,0-.79-2.21-.63-2.21-2.03,0-.78.7-1.22,1.56-1.22.94,0,1.39.48,1.39.48l-.33.62s-.38-.38-1.06-.38c-.36,0-.71.15-.71.53,0,.77,2.21.6,2.21,2.01,0,.71-.61,1.25-1.56,1.25-1.05,0-1.63-.63-1.63-.63l.4-.59Z"/>
    <path class="cls-6" d="M121.38,314.57h.83v.84h-.83v-.84ZM121.39,316.27h.82v4.3h-.82v-4.3Z"/>
    <path class="cls-6" d="M125.51,316.17c1.28,0,2.32.94,2.32,2.24s-1.04,2.26-2.32,2.26-2.32-.95-2.32-2.26,1.04-2.24,2.32-2.24ZM125.51,319.96c.82,0,1.48-.65,1.48-1.55s-.66-1.53-1.48-1.53-1.48.64-1.48,1.53.67,1.55,1.48,1.55Z"/>
    <path class="cls-6" d="M128.81,316.27h.8v.57c0,.17-.02.31-.02.31h.02c.17-.37.68-.99,1.62-.99,1.01,0,1.48.55,1.48,1.65v2.75h-.82v-2.57c0-.6-.13-1.08-.82-1.08s-1.18.43-1.36,1.05c-.05.17-.07.37-.07.58v2.01h-.82v-4.3Z"/>
  </g>
  <g>
    <path class="cls-6" d="M18.3,328.17c1.08,0,1.62.63,1.62.63l-.39.58s-.46-.49-1.19-.49c-.87,0-1.5.65-1.5,1.53s.63,1.55,1.52,1.55c.8,0,1.33-.58,1.33-.58l.33.6s-.59.69-1.72.69c-1.35,0-2.3-.96-2.3-2.25s.95-2.25,2.3-2.25Z"/>
    <path class="cls-6" d="M22.96,328.17c1.28,0,2.32.94,2.32,2.24s-1.04,2.26-2.32,2.26-2.32-.95-2.32-2.26,1.04-2.24,2.32-2.24ZM22.96,331.96c.82,0,1.48-.65,1.48-1.55s-.66-1.53-1.48-1.53-1.48.64-1.48,1.53.67,1.55,1.48,1.55Z"/>
    <path class="cls-6" d="M26.26,328.27h.8v.57c0,.17-.02.31-.02.31h.02c.2-.5.81-.99,1.48-.99.72,0,1.15.33,1.29.98h.02c.24-.52.83-.98,1.53-.98.97,0,1.42.55,1.42,1.65v2.75h-.82v-2.58c0-.6-.12-1.08-.76-1.08-.6,0-1.05.51-1.21,1.1-.04.18-.06.37-.06.6v1.96h-.82v-2.58c0-.56-.08-1.08-.75-1.08-.63,0-1.07.52-1.23,1.13-.04.17-.05.37-.05.56v1.96h-.82v-4.3Z"/>
    <path class="cls-6" d="M34.03,328.27h.76v.37c0,.17-.02.31-.02.31h.02s.37-.78,1.44-.78c1.16,0,1.89.92,1.89,2.25s-.82,2.25-1.95,2.25c-.94,0-1.32-.71-1.32-.71h-.02s.02.15.02.37v1.93h-.82v-6ZM36.04,331.97c.68,0,1.24-.56,1.24-1.54s-.5-1.54-1.21-1.54c-.65,0-1.24.45-1.24,1.55,0,.76.42,1.53,1.22,1.53Z"/>
    <path class="cls-6" d="M39.08,326.58h.83v4.68c0,.52.2.61.46.61.08,0,.14,0,.14,0v.73s-.13.02-.27.02c-.47,0-1.16-.13-1.16-1.21v-4.83Z"/>
    <path class="cls-6" d="M43.23,328.17c1.22,0,1.86.9,1.86,2.01,0,.11-.03.36-.03.36h-3.14c.04.94.71,1.42,1.48,1.42s1.28-.5,1.28-.5l.34.6s-.64.61-1.67.61c-1.35,0-2.28-.98-2.28-2.25,0-1.37.93-2.25,2.15-2.25ZM44.26,329.92c-.03-.74-.48-1.1-1.04-1.1-.63,0-1.14.39-1.26,1.1h2.29Z"/>
    <path class="cls-6" d="M46.28,329h-.56v-.66h.59v-1.24h.8v1.24h1.04v.66h-1.04v1.91c0,.86.6.97.92.97.12,0,.2-.02.2-.02v.73s-.12.02-.29.02c-.55,0-1.65-.17-1.65-1.61v-2.01Z"/>
    <path class="cls-6" d="M51,328.17c1.21,0,1.86.9,1.86,2.01,0,.11-.03.36-.03.36h-3.14c.04.94.71,1.42,1.48,1.42s1.28-.5,1.28-.5l.34.6s-.64.61-1.67.61c-1.35,0-2.28-.98-2.28-2.25,0-1.37.93-2.25,2.15-2.25ZM52.02,329.92c-.03-.74-.48-1.1-1.04-1.1-.63,0-1.14.39-1.26,1.1h2.29Z"/>
    <path class="cls-6" d="M55.52,328.17c1,0,1.33.68,1.33.68h.02s-.02-.13-.02-.29v-1.99h.82v6h-.78v-.41c0-.17,0-.29,0-.29h-.02s-.35.8-1.41.8c-1.16,0-1.89-.92-1.89-2.25s.81-2.25,1.95-2.25ZM55.64,331.96c.64,0,1.24-.45,1.24-1.55,0-.76-.4-1.53-1.21-1.53-.68,0-1.24.56-1.24,1.54s.5,1.54,1.21,1.54Z"/>
    <path class="cls-6" d="M61.15,326.58h.82v1.96c0,.21-.02.37-.02.37h.02s.37-.73,1.38-.73c1.16,0,1.89.92,1.89,2.25s-.82,2.25-1.95,2.25c-.96,0-1.35-.74-1.35-.74h-.02s.02.14.02.32v.31h-.78v-6ZM63.17,331.97c.68,0,1.24-.56,1.24-1.54s-.5-1.54-1.21-1.54c-.65,0-1.24.45-1.24,1.55,0,.76.4,1.53,1.22,1.53Z"/>
    <path class="cls-6" d="M65.94,333.47s.24.18.5.18c.33,0,.61-.24.77-.63l.21-.49-1.8-4.25h.93l1.08,2.81c.08.22.16.52.16.52h.02s.07-.29.14-.51l1.04-2.82h.89l-2.01,5.07c-.26.66-.79,1.01-1.39,1.01-.48,0-.83-.26-.83-.26l.29-.63Z"/>
    <path class="cls-6" d="M72.96,331.25s.64.65,1.53.65c.56,0,1.04-.31,1.04-.88,0-1.3-2.91-1.02-2.91-2.86,0-.94.81-1.67,1.94-1.67s1.7.6,1.7.6l-.38.7s-.55-.52-1.32-.52c-.64,0-1.09.4-1.09.88,0,1.24,2.91.91,2.91,2.86,0,.93-.71,1.69-1.9,1.69-1.28,0-1.99-.79-1.99-.79l.48-.64Z"/>
    <path class="cls-6" d="M80.23,326.47c1.45,0,2.18.79,2.18.79l-.42.63s-.7-.66-1.73-.66c-1.34,0-2.22,1.02-2.22,2.29s.89,2.37,2.23,2.37c1.13,0,1.85-.78,1.85-.78l.45.6s-.82.95-2.33.95c-1.8,0-3.07-1.38-3.07-3.14s1.31-3.07,3.05-3.07Z"/>
    <path class="cls-6" d="M83.63,326.58h.84v3.88c0,.92.6,1.45,1.51,1.45s1.53-.54,1.53-1.47v-3.86h.84v3.88c0,1.33-.96,2.23-2.36,2.23s-2.36-.89-2.36-2.23v-3.88Z"/>
    <path class="cls-6" d="M89.91,326.58h3.31v.73h-2.46v1.97h2.1v.73h-2.1v2.57h-.84v-6Z"/>
    <path class="cls-6" d="M94.23,329.34l.76-.93v-.02l-1.16-.31.22-.71,1.13.42-.06-1.21h.77l-.07,1.21,1.14-.42.23.71-1.17.31v.02l.75.93-.6.44-.66-1h-.02l-.66,1-.61-.44Z"/>
    <path class="cls-6" d="M102.56,329.89h.19v-.08c0-.71-.4-.94-.94-.94-.66,0-1.2.42-1.2.42l-.34-.6s.62-.51,1.61-.51c1.09,0,1.7.59,1.7,1.68v2.72h-.77v-.41c0-.2.02-.34.02-.34h-.02s-.35.85-1.38.85c-.74,0-1.46-.45-1.46-1.31,0-1.42,1.87-1.48,2.59-1.48ZM101.61,332.01c.7,0,1.15-.73,1.15-1.37v-.14h-.21c-.62,0-1.74.04-1.74.82,0,.35.27.69.81.69Z"/>
    <path class="cls-6" d="M104.81,328.27h.8v.57c0,.17-.02.31-.02.31h.02c.17-.37.68-.99,1.62-.99,1.01,0,1.48.55,1.48,1.65v2.75h-.82v-2.57c0-.6-.13-1.08-.82-1.08s-1.18.43-1.36,1.05c-.05.17-.07.37-.07.58v2.01h-.82v-4.3Z"/>
    <path class="cls-6" d="M111.6,328.17c.99,0,1.33.68,1.33.68h.02s-.02-.13-.02-.29v-1.99h.82v6h-.78v-.41c0-.17,0-.29,0-.29h-.02s-.35.8-1.41.8c-1.16,0-1.9-.92-1.9-2.25s.81-2.25,1.95-2.25ZM111.71,331.96c.64,0,1.24-.45,1.24-1.55,0-.76-.4-1.53-1.21-1.53-.68,0-1.24.56-1.24,1.54s.5,1.54,1.22,1.54Z"/>
    <path class="cls-6" d="M116.63,326.58h.91l1.49,4.24c.11.32.23.83.23.83h.02s.12-.5.23-.83l1.5-4.24h.89l-2.21,6h-.84l-2.22-6Z"/>
    <path class="cls-6" d="M124.67,329.89h.19v-.08c0-.71-.4-.94-.94-.94-.66,0-1.2.42-1.2.42l-.34-.6s.62-.51,1.61-.51c1.09,0,1.7.59,1.7,1.68v2.72h-.76v-.41c0-.2.02-.34.02-.34h-.02s-.35.85-1.38.85c-.74,0-1.46-.45-1.46-1.31,0-1.42,1.87-1.48,2.59-1.48ZM123.72,332.01c.7,0,1.15-.73,1.15-1.37v-.14h-.21c-.62,0-1.74.04-1.74.82,0,.35.27.69.81.69Z"/>
    <path class="cls-6" d="M126.86,326.58h.83v4.68c0,.52.2.61.46.61.08,0,.14,0,.14,0v.73s-.13.02-.27.02c-.47,0-1.16-.13-1.16-1.21v-4.83Z"/>
    <path class="cls-6" d="M129.16,326.58h.83v.84h-.83v-.84ZM129.17,328.27h.82v4.3h-.82v-4.3Z"/>
    <path class="cls-6" d="M133.53,329.89h.19v-.08c0-.71-.4-.94-.94-.94-.66,0-1.2.42-1.2.42l-.34-.6s.62-.51,1.61-.51c1.09,0,1.7.59,1.7,1.68v2.72h-.76v-.41c0-.2.02-.34.02-.34h-.02s-.35.85-1.38.85c-.74,0-1.46-.45-1.46-1.31,0-1.42,1.87-1.48,2.59-1.48ZM132.58,332.01c.7,0,1.15-.73,1.15-1.37v-.14h-.21c-.62,0-1.74.04-1.74.82,0,.35.27.69.81.69Z"/>
    <path class="cls-6" d="M135.77,328.27h.8v.57c0,.17-.02.31-.02.31h.02c.17-.37.68-.99,1.62-.99,1.01,0,1.48.55,1.48,1.65v2.75h-.82v-2.57c0-.6-.13-1.08-.82-1.08s-1.18.43-1.36,1.05c-.05.17-.07.37-.07.58v2.01h-.82v-4.3Z"/>
    <path class="cls-6" d="M141.08,329h-.56v-.66h.59v-1.24h.8v1.24h1.04v.66h-1.04v1.91c0,.86.6.97.92.97.12,0,.2-.02.2-.02v.73s-.12.02-.29.02c-.55,0-1.65-.17-1.65-1.61v-2.01Z"/>
  </g>
  <line class="cls-4" x1="149.01" y1="323.57" x2="172.68" y2="323.57"/>
  <g class="cls-8">
    <path class="cls-7" d="M213.66,289.59c-18.77,0-33.98,15.21-33.98,33.98s15.21,33.98,33.98,33.98,33.98-15.21,33.98-33.98-15.21-33.98-33.98-33.98"/>
    <path class="cls-4" d="M213.66,289.59c-18.77,0-33.98,15.21-33.98,33.98s15.21,33.98,33.98,33.98,33.98-15.21,33.98-33.98-15.21-33.98-33.98-33.98Z"/>
    <path class="cls-3" d="M181.26,313.32c-2.07,6.57-2.1,13.65-.09,20.23"/>
  </g>
  <g>
    <path class="cls-6" d="M194.03,327.92c0-4.23,4.95-4.98,4.95-6.63,0-.8-.64-1.14-1.23-1.14-1.09,0-1.7,1.22-1.7,1.22l-2.08-1.39s1.06-2.46,4.03-2.46c1.87,0,3.91,1.07,3.91,3.51,0,3.57-4.61,4.26-4.69,5.73h4.87v2.4h-7.92c-.08-.45-.13-.85-.13-1.23Z"/>
    <path class="cls-6" d="M203.7,323.41c0-3.28,1.06-5.89,4.31-5.89s4.3,2.61,4.3,5.89-1.06,5.94-4.3,5.94-4.31-2.66-4.31-5.94ZM209.43,323.41c0-1.86-.32-3.33-1.42-3.33s-1.43,1.47-1.43,3.33.32,3.38,1.43,3.38,1.42-1.5,1.42-3.38Z"/>
    <path class="cls-6" d="M214.02,326.75h2.43v-4.77c0-.43.02-.88.02-.88h-.03s-.14.32-.45.61l-.69.62-1.62-1.73,3.09-2.9h2.42v9.04h2.45v2.4h-7.62v-2.4Z"/>
    <path class="cls-6" d="M222.42,324.69l4.42-6.98h3.42v6.35h1.36v2.32h-1.36v2.77h-2.77v-2.77h-5.07v-1.7ZM227.49,324.06v-2.56c0-.62.1-1.28.1-1.28h-.03s-.24.7-.56,1.18l-1.73,2.62v.03h2.23Z"/>
  </g>
  <g class="cls-11">
    <path class="cls-7" d="M41.68,189.19c18.76.33,34.24-14.62,34.57-33.38.33-18.76-14.62-34.24-33.38-34.57-18.76-.33-34.24,14.62-34.57,33.38-.33,18.76,14.62,34.24,33.38,34.57"/>
    <path class="cls-4" d="M41.68,189.19c18.76.33,34.24-14.62,34.57-33.38.33-18.76-14.62-34.24-33.38-34.57-18.76-.33-34.24,14.62-34.57,33.38-.33,18.76,14.62,34.24,33.38,34.57Z"/>
    <path class="cls-3" d="M74.49,166.04c2.19-6.53,2.34-13.61.44-20.23"/>
  </g>
  <g>
    <path class="cls-6" d="M24.59,159.58c0-4.23,4.95-4.98,4.95-6.63,0-.8-.64-1.14-1.23-1.14-1.09,0-1.7,1.22-1.7,1.22l-2.08-1.39s1.06-2.46,4.03-2.46c1.87,0,3.91,1.07,3.91,3.51,0,3.57-4.61,4.26-4.69,5.73h4.87v2.4h-7.92c-.08-.45-.13-.85-.13-1.23Z"/>
    <path class="cls-6" d="M34.26,155.07c0-3.28,1.06-5.89,4.31-5.89s4.3,2.61,4.3,5.89-1.06,5.94-4.3,5.94-4.31-2.66-4.31-5.94ZM39.99,155.07c0-1.86-.32-3.33-1.42-3.33s-1.43,1.47-1.43,3.33.32,3.38,1.43,3.38,1.42-1.5,1.42-3.38Z"/>
    <path class="cls-6" d="M44.58,158.41h2.43v-4.77c0-.43.02-.88.02-.88h-.03s-.14.32-.45.61l-.69.62-1.62-1.73,3.09-2.9h2.42v9.04h2.45v2.4h-7.62v-2.4Z"/>
    <path class="cls-6" d="M53.3,155.53c0-3.1,1.9-6.35,5.46-6.35,1.6,0,2.53.5,2.53.5l-.75,2.4s-.75-.34-1.57-.34c-1.34,0-2.11.83-2.46,1.89h.03c.27-.19,1.03-.4,1.57-.4,2.39,0,3.75,1.95,3.75,3.92s-1.42,3.86-3.91,3.86c-2.3,0-4.64-1.74-4.64-5.47ZM59.09,157.16c0-.82-.5-1.68-1.73-1.68-.64,0-1.18.16-1.18.69,0,1.36.96,2.27,1.76,2.27.71,0,1.15-.61,1.15-1.28Z"/>
  </g>
  <path class="cls-5" d="M117.11,160.77h-1.18c-.04.43-.16.81-.37,1.12-.21.32-.45.58-.74.79s-.61.37-.96.47-.69.16-1.02.16h-.14s0,.02,0,.02,0,.01,0,.02c.57.57,1.15,1.2,1.73,1.9s1.15,1.39,1.72,2.09v.12h-1.79c-.29-.35-.59-.73-.92-1.12-.32-.4-.64-.79-.95-1.17-.32-.38-.62-.73-.9-1.06-.29-.32-.53-.58-.74-.77.07-.19.13-.38.19-.56s.11-.38.17-.58c.34.08.66.12.95.12.54,0,1.02-.12,1.44-.38.42-.25.67-.65.76-1.19h-3.39v-1.14h3.33c-.13-.34-.34-.59-.64-.76-.3-.17-.66-.25-1.08-.25h-1.6v-1.15h6.7l-.55,1.15h-2.05v.06c.13.07.27.19.41.35.15.17.26.36.34.59h1.86l-.55,1.14Z"/>
  <g>
    <path class="cls-5" d="M118.69,165.22h2.28v-4.47c0-.4.01-.83.01-.83h-.03s-.13.3-.42.57l-.64.58-1.52-1.62,2.9-2.71h2.26v8.47h2.29v2.25h-7.14v-2.25Z"/>
    <path class="cls-5" d="M127.39,164.98h2.47l-1.7,4.15h-1.9l1.12-4.15Z"/>
    <path class="cls-5" d="M131.17,162.09c0-3.07.99-5.52,4.04-5.52s4.04,2.45,4.04,5.52-.99,5.56-4.04,5.56-4.04-2.49-4.04-5.56ZM136.54,162.09c0-1.74-.3-3.12-1.33-3.12s-1.33,1.38-1.33,3.12.3,3.17,1.33,3.17,1.33-1.41,1.33-3.17Z"/>
    <path class="cls-5" d="M140.77,162.09c0-3.07.99-5.52,4.03-5.52s4.04,2.45,4.04,5.52-.99,5.56-4.04,5.56-4.03-2.49-4.03-5.56ZM146.14,162.09c0-1.74-.3-3.12-1.34-3.12s-1.33,1.38-1.33,3.12.3,3.17,1.33,3.17,1.34-1.41,1.34-3.17Z"/>
    <path class="cls-5" d="M150.37,162.09c0-3.07.99-5.52,4.03-5.52s4.03,2.45,4.03,5.52-.99,5.56-4.03,5.56-4.03-2.49-4.03-5.56ZM155.74,162.09c0-1.74-.3-3.12-1.33-3.12s-1.33,1.38-1.33,3.12.3,3.17,1.33,3.17,1.33-1.41,1.33-3.17Z"/>
  </g>
  <g>
    <path class="cls-5" d="M164.45,163.26c1.12,0,1.64.62,1.64.62l-.58.93s-.4-.4-.97-.4c-.65,0-.98.5-.98.98s.34,1.02,1.03,1.02c.58,0,1.13-.5,1.13-.5l.5.97s-.62.68-1.77.68c-1.47,0-2.29-1.02-2.29-2.16s.82-2.15,2.29-2.15Z"/>
    <path class="cls-5" d="M166.87,163.35h1.33v.7c0,.14-.02.26-.02.26h.02c.18-.56.7-1.02,1.31-1.02.08,0,.16.02.16.02v1.36s-.11-.02-.28-.02c-.33,0-.86.1-1.06.72-.05.15-.07.34-.07.56v1.56h-1.38v-4.12Z"/>
    <path class="cls-5" d="M172.33,163.26c1.3,0,2.34.87,2.34,2.17s-1.04,2.14-2.33,2.14-2.33-.86-2.33-2.14,1.04-2.17,2.33-2.17ZM172.34,166.42c.5,0,.94-.38.94-.99s-.43-1.02-.94-1.02-.94.39-.94,1.02.43.99.94.99Z"/>
    <path class="cls-5" d="M175.4,163.35h1.33v.7c0,.14-.02.26-.02.26h.02c.18-.56.7-1.02,1.31-1.02.08,0,.16.02.16.02v1.36s-.11-.02-.28-.02c-.33,0-.86.1-1.06.72-.05.15-.07.34-.07.56v1.56h-1.38v-4.12Z"/>
    <path class="cls-5" d="M180.69,163.26c1.21,0,1.9.85,1.9,1.99,0,.14-.03.43-.03.43h-2.6c.1.5.52.74.96.74.59,0,1.13-.42,1.13-.42l.51.97s-.66.6-1.76.6c-1.47,0-2.26-1.06-2.26-2.16,0-1.21.81-2.15,2.14-2.15ZM181.2,164.89c0-.31-.22-.59-.54-.59-.4,0-.59.29-.66.59h1.21Z"/>
  </g>
  <g>
    <path class="cls-6" d="M114.14,147.27h-2.26l-.6,1.73h-.87l2.16-6h.88l2.16,6h-.88l-.6-1.73ZM113.01,143.82s-.14.54-.24.85l-.67,1.9h1.82l-.66-1.9c-.1-.31-.23-.85-.23-.85h-.02Z"/>
    <path class="cls-6" d="M116.37,142.99h.84v3.88c0,.92.59,1.45,1.51,1.45s1.53-.54,1.53-1.47v-3.86h.84v3.88c0,1.33-.96,2.23-2.36,2.23s-2.36-.89-2.36-2.23v-3.88Z"/>
    <path class="cls-6" d="M122.94,142.99h.88l1.38,3.25c.14.33.3.81.3.81h.02s.16-.48.3-.81l1.38-3.25h.88l.48,6h-.83l-.3-3.78c-.03-.37,0-.88,0-.88h-.02s-.18.55-.32.88l-1.2,2.7h-.75l-1.19-2.7c-.13-.32-.32-.9-.32-.9h-.02s0,.54-.02.9l-.29,3.78h-.84l.48-6Z"/>
  </g>
  <path class="cls-5" d="M290.81,100.54h-1.18c-.04.43-.16.81-.37,1.12-.21.32-.45.58-.74.79s-.61.37-.96.47c-.35.1-.69.16-1.02.16h-.14s0,.02,0,.02c0,0,0,.01,0,.02.57.57,1.14,1.2,1.72,1.9s1.16,1.39,1.72,2.09v.12h-1.79c-.29-.35-.59-.73-.91-1.12s-.64-.79-.95-1.17c-.31-.38-.62-.73-.9-1.06-.28-.32-.53-.58-.74-.77.07-.19.13-.38.19-.56s.11-.38.17-.58c.34.08.66.12.94.12.54,0,1.02-.12,1.44-.38.42-.25.67-.65.76-1.19h-3.39v-1.14h3.33c-.13-.34-.34-.59-.65-.76-.3-.17-.66-.25-1.08-.25h-1.6v-1.15h6.7l-.55,1.15h-2.06v.06c.13.07.27.19.41.35s.26.36.34.59h1.86l-.55,1.14Z"/>
  <g>
    <path class="cls-5" d="M293.26,103.99s.96.96,2.21.96c.97,0,1.53-.48,1.53-1.06,0-.84-.84-1.19-2-1.19h-.75l-.55-1.27,1.41-1.69c.51-.62.93-1,.93-1v-.03s-.35.08-1.02.08h-2.57v-2.25h6.76v1.63l-2.17,2.5c1.59.35,2.59,1.6,2.59,3.1,0,1.83-1.29,3.66-3.97,3.66-2.4,0-3.66-1.41-3.66-1.41l1.26-2.02Z"/>
    <path class="cls-5" d="M301.51,104.76h2.47l-1.69,4.15h-1.91l1.12-4.15Z"/>
    <path class="cls-5" d="M305.3,101.86c0-3.07.99-5.52,4.04-5.52s4.04,2.45,4.04,5.52-.99,5.56-4.04,5.56-4.04-2.49-4.04-5.56ZM310.67,101.86c0-1.74-.3-3.12-1.33-3.12s-1.33,1.38-1.33,3.12.3,3.17,1.33,3.17,1.33-1.41,1.33-3.17Z"/>
    <path class="cls-5" d="M314.9,101.86c0-3.07.99-5.52,4.04-5.52s4.04,2.45,4.04,5.52-.99,5.56-4.04,5.56-4.04-2.49-4.04-5.56ZM320.27,101.86c0-1.74-.3-3.12-1.34-3.12s-1.33,1.38-1.33,3.12.3,3.17,1.33,3.17,1.34-1.41,1.34-3.17Z"/>
    <path class="cls-5" d="M324.5,101.86c0-3.07.99-5.52,4.04-5.52s4.04,2.45,4.04,5.52-.99,5.56-4.04,5.56-4.04-2.49-4.04-5.56ZM329.87,101.86c0-1.74-.3-3.12-1.34-3.12s-1.33,1.38-1.33,3.12.3,3.17,1.33,3.17,1.34-1.41,1.34-3.17Z"/>
  </g>
  <g>
    <path class="cls-5" d="M338.56,103.03c1.12,0,1.64.62,1.64.62l-.58.93s-.4-.4-.97-.4c-.66,0-.98.5-.98.98s.34,1.02,1.03,1.02c.57,0,1.13-.5,1.13-.5l.5.97s-.62.68-1.77.68c-1.47,0-2.29-1.02-2.29-2.16s.82-2.15,2.29-2.15Z"/>
    <path class="cls-5" d="M340.97,103.13h1.33v.7c0,.14-.02.26-.02.26h.02c.18-.56.7-1.02,1.31-1.02.08,0,.16.02.16.02v1.36s-.11-.02-.28-.02c-.33,0-.86.1-1.06.72-.05.15-.07.34-.07.56v1.56h-1.38v-4.12Z"/>
    <path class="cls-5" d="M346.44,103.03c1.3,0,2.34.87,2.34,2.17s-1.04,2.14-2.33,2.14-2.34-.86-2.34-2.14,1.04-2.17,2.33-2.17ZM346.44,106.19c.5,0,.94-.38.94-.99s-.43-1.02-.94-1.02-.94.39-.94,1.02.43.99.94.99Z"/>
    <path class="cls-5" d="M349.5,103.13h1.33v.7c0,.14-.02.26-.02.26h.02c.18-.56.7-1.02,1.31-1.02.08,0,.16.02.16.02v1.36s-.11-.02-.28-.02c-.33,0-.86.1-1.06.72-.05.15-.07.34-.07.56v1.56h-1.38v-4.12Z"/>
    <path class="cls-5" d="M354.79,103.03c1.21,0,1.9.85,1.9,1.99,0,.14-.03.43-.03.43h-2.6c.11.5.52.74.96.74.59,0,1.13-.42,1.13-.42l.51.97s-.66.6-1.76.6c-1.47,0-2.26-1.06-2.26-2.16,0-1.21.81-2.15,2.14-2.15ZM355.3,104.66c0-.31-.22-.59-.54-.59-.4,0-.59.29-.66.59h1.21Z"/>
  </g>
  <g>
    <path class="cls-6" d="M287.84,87.04h-2.26l-.59,1.73h-.87l2.16-6h.88l2.16,6h-.88l-.6-1.73ZM286.71,83.59s-.14.54-.24.85l-.67,1.9h1.82l-.66-1.9c-.1-.31-.23-.85-.23-.85h-.02Z"/>
    <path class="cls-6" d="M290.06,82.77h.84v3.88c0,.92.59,1.45,1.51,1.45s1.53-.54,1.53-1.47v-3.86h.84v3.88c0,1.33-.96,2.23-2.36,2.23s-2.36-.89-2.36-2.23v-3.88Z"/>
    <path class="cls-6" d="M296.63,82.77h.88l1.38,3.25c.14.33.3.81.3.81h.02s.16-.48.3-.81l1.38-3.25h.88l.48,6h-.83l-.3-3.78c-.03-.37,0-.88,0-.88h-.02s-.18.55-.32.88l-1.2,2.7h-.75l-1.19-2.7c-.14-.32-.32-.9-.32-.9h-.02s0,.54-.02.9l-.29,3.78h-.84l.48-6Z"/>
  </g>
  <path class="cls-5" d="M433.76,73.87h-1.19c-.04.43-.16.81-.37,1.12-.21.32-.45.58-.74.79-.29.21-.61.37-.96.47-.35.1-.69.16-1.02.16h-.13s0,.02,0,.02c0,0,0,.01,0,.02.57.57,1.15,1.2,1.73,1.9.58.69,1.15,1.39,1.72,2.09v.12h-1.79c-.29-.35-.6-.73-.92-1.12s-.64-.79-.95-1.17c-.32-.38-.62-.73-.9-1.06-.29-.32-.53-.58-.74-.77.07-.19.13-.38.19-.56.05-.19.11-.38.17-.58.34.08.65.12.95.12.54,0,1.02-.12,1.44-.38s.68-.65.77-1.19h-3.39v-1.14h3.33c-.13-.34-.35-.59-.64-.76-.3-.17-.66-.25-1.08-.25h-1.61v-1.15h6.71l-.55,1.15h-2.05v.06c.13.07.27.19.41.35s.26.36.34.59h1.86l-.55,1.14Z"/>
  <g>
    <path class="cls-5" d="M436.32,77.32s.97.96,2.18.96c.71,0,1.5-.44,1.5-1.32s-.74-1.33-1.71-1.33c-.82,0-1.44.36-1.44.36l-1.39-.52.43-5.61h6v2.25h-3.72l-.06.99c0,.21-.06.42-.06.42h.03s.38-.1.78-.1c2.55,0,3.84,1.59,3.84,3.52,0,2.22-1.63,3.83-3.97,3.83s-3.66-1.41-3.66-1.41l1.26-2.02Z"/>
    <path class="cls-5" d="M444.47,78.09h2.47l-1.69,4.15h-1.91l1.12-4.15Z"/>
    <path class="cls-5" d="M448.26,75.19c0-3.07.99-5.52,4.04-5.52s4.04,2.45,4.04,5.52-.99,5.56-4.04,5.56-4.04-2.49-4.04-5.56ZM453.63,75.19c0-1.74-.3-3.12-1.34-3.12s-1.33,1.38-1.33,3.12.3,3.17,1.33,3.17,1.34-1.41,1.34-3.17Z"/>
    <path class="cls-5" d="M457.86,75.19c0-3.07.99-5.52,4.04-5.52s4.04,2.45,4.04,5.52-.99,5.56-4.04,5.56-4.04-2.49-4.04-5.56ZM463.23,75.19c0-1.74-.3-3.12-1.34-3.12s-1.33,1.38-1.33,3.12.3,3.17,1.33,3.17,1.34-1.41,1.34-3.17Z"/>
    <path class="cls-5" d="M467.46,75.19c0-3.07.99-5.52,4.04-5.52s4.04,2.45,4.04,5.52-.99,5.56-4.04,5.56-4.04-2.49-4.04-5.56ZM472.83,75.19c0-1.74-.3-3.12-1.33-3.12s-1.34,1.38-1.34,3.12.3,3.17,1.34,3.17,1.33-1.41,1.33-3.17Z"/>
  </g>
  <g>
    <path class="cls-5" d="M481.5,76.36c1.12,0,1.64.62,1.64.62l-.58.93s-.4-.4-.97-.4c-.66,0-.98.5-.98.98s.34,1.02,1.03,1.02c.58,0,1.13-.5,1.13-.5l.5.97s-.62.68-1.77.68c-1.47,0-2.29-1.02-2.29-2.16s.81-2.15,2.29-2.15Z"/>
    <path class="cls-5" d="M483.92,76.46h1.33v.7c0,.14-.02.26-.02.26h.02c.18-.56.7-1.02,1.31-1.02.08,0,.16.02.16.02v1.36s-.11-.02-.28-.02c-.33,0-.86.1-1.06.72-.05.15-.07.34-.07.56v1.56h-1.38v-4.12Z"/>
    <path class="cls-5" d="M489.38,76.36c1.3,0,2.34.87,2.34,2.17s-1.04,2.14-2.33,2.14-2.33-.86-2.33-2.14,1.04-2.17,2.33-2.17ZM489.39,79.52c.5,0,.94-.38.94-.99s-.43-1.02-.94-1.02-.94.39-.94,1.02.43.99.94.99Z"/>
    <path class="cls-5" d="M492.45,76.46h1.33v.7c0,.14-.02.26-.02.26h.02c.18-.56.7-1.02,1.31-1.02.08,0,.16.02.16.02v1.36s-.11-.02-.28-.02c-.33,0-.86.1-1.06.72-.05.15-.07.34-.07.56v1.56h-1.38v-4.12Z"/>
    <path class="cls-5" d="M497.73,76.36c1.22,0,1.9.85,1.9,1.99,0,.14-.03.43-.03.43h-2.6c.1.5.52.74.96.74.59,0,1.13-.42,1.13-.42l.51.97s-.66.6-1.76.6c-1.47,0-2.26-1.06-2.26-2.16,0-1.21.82-2.15,2.14-2.15ZM498.25,77.99c0-.31-.21-.59-.54-.59-.4,0-.59.29-.66.59h1.21Z"/>
  </g>
  <g>
    <path class="cls-6" d="M430.78,60.37h-2.26l-.6,1.73h-.87l2.16-6h.88l2.16,6h-.88l-.6-1.73ZM429.65,56.92s-.13.54-.24.85l-.67,1.9h1.82l-.66-1.9c-.1-.31-.23-.85-.23-.85h-.02Z"/>
    <path class="cls-6" d="M433.01,56.1h.84v3.88c0,.92.6,1.45,1.51,1.45s1.53-.54,1.53-1.47v-3.86h.84v3.88c0,1.33-.96,2.23-2.36,2.23s-2.36-.89-2.36-2.23v-3.88Z"/>
    <path class="cls-6" d="M439.58,56.1h.88l1.38,3.25c.13.33.3.81.3.81h.02s.16-.48.3-.81l1.38-3.25h.88l.48,6h-.83l-.3-3.78c-.03-.37,0-.88,0-.88h-.02s-.18.55-.32.88l-1.2,2.7h-.75l-1.19-2.7c-.14-.32-.32-.9-.32-.9h-.02s0,.54-.02.9l-.29,3.78h-.84l.48-6Z"/>
  </g>
  <path class="cls-5" d="M433.76,29.37h-1.19c-.04.43-.16.81-.37,1.12-.21.32-.45.58-.74.79-.29.21-.61.37-.96.47-.35.1-.69.16-1.02.16h-.13s0,.02,0,.02c0,0,0,.01,0,.02.57.57,1.15,1.2,1.73,1.9.58.69,1.15,1.39,1.72,2.09v.12h-1.79c-.29-.35-.6-.73-.92-1.12s-.64-.79-.95-1.17c-.32-.38-.62-.73-.9-1.06-.29-.32-.53-.58-.74-.77.07-.19.13-.38.19-.56.05-.19.11-.38.17-.58.34.08.65.12.95.12.54,0,1.02-.12,1.44-.38s.68-.65.77-1.19h-3.39v-1.14h3.33c-.13-.34-.35-.59-.64-.76-.3-.17-.66-.25-1.08-.25h-1.61v-1.15h6.71l-.55,1.15h-2.05v.06c.13.07.27.19.41.35s.26.36.34.59h1.86l-.55,1.14Z"/>
  <g>
    <path class="cls-5" d="M436.32,32.82s.97.96,2.18.96c.71,0,1.5-.44,1.5-1.32s-.74-1.33-1.71-1.33c-.82,0-1.44.36-1.44.36l-1.39-.52.43-5.61h6v2.25h-3.72l-.06.99c0,.21-.06.42-.06.42h.03s.38-.1.78-.1c2.55,0,3.84,1.59,3.84,3.52,0,2.22-1.63,3.83-3.97,3.83s-3.66-1.41-3.66-1.41l1.26-2.02Z"/>
    <path class="cls-5" d="M444.02,30.69c0-3.07.99-5.52,4.04-5.52s4.04,2.45,4.04,5.52-.99,5.56-4.04,5.56-4.04-2.49-4.04-5.56ZM449.39,30.69c0-1.74-.3-3.12-1.33-3.12s-1.34,1.38-1.34,3.12.3,3.17,1.34,3.17,1.33-1.41,1.33-3.17Z"/>
    <path class="cls-5" d="M453.62,30.69c0-3.07.99-5.52,4.04-5.52s4.04,2.45,4.04,5.52-.99,5.56-4.04,5.56-4.04-2.49-4.04-5.56ZM458.99,30.69c0-1.74-.3-3.12-1.34-3.12s-1.33,1.38-1.33,3.12.3,3.17,1.33,3.17,1.34-1.41,1.34-3.17Z"/>
  </g>
  <g>
    <path class="cls-5" d="M467.7,31.86c1.12,0,1.64.62,1.64.62l-.58.93s-.4-.4-.97-.4c-.66,0-.98.5-.98.98s.34,1.02,1.03,1.02c.57,0,1.13-.5,1.13-.5l.5.97s-.62.68-1.77.68c-1.47,0-2.29-1.02-2.29-2.16s.82-2.15,2.29-2.15Z"/>
    <path class="cls-5" d="M470.12,31.96h1.33v.7c0,.14-.02.26-.02.26h.02c.18-.56.7-1.02,1.31-1.02.08,0,.16.02.16.02v1.36s-.11-.02-.28-.02c-.33,0-.86.1-1.06.72-.05.15-.07.34-.07.56v1.56h-1.38v-4.12Z"/>
    <path class="cls-5" d="M475.58,31.86c1.3,0,2.34.87,2.34,2.17s-1.04,2.14-2.33,2.14-2.34-.86-2.34-2.14,1.04-2.17,2.33-2.17ZM475.59,35.02c.5,0,.94-.38.94-.99s-.43-1.02-.94-1.02-.94.39-.94,1.02.43.99.94.99Z"/>
    <path class="cls-5" d="M478.65,31.96h1.33v.7c0,.14-.02.26-.02.26h.02c.18-.56.7-1.02,1.31-1.02.08,0,.16.02.16.02v1.36s-.11-.02-.28-.02c-.33,0-.86.1-1.06.72-.05.15-.07.34-.07.56v1.56h-1.38v-4.12Z"/>
    <path class="cls-5" d="M483.94,31.86c1.21,0,1.9.85,1.9,1.99,0,.14-.03.43-.03.43h-2.6c.11.5.52.74.96.74.59,0,1.13-.42,1.13-.42l.51.97s-.66.6-1.76.6c-1.47,0-2.26-1.06-2.26-2.16,0-1.21.81-2.15,2.14-2.15ZM484.45,33.5c0-.31-.22-.59-.54-.59-.4,0-.59.29-.66.59h1.21Z"/>
  </g>
  <g class="cls-10">
    <g>
      <path class="cls-6" d="M430.45-.1c1.45,0,2.19.79,2.19.79l-.42.63s-.7-.65-1.73-.65c-1.34,0-2.22,1.02-2.22,2.29s.89,2.37,2.23,2.37c1.13,0,1.85-.78,1.85-.78l.45.6s-.82.95-2.33.95c-1.8,0-3.07-1.38-3.07-3.14s1.31-3.07,3.05-3.07Z"/>
      <path class="cls-6" d="M436.02,3.32h.19v-.08c0-.71-.4-.94-.95-.94-.66,0-1.2.42-1.2.42l-.34-.6s.62-.51,1.61-.51c1.09,0,1.7.59,1.7,1.68v2.72h-.77v-.41c0-.2.02-.34.02-.34h-.02s-.35.85-1.38.85c-.74,0-1.46-.45-1.46-1.31,0-1.42,1.87-1.48,2.59-1.48ZM435.07,5.44c.7,0,1.15-.73,1.15-1.37v-.14h-.21c-.62,0-1.74.04-1.74.82,0,.35.27.69.81.69Z"/>
      <path class="cls-6" d="M438.26,1.7h.76v.37c0,.17-.02.31-.02.31h.02s.37-.78,1.45-.78c1.16,0,1.89.92,1.89,2.25s-.82,2.25-1.95,2.25c-.94,0-1.32-.71-1.32-.71h-.02s.02.15.02.37v1.93h-.82V1.7ZM440.28,5.4c.68,0,1.24-.56,1.24-1.54s-.5-1.54-1.22-1.54c-.64,0-1.24.45-1.24,1.55,0,.77.43,1.53,1.21,1.53Z"/>
      <path class="cls-6" d="M443.35,0h.83v.84h-.83V0ZM443.36,1.7h.82v4.3h-.82V1.7Z"/>
      <path class="cls-6" d="M445.66,2.42h-.56v-.66h.59V.52h.8v1.24h1.04v.66h-1.04v1.91c0,.86.6.97.92.97.12,0,.2-.02.2-.02v.73s-.12.02-.29.02c-.55,0-1.65-.17-1.65-1.61v-2.01Z"/>
      <path class="cls-6" d="M450.77,3.32h.19v-.08c0-.71-.4-.94-.94-.94-.66,0-1.2.42-1.2.42l-.34-.6s.62-.51,1.61-.51c1.09,0,1.7.59,1.7,1.68v2.72h-.77v-.41c0-.2.02-.34.02-.34h-.02s-.35.85-1.38.85c-.74,0-1.46-.45-1.46-1.31,0-1.42,1.87-1.48,2.59-1.48ZM449.81,5.44c.7,0,1.15-.73,1.15-1.37v-.14h-.21c-.62,0-1.74.04-1.74.82,0,.35.27.69.81.69Z"/>
      <path class="cls-6" d="M452.96,0h.82v4.68c0,.52.21.61.46.61.08,0,.14,0,.14,0v.73s-.13.02-.27.02c-.47,0-1.16-.13-1.16-1.21V0Z"/>
      <path class="cls-6" d="M457.44,0h.83v.84h-.83V0ZM457.45,1.7h.82v4.3h-.82V1.7Z"/>
      <path class="cls-6" d="M459.56,1.7h.8v.57c0,.17-.02.31-.02.31h.02c.17-.37.68-.99,1.62-.99,1.01,0,1.48.55,1.48,1.65v2.75h-.82v-2.57c0-.6-.13-1.08-.82-1.08s-1.18.43-1.36,1.05c-.05.17-.07.37-.07.58v2.01h-.82V1.7Z"/>
      <path class="cls-6" d="M464.89,2.42h-.54v-.66h.54v-.2c0-1.42,1.07-1.6,1.62-1.6.19,0,.31.03.31.03v.71s-.08-.02-.21-.02c-.31,0-.9.1-.9.9v.19h1.02v.66h-1.02v3.58h-.82v-3.58Z"/>
      <path class="cls-6" d="M467.46,1.7h.82v2.57c0,.6.12,1.07.81,1.07.88,0,1.39-.77,1.39-1.62V1.7h.82v4.3h-.8v-.57c0-.18.02-.31.02-.31h-.02c-.18.42-.74.99-1.58.99-.97,0-1.47-.51-1.47-1.65V1.7Z"/>
      <path class="cls-6" d="M472.65,4.89s.48.5,1.23.5c.36,0,.71-.19.71-.54,0-.79-2.21-.63-2.21-2.03,0-.78.7-1.22,1.55-1.22.94,0,1.38.48,1.38.48l-.33.62s-.38-.38-1.06-.38c-.36,0-.71.15-.71.53,0,.77,2.21.6,2.21,2.01,0,.71-.61,1.25-1.55,1.25-1.05,0-1.63-.63-1.63-.63l.4-.59Z"/>
      <path class="cls-6" d="M476.4,0h.83v.84h-.83V0ZM476.41,1.7h.83v4.3h-.83V1.7Z"/>
      <path class="cls-6" d="M480.53,1.6c1.28,0,2.32.94,2.32,2.24s-1.04,2.26-2.32,2.26-2.32-.95-2.32-2.26,1.04-2.24,2.32-2.24ZM480.53,5.39c.82,0,1.48-.65,1.48-1.55s-.66-1.53-1.48-1.53-1.48.64-1.48,1.53.67,1.55,1.48,1.55Z"/>
      <path class="cls-6" d="M483.83,1.7h.8v.57c0,.17-.02.31-.02.31h.02c.17-.37.68-.99,1.61-.99,1.01,0,1.48.55,1.48,1.65v2.75h-.82v-2.57c0-.6-.13-1.08-.81-1.08s-1.18.43-1.36,1.05c-.05.17-.07.37-.07.58v2.01h-.83V1.7Z"/>
    </g>
  </g>
  <g>
    <path class="cls-6" d="M427.64,12h.82v1.96c0,.21-.02.37-.02.37h.02s.37-.73,1.38-.73c1.16,0,1.89.92,1.89,2.25s-.82,2.25-1.96,2.25c-.96,0-1.35-.74-1.35-.74h-.02s.02.14.02.32v.31h-.78v-6ZM429.65,17.4c.68,0,1.24-.56,1.24-1.54s-.5-1.54-1.22-1.54c-.64,0-1.24.45-1.24,1.55,0,.77.4,1.53,1.21,1.53Z"/>
    <path class="cls-6" d="M432.42,18.89s.24.18.5.18c.33,0,.61-.24.77-.63l.21-.49-1.8-4.25h.93l1.08,2.81c.08.22.16.52.16.52h.02s.07-.29.14-.51l1.05-2.82h.89l-2.01,5.07c-.26.66-.79,1.01-1.39,1.01-.48,0-.83-.26-.83-.26l.29-.63Z"/>
    <path class="cls-6" d="M439.44,16.68s.64.65,1.53.65c.56,0,1.04-.31,1.04-.88,0-1.3-2.91-1.02-2.91-2.86,0-.93.81-1.67,1.94-1.67s1.7.6,1.7.6l-.38.7s-.55-.52-1.32-.52c-.64,0-1.09.4-1.09.88,0,1.24,2.91.91,2.91,2.86,0,.93-.71,1.69-1.9,1.69-1.27,0-1.99-.79-1.99-.79l.48-.64Z"/>
    <path class="cls-6" d="M446.71,11.9c1.45,0,2.19.79,2.19.79l-.42.63s-.7-.65-1.73-.65c-1.34,0-2.22,1.02-2.22,2.29s.89,2.37,2.23,2.37c1.13,0,1.85-.78,1.85-.78l.45.6s-.82.95-2.33.95c-1.8,0-3.07-1.38-3.07-3.14s1.31-3.07,3.05-3.07Z"/>
    <path class="cls-6" d="M450.12,12h.84v3.88c0,.92.59,1.45,1.51,1.45s1.53-.54,1.53-1.47v-3.86h.84v3.88c0,1.33-.96,2.23-2.36,2.23s-2.36-.89-2.36-2.23v-3.88Z"/>
    <path class="cls-6" d="M456.39,12h3.31v.73h-2.46v1.97h2.1v.73h-2.1v2.57h-.84v-6Z"/>
  </g>
  <g class="cls-9">
    <path class="cls-7" d="M503.54,158.92c0-18.77-15.21-33.98-33.98-33.98s-33.98,15.21-33.98,33.98,15.21,33.98,33.98,33.98,33.98-15.21,33.98-33.98"/>
    <path class="cls-4" d="M503.54,158.92c0-18.77-15.21-33.98-33.98-33.98s-33.98,15.21-33.98,33.98,15.21,33.98,33.98,33.98,33.98-15.21,33.98-33.98Z"/>
    <path class="cls-3" d="M479.81,126.52c-6.57-2.07-13.65-2.1-20.23-.09"/>
    <path class="cls-7" d="M214.39,128.99c18.77,0,33.98-15.21,33.98-33.98s-15.21-33.98-33.98-33.98-33.98,15.21-33.98,33.98,15.21,33.98,33.98,33.98"/>
    <path class="cls-4" d="M214.39,128.99c18.77,0,33.98-15.21,33.98-33.98s-15.21-33.98-33.98-33.98-33.98,15.21-33.98,33.98,15.21,33.98,33.98,33.98Z"/>
    <path class="cls-3" d="M246.79,105.26c2.07-6.57,2.1-13.65.09-20.23"/>
  </g>
  <g>
    <path class="cls-6" d="M450.78,162.39c0-4.23,4.95-4.98,4.95-6.63,0-.8-.64-1.14-1.23-1.14-1.09,0-1.7,1.22-1.7,1.22l-2.08-1.39s1.06-2.46,4.03-2.46c1.87,0,3.91,1.07,3.91,3.51,0,3.57-4.61,4.26-4.69,5.73h4.87v2.4h-7.92c-.08-.45-.13-.85-.13-1.23Z"/>
    <path class="cls-6" d="M460.45,157.88c0-3.28,1.06-5.89,4.3-5.89s4.31,2.61,4.31,5.89-1.06,5.94-4.31,5.94-4.3-2.66-4.3-5.94ZM466.18,157.88c0-1.86-.32-3.33-1.43-3.33s-1.42,1.47-1.42,3.33.32,3.38,1.42,3.38,1.43-1.5,1.43-3.38Z"/>
    <path class="cls-6" d="M470.64,162.39c0-4.23,4.95-4.98,4.95-6.63,0-.8-.64-1.14-1.23-1.14-1.09,0-1.7,1.22-1.7,1.22l-2.08-1.39s1.06-2.46,4.03-2.46c1.87,0,3.91,1.07,3.91,3.51,0,3.57-4.61,4.26-4.69,5.73h4.87v2.4h-7.92c-.08-.45-.13-.85-.13-1.23Z"/>
    <path class="cls-6" d="M480.25,162.39c0-4.23,4.95-4.98,4.95-6.63,0-.8-.64-1.14-1.23-1.14-1.09,0-1.7,1.22-1.7,1.22l-2.08-1.39s1.06-2.46,4.04-2.46c1.87,0,3.9,1.07,3.9,3.51,0,3.57-4.61,4.26-4.69,5.73h4.87v2.4h-7.92c-.08-.45-.13-.85-.13-1.23Z"/>
  </g>
  <line class="cls-4" x1="470.11" y1="382.99" x2="470.11" y2="359.32"/>
  <g>
    <path class="cls-6" d="M427.81,387.99h1.84c.63,0,.89.05,1.12.14.61.23,1.01.83,1.01,1.62s-.42,1.41-1.08,1.62v.02s.07.08.18.27l1.28,2.33h-.95l-1.27-2.39h-1.28v2.39h-.84v-6ZM429.86,390.87c.65,0,1.06-.42,1.06-1.09,0-.44-.17-.76-.48-.93-.16-.08-.36-.14-.82-.14h-.97v2.15h1.21Z"/>
    <path class="cls-6" d="M435.33,391.31h.19v-.08c0-.71-.4-.94-.94-.94-.66,0-1.2.42-1.2.42l-.34-.6s.62-.51,1.61-.51c1.09,0,1.7.59,1.7,1.68v2.72h-.77v-.41c0-.2.02-.34.02-.34h-.02s-.35.85-1.38.85c-.74,0-1.46-.45-1.46-1.31,0-1.42,1.87-1.48,2.59-1.48ZM434.38,393.43c.7,0,1.15-.73,1.15-1.37v-.14h-.21c-.62,0-1.74.04-1.74.82,0,.35.27.69.81.69Z"/>
    <path class="cls-6" d="M437.73,390.41h-.56v-.66h.59v-1.24h.8v1.24h1.04v.66h-1.04v1.91c0,.86.6.97.92.97.12,0,.2-.02.2-.02v.73s-.12.02-.29.02c-.55,0-1.65-.17-1.65-1.61v-2.01Z"/>
    <path class="cls-6" d="M440.58,387.99h.83v.84h-.83v-.84ZM440.59,389.69h.83v4.3h-.83v-4.3Z"/>
    <path class="cls-6" d="M442.71,389.69h.8v.57c0,.17-.02.31-.02.31h.02c.17-.37.68-.99,1.62-.99,1.01,0,1.48.55,1.48,1.65v2.75h-.82v-2.57c0-.6-.13-1.08-.82-1.08s-1.18.43-1.36,1.05c-.05.17-.07.37-.07.58v2.01h-.82v-4.3Z"/>
    <path class="cls-6" d="M449.4,395.06c.75,0,1.36-.33,1.36-1.21v-.31c0-.14,0-.27,0-.27h-.02c-.26.42-.66.67-1.28.67-1.2,0-1.92-.96-1.92-2.2s.69-2.15,1.88-2.15c1.04,0,1.35.64,1.35.64h.02s0-.06,0-.14v-.4h.79v4.12c0,1.42-1.08,1.96-2.17,1.96-.52,0-1.05-.14-1.47-.36l.27-.65s.54.29,1.18.29ZM450.77,391.75c0-1.12-.54-1.44-1.22-1.44-.75,0-1.17.54-1.17,1.42s.48,1.5,1.25,1.5c.6,0,1.14-.36,1.14-1.48Z"/>
    <path class="cls-6" d="M455.14,387.99h.84v3.88c0,.92.59,1.45,1.51,1.45s1.53-.54,1.53-1.47v-3.86h.84v3.88c0,1.33-.96,2.23-2.36,2.23s-2.36-.89-2.36-2.23v-3.88Z"/>
    <path class="cls-6" d="M461.23,389.69h.76v.37c0,.17-.02.31-.02.31h.02s.37-.78,1.45-.78c1.16,0,1.89.92,1.89,2.25s-.82,2.25-1.95,2.25c-.94,0-1.32-.71-1.32-.71h-.02s.02.15.02.37v1.93h-.82v-6ZM463.24,393.39c.68,0,1.24-.56,1.24-1.54s-.5-1.54-1.22-1.54c-.64,0-1.24.45-1.24,1.55,0,.76.43,1.53,1.21,1.53Z"/>
    <path class="cls-6" d="M467.89,395.06c.75,0,1.36-.33,1.36-1.21v-.31c0-.14,0-.27,0-.27h-.02c-.26.42-.66.67-1.28.67-1.2,0-1.92-.96-1.92-2.2s.69-2.15,1.88-2.15c1.04,0,1.35.64,1.35.64h.02s0-.06,0-.14v-.4h.79v4.12c0,1.42-1.08,1.96-2.17,1.96-.52,0-1.05-.14-1.47-.36l.27-.65s.54.29,1.18.29ZM469.27,391.75c0-1.12-.54-1.44-1.22-1.44-.75,0-1.17.54-1.17,1.42s.48,1.5,1.25,1.5c.6,0,1.14-.36,1.14-1.48Z"/>
    <path class="cls-6" d="M471.37,389.69h.8v.75c0,.18-.02.32-.02.32h.02c.2-.63.7-1.12,1.36-1.12.11,0,.21.02.21.02v.82s-.11-.03-.24-.03c-.53,0-1.01.37-1.21,1.01-.08.25-.1.51-.1.77v1.76h-.83v-4.3Z"/>
    <path class="cls-6" d="M476.8,391.31h.19v-.08c0-.71-.4-.94-.94-.94-.66,0-1.2.42-1.2.42l-.34-.6s.62-.51,1.61-.51c1.09,0,1.7.59,1.7,1.68v2.72h-.77v-.41c0-.2.02-.34.02-.34h-.02s-.35.85-1.38.85c-.74,0-1.46-.45-1.46-1.31,0-1.42,1.87-1.48,2.59-1.48ZM475.85,393.43c.7,0,1.15-.73,1.15-1.37v-.14h-.21c-.62,0-1.74.04-1.74.82,0,.35.27.69.81.69Z"/>
    <path class="cls-6" d="M480.71,389.59c1,0,1.33.68,1.33.68h.02s-.02-.13-.02-.29v-1.99h.82v6h-.78v-.41c0-.17,0-.29,0-.29h-.02s-.35.8-1.41.8c-1.16,0-1.89-.92-1.89-2.25s.81-2.25,1.95-2.25ZM480.82,393.38c.64,0,1.24-.45,1.24-1.55,0-.76-.4-1.53-1.21-1.53-.68,0-1.24.56-1.24,1.54s.5,1.54,1.21,1.54Z"/>
    <path class="cls-6" d="M486.01,389.59c1.21,0,1.86.9,1.86,2.01,0,.11-.03.36-.03.36h-3.14c.04.94.71,1.42,1.48,1.42s1.28-.5,1.28-.5l.34.6s-.64.61-1.67.61c-1.35,0-2.28-.98-2.28-2.25,0-1.37.93-2.25,2.15-2.25ZM487.03,391.34c-.03-.74-.48-1.1-1.04-1.1-.63,0-1.14.39-1.26,1.1h2.29Z"/>
    <path class="cls-6" d="M490.54,389.59c1,0,1.33.68,1.33.68h.02s-.02-.13-.02-.29v-1.99h.82v6h-.78v-.41c0-.17,0-.29,0-.29h-.02s-.35.8-1.41.8c-1.16,0-1.89-.92-1.89-2.25s.81-2.25,1.95-2.25ZM490.65,393.38c.64,0,1.24-.45,1.24-1.55,0-.76-.4-1.53-1.21-1.53-.68,0-1.24.56-1.24,1.54s.5,1.54,1.21,1.54Z"/>
    <path class="cls-6" d="M496.34,390.41h-.56v-.66h.59v-1.24h.8v1.24h1.04v.66h-1.04v1.91c0,.86.6.97.92.97.12,0,.2-.02.2-.02v.73s-.12.02-.29.02c-.55,0-1.65-.17-1.65-1.61v-2.01Z"/>
    <path class="cls-6" d="M501.21,389.59c1.29,0,2.32.94,2.32,2.24s-1.04,2.26-2.32,2.26-2.32-.95-2.32-2.26,1.04-2.24,2.32-2.24ZM501.21,393.38c.82,0,1.48-.65,1.48-1.55s-.66-1.53-1.48-1.53-1.48.64-1.48,1.53.67,1.55,1.48,1.55Z"/>
  </g>
  <g>
    <path class="cls-6" d="M430.78,404.27h-2.26l-.6,1.73h-.87l2.16-6h.88l2.16,6h-.88l-.6-1.73ZM429.65,400.82s-.13.54-.24.85l-.67,1.9h1.82l-.66-1.9c-.1-.31-.23-.85-.23-.85h-.02Z"/>
    <path class="cls-6" d="M436.12,404.27h-2.26l-.6,1.73h-.87l2.16-6h.88l2.16,6h-.88l-.6-1.73ZM434.99,400.82s-.13.54-.24.85l-.67,1.9h1.82l-.66-1.9c-.1-.31-.23-.85-.23-.85h-.02Z"/>
    <path class="cls-6" d="M438.32,403.24h1.9v-2.09h.7v2.09h1.89v.66h-1.89v2.09h-.7v-2.09h-1.9v-.66Z"/>
    <path class="cls-6" d="M445.94,399.67h.73l-2.16,6.68h-.73l2.16-6.68Z"/>
    <path class="cls-6" d="M447.74,404.67s.64.65,1.53.65c.56,0,1.04-.31,1.04-.88,0-1.3-2.91-1.02-2.91-2.86,0-.94.81-1.67,1.94-1.67s1.7.6,1.7.6l-.38.7s-.55-.52-1.32-.52c-.64,0-1.09.4-1.09.88,0,1.24,2.91.91,2.91,2.86,0,.93-.71,1.69-1.9,1.69-1.28,0-1.99-.79-1.99-.79l.47-.64Z"/>
    <path class="cls-6" d="M452.35,402.42h-.56v-.66h.59v-1.24h.8v1.24h1.04v.66h-1.04v1.91c0,.86.6.97.92.97.12,0,.2-.02.2-.02v.73s-.12.02-.29.02c-.55,0-1.65-.17-1.65-1.61v-2.01Z"/>
    <path class="cls-6" d="M457.46,403.31h.19v-.08c0-.71-.4-.94-.95-.94-.66,0-1.2.42-1.2.42l-.34-.6s.62-.51,1.61-.51c1.09,0,1.7.59,1.7,1.68v2.72h-.77v-.41c0-.2.02-.34.02-.34h-.02s-.35.85-1.38.85c-.74,0-1.46-.45-1.46-1.31,0-1.42,1.87-1.48,2.59-1.48ZM456.51,405.43c.7,0,1.15-.73,1.15-1.37v-.14h-.21c-.62,0-1.74.04-1.74.82,0,.35.27.69.81.69Z"/>
    <path class="cls-6" d="M459.71,399.99h.82v1.96c0,.21-.02.37-.02.37h.02s.37-.73,1.38-.73c1.16,0,1.89.92,1.89,2.25s-.82,2.25-1.96,2.25c-.96,0-1.35-.74-1.35-.74h-.02s.02.14.02.32v.31h-.78v-6ZM461.72,405.39c.68,0,1.24-.56,1.24-1.54s-.5-1.54-1.22-1.54c-.64,0-1.24.45-1.24,1.55,0,.76.4,1.53,1.21,1.53Z"/>
    <path class="cls-6" d="M464.76,399.99h.82v4.68c0,.52.2.61.46.61.08,0,.14,0,.14,0v.73s-.13.02-.27.02c-.47,0-1.16-.13-1.16-1.21v-4.83Z"/>
    <path class="cls-6" d="M468.91,401.59c1.21,0,1.86.9,1.86,2.01,0,.11-.03.36-.03.36h-3.14c.04.94.71,1.42,1.48,1.42s1.28-.5,1.28-.5l.34.6s-.64.61-1.67.61c-1.35,0-2.28-.98-2.28-2.25,0-1.37.93-2.25,2.15-2.25ZM469.93,403.34c-.03-.74-.48-1.1-1.04-1.1-.63,0-1.14.39-1.26,1.1h2.29Z"/>
  </g>
  <g class="cls-13">
    <path class="cls-7" d="M436.13,318.34c0,18.77,15.21,33.98,33.98,33.98s33.98-15.21,33.98-33.98-15.21-33.98-33.98-33.98-33.98,15.21-33.98,33.98"/>
    <path class="cls-4" d="M436.13,318.34c0,18.77,15.21,33.98,33.98,33.98s33.98-15.21,33.98-33.98-15.21-33.98-33.98-33.98-33.98,15.21-33.98,33.98Z"/>
    <path class="cls-3" d="M459.85,350.74c6.57,2.07,13.65,2.1,20.23.09"/>
  </g>
  <g>
    <path class="cls-6" d="M451.44,323.56c0-4.23,4.95-4.98,4.95-6.63,0-.8-.64-1.14-1.23-1.14-1.09,0-1.7,1.22-1.7,1.22l-2.08-1.39s1.06-2.46,4.03-2.46c1.87,0,3.91,1.07,3.91,3.51,0,3.57-4.61,4.26-4.69,5.73h4.87v2.4h-7.92c-.08-.45-.13-.85-.13-1.23Z"/>
    <path class="cls-6" d="M461.11,319.05c0-3.28,1.06-5.89,4.3-5.89s4.31,2.61,4.31,5.89-1.06,5.94-4.31,5.94-4.3-2.66-4.3-5.94ZM466.84,319.05c0-1.86-.32-3.33-1.43-3.33s-1.42,1.47-1.42,3.33.32,3.38,1.42,3.38,1.43-1.5,1.43-3.38Z"/>
    <path class="cls-6" d="M471.3,323.56c0-4.23,4.95-4.98,4.95-6.63,0-.8-.64-1.14-1.23-1.14-1.09,0-1.7,1.22-1.7,1.22l-2.08-1.39s1.06-2.46,4.03-2.46c1.87,0,3.91,1.07,3.91,3.51,0,3.57-4.61,4.26-4.69,5.73h4.87v2.4h-7.92c-.08-.45-.13-.85-.13-1.23Z"/>
    <path class="cls-6" d="M481.97,321.32s1.03,1.02,2.35,1.02c1.04,0,1.63-.51,1.63-1.14,0-.9-.9-1.26-2.13-1.26h-.8l-.59-1.36,1.5-1.81c.54-.66.99-1.07.99-1.07v-.03s-.37.08-1.09.08h-2.74v-2.4h7.22v1.74l-2.32,2.67c1.7.37,2.77,1.71,2.77,3.31,0,1.95-1.38,3.91-4.24,3.91-2.56,0-3.9-1.5-3.9-1.5l1.34-2.16Z"/>
  </g>
  <g>
    <path class="cls-6" d="M196.18,99.35c0-4.23,4.95-4.98,4.95-6.63,0-.8-.64-1.14-1.23-1.14-1.09,0-1.7,1.22-1.7,1.22l-2.08-1.39s1.06-2.46,4.03-2.46c1.87,0,3.91,1.07,3.91,3.51,0,3.57-4.61,4.26-4.69,5.73h4.87v2.4h-7.92c-.08-.45-.13-.85-.13-1.23Z"/>
    <path class="cls-6" d="M205.84,94.84c0-3.28,1.06-5.89,4.31-5.89s4.3,2.61,4.3,5.89-1.06,5.94-4.3,5.94-4.31-2.66-4.31-5.94ZM211.57,94.84c0-1.86-.32-3.33-1.42-3.33s-1.43,1.47-1.43,3.33.32,3.38,1.43,3.38,1.42-1.5,1.42-3.38Z"/>
    <path class="cls-6" d="M216.03,99.35c0-4.23,4.95-4.98,4.95-6.63,0-.8-.64-1.14-1.23-1.14-1.09,0-1.7,1.22-1.7,1.22l-2.08-1.39s1.06-2.46,4.03-2.46c1.87,0,3.91,1.07,3.91,3.51,0,3.57-4.61,4.26-4.69,5.73h4.87v2.4h-7.92c-.08-.45-.13-.85-.13-1.23Z"/>
    <path class="cls-6" d="M225.7,94.84c0-3.28,1.06-5.89,4.3-5.89s4.31,2.61,4.31,5.89-1.06,5.94-4.31,5.94-4.3-2.66-4.3-5.94ZM231.43,94.84c0-1.86-.32-3.33-1.43-3.33s-1.42,1.47-1.42,3.33.32,3.38,1.42,3.38,1.43-1.5,1.43-3.38Z"/>
  </g>
  <g class="cls-12">
    <path class="cls-7" d="M307.8,411.69c0,18.77,15.21,33.98,33.98,33.98s33.98-15.21,33.98-33.98-15.21-33.98-33.98-33.98-33.98,15.21-33.98,33.98"/>
    <path class="cls-4" d="M307.8,411.69c0,18.77,15.21,33.98,33.98,33.98s33.98-15.21,33.98-33.98-15.21-33.98-33.98-33.98-33.98,15.21-33.98,33.98Z"/>
    <path class="cls-3" d="M331.52,444.09c6.57,2.07,13.65,2.1,20.23.09"/>
  </g>
  <g>
    <path class="cls-6" d="M323.53,416.91c0-4.23,4.95-4.98,4.95-6.63,0-.8-.64-1.14-1.23-1.14-1.09,0-1.7,1.22-1.7,1.22l-2.08-1.39s1.06-2.46,4.03-2.46c1.87,0,3.91,1.07,3.91,3.51,0,3.57-4.61,4.26-4.69,5.73h4.87v2.4h-7.92c-.08-.45-.13-.85-.13-1.23Z"/>
    <path class="cls-6" d="M333.2,412.4c0-3.28,1.06-5.89,4.3-5.89s4.31,2.61,4.31,5.89-1.06,5.94-4.31,5.94-4.3-2.66-4.3-5.94ZM338.93,412.4c0-1.86-.32-3.33-1.43-3.33s-1.42,1.47-1.42,3.33.32,3.38,1.42,3.38,1.43-1.5,1.43-3.38Z"/>
    <path class="cls-6" d="M343.39,416.91c0-4.23,4.95-4.98,4.95-6.63,0-.8-.64-1.14-1.23-1.14-1.09,0-1.7,1.22-1.7,1.22l-2.08-1.39s1.06-2.46,4.03-2.46c1.87,0,3.91,1.07,3.91,3.51,0,3.57-4.61,4.26-4.69,5.73h4.87v2.4h-7.92c-.08-.45-.13-.85-.13-1.23Z"/>
    <path class="cls-6" d="M352.65,413.68l4.42-6.98h3.43v6.35h1.36v2.32h-1.36v2.77h-2.77v-2.77h-5.07v-1.7ZM357.73,413.05v-2.56c0-.62.1-1.28.1-1.28h-.03s-.24.7-.56,1.18l-1.73,2.62v.03h2.22Z"/>
  </g>
  <g>
    <path class="cls-5" d="M312.44,522.33h2.62v6.78c0,1.12.74,1.73,1.86,1.73s1.86-.6,1.86-1.73v-6.78h2.62v6.78c0,2.42-1.77,4.12-4.47,4.12s-4.5-1.71-4.5-4.12v-6.78Z"/>
    <path class="cls-5" d="M324.37,529.71s1.21,1.11,2.56,1.11c.54,0,1.12-.21,1.12-.85,0-1.28-4.83-1.23-4.83-4.53,0-1.98,1.67-3.28,3.79-3.28,2.31,0,3.45,1.21,3.45,1.21l-1.11,2.14s-1.08-.94-2.37-.94c-.54,0-1.14.24-1.14.84,0,1.35,4.83,1.11,4.83,4.5,0,1.78-1.37,3.33-3.78,3.33s-3.92-1.53-3.92-1.53l1.38-2Z"/>
    <path class="cls-5" d="M332.48,522.33h3.81c3.38,0,5.54,1.96,5.54,5.34s-2.16,5.38-5.54,5.38h-3.81v-10.72ZM336.19,530.8c1.81,0,2.92-1.08,2.92-3.13s-1.15-3.09-2.92-3.09h-1.08v6.22h1.08Z"/>
    <path class="cls-5" d="M346.69,530.8h2.28v-4.47c0-.41.02-.83.02-.83h-.03s-.13.3-.42.57l-.64.58-1.51-1.62,2.89-2.71h2.26v8.47h2.29v2.25h-7.14v-2.25Z"/>
    <path class="cls-5" d="M354.94,527.67c0-3.08.99-5.52,4.04-5.52s4.04,2.44,4.04,5.52-.99,5.56-4.04,5.56-4.04-2.49-4.04-5.56ZM360.31,527.67c0-1.74-.3-3.12-1.34-3.12s-1.33,1.38-1.33,3.12.3,3.17,1.33,3.17,1.34-1.41,1.34-3.17Z"/>
    <path class="cls-5" d="M364.54,527.67c0-3.08.99-5.52,4.04-5.52s4.04,2.44,4.04,5.52-.99,5.56-4.04,5.56-4.04-2.49-4.04-5.56ZM369.91,527.67c0-1.74-.3-3.12-1.33-3.12s-1.34,1.38-1.34,3.12.3,3.17,1.34,3.17,1.33-1.41,1.33-3.17Z"/>
  </g>
  <g>
    <path class="cls-5" d="M377.09,527.34h1.52l.83,2.42c.13.37.29.94.29.94h.02s.16-.58.29-.94l.83-2.42h1.52l.46,5.72h-1.4l-.18-2.57c-.03-.43,0-.96,0-.96h-.02s-.19.6-.32.96l-.6,1.65h-1.2l-.6-1.65c-.13-.36-.32-.96-.32-.96h-.02s.03.53,0,.96l-.18,2.57h-1.41l.47-5.72Z"/>
    <path class="cls-5" d="M384.02,527.34h1.41l1.58,2.67c.22.38.48.97.48.97h.02s-.06-.62-.06-.97v-2.67h1.4v5.72h-1.41l-1.59-2.66c-.22-.38-.48-.98-.48-.98h-.02s.06.62.06.98v2.66h-1.4v-5.72Z"/>
  </g>
  <path class="cls-5" d="M318.1,553.83h-1.19c-.04.43-.16.8-.37,1.12s-.45.58-.74.79c-.29.21-.61.37-.96.47-.35.11-.69.16-1.02.16h-.13s0,.02,0,.02c0,0,0,.01,0,.02.57.57,1.15,1.2,1.73,1.9.58.7,1.15,1.39,1.72,2.09v.12h-1.79c-.29-.35-.6-.72-.92-1.12-.32-.4-.64-.79-.95-1.17-.32-.38-.62-.73-.9-1.06s-.53-.58-.74-.77c.07-.19.13-.38.19-.56.05-.18.11-.38.17-.58.34.08.65.12.95.12.54,0,1.02-.12,1.44-.38s.68-.65.77-1.19h-3.39v-1.14h3.33c-.13-.34-.35-.59-.64-.76-.3-.17-.66-.25-1.08-.25h-1.61v-1.16h6.71l-.55,1.16h-2.05v.06c.13.07.27.19.41.35s.26.36.34.59h1.86l-.55,1.14Z"/>
  <g>
    <path class="cls-5" d="M319.67,558.28h2.28v-4.47c0-.41.01-.83.01-.83h-.03s-.13.3-.42.57l-.64.58-1.52-1.62,2.89-2.71h2.27v8.47h2.29v2.25h-7.14v-2.25Z"/>
    <path class="cls-5" d="M328.87,557.28s.96.96,2.21.96c.97,0,1.53-.48,1.53-1.06,0-.84-.84-1.19-1.99-1.19h-.75l-.55-1.27,1.41-1.7c.51-.62.93-1,.93-1v-.03s-.35.08-1.02.08h-2.56v-2.25h6.76v1.63l-2.17,2.5c1.59.34,2.59,1.61,2.59,3.11,0,1.83-1.29,3.66-3.97,3.66-2.4,0-3.66-1.41-3.66-1.41l1.26-2.03Z"/>
    <path class="cls-5" d="M337.12,558.04h2.47l-1.7,4.16h-1.9l1.12-4.16Z"/>
    <path class="cls-5" d="M342.05,557.28s.97.96,2.17.96c.71,0,1.5-.43,1.5-1.32,0-.84-.73-1.33-1.71-1.33-.83,0-1.44.36-1.44.36l-1.39-.53.44-5.61h6v2.25h-3.72l-.06.99c0,.21-.06.42-.06.42h.03s.38-.11.78-.11c2.55,0,3.84,1.59,3.84,3.53,0,2.22-1.64,3.82-3.98,3.82s-3.66-1.41-3.66-1.41l1.26-2.03Z"/>
    <path class="cls-5" d="M349.75,555.15c0-3.08.99-5.52,4.04-5.52s4.04,2.44,4.04,5.52-.99,5.56-4.04,5.56-4.04-2.49-4.04-5.56ZM355.12,555.15c0-1.74-.3-3.12-1.34-3.12s-1.33,1.38-1.33,3.12.3,3.17,1.33,3.17,1.34-1.41,1.34-3.17Z"/>
    <path class="cls-5" d="M359.35,555.15c0-3.08.99-5.52,4.04-5.52s4.04,2.44,4.04,5.52-.99,5.56-4.04,5.56-4.04-2.49-4.04-5.56ZM364.72,555.15c0-1.74-.3-3.12-1.33-3.12s-1.34,1.38-1.34,3.12.3,3.17,1.34,3.17,1.33-1.41,1.33-3.17Z"/>
  </g>
  <path class="cls-5" d="M368.66,556.31h2.46v-2.67h1.63v2.67h2.46v1.56h-2.46v2.66h-1.63v-2.66h-2.46v-1.56Z"/>
  <g>
    <path class="cls-5" d="M380.95,556.32c1.12,0,1.64.62,1.64.62l-.58.93s-.4-.4-.97-.4c-.66,0-.98.5-.98.98s.34,1.02,1.03,1.02c.57,0,1.13-.5,1.13-.5l.5.97s-.62.68-1.77.68c-1.47,0-2.29-1.02-2.29-2.16s.82-2.15,2.29-2.15Z"/>
    <path class="cls-5" d="M383.37,556.41h1.33v.7c0,.14-.02.26-.02.26h.02c.18-.56.7-1.02,1.31-1.02.08,0,.16.02.16.02v1.36s-.11-.02-.28-.02c-.33,0-.86.1-1.06.72-.05.15-.07.34-.07.56v1.56h-1.38v-4.12Z"/>
    <path class="cls-5" d="M388.83,556.32c1.3,0,2.34.87,2.34,2.17s-1.04,2.14-2.33,2.14-2.34-.86-2.34-2.14,1.04-2.17,2.33-2.17ZM388.84,559.47c.5,0,.94-.38.94-.99s-.43-1.02-.94-1.02-.94.39-.94,1.02.43.99.94.99Z"/>
    <path class="cls-5" d="M391.9,556.41h1.33v.7c0,.14-.02.26-.02.26h.02c.18-.56.7-1.02,1.31-1.02.08,0,.16.02.16.02v1.36s-.11-.02-.28-.02c-.33,0-.86.1-1.06.72-.05.15-.07.34-.07.56v1.56h-1.38v-4.12Z"/>
    <path class="cls-5" d="M397.19,556.32c1.21,0,1.9.85,1.9,1.99,0,.14-.03.43-.03.43h-2.6c.11.5.52.74.96.74.59,0,1.13-.42,1.13-.42l.51.97s-.66.6-1.76.6c-1.47,0-2.26-1.06-2.26-2.16,0-1.21.81-2.15,2.14-2.15ZM397.7,557.95c0-.31-.22-.59-.54-.59-.4,0-.59.29-.66.59h1.21Z"/>
  </g>
  <path class="cls-5" d="M318.1,499.11h-1.19c-.04.43-.16.8-.37,1.12s-.45.58-.74.79c-.29.21-.61.37-.96.47-.35.11-.69.16-1.02.16h-.13s0,.02,0,.02c0,0,0,.01,0,.02.57.57,1.15,1.2,1.73,1.9.58.7,1.15,1.39,1.72,2.09v.12h-1.79c-.29-.35-.6-.72-.92-1.12-.32-.4-.64-.79-.95-1.17-.32-.38-.62-.73-.9-1.06s-.53-.58-.74-.77c.07-.19.13-.38.19-.56.05-.18.11-.38.17-.58.34.08.65.12.95.12.54,0,1.02-.12,1.44-.38s.68-.65.77-1.19h-3.39v-1.14h3.33c-.13-.34-.35-.59-.64-.76-.3-.17-.66-.25-1.08-.25h-1.61v-1.16h6.71l-.55,1.16h-2.05v.06c.13.07.27.19.41.35s.26.36.34.59h1.86l-.55,1.14Z"/>
  <g>
    <path class="cls-5" d="M319.67,503.57h2.28v-4.47c0-.41.01-.83.01-.83h-.03s-.13.3-.42.57l-.64.58-1.52-1.62,2.89-2.71h2.27v8.47h2.29v2.25h-7.14v-2.25Z"/>
    <path class="cls-5" d="M328.37,503.33h2.47l-1.7,4.16h-1.9l1.12-4.16Z"/>
    <path class="cls-5" d="M332.17,500.43c0-3.08.99-5.52,4.04-5.52s4.04,2.44,4.04,5.52-.99,5.56-4.04,5.56-4.04-2.49-4.04-5.56ZM337.54,500.43c0-1.74-.3-3.12-1.34-3.12s-1.33,1.38-1.33,3.12.3,3.17,1.33,3.17,1.34-1.41,1.34-3.17Z"/>
    <path class="cls-5" d="M341.77,500.43c0-3.08.99-5.52,4.04-5.52s4.04,2.44,4.04,5.52-.99,5.56-4.04,5.56-4.04-2.49-4.04-5.56ZM347.14,500.43c0-1.74-.3-3.12-1.33-3.12s-1.34,1.38-1.34,3.12.3,3.17,1.34,3.17,1.33-1.41,1.33-3.17Z"/>
    <path class="cls-5" d="M351.37,500.43c0-3.08.99-5.52,4.04-5.52s4.04,2.44,4.04,5.52-.99,5.56-4.04,5.56-4.04-2.49-4.04-5.56ZM356.74,500.43c0-1.74-.3-3.12-1.33-3.12s-1.34,1.38-1.34,3.12.3,3.17,1.34,3.17,1.33-1.41,1.33-3.17Z"/>
    <path class="cls-5" d="M360.82,500.54h3.07v-3.35h2.04v3.35h3.08v1.95h-3.08v3.33h-2.04v-3.33h-3.07v-1.95Z"/>
  </g>
  <g>
    <path class="cls-5" d="M374.86,501.61c1.12,0,1.64.62,1.64.62l-.58.93s-.4-.4-.97-.4c-.66,0-.98.5-.98.98s.34,1.02,1.03,1.02c.57,0,1.13-.5,1.13-.5l.5.97s-.62.68-1.77.68c-1.47,0-2.29-1.02-2.29-2.16s.82-2.15,2.29-2.15Z"/>
    <path class="cls-5" d="M377.27,501.7h1.33v.7c0,.14-.02.26-.02.26h.02c.18-.56.7-1.02,1.31-1.02.08,0,.16.02.16.02v1.36s-.11-.02-.28-.02c-.33,0-.86.1-1.06.72-.05.15-.07.34-.07.56v1.56h-1.38v-4.12Z"/>
    <path class="cls-5" d="M382.74,501.61c1.3,0,2.34.87,2.34,2.17s-1.04,2.14-2.33,2.14-2.34-.86-2.34-2.14,1.04-2.17,2.33-2.17ZM382.75,504.76c.5,0,.94-.38.94-.99s-.43-1.02-.94-1.02-.94.39-.94,1.02.43.99.94.99Z"/>
    <path class="cls-5" d="M385.8,501.7h1.33v.7c0,.14-.02.26-.02.26h.02c.18-.56.7-1.02,1.31-1.02.08,0,.16.02.16.02v1.36s-.11-.02-.28-.02c-.33,0-.86.1-1.06.72-.05.15-.07.34-.07.56v1.56h-1.38v-4.12Z"/>
    <path class="cls-5" d="M391.09,501.61c1.21,0,1.9.85,1.9,1.99,0,.14-.03.43-.03.43h-2.6c.11.5.52.74.96.74.59,0,1.13-.42,1.13-.42l.51.97s-.66.6-1.76.6c-1.47,0-2.26-1.06-2.26-2.16,0-1.21.81-2.15,2.14-2.15ZM391.6,503.24c0-.31-.22-.59-.54-.59-.4,0-.59.29-.66.59h1.21Z"/>
  </g>
  <g>
    <path class="cls-6" d="M312.15,510.72h1.84c.63,0,.89.05,1.12.14.61.23,1.01.83,1.01,1.62s-.42,1.41-1.08,1.62v.02s.07.08.18.27l1.28,2.33h-.95l-1.27-2.39h-1.28v2.39h-.84v-6ZM314.2,513.6c.65,0,1.06-.42,1.06-1.09,0-.44-.17-.76-.48-.93-.16-.08-.36-.14-.82-.14h-.97v2.15h1.21Z"/>
    <path class="cls-6" d="M319.67,514.03h.19v-.08c0-.71-.4-.94-.94-.94-.66,0-1.2.42-1.2.42l-.34-.6s.62-.51,1.61-.51c1.09,0,1.7.59,1.7,1.68v2.72h-.77v-.41c0-.2.02-.34.02-.34h-.02s-.35.85-1.38.85c-.74,0-1.46-.45-1.46-1.31,0-1.42,1.87-1.48,2.59-1.48ZM318.72,516.16c.7,0,1.15-.73,1.15-1.37v-.14h-.21c-.62,0-1.74.04-1.74.82,0,.35.27.69.81.69Z"/>
    <path class="cls-6" d="M321.91,510.72h.83v.84h-.83v-.84ZM321.91,512.42h.83v4.3h-.83v-4.3Z"/>
    <path class="cls-6" d="M324.08,515.61s.48.5,1.23.5c.36,0,.71-.19.71-.54,0-.79-2.21-.63-2.21-2.03,0-.78.7-1.22,1.56-1.22.94,0,1.38.48,1.38.48l-.33.62s-.38-.38-1.06-.38c-.36,0-.71.15-.71.53,0,.77,2.21.6,2.21,2.01,0,.71-.61,1.25-1.55,1.25-1.05,0-1.63-.63-1.63-.63l.4-.59Z"/>
    <path class="cls-6" d="M329.69,512.32c1.21,0,1.86.9,1.86,2.01,0,.11-.03.36-.03.36h-3.14c.04.94.71,1.42,1.48,1.42s1.28-.5,1.28-.5l.34.6s-.64.61-1.67.61c-1.35,0-2.28-.98-2.28-2.25,0-1.37.93-2.25,2.15-2.25ZM330.71,514.07c-.03-.74-.48-1.1-1.04-1.1-.63,0-1.14.39-1.26,1.1h2.29Z"/>
    <path class="cls-6" d="M334.22,512.32c.99,0,1.33.68,1.33.68h.02s-.02-.13-.02-.29v-1.99h.82v6h-.78v-.41c0-.17,0-.29,0-.29h-.02s-.35.8-1.41.8c-1.16,0-1.9-.92-1.9-2.25s.81-2.25,1.95-2.25ZM334.33,516.11c.64,0,1.24-.45,1.24-1.55,0-.76-.4-1.53-1.22-1.53-.68,0-1.24.56-1.24,1.54s.5,1.54,1.21,1.54Z"/>
    <path class="cls-6" d="M340.02,510.72h3.48v.73h-2.64v1.88h2.15v.73h-2.15v1.93h2.79v.73h-3.63v-6Z"/>
    <path class="cls-6" d="M347.49,510.62c1.45,0,2.19.79,2.19.79l-.42.63s-.7-.66-1.73-.66c-1.34,0-2.22,1.02-2.22,2.29s.89,2.37,2.23,2.37c1.13,0,1.85-.78,1.85-.78l.45.6s-.82.95-2.33.95c-1.8,0-3.07-1.38-3.07-3.14s1.31-3.07,3.05-3.07Z"/>
    <path class="cls-6" d="M350.98,510.72h2.1c1.01,0,1.74.56,1.74,1.53,0,.59-.29,1.05-.75,1.29v.02c.63.19.99.78.99,1.45,0,1.13-.88,1.71-1.93,1.71h-2.15v-6ZM353.08,513.24c.54,0,.88-.38.88-.91s-.32-.88-.9-.88h-1.24v1.79h1.26ZM353.18,515.99c.64,0,1.03-.41,1.03-1.02s-.41-1.03-1.04-1.03h-1.34v2.05h1.35Z"/>
    <path class="cls-6" d="M358.62,513.14h-.54v-.66h.54v-.2c0-1.42,1.07-1.6,1.62-1.6.19,0,.31.03.31.03v.71s-.09-.02-.21-.02c-.31,0-.9.1-.9.9v.19h1.02v.66h-1.02v3.58h-.82v-3.58Z"/>
    <path class="cls-6" d="M361.19,512.42h.82v2.57c0,.59.12,1.07.81,1.07.88,0,1.39-.77,1.39-1.62v-2.01h.82v4.3h-.8v-.57c0-.18.02-.31.02-.31h-.02c-.18.42-.74.99-1.58.99-.97,0-1.47-.51-1.47-1.65v-2.75Z"/>
    <path class="cls-6" d="M366.33,512.42h.8v.57c0,.17-.02.31-.02.31h.02c.17-.37.68-.99,1.61-.99,1.01,0,1.48.55,1.48,1.65v2.75h-.82v-2.57c0-.6-.13-1.08-.81-1.08s-1.18.43-1.36,1.05c-.05.17-.07.37-.07.58v2.01h-.83v-4.3Z"/>
    <path class="cls-6" d="M373.12,512.32c1,0,1.33.68,1.33.68h.02s-.02-.13-.02-.29v-1.99h.82v6h-.78v-.41c0-.17,0-.29,0-.29h-.02s-.35.8-1.41.8c-1.16,0-1.89-.92-1.89-2.25s.81-2.25,1.95-2.25ZM373.23,516.11c.64,0,1.24-.45,1.24-1.55,0-.76-.4-1.53-1.21-1.53-.68,0-1.24.56-1.24,1.54s.5,1.54,1.21,1.54Z"/>
    <path class="cls-6" d="M376.55,510.72h.83v.84h-.83v-.84ZM376.56,512.42h.82v4.3h-.82v-4.3Z"/>
    <path class="cls-6" d="M378.68,512.42h.8v.57c0,.17-.02.31-.02.31h.02c.17-.37.68-.99,1.61-.99,1.01,0,1.48.55,1.48,1.65v2.75h-.82v-2.57c0-.6-.13-1.08-.81-1.08s-1.18.43-1.36,1.05c-.05.17-.07.37-.07.58v2.01h-.83v-4.3Z"/>
    <path class="cls-6" d="M385.37,517.79c.75,0,1.36-.33,1.36-1.21v-.31c0-.14,0-.27,0-.27h-.02c-.26.42-.66.67-1.28.67-1.2,0-1.92-.96-1.92-2.2s.69-2.15,1.88-2.15c1.04,0,1.35.64,1.35.64h.02s0-.06,0-.14v-.4h.79v4.12c0,1.42-1.08,1.96-2.17,1.96-.52,0-1.05-.14-1.47-.36l.27-.65s.54.29,1.18.29ZM386.74,514.47c0-1.12-.54-1.44-1.22-1.44-.75,0-1.17.54-1.17,1.42s.48,1.5,1.25,1.5c.6,0,1.14-.36,1.14-1.48Z"/>
    <path class="cls-6" d="M393.03,512.32c1.28,0,2.32.94,2.32,2.24s-1.04,2.26-2.32,2.26-2.32-.95-2.32-2.26,1.04-2.24,2.32-2.24ZM393.03,516.11c.82,0,1.48-.65,1.48-1.55s-.66-1.53-1.48-1.53-1.48.64-1.48,1.53.67,1.55,1.48,1.55Z"/>
    <path class="cls-6" d="M396.54,513.14h-.54v-.66h.54v-.2c0-1.42,1.07-1.6,1.62-1.6.19,0,.31.03.31.03v.71s-.08-.02-.21-.02c-.31,0-.9.1-.9.9v.19h1.02v.66h-1.02v3.58h-.82v-3.58Z"/>
  </g>
  <g>
    <path class="cls-6" d="M312.15,482.18h.83l2.67,3.9c.22.32.5.87.5.87h.02s-.06-.54-.06-.87v-3.9h.84v6h-.82l-2.68-3.89c-.22-.33-.5-.88-.5-.88h-.02s.06.54.06.88v3.89h-.84v-6Z"/>
    <path class="cls-6" d="M318.58,482.18h.84v2.63h3.11v-2.63h.84v6h-.84v-2.63h-3.11v2.63h-.84v-6Z"/>
    <path class="cls-6" d="M325.01,482.18h2.1c1.01,0,1.74.56,1.74,1.53,0,.59-.29,1.05-.75,1.29v.02c.63.19.99.78.99,1.45,0,1.13-.88,1.71-1.93,1.71h-2.15v-6ZM327.11,484.7c.54,0,.88-.38.88-.91s-.32-.88-.9-.88h-1.24v1.79h1.26ZM327.2,487.45c.65,0,1.03-.41,1.03-1.02s-.41-1.03-1.04-1.03h-1.34v2.05h1.35Z"/>
    <path class="cls-6" d="M332.41,483.88h.8v.75c0,.18-.02.32-.02.32h.02c.2-.63.7-1.12,1.36-1.12.11,0,.21.02.21.02v.82s-.11-.03-.24-.03c-.53,0-1.01.37-1.21,1.01-.08.25-.1.51-.1.77v1.76h-.82v-4.3Z"/>
    <path class="cls-6" d="M337.44,483.77c1.21,0,1.86.9,1.86,2.01,0,.11-.03.36-.03.36h-3.14c.04.94.71,1.42,1.48,1.42s1.28-.5,1.28-.5l.34.6s-.64.61-1.67.61c-1.35,0-2.28-.98-2.28-2.25,0-1.37.93-2.25,2.15-2.25ZM338.45,485.52c-.03-.74-.48-1.1-1.04-1.1-.63,0-1.14.39-1.26,1.1h2.29Z"/>
    <path class="cls-6" d="M340.42,485.39h2.48v.73h-2.48v-.73Z"/>
    <path class="cls-6" d="M347.17,484.54h-1.81v3.64h-.82v-3.64h-.54v-.66h.54v-.14c0-1.42,1.07-1.6,1.62-1.6.19,0,.31.03.31.03v.71s-.09-.02-.21-.02c-.31,0-.9.1-.9.9v.13h2.63v4.3h-.82v-3.64ZM347.16,482.18h.83v.84h-.83v-.84Z"/>
    <path class="cls-6" d="M349.28,483.88h.8v.57c0,.17-.02.31-.02.31h.02c.17-.37.68-.99,1.61-.99,1.01,0,1.48.55,1.48,1.65v2.75h-.82v-2.57c0-.6-.13-1.08-.81-1.08s-1.18.43-1.36,1.05c-.05.17-.07.37-.07.58v2.01h-.83v-4.3Z"/>
    <path class="cls-6" d="M356.65,485.49h.19v-.08c0-.71-.4-.94-.95-.94-.66,0-1.2.42-1.2.42l-.34-.6s.62-.51,1.61-.51c1.09,0,1.7.59,1.7,1.68v2.72h-.77v-.41c0-.2.02-.34.02-.34h-.02s-.35.85-1.38.85c-.74,0-1.46-.45-1.46-1.31,0-1.42,1.87-1.48,2.59-1.48ZM355.7,487.62c.7,0,1.15-.73,1.15-1.37v-.14h-.21c-.62,0-1.74.04-1.74.82,0,.35.27.69.81.69Z"/>
    <path class="cls-6" d="M358.9,483.88h.8v.57c0,.17-.02.31-.02.31h.02c.17-.37.68-.99,1.61-.99,1.01,0,1.48.55,1.48,1.65v2.75h-.82v-2.57c0-.6-.13-1.08-.81-1.08s-1.18.43-1.36,1.05c-.05.17-.07.37-.07.58v2.01h-.83v-4.3Z"/>
    <path class="cls-6" d="M366.02,483.77c1.08,0,1.61.63,1.61.63l-.39.58s-.46-.49-1.19-.49c-.87,0-1.5.65-1.5,1.53s.63,1.55,1.52,1.55c.8,0,1.33-.58,1.33-.58l.33.6s-.6.69-1.72.69c-1.35,0-2.3-.96-2.3-2.25s.95-2.25,2.3-2.25Z"/>
    <path class="cls-6" d="M368.66,482.18h.83v.84h-.83v-.84ZM368.67,483.88h.83v4.3h-.83v-4.3Z"/>
    <path class="cls-6" d="M370.79,483.88h.8v.57c0,.17-.02.31-.02.31h.02c.17-.37.68-.99,1.62-.99,1.01,0,1.48.55,1.48,1.65v2.75h-.82v-2.57c0-.6-.13-1.08-.82-1.08s-1.18.43-1.36,1.05c-.05.17-.07.37-.07.58v2.01h-.82v-4.3Z"/>
    <path class="cls-6" d="M377.48,489.25c.75,0,1.36-.33,1.36-1.21v-.31c0-.14,0-.27,0-.27h-.02c-.25.42-.65.67-1.28.67-1.2,0-1.92-.96-1.92-2.2s.69-2.15,1.88-2.15c1.04,0,1.35.64,1.35.64h.02s0-.06,0-.14v-.4h.79v4.12c0,1.42-1.08,1.96-2.17,1.96-.52,0-1.05-.14-1.47-.36l.27-.65s.54.29,1.18.29ZM378.85,485.93c0-1.12-.54-1.44-1.21-1.44-.75,0-1.17.54-1.17,1.42s.48,1.5,1.25,1.5c.6,0,1.14-.36,1.14-1.48Z"/>
    <path class="cls-6" d="M385.14,483.77c1.29,0,2.32.94,2.32,2.24s-1.04,2.26-2.32,2.26-2.32-.95-2.32-2.26,1.04-2.24,2.32-2.24ZM385.14,487.56c.82,0,1.48-.65,1.48-1.55s-.66-1.53-1.48-1.53-1.48.64-1.48,1.53.67,1.55,1.48,1.55Z"/>
    <path class="cls-6" d="M388.66,484.6h-.54v-.66h.54v-.2c0-1.42,1.07-1.6,1.62-1.6.19,0,.31.03.31.03v.71s-.09-.02-.21-.02c-.31,0-.9.1-.9.9v.19h1.02v.66h-1.02v3.58h-.82v-3.58Z"/>
  </g>
  <g>
    <path class="cls-6" d="M315.12,542.7h-2.26l-.6,1.73h-.87l2.16-6h.88l2.16,6h-.88l-.6-1.73ZM313.99,539.25s-.13.54-.24.85l-.67,1.9h1.82l-.66-1.9c-.1-.31-.23-.85-.23-.85h-.02Z"/>
    <path class="cls-6" d="M317.35,538.43h.84v3.88c0,.92.6,1.45,1.51,1.45s1.53-.54,1.53-1.47v-3.86h.84v3.88c0,1.33-.96,2.23-2.36,2.23s-2.36-.89-2.36-2.23v-3.88Z"/>
    <path class="cls-6" d="M323.92,538.43h.88l1.38,3.25c.13.33.3.81.3.81h.02s.16-.48.3-.81l1.38-3.25h.88l.48,6h-.83l-.3-3.78c-.03-.37,0-.88,0-.88h-.02s-.18.55-.32.88l-1.2,2.7h-.75l-1.19-2.7c-.14-.32-.32-.9-.32-.9h-.02s0,.54-.02.9l-.29,3.78h-.84l.48-6Z"/>
  </g>
  <line class="cls-4" x1="341.78" y1="474.34" x2="341.78" y2="450.67"/>
  <g>
    <path class="cls-6" d="M9.6,599.65s.5.55,1.31.55c.61,0,1.09-.38,1.09-.97,0-1.39-2.51-1.01-2.51-2.54,0-.65.58-1.27,1.47-1.27.8,0,1.25.46,1.25.46l-.17.26s-.42-.42-1.07-.42c-.73,0-1.16.49-1.16.97,0,1.29,2.51.9,2.51,2.54,0,.71-.55,1.27-1.42,1.27-.97,0-1.5-.61-1.5-.61l.2-.23Z"/>
    <path class="cls-6" d="M13.33,595.51h.29v2.02c0,.16-.03.29-.03.29h.01c.12-.33.61-.99,1.48-.99s1.16.54,1.16,1.37v2.22h-.29v-2.12c0-.61-.08-1.18-.86-1.18-.66,0-1.24.46-1.42,1.11-.04.15-.06.31-.06.48v1.71h-.29v-4.9Z"/>
    <path class="cls-6" d="M17.43,596.91h.29v.67c0,.16-.03.29-.03.29h.01c.18-.54.57-.98,1.12-.98.1,0,.2.02.2.02v.29s-.08-.01-.16-.01c-.55,0-.89.46-1.04.98-.08.25-.11.5-.11.74v1.51h-.29v-3.5Z"/>
    <path class="cls-6" d="M19.77,595.51h.35v.51h-.35v-.51ZM19.79,596.91h.29v3.5h-.29v-3.5Z"/>
    <path class="cls-6" d="M21.32,596.91h.29v.67c0,.16-.03.29-.03.29h.01c.17-.54.57-.98,1.12-.98.1,0,.2.02.2.02v.29s-.08-.01-.16-.01c-.55,0-.89.46-1.04.98-.08.25-.11.5-.11.74v1.51h-.29v-3.5Z"/>
    <path class="cls-6" d="M25.57,598.27h.23v-.12c0-.78-.4-1.04-.96-1.04-.61,0-1,.34-1,.34l-.17-.24s.42-.38,1.18-.38c.81,0,1.24.45,1.24,1.32v2.26h-.29v-.46c0-.19.03-.32.03-.32h-.01s-.32.86-1.23.86c-.57,0-1.19-.32-1.19-1.02,0-1.19,1.55-1.2,2.17-1.2ZM24.6,600.22c.76,0,1.2-.79,1.2-1.48v-.19h-.22c-.6,0-1.87,0-1.87.91,0,.37.3.76.9.76Z"/>
    <path class="cls-6" d="M27.28,596.91h.29v.62c0,.16-.03.29-.03.29h.01c.17-.53.8-.99,1.34-.99.7,0,1.03.33,1.11.95h.01c.2-.49.73-.95,1.33-.95.9,0,1.17.53,1.17,1.37v2.22h-.29v-2.12c0-.66-.13-1.2-.88-1.2-.58,0-1.08.52-1.23,1.06-.05.16-.07.34-.07.54v1.71h-.29v-2.12c0-.6-.08-1.2-.85-1.2-.62,0-1.11.55-1.28,1.13-.04.15-.05.31-.05.48v1.71h-.29v-3.5Z"/>
    <path class="cls-6" d="M37.88,595.42c1.16,0,1.75.62,1.75.62l-.18.22s-.58-.55-1.56-.55c-1.21,0-2.12.95-2.12,2.21s.91,2.28,2.14,2.28c1.05,0,1.66-.67,1.66-.67l.19.21s-.66.74-1.85.74c-1.43,0-2.46-1.15-2.46-2.57s1.05-2.5,2.43-2.5Z"/>
    <path class="cls-6" d="M40.75,595.51h.35v.51h-.35v-.51ZM40.78,596.91h.29v3.5h-.29v-3.5Z"/>
    <path class="cls-6" d="M42.42,597.19h-.46v-.27h.46v-1h.29v1h.92v.27h-.92v1.93c0,.92.55,1.04.83,1.04.1,0,.16-.01.16-.01v.27s-.07.01-.18.01c-.36,0-1.11-.13-1.11-1.3v-1.95Z"/>
    <path class="cls-6" d="M44.08,601.43s.2.17.43.17c.34,0,.55-.3.69-.63l.25-.58-1.45-3.48h.32l1.16,2.79c.07.17.13.33.13.33h.01s.05-.16.12-.33l1.16-2.79h.32l-1.8,4.32c-.15.36-.45.65-.89.65-.34,0-.57-.2-.57-.2l.13-.25Z"/>
    <path class="cls-6" d="M49.94,595.51h.3v3.21c0,.92.6,1.49,1.53,1.49s1.54-.57,1.54-1.51v-3.19h.3v3.22c0,1.08-.75,1.76-1.83,1.76s-1.83-.69-1.83-1.76v-3.22Z"/>
    <path class="cls-6" d="M54.9,596.91h.29v.62c0,.16-.03.29-.03.29h.01c.12-.33.61-.99,1.48-.99s1.16.54,1.16,1.37v2.22h-.29v-2.12c0-.61-.08-1.18-.86-1.18-.66,0-1.24.46-1.42,1.11-.04.15-.06.31-.06.48v1.71h-.29v-3.5Z"/>
    <path class="cls-6" d="M58.97,595.51h.35v.51h-.35v-.51ZM59,596.91h.29v3.5h-.29v-3.5Z"/>
    <path class="cls-6" d="M62.08,596.82c1,0,1.81.79,1.81,1.81s-.81,1.86-1.81,1.86-1.81-.81-1.81-1.86.81-1.81,1.81-1.81ZM62.08,600.21c.83,0,1.51-.68,1.51-1.57s-.67-1.53-1.51-1.53-1.51.66-1.51,1.53.67,1.57,1.51,1.57Z"/>
    <path class="cls-6" d="M64.87,596.91h.29v.62c0,.16-.03.29-.03.29h.01c.12-.33.61-.99,1.49-.99s1.16.54,1.16,1.37v2.22h-.29v-2.12c0-.61-.08-1.18-.86-1.18-.66,0-1.24.46-1.42,1.11-.04.15-.05.31-.05.48v1.71h-.29v-3.5Z"/>
    <path class="cls-6" d="M71.05,595.51h2.47v.28h-2.17v2.04h1.88v.28h-1.88v2.3h-.3v-4.9Z"/>
    <path class="cls-6" d="M74.44,595.51h.35v.51h-.35v-.51ZM74.46,596.91h.29v3.5h-.29v-3.5Z"/>
    <path class="cls-6" d="M75.99,596.91h.29v.62c0,.16-.03.29-.03.29h.01c.12-.33.61-.99,1.49-.99s1.16.54,1.16,1.37v2.22h-.29v-2.12c0-.61-.08-1.18-.86-1.18-.66,0-1.24.46-1.42,1.11-.04.15-.06.31-.06.48v1.71h-.29v-3.5Z"/>
    <path class="cls-6" d="M81.98,598.27h.23v-.12c0-.78-.4-1.04-.96-1.04-.61,0-1,.34-1,.34l-.17-.24s.42-.38,1.18-.38c.8,0,1.24.45,1.24,1.32v2.26h-.29v-.46c0-.19.03-.32.03-.32h-.01s-.31.86-1.22.86c-.57,0-1.19-.32-1.19-1.02,0-1.19,1.55-1.2,2.17-1.2ZM81.01,600.22c.76,0,1.2-.79,1.2-1.48v-.19h-.22c-.59,0-1.87,0-1.87.91,0,.37.3.76.9.76Z"/>
    <path class="cls-6" d="M83.68,596.91h.29v.62c0,.16-.03.29-.03.29h.01c.12-.33.61-.99,1.48-.99s1.16.54,1.16,1.37v2.22h-.29v-2.12c0-.61-.08-1.18-.86-1.18-.66,0-1.24.46-1.41,1.11-.04.15-.06.31-.06.48v1.71h-.29v-3.5Z"/>
    <path class="cls-6" d="M89.35,596.82c.83,0,1.25.5,1.25.5l-.18.24s-.4-.45-1.07-.45c-.82,0-1.5.61-1.5,1.55s.68,1.54,1.5,1.54c.77,0,1.17-.5,1.17-.5l.15.25s-.46.55-1.32.55c-.99,0-1.81-.71-1.81-1.83s.83-1.84,1.81-1.84Z"/>
    <path class="cls-6" d="M93.08,596.82c.95,0,1.43.75,1.43,1.6,0,.08-.01.19-.01.19h-2.81c0,1.02.69,1.6,1.5,1.6.67,0,1.08-.44,1.08-.44l.16.25s-.49.48-1.25.48c-.99,0-1.81-.71-1.81-1.83,0-1.18.81-1.84,1.7-1.84ZM94.2,598.34c-.04-.85-.55-1.24-1.13-1.24-.64,0-1.24.42-1.37,1.24h2.49Z"/>
    <path class="cls-6" d="M97.4,598.06c0-1.01.28-1.92.77-2.73h.31c-.5.85-.79,1.75-.79,2.74,0,1.04.26,2.07.79,3h-.31c-.48-.83-.77-1.92-.77-3.01Z"/>
    <path class="cls-6" d="M99.35,599.65s.5.55,1.31.55c.61,0,1.09-.38,1.09-.97,0-1.39-2.51-1.01-2.51-2.54,0-.65.58-1.27,1.47-1.27.8,0,1.25.46,1.25.46l-.17.26s-.42-.42-1.07-.42c-.73,0-1.16.49-1.16.97,0,1.29,2.51.9,2.51,2.54,0,.71-.55,1.27-1.42,1.27-.97,0-1.5-.61-1.5-.61l.2-.23Z"/>
    <path class="cls-6" d="M105.32,595.42c1.16,0,1.75.62,1.75.62l-.18.22s-.58-.55-1.56-.55c-1.21,0-2.12.95-2.12,2.21s.91,2.28,2.14,2.28c1.05,0,1.66-.67,1.66-.67l.19.21s-.66.74-1.85.74c-1.43,0-2.46-1.15-2.46-2.57s1.05-2.5,2.43-2.5Z"/>
    <path class="cls-6" d="M108.29,595.51h.3v3.21c0,.92.6,1.49,1.53,1.49s1.53-.57,1.53-1.51v-3.19h.3v3.22c0,1.08-.75,1.76-1.83,1.76s-1.84-.69-1.84-1.76v-3.22Z"/>
    <path class="cls-6" d="M113.39,595.51h2.47v.28h-2.17v2.04h1.88v.28h-1.88v2.3h-.3v-4.9Z"/>
    <path class="cls-6" d="M116.47,601.07c.53-.93.79-1.96.79-3,0-.99-.29-1.89-.79-2.74h.31c.49.81.77,1.72.77,2.73,0,1.09-.29,2.18-.77,3.01h-.31Z"/>
    <path class="cls-6" d="M122.57,598.27h.23v-.12c0-.78-.4-1.04-.96-1.04-.61,0-1,.34-1,.34l-.17-.24s.42-.38,1.18-.38c.81,0,1.24.45,1.24,1.32v2.26h-.29v-.46c0-.19.03-.32.03-.32h-.01s-.32.86-1.23.86c-.57,0-1.19-.32-1.19-1.02,0-1.19,1.55-1.2,2.17-1.2ZM121.6,600.22c.76,0,1.2-.79,1.2-1.48v-.19h-.22c-.59,0-1.87,0-1.87.91,0,.37.3.76.9.76Z"/>
    <path class="cls-6" d="M124.27,596.91h.29v.62c0,.16-.03.29-.03.29h.01c.12-.33.61-.99,1.49-.99s1.16.54,1.16,1.37v2.22h-.29v-2.12c0-.61-.08-1.18-.86-1.18-.66,0-1.24.46-1.42,1.11-.04.15-.05.31-.05.48v1.71h-.29v-3.5Z"/>
    <path class="cls-6" d="M129.71,596.82c.88,0,1.21.79,1.21.79h.01s-.03-.13-.03-.29v-1.82h.29v4.9h-.29v-.44c0-.16.03-.27.03-.27h-.01s-.3.79-1.27.79-1.51-.75-1.51-1.83.65-1.83,1.57-1.83ZM129.67,600.21c.64,0,1.25-.46,1.25-1.55,0-.78-.4-1.54-1.22-1.54-.69,0-1.25.57-1.25,1.55s.5,1.55,1.22,1.55Z"/>
    <path class="cls-6" d="M134.35,599.65s.5.55,1.31.55c.61,0,1.09-.38,1.09-.97,0-1.39-2.51-1.01-2.51-2.54,0-.65.58-1.27,1.47-1.27.8,0,1.25.46,1.25.46l-.17.26s-.42-.42-1.07-.42c-.73,0-1.16.49-1.16.97,0,1.29,2.51.9,2.51,2.54,0,.71-.55,1.27-1.42,1.27-.97,0-1.5-.61-1.5-.61l.2-.23Z"/>
    <path class="cls-6" d="M138.09,595.51h.29v2.02c0,.16-.03.29-.03.29h.01c.12-.33.61-.99,1.49-.99s1.16.54,1.16,1.37v2.22h-.29v-2.12c0-.61-.08-1.18-.86-1.18-.66,0-1.24.46-1.42,1.11-.04.15-.05.31-.05.48v1.71h-.29v-4.9Z"/>
    <path class="cls-6" d="M142.19,596.91h.29v.67c0,.16-.03.29-.03.29h.01c.17-.54.57-.98,1.12-.98.1,0,.2.02.2.02v.29s-.08-.01-.16-.01c-.55,0-.89.46-1.04.98-.08.25-.11.5-.11.74v1.51h-.29v-3.5Z"/>
    <path class="cls-6" d="M144.53,595.51h.35v.51h-.35v-.51ZM144.55,596.91h.29v3.5h-.29v-3.5Z"/>
    <path class="cls-6" d="M146.08,596.91h.29v.67c0,.16-.03.29-.03.29h.01c.17-.54.57-.98,1.12-.98.11,0,.2.02.2.02v.29s-.08-.01-.16-.01c-.55,0-.89.46-1.04.98-.08.25-.1.5-.1.74v1.51h-.29v-3.5Z"/>
    <path class="cls-6" d="M150.33,598.27h.23v-.12c0-.78-.4-1.04-.96-1.04-.61,0-1,.34-1,.34l-.17-.24s.42-.38,1.18-.38c.81,0,1.24.45,1.24,1.32v2.26h-.29v-.46c0-.19.03-.32.03-.32h-.01s-.32.86-1.23.86c-.57,0-1.19-.32-1.19-1.02,0-1.19,1.55-1.2,2.17-1.2ZM149.36,600.22c.76,0,1.2-.79,1.2-1.48v-.19h-.22c-.59,0-1.87,0-1.87.91,0,.37.3.76.9.76Z"/>
    <path class="cls-6" d="M152.04,596.91h.29v.62c0,.16-.03.29-.03.29h.01c.18-.53.8-.99,1.35-.99.7,0,1.03.33,1.11.95h.01c.2-.49.73-.95,1.33-.95.9,0,1.17.53,1.17,1.37v2.22h-.29v-2.12c0-.66-.13-1.2-.88-1.2-.58,0-1.08.52-1.23,1.06-.05.16-.07.34-.07.54v1.71h-.29v-2.12c0-.6-.08-1.2-.85-1.2-.62,0-1.11.55-1.28,1.13-.04.15-.06.31-.06.48v1.71h-.29v-3.5Z"/>
    <path class="cls-6" d="M161.67,595.79h-1.83v-.28h3.96v.28h-1.83v4.62h-.3v-4.62Z"/>
    <path class="cls-6" d="M163.69,596.91h.29v.67c0,.16-.03.29-.03.29h.01c.17-.54.57-.98,1.12-.98.1,0,.2.02.2.02v.29s-.08-.01-.16-.01c-.55,0-.89.46-1.04.98-.08.25-.11.5-.11.74v1.51h-.29v-3.5Z"/>
    <path class="cls-6" d="M167.94,598.27h.23v-.12c0-.78-.4-1.04-.96-1.04-.61,0-1,.34-1,.34l-.17-.24s.42-.38,1.18-.38c.81,0,1.24.45,1.24,1.32v2.26h-.29v-.46c0-.19.03-.32.03-.32h-.01s-.32.86-1.23.86c-.57,0-1.19-.32-1.19-1.02,0-1.19,1.55-1.2,2.17-1.2ZM166.97,600.22c.76,0,1.2-.79,1.2-1.48v-.19h-.22c-.6,0-1.87,0-1.87.91,0,.37.3.76.9.76Z"/>
    <path class="cls-6" d="M169.65,596.91h.29v.62c0,.16-.03.29-.03.29h.01c.12-.33.61-.99,1.49-.99s1.16.54,1.16,1.37v2.22h-.29v-2.12c0-.61-.08-1.18-.86-1.18-.66,0-1.24.46-1.42,1.11-.04.15-.05.31-.05.48v1.71h-.29v-3.5Z"/>
    <path class="cls-6" d="M173.64,599.76s.39.44,1.09.44c.43,0,.8-.22.8-.66,0-.89-1.93-.64-1.93-1.78,0-.62.53-.95,1.12-.95.71,0,1.04.38,1.04.38l-.17.24s-.29-.33-.88-.33c-.4,0-.79.18-.79.64,0,.91,1.93.64,1.93,1.8,0,.56-.48.95-1.12.95-.85,0-1.27-.5-1.27-.5l.19-.22Z"/>
    <path class="cls-6" d="M176.8,596.91h.29v.42c0,.16-.02.28-.02.28h.01s.29-.78,1.26-.78,1.51.75,1.51,1.83-.65,1.83-1.55,1.83-1.23-.79-1.23-.79h-.01s.03.13.03.31v1.8h-.29v-4.9ZM178.31,600.21c.69,0,1.25-.57,1.25-1.55s-.5-1.55-1.22-1.55c-.64,0-1.25.46-1.25,1.55,0,.78.43,1.54,1.22,1.54Z"/>
    <path class="cls-6" d="M182.41,596.82c1,0,1.81.79,1.81,1.81s-.81,1.86-1.81,1.86-1.81-.81-1.81-1.86.81-1.81,1.81-1.81ZM182.41,600.21c.83,0,1.51-.68,1.51-1.57s-.67-1.53-1.51-1.53-1.51.66-1.51,1.53.67,1.57,1.51,1.57Z"/>
    <path class="cls-6" d="M185.19,596.91h.29v.67c0,.16-.03.29-.03.29h.01c.17-.54.57-.98,1.12-.98.11,0,.2.02.2.02v.29s-.08-.01-.16-.01c-.55,0-.89.46-1.04.98-.08.25-.1.5-.1.74v1.51h-.29v-3.5Z"/>
    <path class="cls-6" d="M187.67,597.19h-.46v-.27h.46v-1h.29v1h.92v.27h-.92v1.93c0,.92.55,1.04.83,1.04.1,0,.16-.01.16-.01v.27s-.07.01-.18.01c-.36,0-1.11-.13-1.11-1.3v-1.95Z"/>
    <path class="cls-6" d="M191.7,596.91h.29v.62c0,.16-.03.29-.03.29h.01c.18-.53.8-.99,1.34-.99.7,0,1.03.33,1.11.95h.01c.2-.49.73-.95,1.33-.95.9,0,1.17.53,1.17,1.37v2.22h-.29v-2.12c0-.66-.13-1.2-.88-1.2-.58,0-1.08.52-1.23,1.06-.05.16-.07.34-.07.54v1.71h-.29v-2.12c0-.6-.08-1.2-.85-1.2-.62,0-1.11.55-1.27,1.13-.04.15-.06.31-.06.48v1.71h-.29v-3.5Z"/>
    <path class="cls-6" d="M199.58,596.82c.95,0,1.43.75,1.43,1.6,0,.08-.01.19-.01.19h-2.81c0,1.02.69,1.6,1.5,1.6.67,0,1.08-.44,1.08-.44l.16.25s-.49.48-1.25.48c-.99,0-1.81-.71-1.81-1.83,0-1.18.81-1.84,1.7-1.84ZM200.7,598.34c-.04-.85-.55-1.24-1.13-1.24-.64,0-1.24.42-1.37,1.24h2.49Z"/>
    <path class="cls-6" d="M201.99,596.91h.29v.67c0,.16-.03.29-.03.29h.01c.18-.54.57-.98,1.12-.98.1,0,.2.02.2.02v.29s-.08-.01-.16-.01c-.55,0-.89.46-1.04.98-.08.25-.11.5-.11.74v1.51h-.29v-3.5Z"/>
    <path class="cls-6" d="M205.49,601.59c.75,0,1.33-.36,1.33-1.21v-.41c0-.16.03-.29.03-.29h-.01c-.21.43-.6.71-1.18.71-.91,0-1.55-.71-1.55-1.81s.6-1.78,1.51-1.78c1,0,1.22.69,1.22.69h.01s-.02-.05-.02-.13v-.47h.29v3.48c0,1.07-.77,1.49-1.6,1.49-.38,0-.76-.1-1.1-.27l.14-.26s.43.25.94.25ZM206.83,598.6c0-1.13-.53-1.49-1.22-1.49-.75,0-1.2.55-1.2,1.49s.52,1.52,1.27,1.52c.62,0,1.15-.39,1.15-1.52Z"/>
    <path class="cls-6" d="M209.8,596.82c.95,0,1.43.75,1.43,1.6,0,.08-.01.19-.01.19h-2.81c0,1.02.69,1.6,1.5,1.6.67,0,1.09-.44,1.09-.44l.16.25s-.49.48-1.25.48c-.99,0-1.81-.71-1.81-1.83,0-1.18.8-1.84,1.7-1.84ZM210.92,598.34c-.04-.85-.55-1.24-1.13-1.24-.64,0-1.24.42-1.37,1.24h2.49Z"/>
    <path class="cls-6" d="M213.55,596.82c.88,0,1.21.79,1.21.79h.01s-.03-.13-.03-.29v-1.82h.29v4.9h-.29v-.44c0-.16.03-.27.03-.27h-.01s-.3.79-1.27.79-1.51-.75-1.51-1.83.65-1.83,1.57-1.83ZM213.51,600.21c.64,0,1.25-.46,1.25-1.55,0-.78-.4-1.54-1.22-1.54-.69,0-1.25.57-1.25,1.55s.5,1.55,1.22,1.55Z"/>
    <path class="cls-6" d="M218.33,597.19h-.46v-.27h.46v-1h.29v1h.92v.27h-.92v1.93c0,.92.55,1.04.83,1.04.1,0,.16-.01.16-.01v.27s-.07.01-.18.01c-.36,0-1.11-.13-1.11-1.3v-1.95Z"/>
    <path class="cls-6" d="M221.97,596.82c1,0,1.81.79,1.81,1.81s-.81,1.86-1.81,1.86-1.81-.81-1.81-1.86.81-1.81,1.81-1.81ZM221.97,600.21c.83,0,1.51-.68,1.51-1.57s-.67-1.53-1.51-1.53-1.51.66-1.51,1.53.67,1.57,1.51,1.57Z"/>
    <path class="cls-6" d="M226.84,597.19h-.44v-.27h.44v-.16c0-1.16.76-1.3,1.11-1.3.11,0,.18.01.18.01v.27s-.06-.01-.16-.01c-.28,0-.83.11-.83,1.01v.17h.96v.27h-.96v3.21h-.29v-3.21Z"/>
    <path class="cls-6" d="M230.35,596.82c1,0,1.81.79,1.81,1.81s-.81,1.86-1.81,1.86-1.81-.81-1.81-1.86.81-1.81,1.81-1.81ZM230.35,600.21c.83,0,1.51-.68,1.51-1.57s-.67-1.53-1.51-1.53-1.51.66-1.51,1.53.67,1.57,1.51,1.57Z"/>
    <path class="cls-6" d="M233.13,596.91h.29v.67c0,.16-.03.29-.03.29h.01c.17-.54.57-.98,1.12-.98.11,0,.2.02.2.02v.29s-.08-.01-.16-.01c-.55,0-.89.46-1.04.98-.08.25-.1.5-.1.74v1.51h-.29v-3.5Z"/>
    <path class="cls-6" d="M235.5,596.91h.29v.62c0,.16-.03.29-.03.29h.01c.17-.53.8-.99,1.34-.99.7,0,1.03.33,1.11.95h.01c.2-.49.73-.95,1.33-.95.9,0,1.17.53,1.17,1.37v2.22h-.29v-2.12c0-.66-.13-1.2-.88-1.2-.58,0-1.08.52-1.23,1.06-.05.16-.07.34-.07.54v1.71h-.29v-2.12c0-.6-.08-1.2-.86-1.2-.62,0-1.11.55-1.27,1.13-.04.15-.06.31-.06.48v1.71h-.29v-3.5Z"/>
    <path class="cls-6" d="M243.84,599.65s.5.55,1.31.55c.61,0,1.09-.38,1.09-.97,0-1.39-2.51-1.01-2.51-2.54,0-.65.58-1.27,1.47-1.27.8,0,1.25.46,1.25.46l-.17.26s-.42-.42-1.07-.42c-.73,0-1.16.49-1.16.97,0,1.29,2.51.9,2.51,2.54,0,.71-.55,1.27-1.42,1.27-.97,0-1.5-.61-1.5-.61l.2-.23Z"/>
    <path class="cls-6" d="M247.57,595.51h.29v2.02c0,.16-.03.29-.03.29h.01c.12-.33.61-.99,1.49-.99s1.16.54,1.16,1.37v2.22h-.29v-2.12c0-.61-.08-1.18-.86-1.18-.66,0-1.24.46-1.42,1.11-.04.15-.06.31-.06.48v1.71h-.29v-4.9Z"/>
    <path class="cls-6" d="M251.67,596.91h.29v.67c0,.16-.03.29-.03.29h.01c.17-.54.57-.98,1.12-.98.11,0,.2.02.2.02v.29s-.08-.01-.16-.01c-.55,0-.89.46-1.04.98-.08.25-.1.5-.1.74v1.51h-.29v-3.5Z"/>
    <path class="cls-6" d="M254.01,595.51h.35v.51h-.35v-.51ZM254.04,596.91h.29v3.5h-.29v-3.5Z"/>
    <path class="cls-6" d="M255.56,596.91h.29v.67c0,.16-.03.29-.03.29h.01c.18-.54.57-.98,1.12-.98.1,0,.2.02.2.02v.29s-.08-.01-.16-.01c-.55,0-.89.46-1.04.98-.08.25-.11.5-.11.74v1.51h-.29v-3.5Z"/>
    <path class="cls-6" d="M259.82,598.27h.23v-.12c0-.78-.4-1.04-.96-1.04-.61,0-1,.34-1,.34l-.17-.24s.42-.38,1.18-.38c.8,0,1.24.45,1.24,1.32v2.26h-.29v-.46c0-.19.03-.32.03-.32h-.01s-.31.86-1.22.86c-.57,0-1.19-.32-1.19-1.02,0-1.19,1.55-1.2,2.17-1.2ZM258.85,600.22c.76,0,1.2-.79,1.2-1.48v-.19h-.22c-.59,0-1.87,0-1.87.91,0,.37.3.76.9.76Z"/>
    <path class="cls-6" d="M261.52,596.91h.29v.62c0,.16-.03.29-.03.29h.01c.18-.53.8-.99,1.34-.99.7,0,1.03.33,1.11.95h.01c.2-.49.73-.95,1.33-.95.9,0,1.17.53,1.17,1.37v2.22h-.29v-2.12c0-.66-.13-1.2-.88-1.2-.58,0-1.08.52-1.23,1.06-.05.16-.07.34-.07.54v1.71h-.29v-2.12c0-.6-.08-1.2-.85-1.2-.62,0-1.11.55-1.27,1.13-.04.15-.06.31-.06.48v1.71h-.29v-3.5Z"/>
    <path class="cls-6" d="M270.03,595.51h2.47v.28h-2.17v2.04h1.88v.28h-1.88v2.3h-.3v-4.9Z"/>
    <path class="cls-6" d="M273.42,595.51h.35v.51h-.35v-.51ZM273.44,596.91h.29v3.5h-.29v-3.5Z"/>
    <path class="cls-6" d="M274.97,596.91h.29v.62c0,.16-.03.29-.03.29h.01c.12-.33.61-.99,1.48-.99s1.16.54,1.16,1.37v2.22h-.29v-2.12c0-.61-.08-1.18-.86-1.18-.66,0-1.24.46-1.42,1.11-.04.15-.06.31-.06.48v1.71h-.29v-3.5Z"/>
    <path class="cls-6" d="M280.95,598.27h.23v-.12c0-.78-.4-1.04-.96-1.04-.61,0-1,.34-1,.34l-.17-.24s.42-.38,1.18-.38c.81,0,1.24.45,1.24,1.32v2.26h-.29v-.46c0-.19.03-.32.03-.32h-.01s-.32.86-1.23.86c-.57,0-1.19-.32-1.19-1.02,0-1.19,1.55-1.2,2.17-1.2ZM279.99,600.22c.76,0,1.2-.79,1.2-1.48v-.19h-.22c-.6,0-1.87,0-1.87.91,0,.37.3.76.9.76Z"/>
    <path class="cls-6" d="M282.66,596.91h.29v.62c0,.16-.03.29-.03.29h.01c.12-.33.61-.99,1.49-.99s1.16.54,1.16,1.37v2.22h-.29v-2.12c0-.61-.08-1.18-.86-1.18-.66,0-1.24.46-1.42,1.11-.04.15-.05.31-.05.48v1.71h-.29v-3.5Z"/>
    <path class="cls-6" d="M288.33,596.82c.83,0,1.25.5,1.25.5l-.18.24s-.4-.45-1.07-.45c-.82,0-1.5.61-1.5,1.55s.68,1.54,1.5,1.54c.77,0,1.17-.5,1.17-.5l.15.25s-.46.55-1.32.55c-.99,0-1.81-.71-1.81-1.83s.83-1.84,1.81-1.84Z"/>
    <path class="cls-6" d="M292.06,596.82c.95,0,1.43.75,1.43,1.6,0,.08-.01.19-.01.19h-2.81c0,1.02.69,1.6,1.5,1.6.67,0,1.08-.44,1.08-.44l.16.25s-.49.48-1.25.48c-.99,0-1.81-.71-1.81-1.83,0-1.18.81-1.84,1.7-1.84ZM293.19,598.34c-.04-.85-.55-1.24-1.13-1.24-.64,0-1.24.42-1.37,1.24h2.49Z"/>
    <path class="cls-6" d="M296.56,595.51h.3v4.62h2.34v.28h-2.64v-4.9Z"/>
    <path class="cls-6" d="M299.95,595.51h.35v.51h-.35v-.51ZM299.98,596.91h.29v3.5h-.29v-3.5Z"/>
    <path class="cls-6" d="M301.51,596.91h.29v.62c0,.16-.03.29-.03.29h.01c.17-.53.8-.99,1.34-.99.7,0,1.03.33,1.11.95h.01c.2-.49.73-.95,1.33-.95.9,0,1.17.53,1.17,1.37v2.22h-.29v-2.12c0-.66-.13-1.2-.88-1.2-.58,0-1.08.52-1.23,1.06-.05.16-.07.34-.07.54v1.71h-.29v-2.12c0-.6-.08-1.2-.85-1.2-.62,0-1.11.55-1.28,1.13-.04.15-.05.31-.05.48v1.71h-.29v-3.5Z"/>
    <path class="cls-6" d="M307.9,595.51h.35v.51h-.35v-.51ZM307.93,596.91h.29v3.5h-.29v-3.5Z"/>
    <path class="cls-6" d="M309.57,597.19h-.46v-.27h.46v-1h.29v1h.92v.27h-.92v1.93c0,.92.55,1.04.83,1.04.1,0,.16-.01.16-.01v.27s-.07.01-.17.01c-.37,0-1.11-.13-1.11-1.3v-1.95Z"/>
    <path class="cls-6" d="M313.11,596.82c.95,0,1.43.75,1.43,1.6,0,.08-.01.19-.01.19h-2.81c0,1.02.69,1.6,1.5,1.6.67,0,1.09-.44,1.09-.44l.16.25s-.49.48-1.25.48c-.99,0-1.81-.71-1.81-1.83,0-1.18.81-1.84,1.7-1.84ZM314.23,598.34c-.03-.85-.54-1.24-1.13-1.24-.64,0-1.24.42-1.37,1.24h2.49Z"/>
    <path class="cls-6" d="M316.86,596.82c.88,0,1.21.79,1.21.79h.01s-.03-.13-.03-.29v-1.82h.29v4.9h-.29v-.44c0-.16.03-.27.03-.27h-.01s-.3.79-1.27.79-1.51-.75-1.51-1.83.65-1.83,1.57-1.83ZM316.82,600.21c.64,0,1.25-.46,1.25-1.55,0-.78-.4-1.54-1.22-1.54-.69,0-1.25.57-1.25,1.55s.5,1.55,1.22,1.55Z"/>
  </g>
</svg>