<?xml version="1.0" encoding="UTF-8"?>
<svg id="Layer_1" data-name="Layer 1" xmlns="http://www.w3.org/2000/svg" xmlns:xlink="http://www.w3.org/1999/xlink" viewBox="0 0 175.32 350.77">
  <defs>
    <style>
      .cls-1 {
        stroke: #dda52b;
        stroke-width: 3px;
      }

      .cls-1, .cls-2, .cls-3 {
        fill: none;
      }

      .cls-4 {
        clip-path: url(#clippath);
      }

      .cls-2, .cls-5, .cls-6, .cls-7, .cls-8 {
        stroke-width: 0px;
      }

      .cls-5 {
        fill: #089cb5;
      }

      .cls-6 {
        fill: #71c7aa;
      }

      .cls-7 {
        fill: #58595b;
      }

      .cls-8 {
        fill: #a5378a;
      }

      .cls-3 {
        stroke: #a5378a;
        stroke-width: .5px;
      }
    </style>
    <clipPath id="clippath">
      <rect class="cls-2" y="0" width="175.32" height="350.77"/>
    </clipPath>
  </defs>
  <g>
    <path class="cls-7" d="M9.92,114.19h.37v5.95h-.37v-5.95Z"/>
    <path class="cls-7" d="M11.95,115.89h.36v.75c0,.2-.03.35-.03.35h.02c.21-.64.97-1.2,1.63-1.2.85,0,1.25.4,1.34,1.16h.02c.24-.6.88-1.16,1.61-1.16,1.1,0,1.42.65,1.42,1.66v2.69h-.36v-2.57c0-.8-.16-1.45-1.06-1.45-.71,0-1.31.63-1.5,1.29-.06.2-.08.41-.08.65v2.07h-.36v-2.57c0-.73-.1-1.45-1.04-1.45-.76,0-1.35.66-1.55,1.37-.05.18-.07.37-.07.58v2.07h-.36v-4.25Z"/>
    <path class="cls-7" d="M19.75,115.89h.36v.51c0,.2-.03.34-.03.34h.02s.35-.95,1.53-.95,1.84.91,1.84,2.23-.79,2.23-1.89,2.23-1.49-.96-1.49-.96h-.02s.03.15.03.37v2.18h-.36v-5.95ZM21.58,119.9c.83,0,1.51-.69,1.51-1.88s-.61-1.88-1.48-1.88c-.78,0-1.51.55-1.51,1.89,0,.94.53,1.87,1.48,1.87Z"/>
    <path class="cls-7" d="M24.63,114.19h.36v4.98c0,.59.31.66.5.66.07,0,.13,0,.13,0v.33s-.08.02-.15.02c-.25,0-.83-.09-.83-.89v-5.09Z"/>
    <path class="cls-7" d="M28.4,115.79c1.16,0,1.73.91,1.73,1.94,0,.09-.02.23-.02.23h-3.41c0,1.23.83,1.94,1.82,1.94.82,0,1.32-.54,1.32-.54l.2.3s-.59.59-1.51.59c-1.2,0-2.19-.87-2.19-2.22,0-1.44.98-2.24,2.06-2.24ZM29.76,117.63c-.04-1.04-.66-1.5-1.37-1.5-.78,0-1.5.51-1.66,1.5h3.03Z"/>
    <path class="cls-7" d="M31.33,115.89h.36v.75c0,.2-.03.35-.03.35h.02c.21-.64.97-1.2,1.63-1.2.85,0,1.25.4,1.34,1.16h.02c.24-.6.88-1.16,1.61-1.16,1.1,0,1.42.65,1.42,1.66v2.69h-.36v-2.57c0-.8-.16-1.45-1.06-1.45-.71,0-1.31.63-1.5,1.29-.06.2-.08.41-.08.65v2.07h-.36v-2.57c0-.73-.1-1.45-1.04-1.45-.76,0-1.35.66-1.55,1.37-.05.18-.07.37-.07.58v2.07h-.36v-4.25Z"/>
    <path class="cls-7" d="M40.9,115.79c1.16,0,1.73.91,1.73,1.94,0,.09-.02.23-.02.23h-3.41c0,1.23.83,1.94,1.82,1.94.82,0,1.32-.54,1.32-.54l.2.3s-.6.59-1.51.59c-1.2,0-2.19-.87-2.19-2.22,0-1.44.98-2.24,2.07-2.24ZM42.26,117.63c-.04-1.04-.66-1.5-1.37-1.5-.78,0-1.5.51-1.66,1.5h3.03Z"/>
    <path class="cls-7" d="M43.83,115.89h.36v.75c0,.2-.03.35-.03.35h.02c.14-.4.74-1.2,1.8-1.2s1.4.65,1.4,1.66v2.69h-.36v-2.57c0-.74-.09-1.44-1.04-1.44-.8,0-1.5.56-1.72,1.35-.05.18-.07.37-.07.58v2.07h-.36v-4.25Z"/>
    <path class="cls-7" d="M48.95,116.24h-.56v-.32h.56v-1.21h.36v1.21h1.11v.32h-1.11v2.34c0,1.12.67,1.27,1.01,1.27.12,0,.2-.02.2-.02v.33s-.08.02-.21.02c-.44,0-1.35-.16-1.35-1.57v-2.36Z"/>
    <path class="cls-7" d="M51.45,114.19h.42v.62h-.42v-.62ZM51.48,115.89h.36v4.25h-.36v-4.25Z"/>
    <path class="cls-7" d="M53.34,115.89h.36v.75c0,.2-.03.35-.03.35h.02c.14-.4.74-1.2,1.8-1.2s1.4.65,1.4,1.66v2.69h-.36v-2.57c0-.74-.09-1.44-1.04-1.44-.8,0-1.5.56-1.72,1.35-.05.18-.07.37-.07.58v2.07h-.36v-4.25Z"/>
    <path class="cls-7" d="M59.72,121.58c.91,0,1.62-.43,1.62-1.46v-.49c0-.2.03-.35.03-.35h-.02c-.25.52-.72.87-1.43.87-1.1,0-1.89-.87-1.89-2.19s.72-2.16,1.83-2.16c1.21,0,1.48.83,1.48.83h.02s-.03-.06-.03-.16v-.57h.36v4.22c0,1.3-.93,1.81-1.95,1.81-.47,0-.92-.12-1.33-.33l.17-.31s.53.3,1.14.3ZM61.34,117.95c0-1.37-.65-1.81-1.48-1.81-.91,0-1.45.66-1.45,1.81s.63,1.84,1.54,1.84c.75,0,1.39-.47,1.39-1.84Z"/>
    <path class="cls-7" d="M65.68,116.24h-.56v-.32h.56v-1.21h.36v1.21h1.11v.32h-1.11v2.34c0,1.12.67,1.27,1.01,1.27.12,0,.2-.02.2-.02v.33s-.08.02-.21.02c-.44,0-1.35-.16-1.35-1.57v-2.36Z"/>
    <path class="cls-7" d="M68.21,114.19h.36v2.45c0,.2-.03.35-.03.35h.02c.14-.4.74-1.2,1.8-1.2s1.4.65,1.4,1.66v2.69h-.36v-2.57c0-.74-.09-1.44-1.04-1.44-.8,0-1.5.56-1.72,1.35-.05.18-.07.37-.07.58v2.07h-.36v-5.95Z"/>
    <path class="cls-7" d="M74.96,115.79c1.16,0,1.73.91,1.73,1.94,0,.09-.02.23-.02.23h-3.41c0,1.23.83,1.94,1.82,1.94.82,0,1.32-.54,1.32-.54l.2.3s-.59.59-1.51.59c-1.2,0-2.19-.87-2.19-2.22,0-1.44.98-2.24,2.06-2.24ZM76.32,117.63c-.04-1.04-.66-1.5-1.37-1.5-.78,0-1.5.51-1.66,1.5h3.03Z"/>
    <path class="cls-7" d="M80.42,114.19h.34l3.39,4.67c.2.27.48.75.48.75h.02s-.04-.45-.04-.75v-4.67h.37v5.95h-.34l-3.39-4.67c-.2-.27-.48-.75-.48-.75h-.02s.04.45.04.75v4.67h-.37v-5.95Z"/>
    <path class="cls-7" d="M88.92,117.55h.28v-.14c0-.94-.48-1.27-1.16-1.27-.74,0-1.22.41-1.22.41l-.2-.29s.51-.47,1.44-.47c.98,0,1.5.54,1.5,1.61v2.75h-.36v-.56c0-.23.03-.38.03-.38h-.02s-.38,1.04-1.49,1.04c-.69,0-1.44-.38-1.44-1.23,0-1.44,1.88-1.46,2.63-1.46ZM87.75,119.91c.93,0,1.45-.96,1.45-1.8v-.23h-.27c-.72,0-2.27,0-2.27,1.1,0,.45.37.93,1.09.93Z"/>
    <path class="cls-7" d="M91.12,116.24h-.56v-.32h.56v-1.21h.36v1.21h1.11v.32h-1.11v2.34c0,1.12.67,1.27,1.01,1.27.12,0,.2-.02.2-.02v.33s-.08.02-.21.02c-.44,0-1.35-.16-1.35-1.57v-2.36Z"/>
    <path class="cls-7" d="M93.62,114.19h.42v.62h-.42v-.62ZM93.65,115.89h.36v4.25h-.36v-4.25Z"/>
    <path class="cls-7" d="M97.39,115.79c1.21,0,2.2.96,2.2,2.2s-.99,2.25-2.2,2.25-2.2-.99-2.2-2.25.99-2.2,2.2-2.2ZM97.39,119.9c1.01,0,1.83-.83,1.83-1.9s-.82-1.85-1.83-1.85-1.83.8-1.83,1.85.82,1.9,1.83,1.9Z"/>
    <path class="cls-7" d="M100.77,115.89h.36v.75c0,.2-.03.35-.03.35h.02c.14-.4.74-1.2,1.8-1.2s1.4.65,1.4,1.66v2.69h-.36v-2.57c0-.74-.09-1.44-1.05-1.44-.8,0-1.5.56-1.72,1.35-.05.18-.07.37-.07.58v2.07h-.36v-4.25Z"/>
    <path class="cls-7" d="M108.04,117.55h.28v-.14c0-.94-.48-1.27-1.16-1.27-.74,0-1.22.41-1.22.41l-.2-.29s.51-.47,1.44-.47c.98,0,1.5.54,1.5,1.61v2.75h-.36v-.56c0-.23.03-.38.03-.38h-.02s-.38,1.04-1.49,1.04c-.69,0-1.44-.38-1.44-1.23,0-1.44,1.88-1.46,2.63-1.46ZM106.87,119.91c.93,0,1.45-.96,1.45-1.8v-.23h-.27c-.72,0-2.27,0-2.27,1.1,0,.45.37.93,1.09.93Z"/>
    <path class="cls-7" d="M110.07,114.19h.36v4.98c0,.59.31.66.5.66.07,0,.13,0,.13,0v.33s-.08.02-.15.02c-.25,0-.83-.09-.83-.89v-5.09Z"/>
    <path class="cls-7" d="M113.82,114.19h.39l1.79,4.81c.1.28.23.71.23.71h.02s.13-.43.23-.71l1.8-4.81h.39l-2.23,5.95h-.4l-2.23-5.95Z"/>
    <path class="cls-7" d="M119.53,114.19h.42v.62h-.42v-.62ZM119.57,115.89h.36v4.25h-.36v-4.25Z"/>
    <path class="cls-7" d="M121.28,119.36s.48.54,1.32.54c.52,0,.98-.27.98-.8,0-1.08-2.34-.77-2.34-2.16,0-.76.64-1.15,1.36-1.15.87,0,1.26.46,1.26.46l-.21.29s-.35-.4-1.07-.4c-.48,0-.96.22-.96.77,0,1.1,2.34.77,2.34,2.18,0,.68-.58,1.15-1.36,1.15-1.03,0-1.54-.61-1.54-.61l.23-.27Z"/>
    <path class="cls-7" d="M125.09,114.19h.42v.62h-.42v-.62ZM125.13,115.89h.36v4.25h-.36v-4.25Z"/>
    <path class="cls-7" d="M128.87,115.79c1.22,0,2.2.96,2.2,2.2s-.99,2.25-2.2,2.25-2.2-.99-2.2-2.25.99-2.2,2.2-2.2ZM128.87,119.9c1.01,0,1.83-.83,1.83-1.9s-.82-1.85-1.83-1.85-1.83.8-1.83,1.85.82,1.9,1.83,1.9Z"/>
    <path class="cls-7" d="M132.25,115.89h.36v.75c0,.2-.03.35-.03.35h.02c.14-.4.74-1.2,1.8-1.2s1.4.65,1.4,1.66v2.69h-.36v-2.57c0-.74-.09-1.44-1.05-1.44-.8,0-1.5.56-1.72,1.35-.05.18-.07.37-.07.58v2.07h-.36v-4.25Z"/>
  </g>
  <g>
    <path class="cls-7" d="M11.63,127.79c1.22,0,2.2.96,2.2,2.2s-.99,2.25-2.2,2.25-2.2-.99-2.2-2.25.99-2.2,2.2-2.2ZM11.63,131.9c1.01,0,1.83-.83,1.83-1.9s-.82-1.85-1.83-1.85-1.83.8-1.83,1.85.82,1.9,1.83,1.9Z"/>
    <path class="cls-7" d="M15.17,128.24h-.54v-.32h.54v-.2c0-1.4.92-1.57,1.34-1.57.14,0,.22.02.22.02v.33s-.08-.02-.2-.02c-.34,0-1.01.14-1.01,1.23v.2h1.16v.32h-1.16v3.9h-.36v-3.9Z"/>
    <path class="cls-7" d="M20.11,126.13h.33l-.3,1.28h-.44l.41-1.28Z"/>
    <path class="cls-7" d="M21.75,126.19h.37v2.8h3.77v-2.8h.37v5.95h-.37v-2.81h-3.77v2.81h-.37v-5.95Z"/>
    <path class="cls-7" d="M29.81,127.79c1.22,0,2.2.96,2.2,2.2s-.99,2.25-2.2,2.25-2.2-.99-2.2-2.25.99-2.2,2.2-2.2ZM29.81,131.9c1.01,0,1.83-.83,1.83-1.9s-.82-1.85-1.83-1.85-1.83.8-1.83,1.85.82,1.9,1.83,1.9Z"/>
    <path class="cls-7" d="M33.13,127.89h.36v2.57c0,.74.09,1.44,1.05,1.44,1.06,0,1.74-.94,1.74-1.93v-2.07h.36v4.25h-.36v-.75c0-.2.03-.35.03-.35h-.02c-.14.4-.73,1.2-1.76,1.2s-1.4-.58-1.4-1.66v-2.69Z"/>
    <path class="cls-7" d="M37.99,131.36s.48.54,1.32.54c.52,0,.98-.27.98-.8,0-1.08-2.34-.77-2.34-2.16,0-.76.64-1.15,1.36-1.15.87,0,1.26.46,1.26.46l-.21.29s-.35-.4-1.07-.4c-.48,0-.96.22-.96.77,0,1.1,2.34.77,2.34,2.18,0,.68-.58,1.15-1.36,1.15-1.03,0-1.54-.61-1.54-.61l.23-.27Z"/>
    <path class="cls-7" d="M41.8,126.19h.42v.62h-.42v-.62ZM41.83,127.89h.36v4.25h-.36v-4.25Z"/>
    <path class="cls-7" d="M43.69,127.89h.36v.75c0,.2-.03.35-.03.35h.02c.14-.4.74-1.2,1.8-1.2s1.4.65,1.4,1.66v2.69h-.36v-2.57c0-.74-.09-1.44-1.04-1.44-.8,0-1.5.56-1.72,1.35-.05.18-.07.37-.07.58v2.07h-.36v-4.25Z"/>
    <path class="cls-7" d="M50.07,133.58c.91,0,1.62-.43,1.62-1.46v-.49c0-.2.03-.35.03-.35h-.02c-.25.52-.72.87-1.43.87-1.1,0-1.89-.87-1.89-2.19s.72-2.16,1.83-2.16c1.21,0,1.48.83,1.48.83h.02s-.03-.06-.03-.16v-.57h.36v4.22c0,1.3-.93,1.81-1.95,1.81-.47,0-.92-.12-1.33-.33l.17-.31s.53.3,1.14.3ZM51.69,129.95c0-1.37-.65-1.81-1.48-1.81-.91,0-1.45.66-1.45,1.81s.63,1.84,1.54,1.84c.75,0,1.39-.47,1.39-1.84Z"/>
    <path class="cls-7" d="M56.07,128.24h-.54v-.32h.54v-.2c0-1.4.92-1.57,1.34-1.57.14,0,.22.02.22.02v.33s-.08-.02-.2-.02c-.34,0-1.01.14-1.01,1.23v.2h1.16v.32h-1.16v3.9h-.36v-3.9Z"/>
    <path class="cls-7" d="M60.34,127.79c1.22,0,2.2.96,2.2,2.2s-.99,2.25-2.2,2.25-2.2-.99-2.2-2.25.99-2.2,2.2-2.2ZM60.34,131.9c1.01,0,1.83-.83,1.83-1.9s-.82-1.85-1.83-1.85-1.83.8-1.83,1.85.82,1.9,1.83,1.9Z"/>
    <path class="cls-7" d="M63.72,127.89h.36v.81c0,.2-.03.35-.03.35h.02c.21-.65.69-1.19,1.36-1.19.13,0,.25.03.25.03v.36s-.1-.02-.2-.02c-.66,0-1.08.56-1.27,1.19-.09.3-.13.61-.13.89v1.84h-.36v-4.25Z"/>
    <path class="cls-7" d="M72.03,130.09h-2.52l-.76,2.06h-.39l2.23-5.95h.39l2.23,5.95h-.39l-.77-2.06ZM70.77,126.62s-.13.46-.22.71l-.91,2.41h2.27l-.9-2.41c-.09-.25-.22-.71-.22-.71h-.02Z"/>
    <path class="cls-7" d="M74.06,126.19h.36v4.98c0,.59.31.66.5.66.07,0,.13,0,.13,0v.33s-.08.02-.15.02c-.25,0-.83-.09-.83-.89v-5.09Z"/>
    <path class="cls-7" d="M76.01,126.19h.36v4.98c0,.59.31.66.5.66.07,0,.13,0,.13,0v.33s-.08.02-.15.02c-.25,0-.83-.09-.83-.89v-5.09Z"/>
    <path class="cls-7" d="M78.1,126.13h.44l-.41,1.28h-.33l.3-1.28Z"/>
    <path class="cls-7" d="M82,126.19h.42v.62h-.42v-.62ZM82.04,127.89h.36v4.25h-.36v-4.25Z"/>
    <path class="cls-7" d="M83.89,127.89h.36v.75c0,.2-.03.35-.03.35h.02c.14-.4.74-1.2,1.8-1.2s1.4.65,1.4,1.66v2.69h-.36v-2.57c0-.74-.09-1.44-1.04-1.44-.8,0-1.5.56-1.72,1.35-.05.18-.07.37-.07.58v2.07h-.36v-4.25Z"/>
    <path class="cls-7" d="M93.11,127.79c1.22,0,2.2.96,2.2,2.2s-.99,2.25-2.2,2.25-2.2-.99-2.2-2.25.99-2.2,2.2-2.2ZM93.11,131.9c1.01,0,1.83-.83,1.83-1.9s-.82-1.85-1.83-1.85-1.83.8-1.83,1.85.82,1.9,1.83,1.9Z"/>
    <path class="cls-7" d="M96.44,127.89h.36v2.57c0,.74.09,1.44,1.05,1.44,1.06,0,1.74-.94,1.74-1.93v-2.07h.36v4.25h-.36v-.75c0-.2.03-.35.03-.35h-.02c-.14.4-.73,1.2-1.76,1.2s-1.4-.58-1.4-1.66v-2.69Z"/>
    <path class="cls-7" d="M101.44,127.89h.36v.81c0,.2-.03.35-.03.35h.02c.21-.65.69-1.19,1.36-1.19.13,0,.25.03.25.03v.36s-.1-.02-.2-.02c-.66,0-1.08.56-1.27,1.19-.09.3-.13.61-.13.89v1.84h-.36v-4.25Z"/>
    <path class="cls-7" d="M106.83,126.13h.33l-.3,1.28h-.44l.41-1.28Z"/>
    <path class="cls-7" d="M108.34,131.23s.6.66,1.59.66c.74,0,1.33-.46,1.33-1.17,0-1.69-3.04-1.22-3.04-3.08,0-.79.71-1.54,1.79-1.54.97,0,1.51.55,1.51.55l-.2.31s-.51-.51-1.3-.51c-.88,0-1.41.59-1.41,1.17,0,1.57,3.04,1.09,3.04,3.08,0,.86-.66,1.55-1.73,1.55-1.17,0-1.82-.74-1.82-.74l.25-.28Z"/>
    <path class="cls-7" d="M112.87,126.19h.36v2.45c0,.2-.03.35-.03.35h.02c.14-.4.74-1.2,1.8-1.2s1.4.65,1.4,1.66v2.69h-.36v-2.57c0-.74-.09-1.44-1.05-1.44-.8,0-1.5.56-1.72,1.35-.05.18-.07.37-.07.58v2.07h-.36v-5.95Z"/>
    <path class="cls-7" d="M117.85,127.89h.36v.81c0,.2-.03.35-.03.35h.02c.21-.65.69-1.19,1.36-1.19.13,0,.25.03.25.03v.36s-.1-.02-.2-.02c-.66,0-1.08.56-1.27,1.19-.09.3-.13.61-.13.89v1.84h-.36v-4.25Z"/>
    <path class="cls-7" d="M120.69,126.19h.42v.62h-.42v-.62ZM120.72,127.89h.36v4.25h-.36v-4.25Z"/>
    <path class="cls-7" d="M122.58,127.89h.36v.81c0,.2-.03.35-.03.35h.02c.21-.65.69-1.19,1.36-1.19.13,0,.25.03.25.03v.36s-.1-.02-.2-.02c-.66,0-1.08.56-1.27,1.19-.09.3-.13.61-.13.89v1.84h-.36v-4.25Z"/>
    <path class="cls-7" d="M127.73,129.55h.28v-.14c0-.94-.48-1.27-1.16-1.27-.74,0-1.21.41-1.21.41l-.2-.29s.51-.47,1.44-.47c.98,0,1.5.54,1.5,1.61v2.75h-.36v-.56c0-.23.03-.38.03-.38h-.02s-.38,1.04-1.49,1.04c-.69,0-1.45-.38-1.45-1.23,0-1.44,1.88-1.46,2.63-1.46ZM126.56,131.91c.93,0,1.45-.96,1.45-1.8v-.23h-.27c-.72,0-2.27,0-2.27,1.1,0,.45.37.93,1.09.93Z"/>
    <path class="cls-7" d="M129.81,127.89h.36v.75c0,.2-.03.35-.03.35h.02c.21-.64.97-1.2,1.63-1.2.85,0,1.25.4,1.34,1.16h.02c.24-.6.88-1.16,1.61-1.16,1.1,0,1.42.65,1.42,1.66v2.69h-.36v-2.57c0-.8-.16-1.45-1.06-1.45-.71,0-1.31.63-1.5,1.29-.06.2-.08.41-.08.65v2.07h-.36v-2.57c0-.73-.1-1.45-1.04-1.45-.76,0-1.35.66-1.55,1.37-.05.18-.07.37-.07.58v2.07h-.36v-4.25Z"/>
    <path class="cls-7" d="M137.7,126.13h.44l-.41,1.28h-.33l.3-1.28Z"/>
  </g>
  <g>
    <path class="cls-7" d="M9.18,139.9h.38l1.16,3.33c.07.2.14.46.14.46h.02s.08-.25.14-.46l1.16-3.31h.4l1.16,3.31c.07.2.14.46.14.46h.02s.07-.25.14-.46l1.16-3.33h.38l-1.5,4.25h-.38l-1.18-3.3c-.08-.2-.14-.46-.14-.46h-.02s-.07.25-.14.46l-1.17,3.3h-.38l-1.5-4.25Z"/>
    <path class="cls-7" d="M18.81,141.55h.28v-.14c0-.94-.48-1.27-1.16-1.27-.74,0-1.21.41-1.21.41l-.2-.29s.51-.47,1.44-.47c.98,0,1.5.54,1.5,1.61v2.75h-.36v-.56c0-.23.03-.38.03-.38h-.02s-.38,1.04-1.49,1.04c-.69,0-1.45-.38-1.45-1.23,0-1.44,1.88-1.46,2.63-1.46ZM17.64,143.92c.93,0,1.45-.96,1.45-1.8v-.23h-.27c-.72,0-2.27,0-2.27,1.1,0,.45.37.93,1.09.93Z"/>
    <path class="cls-7" d="M20.36,145.39s.24.2.53.2c.41,0,.66-.37.83-.77l.31-.71-1.76-4.22h.38l1.4,3.39c.08.2.15.4.15.4h.02s.06-.2.14-.4l1.4-3.39h.38l-2.18,5.24c-.19.44-.54.79-1.08.79-.41,0-.69-.24-.69-.24l.16-.31Z"/>
    <path class="cls-7" d="M27.39,138.2h.36v2.21c0,.2-.03.35-.03.35h.02s.37-.96,1.54-.96,1.83.91,1.83,2.23-.79,2.23-1.9,2.23-1.47-.96-1.47-.96h-.02s.03.15.03.37v.48h-.36v-5.95ZM29.22,143.9c.83,0,1.51-.69,1.51-1.88s-.61-1.88-1.48-1.88c-.78,0-1.51.55-1.51,1.89,0,.94.48,1.87,1.48,1.87Z"/>
    <path class="cls-7" d="M31.8,145.39s.24.2.53.2c.41,0,.66-.37.83-.77l.31-.71-1.76-4.22h.38l1.4,3.39c.08.2.15.4.15.4h.02s.06-.2.14-.4l1.4-3.39h.38l-2.18,5.24c-.19.44-.54.79-1.08.79-.41,0-.69-.24-.69-.24l.16-.31Z"/>
    <path class="cls-7" d="M38.83,139.9h.36v.81c0,.2-.03.35-.03.35h.02c.21-.65.69-1.19,1.36-1.19.13,0,.25.03.25.03v.36s-.1-.02-.2-.02c-.66,0-1.08.56-1.27,1.19-.09.3-.13.61-.13.89v1.84h-.36v-4.25Z"/>
    <path class="cls-7" d="M43.37,139.79c1.16,0,1.73.91,1.73,1.94,0,.09-.02.23-.02.23h-3.41c0,1.23.83,1.94,1.82,1.94.82,0,1.32-.54,1.32-.54l.2.3s-.6.59-1.51.59c-1.2,0-2.19-.87-2.19-2.22,0-1.44.98-2.24,2.07-2.24ZM44.72,141.63c-.04-1.04-.66-1.5-1.37-1.5-.78,0-1.5.51-1.66,1.5h3.03Z"/>
    <path class="cls-7" d="M48.58,141.55h.28v-.14c0-.94-.48-1.27-1.16-1.27-.74,0-1.22.41-1.22.41l-.2-.29s.51-.47,1.44-.47c.98,0,1.5.54,1.5,1.61v2.75h-.36v-.56c0-.23.03-.38.03-.38h-.02s-.38,1.04-1.49,1.04c-.69,0-1.44-.38-1.44-1.23,0-1.44,1.88-1.46,2.63-1.46ZM47.41,143.92c.93,0,1.45-.96,1.45-1.8v-.23h-.27c-.72,0-2.27,0-2.27,1.1,0,.45.37.93,1.09.93Z"/>
    <path class="cls-7" d="M52.55,139.79c1.01,0,1.52.6,1.52.6l-.22.29s-.48-.54-1.3-.54c-.99,0-1.82.74-1.82,1.89s.82,1.87,1.82,1.87c.94,0,1.42-.61,1.42-.61l.19.3s-.55.66-1.61.66c-1.2,0-2.19-.87-2.19-2.22s1.01-2.24,2.19-2.24Z"/>
    <path class="cls-7" d="M55.34,138.2h.36v2.45c0,.2-.03.35-.03.35h.02c.14-.4.74-1.2,1.8-1.2s1.4.65,1.4,1.66v2.69h-.36v-2.57c0-.74-.09-1.44-1.04-1.44-.8,0-1.5.56-1.72,1.35-.05.18-.07.37-.07.58v2.07h-.36v-5.95Z"/>
    <path class="cls-7" d="M60.29,138.2h.42v.62h-.42v-.62ZM60.32,139.9h.36v4.25h-.36v-4.25Z"/>
    <path class="cls-7" d="M62.18,139.9h.36v.75c0,.2-.03.35-.03.35h.02c.14-.4.74-1.2,1.8-1.2s1.4.65,1.4,1.66v2.69h-.36v-2.57c0-.74-.09-1.44-1.04-1.44-.8,0-1.5.56-1.72,1.35-.05.18-.07.37-.07.58v2.07h-.36v-4.25Z"/>
    <path class="cls-7" d="M68.56,145.58c.91,0,1.62-.43,1.62-1.46v-.49c0-.2.03-.35.03-.35h-.02c-.25.52-.72.87-1.43.87-1.1,0-1.89-.87-1.89-2.19s.72-2.16,1.83-2.16c1.21,0,1.48.83,1.48.83h.02s-.03-.06-.03-.16v-.57h.36v4.22c0,1.3-.93,1.81-1.95,1.81-.47,0-.92-.12-1.33-.33l.17-.31s.53.3,1.14.3ZM70.18,141.95c0-1.37-.65-1.81-1.48-1.81-.91,0-1.45.66-1.45,1.81s.63,1.84,1.54,1.84c.75,0,1.39-.47,1.39-1.84Z"/>
    <path class="cls-7" d="M76.27,139.79c1.21,0,2.2.96,2.2,2.2s-.99,2.25-2.2,2.25-2.2-.99-2.2-2.25.99-2.2,2.2-2.2ZM76.27,143.9c1.01,0,1.83-.83,1.83-1.9s-.82-1.85-1.83-1.85-1.83.8-1.83,1.85.82,1.9,1.83,1.9Z"/>
    <path class="cls-7" d="M79.59,139.9h.36v2.57c0,.74.09,1.44,1.04,1.44,1.06,0,1.74-.94,1.74-1.93v-2.07h.36v4.25h-.36v-.75c0-.2.03-.35.03-.35h-.02c-.14.4-.73,1.2-1.76,1.2s-1.4-.58-1.4-1.66v-2.69Z"/>
    <path class="cls-7" d="M84.73,140.24h-.56v-.32h.56v-1.21h.36v1.21h1.11v.32h-1.11v2.34c0,1.12.67,1.27,1.01,1.27.12,0,.2-.02.2-.02v.33s-.08.02-.21.02c-.44,0-1.35-.16-1.35-1.57v-2.36Z"/>
    <path class="cls-7" d="M89.75,140.24h-.56v-.32h.56v-1.21h.36v1.21h1.11v.32h-1.11v2.34c0,1.12.67,1.27,1.01,1.27.12,0,.2-.02.2-.02v.33s-.08.02-.21.02c-.44,0-1.35-.16-1.35-1.57v-2.36Z"/>
    <path class="cls-7" d="M94.17,139.79c1.21,0,2.2.96,2.2,2.2s-.99,2.25-2.2,2.25-2.2-.99-2.2-2.25.99-2.2,2.2-2.2ZM94.17,143.9c1.01,0,1.83-.83,1.83-1.9s-.82-1.85-1.83-1.85-1.83.8-1.83,1.85.82,1.9,1.83,1.9Z"/>
    <path class="cls-7" d="M102.19,141.55h.28v-.14c0-.94-.48-1.27-1.16-1.27-.74,0-1.21.41-1.21.41l-.2-.29s.51-.47,1.44-.47c.98,0,1.5.54,1.5,1.61v2.75h-.36v-.56c0-.23.03-.38.03-.38h-.02s-.38,1.04-1.49,1.04c-.69,0-1.45-.38-1.45-1.23,0-1.44,1.88-1.46,2.63-1.46ZM101.02,143.92c.93,0,1.45-.96,1.45-1.8v-.23h-.27c-.72,0-2.27,0-2.27,1.1,0,.45.37.93,1.09.93Z"/>
    <path class="cls-7" d="M104.22,138.2h.36v4.98c0,.59.31.66.5.66.07,0,.13,0,.13,0v.33s-.08.02-.15.02c-.25,0-.83-.09-.83-.89v-5.09Z"/>
    <path class="cls-7" d="M106.18,138.2h.36v4.98c0,.59.31.66.5.66.07,0,.13,0,.13,0v.33s-.08.02-.15.02c-.25,0-.83-.09-.83-.89v-5.09Z"/>
    <path class="cls-7" d="M110.4,143.36s.48.54,1.32.54c.52,0,.98-.27.98-.8,0-1.08-2.34-.77-2.34-2.16,0-.76.64-1.15,1.36-1.15.87,0,1.26.46,1.26.46l-.21.29s-.35-.4-1.07-.4c-.48,0-.96.22-.96.77,0,1.1,2.34.77,2.34,2.18,0,.68-.58,1.15-1.36,1.15-1.03,0-1.54-.61-1.54-.61l.23-.27Z"/>
    <path class="cls-7" d="M116,139.79c1.16,0,1.73.91,1.73,1.94,0,.09-.02.23-.02.23h-3.41c0,1.23.83,1.94,1.82,1.94.82,0,1.32-.54,1.32-.54l.2.3s-.6.59-1.51.59c-1.2,0-2.19-.87-2.19-2.22,0-1.44.98-2.24,2.07-2.24ZM117.36,141.63c-.04-1.04-.66-1.5-1.37-1.5-.78,0-1.5.51-1.66,1.5h3.03Z"/>
    <path class="cls-7" d="M120.83,139.79c1.01,0,1.52.6,1.52.6l-.22.29s-.48-.54-1.3-.54c-.99,0-1.82.74-1.82,1.89s.83,1.87,1.82,1.87c.93,0,1.42-.61,1.42-.61l.19.3s-.55.66-1.61.66c-1.2,0-2.19-.87-2.19-2.22s1.01-2.24,2.19-2.24Z"/>
    <path class="cls-7" d="M123.76,140.24h-.56v-.32h.56v-1.21h.36v1.21h1.11v.32h-1.11v2.34c0,1.12.67,1.27,1.01,1.27.12,0,.2-.02.2-.02v.33s-.08.02-.21.02c-.44,0-1.35-.16-1.35-1.57v-2.36Z"/>
    <path class="cls-7" d="M126.26,138.2h.42v.62h-.42v-.62ZM126.29,139.9h.36v4.25h-.36v-4.25Z"/>
    <path class="cls-7" d="M130.03,139.79c1.22,0,2.2.96,2.2,2.2s-.99,2.25-2.2,2.25-2.2-.99-2.2-2.25.99-2.2,2.2-2.2ZM130.03,143.9c1.01,0,1.83-.83,1.83-1.9s-.82-1.85-1.83-1.85-1.83.8-1.83,1.85.82,1.9,1.83,1.9Z"/>
    <path class="cls-7" d="M133.41,139.9h.36v.75c0,.2-.03.35-.03.35h.02c.14-.4.74-1.2,1.8-1.2s1.4.65,1.4,1.66v2.69h-.36v-2.57c0-.74-.09-1.44-1.04-1.44-.8,0-1.5.56-1.72,1.35-.05.18-.07.37-.07.58v2.07h-.36v-4.25Z"/>
    <path class="cls-7" d="M138.26,143.36s.48.54,1.32.54c.52,0,.98-.27.98-.8,0-1.08-2.34-.77-2.34-2.16,0-.76.64-1.15,1.36-1.15.87,0,1.26.46,1.26.46l-.21.29s-.35-.4-1.07-.4c-.48,0-.96.22-.96.77,0,1.1,2.34.77,2.34,2.18,0,.68-.58,1.15-1.36,1.15-1.03,0-1.54-.61-1.54-.61l.23-.27Z"/>
  </g>
  <g>
    <path class="cls-7" d="M11.63,151.8c1.22,0,2.2.96,2.2,2.2s-.99,2.25-2.2,2.25-2.2-.99-2.2-2.25.99-2.2,2.2-2.2ZM11.63,155.9c1.01,0,1.83-.83,1.83-1.9s-.82-1.85-1.83-1.85-1.83.8-1.83,1.85.82,1.9,1.83,1.9Z"/>
    <path class="cls-7" d="M15.17,152.25h-.54v-.32h.54v-.2c0-1.4.92-1.57,1.34-1.57.14,0,.22.02.22.02v.33s-.08-.02-.2-.02c-.34,0-1.01.14-1.01,1.23v.2h1.16v.32h-1.16v3.9h-.36v-3.9Z"/>
    <path class="cls-7" d="M20.08,152.25h-.56v-.32h.56v-1.21h.36v1.21h1.11v.32h-1.11v2.34c0,1.12.67,1.27,1.01,1.27.12,0,.2-.02.2-.02v.33s-.08.02-.21.02c-.44,0-1.35-.16-1.35-1.57v-2.36Z"/>
    <path class="cls-7" d="M22.61,150.2h.36v2.45c0,.2-.03.35-.03.35h.02c.14-.4.74-1.2,1.8-1.2s1.4.65,1.4,1.66v2.69h-.36v-2.57c0-.74-.09-1.44-1.05-1.44-.8,0-1.5.56-1.72,1.35-.05.18-.07.37-.07.58v2.07h-.36v-5.95Z"/>
    <path class="cls-7" d="M29.36,151.8c1.16,0,1.73.91,1.73,1.94,0,.09-.02.23-.02.23h-3.41c0,1.23.83,1.94,1.82,1.94.82,0,1.32-.54,1.32-.54l.2.3s-.6.59-1.51.59c-1.2,0-2.19-.87-2.19-2.22,0-1.44.98-2.24,2.07-2.24ZM30.72,153.63c-.04-1.04-.66-1.5-1.37-1.5-.78,0-1.5.51-1.66,1.5h3.03Z"/>
    <path class="cls-7" d="M34.64,151.9h.36v.51c0,.2-.03.34-.03.34h.02s.35-.95,1.53-.95,1.84.91,1.84,2.23-.79,2.23-1.89,2.23-1.49-.96-1.49-.96h-.02s.03.15.03.37v2.18h-.36v-5.95ZM36.47,155.9c.83,0,1.51-.69,1.51-1.88s-.61-1.88-1.48-1.88c-.78,0-1.51.55-1.51,1.89,0,.94.53,1.87,1.48,1.87Z"/>
    <path class="cls-7" d="M41.45,151.8c1.22,0,2.2.96,2.2,2.2s-.99,2.25-2.2,2.25-2.2-.99-2.2-2.25.99-2.2,2.2-2.2ZM41.45,155.9c1.01,0,1.83-.83,1.83-1.9s-.82-1.85-1.83-1.85-1.83.8-1.83,1.85.82,1.9,1.83,1.9Z"/>
    <path class="cls-7" d="M44.84,151.9h.36v.51c0,.2-.03.34-.03.34h.02s.35-.95,1.53-.95,1.84.91,1.84,2.23-.79,2.23-1.89,2.23-1.49-.96-1.49-.96h-.02s.03.15.03.37v2.18h-.36v-5.95ZM46.66,155.9c.83,0,1.51-.69,1.51-1.88s-.61-1.88-1.48-1.88c-.78,0-1.51.55-1.51,1.89,0,.94.53,1.87,1.48,1.87Z"/>
    <path class="cls-7" d="M49.7,151.9h.36v2.57c0,.74.09,1.44,1.04,1.44,1.06,0,1.74-.94,1.74-1.93v-2.07h.36v4.25h-.36v-.75c0-.2.03-.35.03-.35h-.02c-.14.4-.73,1.2-1.76,1.2s-1.4-.58-1.4-1.66v-2.69Z"/>
    <path class="cls-7" d="M54.65,150.2h.36v4.98c0,.59.31.66.5.66.07,0,.13,0,.13,0v.33s-.08.02-.15.02c-.25,0-.83-.09-.83-.89v-5.09Z"/>
    <path class="cls-7" d="M58.94,153.56h.28v-.14c0-.94-.48-1.27-1.16-1.27-.74,0-1.21.41-1.21.41l-.2-.29s.51-.47,1.44-.47c.98,0,1.5.54,1.5,1.61v2.75h-.36v-.56c0-.23.03-.38.03-.38h-.02s-.38,1.04-1.49,1.04c-.69,0-1.45-.38-1.45-1.23,0-1.44,1.88-1.46,2.63-1.46ZM57.76,155.92c.93,0,1.45-.96,1.45-1.8v-.23h-.27c-.72,0-2.27,0-2.27,1.1,0,.45.37.93,1.09.93Z"/>
    <path class="cls-7" d="M61.13,152.25h-.56v-.32h.56v-1.21h.36v1.21h1.11v.32h-1.11v2.34c0,1.12.67,1.27,1.01,1.27.12,0,.2-.02.2-.02v.33s-.08.02-.21.02c-.44,0-1.35-.16-1.35-1.57v-2.36Z"/>
    <path class="cls-7" d="M63.63,150.2h.42v.62h-.42v-.62ZM63.66,151.9h.36v4.25h-.36v-4.25Z"/>
    <path class="cls-7" d="M67.4,151.8c1.22,0,2.2.96,2.2,2.2s-.99,2.25-2.2,2.25-2.2-.99-2.2-2.25.99-2.2,2.2-2.2ZM67.4,155.9c1.01,0,1.83-.83,1.83-1.9s-.82-1.85-1.83-1.85-1.83.8-1.83,1.85.82,1.9,1.83,1.9Z"/>
    <path class="cls-7" d="M70.79,151.9h.36v.75c0,.2-.03.35-.03.35h.02c.14-.4.74-1.2,1.8-1.2s1.4.65,1.4,1.66v2.69h-.36v-2.57c0-.74-.09-1.44-1.04-1.44-.8,0-1.5.56-1.72,1.35-.05.18-.07.37-.07.58v2.07h-.36v-4.25Z"/>
    <path class="cls-7" d="M77.55,151.9h.38l1.16,3.33c.07.2.14.46.14.46h.02s.08-.25.14-.46l1.16-3.31h.4l1.16,3.31c.07.2.14.46.14.46h.02s.07-.25.14-.46l1.16-3.33h.38l-1.5,4.25h-.38l-1.18-3.3c-.08-.2-.14-.46-.14-.46h-.02s-.07.25-.14.46l-1.17,3.3h-.38l-1.5-4.25Z"/>
    <path class="cls-7" d="M84.86,150.2h.42v.62h-.42v-.62ZM84.9,151.9h.36v4.25h-.36v-4.25Z"/>
    <path class="cls-7" d="M86.88,152.25h-.56v-.32h.56v-1.21h.36v1.21h1.11v.32h-1.11v2.34c0,1.12.67,1.27,1.01,1.27.12,0,.2-.02.2-.02v.33s-.08.02-.21.02c-.44,0-1.35-.16-1.35-1.57v-2.36Z"/>
    <path class="cls-7" d="M89.42,150.2h.36v2.45c0,.2-.03.35-.03.35h.02c.14-.4.74-1.2,1.8-1.2s1.4.65,1.4,1.66v2.69h-.36v-2.57c0-.74-.09-1.44-1.04-1.44-.8,0-1.5.56-1.72,1.35-.05.18-.07.37-.07.58v2.07h-.36v-5.95Z"/>
    <path class="cls-7" d="M96.72,150.2h.42v.62h-.42v-.62ZM96.75,151.9h.36v4.25h-.36v-4.25Z"/>
    <path class="cls-7" d="M98.61,151.9h.36v.75c0,.2-.03.35-.03.35h.02c.14-.4.74-1.2,1.8-1.2s1.4.65,1.4,1.66v2.69h-.36v-2.57c0-.74-.09-1.44-1.05-1.44-.8,0-1.5.56-1.72,1.35-.05.18-.07.37-.07.58v2.07h-.36v-4.25Z"/>
    <path class="cls-7" d="M103.59,151.9h.36v.75c0,.2-.03.35-.03.35h.02c.14-.4.74-1.2,1.8-1.2s1.4.65,1.4,1.66v2.69h-.36v-2.57c0-.74-.09-1.44-1.04-1.44-.8,0-1.5.56-1.72,1.35-.05.18-.07.37-.07.58v2.07h-.36v-4.25Z"/>
    <path class="cls-7" d="M110.45,151.8c1.21,0,2.2.96,2.2,2.2s-.99,2.25-2.2,2.25-2.2-.99-2.2-2.25.99-2.2,2.2-2.2ZM110.45,155.9c1.01,0,1.83-.83,1.83-1.9s-.82-1.85-1.83-1.85-1.83.8-1.83,1.85.82,1.9,1.83,1.9Z"/>
    <path class="cls-7" d="M113.24,151.9h.38l1.31,3.33c.08.2.14.46.14.46h.02s.07-.25.14-.46l1.31-3.33h.37l-1.67,4.25h-.34l-1.67-4.25Z"/>
    <path class="cls-7" d="M120.11,153.56h.28v-.14c0-.94-.48-1.27-1.16-1.27-.74,0-1.21.41-1.21.41l-.2-.29s.51-.47,1.44-.47c.98,0,1.5.54,1.5,1.61v2.75h-.36v-.56c0-.23.03-.38.03-.38h-.02s-.38,1.04-1.49,1.04c-.69,0-1.45-.38-1.45-1.23,0-1.44,1.88-1.46,2.63-1.46ZM118.94,155.92c.93,0,1.45-.96,1.45-1.8v-.23h-.27c-.72,0-2.27,0-2.27,1.1,0,.45.37.93,1.09.93Z"/>
    <path class="cls-7" d="M122.29,152.25h-.56v-.32h.56v-1.21h.36v1.21h1.11v.32h-1.11v2.34c0,1.12.67,1.27,1.01,1.27.12,0,.2-.02.2-.02v.33s-.08.02-.21.02c-.44,0-1.35-.16-1.35-1.57v-2.36Z"/>
    <path class="cls-7" d="M124.79,150.2h.42v.62h-.42v-.62ZM124.83,151.9h.36v4.25h-.36v-4.25Z"/>
    <path class="cls-7" d="M126.09,151.9h.38l1.31,3.33c.08.2.14.46.14.46h.02s.07-.25.14-.46l1.31-3.33h.37l-1.67,4.25h-.34l-1.67-4.25Z"/>
    <path class="cls-7" d="M132.43,151.8c1.16,0,1.73.91,1.73,1.94,0,.09-.02.23-.02.23h-3.41c0,1.23.83,1.94,1.82,1.94.82,0,1.32-.54,1.32-.54l.2.3s-.59.59-1.51.59c-1.2,0-2.19-.87-2.19-2.22,0-1.44.98-2.24,2.06-2.24ZM133.79,153.63c-.04-1.04-.66-1.5-1.37-1.5-.78,0-1.5.51-1.66,1.5h3.03Z"/>
  </g>
  <g>
    <path class="cls-7" d="M9.75,162.2h.36v2.45c0,.2-.03.35-.03.35h.02c.14-.4.74-1.2,1.8-1.2s1.4.65,1.4,1.66v2.69h-.36v-2.57c0-.74-.09-1.44-1.05-1.44-.8,0-1.5.56-1.72,1.35-.05.18-.07.37-.07.58v2.07h-.36v-5.95Z"/>
    <path class="cls-7" d="M16.62,163.8c1.21,0,2.2.96,2.2,2.2s-.99,2.25-2.2,2.25-2.2-.99-2.2-2.25.99-2.2,2.2-2.2ZM16.62,167.9c1.01,0,1.83-.83,1.83-1.9s-.82-1.85-1.83-1.85-1.83.8-1.83,1.85.82,1.9,1.83,1.9Z"/>
    <path class="cls-7" d="M20,163.9h.36v.75c0,.2-.03.35-.03.35h.02c.21-.64.97-1.2,1.63-1.2.85,0,1.25.4,1.34,1.16h.02c.24-.6.88-1.16,1.61-1.16,1.1,0,1.42.65,1.42,1.66v2.69h-.36v-2.57c0-.8-.16-1.45-1.06-1.45-.71,0-1.31.63-1.5,1.29-.06.2-.08.41-.08.65v2.07h-.36v-2.57c0-.73-.1-1.45-1.04-1.45-.76,0-1.35.66-1.55,1.37-.05.18-.07.37-.07.58v2.07h-.36v-4.25Z"/>
    <path class="cls-7" d="M29.57,163.8c1.16,0,1.73.91,1.73,1.94,0,.09-.02.23-.02.23h-3.41c0,1.23.83,1.94,1.82,1.94.82,0,1.32-.54,1.32-.54l.2.3s-.59.59-1.51.59c-1.2,0-2.19-.87-2.19-2.22,0-1.44.98-2.24,2.06-2.24ZM30.93,165.63c-.04-1.04-.66-1.5-1.37-1.5-.78,0-1.5.51-1.66,1.5h3.03Z"/>
    <path class="cls-7" d="M34.81,162.2h.36v4.98c0,.59.31.66.5.66.07,0,.13,0,.13,0v.33s-.08.02-.15.02c-.25,0-.83-.09-.83-.89v-5.09Z"/>
    <path class="cls-7" d="M38.7,163.8c1.21,0,2.2.96,2.2,2.2s-.99,2.25-2.2,2.25-2.2-.99-2.2-2.25.99-2.2,2.2-2.2ZM38.7,167.9c1.01,0,1.83-.83,1.83-1.9s-.82-1.85-1.83-1.85-1.83.8-1.83,1.85.82,1.9,1.83,1.9Z"/>
    <path class="cls-7" d="M44.37,165.56h.28v-.14c0-.94-.48-1.27-1.16-1.27-.74,0-1.22.41-1.22.41l-.2-.29s.51-.47,1.44-.47c.98,0,1.5.54,1.5,1.61v2.75h-.36v-.56c0-.23.03-.38.03-.38h-.02s-.38,1.04-1.49,1.04c-.69,0-1.44-.38-1.44-1.23,0-1.44,1.88-1.46,2.63-1.46ZM43.2,167.92c.93,0,1.45-.96,1.45-1.8v-.23h-.27c-.72,0-2.27,0-2.27,1.1,0,.45.37.93,1.09.93Z"/>
    <path class="cls-7" d="M46.44,163.9h.36v.75c0,.2-.03.35-.03.35h.02c.14-.4.74-1.2,1.8-1.2s1.4.65,1.4,1.66v2.69h-.36v-2.57c0-.74-.09-1.44-1.05-1.44-.8,0-1.5.56-1.72,1.35-.05.18-.07.37-.07.58v2.07h-.36v-4.25Z"/>
    <path class="cls-7" d="M53.64,167.37s.48.54,1.32.54c.52,0,.98-.27.98-.8,0-1.08-2.34-.77-2.34-2.16,0-.76.64-1.15,1.36-1.15.87,0,1.26.46,1.26.46l-.21.29s-.35-.4-1.07-.4c-.48,0-.96.22-.96.77,0,1.1,2.34.77,2.34,2.18,0,.68-.58,1.15-1.36,1.15-1.03,0-1.54-.61-1.54-.61l.23-.27Z"/>
    <path class="cls-7" d="M59.38,163.8c1.01,0,1.52.6,1.52.6l-.22.29s-.48-.54-1.3-.54c-.99,0-1.82.74-1.82,1.89s.83,1.87,1.82,1.87c.93,0,1.42-.61,1.42-.61l.19.3s-.55.66-1.61.66c-1.2,0-2.19-.87-2.19-2.22s1.01-2.24,2.19-2.24Z"/>
    <path class="cls-7" d="M62.17,162.2h.36v2.45c0,.2-.03.35-.03.35h.02c.14-.4.74-1.2,1.8-1.2s1.4.65,1.4,1.66v2.69h-.36v-2.57c0-.74-.09-1.44-1.05-1.44-.8,0-1.5.56-1.72,1.35-.05.18-.07.37-.07.58v2.07h-.36v-5.95Z"/>
    <path class="cls-7" d="M68.92,163.8c1.16,0,1.73.91,1.73,1.94,0,.09-.02.23-.02.23h-3.41c0,1.23.83,1.94,1.82,1.94.82,0,1.32-.54,1.32-.54l.2.3s-.6.59-1.51.59c-1.2,0-2.19-.87-2.19-2.22,0-1.44.98-2.24,2.07-2.24ZM70.28,165.63c-.04-1.04-.66-1.5-1.37-1.5-.78,0-1.5.51-1.66,1.5h3.03Z"/>
    <path class="cls-7" d="M71.85,163.9h.36v.75c0,.2-.03.35-.03.35h.02c.21-.64.97-1.2,1.63-1.2.85,0,1.25.4,1.34,1.16h.02c.24-.6.88-1.16,1.62-1.16,1.1,0,1.42.65,1.42,1.66v2.69h-.36v-2.57c0-.8-.16-1.45-1.06-1.45-.71,0-1.31.63-1.5,1.29-.06.2-.08.41-.08.65v2.07h-.36v-2.57c0-.73-.1-1.45-1.04-1.45-.76,0-1.35.66-1.55,1.37-.05.18-.07.37-.07.58v2.07h-.36v-4.25Z"/>
    <path class="cls-7" d="M81.42,163.8c1.16,0,1.73.91,1.73,1.94,0,.09-.02.23-.02.23h-3.41c0,1.23.83,1.94,1.82,1.94.82,0,1.32-.54,1.32-.54l.2.3s-.59.59-1.51.59c-1.2,0-2.19-.87-2.19-2.22,0-1.44.98-2.24,2.06-2.24ZM82.78,165.63c-.04-1.04-.66-1.5-1.37-1.5-.78,0-1.5.51-1.66,1.5h3.03Z"/>
    <path class="cls-7" d="M84.22,167.37s.48.54,1.32.54c.52,0,.98-.27.98-.8,0-1.08-2.34-.77-2.34-2.16,0-.76.64-1.15,1.36-1.15.87,0,1.26.46,1.26.46l-.21.29s-.35-.4-1.07-.4c-.48,0-.96.22-.96.77,0,1.1,2.34.77,2.34,2.18,0,.68-.58,1.15-1.36,1.15-1.03,0-1.54-.61-1.54-.61l.23-.27Z"/>
    <path class="cls-7" d="M88.06,167.61h.52v.54h-.52v-.54Z"/>
  </g>
  <g>
    <path class="cls-7" d="M11.29,304.2h-2.22v-.34h4.8v.34h-2.22v5.61h-.37v-5.61Z"/>
    <path class="cls-7" d="M15.72,305.46c1.21,0,2.2.96,2.2,2.2s-.99,2.25-2.2,2.25-2.2-.99-2.2-2.25.99-2.2,2.2-2.2ZM15.72,309.56c1.01,0,1.83-.83,1.83-1.9s-.82-1.85-1.83-1.85-1.83.8-1.83,1.85.82,1.9,1.83,1.9Z"/>
    <path class="cls-7" d="M21.33,309.03s.48.54,1.32.54c.52,0,.98-.27.98-.8,0-1.08-2.34-.77-2.34-2.16,0-.76.64-1.15,1.36-1.15.87,0,1.26.46,1.26.46l-.21.29s-.35-.4-1.07-.4c-.48,0-.96.22-.96.77,0,1.1,2.34.77,2.34,2.18,0,.68-.58,1.15-1.36,1.15-1.03,0-1.54-.61-1.54-.61l.23-.27Z"/>
    <path class="cls-7" d="M26.93,305.46c1.16,0,1.73.91,1.73,1.94,0,.09-.02.23-.02.23h-3.41c0,1.23.83,1.94,1.82,1.94.82,0,1.32-.54,1.32-.54l.2.3s-.59.59-1.51.59c-1.2,0-2.19-.87-2.19-2.22,0-1.44.98-2.24,2.06-2.24ZM28.29,307.29c-.04-1.04-.66-1.5-1.37-1.5-.78,0-1.5.51-1.66,1.5h3.03Z"/>
    <path class="cls-7" d="M29.87,305.56h.36v.81c0,.2-.03.35-.03.35h.02c.21-.65.69-1.19,1.36-1.19.13,0,.25.03.25.03v.36s-.1-.02-.2-.02c-.66,0-1.08.56-1.27,1.19-.09.3-.13.61-.13.89v1.84h-.36v-4.25Z"/>
    <path class="cls-7" d="M32.15,305.56h.38l1.31,3.33c.08.2.14.46.14.46h.02s.07-.25.14-.46l1.31-3.33h.37l-1.67,4.25h-.34l-1.67-4.25Z"/>
    <path class="cls-7" d="M38.49,305.46c1.16,0,1.73.91,1.73,1.94,0,.09-.02.23-.02.23h-3.41c0,1.23.83,1.94,1.82,1.94.82,0,1.32-.54,1.32-.54l.2.3s-.59.59-1.51.59c-1.2,0-2.19-.87-2.19-2.22,0-1.44.98-2.24,2.06-2.24ZM39.85,307.29c-.04-1.04-.66-1.5-1.37-1.5-.78,0-1.5.51-1.66,1.5h3.03Z"/>
    <path class="cls-7" d="M43.92,305.91h-.56v-.32h.56v-1.21h.36v1.21h1.11v.32h-1.11v2.34c0,1.12.67,1.27,1.01,1.27.12,0,.2-.02.2-.02v.33s-.08.02-.21.02c-.44,0-1.35-.16-1.35-1.57v-2.36Z"/>
    <path class="cls-7" d="M46.45,303.86h.36v2.45c0,.2-.03.35-.03.35h.02c.14-.4.74-1.2,1.8-1.2s1.4.65,1.4,1.66v2.69h-.36v-2.57c0-.74-.09-1.44-1.04-1.44-.8,0-1.5.56-1.72,1.35-.05.18-.07.37-.07.58v2.07h-.36v-5.95Z"/>
    <path class="cls-7" d="M53.2,305.46c1.16,0,1.73.91,1.73,1.94,0,.09-.02.23-.02.23h-3.41c0,1.23.83,1.94,1.82,1.94.82,0,1.32-.54,1.32-.54l.2.3s-.59.59-1.51.59c-1.2,0-2.19-.87-2.19-2.22,0-1.44.98-2.24,2.06-2.24ZM54.56,307.29c-.04-1.04-.66-1.5-1.37-1.5-.78,0-1.5.51-1.66,1.5h3.03Z"/>
    <path class="cls-7" d="M58.43,305.56h.36v2.57c0,.74.09,1.44,1.04,1.44,1.06,0,1.74-.94,1.74-1.93v-2.07h.36v4.25h-.36v-.75c0-.2.03-.35.03-.35h-.02c-.14.4-.73,1.2-1.76,1.2s-1.4-.58-1.4-1.66v-2.69Z"/>
    <path class="cls-7" d="M63.42,305.56h.36v.75c0,.2-.03.35-.03.35h.02c.14-.4.74-1.2,1.8-1.2s1.4.65,1.4,1.66v2.69h-.36v-2.57c0-.74-.09-1.44-1.05-1.44-.8,0-1.5.56-1.72,1.35-.05.18-.07.37-.07.58v2.07h-.36v-4.25Z"/>
    <path class="cls-7" d="M70.03,305.46c1.07,0,1.47.96,1.47.96h.02s-.03-.15-.03-.35v-2.21h.36v5.95h-.36v-.54c0-.2.03-.32.03-.32h-.02s-.37.96-1.54.96-1.84-.91-1.84-2.23.79-2.23,1.9-2.23ZM69.98,309.56c.78,0,1.51-.55,1.51-1.89,0-.94-.48-1.87-1.48-1.87-.83,0-1.51.69-1.51,1.88s.61,1.88,1.48,1.88Z"/>
    <path class="cls-7" d="M75.1,305.46c1.16,0,1.73.91,1.73,1.94,0,.09-.02.23-.02.23h-3.41c0,1.23.83,1.94,1.82,1.94.82,0,1.32-.54,1.32-.54l.2.3s-.6.59-1.51.59c-1.2,0-2.19-.87-2.19-2.22,0-1.44.98-2.24,2.07-2.24ZM76.46,307.29c-.04-1.04-.66-1.5-1.37-1.5-.78,0-1.5.51-1.66,1.5h3.03Z"/>
    <path class="cls-7" d="M78.04,305.56h.36v.81c0,.2-.03.35-.03.35h.02c.21-.65.69-1.19,1.36-1.19.13,0,.25.03.25.03v.36s-.1-.02-.2-.02c-.66,0-1.08.56-1.27,1.19-.09.3-.13.61-.13.89v1.84h-.36v-4.25Z"/>
    <path class="cls-7" d="M80.5,307.23h2.35v.34h-2.35v-.34Z"/>
    <path class="cls-7" d="M83.8,309.03s.48.54,1.32.54c.52,0,.98-.27.98-.8,0-1.08-2.34-.77-2.34-2.16,0-.76.64-1.15,1.36-1.15.87,0,1.26.46,1.26.46l-.21.29s-.35-.4-1.07-.4c-.48,0-.96.22-.96.77,0,1.1,2.34.77,2.34,2.18,0,.68-.58,1.15-1.36,1.15-1.03,0-1.54-.61-1.54-.61l.23-.27Z"/>
    <path class="cls-7" d="M89.41,305.46c1.16,0,1.73.91,1.73,1.94,0,.09-.02.23-.02.23h-3.41c0,1.23.83,1.94,1.82,1.94.82,0,1.32-.54,1.32-.54l.2.3s-.59.59-1.51.59c-1.2,0-2.19-.87-2.19-2.22,0-1.44.98-2.24,2.06-2.24ZM90.77,307.29c-.04-1.04-.66-1.5-1.37-1.5-.78,0-1.5.51-1.66,1.5h3.03Z"/>
    <path class="cls-7" d="M92.34,305.56h.36v.81c0,.2-.03.35-.03.35h.02c.21-.65.69-1.19,1.36-1.19.13,0,.25.03.25.03v.36s-.1-.02-.2-.02c-.66,0-1.08.56-1.27,1.19-.09.3-.13.61-.13.89v1.84h-.36v-4.25Z"/>
    <path class="cls-7" d="M94.62,305.56h.38l1.31,3.33c.08.2.14.46.14.46h.02s.07-.25.14-.46l1.31-3.33h.37l-1.67,4.25h-.34l-1.67-4.25Z"/>
    <path class="cls-7" d="M100.97,305.46c1.16,0,1.73.91,1.73,1.94,0,.09-.02.23-.02.23h-3.41c0,1.23.83,1.94,1.82,1.94.82,0,1.32-.54,1.32-.54l.2.3s-.6.59-1.51.59c-1.2,0-2.19-.87-2.19-2.22,0-1.44.98-2.24,2.07-2.24ZM102.33,307.29c-.04-1.04-.66-1.5-1.37-1.5-.78,0-1.5.51-1.66,1.5h3.03Z"/>
    <path class="cls-7" d="M105.52,305.46c1.07,0,1.47.96,1.47.96h.02s-.03-.15-.03-.35v-2.21h.36v5.95h-.36v-.54c0-.2.03-.32.03-.32h-.02s-.37.96-1.54.96-1.84-.91-1.84-2.23.79-2.23,1.9-2.23ZM105.47,309.56c.78,0,1.51-.55,1.51-1.89,0-.94-.48-1.87-1.48-1.87-.83,0-1.51.69-1.51,1.88s.61,1.88,1.48,1.88Z"/>
    <path class="cls-7" d="M111.19,305.56h.36v.51c0,.2-.03.34-.03.34h.02s.35-.95,1.53-.95,1.83.91,1.83,2.23-.79,2.23-1.89,2.23-1.49-.96-1.49-.96h-.02s.03.15.03.37v2.18h-.36v-5.95ZM113.01,309.56c.83,0,1.51-.69,1.51-1.88s-.61-1.88-1.48-1.88c-.78,0-1.51.55-1.51,1.89,0,.94.53,1.87,1.48,1.87Z"/>
    <path class="cls-7" d="M117.99,305.46c1.21,0,2.2.96,2.2,2.2s-.99,2.25-2.2,2.25-2.2-.99-2.2-2.25.99-2.2,2.2-2.2ZM117.99,309.56c1.01,0,1.83-.83,1.83-1.9s-.82-1.85-1.83-1.85-1.83.8-1.83,1.85.82,1.9,1.83,1.9Z"/>
    <path class="cls-7" d="M121.38,305.56h.36v.51c0,.2-.03.34-.03.34h.02s.35-.95,1.53-.95,1.83.91,1.83,2.23-.79,2.23-1.89,2.23-1.49-.96-1.49-.96h-.02s.03.15.03.37v2.18h-.36v-5.95ZM123.2,309.56c.83,0,1.51-.69,1.51-1.88s-.61-1.88-1.48-1.88c-.78,0-1.51.55-1.51,1.89,0,.94.53,1.87,1.48,1.87Z"/>
    <path class="cls-7" d="M126.24,305.56h.36v2.57c0,.74.09,1.44,1.05,1.44,1.06,0,1.74-.94,1.74-1.93v-2.07h.36v4.25h-.36v-.75c0-.2.03-.35.03-.35h-.02c-.14.4-.73,1.2-1.76,1.2s-1.4-.58-1.4-1.66v-2.69Z"/>
    <path class="cls-7" d="M131.19,303.86h.36v4.98c0,.59.31.66.5.66.07,0,.13,0,.13,0v.33s-.08.02-.15.02c-.25,0-.83-.09-.83-.89v-5.09Z"/>
    <path class="cls-7" d="M135.48,307.22h.28v-.14c0-.94-.48-1.27-1.16-1.27-.74,0-1.22.41-1.22.41l-.2-.29s.51-.47,1.44-.47c.98,0,1.5.54,1.5,1.61v2.75h-.36v-.56c0-.23.03-.38.03-.38h-.02s-.38,1.04-1.49,1.04c-.69,0-1.44-.38-1.44-1.23,0-1.44,1.88-1.46,2.63-1.46ZM134.31,309.58c.93,0,1.45-.96,1.45-1.8v-.23h-.27c-.72,0-2.27,0-2.27,1.1,0,.45.37.93,1.09.93Z"/>
    <path class="cls-7" d="M137.67,305.91h-.56v-.32h.56v-1.21h.36v1.21h1.11v.32h-1.11v2.34c0,1.12.67,1.27,1.01,1.27.12,0,.2-.02.2-.02v.33s-.08.02-.21.02c-.44,0-1.35-.16-1.35-1.57v-2.36Z"/>
    <path class="cls-7" d="M140.17,303.86h.42v.62h-.42v-.62ZM140.2,305.56h.36v4.25h-.36v-4.25Z"/>
    <path class="cls-7" d="M143.94,305.46c1.21,0,2.2.96,2.2,2.2s-.99,2.25-2.2,2.25-2.2-.99-2.2-2.25.99-2.2,2.2-2.2ZM143.94,309.56c1.01,0,1.83-.83,1.83-1.9s-.82-1.85-1.83-1.85-1.83.8-1.83,1.85.82,1.9,1.83,1.9Z"/>
    <path class="cls-7" d="M147.33,305.56h.36v.75c0,.2-.03.35-.03.35h.02c.14-.4.74-1.2,1.8-1.2s1.4.65,1.4,1.66v2.69h-.36v-2.57c0-.74-.09-1.44-1.05-1.44-.8,0-1.5.56-1.72,1.35-.05.18-.07.37-.07.58v2.07h-.36v-4.25Z"/>
    <path class="cls-7" d="M156.55,305.46c1.22,0,2.2.96,2.2,2.2s-.99,2.25-2.2,2.25-2.2-.99-2.2-2.25.99-2.2,2.2-2.2ZM156.55,309.56c1.01,0,1.83-.83,1.83-1.9s-.82-1.85-1.83-1.85-1.83.8-1.83,1.85.82,1.9,1.83,1.9Z"/>
    <path class="cls-7" d="M160.09,305.91h-.54v-.32h.54v-.2c0-1.4.92-1.57,1.34-1.57.14,0,.22.02.22.02v.33s-.08-.02-.2-.02c-.34,0-1.01.14-1.01,1.23v.2h1.17v.32h-1.17v3.9h-.36v-3.9Z"/>
  </g>
  <g>
    <path class="cls-7" d="M9.88,317.91h-.56v-.32h.56v-1.21h.36v1.21h1.11v.32h-1.11v2.34c0,1.12.67,1.27,1.01,1.27.12,0,.2-.02.2-.02v.33s-.08.02-.21.02c-.44,0-1.35-.16-1.35-1.57v-2.36Z"/>
    <path class="cls-7" d="M12.42,315.86h.36v2.45c0,.2-.03.35-.03.35h.02c.14-.4.74-1.2,1.8-1.2s1.4.65,1.4,1.66v2.69h-.36v-2.57c0-.74-.09-1.44-1.05-1.44-.8,0-1.5.56-1.72,1.35-.05.18-.07.37-.07.58v2.07h-.36v-5.95Z"/>
    <path class="cls-7" d="M19.17,317.46c1.16,0,1.73.91,1.73,1.94,0,.09-.02.23-.02.23h-3.41c0,1.23.83,1.94,1.82,1.94.82,0,1.32-.54,1.32-.54l.2.3s-.6.59-1.51.59c-1.2,0-2.19-.87-2.19-2.22,0-1.44.98-2.24,2.07-2.24ZM20.53,319.3c-.04-1.04-.66-1.5-1.37-1.5-.78,0-1.5.51-1.66,1.5h3.03Z"/>
    <path class="cls-7" d="M26.35,317.46c1.01,0,1.52.6,1.52.6l-.22.29s-.48-.54-1.3-.54c-.99,0-1.82.74-1.82,1.89s.82,1.87,1.82,1.87c.94,0,1.42-.61,1.42-.61l.19.3s-.55.66-1.61.66c-1.2,0-2.19-.87-2.19-2.22s1.01-2.24,2.19-2.24Z"/>
    <path class="cls-7" d="M31.01,317.46c1.22,0,2.2.96,2.2,2.2s-.99,2.25-2.2,2.25-2.2-.99-2.2-2.25.99-2.2,2.2-2.2ZM31.01,321.57c1.01,0,1.83-.83,1.83-1.9s-.82-1.85-1.83-1.85-1.83.8-1.83,1.85.82,1.9,1.83,1.9Z"/>
    <path class="cls-7" d="M34.33,317.56h.36v2.57c0,.74.09,1.44,1.05,1.44,1.06,0,1.74-.94,1.74-1.93v-2.07h.36v4.25h-.36v-.75c0-.2.03-.35.03-.35h-.02c-.14.4-.73,1.2-1.76,1.2s-1.4-.58-1.4-1.66v-2.69Z"/>
    <path class="cls-7" d="M39.33,317.56h.36v.75c0,.2-.03.35-.03.35h.02c.14-.4.74-1.2,1.8-1.2s1.4.65,1.4,1.66v2.69h-.36v-2.57c0-.74-.09-1.44-1.04-1.44-.8,0-1.5.56-1.72,1.35-.05.18-.07.37-.07.58v2.07h-.36v-4.25Z"/>
    <path class="cls-7" d="M44.44,317.91h-.56v-.32h.56v-1.21h.36v1.21h1.11v.32h-1.11v2.34c0,1.12.67,1.27,1.01,1.27.12,0,.2-.02.2-.02v.33s-.08.02-.21.02c-.44,0-1.35-.16-1.35-1.57v-2.36Z"/>
    <path class="cls-7" d="M46.98,317.56h.36v.81c0,.2-.03.35-.03.35h.02c.21-.65.69-1.19,1.36-1.19.13,0,.25.03.25.03v.36s-.1-.02-.2-.02c-.66,0-1.08.56-1.27,1.19-.09.3-.13.61-.13.89v1.84h-.36v-4.25Z"/>
    <path class="cls-7" d="M49.33,323.05s.24.2.53.2c.41,0,.66-.37.83-.77l.31-.71-1.76-4.22h.38l1.4,3.39c.08.2.15.4.15.4h.02s.06-.2.14-.4l1.4-3.39h.38l-2.18,5.24c-.19.44-.54.79-1.08.79-.41,0-.69-.24-.69-.24l.16-.31Z"/>
    <path class="cls-7" d="M56.33,315.86h.42v.62h-.42v-.62ZM56.36,317.56h.36v4.25h-.36v-4.25Z"/>
    <path class="cls-7" d="M58.21,317.56h.36v.75c0,.2-.03.35-.03.35h.02c.14-.4.74-1.2,1.8-1.2s1.4.65,1.4,1.66v2.69h-.36v-2.57c0-.74-.09-1.44-1.04-1.44-.8,0-1.5.56-1.72,1.35-.05.18-.07.37-.07.58v2.07h-.36v-4.25Z"/>
    <path class="cls-7" d="M65.73,317.91h-.54v-.32h.54v-.2c0-1.4.92-1.57,1.34-1.57.14,0,.22.02.22.02v.33s-.08-.02-.2-.02c-.34,0-1.01.14-1.01,1.23v.2h1.17v.32h-1.17v3.9h-.36v-3.9Z"/>
    <path class="cls-7" d="M68.08,317.56h.36v2.57c0,.74.09,1.44,1.05,1.44,1.06,0,1.74-.94,1.74-1.93v-2.07h.36v4.25h-.36v-.75c0-.2.03-.35.03-.35h-.02c-.14.4-.73,1.2-1.76,1.2s-1.4-.58-1.4-1.66v-2.69Z"/>
    <path class="cls-7" d="M73.04,315.86h.36v4.98c0,.59.31.66.5.66.07,0,.13,0,.13,0v.33s-.08.02-.15.02c-.25,0-.83-.09-.83-.89v-5.09Z"/>
    <path class="cls-7" d="M77.63,317.89h-2.06v3.93h-.36v-3.93h-.54v-.32h.54v-.17c0-1.4.92-1.57,1.34-1.57.14,0,.22.02.22.02v.33s-.08-.02-.2-.02c-.34,0-1.01.14-1.01,1.23v.18h2.41v4.25h-.36v-3.93ZM77.59,315.86h.42v.62h-.42v-.62Z"/>
    <path class="cls-7" d="M79.44,315.86h.36v4.98c0,.59.31.66.5.66.07,0,.13,0,.13,0v.33s-.08.02-.15.02c-.25,0-.83-.09-.83-.89v-5.09Z"/>
    <path class="cls-7" d="M81.39,315.86h.36v4.98c0,.59.31.66.5.66.07,0,.13,0,.13,0v.33s-.08.02-.15.02c-.25,0-.83-.09-.83-.89v-5.09Z"/>
    <path class="cls-7" d="M83.36,315.86h.42v.62h-.42v-.62ZM83.39,317.56h.36v4.25h-.36v-4.25Z"/>
    <path class="cls-7" d="M85.24,317.56h.36v.75c0,.2-.03.35-.03.35h.02c.14-.4.74-1.2,1.8-1.2s1.4.65,1.4,1.66v2.69h-.36v-2.57c0-.74-.09-1.44-1.05-1.44-.8,0-1.5.56-1.72,1.35-.05.18-.07.37-.07.58v2.07h-.36v-4.25Z"/>
    <path class="cls-7" d="M91.63,323.25c.91,0,1.61-.43,1.61-1.46v-.49c0-.2.03-.35.03-.35h-.02c-.25.52-.72.87-1.43.87-1.11,0-1.89-.87-1.89-2.19s.72-2.16,1.83-2.16c1.21,0,1.48.83,1.48.83h.02s-.03-.06-.03-.16v-.57h.36v4.22c0,1.3-.94,1.81-1.95,1.81-.47,0-.92-.12-1.33-.33l.17-.31s.53.3,1.14.3ZM93.25,319.62c0-1.37-.65-1.81-1.48-1.81-.91,0-1.45.66-1.45,1.81s.63,1.84,1.54,1.84c.75,0,1.39-.47,1.39-1.84Z"/>
    <path class="cls-7" d="M97.59,317.91h-.56v-.32h.56v-1.21h.36v1.21h1.11v.32h-1.11v2.34c0,1.12.67,1.27,1.01,1.27.12,0,.2-.02.2-.02v.33s-.08.02-.21.02c-.44,0-1.35-.16-1.35-1.57v-2.36Z"/>
    <path class="cls-7" d="M100.12,315.86h.36v2.45c0,.2-.03.35-.03.35h.02c.14-.4.74-1.2,1.8-1.2s1.4.65,1.4,1.66v2.69h-.36v-2.57c0-.74-.09-1.44-1.04-1.44-.8,0-1.5.56-1.72,1.35-.05.18-.07.37-.07.58v2.07h-.36v-5.95Z"/>
    <path class="cls-7" d="M106.87,317.46c1.16,0,1.73.91,1.73,1.94,0,.09-.02.23-.02.23h-3.41c0,1.23.83,1.94,1.82,1.94.82,0,1.32-.54,1.32-.54l.2.3s-.59.59-1.51.59c-1.2,0-2.19-.87-2.19-2.22,0-1.44.98-2.24,2.06-2.24ZM108.23,319.3c-.04-1.04-.66-1.5-1.37-1.5-.78,0-1.5.51-1.66,1.5h3.03Z"/>
    <path class="cls-7" d="M109.77,315.86h.42v.62h-.42v-.62ZM109.8,317.56h.36v4.25h-.36v-4.25Z"/>
    <path class="cls-7" d="M111.65,317.56h.36v.81c0,.2-.03.35-.03.35h.02c.21-.65.69-1.19,1.36-1.19.13,0,.25.03.25.03v.36s-.1-.02-.2-.02c-.66,0-1.08.56-1.27,1.19-.09.3-.13.61-.13.89v1.84h-.36v-4.25Z"/>
    <path class="cls-7" d="M119.17,319.22h.28v-.14c0-.94-.48-1.27-1.16-1.27-.74,0-1.22.41-1.22.41l-.2-.29s.51-.47,1.44-.47c.98,0,1.5.54,1.5,1.61v2.75h-.36v-.56c0-.23.03-.38.03-.38h-.02s-.38,1.04-1.49,1.04c-.69,0-1.44-.38-1.44-1.23,0-1.44,1.88-1.46,2.63-1.46ZM117.99,321.58c.93,0,1.45-.96,1.45-1.8v-.23h-.27c-.72,0-2.27,0-2.27,1.1,0,.45.37.93,1.09.93Z"/>
    <path class="cls-7" d="M121.1,321.03s.48.54,1.32.54c.52,0,.98-.27.98-.8,0-1.08-2.34-.77-2.34-2.16,0-.76.64-1.15,1.36-1.15.87,0,1.26.46,1.26.46l-.21.29s-.35-.4-1.07-.4c-.48,0-.96.22-.96.77,0,1.1,2.34.77,2.34,2.18,0,.68-.58,1.15-1.36,1.15-1.03,0-1.54-.61-1.54-.61l.23-.27Z"/>
    <path class="cls-7" d="M124.95,317.56h.36v.51c0,.2-.03.34-.03.34h.02s.35-.95,1.53-.95,1.84.91,1.84,2.23-.79,2.23-1.89,2.23-1.49-.96-1.49-.96h-.02s.03.15.03.37v2.18h-.36v-5.95ZM126.77,321.57c.83,0,1.51-.69,1.51-1.88s-.61-1.88-1.48-1.88c-.78,0-1.51.55-1.51,1.89,0,.94.53,1.87,1.48,1.87Z"/>
    <path class="cls-7" d="M129.83,315.86h.42v.62h-.42v-.62ZM129.87,317.56h.36v4.25h-.36v-4.25Z"/>
    <path class="cls-7" d="M131.72,317.56h.36v.81c0,.2-.03.35-.03.35h.02c.21-.65.69-1.19,1.36-1.19.13,0,.25.03.25.03v.36s-.1-.02-.2-.02c-.66,0-1.08.56-1.27,1.19-.09.3-.13.61-.13.89v1.84h-.36v-4.25Z"/>
    <path class="cls-7" d="M136.88,319.22h.28v-.14c0-.94-.48-1.27-1.16-1.27-.74,0-1.22.41-1.22.41l-.2-.29s.51-.47,1.44-.47c.98,0,1.5.54,1.5,1.61v2.75h-.36v-.56c0-.23.03-.38.03-.38h-.02s-.38,1.04-1.49,1.04c-.69,0-1.44-.38-1.44-1.23,0-1.44,1.88-1.46,2.63-1.46ZM135.71,321.58c.93,0,1.45-.96,1.45-1.8v-.23h-.27c-.72,0-2.27,0-2.27,1.1,0,.45.37.93,1.09.93Z"/>
    <path class="cls-7" d="M139.07,317.91h-.56v-.32h.56v-1.21h.36v1.21h1.11v.32h-1.11v2.34c0,1.12.67,1.27,1.01,1.27.12,0,.2-.02.2-.02v.33s-.08.02-.21.02c-.44,0-1.35-.16-1.35-1.57v-2.36Z"/>
    <path class="cls-7" d="M141.57,315.86h.42v.62h-.42v-.62ZM141.61,317.56h.36v4.25h-.36v-4.25Z"/>
    <path class="cls-7" d="M145.35,317.46c1.21,0,2.2.96,2.2,2.2s-.99,2.25-2.2,2.25-2.2-.99-2.2-2.25.99-2.2,2.2-2.2ZM145.35,321.57c1.01,0,1.83-.83,1.83-1.9s-.82-1.85-1.83-1.85-1.83.8-1.83,1.85.82,1.9,1.83,1.9Z"/>
    <path class="cls-7" d="M148.73,317.56h.36v.75c0,.2-.03.35-.03.35h.02c.14-.4.74-1.2,1.8-1.2s1.4.65,1.4,1.66v2.69h-.36v-2.57c0-.74-.09-1.44-1.05-1.44-.8,0-1.5.56-1.72,1.35-.05.18-.07.37-.07.58v2.07h-.36v-4.25Z"/>
  </g>
  <g>
    <path class="cls-7" d="M11.63,329.46c1.22,0,2.2.96,2.2,2.2s-.99,2.25-2.2,2.25-2.2-.99-2.2-2.25.99-2.2,2.2-2.2ZM11.63,333.57c1.01,0,1.83-.83,1.83-1.9s-.82-1.85-1.83-1.85-1.83.8-1.83,1.85.82,1.9,1.83,1.9Z"/>
    <path class="cls-7" d="M15.17,329.91h-.54v-.32h.54v-.2c0-1.4.92-1.57,1.34-1.57.14,0,.22.02.22.02v.33s-.08-.02-.2-.02c-.34,0-1.01.14-1.01,1.23v.2h1.16v.32h-1.16v3.9h-.36v-3.9Z"/>
    <path class="cls-7" d="M21.83,329.46c1.22,0,2.2.96,2.2,2.2s-.99,2.25-2.2,2.25-2.2-.99-2.2-2.25.99-2.2,2.2-2.2ZM21.83,333.57c1.01,0,1.83-.83,1.83-1.9s-.82-1.85-1.83-1.85-1.83.8-1.83,1.85.82,1.9,1.83,1.9Z"/>
    <path class="cls-7" d="M24.64,329.56h.38l1.16,3.33c.07.2.14.46.14.46h.02s.08-.25.14-.46l1.16-3.31h.4l1.17,3.31c.07.2.14.46.14.46h.02s.07-.25.14-.46l1.16-3.33h.38l-1.5,4.25h-.38l-1.18-3.3c-.08-.2-.14-.46-.14-.46h-.02s-.07.25-.14.46l-1.17,3.3h-.38l-1.5-4.25Z"/>
    <path class="cls-7" d="M31.98,329.56h.36v.75c0,.2-.03.35-.03.35h.02c.14-.4.74-1.2,1.8-1.2s1.4.65,1.4,1.66v2.69h-.36v-2.57c0-.74-.09-1.44-1.04-1.44-.8,0-1.5.56-1.72,1.35-.05.18-.07.37-.07.58v2.07h-.36v-4.25Z"/>
    <path class="cls-7" d="M36.93,327.86h.42v.62h-.42v-.62ZM36.96,329.56h.36v4.25h-.36v-4.25Z"/>
    <path class="cls-7" d="M38.82,329.56h.36v.75c0,.2-.03.35-.03.35h.02c.14-.4.74-1.2,1.8-1.2s1.4.65,1.4,1.66v2.69h-.36v-2.57c0-.74-.09-1.44-1.04-1.44-.8,0-1.5.56-1.72,1.35-.05.18-.07.37-.07.58v2.07h-.36v-4.25Z"/>
    <path class="cls-7" d="M45.2,335.25c.91,0,1.62-.43,1.62-1.46v-.49c0-.2.03-.35.03-.35h-.02c-.25.52-.72.87-1.43.87-1.1,0-1.89-.87-1.89-2.19s.72-2.16,1.83-2.16c1.21,0,1.48.83,1.48.83h.02s-.03-.06-.03-.16v-.57h.36v4.22c0,1.3-.93,1.81-1.95,1.81-.47,0-.92-.12-1.33-.33l.17-.31s.53.3,1.14.3ZM46.82,331.62c0-1.37-.65-1.81-1.48-1.81-.91,0-1.45.66-1.45,1.81s.63,1.84,1.54,1.84c.75,0,1.39-.47,1.39-1.84Z"/>
    <path class="cls-7" d="M53.31,331.22h.28v-.14c0-.94-.48-1.27-1.16-1.27-.74,0-1.21.41-1.21.41l-.2-.29s.51-.47,1.44-.47c.98,0,1.5.54,1.5,1.61v2.75h-.36v-.56c0-.23.03-.38.03-.38h-.02s-.38,1.04-1.49,1.04c-.69,0-1.45-.38-1.45-1.23,0-1.44,1.88-1.46,2.63-1.46ZM52.14,333.58c.93,0,1.45-.96,1.45-1.8v-.23h-.27c-.72,0-2.27,0-2.27,1.1,0,.45.37.93,1.09.93Z"/>
    <path class="cls-7" d="M59.36,329.46c1.07,0,1.47.96,1.47.96h.02s-.03-.15-.03-.35v-2.21h.36v5.95h-.36v-.54c0-.2.03-.32.03-.32h-.02s-.37.96-1.54.96-1.84-.91-1.84-2.23.79-2.23,1.9-2.23ZM59.31,333.57c.78,0,1.51-.55,1.51-1.89,0-.94-.48-1.87-1.48-1.87-.83,0-1.51.69-1.51,1.88s.61,1.88,1.48,1.88Z"/>
    <path class="cls-7" d="M62.67,329.56h.36v.81c0,.2-.03.35-.03.35h.02c.21-.65.69-1.19,1.36-1.19.13,0,.25.03.25.03v.36s-.1-.02-.2-.02c-.66,0-1.08.56-1.27,1.19-.09.3-.13.61-.13.89v1.84h-.36v-4.25Z"/>
    <path class="cls-7" d="M67.21,329.46c1.16,0,1.73.91,1.73,1.94,0,.09-.02.23-.02.23h-3.41c0,1.23.83,1.94,1.82,1.94.82,0,1.32-.54,1.32-.54l.2.3s-.59.59-1.51.59c-1.2,0-2.19-.87-2.19-2.22,0-1.44.98-2.24,2.06-2.24ZM68.57,331.3c-.04-1.04-.66-1.5-1.37-1.5-.78,0-1.5.51-1.66,1.5h3.03Z"/>
    <path class="cls-7" d="M72.43,331.22h.28v-.14c0-.94-.48-1.27-1.16-1.27-.74,0-1.21.41-1.21.41l-.2-.29s.51-.47,1.44-.47c.98,0,1.5.54,1.5,1.61v2.75h-.36v-.56c0-.23.03-.38.03-.38h-.02s-.38,1.04-1.49,1.04c-.69,0-1.45-.38-1.45-1.23,0-1.44,1.88-1.46,2.63-1.46ZM71.25,333.58c.93,0,1.45-.96,1.45-1.8v-.23h-.27c-.72,0-2.27,0-2.27,1.1,0,.45.37.93,1.09.93Z"/>
    <path class="cls-7" d="M74.5,329.56h.36v.75c0,.2-.03.35-.03.35h.02c.21-.64.97-1.2,1.63-1.2.85,0,1.25.4,1.34,1.16h.02c.24-.6.88-1.16,1.61-1.16,1.1,0,1.42.65,1.42,1.66v2.69h-.36v-2.57c0-.8-.16-1.45-1.06-1.45-.71,0-1.31.63-1.5,1.29-.06.2-.08.41-.08.65v2.07h-.36v-2.57c0-.73-.1-1.45-1.04-1.45-.76,0-1.35.66-1.55,1.37-.05.18-.07.37-.07.58v2.07h-.36v-4.25Z"/>
    <path class="cls-7" d="M84.66,327.86h.36v2.45c0,.2-.03.35-.03.35h.02c.14-.4.74-1.2,1.8-1.2s1.4.65,1.4,1.66v2.69h-.36v-2.57c0-.74-.09-1.44-1.05-1.44-.8,0-1.5.56-1.72,1.35-.05.18-.07.37-.07.58v2.07h-.36v-5.95Z"/>
    <path class="cls-7" d="M91.53,329.46c1.22,0,2.2.96,2.2,2.2s-.99,2.25-2.2,2.25-2.2-.99-2.2-2.25.99-2.2,2.2-2.2ZM91.53,333.57c1.01,0,1.83-.83,1.83-1.9s-.82-1.85-1.83-1.85-1.83.8-1.83,1.85.82,1.9,1.83,1.9Z"/>
    <path class="cls-7" d="M94.91,329.56h.36v.75c0,.2-.03.35-.03.35h.02c.21-.64.97-1.2,1.63-1.2.85,0,1.25.4,1.34,1.16h.02c.24-.6.88-1.16,1.61-1.16,1.1,0,1.42.65,1.42,1.66v2.69h-.36v-2.57c0-.8-.16-1.45-1.06-1.45-.71,0-1.31.63-1.5,1.29-.06.2-.08.41-.08.65v2.07h-.36v-2.57c0-.73-.1-1.45-1.04-1.45-.76,0-1.35.66-1.55,1.37-.05.18-.07.37-.07.58v2.07h-.36v-4.25Z"/>
    <path class="cls-7" d="M104.48,329.46c1.16,0,1.73.91,1.73,1.94,0,.09-.02.23-.02.23h-3.41c0,1.23.83,1.94,1.82,1.94.82,0,1.32-.54,1.32-.54l.2.3s-.6.59-1.51.59c-1.2,0-2.19-.87-2.19-2.22,0-1.44.98-2.24,2.07-2.24ZM105.84,331.3c-.04-1.04-.66-1.5-1.37-1.5-.78,0-1.5.51-1.66,1.5h3.03Z"/>
    <path class="cls-7" d="M109.77,327.86h.36v2.21c0,.2-.03.35-.03.35h.02s.37-.96,1.54-.96,1.84.91,1.84,2.23-.79,2.23-1.9,2.23-1.47-.96-1.47-.96h-.02s.03.15.03.37v.48h-.36v-5.95ZM111.59,333.57c.83,0,1.51-.69,1.51-1.88s-.61-1.88-1.48-1.88c-.78,0-1.51.55-1.51,1.89,0,.94.49,1.87,1.48,1.87Z"/>
    <path class="cls-7" d="M114.17,335.06s.24.2.53.2c.41,0,.66-.37.83-.77l.31-.71-1.76-4.22h.38l1.4,3.39c.08.2.15.4.15.4h.02s.06-.2.14-.4l1.4-3.39h.38l-2.18,5.24c-.19.44-.54.79-1.08.79-.41,0-.69-.24-.69-.24l.16-.31Z"/>
    <path class="cls-7" d="M121.37,327.8h.33l-.3,1.28h-.44l.41-1.28Z"/>
    <path class="cls-7" d="M123,327.86h3v.34h-2.63v2.48h2.28v.34h-2.28v2.79h-.37v-5.95Z"/>
    <path class="cls-7" d="M127.11,327.86h.42v.62h-.42v-.62ZM127.15,329.56h.36v4.25h-.36v-4.25Z"/>
    <path class="cls-7" d="M129,329.56h.36v.75c0,.2-.03.35-.03.35h.02c.14-.4.74-1.2,1.8-1.2s1.4.65,1.4,1.66v2.69h-.36v-2.57c0-.74-.09-1.44-1.04-1.44-.8,0-1.5.56-1.72,1.35-.05.18-.07.37-.07.58v2.07h-.36v-4.25Z"/>
    <path class="cls-7" d="M135.61,329.46c1.07,0,1.47.96,1.47.96h.02s-.03-.15-.03-.35v-2.21h.36v5.95h-.36v-.54c0-.2.03-.32.03-.32h-.02s-.37.96-1.54.96-1.84-.91-1.84-2.23.79-2.23,1.9-2.23ZM135.55,333.57c.78,0,1.51-.55,1.51-1.89,0-.94-.48-1.87-1.48-1.87-.83,0-1.51.69-1.51,1.88s.61,1.88,1.48,1.88Z"/>
    <path class="cls-7" d="M138.88,327.86h.42v.62h-.42v-.62ZM138.91,329.56h.36v4.25h-.36v-4.25Z"/>
    <path class="cls-7" d="M140.77,329.56h.36v.75c0,.2-.03.35-.03.35h.02c.14-.4.74-1.2,1.8-1.2s1.4.65,1.4,1.66v2.69h-.36v-2.57c0-.74-.09-1.44-1.04-1.44-.8,0-1.5.56-1.72,1.35-.05.18-.07.37-.07.58v2.07h-.36v-4.25Z"/>
    <path class="cls-7" d="M147.15,335.25c.91,0,1.62-.43,1.62-1.46v-.49c0-.2.03-.35.03-.35h-.02c-.25.52-.72.87-1.43.87-1.1,0-1.89-.87-1.89-2.19s.72-2.16,1.83-2.16c1.21,0,1.48.83,1.48.83h.02s-.03-.06-.03-.16v-.57h.36v4.22c0,1.3-.93,1.81-1.95,1.81-.47,0-.92-.12-1.33-.33l.17-.31s.53.3,1.14.3ZM148.77,331.62c0-1.37-.65-1.81-1.48-1.81-.91,0-1.45.66-1.45,1.81s.63,1.84,1.54,1.84c.75,0,1.39-.47,1.39-1.84Z"/>
  </g>
  <g>
    <path class="cls-7" d="M12.88,340.39s-.12.56-.23.94l-1.26,4.49h-.46l-1.56-5.95h.38l1.26,4.84c.08.29.14.64.14.64h.02s.08-.34.16-.64l1.36-4.84h.41l1.36,4.84c.08.3.15.64.16.64h.02s.07-.35.14-.64l1.3-4.84h.38l-1.61,5.95h-.46l-1.26-4.49c-.11-.38-.23-.94-.23-.94h-.03Z"/>
    <path class="cls-7" d="M19.72,343.22h.28v-.14c0-.94-.48-1.27-1.16-1.27-.74,0-1.22.41-1.22.41l-.2-.29s.51-.47,1.44-.47c.98,0,1.5.54,1.5,1.61v2.75h-.36v-.56c0-.23.03-.38.03-.38h-.02s-.38,1.04-1.49,1.04c-.69,0-1.44-.38-1.44-1.23,0-1.44,1.88-1.46,2.63-1.46ZM18.55,345.59c.93,0,1.45-.96,1.45-1.8v-.23h-.27c-.72,0-2.27,0-2.27,1.1,0,.45.37.93,1.09.93Z"/>
    <path class="cls-7" d="M21.27,347.06s.24.2.53.2c.41,0,.66-.37.83-.77l.31-.71-1.76-4.22h.38l1.4,3.39c.08.2.15.4.15.4h.02s.06-.2.14-.4l1.4-3.39h.38l-2.18,5.24c-.19.44-.54.79-1.08.79-.41,0-.69-.24-.69-.24l.16-.31Z"/>
    <path class="cls-7" d="M25.81,345.03s.48.54,1.32.54c.52,0,.98-.27.98-.8,0-1.08-2.34-.77-2.34-2.16,0-.76.64-1.15,1.36-1.15.87,0,1.26.46,1.26.46l-.21.29s-.35-.4-1.07-.4c-.48,0-.96.22-.96.77,0,1.1,2.34.77,2.34,2.18,0,.68-.58,1.15-1.36,1.15-1.03,0-1.54-.61-1.54-.61l.23-.27Z"/>
    <path class="cls-7" d="M32.15,341.91h-.56v-.32h.56v-1.21h.36v1.21h1.11v.32h-1.11v2.34c0,1.12.67,1.27,1.01,1.27.12,0,.2-.02.2-.02v.33s-.08.02-.21.02c-.44,0-1.35-.16-1.35-1.57v-2.36Z"/>
    <path class="cls-7" d="M36.57,341.46c1.21,0,2.2.96,2.2,2.2s-.99,2.25-2.2,2.25-2.2-.99-2.2-2.25.99-2.2,2.2-2.2ZM36.57,345.57c1.01,0,1.83-.83,1.83-1.9s-.82-1.85-1.83-1.85-1.83.8-1.83,1.85.82,1.9,1.83,1.9Z"/>
    <path class="cls-7" d="M42.47,339.87h3v.34h-2.63v2.48h2.28v.34h-2.28v2.79h-.37v-5.95Z"/>
    <path class="cls-7" d="M46.53,341.57h.36v2.57c0,.74.09,1.44,1.04,1.44,1.06,0,1.74-.94,1.74-1.93v-2.07h.36v4.25h-.36v-.75c0-.2.03-.35.03-.35h-.02c-.14.4-.73,1.2-1.76,1.2s-1.4-.58-1.4-1.66v-2.69Z"/>
    <path class="cls-7" d="M51.53,341.57h.36v.75c0,.2-.03.35-.03.35h.02c.14-.4.74-1.2,1.8-1.2s1.4.65,1.4,1.66v2.69h-.36v-2.57c0-.74-.09-1.44-1.05-1.44-.8,0-1.5.56-1.72,1.35-.05.18-.07.37-.07.58v2.07h-.36v-4.25Z"/>
    <path class="cls-7" d="M58.14,341.46c1.07,0,1.47.96,1.47.96h.02s-.03-.15-.03-.35v-2.21h.36v5.95h-.36v-.54c0-.2.03-.32.03-.32h-.02s-.37.96-1.54.96-1.84-.91-1.84-2.23.79-2.23,1.9-2.23ZM58.09,345.57c.78,0,1.51-.55,1.51-1.89,0-.94-.48-1.87-1.48-1.87-.83,0-1.51.69-1.51,1.88s.61,1.88,1.48,1.88Z"/>
    <path class="cls-7" d="M61.41,339.87h.42v.62h-.42v-.62ZM61.44,341.57h.36v4.25h-.36v-4.25Z"/>
    <path class="cls-7" d="M63.3,341.57h.36v.75c0,.2-.03.35-.03.35h.02c.14-.4.74-1.2,1.8-1.2s1.4.65,1.4,1.66v2.69h-.36v-2.57c0-.74-.09-1.44-1.04-1.44-.8,0-1.5.56-1.72,1.35-.05.18-.07.37-.07.58v2.07h-.36v-4.25Z"/>
    <path class="cls-7" d="M69.68,347.25c.91,0,1.62-.43,1.62-1.46v-.49c0-.2.03-.35.03-.35h-.02c-.25.52-.72.87-1.43.87-1.1,0-1.89-.87-1.89-2.19s.72-2.16,1.83-2.16c1.21,0,1.48.83,1.48.83h.02s-.03-.06-.03-.16v-.57h.36v4.22c0,1.3-.93,1.81-1.95,1.81-.47,0-.92-.12-1.33-.33l.17-.31s.53.3,1.14.3ZM71.3,343.62c0-1.37-.65-1.81-1.48-1.81-.91,0-1.45.66-1.45,1.81s.63,1.84,1.54,1.84c.75,0,1.39-.47,1.39-1.84Z"/>
    <path class="cls-7" d="M75.67,339.87h.37v2.8h3.77v-2.8h.37v5.95h-.37v-2.81h-3.77v2.81h-.37v-5.95Z"/>
    <path class="cls-7" d="M83.73,341.46c1.22,0,2.2.96,2.2,2.2s-.99,2.25-2.2,2.25-2.2-.99-2.2-2.25.99-2.2,2.2-2.2ZM83.73,345.57c1.01,0,1.83-.83,1.83-1.9s-.82-1.85-1.83-1.85-1.83.8-1.83,1.85.82,1.9,1.83,1.9Z"/>
    <path class="cls-7" d="M87.11,341.57h.36v.75c0,.2-.03.35-.03.35h.02c.21-.64.97-1.2,1.63-1.2.85,0,1.25.4,1.34,1.16h.02c.24-.6.88-1.16,1.62-1.16,1.1,0,1.42.65,1.42,1.66v2.69h-.36v-2.57c0-.8-.16-1.45-1.06-1.45-.71,0-1.31.63-1.5,1.29-.06.2-.08.41-.08.65v2.07h-.36v-2.57c0-.73-.1-1.45-1.04-1.45-.76,0-1.35.66-1.55,1.37-.05.18-.07.37-.07.58v2.07h-.36v-4.25Z"/>
    <path class="cls-7" d="M96.68,341.46c1.16,0,1.73.91,1.73,1.94,0,.09-.02.23-.02.23h-3.41c0,1.23.83,1.94,1.82,1.94.82,0,1.32-.54,1.32-.54l.2.3s-.59.59-1.51.59c-1.2,0-2.19-.87-2.19-2.22,0-1.44.98-2.24,2.06-2.24ZM98.04,343.3c-.04-1.04-.66-1.5-1.37-1.5-.78,0-1.5.51-1.66,1.5h3.03Z"/>
    <path class="cls-7" d="M99.48,345.03s.48.54,1.32.54c.52,0,.98-.27.98-.8,0-1.08-2.34-.77-2.34-2.16,0-.76.64-1.15,1.36-1.15.87,0,1.26.46,1.26.46l-.21.29s-.35-.4-1.07-.4c-.48,0-.96.22-.96.77,0,1.1,2.34.77,2.34,2.18,0,.68-.58,1.15-1.36,1.15-1.03,0-1.54-.61-1.54-.61l.23-.27Z"/>
    <path class="cls-7" d="M103.41,339.8h.44l-.41,1.28h-.33l.3-1.28Z"/>
    <path class="cls-7" d="M105,345.28h.52v.54h-.52v-.54Z"/>
  </g>
  <g>
    <path class="cls-5" d="M8.93,42.64h2.09l1.39,4.48c.15.5.3,1.27.3,1.27h.02s.14-.77.3-1.27l1.41-4.48h2.06l-2.77,7.87h-2l-2.78-7.87Z"/>
    <path class="cls-5" d="M17.13,44.84h1.9v5.67h-1.9v-5.67ZM17.15,42.64h1.86v1.49h-1.86v-1.49Z"/>
    <path class="cls-5" d="M20.81,48.53s.63.57,1.44.57c.29,0,.56-.08.56-.26,0-.5-2.65-.55-2.65-2.4,0-1.07,1.02-1.73,2.33-1.73s1.99.65,1.99.65l-.65,1.35s-.55-.46-1.34-.46c-.29,0-.56.08-.56.28,0,.43,2.65.5,2.65,2.32,0,.97-.86,1.79-2.32,1.79s-2.27-.84-2.27-.84l.81-1.28Z"/>
    <path class="cls-5" d="M25.62,44.84h1.9v5.67h-1.9v-5.67ZM25.64,42.64h1.86v1.49h-1.86v-1.49Z"/>
    <path class="cls-5" d="M31.71,44.71c1.79,0,3.22,1.2,3.22,2.98s-1.43,2.95-3.21,2.95-3.21-1.18-3.21-2.95,1.43-2.98,3.2-2.98ZM31.73,49.06c.69,0,1.29-.52,1.29-1.36s-.59-1.4-1.29-1.4-1.29.54-1.29,1.4.59,1.36,1.29,1.36Z"/>
    <path class="cls-5" d="M35.93,44.84h1.83v.5c0,.19-.02.35-.02.35h.02c.26-.44.8-.98,1.8-.98,1.14,0,2.04.53,2.04,2.12v3.67h-1.9v-3.32c0-.53-.21-.75-.63-.75-.59,0-.96.33-1.12.81-.08.22-.11.47-.11.75v2.51h-1.9v-5.67Z"/>
  </g>
  <g>
    <path class="cls-5" d="M10.33,232.31h2.09l1.14,3.32c.18.51.4,1.3.4,1.3h.02s.22-.79.4-1.3l1.14-3.32h2.09l.64,7.87h-1.93l-.24-3.54c-.04-.59,0-1.32,0-1.32h-.02s-.26.83-.44,1.32l-.83,2.28h-1.65l-.83-2.28c-.18-.49-.44-1.32-.44-1.32h-.02s.04.73,0,1.32l-.24,3.54h-1.94l.65-7.87Z"/>
    <path class="cls-5" d="M19.64,234.51h1.9v5.67h-1.9v-5.67ZM19.66,232.31h1.86v1.49h-1.86v-1.49Z"/>
    <path class="cls-5" d="M23.32,238.19s.63.57,1.44.57c.29,0,.56-.08.56-.26,0-.5-2.65-.55-2.65-2.4,0-1.07,1.02-1.73,2.33-1.73s1.99.65,1.99.65l-.65,1.35s-.55-.46-1.34-.46c-.29,0-.56.08-.56.28,0,.43,2.65.5,2.65,2.32,0,.97-.86,1.79-2.32,1.79s-2.27-.84-2.27-.84l.81-1.28Z"/>
    <path class="cls-5" d="M28.5,238.19s.63.57,1.44.57c.29,0,.56-.08.56-.26,0-.5-2.65-.55-2.65-2.4,0-1.07,1.02-1.73,2.33-1.73s1.99.65,1.99.65l-.65,1.35s-.55-.46-1.34-.46c-.29,0-.56.08-.56.28,0,.43,2.65.5,2.65,2.32,0,.97-.86,1.79-2.32,1.79s-2.27-.84-2.27-.84l.81-1.28Z"/>
    <path class="cls-5" d="M33.31,234.51h1.9v5.67h-1.9v-5.67ZM33.33,232.31h1.86v1.49h-1.86v-1.49Z"/>
    <path class="cls-5" d="M39.4,234.37c1.79,0,3.22,1.2,3.22,2.98s-1.43,2.95-3.21,2.95-3.21-1.18-3.21-2.95,1.43-2.98,3.2-2.98ZM39.41,238.72c.69,0,1.29-.52,1.29-1.36s-.59-1.4-1.29-1.4-1.29.54-1.29,1.4.59,1.36,1.29,1.36Z"/>
    <path class="cls-5" d="M43.62,234.51h1.83v.5c0,.19-.02.35-.02.35h.02c.26-.44.8-.98,1.8-.98,1.14,0,2.04.53,2.04,2.12v3.67h-1.9v-3.32c0-.53-.21-.75-.63-.75-.59,0-.96.33-1.12.81-.08.22-.11.47-.11.75v2.51h-1.9v-5.67Z"/>
  </g>
  <g>
    <path class="cls-8" d="M11.16,63.51h.86v6.58h8.88v-6.58h.86v14h-.86v-6.62h-8.88v6.62h-.86v-14Z"/>
    <path class="cls-8" d="M30.12,67.28c2.86,0,5.18,2.26,5.18,5.18s-2.32,5.3-5.18,5.3-5.18-2.32-5.18-5.3,2.32-5.18,5.18-5.18ZM30.12,76.94c2.38,0,4.3-1.94,4.3-4.48s-1.92-4.36-4.3-4.36-4.3,1.88-4.3,4.36,1.92,4.48,4.3,4.48Z"/>
    <path class="cls-8" d="M37.94,67.52h.84v6.04c0,1.74.22,3.38,2.46,3.38,2.5,0,4.1-2.2,4.1-4.54v-4.88h.84v10h-.84v-1.76c0-.46.08-.82.08-.82h-.04c-.34.94-1.72,2.82-4.14,2.82s-3.3-1.36-3.3-3.9v-6.34Z"/>
    <path class="cls-8" d="M49.38,75.68s1.12,1.26,3.1,1.26c1.22,0,2.3-.64,2.3-1.88,0-2.54-5.5-1.82-5.5-5.08,0-1.78,1.5-2.7,3.2-2.7,2.04,0,2.96,1.08,2.96,1.08l-.5.68s-.82-.94-2.52-.94c-1.14,0-2.26.52-2.26,1.82,0,2.6,5.5,1.82,5.5,5.14,0,1.6-1.36,2.7-3.2,2.7-2.42,0-3.62-1.44-3.62-1.44l.54-.64Z"/>
    <path class="cls-8" d="M58.34,63.51h1v1.46h-1v-1.46ZM58.42,67.52h.84v10h-.84v-10Z"/>
    <path class="cls-8" d="M62.78,67.52h.84v1.76c0,.46-.08.82-.08.82h.04c.34-.94,1.74-2.82,4.24-2.82s3.3,1.54,3.3,3.9v6.34h-.84v-6.04c0-1.74-.22-3.38-2.46-3.38-1.88,0-3.54,1.32-4.04,3.18-.12.42-.16.88-.16,1.36v4.88h-.84v-10Z"/>
    <path class="cls-8" d="M77.8,80.9c2.14,0,3.8-1.02,3.8-3.44v-1.16c0-.46.08-.82.08-.82h-.04c-.6,1.22-1.7,2.04-3.36,2.04-2.6,0-4.44-2.04-4.44-5.16s1.7-5.08,4.3-5.08c2.84,0,3.48,1.96,3.48,1.96h.04s-.06-.14-.06-.38v-1.34h.84v9.94c0,3.06-2.2,4.26-4.58,4.26-1.1,0-2.16-.28-3.14-.78l.4-.74s1.24.7,2.68.7ZM81.62,72.36c0-3.22-1.52-4.26-3.48-4.26-2.14,0-3.42,1.56-3.42,4.26s1.48,4.34,3.62,4.34c1.76,0,3.28-1.1,3.28-4.34Z"/>
  </g>
  <g>
    <path class="cls-8" d="M11.18,88.34h-1.26v-.76h1.26v-.46c0-3.3,2.16-3.7,3.16-3.7.32,0,.52.04.52.04v.78s-.18-.04-.46-.04c-.8,0-2.38.32-2.38,2.9v.48h2.74v.76h-2.74v9.18h-.84v-9.18Z"/>
    <path class="cls-8" d="M21.2,87.28c2.86,0,5.18,2.26,5.18,5.18s-2.32,5.3-5.18,5.3-5.18-2.32-5.18-5.3,2.32-5.18,5.18-5.18ZM21.2,96.94c2.38,0,4.3-1.94,4.3-4.48s-1.92-4.36-4.3-4.36-4.3,1.88-4.3,4.36,1.92,4.48,4.3,4.48Z"/>
    <path class="cls-8" d="M29.16,87.52h.84v1.9c0,.46-.08.82-.08.82h.04c.5-1.54,1.62-2.8,3.2-2.8.3,0,.58.06.58.06v.84s-.24-.04-.46-.04c-1.56,0-2.54,1.32-2.98,2.8-.22.7-.3,1.44-.3,2.1v4.32h-.84v-10Z"/>
    <path class="cls-8" d="M48.72,92.68h-5.94l-1.8,4.84h-.92l5.24-14h.92l5.24,14h-.92l-1.82-4.84ZM45.74,84.51s-.3,1.08-.52,1.68l-2.14,5.68h5.34l-2.12-5.68c-.22-.6-.52-1.68-.52-1.68h-.04Z"/>
    <path class="cls-8" d="M53.48,83.51h.84v11.72c0,1.4.72,1.56,1.18,1.56.16,0,.3-.02.3-.02v.78s-.18.04-.36.04c-.58,0-1.96-.22-1.96-2.1v-11.98Z"/>
    <path class="cls-8" d="M58.08,83.51h.84v11.72c0,1.4.72,1.56,1.18,1.56.16,0,.3-.02.3-.02v.78s-.18.04-.36.04c-.58,0-1.96-.22-1.96-2.1v-11.98Z"/>
  </g>
  <g>
    <path class="cls-8" d="M11.16,253.17h7.06v.8h-6.2v5.84h5.36v.8h-5.36v6.56h-.86v-14Z"/>
    <path class="cls-8" d="M20.84,253.17h1v1.46h-1v-1.46ZM20.92,257.18h.84v10h-.84v-10Z"/>
    <path class="cls-8" d="M25.28,257.18h.84v1.76c0,.46-.08.82-.08.82h.04c.34-.94,1.74-2.82,4.24-2.82s3.3,1.54,3.3,3.9v6.34h-.84v-6.04c0-1.74-.22-3.38-2.46-3.38-1.88,0-3.54,1.32-4.04,3.18-.12.42-.16.88-.16,1.36v4.88h-.84v-10Z"/>
    <path class="cls-8" d="M40.82,256.94c2.52,0,3.46,2.26,3.46,2.26h.04s-.08-.36-.08-.82v-5.2h.84v14h-.84v-1.26c0-.46.08-.76.08-.76h-.04s-.86,2.26-3.62,2.26-4.32-2.14-4.32-5.24,1.86-5.24,4.48-5.24ZM40.7,266.6c1.84,0,3.56-1.3,3.56-4.44,0-2.22-1.14-4.4-3.48-4.4-1.96,0-3.56,1.62-3.56,4.42s1.44,4.42,3.48,4.42Z"/>
    <path class="cls-8" d="M48.52,253.17h1v1.46h-1v-1.46ZM48.6,257.18h.84v10h-.84v-10Z"/>
    <path class="cls-8" d="M52.96,257.18h.84v1.76c0,.46-.08.82-.08.82h.04c.34-.94,1.74-2.82,4.24-2.82s3.3,1.54,3.3,3.9v6.34h-.84v-6.04c0-1.74-.22-3.38-2.46-3.38-1.88,0-3.54,1.32-4.04,3.18-.12.42-.16.88-.16,1.36v4.88h-.84v-10Z"/>
    <path class="cls-8" d="M67.98,270.56c2.14,0,3.8-1.02,3.8-3.44v-1.16c0-.46.08-.82.08-.82h-.04c-.6,1.22-1.7,2.04-3.36,2.04-2.6,0-4.44-2.04-4.44-5.16s1.7-5.08,4.3-5.08c2.84,0,3.48,1.96,3.48,1.96h.04s-.06-.14-.06-.38v-1.34h.84v9.94c0,3.06-2.2,4.26-4.58,4.26-1.1,0-2.16-.28-3.14-.78l.4-.74s1.24.7,2.68.7ZM71.8,262.02c0-3.22-1.52-4.26-3.48-4.26-2.14,0-3.42,1.56-3.42,4.26s1.48,4.34,3.62,4.34c1.76,0,3.28-1.1,3.28-4.34Z"/>
    <path class="cls-8" d="M89.04,254.39s-.28,1.32-.54,2.22l-2.96,10.56h-1.08l-3.68-14h.9l2.96,11.4c.18.68.34,1.5.34,1.5h.04s.18-.8.38-1.5l3.2-11.4h.96l3.2,11.4c.2.7.36,1.5.38,1.5h.04s.16-.82.34-1.5l3.06-11.4h.9l-3.78,14h-1.08l-2.96-10.56c-.26-.9-.54-2.22-.54-2.22h-.08Z"/>
    <path class="cls-8" d="M105.12,261.08h.66v-.34c0-2.22-1.14-2.98-2.74-2.98-1.74,0-2.86.96-2.86.96l-.48-.68s1.2-1.1,3.38-1.1c2.3,0,3.54,1.28,3.54,3.78v6.46h-.84v-1.32c0-.54.08-.9.08-.9h-.04s-.9,2.46-3.5,2.46c-1.62,0-3.4-.9-3.4-2.9,0-3.4,4.42-3.44,6.2-3.44ZM102.36,266.64c2.18,0,3.42-2.26,3.42-4.24v-.54h-.64c-1.7,0-5.34,0-5.34,2.6,0,1.06.86,2.18,2.56,2.18Z"/>
    <path class="cls-8" d="M108.78,270.1s.56.48,1.24.48c.96,0,1.56-.86,1.96-1.8l.72-1.66-4.14-9.94h.9l3.3,7.98c.2.48.36.94.36.94h.04s.14-.46.34-.94l3.3-7.98h.9l-5.14,12.34c-.44,1.04-1.28,1.86-2.54,1.86-.96,0-1.62-.56-1.62-.56l.38-.72Z"/>
    <path class="cls-8" d="M119.46,265.34s1.12,1.26,3.1,1.26c1.22,0,2.3-.64,2.3-1.88,0-2.54-5.5-1.82-5.5-5.08,0-1.78,1.5-2.7,3.2-2.7,2.04,0,2.96,1.08,2.96,1.08l-.5.68s-.82-.94-2.52-.94c-1.14,0-2.26.52-2.26,1.82,0,2.6,5.5,1.82,5.5,5.14,0,1.6-1.36,2.7-3.2,2.7-2.42,0-3.62-1.44-3.62-1.44l.54-.64Z"/>
    <path class="cls-8" d="M134.36,258h-1.32v-.76h1.32v-2.84h.84v2.84h2.62v.76h-2.62v5.5c0,2.64,1.58,2.98,2.38,2.98.28,0,.46-.04.46-.04v.78s-.2.04-.5.04c-1.04,0-3.18-.38-3.18-3.7v-5.56Z"/>
    <path class="cls-8" d="M144.76,256.94c2.86,0,5.18,2.26,5.18,5.18s-2.32,5.3-5.18,5.3-5.18-2.32-5.18-5.3,2.32-5.18,5.18-5.18ZM144.76,266.6c2.38,0,4.3-1.94,4.3-4.48s-1.92-4.36-4.3-4.36-4.3,1.88-4.3,4.36,1.92,4.48,4.3,4.48Z"/>
  </g>
  <g>
    <path class="cls-8" d="M11.16,273.17h7.06v.8h-6.2v5.84h5.36v.8h-5.36v6.56h-.86v-14Z"/>
    <path class="cls-8" d="M20.72,277.18h.84v6.04c0,1.74.22,3.38,2.46,3.38,2.5,0,4.1-2.2,4.1-4.54v-4.88h.84v10h-.84v-1.76c0-.46.08-.82.08-.82h-.04c-.34.94-1.72,2.82-4.14,2.82s-3.3-1.36-3.3-3.9v-6.34Z"/>
    <path class="cls-8" d="M32.48,277.18h.84v1.76c0,.46-.08.82-.08.82h.04c.34-.94,1.74-2.82,4.24-2.82s3.3,1.54,3.3,3.9v6.34h-.84v-6.04c0-1.74-.22-3.38-2.46-3.38-1.88,0-3.54,1.32-4.04,3.18-.12.42-.16.88-.16,1.36v4.88h-.84v-10Z"/>
    <path class="cls-8" d="M48.02,276.94c2.52,0,3.46,2.26,3.46,2.26h.04s-.08-.36-.08-.82v-5.2h.84v14h-.84v-1.26c0-.46.08-.76.08-.76h-.04s-.86,2.26-3.62,2.26-4.32-2.14-4.32-5.24,1.86-5.24,4.48-5.24ZM47.9,286.6c1.84,0,3.56-1.3,3.56-4.44,0-2.22-1.14-4.4-3.48-4.4-1.96,0-3.56,1.62-3.56,4.42s1.44,4.42,3.48,4.42Z"/>
    <path class="cls-8" d="M55.72,273.17h1v1.46h-1v-1.46ZM55.8,277.18h.84v10h-.84v-10Z"/>
    <path class="cls-8" d="M60.16,277.18h.84v1.76c0,.46-.08.82-.08.82h.04c.34-.94,1.74-2.82,4.24-2.82s3.3,1.54,3.3,3.9v6.34h-.84v-6.04c0-1.74-.22-3.38-2.46-3.38-1.88,0-3.54,1.32-4.04,3.18-.12.42-.16.88-.16,1.36v4.88h-.84v-10Z"/>
    <path class="cls-8" d="M75.18,290.56c2.14,0,3.8-1.02,3.8-3.44v-1.16c0-.46.08-.82.08-.82h-.04c-.6,1.22-1.7,2.04-3.36,2.04-2.6,0-4.44-2.04-4.44-5.16s1.7-5.08,4.3-5.08c2.84,0,3.48,1.96,3.48,1.96h.04s-.06-.14-.06-.38v-1.34h.84v9.94c0,3.06-2.2,4.26-4.58,4.26-1.1,0-2.16-.28-3.14-.78l.4-.74s1.24.7,2.68.7ZM79,282.02c0-3.22-1.52-4.26-3.48-4.26-2.14,0-3.42,1.56-3.42,4.26s1.48,4.34,3.62,4.34c1.76,0,3.28-1.1,3.28-4.34Z"/>
    <path class="cls-8" d="M89.28,273.17h.86v6.58h8.88v-6.58h.86v14h-.86v-6.62h-8.88v6.62h-.86v-14Z"/>
    <path class="cls-8" d="M108.24,276.94c2.86,0,5.18,2.26,5.18,5.18s-2.32,5.3-5.18,5.3-5.18-2.32-5.18-5.3,2.32-5.18,5.18-5.18ZM108.24,286.6c2.38,0,4.3-1.94,4.3-4.48s-1.92-4.36-4.3-4.36-4.3,1.88-4.3,4.36,1.92,4.48,4.3,4.48Z"/>
    <path class="cls-8" d="M116.2,277.18h.84v1.76c0,.46-.08.82-.08.82h.04c.5-1.5,2.28-2.82,3.84-2.82,2,0,2.94.94,3.16,2.72h.04c.56-1.4,2.08-2.72,3.8-2.72,2.58,0,3.34,1.52,3.34,3.9v6.34h-.84v-6.04c0-1.88-.38-3.42-2.5-3.42-1.66,0-3.08,1.48-3.52,3.04-.14.46-.2.96-.2,1.54v4.88h-.84v-6.04c0-1.72-.24-3.42-2.44-3.42-1.78,0-3.18,1.56-3.64,3.22-.12.42-.16.88-.16,1.36v4.88h-.84v-10Z"/>
    <path class="cls-8" d="M138.72,276.94c2.72,0,4.08,2.14,4.08,4.56,0,.22-.04.54-.04.54h-8.02c0,2.9,1.96,4.56,4.28,4.56,1.92,0,3.1-1.26,3.1-1.26l.46.7s-1.4,1.38-3.56,1.38c-2.82,0-5.16-2.04-5.16-5.22,0-3.38,2.3-5.26,4.86-5.26ZM141.92,281.26c-.1-2.44-1.56-3.54-3.22-3.54-1.84,0-3.54,1.2-3.9,3.54h7.12Z"/>
    <path class="cls-8" d="M145.3,285.34s1.12,1.26,3.1,1.26c1.22,0,2.3-.64,2.3-1.88,0-2.54-5.5-1.82-5.5-5.08,0-1.78,1.5-2.7,3.2-2.7,2.04,0,2.96,1.08,2.96,1.08l-.5.68s-.82-.94-2.52-.94c-1.14,0-2.26.52-2.26,1.82,0,2.6,5.5,1.82,5.5,5.14,0,1.6-1.36,2.7-3.2,2.7-2.42,0-3.62-1.44-3.62-1.44l.54-.64Z"/>
  </g>
  <g class="cls-4">
    <path class="cls-5" d="M37.58,16.02c-.09-.11-.18-.21-.27-.3-.1-.11-.19-.21-.27-.29-.13-.14-.35-.14-.49,0-.14.13-.14.35-.01.49.09.1.18.19.26.27.09.1.17.2.25.29.12.14.34.16.48.04.14-.12.16-.34.04-.48"/>
    <path class="cls-5" d="M36.27,14.64c-.31-.3-.63-.58-.96-.85s-.66-.52-1-.76c-.16-.11-.37-.07-.48.09-.11.15-.07.37.08.48.32.23.65.47.96.73.31.25.62.53.92.82.14.13.36.13.49-.01.13-.14.12-.36-.01-.49Z"/>
    <path class="cls-6" d="M31.08,19.41c0-.19-.15-.35-.34-.35h-1.08c-.19,0-.34.15-.34.35s.15.34.34.34h1.08c.19,0,.34-.15.34-.34M31.08,20.77c0-.19-.15-.35-.34-.35h-1.08c-.19,0-.34.15-.34.35s.15.34.34.34h1.08c.19,0,.34-.15.34-.34M26.37,20.07c0,.19.16.35.35.35h.25v.81c0,.19.15.35.34.35s.34-.16.34-.35v-1.16c0-.19-.15-.35-.34-.35h-.59c-.19,0-.35.15-.35.35M26.37,17.56c0,.19.16.35.35.35h.25v.81c0,.19.15.34.34.34s.34-.15.34-.34v-1.16c0-.19-.15-.35-.34-.35h-.59c-.19,0-.35.15-.35.35M26.37,15.05c0,.19.16.35.35.35h.25v.81c0,.19.15.34.34.34s.34-.15.34-.34v-1.16c0-.19-.15-.35-.34-.35h-.59c-.19,0-.35.15-.35.35M26.14,10.12c.06,0,.11,0,.17,0,.05,0,.09,0,.14,0,.02,0,.03,0,.05,0,1.89.05,3.6.85,4.83,2.12,1.23,1.26,1.99,2.99,1.99,4.89,0,1.47-.45,2.84-1.23,3.97v-2.51h0c0-.12-.06-.23-.16-.29l-3.2-1.94v-2.44c0-.19-.15-.34-.34-.34h-.12v-1.69h0s0-.09-.03-.14c-.08-.17-.28-.25-.45-.18l-2.48,1.08c-.14.05-.23.17-.23.33v.6h-.12c-.19,0-.35.15-.35.34v1.73s-2.07.55-2.07.55c-.16.03-.27.17-.27.34v1.71h-1.38c-.19,0-.34.15-.34.35v2.51c-.78-1.13-1.23-2.5-1.23-3.97,0-1.9.75-3.62,1.98-4.88,1.23-1.27,2.93-2.07,4.82-2.13.01,0,.03,0,.05,0M21.22,18.93h2.68v4.78c-.69-.25-1.33-.61-1.9-1.05h.16c.19,0,.34-.15.34-.35s-.15-.35-.34-.35h-.92l-.02-.02v-.65h.94c.19,0,.34-.15.34-.35s-.15-.35-.34-.35h-.94v-.67h.94c.19,0,.34-.15.34-.35s-.15-.35-.34-.35h-.94v-.32ZM24.56,18.44l.77-.21v.37l-.74.2v-.21c0-.05-.01-.1-.03-.15M24.59,19.51l.74-.2v.37l-.74.2v-.37ZM24.59,20.6l.74-.2v.37l-.74.2v-.37ZM24.59,21.68l.74-.2v.37l-.74.2v-.37ZM24.59,22.76l.74-.2v.37l-.74.2v-.37ZM24.59,23.84l.74-.2v.43c-.25-.04-.49-.08-.74-.14v-.09ZM25.32,17.16v.37l-2.3.62s-.06.02-.08.03v-.38l2.38-.64ZM22.94,17.08v-.28s1.3-.35,1.3-.35l1.08-.29h0s0,.28,0,.28l-2.38.64ZM25.75,13.57v-.38l1.82-.79v1.17h-1.82ZM25.58,15.38l-.3.08v-1.2h2.74v9.67c-.19.05-.39.09-.58.12.12-.05.21-.17.21-.32v-1.16c0-.19-.15-.35-.34-.35h-.59c-.19,0-.35.15-.35.35s.16.35.35.35h.25v.81c0,.18.13.32.31.34-.25.03-.51.06-.76.06-.02,0-.03,0-.05,0-.05,0-.09,0-.14,0-.06,0-.12,0-.19,0-.02,0-.03,0-.05,0-.02,0-.04,0-.07,0v-8.42s0-.06-.01-.09c-.05-.18-.24-.29-.42-.24M28.72,17.16l2.68,1.63v3.17s-.04.04-.06.06c-.1.1-.2.2-.31.3.03-.05.06-.12.06-.19,0-.19-.15-.35-.34-.35h-1.08c-.19,0-.34.15-.34.35s.15.34.34.34h1.08c.05,0,.11-.01.15-.03-.3.26-.63.5-.97.7h-.26c-.18,0-.33.14-.34.32-.19.09-.39.18-.6.25v-6.56ZM26.31,9.43h0c-1.97,0-3.75.76-5.11,1.98-.12.11-.26.21-.37.32-.19.2-.35.42-.53.64-.13.16-.28.32-.4.49-.18.27-.33.57-.47.87-.07.14-.16.27-.22.42-.17.41-.3.83-.39,1.27-.01.05-.04.1-.05.16-.1.5-.16,1.02-.16,1.55s.05,1.05.16,1.55c.01.05.03.1.04.15.1.44.23.87.4,1.28.06.13.14.25.2.38.15.31.3.63.5.92.1.16.24.29.35.44.18.24.36.48.57.69.11.11.24.21.36.31,1.36,1.22,3.15,1.99,5.12,1.99,1.85,0,3.52-.68,4.84-1.76.23-.19.46-.37.67-.58,0,0,.01-.01.02-.02,1.34-1.39,2.16-3.27,2.16-5.35s-.83-3.98-2.18-5.37c-.21-.22-.45-.4-.69-.59-1.32-1.07-2.99-1.74-4.82-1.74"/>
    <path class="cls-5" d="M38.76,17.32c-1.29,1.8-2.77,3.25-4.37,4.36-2.5,1.72-5.29,2.58-8.08,2.58s-5.58-.86-8.08-2.58c-1.6-1.1-3.08-2.56-4.37-4.36-.08-.11-.08-.26,0-.37,1.29-1.8,2.77-3.26,4.37-4.35,2.5-1.72,5.29-2.58,8.08-2.58s5.58.86,8.08,2.58c1.6,1.1,3.09,2.56,4.37,4.36.08.11.08.26,0,.37M39.52,16.94c-1.37-1.95-2.94-3.52-4.64-4.71-2.65-1.86-5.61-2.79-8.57-2.79s-5.92.93-8.57,2.79c-1.7,1.19-3.27,2.76-4.64,4.71-.09.11-.09.28,0,.4,1.37,1.95,2.94,3.52,4.64,4.71,2.66,1.86,5.61,2.79,8.57,2.79s5.92-.93,8.57-2.79c1.7-1.19,3.27-2.76,4.64-4.71.09-.11.09-.27,0-.4"/>
    <path class="cls-3" d="M26.31.25C16.89.25,9.25,7.89,9.25,17.31s7.64,17.06,17.06,17.06,17.06-7.64,17.06-17.06c0-4.96-2.12-9.43-5.5-12.54"/>
    <path class="cls-1" d="M42.45,22.84c.59-1.73.92-3.6.92-5.53,0-2.56-.56-4.98-1.57-7.16"/>
    <path class="cls-3" d="M26.31,189.91c-9.42,0-17.06,7.64-17.06,17.06s7.64,17.06,17.06,17.06,17.06-7.64,17.06-17.06c0-4.96-2.12-9.43-5.5-12.54"/>
    <path class="cls-1" d="M42.45,212.5c.59-1.74.92-3.6.92-5.53,0-2.56-.56-4.99-1.57-7.16"/>
    <path class="cls-6" d="M30.69,210.17c-.1,0-.2-.05-.25-.15l-2.14-4.03h-.47c-.09,0-.18-.05-.23-.12l-1.12-1.68c-.09-.13-.05-.3.08-.39.13-.09.3-.05.39.08l1.04,1.56h.49c.1,0,.2.06.25.15l2.22,4.18c.07.14.02.31-.12.38-.04.02-.09.03-.13.03Z"/>
    <path class="cls-6" d="M17.53,213.06c-.06,0-.12-.02-.17-.06-.12-.09-.15-.27-.06-.39l1.21-1.61c.08-.1.21-.14.33-.09l1.2.47,2.54-4.28c.08-.13.25-.18.39-.1.13.08.18.25.1.38l-2.66,4.49c-.07.12-.22.17-.34.12l-1.23-.48-1.08,1.44c-.06.07-.14.11-.23.11h0Z"/>
    <path class="cls-5" d="M21.26,213.03c2.03,0,4.05.39,6.56.93,5.55,1.19,8.43,1.05,9.91.66l-5.46-6.64-1.07.73c-.07.04-.15.06-.23.04-.08-.02-.14-.07-.18-.14l-1.91-3.59h-.53c-.09,0-.18-.05-.23-.12l-1.4-2.11-2.75,4.1c-.04.07-.11.11-.19.12-.08.01-.16-.01-.22-.06l-.92-.73-2.64,4.46c-.07.12-.22.17-.35.12l-1.15-.45-2.8,3.72c2.06-.74,3.8-1.04,5.55-1.04h0ZM13.1,215.77c-.1,0-.2-.06-.25-.16-.07-.14-.01-.31.13-.38.61-.3,1.19-.56,1.74-.79l3.47-4.62c.08-.1.21-.14.33-.09l1.12.44,2.68-4.53c.04-.07.11-.12.19-.13.08-.01.16,0,.23.06l.93.75,2.81-4.19c.05-.08.14-.12.23-.12s.18.05.23.12l1.55,2.33h.55c.1,0,.2.06.25.15l1.84,3.46,1.03-.7c.12-.08.28-.06.38.05l5.76,7.01c.8-.32.96-.7.96-.71h0s.54.16.54.16c-.02.08-.24.7-1.48,1.14,0,0-.01,0-.02,0-.14.05-.3.1-.47.14-2.13.54-5.54.31-10.13-.67-5.59-1.2-8.54-1.65-14.48,1.23-.04.02-.08.03-.12.03Z"/>
    <path class="cls-6" d="M25.79,211.84c-.11,0-.21-.07-.26-.17l-2.06-4.84c-.06-.14,0-.31.15-.37.14-.06.31,0,.37.15l2.06,4.84c.06.14,0,.31-.15.37-.04.02-.07.02-.11.02"/>
    <path class="cls-6" d="M33.16,212.83c-.1,0-.2-.05-.25-.15l-2.12-4.06c-.07-.14-.02-.31.12-.38.14-.07.31-.02.38.12l2.12,4.06c.07.14.02.31-.12.38-.04.02-.09.03-.13.03h0Z"/>
    <path class="cls-6" d="M26.71,202.56c-.16,0-.28-.13-.28-.28v-4.18c0-.16.13-.28.28-.28s.28.13.28.28v4.18c0,.15-.13.28-.28.28"/>
    <path class="cls-6" d="M30.19,201.02h-3.48c-.16,0-.28-.13-.28-.28s.13-.28.28-.28h3.19v-2.07h-3.19c-.16,0-.28-.13-.28-.28s.13-.28.28-.28h3.48c.16,0,.28.13.28.28v2.64c0,.15-.13.28-.28.28"/>
  </g>
</svg>