<?xml version="1.0" encoding="UTF-8"?>
<svg id="Layer_1" data-name="Layer 1" xmlns="http://www.w3.org/2000/svg" xmlns:xlink="http://www.w3.org/1999/xlink" viewBox="0 0 171.59 53.85">
  <defs>
    <style>
      .cls-1 {
        clip-path: url(#clippath);
      }

      .cls-2 {
        fill: none;
      }

      .cls-2, .cls-3, .cls-4, .cls-5, .cls-6 {
        stroke-width: 0px;
      }

      .cls-3 {
        fill: #71c7aa;
      }

      .cls-4 {
        fill: #e6e7e8;
      }

      .cls-5 {
        fill: #fff;
      }

      .cls-6 {
        fill: #a5378a;
      }
    </style>
    <clipPath id="clippath">
      <rect class="cls-2" width="171.59" height="53.85"/>
    </clipPath>
  </defs>
  <g>
    <path class="cls-3" d="M13.08,7.88c2.09,0,3.67,1.59,3.67,3.62s-1.58,3.72-3.67,3.72-3.67-1.63-3.67-3.72,1.58-3.62,3.67-3.62ZM13.08,14.04c1.3,0,2.34-1.08,2.34-2.54s-1.04-2.44-2.34-2.44-2.34,1.04-2.34,2.44,1.04,2.54,2.34,2.54Z"/>
    <path class="cls-3" d="M18.08,11.09h-.66v-1.01h.69v-1.47h1.24v1.47h1.16v1.01h-1.16v1.98c0,.84.66.96,1.01.96.14,0,.23-.02.23-.02v1.11s-.15.03-.39.03c-.71,0-2.12-.21-2.12-1.92v-2.14Z"/>
    <path class="cls-3" d="M21.63,8h1.27v2.46c0,.25-.02.43-.02.43h.02c.25-.49.87-1.01,1.76-1.01,1.13,0,1.77.59,1.77,1.94v3.28h-1.26v-3.02c0-.62-.16-1.04-.81-1.04s-1.19.44-1.38,1.06c-.06.2-.08.42-.08.66v2.34h-1.27v-7.1Z"/>
    <path class="cls-3" d="M29.99,9.88c1.47,0,2.26,1.07,2.26,2.42,0,.15-.03.49-.03.49h-3.52c.08.89.77,1.35,1.53,1.35.82,0,1.47-.56,1.47-.56l.49.91s-.78.73-2.05.73c-1.69,0-2.74-1.22-2.74-2.67,0-1.57,1.07-2.67,2.59-2.67ZM30.97,11.92c-.02-.69-.45-1.06-1.01-1.06-.65,0-1.1.4-1.22,1.06h2.23Z"/>
    <path class="cls-3" d="M33.3,10h1.22v.88c0,.19-.02.36-.02.36h.02c.23-.73.84-1.31,1.62-1.31.12,0,.23.02.23.02v1.25s-.13-.02-.3-.02c-.54,0-1.15.31-1.39,1.07-.08.25-.11.53-.11.83v2.02h-1.27v-5.1Z"/>
    <path class="cls-3" d="M39.86,8h1.29v7.1h-1.29v-7.1Z"/>
    <path class="cls-3" d="M42.75,10h1.22v.59c0,.19-.02.35-.02.35h.02c.22-.43.78-1.06,1.81-1.06,1.13,0,1.77.59,1.77,1.94v3.28h-1.26v-3.02c0-.62-.16-1.04-.81-1.04s-1.18.43-1.37,1.04c-.07.21-.09.44-.09.68v2.34h-1.27v-5.1Z"/>
    <path class="cls-3" d="M50.84,9.88c1.12,0,1.47.65,1.47.65h.02s-.01-.13-.01-.29v-2.24h1.27v7.1h-1.2v-.42c0-.19.02-.33.02-.33h-.02s-.43.87-1.6.87c-1.38,0-2.26-1.09-2.26-2.67s.96-2.67,2.31-2.67ZM51.08,14.15c.66,0,1.28-.48,1.28-1.61,0-.79-.42-1.57-1.27-1.57-.7,0-1.28.57-1.28,1.58s.52,1.6,1.27,1.6Z"/>
    <path class="cls-3" d="M54.99,8h1.26v1.13h-1.26v-1.13ZM54.99,10h1.27v5.1h-1.27v-5.1Z"/>
    <path class="cls-3" d="M56.96,10h1.34l1.06,3.16c.1.3.17.77.18.77h.02s.08-.47.18-.77l1.06-3.16h1.34l-1.83,5.1h-1.5l-1.85-5.1Z"/>
    <path class="cls-3" d="M62.85,8h1.26v1.13h-1.26v-1.13ZM62.85,10h1.27v5.1h-1.27v-5.1Z"/>
    <path class="cls-3" d="M67.48,9.88c1.12,0,1.47.65,1.47.65h.02s0-.13,0-.29v-2.24h1.27v7.1h-1.2v-.42c0-.19.02-.33.02-.33h-.02s-.43.87-1.6.87c-1.38,0-2.26-1.09-2.26-2.67s.96-2.67,2.31-2.67ZM67.72,14.15c.66,0,1.28-.48,1.28-1.61,0-.79-.42-1.57-1.27-1.57-.7,0-1.28.57-1.28,1.58s.52,1.6,1.27,1.6Z"/>
    <path class="cls-3" d="M71.56,10h1.27v3.02c0,.62.16,1.04.79,1.04.92,0,1.43-.81,1.43-1.72v-2.34h1.27v5.1h-1.22v-.58c0-.2.02-.36.02-.36h-.02c-.25.53-.9,1.06-1.77,1.06-1.09,0-1.77-.55-1.77-1.94v-3.28Z"/>
    <path class="cls-3" d="M80.31,11.9h.17v-.07c0-.67-.42-.9-.98-.9-.73,0-1.4.49-1.4.49l-.48-.91s.79-.63,2-.63c1.34,0,2.12.74,2.12,2.03v3.19h-1.17v-.42c0-.2.02-.36.02-.36h-.02s-.39.9-1.55.9c-.91,0-1.73-.57-1.73-1.59,0-1.62,2.19-1.73,3.02-1.73ZM79.34,14.23c.67,0,1.15-.72,1.15-1.34v-.12h-.22c-.65,0-1.7.09-1.7.8,0,.34.25.66.77.66Z"/>
    <path class="cls-3" d="M82.99,8h1.26v5.32c0,.56.19.7.52.7.1,0,.19-.01.19-.01v1.11s-.19.03-.4.03c-.7,0-1.57-.18-1.57-1.64v-5.51Z"/>
    <path class="cls-3" d="M88.69,13.28s.77.75,1.77.75c.54,0,1.03-.28,1.03-.86,0-1.27-3.35-1.05-3.35-3.23,0-1.18,1.02-2.06,2.38-2.06s2.12.76,2.12.76l-.56,1.05s-.68-.62-1.57-.62c-.6,0-1.07.35-1.07.85,0,1.26,3.34.95,3.34,3.22,0,1.13-.86,2.08-2.34,2.08-1.58,0-2.45-.97-2.45-.97l.7-.97Z"/>
    <path class="cls-3" d="M93.87,8h1.27v2.46c0,.25-.02.43-.02.43h.02c.25-.49.87-1.01,1.76-1.01,1.13,0,1.77.59,1.77,1.94v3.28h-1.26v-3.02c0-.62-.16-1.04-.81-1.04s-1.19.44-1.38,1.06c-.06.2-.08.42-.08.66v2.34h-1.27v-7.1Z"/>
    <path class="cls-3" d="M102.59,11.9h.17v-.07c0-.67-.42-.9-.98-.9-.73,0-1.4.49-1.4.49l-.48-.91s.79-.63,2-.63c1.34,0,2.12.74,2.12,2.03v3.19h-1.17v-.42c0-.2.02-.36.02-.36h-.02s-.39.9-1.55.9c-.91,0-1.73-.57-1.73-1.59,0-1.62,2.19-1.73,3.02-1.73ZM101.62,14.23c.67,0,1.15-.72,1.15-1.34v-.12h-.22c-.65,0-1.7.09-1.7.8,0,.34.25.66.77.66Z"/>
    <path class="cls-3" d="M105.34,10h1.22v.88c0,.19-.02.36-.02.36h.02c.23-.73.84-1.31,1.62-1.31.12,0,.23.02.23.02v1.25s-.13-.02-.3-.02c-.54,0-1.15.31-1.39,1.07-.08.25-.11.53-.11.83v2.02h-1.27v-5.1Z"/>
    <path class="cls-3" d="M111.5,9.88c1.47,0,2.26,1.07,2.26,2.42,0,.15-.03.49-.03.49h-3.52c.08.89.77,1.35,1.53,1.35.82,0,1.47-.56,1.47-.56l.49.91s-.78.73-2.05.73c-1.69,0-2.74-1.22-2.74-2.67,0-1.57,1.07-2.67,2.59-2.67ZM112.48,11.92c-.02-.69-.45-1.06-1.01-1.06-.65,0-1.1.4-1.22,1.06h2.23Z"/>
    <path class="cls-3" d="M114.81,8h1.27v2.46c0,.25-.02.43-.02.43h.02c.25-.49.87-1.01,1.76-1.01,1.13,0,1.77.59,1.77,1.94v3.28h-1.26v-3.02c0-.62-.16-1.04-.81-1.04s-1.19.44-1.38,1.06c-.06.2-.08.42-.08.66v2.34h-1.27v-7.1Z"/>
    <path class="cls-3" d="M123.36,9.88c1.56,0,2.81,1.11,2.81,2.67s-1.25,2.67-2.8,2.67-2.81-1.1-2.81-2.67,1.25-2.67,2.8-2.67ZM123.37,14.14c.82,0,1.51-.64,1.51-1.59s-.69-1.59-1.51-1.59-1.52.65-1.52,1.59.69,1.59,1.52,1.59Z"/>
    <path class="cls-3" d="M127.12,8h1.26v5.32c0,.56.19.7.52.7.1,0,.19-.01.19-.01v1.11s-.19.03-.4.03c-.7,0-1.57-.18-1.57-1.64v-5.51Z"/>
    <path class="cls-3" d="M131.99,9.88c1.12,0,1.47.65,1.47.65h.02s0-.13,0-.29v-2.24h1.27v7.1h-1.2v-.42c0-.19.02-.33.02-.33h-.02s-.43.87-1.6.87c-1.38,0-2.26-1.09-2.26-2.67s.96-2.67,2.31-2.67ZM132.23,14.15c.66,0,1.28-.48,1.28-1.61,0-.79-.42-1.57-1.27-1.57-.7,0-1.28.57-1.28,1.58s.52,1.6,1.27,1.6Z"/>
    <path class="cls-3" d="M138.37,9.88c1.47,0,2.26,1.07,2.26,2.42,0,.15-.03.49-.03.49h-3.52c.08.89.77,1.35,1.53,1.35.82,0,1.47-.56,1.47-.56l.49.91s-.78.73-2.05.73c-1.69,0-2.74-1.22-2.74-2.67,0-1.57,1.07-2.67,2.59-2.67ZM139.35,11.92c-.02-.69-.45-1.06-1.01-1.06-.65,0-1.1.4-1.22,1.06h2.23Z"/>
    <path class="cls-3" d="M141.68,10h1.22v.88c0,.19-.02.36-.02.36h.02c.23-.73.84-1.31,1.62-1.31.12,0,.23.02.23.02v1.25s-.13-.02-.3-.02c-.54,0-1.15.31-1.39,1.07-.08.25-.11.53-.11.83v2.02h-1.27v-5.1Z"/>
    <path class="cls-3" d="M145.76,13.58s.56.56,1.39.56c.36,0,.67-.16.67-.46,0-.76-2.48-.66-2.48-2.3,0-.95.85-1.5,1.95-1.5s1.71.58,1.71.58l-.47.94s-.47-.44-1.25-.44c-.33,0-.65.14-.65.46,0,.72,2.48.63,2.48,2.27,0,.85-.74,1.53-1.95,1.53s-1.98-.75-1.98-.75l.58-.89Z"/>
  </g>
  <g class="cls-1">
    <path class="cls-6" d="M23.77,39.08l-1.54-14.69c.45-.05,1.09-.08,1.54-.08v14.77Z"/>
    <path class="cls-4" d="M23.77,39.08l-12.66-7.61c2.49-4.14,6.31-6.58,11.11-7.08l1.54,14.69Z"/>
    <path class="cls-4" d="M23.77,39.08v-14.77c8.16,0,14.77,6.61,14.77,14.77s-6.61,14.77-14.77,14.77-14.77-6.61-14.77-14.77c0-2.87.63-5.15,2.11-7.61l12.66,7.61Z"/>
    <path class="cls-5" d="M23.77,51.22c6.7,0,12.13-5.43,12.13-12.14s-5.43-12.13-12.13-12.13-12.14,5.43-12.14,12.13,5.43,12.14,12.14,12.14"/>
  </g>
  <g>
    <path class="cls-6" d="M46.72,42.74h2.31v-5.91c0-.36.01-.72.01-.72h-.03s-.12.25-.46.6l-.85.81-1.14-1.2,2.67-2.56h1.7v8.98h2.31v1.67h-6.51v-1.67Z"/>
    <path class="cls-6" d="M54.56,42.5h1.91v1.91h-1.91v-1.91Z"/>
    <path class="cls-6" d="M57.4,40.48l4.59-6.72h2.29v6.3h1.38v1.6h-1.38v2.75h-1.9v-2.75h-4.98v-1.18ZM62.38,40.06v-3.3c0-.53.07-1.11.07-1.11h-.03s-.24.57-.53.97l-2.46,3.41v.03h2.94Z"/>
    <path class="cls-6" d="M67.09,39.53c0-2.79,1.6-5.95,4.9-5.95,1.35,0,2.17.45,2.17.45l-.57,1.67s-.67-.33-1.5-.33c-1.68,0-2.57,1.4-2.83,2.85h.03c.38-.44,1.23-.75,1.99-.75,2.1,0,3.42,1.63,3.42,3.55s-1.39,3.57-3.51,3.57c-2.22,0-4.11-1.84-4.11-5.05ZM72.79,41.02c0-1.08-.67-1.96-1.95-1.96-.96,0-1.74.5-1.74,1.15,0,1.33.97,2.61,2.1,2.61.99,0,1.59-.79,1.59-1.8Z"/>
    <path class="cls-6" d="M75.92,35.95c0-1.29,1.1-2.37,2.45-2.37s2.46,1.08,2.46,2.37-1.11,2.37-2.46,2.37-2.45-1.05-2.45-2.37ZM84.47,33.76h1.75l-8.17,10.65h-1.75l8.17-10.65ZM79.37,35.95c0-.54-.45-.99-1-.99s-.99.45-.99.99.44.99.99.99,1-.43,1-.99ZM84.19,39.86c1.35,0,2.45,1.08,2.45,2.37s-1.09,2.35-2.45,2.35-2.44-1.05-2.44-2.35,1.08-2.37,2.44-2.37ZM84.19,43.21c.56,0,1.01-.43,1.01-.99s-.45-.99-1.01-.99-.99.45-.99.99.43.99.99.99Z"/>
  </g>
</svg>