<?xml version="1.0" encoding="UTF-8"?>
<svg id="Layer_1" data-name="Layer 1" xmlns="http://www.w3.org/2000/svg" viewBox="0 0 155.05 210.02">
  <defs>
    <style>
      .cls-1 {
        fill: #71c7aa;
      }

      .cls-1, .cls-2, .cls-3 {
        stroke-width: 0px;
      }

      .cls-4 {
        fill: none;
        stroke: #808285;
        stroke-linecap: round;
        stroke-linejoin: round;
        stroke-width: .5px;
      }

      .cls-2 {
        fill: #58595b;
      }

      .cls-3 {
        fill: #a5378a;
      }
    </style>
  </defs>
  <g>
    <path class="cls-2" d="M.92,27.57h1.87c1.77,0,2.97,1.09,2.97,2.97s-1.2,2.97-2.97,2.97H.92v-5.95ZM2.73,33.18c1.58,0,2.64-.93,2.64-2.63s-1.06-2.63-2.64-2.63h-1.45v5.27h1.45Z"/>
    <path class="cls-2" d="M8.81,29.17c1.16,0,1.73.91,1.73,1.94,0,.09-.02.23-.02.23h-3.41c0,1.23.83,1.94,1.82,1.94.82,0,1.32-.54,1.32-.54l.2.3s-.6.59-1.51.59c-1.2,0-2.19-.87-2.19-2.22,0-1.44.98-2.24,2.07-2.24ZM10.17,31.01c-.04-1.04-.66-1.5-1.37-1.5-.78,0-1.5.51-1.66,1.5h3.03Z"/>
    <path class="cls-2" d="M11.71,27.57h.36v4.98c0,.59.31.66.5.66.07,0,.13,0,.13,0v.33s-.08.02-.15.02c-.25,0-.83-.09-.83-.89v-5.09Z"/>
    <path class="cls-2" d="M13.67,27.57h.42v.62h-.42v-.62ZM13.7,29.27h.36v4.25h-.36v-4.25Z"/>
    <path class="cls-2" d="M14.96,29.27h.38l1.31,3.33c.08.2.14.46.14.46h.02s.07-.25.14-.46l1.31-3.33h.37l-1.67,4.25h-.34l-1.67-4.25Z"/>
    <path class="cls-2" d="M21.31,29.17c1.16,0,1.73.91,1.73,1.94,0,.09-.02.23-.02.23h-3.41c0,1.23.83,1.94,1.82,1.94.82,0,1.32-.54,1.32-.54l.2.3s-.59.59-1.51.59c-1.2,0-2.19-.87-2.19-2.22,0-1.44.98-2.24,2.06-2.24ZM22.67,31.01c-.04-1.04-.66-1.5-1.37-1.5-.78,0-1.5.51-1.66,1.5h3.03Z"/>
    <path class="cls-2" d="M24.24,29.27h.36v.81c0,.2-.03.35-.03.35h.02c.21-.65.69-1.19,1.36-1.19.13,0,.25.03.25.03v.36s-.1-.02-.2-.02c-.66,0-1.08.56-1.27,1.19-.09.3-.13.61-.13.89v1.84h-.36v-4.25Z"/>
    <path class="cls-2" d="M31.36,29.17c1.21,0,2.2.96,2.2,2.2s-.99,2.25-2.2,2.25-2.2-.99-2.2-2.25.99-2.2,2.2-2.2ZM31.36,33.28c1.01,0,1.83-.83,1.83-1.9s-.82-1.85-1.83-1.85-1.83.8-1.83,1.85.82,1.9,1.83,1.9Z"/>
    <path class="cls-2" d="M34.74,29.27h.36v.75c0,.2-.03.35-.03.35h.02c.14-.4.74-1.2,1.8-1.2s1.4.65,1.4,1.66v2.69h-.36v-2.57c0-.74-.09-1.44-1.05-1.44-.8,0-1.5.56-1.72,1.35-.05.18-.07.37-.07.58v2.07h-.36v-4.25Z"/>
    <path class="cls-2" d="M43.96,29.17c1.21,0,2.2.96,2.2,2.2s-.99,2.25-2.2,2.25-2.2-.99-2.2-2.25.99-2.2,2.2-2.2ZM43.96,33.28c1.01,0,1.83-.83,1.83-1.9s-.82-1.85-1.83-1.85-1.83.8-1.83,1.85.82,1.9,1.83,1.9Z"/>
    <path class="cls-2" d="M47.29,29.27h.36v2.57c0,.74.09,1.44,1.05,1.44,1.06,0,1.74-.94,1.74-1.93v-2.07h.36v4.25h-.36v-.75c0-.2.03-.35.03-.35h-.02c-.14.4-.73,1.2-1.76,1.2s-1.4-.58-1.4-1.66v-2.69Z"/>
    <path class="cls-2" d="M52.28,29.27h.36v.81c0,.2-.03.35-.03.35h.02c.21-.65.69-1.19,1.36-1.19.13,0,.25.03.25.03v.36s-.1-.02-.2-.02c-.66,0-1.08.56-1.27,1.19-.09.3-.13.61-.13.89v1.84h-.36v-4.25Z"/>
    <path class="cls-2" d="M58.91,34.96c.91,0,1.61-.43,1.61-1.46v-.49c0-.2.03-.35.03-.35h-.02c-.25.52-.72.87-1.43.87-1.11,0-1.89-.87-1.89-2.19s.72-2.16,1.83-2.16c1.21,0,1.48.83,1.48.83h.02s-.03-.06-.03-.16v-.57h.36v4.22c0,1.3-.94,1.81-1.95,1.81-.47,0-.92-.12-1.33-.33l.17-.31s.53.3,1.14.3ZM60.54,31.33c0-1.37-.65-1.81-1.48-1.81-.91,0-1.45.66-1.45,1.81s.63,1.84,1.54,1.84c.75,0,1.39-.47,1.39-1.84Z"/>
    <path class="cls-2" d="M64.27,29.17c1.22,0,2.2.96,2.2,2.2s-.99,2.25-2.2,2.25-2.2-.99-2.2-2.25.99-2.2,2.2-2.2ZM64.27,33.28c1.01,0,1.83-.83,1.83-1.9s-.82-1.85-1.83-1.85-1.83.8-1.83,1.85.82,1.9,1.83,1.9Z"/>
    <path class="cls-2" d="M69.94,30.93h.28v-.14c0-.94-.48-1.27-1.16-1.27-.74,0-1.22.41-1.22.41l-.2-.29s.51-.47,1.44-.47c.98,0,1.5.54,1.5,1.61v2.75h-.36v-.56c0-.23.03-.38.03-.38h-.02s-.38,1.04-1.49,1.04c-.69,0-1.44-.38-1.44-1.23,0-1.44,1.88-1.46,2.63-1.46ZM68.76,33.29c.93,0,1.45-.96,1.45-1.8v-.23h-.27c-.72,0-2.27,0-2.27,1.1,0,.45.37.93,1.09.93Z"/>
    <path class="cls-2" d="M71.97,27.57h.36v4.98c0,.59.31.66.5.66.07,0,.13,0,.13,0v.33s-.08.02-.15.02c-.25,0-.83-.09-.83-.89v-5.09Z"/>
    <path class="cls-2" d="M73.83,32.74s.48.54,1.32.54c.52,0,.98-.27.98-.8,0-1.08-2.34-.77-2.34-2.16,0-.76.64-1.15,1.36-1.15.87,0,1.26.46,1.26.46l-.21.29s-.35-.4-1.07-.4c-.48,0-.96.22-.96.77,0,1.1,2.34.77,2.34,2.18,0,.68-.58,1.15-1.36,1.15-1.03,0-1.54-.61-1.54-.61l.23-.27Z"/>
    <path class="cls-2" d="M77.76,33h.48l-.57,1.32h-.36l.45-1.32Z"/>
    <path class="cls-2" d="M83.7,29.17c1.07,0,1.47.96,1.47.96h.02s-.03-.15-.03-.35v-2.21h.36v5.95h-.36v-.54c0-.2.03-.32.03-.32h-.02s-.37.96-1.54.96-1.84-.91-1.84-2.23.79-2.23,1.9-2.23ZM83.65,33.28c.78,0,1.51-.55,1.51-1.89,0-.94-.48-1.87-1.48-1.87-.83,0-1.51.69-1.51,1.88s.61,1.88,1.48,1.88Z"/>
    <path class="cls-2" d="M88.77,29.17c1.16,0,1.73.91,1.73,1.94,0,.09-.02.23-.02.23h-3.41c0,1.23.83,1.94,1.82,1.94.82,0,1.32-.54,1.32-.54l.2.3s-.59.59-1.51.59c-1.2,0-2.19-.87-2.19-2.22,0-1.44.98-2.24,2.06-2.24ZM90.13,31.01c-.04-1.04-.66-1.5-1.37-1.5-.78,0-1.5.51-1.66,1.5h3.03Z"/>
    <path class="cls-2" d="M91.71,29.27h.36v.75c0,.2-.03.35-.03.35h.02c.21-.64.97-1.2,1.63-1.2.85,0,1.25.4,1.34,1.16h.02c.24-.6.88-1.16,1.61-1.16,1.1,0,1.42.65,1.42,1.66v2.69h-.36v-2.57c0-.8-.16-1.45-1.06-1.45-.71,0-1.31.63-1.5,1.29-.06.2-.08.41-.08.65v2.07h-.36v-2.57c0-.73-.1-1.45-1.04-1.45-.76,0-1.35.66-1.55,1.37-.05.18-.07.37-.07.58v2.07h-.36v-4.25Z"/>
    <path class="cls-2" d="M101.4,29.17c1.21,0,2.2.96,2.2,2.2s-.99,2.25-2.2,2.25-2.2-.99-2.2-2.25.99-2.2,2.2-2.2ZM101.4,33.28c1.01,0,1.83-.83,1.83-1.9s-.82-1.85-1.83-1.85-1.83.8-1.83,1.85.82,1.9,1.83,1.9Z"/>
    <path class="cls-2" d="M104.78,29.27h.36v.75c0,.2-.03.35-.03.35h.02c.14-.4.74-1.2,1.8-1.2s1.4.65,1.4,1.66v2.69h-.36v-2.57c0-.74-.09-1.44-1.05-1.44-.8,0-1.5.56-1.72,1.35-.05.18-.07.37-.07.58v2.07h-.36v-4.25Z"/>
    <path class="cls-2" d="M109.62,32.74s.48.54,1.32.54c.52,0,.98-.27.98-.8,0-1.08-2.34-.77-2.34-2.16,0-.76.64-1.15,1.36-1.15.87,0,1.26.46,1.26.46l-.21.29s-.35-.4-1.07-.4c-.48,0-.96.22-.96.77,0,1.1,2.34.77,2.34,2.18,0,.68-.58,1.15-1.36,1.15-1.03,0-1.54-.61-1.54-.61l.23-.27Z"/>
    <path class="cls-2" d="M113.6,29.62h-.56v-.32h.56v-1.21h.36v1.21h1.11v.32h-1.11v2.34c0,1.12.67,1.27,1.01,1.27.12,0,.2-.02.2-.02v.33s-.08.02-.21.02c-.44,0-1.35-.16-1.35-1.57v-2.36Z"/>
    <path class="cls-2" d="M116.13,29.27h.36v.81c0,.2-.03.35-.03.35h.02c.21-.65.69-1.19,1.36-1.19.13,0,.25.03.25.03v.36s-.1-.02-.2-.02c-.66,0-1.08.56-1.27,1.19-.09.3-.13.61-.13.89v1.84h-.36v-4.25Z"/>
    <path class="cls-2" d="M121.29,30.93h.28v-.14c0-.94-.48-1.27-1.16-1.27-.74,0-1.21.41-1.21.41l-.2-.29s.51-.47,1.44-.47c.98,0,1.5.54,1.5,1.61v2.75h-.36v-.56c0-.23.03-.38.03-.38h-.02s-.38,1.04-1.49,1.04c-.69,0-1.45-.38-1.45-1.23,0-1.44,1.88-1.46,2.63-1.46ZM120.12,33.29c.93,0,1.45-.96,1.45-1.8v-.23h-.27c-.72,0-2.27,0-2.27,1.1,0,.45.37.93,1.09.93Z"/>
    <path class="cls-2" d="M123.49,29.62h-.56v-.32h.56v-1.21h.36v1.21h1.11v.32h-1.11v2.34c0,1.12.67,1.27,1.01,1.27.12,0,.2-.02.2-.02v.33s-.08.02-.21.02c-.44,0-1.35-.16-1.35-1.57v-2.36Z"/>
    <path class="cls-2" d="M125.99,27.57h.42v.62h-.42v-.62ZM126.02,29.27h.36v4.25h-.36v-4.25Z"/>
    <path class="cls-2" d="M127.87,29.27h.36v.75c0,.2-.03.35-.03.35h.02c.14-.4.74-1.2,1.8-1.2s1.4.65,1.4,1.66v2.69h-.36v-2.57c0-.74-.09-1.44-1.05-1.44-.8,0-1.5.56-1.72,1.35-.05.18-.07.37-.07.58v2.07h-.36v-4.25Z"/>
    <path class="cls-2" d="M134.26,34.96c.91,0,1.61-.43,1.61-1.46v-.49c0-.2.03-.35.03-.35h-.02c-.25.52-.72.87-1.43.87-1.11,0-1.89-.87-1.89-2.19s.72-2.16,1.83-2.16c1.21,0,1.48.83,1.48.83h.02s-.03-.06-.03-.16v-.57h.36v4.22c0,1.3-.94,1.81-1.95,1.81-.47,0-.92-.12-1.33-.33l.17-.31s.53.3,1.14.3ZM135.88,31.33c0-1.37-.65-1.81-1.48-1.81-.91,0-1.45.66-1.45,1.81s.63,1.84,1.54,1.84c.75,0,1.39-.47,1.39-1.84Z"/>
    <path class="cls-2" d="M142.36,30.93h.28v-.14c0-.94-.48-1.27-1.16-1.27-.74,0-1.21.41-1.21.41l-.2-.29s.51-.47,1.44-.47c.98,0,1.5.54,1.5,1.61v2.75h-.36v-.56c0-.23.03-.38.03-.38h-.02s-.38,1.04-1.49,1.04c-.69,0-1.45-.38-1.45-1.23,0-1.44,1.88-1.46,2.63-1.46ZM141.19,33.29c.93,0,1.45-.96,1.45-1.8v-.23h-.27c-.72,0-2.27,0-2.27,1.1,0,.45.37.93,1.09.93Z"/>
  </g>
  <g>
    <path class="cls-2" d="M.75,41.28h.36v.51c0,.2-.03.34-.03.34h.02s.35-.95,1.53-.95,1.83.91,1.83,2.23-.79,2.23-1.89,2.23-1.49-.96-1.49-.96h-.02s.03.15.03.37v2.18h-.36v-5.95ZM2.58,45.28c.83,0,1.51-.69,1.51-1.88s-.61-1.88-1.48-1.88c-.78,0-1.51.55-1.51,1.89,0,.94.53,1.87,1.48,1.87Z"/>
    <path class="cls-2" d="M5.67,41.28h.36v.81c0,.2-.03.35-.03.35h.02c.21-.65.69-1.19,1.36-1.19.13,0,.25.03.25.03v.36s-.1-.02-.2-.02c-.66,0-1.08.56-1.27,1.19-.09.3-.13.61-.13.89v1.84h-.36v-4.25Z"/>
    <path class="cls-2" d="M10.34,41.17c1.21,0,2.2.96,2.2,2.2s-.99,2.25-2.2,2.25-2.2-.99-2.2-2.25.99-2.2,2.2-2.2ZM10.34,45.28c1.01,0,1.83-.83,1.83-1.9s-.82-1.85-1.83-1.85-1.83.8-1.83,1.85.82,1.9,1.83,1.9Z"/>
    <path class="cls-2" d="M16.29,41.6h-2.06v3.93h-.36v-3.93h-.54v-.32h.54v-.17c0-1.4.92-1.57,1.34-1.57.14,0,.22.02.22.02v.33s-.08-.02-.2-.02c-.34,0-1.01.14-1.01,1.23v.18h2.41v4.25h-.36v-3.93ZM16.26,39.58h.42v.62h-.42v-.62Z"/>
    <path class="cls-2" d="M18.28,41.62h-.56v-.32h.56v-1.21h.36v1.21h1.11v.32h-1.11v2.34c0,1.12.67,1.27,1.01,1.27.12,0,.2-.02.2-.02v.33s-.08.02-.21.02c-.44,0-1.35-.16-1.35-1.57v-2.36Z"/>
    <path class="cls-2" d="M25.46,42.93h.28v-.14c0-.94-.48-1.27-1.16-1.27-.74,0-1.21.41-1.21.41l-.2-.29s.51-.47,1.44-.47c.98,0,1.5.54,1.5,1.61v2.75h-.36v-.56c0-.23.03-.38.03-.38h-.02s-.38,1.04-1.49,1.04c-.69,0-1.45-.38-1.45-1.23,0-1.44,1.88-1.46,2.63-1.46ZM24.28,45.3c.93,0,1.45-.96,1.45-1.8v-.23h-.27c-.72,0-2.27,0-2.27,1.1,0,.45.37.93,1.09.93Z"/>
    <path class="cls-2" d="M27.53,41.28h.36v.75c0,.2-.03.35-.03.35h.02c.14-.4.74-1.2,1.8-1.2s1.4.65,1.4,1.66v2.69h-.36v-2.57c0-.74-.09-1.44-1.05-1.44-.8,0-1.5.56-1.72,1.35-.05.18-.07.37-.07.58v2.07h-.36v-4.25Z"/>
    <path class="cls-2" d="M34.14,41.17c1.07,0,1.47.96,1.47.96h.02s-.03-.15-.03-.35v-2.21h.36v5.95h-.36v-.54c0-.2.03-.32.03-.32h-.02s-.37.96-1.54.96-1.84-.91-1.84-2.23.79-2.23,1.9-2.23ZM34.08,45.28c.78,0,1.51-.55,1.51-1.89,0-.94-.48-1.87-1.48-1.87-.83,0-1.51.69-1.51,1.88s.61,1.88,1.48,1.88Z"/>
    <path class="cls-2" d="M41.69,41.17c1.01,0,1.52.6,1.52.6l-.22.29s-.48-.54-1.3-.54c-.99,0-1.82.74-1.82,1.89s.82,1.87,1.82,1.87c.94,0,1.42-.61,1.42-.61l.19.3s-.55.66-1.61.66c-1.2,0-2.19-.87-2.19-2.22s1.01-2.24,2.19-2.24Z"/>
    <path class="cls-2" d="M46.35,41.17c1.22,0,2.2.96,2.2,2.2s-.99,2.25-2.2,2.25-2.2-.99-2.2-2.25.99-2.2,2.2-2.2ZM46.35,45.28c1.01,0,1.83-.83,1.83-1.9s-.82-1.85-1.83-1.85-1.83.8-1.83,1.85.82,1.9,1.83,1.9Z"/>
    <path class="cls-2" d="M49.6,44.74s.48.54,1.32.54c.52,0,.98-.27.98-.8,0-1.08-2.34-.77-2.34-2.16,0-.76.64-1.15,1.36-1.15.87,0,1.26.46,1.26.46l-.21.29s-.35-.4-1.07-.4c-.48,0-.96.22-.96.77,0,1.1,2.34.77,2.34,2.18,0,.68-.58,1.15-1.36,1.15-1.03,0-1.54-.61-1.54-.61l.23-.27Z"/>
    <path class="cls-2" d="M53.58,41.62h-.56v-.32h.56v-1.21h.36v1.21h1.11v.32h-1.11v2.34c0,1.12.67,1.27,1.01,1.27.12,0,.2-.02.2-.02v.33s-.08.02-.21.02c-.44,0-1.35-.16-1.35-1.57v-2.36Z"/>
    <path class="cls-2" d="M55.7,42.95h2.35v.34h-2.35v-.34Z"/>
    <path class="cls-2" d="M61.03,41.17c1.01,0,1.52.6,1.52.6l-.22.29s-.48-.54-1.3-.54c-.99,0-1.82.74-1.82,1.89s.83,1.87,1.82,1.87c.93,0,1.42-.61,1.42-.61l.19.3s-.55.66-1.61.66c-1.2,0-2.19-.87-2.19-2.22s1.01-2.24,2.19-2.24Z"/>
    <path class="cls-2" d="M65.68,41.17c1.21,0,2.2.96,2.2,2.2s-.99,2.25-2.2,2.25-2.2-.99-2.2-2.25.99-2.2,2.2-2.2ZM65.68,45.28c1.01,0,1.83-.83,1.83-1.9s-.82-1.85-1.83-1.85-1.83.8-1.83,1.85.82,1.9,1.83,1.9Z"/>
    <path class="cls-2" d="M69.06,41.28h.36v.75c0,.2-.03.35-.03.35h.02c.14-.4.74-1.2,1.8-1.2s1.4.65,1.4,1.66v2.69h-.36v-2.57c0-.74-.09-1.44-1.05-1.44-.8,0-1.5.56-1.72,1.35-.05.18-.07.37-.07.58v2.07h-.36v-4.25Z"/>
    <path class="cls-2" d="M73.91,44.74s.48.54,1.32.54c.52,0,.98-.27.98-.8,0-1.08-2.34-.77-2.34-2.16,0-.76.64-1.15,1.36-1.15.87,0,1.26.46,1.26.46l-.21.29s-.35-.4-1.07-.4c-.48,0-.96.22-.96.77,0,1.1,2.34.77,2.34,2.18,0,.68-.58,1.15-1.36,1.15-1.03,0-1.54-.61-1.54-.61l.23-.27Z"/>
    <path class="cls-2" d="M79.64,41.17c1.01,0,1.52.6,1.52.6l-.22.29s-.48-.54-1.3-.54c-.99,0-1.82.74-1.82,1.89s.82,1.87,1.82,1.87c.94,0,1.42-.61,1.42-.61l.19.3s-.55.66-1.61.66c-1.2,0-2.19-.87-2.19-2.22s1.01-2.24,2.19-2.24Z"/>
    <path class="cls-2" d="M82.4,39.58h.42v.62h-.42v-.62ZM82.43,41.28h.36v4.25h-.36v-4.25Z"/>
    <path class="cls-2" d="M86.17,41.17c1.21,0,2.2.96,2.2,2.2s-.99,2.25-2.2,2.25-2.2-.99-2.2-2.25.99-2.2,2.2-2.2ZM86.17,45.28c1.01,0,1.83-.83,1.83-1.9s-.82-1.85-1.83-1.85-1.83.8-1.83,1.85.82,1.9,1.83,1.9Z"/>
    <path class="cls-2" d="M89.5,41.28h.36v2.57c0,.74.09,1.44,1.04,1.44,1.06,0,1.74-.94,1.74-1.93v-2.07h.36v4.25h-.36v-.75c0-.2.03-.35.03-.35h-.02c-.14.4-.73,1.2-1.76,1.2s-1.4-.58-1.4-1.66v-2.69Z"/>
    <path class="cls-2" d="M94.36,44.74s.48.54,1.32.54c.52,0,.98-.27.98-.8,0-1.08-2.34-.77-2.34-2.16,0-.76.64-1.15,1.36-1.15.87,0,1.26.46,1.26.46l-.21.29s-.35-.4-1.07-.4c-.48,0-.96.22-.96.77,0,1.1,2.34.77,2.34,2.18,0,.68-.58,1.15-1.36,1.15-1.03,0-1.54-.61-1.54-.61l.23-.27Z"/>
    <path class="cls-2" d="M102.84,42.93h.28v-.14c0-.94-.48-1.27-1.16-1.27-.74,0-1.21.41-1.21.41l-.2-.29s.51-.47,1.44-.47c.98,0,1.5.54,1.5,1.61v2.75h-.36v-.56c0-.23.03-.38.03-.38h-.02s-.38,1.04-1.49,1.04c-.69,0-1.45-.38-1.45-1.23,0-1.44,1.88-1.46,2.63-1.46ZM101.67,45.3c.93,0,1.45-.96,1.45-1.8v-.23h-.27c-.72,0-2.27,0-2.27,1.1,0,.45.37.93,1.09.93Z"/>
    <path class="cls-2" d="M104.91,41.28h.36v.51c0,.2-.03.34-.03.34h.02s.35-.95,1.53-.95,1.83.91,1.83,2.23-.79,2.23-1.89,2.23-1.49-.96-1.49-.96h-.02s.03.15.03.37v2.18h-.36v-5.95ZM106.74,45.28c.83,0,1.51-.69,1.51-1.88s-.61-1.88-1.48-1.88c-.78,0-1.51.55-1.51,1.89,0,.94.53,1.87,1.48,1.87Z"/>
    <path class="cls-2" d="M109.84,41.28h.36v.51c0,.2-.03.34-.03.34h.02s.35-.95,1.53-.95,1.84.91,1.84,2.23-.79,2.23-1.89,2.23-1.49-.96-1.49-.96h-.02s.03.15.03.37v2.18h-.36v-5.95ZM111.66,45.28c.83,0,1.51-.69,1.51-1.88s-.61-1.88-1.48-1.88c-.78,0-1.51.55-1.51,1.89,0,.94.53,1.87,1.48,1.87Z"/>
    <path class="cls-2" d="M114.76,41.28h.36v.81c0,.2-.03.35-.03.35h.02c.21-.65.69-1.19,1.36-1.19.13,0,.25.03.25.03v.36s-.1-.02-.2-.02c-.66,0-1.08.56-1.27,1.19-.09.3-.13.61-.13.89v1.84h-.36v-4.25Z"/>
    <path class="cls-2" d="M119.42,41.17c1.21,0,2.2.96,2.2,2.2s-.99,2.25-2.2,2.25-2.2-.99-2.2-2.25.99-2.2,2.2-2.2ZM119.42,45.28c1.01,0,1.83-.83,1.83-1.9s-.82-1.85-1.83-1.85-1.83.8-1.83,1.85.82,1.9,1.83,1.9Z"/>
    <path class="cls-2" d="M125.08,42.93h.28v-.14c0-.94-.48-1.27-1.16-1.27-.74,0-1.21.41-1.21.41l-.2-.29s.51-.47,1.44-.47c.98,0,1.5.54,1.5,1.61v2.75h-.36v-.56c0-.23.03-.38.03-.38h-.02s-.38,1.04-1.49,1.04c-.69,0-1.45-.38-1.45-1.23,0-1.44,1.88-1.46,2.63-1.46ZM123.91,45.3c.93,0,1.45-.96,1.45-1.8v-.23h-.27c-.72,0-2.27,0-2.27,1.1,0,.45.37.93,1.09.93Z"/>
    <path class="cls-2" d="M129.05,41.17c1.01,0,1.52.6,1.52.6l-.22.29s-.48-.54-1.3-.54c-.99,0-1.82.74-1.82,1.89s.83,1.87,1.82,1.87c.93,0,1.42-.61,1.42-.61l.19.3s-.55.66-1.61.66c-1.2,0-2.19-.87-2.19-2.22s1.01-2.24,2.19-2.24Z"/>
    <path class="cls-2" d="M131.84,39.58h.36v2.45c0,.2-.03.35-.03.35h.02c.14-.4.74-1.2,1.8-1.2s1.4.65,1.4,1.66v2.69h-.36v-2.57c0-.74-.09-1.44-1.04-1.44-.8,0-1.5.56-1.72,1.35-.05.18-.07.37-.07.58v2.07h-.36v-5.95Z"/>
    <path class="cls-2" d="M141.46,42.93h.28v-.14c0-.94-.48-1.27-1.16-1.27-.74,0-1.21.41-1.21.41l-.2-.29s.51-.47,1.44-.47c.98,0,1.5.54,1.5,1.61v2.75h-.36v-.56c0-.23.03-.38.03-.38h-.02s-.38,1.04-1.49,1.04c-.69,0-1.45-.38-1.45-1.23,0-1.44,1.88-1.46,2.63-1.46ZM140.29,45.3c.93,0,1.45-.96,1.45-1.8v-.23h-.27c-.72,0-2.27,0-2.27,1.1,0,.45.37.93,1.09.93Z"/>
    <path class="cls-2" d="M143.54,41.28h.36v.75c0,.2-.03.35-.03.35h.02c.14-.4.74-1.2,1.8-1.2s1.4.65,1.4,1.66v2.69h-.36v-2.57c0-.74-.09-1.44-1.05-1.44-.8,0-1.5.56-1.72,1.35-.05.18-.07.37-.07.58v2.07h-.36v-4.25Z"/>
    <path class="cls-2" d="M150.14,41.17c1.07,0,1.47.96,1.47.96h.02s-.03-.15-.03-.35v-2.21h.36v5.95h-.36v-.54c0-.2.03-.32.03-.32h-.02s-.37.96-1.54.96-1.84-.91-1.84-2.23.79-2.23,1.9-2.23ZM150.09,45.28c.78,0,1.51-.55,1.51-1.89,0-.94-.48-1.87-1.48-1.87-.83,0-1.51.69-1.51,1.88s.61,1.88,1.48,1.88Z"/>
  </g>
  <g>
    <path class="cls-2" d="M3.03,54.94h.28v-.14c0-.94-.48-1.27-1.16-1.27-.74,0-1.21.41-1.21.41l-.2-.29s.51-.47,1.44-.47c.98,0,1.5.54,1.5,1.61v2.75h-.36v-.56c0-.23.03-.38.03-.38h-.02s-.38,1.04-1.49,1.04c-.69,0-1.45-.38-1.45-1.23,0-1.44,1.88-1.46,2.63-1.46ZM1.86,57.3c.93,0,1.45-.96,1.45-1.8v-.23h-.27c-.72,0-2.27,0-2.27,1.1,0,.45.37.93,1.09.93Z"/>
    <path class="cls-2" d="M7.63,51.51h.33l-.3,1.28h-.44l.41-1.28Z"/>
    <path class="cls-2" d="M11.01,53.18c1.01,0,1.52.6,1.52.6l-.22.29s-.48-.54-1.3-.54c-.99,0-1.82.74-1.82,1.89s.82,1.87,1.82,1.87c.94,0,1.42-.61,1.42-.61l.19.3s-.55.66-1.61.66c-1.2,0-2.19-.87-2.19-2.22s1.01-2.24,2.19-2.24Z"/>
    <path class="cls-2" d="M16.08,54.94h.28v-.14c0-.94-.48-1.27-1.16-1.27-.74,0-1.22.41-1.22.41l-.2-.29s.51-.47,1.44-.47c.98,0,1.5.54,1.5,1.61v2.75h-.36v-.56c0-.23.03-.38.03-.38h-.02s-.38,1.04-1.49,1.04c-.69,0-1.44-.38-1.44-1.23,0-1.44,1.88-1.46,2.63-1.46ZM14.91,57.3c.93,0,1.45-.96,1.45-1.8v-.23h-.27c-.72,0-2.27,0-2.27,1.1,0,.45.37.93,1.09.93Z"/>
    <path class="cls-2" d="M18.16,53.28h.36v.75c0,.2-.03.35-.03.35h.02c.14-.4.74-1.2,1.8-1.2s1.4.65,1.4,1.66v2.69h-.36v-2.57c0-.74-.09-1.44-1.04-1.44-.8,0-1.5.56-1.72,1.35-.05.18-.07.37-.07.58v2.07h-.36v-4.25Z"/>
    <path class="cls-2" d="M27.11,53.18c1.07,0,1.47.96,1.47.96h.02s-.03-.15-.03-.35v-2.21h.36v5.95h-.36v-.54c0-.2.03-.32.03-.32h-.02s-.37.96-1.54.96-1.84-.91-1.84-2.23.79-2.23,1.9-2.23ZM27.06,57.28c.78,0,1.51-.55,1.51-1.89,0-.94-.48-1.87-1.48-1.87-.83,0-1.51.69-1.51,1.88s.61,1.88,1.48,1.88Z"/>
    <path class="cls-2" d="M32.31,53.18c1.22,0,2.2.96,2.2,2.2s-.99,2.25-2.2,2.25-2.2-.99-2.2-2.25.99-2.2,2.2-2.2ZM32.31,57.28c1.01,0,1.83-.83,1.83-1.9s-.82-1.85-1.83-1.85-1.83.8-1.83,1.85.82,1.9,1.83,1.9Z"/>
    <path class="cls-2" d="M35.78,51.51h.44l-.41,1.28h-.33l.3-1.28Z"/>
    <path class="cls-2" d="M42.01,54.94h.28v-.14c0-.94-.48-1.27-1.16-1.27-.74,0-1.21.41-1.21.41l-.2-.29s.51-.47,1.44-.47c.98,0,1.5.54,1.5,1.61v2.75h-.36v-.56c0-.23.03-.38.03-.38h-.02s-.38,1.04-1.49,1.04c-.69,0-1.45-.38-1.45-1.23,0-1.44,1.88-1.46,2.63-1.46ZM40.83,57.3c.93,0,1.45-.96,1.45-1.8v-.23h-.27c-.72,0-2.27,0-2.27,1.1,0,.45.37.93,1.09.93Z"/>
    <path class="cls-2" d="M44.2,53.63h-.56v-.32h.56v-1.21h.36v1.21h1.11v.32h-1.11v2.34c0,1.12.67,1.27,1.01,1.27.12,0,.2-.02.2-.02v.33s-.08.02-.21.02c-.44,0-1.35-.16-1.35-1.57v-2.36Z"/>
    <path class="cls-2" d="M46.87,53.63h-.56v-.32h.56v-1.21h.36v1.21h1.11v.32h-1.11v2.34c0,1.12.67,1.27,1.01,1.27.12,0,.2-.02.2-.02v.33s-.08.02-.21.02c-.44,0-1.35-.16-1.35-1.57v-2.36Z"/>
    <path class="cls-2" d="M49.37,51.58h.42v.62h-.42v-.62ZM49.4,53.28h.36v4.25h-.36v-4.25Z"/>
    <path class="cls-2" d="M51.39,53.63h-.56v-.32h.56v-1.21h.36v1.21h1.11v.32h-1.11v2.34c0,1.12.67,1.27,1.01,1.27.12,0,.2-.02.2-.02v.33s-.08.02-.21.02c-.44,0-1.35-.16-1.35-1.57v-2.36Z"/>
    <path class="cls-2" d="M53.86,53.28h.36v2.57c0,.74.09,1.44,1.04,1.44,1.06,0,1.74-.94,1.74-1.93v-2.07h.36v4.25h-.36v-.75c0-.2.03-.35.03-.35h-.02c-.14.4-.73,1.2-1.76,1.2s-1.4-.58-1.4-1.66v-2.69Z"/>
    <path class="cls-2" d="M60.48,53.18c1.07,0,1.47.96,1.47.96h.02s-.03-.15-.03-.35v-2.21h.36v5.95h-.36v-.54c0-.2.03-.32.03-.32h-.02s-.37.96-1.54.96-1.84-.91-1.84-2.23.79-2.23,1.9-2.23ZM60.43,57.28c.78,0,1.51-.55,1.51-1.89,0-.94-.48-1.87-1.48-1.87-.83,0-1.51.69-1.51,1.88s.61,1.88,1.48,1.88Z"/>
    <path class="cls-2" d="M65.56,53.18c1.16,0,1.73.91,1.73,1.94,0,.09-.02.23-.02.23h-3.41c0,1.23.83,1.94,1.82,1.94.82,0,1.32-.54,1.32-.54l.2.3s-.59.59-1.51.59c-1.2,0-2.19-.87-2.19-2.22,0-1.44.98-2.24,2.06-2.24ZM66.92,55.01c-.04-1.04-.66-1.5-1.37-1.5-.78,0-1.5.51-1.66,1.5h3.03Z"/>
  </g>
  <g>
    <path class="cls-2" d="M.92,118.27h2c.87,0,1.5.58,1.5,1.49,0,.65-.31,1.08-.77,1.3v.02c.59.16,1.01.74,1.01,1.5,0,1-.71,1.64-1.66,1.64H.92v-5.95ZM2.91,120.92c.66,0,1.13-.46,1.13-1.16s-.44-1.15-1.14-1.15h-1.62v2.31h1.62ZM2.97,123.88c.8,0,1.31-.49,1.31-1.3s-.55-1.32-1.32-1.32h-1.67v2.62h1.68Z"/>
    <path class="cls-2" d="M7.78,119.87c1.16,0,1.73.91,1.73,1.94,0,.09-.02.23-.02.23h-3.41c0,1.23.83,1.94,1.82,1.94.82,0,1.32-.54,1.32-.54l.2.3s-.6.59-1.51.59c-1.2,0-2.19-.87-2.19-2.22,0-1.44.98-2.24,2.07-2.24ZM9.14,121.7c-.04-1.04-.66-1.5-1.37-1.5-.78,0-1.5.51-1.66,1.5h3.03Z"/>
    <path class="cls-2" d="M14.96,119.87c1.01,0,1.52.6,1.52.6l-.22.29s-.48-.54-1.3-.54c-.99,0-1.82.74-1.82,1.89s.83,1.87,1.82,1.87c.93,0,1.42-.61,1.42-.61l.19.3s-.55.66-1.61.66c-1.2,0-2.19-.87-2.19-2.22s1.01-2.24,2.19-2.24Z"/>
    <path class="cls-2" d="M19.62,119.87c1.21,0,2.2.96,2.2,2.2s-.99,2.25-2.2,2.25-2.2-.99-2.2-2.25.99-2.2,2.2-2.2ZM19.62,123.97c1.01,0,1.83-.83,1.83-1.9s-.82-1.85-1.83-1.85-1.83.8-1.83,1.85.82,1.9,1.83,1.9Z"/>
    <path class="cls-2" d="M23,119.97h.36v.75c0,.2-.03.35-.03.35h.02c.21-.64.97-1.2,1.63-1.2.85,0,1.25.4,1.34,1.16h.02c.24-.6.88-1.16,1.62-1.16,1.1,0,1.42.65,1.42,1.66v2.69h-.36v-2.57c0-.8-.16-1.45-1.06-1.45-.71,0-1.31.63-1.5,1.29-.06.2-.08.41-.08.65v2.07h-.36v-2.57c0-.73-.1-1.45-1.04-1.45-.76,0-1.35.66-1.55,1.37-.05.18-.07.37-.07.58v2.07h-.36v-4.25Z"/>
    <path class="cls-2" d="M30.8,119.97h.36v.51c0,.2-.03.34-.03.34h.02s.35-.95,1.53-.95,1.83.91,1.83,2.23-.79,2.23-1.89,2.23-1.49-.96-1.49-.96h-.02s.03.15.03.37v2.18h-.36v-5.95ZM32.63,123.97c.83,0,1.51-.69,1.51-1.88s-.61-1.88-1.48-1.88c-.78,0-1.51.55-1.51,1.89,0,.94.53,1.87,1.48,1.87Z"/>
    <path class="cls-2" d="M38.01,121.63h.28v-.14c0-.94-.48-1.27-1.16-1.27-.74,0-1.22.41-1.22.41l-.2-.29s.51-.47,1.44-.47c.98,0,1.5.54,1.5,1.61v2.75h-.36v-.56c0-.23.03-.38.03-.38h-.02s-.38,1.04-1.49,1.04c-.69,0-1.44-.38-1.44-1.23,0-1.44,1.88-1.46,2.63-1.46ZM36.84,123.99c.93,0,1.45-.96,1.45-1.8v-.23h-.27c-.72,0-2.27,0-2.27,1.1,0,.45.37.93,1.09.93Z"/>
    <path class="cls-2" d="M39.95,123.44s.48.54,1.32.54c.52,0,.98-.27.98-.8,0-1.08-2.34-.77-2.34-2.16,0-.76.64-1.15,1.36-1.15.87,0,1.26.46,1.26.46l-.21.29s-.35-.4-1.07-.4c-.48,0-.96.22-.96.77,0,1.1,2.34.77,2.34,2.18,0,.68-.58,1.15-1.36,1.15-1.03,0-1.54-.61-1.54-.61l.23-.27Z"/>
    <path class="cls-2" d="M43.66,123.44s.48.54,1.32.54c.52,0,.98-.27.98-.8,0-1.08-2.34-.77-2.34-2.16,0-.76.64-1.15,1.36-1.15.87,0,1.26.46,1.26.46l-.21.29s-.35-.4-1.07-.4c-.48,0-.96.22-.96.77,0,1.1,2.34.77,2.34,2.18,0,.68-.58,1.15-1.36,1.15-1.03,0-1.54-.61-1.54-.61l.23-.27Z"/>
    <path class="cls-2" d="M47.46,118.27h.42v.62h-.42v-.62ZM47.5,119.97h.36v4.25h-.36v-4.25Z"/>
    <path class="cls-2" d="M51.24,119.87c1.21,0,2.2.96,2.2,2.2s-.99,2.25-2.2,2.25-2.2-.99-2.2-2.25.99-2.2,2.2-2.2ZM51.24,123.97c1.01,0,1.83-.83,1.83-1.9s-.82-1.85-1.83-1.85-1.83.8-1.83,1.85.82,1.9,1.83,1.9Z"/>
    <path class="cls-2" d="M54.62,119.97h.36v.75c0,.2-.03.35-.03.35h.02c.14-.4.74-1.2,1.8-1.2s1.4.65,1.4,1.66v2.69h-.36v-2.57c0-.74-.09-1.44-1.05-1.44-.8,0-1.5.56-1.72,1.35-.05.18-.07.37-.07.58v2.07h-.36v-4.25Z"/>
    <path class="cls-2" d="M61.89,121.63h.28v-.14c0-.94-.48-1.27-1.16-1.27-.74,0-1.22.41-1.22.41l-.2-.29s.51-.47,1.44-.47c.98,0,1.5.54,1.5,1.61v2.75h-.36v-.56c0-.23.03-.38.03-.38h-.02s-.38,1.04-1.49,1.04c-.69,0-1.44-.38-1.44-1.23,0-1.44,1.88-1.46,2.63-1.46ZM60.71,123.99c.93,0,1.45-.96,1.45-1.8v-.23h-.27c-.72,0-2.27,0-2.27,1.1,0,.45.37.93,1.09.93Z"/>
    <path class="cls-2" d="M64.08,120.32h-.56v-.32h.56v-1.21h.36v1.21h1.11v.32h-1.11v2.34c0,1.12.67,1.27,1.01,1.27.12,0,.2-.02.2-.02v.33s-.08.02-.21.02c-.44,0-1.35-.16-1.35-1.57v-2.36Z"/>
    <path class="cls-2" d="M68.38,119.87c1.16,0,1.73.91,1.73,1.94,0,.09-.02.23-.02.23h-3.41c0,1.23.83,1.94,1.82,1.94.82,0,1.32-.54,1.32-.54l.2.3s-.59.59-1.51.59c-1.2,0-2.19-.87-2.19-2.22,0-1.44.98-2.24,2.06-2.24ZM69.74,121.7c-.04-1.04-.66-1.5-1.37-1.5-.78,0-1.5.51-1.66,1.5h3.03Z"/>
    <path class="cls-2" d="M73.1,119.97h.38l1.16,3.33c.07.2.14.46.14.46h.02s.08-.25.14-.46l1.16-3.31h.4l1.17,3.31c.07.2.14.46.14.46h.02s.07-.25.14-.46l1.16-3.33h.38l-1.5,4.25h-.38l-1.18-3.3c-.08-.2-.14-.46-.14-.46h-.02s-.07.25-.14.46l-1.17,3.3h-.38l-1.5-4.25Z"/>
    <path class="cls-2" d="M80.44,118.27h.36v2.45c0,.2-.03.35-.03.35h.02c.14-.4.74-1.2,1.8-1.2s1.4.65,1.4,1.66v2.69h-.36v-2.57c0-.74-.09-1.44-1.04-1.44-.8,0-1.5.56-1.72,1.35-.05.18-.07.37-.07.58v2.07h-.36v-5.95Z"/>
    <path class="cls-2" d="M85.39,118.27h.42v.62h-.42v-.62ZM85.42,119.97h.36v4.25h-.36v-4.25Z"/>
    <path class="cls-2" d="M87.23,118.27h.36v4.98c0,.59.31.66.5.66.07,0,.13,0,.13,0v.33s-.08.02-.15.02c-.25,0-.83-.09-.83-.89v-5.09Z"/>
    <path class="cls-2" d="M91,119.87c1.16,0,1.73.91,1.73,1.94,0,.09-.02.23-.02.23h-3.41c0,1.23.83,1.94,1.82,1.94.82,0,1.32-.54,1.32-.54l.2.3s-.59.59-1.51.59c-1.2,0-2.19-.87-2.19-2.22,0-1.44.98-2.24,2.06-2.24ZM92.36,121.7c-.04-1.04-.66-1.5-1.37-1.5-.78,0-1.5.51-1.66,1.5h3.03Z"/>
    <path class="cls-2" d="M96.29,118.27h.36v2.21c0,.2-.03.35-.03.35h.02s.37-.96,1.54-.96,1.84.91,1.84,2.23-.79,2.23-1.9,2.23-1.47-.96-1.47-.96h-.02s.03.15.03.37v.48h-.36v-5.95ZM98.11,123.97c.83,0,1.51-.69,1.51-1.88s-.61-1.88-1.48-1.88c-.78,0-1.51.55-1.51,1.89,0,.94.49,1.87,1.48,1.87Z"/>
    <path class="cls-2" d="M101.15,119.97h.36v2.57c0,.74.09,1.44,1.04,1.44,1.06,0,1.74-.94,1.74-1.93v-2.07h.36v4.25h-.36v-.75c0-.2.03-.35.03-.35h-.02c-.14.4-.73,1.2-1.76,1.2s-1.4-.58-1.4-1.66v-2.69Z"/>
    <path class="cls-2" d="M106.11,118.27h.42v.62h-.42v-.62ZM106.15,119.97h.36v4.25h-.36v-4.25Z"/>
    <path class="cls-2" d="M107.96,118.27h.36v4.98c0,.59.31.66.5.66.07,0,.13,0,.13,0v.33s-.08.02-.15.02c-.25,0-.83-.09-.83-.89v-5.09Z"/>
    <path class="cls-2" d="M111.58,119.87c1.07,0,1.47.96,1.47.96h.02s-.03-.15-.03-.35v-2.21h.36v5.95h-.36v-.54c0-.2.03-.32.03-.32h-.02s-.37.96-1.54.96-1.84-.91-1.84-2.23.79-2.23,1.9-2.23ZM111.53,123.97c.78,0,1.51-.55,1.51-1.89,0-.94-.48-1.87-1.48-1.87-.83,0-1.51.69-1.51,1.88s.61,1.88,1.48,1.88Z"/>
    <path class="cls-2" d="M114.85,118.27h.42v.62h-.42v-.62ZM114.88,119.97h.36v4.25h-.36v-4.25Z"/>
    <path class="cls-2" d="M116.74,119.97h.36v.75c0,.2-.03.35-.03.35h.02c.14-.4.74-1.2,1.8-1.2s1.4.65,1.4,1.66v2.69h-.36v-2.57c0-.74-.09-1.44-1.05-1.44-.8,0-1.5.56-1.72,1.35-.05.18-.07.37-.07.58v2.07h-.36v-4.25Z"/>
    <path class="cls-2" d="M123.12,125.65c.91,0,1.61-.43,1.61-1.46v-.49c0-.2.03-.35.03-.35h-.02c-.25.52-.72.87-1.43.87-1.11,0-1.89-.87-1.89-2.19s.72-2.16,1.83-2.16c1.21,0,1.48.83,1.48.83h.02s-.03-.06-.03-.16v-.57h.36v4.22c0,1.3-.94,1.81-1.95,1.81-.47,0-.92-.12-1.33-.33l.17-.31s.53.3,1.14.3ZM124.74,122.03c0-1.37-.65-1.81-1.48-1.81-.91,0-1.45.66-1.45,1.81s.63,1.84,1.54,1.84c.75,0,1.39-.47,1.39-1.84Z"/>
  </g>
  <g>
    <path class="cls-2" d="M.75,131.97h.36v.51c0,.2-.03.34-.03.34h.02s.35-.95,1.53-.95,1.83.91,1.83,2.23-.79,2.23-1.89,2.23-1.49-.96-1.49-.96h-.02s.03.15.03.37v2.18h-.36v-5.95ZM2.58,135.97c.83,0,1.51-.69,1.51-1.88s-.61-1.88-1.48-1.88c-.78,0-1.51.55-1.51,1.89,0,.94.53,1.87,1.48,1.87Z"/>
    <path class="cls-2" d="M5.67,131.97h.36v.81c0,.2-.03.35-.03.35h.02c.21-.65.69-1.19,1.36-1.19.13,0,.25.03.25.03v.36s-.1-.02-.2-.02c-.66,0-1.08.56-1.27,1.19-.09.3-.13.61-.13.89v1.84h-.36v-4.25Z"/>
    <path class="cls-2" d="M10.34,131.87c1.21,0,2.2.96,2.2,2.2s-.99,2.25-2.2,2.25-2.2-.99-2.2-2.25.99-2.2,2.2-2.2ZM10.34,135.97c1.01,0,1.83-.83,1.83-1.9s-.82-1.85-1.83-1.85-1.83.8-1.83,1.85.82,1.9,1.83,1.9Z"/>
    <path class="cls-2" d="M15.34,131.87c1.07,0,1.47.96,1.47.96h.02s-.03-.15-.03-.35v-2.21h.36v5.95h-.36v-.54c0-.2.03-.32.03-.32h-.02s-.37.96-1.54.96-1.84-.91-1.84-2.23.79-2.23,1.9-2.23ZM15.29,135.97c.78,0,1.51-.55,1.51-1.89,0-.94-.48-1.87-1.48-1.87-.83,0-1.51.69-1.51,1.88s.61,1.88,1.48,1.88Z"/>
    <path class="cls-2" d="M18.59,131.97h.36v2.57c0,.74.09,1.44,1.05,1.44,1.06,0,1.74-.94,1.74-1.93v-2.07h.36v4.25h-.36v-.75c0-.2.03-.35.03-.35h-.02c-.14.4-.73,1.2-1.76,1.2s-1.4-.58-1.4-1.66v-2.69Z"/>
    <path class="cls-2" d="M25.48,131.87c1.01,0,1.52.6,1.52.6l-.22.29s-.48-.54-1.3-.54c-.99,0-1.82.74-1.82,1.89s.82,1.87,1.82,1.87c.94,0,1.42-.61,1.42-.61l.19.3s-.55.66-1.61.66c-1.2,0-2.19-.87-2.19-2.22s1.01-2.24,2.19-2.24Z"/>
    <path class="cls-2" d="M28.41,132.32h-.56v-.32h.56v-1.21h.36v1.21h1.11v.32h-1.11v2.34c0,1.12.67,1.27,1.01,1.27.12,0,.2-.02.2-.02v.33s-.08.02-.21.02c-.44,0-1.35-.16-1.35-1.57v-2.36Z"/>
    <path class="cls-2" d="M30.91,130.27h.42v.62h-.42v-.62ZM30.94,131.97h.36v4.25h-.36v-4.25Z"/>
    <path class="cls-2" d="M32.2,131.97h.38l1.31,3.33c.08.2.14.46.14.46h.02s.07-.25.14-.46l1.31-3.33h.37l-1.67,4.25h-.34l-1.67-4.25Z"/>
    <path class="cls-2" d="M38.55,131.87c1.16,0,1.73.91,1.73,1.94,0,.09-.02.23-.02.23h-3.41c0,1.23.83,1.94,1.82,1.94.82,0,1.32-.54,1.32-.54l.2.3s-.6.59-1.51.59c-1.2,0-2.19-.87-2.19-2.22,0-1.44.98-2.24,2.07-2.24ZM39.91,133.7c-.04-1.04-.66-1.5-1.37-1.5-.78,0-1.5.51-1.66,1.5h3.03Z"/>
    <path class="cls-2" d="M41.56,135.7h.48l-.57,1.32h-.36l.45-1.32Z"/>
    <path class="cls-2" d="M45.84,130.27h.36v4.98c0,.59.31.66.5.66.07,0,.13,0,.13,0v.33s-.08.02-.15.02c-.25,0-.83-.09-.83-.89v-5.09Z"/>
    <path class="cls-2" d="M49.72,131.87c1.21,0,2.2.96,2.2,2.2s-.99,2.25-2.2,2.25-2.2-.99-2.2-2.25.99-2.2,2.2-2.2ZM49.72,135.97c1.01,0,1.83-.83,1.83-1.9s-.82-1.85-1.83-1.85-1.83.8-1.83,1.85.82,1.9,1.83,1.9Z"/>
    <path class="cls-2" d="M53.11,131.97h.36v.75c0,.2-.03.35-.03.35h.02c.14-.4.74-1.2,1.8-1.2s1.4.65,1.4,1.66v2.69h-.36v-2.57c0-.74-.09-1.44-1.05-1.44-.8,0-1.5.56-1.72,1.35-.05.18-.07.37-.07.58v2.07h-.36v-4.25Z"/>
    <path class="cls-2" d="M59.49,137.66c.91,0,1.61-.43,1.61-1.46v-.49c0-.2.03-.35.03-.35h-.02c-.25.52-.72.87-1.43.87-1.11,0-1.89-.87-1.89-2.19s.72-2.16,1.83-2.16c1.21,0,1.48.83,1.48.83h.02s-.03-.06-.03-.16v-.57h.36v4.22c0,1.3-.94,1.81-1.95,1.81-.47,0-.92-.12-1.33-.33l.17-.31s.53.3,1.14.3ZM61.11,134.03c0-1.37-.65-1.81-1.48-1.81-.91,0-1.45.66-1.45,1.81s.63,1.84,1.54,1.84c.75,0,1.39-.47,1.39-1.84Z"/>
    <path class="cls-2" d="M62.55,133.65h2.35v.34h-2.35v-.34Z"/>
    <path class="cls-2" d="M66.12,132.32h-.56v-.32h.56v-1.21h.36v1.21h1.11v.32h-1.11v2.34c0,1.12.67,1.27,1.01,1.27.12,0,.2-.02.2-.02v.33s-.08.02-.21.02c-.44,0-1.35-.16-1.35-1.57v-2.36Z"/>
    <path class="cls-2" d="M70.42,131.87c1.16,0,1.73.91,1.73,1.94,0,.09-.02.23-.02.23h-3.41c0,1.23.83,1.94,1.82,1.94.82,0,1.32-.54,1.32-.54l.2.3s-.6.59-1.51.59c-1.2,0-2.19-.87-2.19-2.22,0-1.44.98-2.24,2.07-2.24ZM71.78,133.7c-.04-1.04-.66-1.5-1.37-1.5-.78,0-1.5.51-1.66,1.5h3.03Z"/>
    <path class="cls-2" d="M73.35,131.97h.36v.81c0,.2-.03.35-.03.35h.02c.21-.65.69-1.19,1.36-1.19.13,0,.25.03.25.03v.36s-.1-.02-.2-.02c-.66,0-1.08.56-1.27,1.19-.09.3-.13.61-.13.89v1.84h-.36v-4.25Z"/>
    <path class="cls-2" d="M76.23,131.97h.36v.75c0,.2-.03.35-.03.35h.02c.21-.64.97-1.2,1.63-1.2.85,0,1.25.4,1.34,1.16h.02c.24-.6.88-1.16,1.62-1.16,1.1,0,1.42.65,1.42,1.66v2.69h-.36v-2.57c0-.8-.16-1.45-1.06-1.45-.71,0-1.31.63-1.5,1.29-.06.2-.08.41-.08.65v2.07h-.36v-2.57c0-.73-.1-1.45-1.04-1.45-.76,0-1.35.66-1.55,1.37-.05.18-.07.37-.07.58v2.07h-.36v-4.25Z"/>
    <path class="cls-2" d="M86.38,131.97h.36v.81c0,.2-.03.35-.03.35h.02c.21-.65.69-1.19,1.36-1.19.13,0,.25.03.25.03v.36s-.1-.02-.2-.02c-.66,0-1.08.56-1.27,1.19-.09.3-.13.61-.13.89v1.84h-.36v-4.25Z"/>
    <path class="cls-2" d="M90.92,131.87c1.16,0,1.73.91,1.73,1.94,0,.09-.02.23-.02.23h-3.41c0,1.23.83,1.94,1.82,1.94.82,0,1.32-.54,1.32-.54l.2.3s-.59.59-1.51.59c-1.2,0-2.19-.87-2.19-2.22,0-1.44.98-2.24,2.06-2.24ZM92.28,133.7c-.04-1.04-.66-1.5-1.37-1.5-.78,0-1.5.51-1.66,1.5h3.03Z"/>
    <path class="cls-2" d="M93.81,130.27h.36v4.98c0,.59.31.66.5.66.07,0,.13,0,.13,0v.33s-.08.02-.15.02c-.25,0-.83-.09-.83-.89v-5.09Z"/>
    <path class="cls-2" d="M98.1,133.63h.28v-.14c0-.94-.48-1.27-1.16-1.27-.74,0-1.22.41-1.22.41l-.2-.29s.51-.47,1.44-.47c.98,0,1.5.54,1.5,1.61v2.75h-.36v-.56c0-.23.03-.38.03-.38h-.02s-.38,1.04-1.49,1.04c-.69,0-1.44-.38-1.44-1.23,0-1.44,1.88-1.46,2.63-1.46ZM96.92,135.99c.93,0,1.45-.96,1.45-1.8v-.23h-.27c-.72,0-2.27,0-2.27,1.1,0,.45.37.93,1.09.93Z"/>
    <path class="cls-2" d="M100.29,132.32h-.56v-.32h.56v-1.21h.36v1.21h1.11v.32h-1.11v2.34c0,1.12.67,1.27,1.01,1.27.12,0,.2-.02.2-.02v.33s-.08.02-.21.02c-.44,0-1.35-.16-1.35-1.57v-2.36Z"/>
    <path class="cls-2" d="M102.79,130.27h.42v.62h-.42v-.62ZM102.82,131.97h.36v4.25h-.36v-4.25Z"/>
    <path class="cls-2" d="M106.56,131.87c1.22,0,2.2.96,2.2,2.2s-.99,2.25-2.2,2.25-2.2-.99-2.2-2.25.99-2.2,2.2-2.2ZM106.56,135.97c1.01,0,1.83-.83,1.83-1.9s-.82-1.85-1.83-1.85-1.83.8-1.83,1.85.82,1.9,1.83,1.9Z"/>
    <path class="cls-2" d="M109.95,131.97h.36v.75c0,.2-.03.35-.03.35h.02c.14-.4.74-1.2,1.8-1.2s1.4.65,1.4,1.66v2.69h-.36v-2.57c0-.74-.09-1.44-1.04-1.44-.8,0-1.5.56-1.72,1.35-.05.18-.07.37-.07.58v2.07h-.36v-4.25Z"/>
    <path class="cls-2" d="M114.79,135.44s.48.54,1.32.54c.52,0,.98-.27.98-.8,0-1.08-2.34-.77-2.34-2.16,0-.76.64-1.15,1.36-1.15.87,0,1.26.46,1.26.46l-.21.29s-.35-.4-1.07-.4c-.48,0-.96.22-.96.77,0,1.1,2.34.77,2.34,2.18,0,.68-.58,1.15-1.36,1.15-1.03,0-1.54-.61-1.54-.61l.23-.27Z"/>
    <path class="cls-2" d="M118.63,130.27h.36v2.45c0,.2-.03.35-.03.35h.02c.14-.4.74-1.2,1.8-1.2s1.4.65,1.4,1.66v2.69h-.36v-2.57c0-.74-.09-1.44-1.05-1.44-.8,0-1.5.56-1.72,1.35-.05.18-.07.37-.07.58v2.07h-.36v-5.95Z"/>
    <path class="cls-2" d="M123.58,130.27h.42v.62h-.42v-.62ZM123.61,131.97h.36v4.25h-.36v-4.25Z"/>
    <path class="cls-2" d="M125.47,131.97h.36v.51c0,.2-.03.34-.03.34h.02s.35-.95,1.53-.95,1.83.91,1.83,2.23-.79,2.23-1.89,2.23-1.49-.96-1.49-.96h-.02s.03.15.03.37v2.18h-.36v-5.95ZM127.29,135.97c.83,0,1.51-.69,1.51-1.88s-.61-1.88-1.48-1.88c-.78,0-1.51.55-1.51,1.89,0,.94.53,1.87,1.48,1.87Z"/>
    <path class="cls-2" d="M130.25,135.44s.48.54,1.32.54c.52,0,.98-.27.98-.8,0-1.08-2.34-.77-2.34-2.16,0-.76.64-1.15,1.36-1.15.87,0,1.26.46,1.26.46l-.21.29s-.35-.4-1.07-.4c-.48,0-.96.22-.96.77,0,1.1,2.34.77,2.34,2.18,0,.68-.58,1.15-1.36,1.15-1.03,0-1.54-.61-1.54-.61l.23-.27Z"/>
  </g>
  <g>
    <path class="cls-2" d="M.18,143.97h.38l1.16,3.33c.07.2.14.46.14.46h.02s.08-.25.14-.46l1.16-3.31h.4l1.16,3.31c.07.2.14.46.14.46h.02s.07-.25.14-.46l1.16-3.33h.38l-1.5,4.25h-.38l-1.18-3.3c-.08-.2-.14-.46-.14-.46h-.02s-.07.25-.14.46l-1.17,3.3h-.38l-1.5-4.25Z"/>
    <path class="cls-2" d="M7.49,142.27h.42v.62h-.42v-.62ZM7.52,143.97h.36v4.25h-.36v-4.25Z"/>
    <path class="cls-2" d="M9.51,144.32h-.56v-.32h.56v-1.21h.36v1.21h1.11v.32h-1.11v2.34c0,1.12.67,1.27,1.01,1.27.12,0,.2-.02.2-.02v.33s-.08.02-.21.02c-.44,0-1.35-.16-1.35-1.57v-2.36Z"/>
    <path class="cls-2" d="M12.04,142.27h.36v2.45c0,.2-.03.35-.03.35h.02c.14-.4.74-1.2,1.8-1.2s1.4.65,1.4,1.66v2.69h-.36v-2.57c0-.74-.09-1.44-1.04-1.44-.8,0-1.5.56-1.72,1.35-.05.18-.07.37-.07.58v2.07h-.36v-5.95Z"/>
    <path class="cls-2" d="M21.28,143.87c1.01,0,1.52.6,1.52.6l-.22.29s-.48-.54-1.3-.54c-.99,0-1.82.74-1.82,1.89s.83,1.87,1.82,1.87c.93,0,1.42-.61,1.42-.61l.19.3s-.55.66-1.61.66c-1.2,0-2.19-.87-2.19-2.22s1.01-2.24,2.19-2.24Z"/>
    <path class="cls-2" d="M24,143.97h.36v2.57c0,.74.09,1.44,1.04,1.44,1.06,0,1.74-.94,1.74-1.93v-2.07h.36v4.25h-.36v-.75c0-.2.03-.35.03-.35h-.02c-.14.4-.73,1.2-1.76,1.2s-1.4-.58-1.4-1.66v-2.69Z"/>
    <path class="cls-2" d="M28.87,147.44s.48.54,1.32.54c.52,0,.98-.27.98-.8,0-1.08-2.34-.77-2.34-2.16,0-.76.64-1.15,1.36-1.15.87,0,1.26.46,1.26.46l-.21.29s-.35-.4-1.07-.4c-.48,0-.96.22-.96.77,0,1.1,2.34.77,2.34,2.18,0,.68-.58,1.15-1.36,1.15-1.03,0-1.54-.61-1.54-.61l.23-.27Z"/>
    <path class="cls-2" d="M32.84,144.32h-.56v-.32h.56v-1.21h.36v1.21h1.11v.32h-1.11v2.34c0,1.12.67,1.27,1.01,1.27.12,0,.2-.02.2-.02v.33s-.08.02-.21.02c-.44,0-1.35-.16-1.35-1.57v-2.36Z"/>
    <path class="cls-2" d="M37.26,143.87c1.21,0,2.2.96,2.2,2.2s-.99,2.25-2.2,2.25-2.2-.99-2.2-2.25.99-2.2,2.2-2.2ZM37.26,147.98c1.01,0,1.83-.83,1.83-1.9s-.82-1.85-1.83-1.85-1.83.8-1.83,1.85.82,1.9,1.83,1.9Z"/>
    <path class="cls-2" d="M40.65,143.97h.36v.75c0,.2-.03.35-.03.35h.02c.21-.64.97-1.2,1.63-1.2.85,0,1.25.4,1.34,1.16h.02c.24-.6.88-1.16,1.61-1.16,1.1,0,1.42.65,1.42,1.66v2.69h-.36v-2.57c0-.8-.16-1.45-1.06-1.45-.71,0-1.31.63-1.5,1.29-.06.2-.08.41-.08.65v2.07h-.36v-2.57c0-.73-.1-1.45-1.04-1.45-.76,0-1.35.66-1.55,1.37-.05.18-.07.37-.07.58v2.07h-.36v-4.25Z"/>
    <path class="cls-2" d="M50.22,143.87c1.16,0,1.73.91,1.73,1.94,0,.09-.02.23-.02.23h-3.41c0,1.23.83,1.94,1.82,1.94.82,0,1.32-.54,1.32-.54l.2.3s-.6.59-1.51.59c-1.2,0-2.19-.87-2.19-2.22,0-1.44.98-2.24,2.07-2.24ZM51.58,145.71c-.04-1.04-.66-1.5-1.37-1.5-.78,0-1.5.51-1.66,1.5h3.03Z"/>
    <path class="cls-2" d="M53.15,143.97h.36v.81c0,.2-.03.35-.03.35h.02c.21-.65.69-1.19,1.36-1.19.13,0,.25.03.25.03v.36s-.1-.02-.2-.02c-.66,0-1.08.56-1.27,1.19-.09.3-.13.61-.13.89v1.84h-.36v-4.25Z"/>
    <path class="cls-2" d="M55.89,147.44s.48.54,1.32.54c.52,0,.98-.27.98-.8,0-1.08-2.34-.77-2.34-2.16,0-.76.64-1.15,1.36-1.15.87,0,1.26.46,1.26.46l-.21.29s-.35-.4-1.07-.4c-.48,0-.96.22-.96.77,0,1.1,2.34.77,2.34,2.18,0,.68-.58,1.15-1.36,1.15-1.03,0-1.54-.61-1.54-.61l.23-.27Z"/>
    <path class="cls-2" d="M59.81,147.7h.48l-.57,1.32h-.36l.45-1.32Z"/>
    <path class="cls-2" d="M65.9,143.87c1.16,0,1.73.91,1.73,1.94,0,.09-.02.23-.02.23h-3.41c0,1.23.83,1.94,1.82,1.94.82,0,1.32-.54,1.32-.54l.2.3s-.59.59-1.51.59c-1.2,0-2.19-.87-2.19-2.22,0-1.44.98-2.24,2.06-2.24ZM67.26,145.71c-.04-1.04-.66-1.5-1.37-1.5-.78,0-1.5.51-1.66,1.5h3.03Z"/>
    <path class="cls-2" d="M68.83,143.97h.36v.75c0,.2-.03.35-.03.35h.02c.21-.64.97-1.2,1.63-1.2.85,0,1.25.4,1.34,1.16h.02c.24-.6.88-1.16,1.61-1.16,1.1,0,1.42.65,1.42,1.66v2.69h-.36v-2.57c0-.8-.16-1.45-1.06-1.45-.71,0-1.31.63-1.5,1.29-.06.2-.08.41-.08.65v2.07h-.36v-2.57c0-.73-.1-1.45-1.04-1.45-.76,0-1.35.66-1.55,1.37-.05.18-.07.37-.07.58v2.07h-.36v-4.25Z"/>
    <path class="cls-2" d="M76.64,143.97h.36v.51c0,.2-.03.34-.03.34h.02s.35-.95,1.53-.95,1.84.91,1.84,2.23-.79,2.23-1.89,2.23-1.49-.96-1.49-.96h-.02s.03.15.03.37v2.18h-.36v-5.95ZM78.46,147.98c.83,0,1.51-.69,1.51-1.88s-.61-1.88-1.48-1.88c-.78,0-1.51.55-1.51,1.89,0,.94.53,1.87,1.48,1.87Z"/>
    <path class="cls-2" d="M81.51,142.27h.36v4.98c0,.59.31.66.5.66.07,0,.13,0,.13,0v.33s-.08.02-.15.02c-.25,0-.83-.09-.83-.89v-5.09Z"/>
    <path class="cls-2" d="M85.4,143.87c1.22,0,2.2.96,2.2,2.2s-.99,2.25-2.2,2.25-2.2-.99-2.2-2.25.99-2.2,2.2-2.2ZM85.4,147.98c1.01,0,1.83-.83,1.83-1.9s-.82-1.85-1.83-1.85-1.83.8-1.83,1.85.82,1.9,1.83,1.9Z"/>
    <path class="cls-2" d="M88.26,149.46s.24.2.53.2c.41,0,.66-.37.83-.77l.31-.71-1.76-4.22h.38l1.4,3.39c.08.2.15.4.15.4h.02s.06-.2.14-.4l1.4-3.39h.38l-2.18,5.24c-.19.44-.54.79-1.08.79-.41,0-.69-.24-.69-.24l.16-.31Z"/>
    <path class="cls-2" d="M94.71,143.87c1.16,0,1.73.91,1.73,1.94,0,.09-.02.23-.02.23h-3.41c0,1.23.83,1.94,1.82,1.94.82,0,1.32-.54,1.32-.54l.2.3s-.6.59-1.51.59c-1.2,0-2.19-.87-2.19-2.22,0-1.44.98-2.24,2.07-2.24ZM96.07,145.71c-.04-1.04-.66-1.5-1.37-1.5-.78,0-1.5.51-1.66,1.5h3.03Z"/>
    <path class="cls-2" d="M99.41,143.87c1.16,0,1.73.91,1.73,1.94,0,.09-.02.23-.02.23h-3.41c0,1.23.83,1.94,1.82,1.94.82,0,1.32-.54,1.32-.54l.2.3s-.59.59-1.51.59c-1.2,0-2.19-.87-2.19-2.22,0-1.44.98-2.24,2.06-2.24ZM100.77,145.71c-.04-1.04-.66-1.5-1.37-1.5-.78,0-1.5.51-1.66,1.5h3.03Z"/>
    <path class="cls-2" d="M102.2,147.44s.48.54,1.32.54c.52,0,.98-.27.98-.8,0-1.08-2.34-.77-2.34-2.16,0-.76.64-1.15,1.36-1.15.87,0,1.26.46,1.26.46l-.21.29s-.35-.4-1.07-.4c-.48,0-.96.22-.96.77,0,1.1,2.34.77,2.34,2.18,0,.68-.58,1.15-1.36,1.15-1.03,0-1.54-.61-1.54-.61l.23-.27Z"/>
    <path class="cls-2" d="M110.69,145.63h.28v-.14c0-.94-.48-1.27-1.16-1.27-.74,0-1.21.41-1.21.41l-.2-.29s.51-.47,1.44-.47c.98,0,1.5.54,1.5,1.61v2.75h-.36v-.56c0-.23.03-.38.03-.38h-.02s-.38,1.04-1.49,1.04c-.69,0-1.45-.38-1.45-1.23,0-1.44,1.88-1.46,2.63-1.46ZM109.51,147.99c.93,0,1.45-.96,1.45-1.8v-.23h-.27c-.72,0-2.27,0-2.27,1.1,0,.45.37.93,1.09.93Z"/>
    <path class="cls-2" d="M112.76,143.97h.36v.75c0,.2-.03.35-.03.35h.02c.14-.4.74-1.2,1.8-1.2s1.4.65,1.4,1.66v2.69h-.36v-2.57c0-.74-.09-1.44-1.05-1.44-.8,0-1.5.56-1.72,1.35-.05.18-.07.37-.07.58v2.07h-.36v-4.25Z"/>
    <path class="cls-2" d="M119.36,143.87c1.07,0,1.47.96,1.47.96h.02s-.03-.15-.03-.35v-2.21h.36v5.95h-.36v-.54c0-.2.03-.32.03-.32h-.02s-.37.96-1.54.96-1.84-.91-1.84-2.23.79-2.23,1.9-2.23ZM119.31,147.98c.78,0,1.51-.55,1.51-1.89,0-.94-.48-1.87-1.48-1.87-.83,0-1.51.69-1.51,1.88s.61,1.88,1.48,1.88Z"/>
  </g>
  <g>
    <path class="cls-2" d="M3.03,157.63h.28v-.14c0-.94-.48-1.27-1.16-1.27-.74,0-1.21.41-1.21.41l-.2-.29s.51-.47,1.44-.47c.98,0,1.5.54,1.5,1.61v2.75h-.36v-.56c0-.23.03-.38.03-.38h-.02s-.38,1.04-1.49,1.04c-.69,0-1.45-.38-1.45-1.23,0-1.44,1.88-1.46,2.63-1.46ZM1.86,159.99c.93,0,1.45-.96,1.45-1.8v-.23h-.27c-.72,0-2.27,0-2.27,1.1,0,.45.37.93,1.09.93Z"/>
    <path class="cls-2" d="M5.07,154.27h.36v4.98c0,.59.31.66.5.66.07,0,.13,0,.13,0v.33s-.08.02-.15.02c-.25,0-.83-.09-.83-.89v-5.09Z"/>
    <path class="cls-2" d="M7.02,154.27h.36v4.98c0,.59.31.66.5.66.07,0,.13,0,.13,0v.33s-.08.02-.15.02c-.25,0-.83-.09-.83-.89v-5.09Z"/>
    <path class="cls-2" d="M11.24,159.44s.48.54,1.32.54c.52,0,.98-.27.98-.8,0-1.08-2.34-.77-2.34-2.16,0-.76.64-1.15,1.36-1.15.87,0,1.26.46,1.26.46l-.21.29s-.35-.4-1.07-.4c-.48,0-.96.22-.96.77,0,1.1,2.34.77,2.34,2.18,0,.68-.58,1.15-1.36,1.15-1.03,0-1.54-.61-1.54-.61l.23-.27Z"/>
    <path class="cls-2" d="M15.21,156.32h-.56v-.32h.56v-1.21h.36v1.21h1.11v.32h-1.11v2.34c0,1.12.67,1.27,1.01,1.27.12,0,.2-.02.2-.02v.33s-.08.02-.21.02c-.44,0-1.35-.16-1.35-1.57v-2.36Z"/>
    <path class="cls-2" d="M20.03,157.63h.28v-.14c0-.94-.48-1.27-1.16-1.27-.74,0-1.22.41-1.22.41l-.2-.29s.51-.47,1.44-.47c.98,0,1.5.54,1.5,1.61v2.75h-.36v-.56c0-.23.03-.38.03-.38h-.02s-.38,1.04-1.49,1.04c-.69,0-1.44-.38-1.44-1.23,0-1.44,1.88-1.46,2.63-1.46ZM18.86,159.99c.93,0,1.45-.96,1.45-1.8v-.23h-.27c-.72,0-2.27,0-2.27,1.1,0,.45.37.93,1.09.93Z"/>
    <path class="cls-2" d="M22.11,154.27h.36v3.37h.76l1.38-1.67h.47l-1.54,1.83v.02l1.68,2.41h-.45l-1.54-2.24h-.76v2.24h-.36v-5.95Z"/>
    <path class="cls-2" d="M27.89,155.87c1.16,0,1.73.91,1.73,1.94,0,.09-.02.23-.02.23h-3.41c0,1.23.83,1.94,1.82,1.94.82,0,1.32-.54,1.32-.54l.2.3s-.59.59-1.51.59c-1.2,0-2.19-.87-2.19-2.22,0-1.44.98-2.24,2.06-2.24ZM29.25,157.71c-.04-1.04-.66-1.5-1.37-1.5-.78,0-1.5.51-1.66,1.5h3.03Z"/>
    <path class="cls-2" d="M30.82,154.27h.36v2.45c0,.2-.03.35-.03.35h.02c.14-.4.74-1.2,1.8-1.2s1.4.65,1.4,1.66v2.69h-.36v-2.57c0-.74-.09-1.44-1.05-1.44-.8,0-1.5.56-1.72,1.35-.05.18-.07.37-.07.58v2.07h-.36v-5.95Z"/>
    <path class="cls-2" d="M37.69,155.87c1.21,0,2.2.96,2.2,2.2s-.99,2.25-2.2,2.25-2.2-.99-2.2-2.25.99-2.2,2.2-2.2ZM37.69,159.98c1.01,0,1.83-.83,1.83-1.9s-.82-1.85-1.83-1.85-1.83.8-1.83,1.85.82,1.9,1.83,1.9Z"/>
    <path class="cls-2" d="M41.03,154.27h.36v4.98c0,.59.31.66.5.66.07,0,.13,0,.13,0v.33s-.08.02-.15.02c-.25,0-.83-.09-.83-.89v-5.09Z"/>
    <path class="cls-2" d="M44.65,155.87c1.07,0,1.47.96,1.47.96h.02s-.03-.15-.03-.35v-2.21h.36v5.95h-.36v-.54c0-.2.03-.32.03-.32h-.02s-.37.96-1.54.96-1.84-.91-1.84-2.23.79-2.23,1.9-2.23ZM44.6,159.98c.78,0,1.51-.55,1.51-1.89,0-.94-.48-1.87-1.48-1.87-.83,0-1.51.69-1.51,1.88s.61,1.88,1.48,1.88Z"/>
    <path class="cls-2" d="M49.72,155.87c1.16,0,1.73.91,1.73,1.94,0,.09-.02.23-.02.23h-3.41c0,1.23.83,1.94,1.82,1.94.82,0,1.32-.54,1.32-.54l.2.3s-.59.59-1.51.59c-1.2,0-2.19-.87-2.19-2.22,0-1.44.98-2.24,2.06-2.24ZM51.08,157.71c-.04-1.04-.66-1.5-1.37-1.5-.78,0-1.5.51-1.66,1.5h3.03Z"/>
    <path class="cls-2" d="M52.66,155.97h.36v.81c0,.2-.03.35-.03.35h.02c.21-.65.69-1.19,1.36-1.19.13,0,.25.03.25.03v.36s-.1-.02-.2-.02c-.66,0-1.08.56-1.27,1.19-.09.3-.13.61-.13.89v1.84h-.36v-4.25Z"/>
    <path class="cls-2" d="M55.39,159.44s.48.54,1.32.54c.52,0,.98-.27.98-.8,0-1.08-2.34-.77-2.34-2.16,0-.76.64-1.15,1.36-1.15.87,0,1.26.46,1.26.46l-.21.29s-.35-.4-1.07-.4c-.48,0-.96.22-.96.77,0,1.1,2.34.77,2.34,2.18,0,.68-.58,1.15-1.36,1.15-1.03,0-1.54-.61-1.54-.61l.23-.27Z"/>
    <path class="cls-2" d="M59.24,159.69h.52v.54h-.52v-.54Z"/>
    <path class="cls-2" d="M65.14,154.61h-2.22v-.34h4.8v.34h-2.22v5.61h-.37v-5.61Z"/>
    <path class="cls-2" d="M70,157.63h.28v-.14c0-.94-.48-1.27-1.16-1.27-.74,0-1.22.41-1.22.41l-.2-.29s.51-.47,1.44-.47c.98,0,1.5.54,1.5,1.61v2.75h-.36v-.56c0-.23.03-.38.03-.38h-.02s-.38,1.04-1.49,1.04c-.69,0-1.44-.38-1.44-1.23,0-1.44,1.88-1.46,2.63-1.46ZM68.83,159.99c.93,0,1.45-.96,1.45-1.8v-.23h-.27c-.72,0-2.27,0-2.27,1.1,0,.45.37.93,1.09.93Z"/>
    <path class="cls-2" d="M72.08,154.27h.36v3.37h.76l1.38-1.67h.47l-1.54,1.83v.02l1.68,2.41h-.45l-1.54-2.24h-.76v2.24h-.36v-5.95Z"/>
    <path class="cls-2" d="M77.86,155.87c1.16,0,1.73.91,1.73,1.94,0,.09-.02.23-.02.23h-3.41c0,1.23.83,1.94,1.82,1.94.82,0,1.32-.54,1.32-.54l.2.3s-.59.59-1.51.59c-1.2,0-2.19-.87-2.19-2.22,0-1.44.98-2.24,2.06-2.24ZM79.22,157.71c-.04-1.04-.66-1.5-1.37-1.5-.78,0-1.5.51-1.66,1.5h3.03Z"/>
    <path class="cls-2" d="M83.15,155.97h.36v.51c0,.2-.03.34-.03.34h.02s.35-.95,1.53-.95,1.83.91,1.83,2.23-.79,2.23-1.89,2.23-1.49-.96-1.49-.96h-.02s.03.15.03.37v2.18h-.36v-5.95ZM84.97,159.98c.83,0,1.51-.69,1.51-1.88s-.61-1.88-1.48-1.88c-.78,0-1.51.55-1.51,1.89,0,.94.53,1.87,1.48,1.87Z"/>
    <path class="cls-2" d="M88.07,155.97h.36v.81c0,.2-.03.35-.03.35h.02c.21-.65.69-1.19,1.36-1.19.13,0,.25.03.25.03v.36s-.1-.02-.2-.02c-.66,0-1.08.56-1.27,1.19-.09.3-.13.61-.13.89v1.84h-.36v-4.25Z"/>
    <path class="cls-2" d="M90.91,154.27h.42v.62h-.42v-.62ZM90.94,155.97h.36v4.25h-.36v-4.25Z"/>
    <path class="cls-2" d="M94.42,155.87c1.07,0,1.47.96,1.47.96h.02s-.03-.15-.03-.35v-2.21h.36v5.95h-.36v-.54c0-.2.03-.32.03-.32h-.02s-.37.96-1.54.96-1.84-.91-1.84-2.23.79-2.23,1.9-2.23ZM94.37,159.98c.78,0,1.51-.55,1.51-1.89,0-.94-.48-1.87-1.48-1.87-.83,0-1.51.69-1.51,1.88s.61,1.88,1.48,1.88Z"/>
    <path class="cls-2" d="M99.49,155.87c1.16,0,1.73.91,1.73,1.94,0,.09-.02.23-.02.23h-3.41c0,1.23.83,1.94,1.82,1.94.82,0,1.32-.54,1.32-.54l.2.3s-.59.59-1.51.59c-1.2,0-2.19-.87-2.19-2.22,0-1.44.98-2.24,2.06-2.24ZM100.85,157.71c-.04-1.04-.66-1.5-1.37-1.5-.78,0-1.5.51-1.66,1.5h3.03Z"/>
    <path class="cls-2" d="M104.74,154.27h.42v.62h-.42v-.62ZM104.78,155.97h.36v4.25h-.36v-4.25Z"/>
    <path class="cls-2" d="M106.63,155.97h.36v.75c0,.2-.03.35-.03.35h.02c.14-.4.74-1.2,1.8-1.2s1.4.65,1.4,1.66v2.69h-.36v-2.57c0-.74-.09-1.44-1.04-1.44-.8,0-1.5.56-1.72,1.35-.05.18-.07.37-.07.58v2.07h-.36v-4.25Z"/>
    <path class="cls-2" d="M114.1,156.32h-.56v-.32h.56v-1.21h.36v1.21h1.11v.32h-1.11v2.34c0,1.12.67,1.27,1.01,1.27.12,0,.2-.02.2-.02v.33s-.08.02-.21.02c-.44,0-1.35-.16-1.35-1.57v-2.36Z"/>
    <path class="cls-2" d="M116.63,154.27h.36v2.45c0,.2-.03.35-.03.35h.02c.14-.4.74-1.2,1.8-1.2s1.4.65,1.4,1.66v2.69h-.36v-2.57c0-.74-.09-1.44-1.05-1.44-.8,0-1.5.56-1.72,1.35-.05.18-.07.37-.07.58v2.07h-.36v-5.95Z"/>
    <path class="cls-2" d="M123.38,155.87c1.16,0,1.73.91,1.73,1.94,0,.09-.02.23-.02.23h-3.41c0,1.23.83,1.94,1.82,1.94.82,0,1.32-.54,1.32-.54l.2.3s-.6.59-1.51.59c-1.2,0-2.19-.87-2.19-2.22,0-1.44.98-2.24,2.07-2.24ZM124.74,157.71c-.04-1.04-.66-1.5-1.37-1.5-.78,0-1.5.51-1.66,1.5h3.03Z"/>
  </g>
  <g>
    <path class="cls-2" d="M2.37,167.87c1.07,0,1.46.95,1.46.95h.02s-.03-.14-.03-.34v-.51h.36v5.95h-.36v-2.18c0-.22.03-.37.03-.37h-.02s-.37.96-1.54.96-1.84-.91-1.84-2.23.79-2.23,1.9-2.23ZM2.32,171.98c.78,0,1.51-.55,1.51-1.89,0-.94-.48-1.87-1.48-1.87-.83,0-1.51.69-1.51,1.88s.61,1.88,1.48,1.88Z"/>
    <path class="cls-2" d="M5.62,167.98h.36v2.57c0,.74.09,1.44,1.04,1.44,1.06,0,1.74-.94,1.74-1.93v-2.07h.36v4.25h-.36v-.75c0-.2.03-.35.03-.35h-.02c-.14.4-.73,1.2-1.76,1.2s-1.4-.58-1.4-1.66v-2.69Z"/>
    <path class="cls-2" d="M12.9,169.63h.28v-.14c0-.94-.48-1.27-1.16-1.27-.74,0-1.21.41-1.21.41l-.2-.29s.51-.47,1.44-.47c.98,0,1.5.54,1.5,1.61v2.75h-.36v-.56c0-.23.03-.38.03-.38h-.02s-.38,1.04-1.49,1.04c-.69,0-1.45-.38-1.45-1.23,0-1.44,1.88-1.46,2.63-1.46ZM11.73,172c.93,0,1.45-.96,1.45-1.8v-.23h-.27c-.72,0-2.27,0-2.27,1.1,0,.45.37.93,1.09.93Z"/>
    <path class="cls-2" d="M14.93,166.28h.36v4.98c0,.59.31.66.5.66.07,0,.13,0,.13,0v.33s-.08.02-.15.02c-.25,0-.83-.09-.83-.89v-5.09Z"/>
    <path class="cls-2" d="M16.9,166.28h.42v.62h-.42v-.62ZM16.93,167.98h.36v4.25h-.36v-4.25Z"/>
    <path class="cls-2" d="M18.92,168.32h-.56v-.32h.56v-1.21h.36v1.21h1.11v.32h-1.11v2.34c0,1.12.67,1.27,1.01,1.27.12,0,.2-.02.2-.02v.33s-.08.02-.21.02c-.44,0-1.35-.16-1.35-1.57v-2.36Z"/>
    <path class="cls-2" d="M20.94,173.47s.24.2.53.2c.41,0,.66-.37.83-.77l.31-.71-1.76-4.22h.38l1.4,3.39c.08.2.15.4.15.4h.02s.06-.2.14-.4l1.4-3.39h.38l-2.18,5.24c-.19.44-.54.79-1.08.79-.41,0-.69-.24-.69-.24l.16-.31Z"/>
    <path class="cls-2" d="M29.85,167.87c1.21,0,2.2.96,2.2,2.2s-.99,2.25-2.2,2.25-2.2-.99-2.2-2.25.99-2.2,2.2-2.2ZM29.85,171.98c1.01,0,1.83-.83,1.83-1.9s-.82-1.85-1.83-1.85-1.83.8-1.83,1.85.82,1.9,1.83,1.9Z"/>
    <path class="cls-2" d="M33.39,168.32h-.54v-.32h.54v-.2c0-1.4.92-1.57,1.34-1.57.14,0,.22.02.22.02v.33s-.08-.02-.2-.02c-.34,0-1.01.14-1.01,1.23v.2h1.17v.32h-1.17v3.9h-.36v-3.9Z"/>
    <path class="cls-2" d="M40.04,167.87c1.21,0,2.2.96,2.2,2.2s-.99,2.25-2.2,2.25-2.2-.99-2.2-2.25.99-2.2,2.2-2.2ZM40.04,171.98c1.01,0,1.83-.83,1.83-1.9s-.82-1.85-1.83-1.85-1.83.8-1.83,1.85.82,1.9,1.83,1.9Z"/>
    <path class="cls-2" d="M43.37,167.98h.36v2.57c0,.74.09,1.44,1.04,1.44,1.06,0,1.74-.94,1.74-1.93v-2.07h.36v4.25h-.36v-.75c0-.2.03-.35.03-.35h-.02c-.14.4-.73,1.2-1.76,1.2s-1.4-.58-1.4-1.66v-2.69Z"/>
    <path class="cls-2" d="M48.36,167.98h.36v.81c0,.2-.03.35-.03.35h.02c.21-.65.69-1.19,1.36-1.19.13,0,.25.03.25.03v.36s-.1-.02-.2-.02c-.66,0-1.08.56-1.27,1.19-.09.3-.13.61-.13.89v1.84h-.36v-4.25Z"/>
    <path class="cls-2" d="M53.59,166.28h.36v2.45c0,.2-.03.35-.03.35h.02c.14-.4.74-1.2,1.8-1.2s1.4.65,1.4,1.66v2.69h-.36v-2.57c0-.74-.09-1.44-1.05-1.44-.8,0-1.5.56-1.72,1.35-.05.18-.07.37-.07.58v2.07h-.36v-5.95Z"/>
    <path class="cls-2" d="M58.51,167.98h.36v2.57c0,.74.09,1.44,1.05,1.44,1.06,0,1.74-.94,1.74-1.93v-2.07h.36v4.25h-.36v-.75c0-.2.03-.35.03-.35h-.02c-.14.4-.73,1.2-1.76,1.2s-1.4-.58-1.4-1.66v-2.69Z"/>
    <path class="cls-2" d="M63.51,167.98h.36v.75c0,.2-.03.35-.03.35h.02c.21-.64.97-1.2,1.63-1.2.85,0,1.25.4,1.34,1.16h.02c.24-.6.88-1.16,1.62-1.16,1.1,0,1.42.65,1.42,1.66v2.69h-.36v-2.57c0-.8-.16-1.45-1.06-1.45-.71,0-1.31.63-1.5,1.29-.06.2-.08.41-.08.65v2.07h-.36v-2.57c0-.73-.1-1.45-1.04-1.45-.76,0-1.35.66-1.55,1.37-.05.18-.07.37-.07.58v2.07h-.36v-4.25Z"/>
    <path class="cls-2" d="M73.6,169.63h.28v-.14c0-.94-.48-1.27-1.16-1.27-.74,0-1.22.41-1.22.41l-.2-.29s.51-.47,1.44-.47c.98,0,1.5.54,1.5,1.61v2.75h-.36v-.56c0-.23.03-.38.03-.38h-.02s-.38,1.04-1.49,1.04c-.69,0-1.44-.38-1.44-1.23,0-1.44,1.88-1.46,2.63-1.46ZM72.43,172c.93,0,1.45-.96,1.45-1.8v-.23h-.27c-.72,0-2.27,0-2.27,1.1,0,.45.37.93,1.09.93Z"/>
    <path class="cls-2" d="M75.67,167.98h.36v.75c0,.2-.03.35-.03.35h.02c.14-.4.74-1.2,1.8-1.2s1.4.65,1.4,1.66v2.69h-.36v-2.57c0-.74-.09-1.44-1.04-1.44-.8,0-1.5.56-1.72,1.35-.05.18-.07.37-.07.58v2.07h-.36v-4.25Z"/>
    <path class="cls-2" d="M84.91,167.87c1.01,0,1.52.6,1.52.6l-.22.29s-.48-.54-1.3-.54c-.99,0-1.82.74-1.82,1.89s.83,1.87,1.82,1.87c.93,0,1.42-.61,1.42-.61l.19.3s-.55.66-1.61.66c-1.2,0-2.19-.87-2.19-2.22s1.01-2.24,2.19-2.24Z"/>
    <path class="cls-2" d="M89.98,169.63h.28v-.14c0-.94-.48-1.27-1.16-1.27-.74,0-1.21.41-1.21.41l-.2-.29s.51-.47,1.44-.47c.98,0,1.5.54,1.5,1.61v2.75h-.36v-.56c0-.23.03-.38.03-.38h-.02s-.38,1.04-1.49,1.04c-.69,0-1.45-.38-1.45-1.23,0-1.44,1.88-1.46,2.63-1.46ZM88.81,172c.93,0,1.45-.96,1.45-1.8v-.23h-.27c-.72,0-2.27,0-2.27,1.1,0,.45.37.93,1.09.93Z"/>
    <path class="cls-2" d="M92.05,167.98h.36v.51c0,.2-.03.34-.03.34h.02s.35-.95,1.53-.95,1.83.91,1.83,2.23-.79,2.23-1.89,2.23-1.49-.96-1.49-.96h-.02s.03.15.03.37v2.18h-.36v-5.95ZM93.88,171.98c.83,0,1.51-.69,1.51-1.88s-.61-1.88-1.48-1.88c-.78,0-1.51.55-1.51,1.89,0,.94.53,1.87,1.48,1.87Z"/>
    <path class="cls-2" d="M96.94,166.28h.42v.62h-.42v-.62ZM96.98,167.98h.36v4.25h-.36v-4.25Z"/>
    <path class="cls-2" d="M98.96,168.32h-.56v-.32h.56v-1.21h.36v1.21h1.11v.32h-1.11v2.34c0,1.12.67,1.27,1.01,1.27.12,0,.2-.02.2-.02v.33s-.08.02-.21.02c-.44,0-1.35-.16-1.35-1.57v-2.36Z"/>
    <path class="cls-2" d="M103.78,169.63h.28v-.14c0-.94-.48-1.27-1.16-1.27-.74,0-1.21.41-1.21.41l-.2-.29s.51-.47,1.44-.47c.98,0,1.5.54,1.5,1.61v2.75h-.36v-.56c0-.23.03-.38.03-.38h-.02s-.38,1.04-1.49,1.04c-.69,0-1.45-.38-1.45-1.23,0-1.44,1.88-1.46,2.63-1.46ZM102.61,172c.93,0,1.45-.96,1.45-1.8v-.23h-.27c-.72,0-2.27,0-2.27,1.1,0,.45.37.93,1.09.93Z"/>
    <path class="cls-2" d="M105.82,166.28h.36v4.98c0,.59.31.66.5.66.07,0,.13,0,.13,0v.33s-.08.02-.15.02c-.25,0-.83-.09-.83-.89v-5.09Z"/>
    <path class="cls-2" d="M112.45,169.63h.28v-.14c0-.94-.48-1.27-1.16-1.27-.74,0-1.22.41-1.22.41l-.2-.29s.51-.47,1.44-.47c.98,0,1.5.54,1.5,1.61v2.75h-.36v-.56c0-.23.03-.38.03-.38h-.02s-.38,1.04-1.49,1.04c-.69,0-1.44-.38-1.44-1.23,0-1.44,1.88-1.46,2.63-1.46ZM111.28,172c.93,0,1.45-.96,1.45-1.8v-.23h-.27c-.72,0-2.27,0-2.27,1.1,0,.45.37.93,1.09.93Z"/>
    <path class="cls-2" d="M114.53,167.98h.36v.75c0,.2-.03.35-.03.35h.02c.14-.4.74-1.2,1.8-1.2s1.4.65,1.4,1.66v2.69h-.36v-2.57c0-.74-.09-1.44-1.04-1.44-.8,0-1.5.56-1.72,1.35-.05.18-.07.37-.07.58v2.07h-.36v-4.25Z"/>
    <path class="cls-2" d="M121.13,167.87c1.07,0,1.47.96,1.47.96h.02s-.03-.15-.03-.35v-2.21h.36v5.95h-.36v-.54c0-.2.03-.32.03-.32h-.02s-.37.96-1.54.96-1.84-.91-1.84-2.23.79-2.23,1.9-2.23ZM121.08,171.98c.78,0,1.51-.55,1.51-1.89,0-.94-.48-1.87-1.48-1.87-.83,0-1.51.69-1.51,1.88s.61,1.88,1.48,1.88Z"/>
  </g>
  <g>
    <path class="cls-2" d="M3.03,181.64h.28v-.14c0-.94-.48-1.27-1.16-1.27-.74,0-1.21.41-1.21.41l-.2-.29s.51-.47,1.44-.47c.98,0,1.5.54,1.5,1.61v2.75h-.36v-.56c0-.23.03-.38.03-.38h-.02s-.38,1.04-1.49,1.04c-.69,0-1.45-.38-1.45-1.23,0-1.44,1.88-1.46,2.63-1.46ZM1.86,184c.93,0,1.45-.96,1.45-1.8v-.23h-.27c-.72,0-2.27,0-2.27,1.1,0,.45.37.93,1.09.93Z"/>
    <path class="cls-2" d="M7,179.88c1.01,0,1.52.6,1.52.6l-.22.29s-.48-.54-1.3-.54c-.99,0-1.82.74-1.82,1.89s.83,1.87,1.82,1.87c.93,0,1.42-.61,1.42-.61l.19.3s-.55.66-1.61.66c-1.2,0-2.19-.87-2.19-2.22s1.01-2.24,2.19-2.24Z"/>
    <path class="cls-2" d="M11.66,179.88c1.01,0,1.52.6,1.52.6l-.22.29s-.48-.54-1.3-.54c-.99,0-1.82.74-1.82,1.89s.83,1.87,1.82,1.87c.93,0,1.42-.61,1.42-.61l.19.3s-.55.66-1.61.66c-1.2,0-2.19-.87-2.19-2.22s1.01-2.24,2.19-2.24Z"/>
    <path class="cls-2" d="M16.32,179.88c1.22,0,2.2.96,2.2,2.2s-.99,2.25-2.2,2.25-2.2-.99-2.2-2.25.99-2.2,2.2-2.2ZM16.32,183.98c1.01,0,1.83-.83,1.83-1.9s-.82-1.85-1.83-1.85-1.83.8-1.83,1.85.82,1.9,1.83,1.9Z"/>
    <path class="cls-2" d="M19.7,179.98h.36v.81c0,.2-.03.35-.03.35h.02c.21-.65.69-1.19,1.36-1.19.13,0,.25.03.25.03v.36s-.1-.02-.2-.02c-.66,0-1.08.56-1.27,1.19-.09.3-.13.61-.13.89v1.84h-.36v-4.25Z"/>
    <path class="cls-2" d="M24.15,179.88c1.07,0,1.47.96,1.47.96h.02s-.03-.15-.03-.35v-2.21h.36v5.95h-.36v-.54c0-.2.03-.32.03-.32h-.02s-.37.96-1.54.96-1.84-.91-1.84-2.23.79-2.23,1.9-2.23ZM24.1,183.98c.78,0,1.51-.55,1.51-1.89,0-.94-.48-1.87-1.48-1.87-.83,0-1.51.69-1.51,1.88s.61,1.88,1.48,1.88Z"/>
    <path class="cls-2" d="M31.21,185.66c.91,0,1.61-.43,1.61-1.46v-.49c0-.2.03-.35.03-.35h-.02c-.25.52-.72.87-1.43.87-1.11,0-1.89-.87-1.89-2.19s.72-2.16,1.83-2.16c1.21,0,1.48.83,1.48.83h.02s-.03-.06-.03-.16v-.57h.36v4.22c0,1.3-.94,1.81-1.95,1.81-.47,0-.92-.12-1.33-.33l.17-.31s.53.3,1.14.3ZM32.83,182.04c0-1.37-.65-1.81-1.48-1.81-.91,0-1.45.66-1.45,1.81s.63,1.84,1.54,1.84c.75,0,1.39-.47,1.39-1.84Z"/>
    <path class="cls-2" d="M34.68,179.98h.36v.81c0,.2-.03.35-.03.35h.02c.21-.65.69-1.19,1.36-1.19.13,0,.25.03.25.03v.36s-.1-.02-.2-.02c-.66,0-1.08.56-1.27,1.19-.09.3-.13.61-.13.89v1.84h-.36v-4.25Z"/>
    <path class="cls-2" d="M39.22,179.88c1.16,0,1.73.91,1.73,1.94,0,.09-.02.23-.02.23h-3.41c0,1.23.83,1.94,1.82,1.94.82,0,1.32-.54,1.32-.54l.2.3s-.6.59-1.51.59c-1.2,0-2.19-.87-2.19-2.22,0-1.44.98-2.24,2.07-2.24ZM40.58,181.71c-.04-1.04-.66-1.5-1.37-1.5-.78,0-1.5.51-1.66,1.5h3.03Z"/>
    <path class="cls-2" d="M44.44,181.64h.28v-.14c0-.94-.48-1.27-1.16-1.27-.74,0-1.22.41-1.22.41l-.2-.29s.51-.47,1.44-.47c.98,0,1.5.54,1.5,1.61v2.75h-.36v-.56c0-.23.03-.38.03-.38h-.02s-.38,1.04-1.49,1.04c-.69,0-1.44-.38-1.44-1.23,0-1.44,1.88-1.46,2.63-1.46ZM43.26,184c.93,0,1.45-.96,1.45-1.8v-.23h-.27c-.72,0-2.27,0-2.27,1.1,0,.45.37.93,1.09.93Z"/>
    <path class="cls-2" d="M46.63,180.33h-.56v-.32h.56v-1.21h.36v1.21h1.11v.32h-1.11v2.34c0,1.12.67,1.27,1.01,1.27.12,0,.2-.02.2-.02v.33s-.08.02-.21.02c-.44,0-1.35-.16-1.35-1.57v-2.36Z"/>
    <path class="cls-2" d="M51.52,179.98h.36v.51c0,.2-.03.34-.03.34h.02s.35-.95,1.53-.95,1.83.91,1.83,2.23-.79,2.23-1.89,2.23-1.49-.96-1.49-.96h-.02s.03.15.03.37v2.18h-.36v-5.95ZM53.34,183.98c.83,0,1.51-.69,1.51-1.88s-.61-1.88-1.48-1.88c-.78,0-1.51.55-1.51,1.89,0,.94.53,1.87,1.48,1.87Z"/>
    <path class="cls-2" d="M56.44,179.98h.36v.81c0,.2-.03.35-.03.35h.02c.21-.65.69-1.19,1.36-1.19.13,0,.25.03.25.03v.36s-.1-.02-.2-.02c-.66,0-1.08.56-1.27,1.19-.09.3-.13.61-.13.89v1.84h-.36v-4.25Z"/>
    <path class="cls-2" d="M59.28,178.28h.42v.62h-.42v-.62ZM59.31,179.98h.36v4.25h-.36v-4.25Z"/>
    <path class="cls-2" d="M63.05,179.88c1.22,0,2.2.96,2.2,2.2s-.99,2.25-2.2,2.25-2.2-.99-2.2-2.25.99-2.2,2.2-2.2ZM63.05,183.98c1.01,0,1.83-.83,1.83-1.9s-.82-1.85-1.83-1.85-1.83.8-1.83,1.85.82,1.9,1.83,1.9Z"/>
    <path class="cls-2" d="M66.44,179.98h.36v.81c0,.2-.03.35-.03.35h.02c.21-.65.69-1.19,1.36-1.19.13,0,.25.03.25.03v.36s-.1-.02-.2-.02c-.66,0-1.08.56-1.27,1.19-.09.3-.13.61-.13.89v1.84h-.36v-4.25Z"/>
    <path class="cls-2" d="M69.27,178.28h.42v.62h-.42v-.62ZM69.31,179.98h.36v4.25h-.36v-4.25Z"/>
    <path class="cls-2" d="M71.3,180.33h-.56v-.32h.56v-1.21h.36v1.21h1.11v.32h-1.11v2.34c0,1.12.67,1.27,1.01,1.27.12,0,.2-.02.2-.02v.33s-.08.02-.21.02c-.44,0-1.35-.16-1.35-1.57v-2.36Z"/>
    <path class="cls-2" d="M73.31,185.47s.24.2.53.2c.41,0,.66-.37.83-.77l.31-.71-1.76-4.22h.38l1.4,3.39c.08.2.15.4.15.4h.02s.06-.2.14-.4l1.4-3.39h.38l-2.18,5.24c-.19.44-.54.79-1.08.79-.41,0-.69-.24-.69-.24l.16-.31Z"/>
    <path class="cls-2" d="M80.48,180.33h-.56v-.32h.56v-1.21h.36v1.21h1.11v.32h-1.11v2.34c0,1.12.67,1.27,1.01,1.27.12,0,.2-.02.2-.02v.33s-.08.02-.21.02c-.44,0-1.35-.16-1.35-1.57v-2.36Z"/>
    <path class="cls-2" d="M84.9,179.88c1.22,0,2.2.96,2.2,2.2s-.99,2.25-2.2,2.25-2.2-.99-2.2-2.25.99-2.2,2.2-2.2ZM84.9,183.98c1.01,0,1.83-.83,1.83-1.9s-.82-1.85-1.83-1.85-1.83.8-1.83,1.85.82,1.9,1.83,1.9Z"/>
    <path class="cls-2" d="M90.77,180.33h-.56v-.32h.56v-1.21h.36v1.21h1.11v.32h-1.11v2.34c0,1.12.67,1.27,1.01,1.27.12,0,.2-.02.2-.02v.33s-.08.02-.21.02c-.44,0-1.35-.16-1.35-1.57v-2.36Z"/>
    <path class="cls-2" d="M93.3,178.28h.36v2.45c0,.2-.03.35-.03.35h.02c.14-.4.74-1.2,1.8-1.2s1.4.65,1.4,1.66v2.69h-.36v-2.57c0-.74-.09-1.44-1.04-1.44-.8,0-1.5.56-1.72,1.35-.05.18-.07.37-.07.58v2.07h-.36v-5.95Z"/>
    <path class="cls-2" d="M100.05,179.88c1.16,0,1.73.91,1.73,1.94,0,.09-.02.23-.02.23h-3.41c0,1.23.83,1.94,1.82,1.94.82,0,1.32-.54,1.32-.54l.2.3s-.59.59-1.51.59c-1.2,0-2.19-.87-2.19-2.22,0-1.44.98-2.24,2.06-2.24ZM101.41,181.71c-.04-1.04-.66-1.5-1.37-1.5-.78,0-1.5.51-1.66,1.5h3.03Z"/>
    <path class="cls-2" d="M105.34,179.98h.36v.81c0,.2-.03.35-.03.35h.02c.21-.65.69-1.19,1.36-1.19.13,0,.25.03.25.03v.36s-.1-.02-.2-.02c-.66,0-1.08.56-1.27,1.19-.09.3-.13.61-.13.89v1.84h-.36v-4.25Z"/>
    <path class="cls-2" d="M109.88,179.88c1.16,0,1.73.91,1.73,1.94,0,.09-.02.23-.02.23h-3.41c0,1.23.83,1.94,1.82,1.94.82,0,1.32-.54,1.32-.54l.2.3s-.6.59-1.51.59c-1.2,0-2.19-.87-2.19-2.22,0-1.44.98-2.24,2.07-2.24ZM111.24,181.71c-.04-1.04-.66-1.5-1.37-1.5-.78,0-1.5.51-1.66,1.5h3.03Z"/>
    <path class="cls-2" d="M112.95,180.33h-.56v-.32h.56v-1.21h.36v1.21h1.11v.32h-1.11v2.34c0,1.12.67,1.27,1.01,1.27.12,0,.2-.02.2-.02v.33s-.08.02-.21.02c-.44,0-1.35-.16-1.35-1.57v-2.36Z"/>
    <path class="cls-2" d="M117.25,179.88c1.16,0,1.73.91,1.73,1.94,0,.09-.02.23-.02.23h-3.41c0,1.23.83,1.94,1.82,1.94.82,0,1.32-.54,1.32-.54l.2.3s-.59.59-1.51.59c-1.2,0-2.19-.87-2.19-2.22,0-1.44.98-2.24,2.06-2.24ZM118.61,181.71c-.04-1.04-.66-1.5-1.37-1.5-.78,0-1.5.51-1.66,1.5h3.03Z"/>
    <path class="cls-2" d="M120.18,179.98h.36v.75c0,.2-.03.35-.03.35h.02c.14-.4.74-1.2,1.8-1.2s1.4.65,1.4,1.66v2.69h-.36v-2.57c0-.74-.09-1.44-1.05-1.44-.8,0-1.5.56-1.72,1.35-.05.18-.07.37-.07.58v2.07h-.36v-4.25Z"/>
    <path class="cls-2" d="M125.3,180.33h-.56v-.32h.56v-1.21h.36v1.21h1.11v.32h-1.11v2.34c0,1.12.67,1.27,1.01,1.27.12,0,.2-.02.2-.02v.33s-.08.02-.21.02c-.44,0-1.35-.16-1.35-1.57v-2.36Z"/>
    <path class="cls-2" d="M127.8,178.28h.42v.62h-.42v-.62ZM127.83,179.98h.36v4.25h-.36v-4.25Z"/>
    <path class="cls-2" d="M131.57,179.88c1.22,0,2.2.96,2.2,2.2s-.99,2.25-2.2,2.25-2.2-.99-2.2-2.25.99-2.2,2.2-2.2ZM131.57,183.98c1.01,0,1.83-.83,1.83-1.9s-.82-1.85-1.83-1.85-1.83.8-1.83,1.85.82,1.9,1.83,1.9Z"/>
    <path class="cls-2" d="M134.95,179.98h.36v.75c0,.2-.03.35-.03.35h.02c.14-.4.74-1.2,1.8-1.2s1.4.65,1.4,1.66v2.69h-.36v-2.57c0-.74-.09-1.44-1.04-1.44-.8,0-1.5.56-1.72,1.35-.05.18-.07.37-.07.58v2.07h-.36v-4.25Z"/>
    <path class="cls-2" d="M140.02,183.71h.48l-.57,1.32h-.36l.45-1.32Z"/>
  </g>
  <g>
    <path class="cls-2" d="M2.15,197.67c.91,0,1.62-.43,1.62-1.46v-.49c0-.2.03-.35.03-.35h-.02c-.25.52-.72.87-1.43.87-1.1,0-1.89-.87-1.89-2.19s.72-2.16,1.83-2.16c1.21,0,1.48.83,1.48.83h.02s-.03-.06-.03-.16v-.57h.36v4.22c0,1.3-.93,1.81-1.95,1.81-.47,0-.92-.12-1.33-.33l.17-.31s.53.3,1.14.3ZM3.77,194.04c0-1.37-.65-1.81-1.48-1.81-.91,0-1.45.66-1.45,1.81s.63,1.84,1.54,1.84c.75,0,1.39-.47,1.39-1.84Z"/>
    <path class="cls-2" d="M5.62,191.98h.36v.81c0,.2-.03.35-.03.35h.02c.21-.65.69-1.19,1.36-1.19.13,0,.25.03.25.03v.36s-.1-.02-.2-.02c-.66,0-1.08.56-1.27,1.19-.09.3-.13.61-.13.89v1.84h-.36v-4.25Z"/>
    <path class="cls-2" d="M10.29,191.88c1.21,0,2.2.96,2.2,2.2s-.99,2.25-2.2,2.25-2.2-.99-2.2-2.25.99-2.2,2.2-2.2ZM10.29,195.98c1.01,0,1.83-.83,1.83-1.9s-.82-1.85-1.83-1.85-1.83.8-1.83,1.85.82,1.9,1.83,1.9Z"/>
    <path class="cls-2" d="M13.1,191.98h.38l1.16,3.33c.07.2.14.46.14.46h.02s.08-.25.14-.46l1.16-3.31h.4l1.16,3.31c.07.2.14.46.14.46h.02s.07-.25.14-.46l1.16-3.33h.38l-1.5,4.25h-.38l-1.18-3.3c-.08-.2-.14-.46-.14-.46h-.02s-.07.25-.14.46l-1.17,3.3h-.38l-1.5-4.25Z"/>
    <path class="cls-2" d="M20.58,192.33h-.56v-.32h.56v-1.21h.36v1.21h1.11v.32h-1.11v2.34c0,1.12.67,1.27,1.01,1.27.12,0,.2-.02.2-.02v.33s-.08.02-.21.02c-.44,0-1.35-.16-1.35-1.57v-2.36Z"/>
    <path class="cls-2" d="M23.11,190.28h.36v2.45c0,.2-.03.35-.03.35h.02c.14-.4.74-1.2,1.8-1.2s1.4.65,1.4,1.66v2.69h-.36v-2.57c0-.74-.09-1.44-1.05-1.44-.8,0-1.5.56-1.72,1.35-.05.18-.07.37-.07.58v2.07h-.36v-5.95Z"/>
    <path class="cls-2" d="M28.18,195.71h.48l-.57,1.32h-.36l.45-1.32Z"/>
    <path class="cls-2" d="M34.12,191.88c1.07,0,1.47.96,1.47.96h.02s-.03-.15-.03-.35v-2.21h.36v5.95h-.36v-.54c0-.2.03-.32.03-.32h-.02s-.37.96-1.54.96-1.84-.91-1.84-2.23.79-2.23,1.9-2.23ZM34.07,195.98c.78,0,1.51-.55,1.51-1.89,0-.94-.48-1.87-1.48-1.87-.83,0-1.51.69-1.51,1.88s.61,1.88,1.48,1.88Z"/>
    <path class="cls-2" d="M39.19,191.88c1.16,0,1.73.91,1.73,1.94,0,.09-.02.23-.02.23h-3.41c0,1.23.83,1.94,1.82,1.94.82,0,1.32-.54,1.32-.54l.2.3s-.6.59-1.51.59c-1.2,0-2.19-.87-2.19-2.22,0-1.44.98-2.24,2.07-2.24ZM40.55,193.71c-.04-1.04-.66-1.5-1.37-1.5-.78,0-1.5.51-1.66,1.5h3.03Z"/>
    <path class="cls-2" d="M41.53,191.98h.38l1.31,3.33c.08.2.14.46.14.46h.02s.07-.25.14-.46l1.31-3.33h.37l-1.67,4.25h-.34l-1.67-4.25Z"/>
    <path class="cls-2" d="M47.88,191.88c1.16,0,1.73.91,1.73,1.94,0,.09-.02.23-.02.23h-3.41c0,1.23.83,1.94,1.82,1.94.82,0,1.32-.54,1.32-.54l.2.3s-.59.59-1.51.59c-1.2,0-2.19-.87-2.19-2.22,0-1.44.98-2.24,2.06-2.24ZM49.24,193.71c-.04-1.04-.66-1.5-1.37-1.5-.78,0-1.5.51-1.66,1.5h3.03Z"/>
    <path class="cls-2" d="M50.77,190.28h.36v4.98c0,.59.31.66.5.66.07,0,.13,0,.13,0v.33s-.08.02-.15.02c-.25,0-.83-.09-.83-.89v-5.09Z"/>
    <path class="cls-2" d="M54.65,191.88c1.22,0,2.2.96,2.2,2.2s-.99,2.25-2.2,2.25-2.2-.99-2.2-2.25.99-2.2,2.2-2.2ZM54.65,195.98c1.01,0,1.83-.83,1.83-1.9s-.82-1.85-1.83-1.85-1.83.8-1.83,1.85.82,1.9,1.83,1.9Z"/>
    <path class="cls-2" d="M58.04,191.98h.36v.51c0,.2-.03.34-.03.34h.02s.35-.95,1.53-.95,1.84.91,1.84,2.23-.79,2.23-1.89,2.23-1.49-.96-1.49-.96h-.02s.03.15.03.37v2.18h-.36v-5.95ZM59.87,195.98c.83,0,1.51-.69,1.51-1.88s-.61-1.88-1.48-1.88c-.78,0-1.51.55-1.51,1.89,0,.94.53,1.87,1.48,1.87Z"/>
    <path class="cls-2" d="M62.96,191.98h.36v.75c0,.2-.03.35-.03.35h.02c.21-.64.97-1.2,1.63-1.2.85,0,1.25.4,1.34,1.16h.02c.24-.6.88-1.16,1.61-1.16,1.1,0,1.42.65,1.42,1.66v2.69h-.36v-2.57c0-.8-.16-1.45-1.06-1.45-.71,0-1.31.63-1.5,1.29-.06.2-.08.41-.08.65v2.07h-.36v-2.57c0-.73-.1-1.45-1.04-1.45-.76,0-1.35.66-1.55,1.37-.05.18-.07.37-.07.58v2.07h-.36v-4.25Z"/>
    <path class="cls-2" d="M72.53,191.88c1.16,0,1.73.91,1.73,1.94,0,.09-.02.23-.02.23h-3.41c0,1.23.83,1.94,1.82,1.94.82,0,1.32-.54,1.32-.54l.2.3s-.59.59-1.51.59c-1.2,0-2.19-.87-2.19-2.22,0-1.44.98-2.24,2.06-2.24ZM73.89,193.71c-.04-1.04-.66-1.5-1.37-1.5-.78,0-1.5.51-1.66,1.5h3.03Z"/>
    <path class="cls-2" d="M75.46,191.98h.36v.75c0,.2-.03.35-.03.35h.02c.14-.4.74-1.2,1.8-1.2s1.4.65,1.4,1.66v2.69h-.36v-2.57c0-.74-.09-1.44-1.04-1.44-.8,0-1.5.56-1.72,1.35-.05.18-.07.37-.07.58v2.07h-.36v-4.25Z"/>
    <path class="cls-2" d="M80.58,192.33h-.56v-.32h.56v-1.21h.36v1.21h1.11v.32h-1.11v2.34c0,1.12.67,1.27,1.01,1.27.12,0,.2-.02.2-.02v.33s-.08.02-.21.02c-.44,0-1.35-.16-1.35-1.57v-2.36Z"/>
    <path class="cls-2" d="M87.75,193.64h.28v-.14c0-.94-.48-1.27-1.16-1.27-.74,0-1.21.41-1.21.41l-.2-.29s.51-.47,1.44-.47c.98,0,1.5.54,1.5,1.61v2.75h-.36v-.56c0-.23.03-.38.03-.38h-.02s-.38,1.04-1.49,1.04c-.69,0-1.45-.38-1.45-1.23,0-1.44,1.88-1.46,2.63-1.46ZM86.58,196c.93,0,1.45-.96,1.45-1.8v-.23h-.27c-.72,0-2.27,0-2.27,1.1,0,.45.37.93,1.09.93Z"/>
    <path class="cls-2" d="M89.83,191.98h.36v.75c0,.2-.03.35-.03.35h.02c.14-.4.74-1.2,1.8-1.2s1.4.65,1.4,1.66v2.69h-.36v-2.57c0-.74-.09-1.44-1.05-1.44-.8,0-1.5.56-1.72,1.35-.05.18-.07.37-.07.58v2.07h-.36v-4.25Z"/>
    <path class="cls-2" d="M96.43,191.88c1.07,0,1.47.96,1.47.96h.02s-.03-.15-.03-.35v-2.21h.36v5.95h-.36v-.54c0-.2.03-.32.03-.32h-.02s-.37.96-1.54.96-1.84-.91-1.84-2.23.79-2.23,1.9-2.23ZM96.38,195.98c.78,0,1.51-.55,1.51-1.89,0-.94-.48-1.87-1.48-1.87-.83,0-1.51.69-1.51,1.88s.61,1.88,1.48,1.88Z"/>
    <path class="cls-2" d="M101.52,191.98h.38l1.16,3.33c.07.2.14.46.14.46h.02s.08-.25.14-.46l1.16-3.31h.4l1.17,3.31c.07.2.14.46.14.46h.02s.07-.25.14-.46l1.16-3.33h.38l-1.5,4.25h-.38l-1.18-3.3c-.08-.2-.14-.46-.14-.46h-.02s-.07.25-.14.46l-1.17,3.3h-.38l-1.5-4.25Z"/>
    <path class="cls-2" d="M110.63,191.88c1.16,0,1.73.91,1.73,1.94,0,.09-.02.23-.02.23h-3.41c0,1.23.83,1.94,1.82,1.94.82,0,1.32-.54,1.32-.54l.2.3s-.6.59-1.51.59c-1.2,0-2.19-.87-2.19-2.22,0-1.44.98-2.24,2.07-2.24ZM111.99,193.71c-.04-1.04-.66-1.5-1.37-1.5-.78,0-1.5.51-1.66,1.5h3.03Z"/>
    <path class="cls-2" d="M113.53,190.28h.36v4.98c0,.59.31.66.5.66.07,0,.13,0,.13,0v.33s-.08.02-.15.02c-.25,0-.83-.09-.83-.89v-5.09Z"/>
    <path class="cls-2" d="M115.48,190.28h.36v4.98c0,.59.31.66.5.66.07,0,.13,0,.13,0v.33s-.08.02-.15.02c-.25,0-.83-.09-.83-.89v-5.09Z"/>
    <path class="cls-2" d="M117.07,193.65h2.35v.34h-2.35v-.34Z"/>
    <path class="cls-2" d="M120.5,190.28h.36v2.21c0,.2-.03.35-.03.35h.02s.37-.96,1.54-.96,1.83.91,1.83,2.23-.79,2.23-1.9,2.23-1.47-.96-1.47-.96h-.02s.03.15.03.37v.48h-.36v-5.95ZM122.33,195.98c.83,0,1.51-.69,1.51-1.88s-.61-1.88-1.48-1.88c-.78,0-1.51.55-1.51,1.89,0,.94.48,1.87,1.48,1.87Z"/>
    <path class="cls-2" d="M127.19,191.88c1.16,0,1.73.91,1.73,1.94,0,.09-.02.23-.02.23h-3.41c0,1.23.83,1.94,1.82,1.94.82,0,1.32-.54,1.32-.54l.2.3s-.6.59-1.51.59c-1.2,0-2.19-.87-2.19-2.22,0-1.44.98-2.24,2.07-2.24ZM128.55,193.71c-.04-1.04-.66-1.5-1.37-1.5-.78,0-1.5.51-1.66,1.5h3.03Z"/>
    <path class="cls-2" d="M130.09,190.28h.42v.62h-.42v-.62ZM130.12,191.98h.36v4.25h-.36v-4.25Z"/>
    <path class="cls-2" d="M131.98,191.98h.36v.75c0,.2-.03.35-.03.35h.02c.14-.4.74-1.2,1.8-1.2s1.4.65,1.4,1.66v2.69h-.36v-2.57c0-.74-.09-1.44-1.04-1.44-.8,0-1.5.56-1.72,1.35-.05.18-.07.37-.07.58v2.07h-.36v-4.25Z"/>
    <path class="cls-2" d="M138.36,197.67c.91,0,1.62-.43,1.62-1.46v-.49c0-.2.03-.35.03-.35h-.02c-.25.52-.72.87-1.43.87-1.1,0-1.89-.87-1.89-2.19s.72-2.16,1.83-2.16c1.21,0,1.48.83,1.48.83h.02s-.03-.06-.03-.16v-.57h.36v4.22c0,1.3-.93,1.81-1.95,1.81-.47,0-.92-.12-1.33-.33l.17-.31s.53.3,1.14.3ZM139.98,194.04c0-1.37-.65-1.81-1.48-1.81-.91,0-1.45.66-1.45,1.81s.63,1.84,1.54,1.84c.75,0,1.39-.47,1.39-1.84Z"/>
  </g>
  <g>
    <path class="cls-2" d="M2.63,203.88c1.22,0,2.2.96,2.2,2.2s-.99,2.25-2.2,2.25-2.2-.99-2.2-2.25.99-2.2,2.2-2.2ZM2.63,207.99c1.01,0,1.83-.83,1.83-1.9s-.82-1.85-1.83-1.85-1.83.8-1.83,1.85.82,1.9,1.83,1.9Z"/>
    <path class="cls-2" d="M6.17,204.33h-.54v-.32h.54v-.2c0-1.4.92-1.57,1.34-1.57.14,0,.22.02.22.02v.33s-.08-.02-.2-.02c-.34,0-1.01.14-1.01,1.23v.2h1.16v.32h-1.16v3.9h-.36v-3.9Z"/>
    <path class="cls-2" d="M12.83,203.88c1.22,0,2.2.96,2.2,2.2s-.99,2.25-2.2,2.25-2.2-.99-2.2-2.25.99-2.2,2.2-2.2ZM12.83,207.99c1.01,0,1.83-.83,1.83-1.9s-.82-1.85-1.83-1.85-1.83.8-1.83,1.85.82,1.9,1.83,1.9Z"/>
    <path class="cls-2" d="M16.15,203.98h.36v2.57c0,.74.09,1.44,1.05,1.44,1.06,0,1.74-.94,1.74-1.93v-2.07h.36v4.25h-.36v-.75c0-.2.03-.35.03-.35h-.02c-.14.4-.73,1.2-1.76,1.2s-1.4-.58-1.4-1.66v-2.69Z"/>
    <path class="cls-2" d="M21.15,203.98h.36v.81c0,.2-.03.35-.03.35h.02c.21-.65.69-1.19,1.36-1.19.13,0,.25.03.25.03v.36s-.1-.02-.2-.02c-.66,0-1.08.56-1.27,1.19-.09.3-.13.61-.13.89v1.84h-.36v-4.25Z"/>
    <path class="cls-2" d="M26.38,202.28h.36v2.45c0,.2-.03.35-.03.35h.02c.14-.4.74-1.2,1.8-1.2s1.4.65,1.4,1.66v2.69h-.36v-2.57c0-.74-.09-1.44-1.05-1.44-.8,0-1.5.56-1.72,1.35-.05.18-.07.37-.07.58v2.07h-.36v-5.95Z"/>
    <path class="cls-2" d="M31.3,203.98h.36v2.57c0,.74.09,1.44,1.05,1.44,1.06,0,1.74-.94,1.74-1.93v-2.07h.36v4.25h-.36v-.75c0-.2.03-.35.03-.35h-.02c-.14.4-.73,1.2-1.76,1.2s-1.4-.58-1.4-1.66v-2.69Z"/>
    <path class="cls-2" d="M36.29,203.98h.36v.75c0,.2-.03.35-.03.35h.02c.21-.64.97-1.2,1.63-1.2.85,0,1.25.4,1.34,1.16h.02c.24-.6.88-1.16,1.62-1.16,1.1,0,1.42.65,1.42,1.66v2.69h-.36v-2.57c0-.8-.16-1.45-1.06-1.45-.71,0-1.31.63-1.5,1.29-.06.2-.08.41-.08.65v2.07h-.36v-2.57c0-.73-.1-1.45-1.04-1.45-.76,0-1.35.66-1.55,1.37-.05.18-.07.37-.07.58v2.07h-.36v-4.25Z"/>
    <path class="cls-2" d="M46.38,205.64h.28v-.14c0-.94-.48-1.27-1.16-1.27-.74,0-1.21.41-1.21.41l-.2-.29s.51-.47,1.44-.47c.98,0,1.5.54,1.5,1.61v2.75h-.36v-.56c0-.23.03-.38.03-.38h-.02s-.38,1.04-1.49,1.04c-.69,0-1.45-.38-1.45-1.23,0-1.44,1.88-1.46,2.63-1.46ZM45.21,208c.93,0,1.45-.96,1.45-1.8v-.23h-.27c-.72,0-2.27,0-2.27,1.1,0,.45.37.93,1.09.93Z"/>
    <path class="cls-2" d="M48.46,203.98h.36v.75c0,.2-.03.35-.03.35h.02c.14-.4.74-1.2,1.8-1.2s1.4.65,1.4,1.66v2.69h-.36v-2.57c0-.74-.09-1.44-1.05-1.44-.8,0-1.5.56-1.72,1.35-.05.18-.07.37-.07.58v2.07h-.36v-4.25Z"/>
    <path class="cls-2" d="M55.93,204.33h-.56v-.32h.56v-1.21h.36v1.21h1.11v.32h-1.11v2.34c0,1.12.67,1.27,1.01,1.27.12,0,.2-.02.2-.02v.33s-.08.02-.21.02c-.44,0-1.35-.16-1.35-1.57v-2.36Z"/>
    <path class="cls-2" d="M60.75,205.64h.28v-.14c0-.94-.48-1.27-1.16-1.27-.74,0-1.22.41-1.22.41l-.2-.29s.51-.47,1.44-.47c.98,0,1.5.54,1.5,1.61v2.75h-.36v-.56c0-.23.03-.38.03-.38h-.02s-.38,1.04-1.49,1.04c-.69,0-1.44-.38-1.44-1.23,0-1.44,1.88-1.46,2.63-1.46ZM59.58,208c.93,0,1.45-.96,1.45-1.8v-.23h-.27c-.72,0-2.27,0-2.27,1.1,0,.45.37.93,1.09.93Z"/>
    <path class="cls-2" d="M62.78,202.28h.36v4.98c0,.59.31.66.5.66.07,0,.13,0,.13,0v.33s-.08.02-.15.02c-.25,0-.83-.09-.83-.89v-5.09Z"/>
    <path class="cls-2" d="M66.55,203.88c1.16,0,1.73.91,1.73,1.94,0,.09-.02.23-.02.23h-3.41c0,1.23.83,1.94,1.82,1.94.82,0,1.32-.54,1.32-.54l.2.3s-.6.59-1.51.59c-1.2,0-2.19-.87-2.19-2.22,0-1.44.98-2.24,2.07-2.24ZM67.91,205.72c-.04-1.04-.66-1.5-1.37-1.5-.78,0-1.5.51-1.66,1.5h3.03Z"/>
    <path class="cls-2" d="M69.48,203.98h.36v.75c0,.2-.03.35-.03.35h.02c.14-.4.74-1.2,1.8-1.2s1.4.65,1.4,1.66v2.69h-.36v-2.57c0-.74-.09-1.44-1.04-1.44-.8,0-1.5.56-1.72,1.35-.05.18-.07.37-.07.58v2.07h-.36v-4.25Z"/>
    <path class="cls-2" d="M74.59,204.33h-.56v-.32h.56v-1.21h.36v1.21h1.11v.32h-1.11v2.34c0,1.12.67,1.27,1.01,1.27.12,0,.2-.02.2-.02v.33s-.08.02-.21.02c-.44,0-1.35-.16-1.35-1.57v-2.36Z"/>
    <path class="cls-2" d="M77.13,207.7h.52v.54h-.52v-.54Z"/>
  </g>
  <g>
    <path class="cls-1" d="M.9,1.4h2.74c1.33,0,2.26.93,2.26,2.31s-.93,2.34-2.26,2.34h-1.45v2.45H.9V1.4ZM3.4,4.93c.75,0,1.19-.48,1.19-1.22s-.44-1.2-1.17-1.2h-1.23v2.42h1.21Z"/>
    <path class="cls-1" d="M9.43,5.3h.17v-.07c0-.67-.42-.9-.98-.9-.73,0-1.4.49-1.4.49l-.48-.91s.79-.63,2-.63c1.34,0,2.12.74,2.12,2.03v3.19h-1.17v-.42c0-.2.02-.36.02-.36h-.02s-.39.9-1.55.9c-.91,0-1.73-.57-1.73-1.59,0-1.62,2.19-1.73,3.02-1.73ZM8.46,7.63c.67,0,1.15-.72,1.15-1.34v-.12h-.22c-.65,0-1.7.09-1.7.8,0,.34.25.66.77.66Z"/>
    <path class="cls-1" d="M12.33,6.98s.56.56,1.39.56c.36,0,.67-.16.67-.46,0-.76-2.48-.66-2.48-2.3,0-.95.85-1.5,1.95-1.5s1.71.58,1.71.58l-.47.94s-.47-.44-1.25-.44c-.33,0-.65.14-.65.46,0,.72,2.48.63,2.48,2.27,0,.85-.74,1.53-1.95,1.53s-1.98-.75-1.98-.75l.58-.89Z"/>
    <path class="cls-1" d="M16.85,6.98s.56.56,1.39.56c.36,0,.67-.16.67-.46,0-.76-2.48-.66-2.48-2.3,0-.95.85-1.5,1.95-1.5s1.71.58,1.71.58l-.47.94s-.47-.44-1.25-.44c-.33,0-.65.14-.65.46,0,.72,2.48.63,2.48,2.27,0,.85-.74,1.53-1.95,1.53-1.27,0-1.98-.75-1.98-.75l.58-.89Z"/>
    <path class="cls-1" d="M21.22,1.4h1.26v1.13h-1.26v-1.13ZM21.22,3.4h1.27v5.1h-1.27V3.4Z"/>
    <path class="cls-1" d="M26.31,3.28c1.56,0,2.81,1.11,2.81,2.67s-1.25,2.67-2.8,2.67-2.81-1.1-2.81-2.67,1.25-2.67,2.8-2.67ZM26.32,7.54c.82,0,1.51-.64,1.51-1.59s-.69-1.59-1.51-1.59-1.52.65-1.52,1.59.69,1.59,1.52,1.59Z"/>
    <path class="cls-1" d="M30.14,3.4h1.22v.59c0,.19-.02.35-.02.35h.02c.22-.43.78-1.06,1.81-1.06,1.13,0,1.77.59,1.77,1.94v3.28h-1.26v-3.02c0-.62-.16-1.04-.81-1.04s-1.18.43-1.37,1.04c-.07.21-.09.44-.09.68v2.34h-1.27V3.4Z"/>
  </g>
  <g>
    <path class="cls-1" d="M.9,92.09h4.25v1.11h-2.96v1.86h2.39v1.11h-2.39v1.91h3.12v1.11H.9v-7.1Z"/>
    <path class="cls-1" d="M6.45,94.09h1.22v.59c0,.19-.02.35-.02.35h.02c.25-.5.86-1.06,1.66-1.06s1.28.36,1.49,1.05h.02c.28-.55.94-1.05,1.74-1.05,1.06,0,1.67.6,1.67,1.94v3.28h-1.27v-3.04c0-.58-.11-1.02-.7-1.02-.65,0-1.08.52-1.23,1.16-.05.2-.06.42-.06.66v2.24h-1.27v-3.04c0-.55-.09-1.02-.69-1.02-.66,0-1.09.52-1.25,1.17-.05.19-.06.42-.06.65v2.24h-1.27v-5.1Z"/>
    <path class="cls-1" d="M15.58,94.09h1.16v.37c0,.19-.02.35-.02.35h.02s.44-.84,1.64-.84c1.38,0,2.26,1.09,2.26,2.67s-.99,2.67-2.33,2.67c-1.01,0-1.46-.7-1.46-.7h-.02s.02.18.02.44v2.14h-1.27v-7.1ZM18.08,98.24c.7,0,1.28-.57,1.28-1.58s-.52-1.6-1.27-1.6c-.66,0-1.28.48-1.28,1.61,0,.79.43,1.57,1.27,1.57Z"/>
    <path class="cls-1" d="M24.28,95.99h.17v-.07c0-.67-.42-.9-.98-.9-.73,0-1.4.49-1.4.49l-.48-.91s.79-.63,2-.63c1.34,0,2.12.74,2.12,2.03v3.19h-1.17v-.42c0-.2.02-.36.02-.36h-.02s-.39.9-1.55.9c-.91,0-1.73-.57-1.73-1.59,0-1.62,2.19-1.73,3.02-1.73ZM23.31,98.32c.67,0,1.15-.72,1.15-1.34v-.12h-.22c-.65,0-1.7.09-1.7.8,0,.34.25.66.77.66Z"/>
    <path class="cls-1" d="M27.23,95.18h-.66v-1.01h.69v-1.47h1.24v1.47h1.16v1.01h-1.16v1.98c0,.84.66.96,1.01.96.14,0,.23-.02.23-.02v1.11s-.15.03-.39.03c-.71,0-2.12-.21-2.12-1.92v-2.14Z"/>
    <path class="cls-1" d="M30.78,92.09h1.27v2.46c0,.25-.02.43-.02.43h.02c.25-.49.87-1.01,1.76-1.01,1.13,0,1.77.59,1.77,1.94v3.28h-1.26v-3.02c0-.62-.16-1.04-.81-1.04s-1.19.44-1.38,1.06c-.06.2-.08.42-.08.66v2.34h-1.27v-7.1Z"/>
    <path class="cls-1" d="M36.64,100.01s.28.21.57.21c.35,0,.69-.21.88-.66l.19-.45-2.15-5.02h1.43l1.07,2.94c.1.27.19.69.19.69h.02s.08-.4.17-.67l1-2.96h1.39l-2.28,5.87c-.36.93-1.07,1.33-1.84,1.33-.61,0-1.06-.33-1.06-.33l.42-.95Z"/>
  </g>
  <line class="cls-4" x1=".25" y1="15.79" x2="151.73" y2="15.79"/>
  <rect class="cls-3" x="130.91" y="14.37" width="22.68" height="2.84"/>
  <line class="cls-4" x1=".25" y1="106.48" x2="151.73" y2="106.48"/>
  <rect class="cls-3" x="130.91" y="105.06" width="22.68" height="2.83"/>
</svg>