<?xml version="1.0" encoding="UTF-8"?>
<svg id="Layer_1" data-name="Layer 1" xmlns="http://www.w3.org/2000/svg" xmlns:xlink="http://www.w3.org/1999/xlink" viewBox="0 0 171.59 214.02">
  <defs>
    <style>
      .cls-1 {
        clip-path: url(#clippath);
      }

      .cls-2 {
        fill: none;
      }

      .cls-2, .cls-3, .cls-4, .cls-5, .cls-6, .cls-7 {
        stroke-width: 0px;
      }

      .cls-3 {
        fill: #71c7aa;
      }

      .cls-4 {
        fill: #58595b;
      }

      .cls-5 {
        fill: #e6e7e8;
      }

      .cls-6 {
        fill: #fff;
      }

      .cls-7 {
        fill: #a5378a;
      }
    </style>
    <clipPath id="clippath">
      <rect class="cls-2" y="-55.08" width="171.59" height="269.1"/>
    </clipPath>
  </defs>
  <g>
    <path class="cls-4" d="M9.72,68.1s.6.66,1.59.66c.74,0,1.33-.46,1.33-1.17,0-1.69-3.04-1.22-3.04-3.08,0-.79.71-1.54,1.79-1.54.97,0,1.51.55,1.51.55l-.2.31s-.51-.51-1.3-.51c-.88,0-1.41.59-1.41,1.17,0,1.57,3.04,1.09,3.04,3.08,0,.86-.66,1.55-1.72,1.55-1.17,0-1.82-.74-1.82-.74l.25-.28Z"/>
    <path class="cls-4" d="M14.25,63.07h.36v2.45c0,.2-.03.35-.03.35h.02c.14-.4.74-1.2,1.8-1.2s1.4.65,1.4,1.66v2.69h-.36v-2.57c0-.74-.09-1.44-1.04-1.44-.8,0-1.5.56-1.72,1.35-.05.18-.07.37-.07.58v2.07h-.36v-5.95Z"/>
    <path class="cls-4" d="M19.23,64.77h.36v.81c0,.2-.03.35-.03.35h.02c.21-.65.69-1.19,1.36-1.19.13,0,.25.03.25.03v.36s-.1-.02-.2-.02c-.66,0-1.08.56-1.27,1.19-.09.3-.13.61-.13.89v1.84h-.36v-4.25Z"/>
    <path class="cls-4" d="M22.07,63.07h.43v.62h-.43v-.62ZM22.11,64.77h.36v4.25h-.36v-4.25Z"/>
    <path class="cls-4" d="M23.96,64.77h.36v.81c0,.2-.03.35-.03.35h.02c.21-.65.69-1.19,1.36-1.19.13,0,.25.03.25.03v.36s-.1-.02-.2-.02c-.66,0-1.08.56-1.27,1.19-.09.3-.13.61-.13.89v1.84h-.36v-4.25Z"/>
    <path class="cls-4" d="M29.12,66.43h.28v-.14c0-.94-.48-1.27-1.16-1.27-.74,0-1.22.41-1.22.41l-.2-.29s.51-.47,1.44-.47c.98,0,1.5.54,1.5,1.61v2.75h-.36v-.56c0-.23.03-.38.03-.38h-.02s-.38,1.04-1.49,1.04c-.69,0-1.45-.38-1.45-1.23,0-1.44,1.88-1.46,2.63-1.46ZM27.95,68.79c.93,0,1.45-.96,1.45-1.8v-.23h-.27c-.72,0-2.27,0-2.27,1.1,0,.45.37.93,1.09.93Z"/>
    <path class="cls-4" d="M31.19,64.77h.36v.75c0,.2-.04.35-.04.35h.02c.21-.64.97-1.2,1.63-1.2.85,0,1.25.4,1.34,1.16h.02c.24-.6.88-1.16,1.61-1.16,1.1,0,1.42.65,1.42,1.66v2.69h-.36v-2.57c0-.8-.16-1.45-1.06-1.45-.71,0-1.31.63-1.5,1.29-.06.2-.09.41-.09.65v2.07h-.36v-2.57c0-.73-.1-1.45-1.04-1.45-.76,0-1.35.66-1.55,1.37-.05.18-.07.37-.07.58v2.07h-.36v-4.25Z"/>
    <path class="cls-4" d="M41.52,63.07h3v.34h-2.63v2.48h2.28v.34h-2.28v2.79h-.37v-5.95Z"/>
    <path class="cls-4" d="M45.63,63.07h.42v.62h-.42v-.62ZM45.67,64.77h.36v4.25h-.36v-4.25Z"/>
    <path class="cls-4" d="M47.52,64.77h.36v.75c0,.2-.04.35-.04.35h.02c.14-.4.74-1.2,1.8-1.2s1.4.65,1.4,1.66v2.69h-.36v-2.57c0-.74-.09-1.44-1.05-1.44-.8,0-1.5.56-1.72,1.35-.05.18-.07.37-.07.58v2.07h-.36v-4.25Z"/>
    <path class="cls-4" d="M54.79,66.43h.28v-.14c0-.94-.48-1.27-1.16-1.27-.74,0-1.21.41-1.21.41l-.2-.29s.51-.47,1.44-.47c.98,0,1.5.54,1.5,1.61v2.75h-.36v-.56c0-.23.04-.38.04-.38h-.02s-.38,1.04-1.49,1.04c-.69,0-1.44-.38-1.44-1.23,0-1.44,1.88-1.46,2.63-1.46ZM53.62,68.79c.93,0,1.45-.96,1.45-1.8v-.23h-.27c-.72,0-2.27,0-2.27,1.1,0,.45.37.93,1.09.93Z"/>
    <path class="cls-4" d="M56.86,64.77h.36v.75c0,.2-.03.35-.03.35h.02c.14-.4.74-1.2,1.8-1.2s1.4.65,1.4,1.66v2.69h-.36v-2.57c0-.74-.09-1.44-1.05-1.44-.8,0-1.5.56-1.72,1.35-.05.18-.07.37-.07.58v2.07h-.36v-4.25Z"/>
    <path class="cls-4" d="M63.74,64.67c1.01,0,1.52.6,1.52.6l-.22.29s-.48-.54-1.3-.54c-.99,0-1.82.74-1.82,1.89s.82,1.87,1.82,1.87c.94,0,1.42-.61,1.42-.61l.19.3s-.55.66-1.61.66c-1.2,0-2.19-.87-2.19-2.22s1.01-2.24,2.19-2.24Z"/>
    <path class="cls-4" d="M68.27,64.67c1.16,0,1.73.91,1.73,1.94,0,.09-.02.23-.02.23h-3.41c0,1.23.83,1.94,1.82,1.94.82,0,1.32-.54,1.32-.54l.2.3s-.6.59-1.51.59c-1.2,0-2.19-.87-2.19-2.22,0-1.44.98-2.24,2.06-2.24ZM69.63,66.5c-.04-1.04-.66-1.5-1.37-1.5-.78,0-1.5.51-1.66,1.5h3.03Z"/>
    <path class="cls-4" d="M73.73,63.07h.37v5.61h2.84v.34h-3.2v-5.95Z"/>
    <path class="cls-4" d="M77.85,63.07h.42v.62h-.42v-.62ZM77.88,64.77h.36v4.25h-.36v-4.25Z"/>
    <path class="cls-4" d="M79.74,64.77h.36v.75c0,.2-.03.35-.03.35h.02c.21-.64.97-1.2,1.63-1.2.85,0,1.25.4,1.34,1.16h.02c.24-.6.88-1.16,1.61-1.16,1.1,0,1.42.65,1.42,1.66v2.69h-.36v-2.57c0-.8-.16-1.45-1.06-1.45-.71,0-1.31.63-1.5,1.29-.06.2-.08.41-.08.65v2.07h-.36v-2.57c0-.73-.1-1.45-1.04-1.45-.76,0-1.35.66-1.55,1.37-.05.18-.07.37-.07.58v2.07h-.36v-4.25Z"/>
    <path class="cls-4" d="M87.5,63.07h.42v.62h-.42v-.62ZM87.54,64.77h.36v4.25h-.36v-4.25Z"/>
    <path class="cls-4" d="M89.53,65.12h-.56v-.32h.56v-1.21h.36v1.21h1.11v.32h-1.11v2.34c0,1.12.67,1.27,1.01,1.27.12,0,.2-.02.2-.02v.33s-.09.02-.21.02c-.44,0-1.35-.16-1.35-1.57v-2.36Z"/>
    <path class="cls-4" d="M93.83,64.67c1.16,0,1.73.91,1.73,1.94,0,.09-.02.23-.02.23h-3.41c0,1.23.83,1.94,1.82,1.94.82,0,1.32-.54,1.32-.54l.2.3s-.6.59-1.51.59c-1.2,0-2.19-.87-2.19-2.22,0-1.44.98-2.24,2.06-2.24ZM95.19,66.5c-.04-1.04-.66-1.5-1.37-1.5-.78,0-1.5.51-1.66,1.5h3.03Z"/>
    <path class="cls-4" d="M98.38,64.67c1.07,0,1.47.96,1.47.96h.02s-.03-.15-.03-.35v-2.21h.36v5.95h-.36v-.54c0-.2.03-.32.03-.32h-.02s-.37.96-1.54.96-1.84-.91-1.84-2.23.79-2.23,1.9-2.23ZM98.33,68.77c.78,0,1.51-.55,1.51-1.89,0-.94-.48-1.87-1.48-1.87-.83,0-1.51.69-1.51,1.88s.61,1.88,1.48,1.88Z"/>
    <path class="cls-4" d="M104,66.17c0-1.22.34-2.33.93-3.31h.37c-.61,1.03-.96,2.12-.96,3.32,0,1.27.31,2.52.96,3.65h-.37c-.58-1.01-.93-2.33-.93-3.66Z"/>
    <path class="cls-4" d="M106.38,68.1s.6.66,1.59.66c.74,0,1.33-.46,1.33-1.17,0-1.69-3.04-1.22-3.04-3.08,0-.79.71-1.54,1.79-1.54.97,0,1.51.55,1.51.55l-.21.31s-.51-.51-1.3-.51c-.88,0-1.41.59-1.41,1.17,0,1.57,3.04,1.09,3.04,3.08,0,.86-.66,1.55-1.72,1.55-1.17,0-1.82-.74-1.82-.74l.25-.28Z"/>
    <path class="cls-4" d="M111.07,63.07h3v.34h-2.63v2.48h2.28v.34h-2.28v2.79h-.37v-5.95Z"/>
    <path class="cls-4" d="M115.39,63.07h.37v5.61h2.84v.34h-3.21v-5.95Z"/>
    <path class="cls-4" d="M119.14,69.82c.65-1.13.96-2.38.96-3.65,0-1.2-.35-2.29-.96-3.32h.38c.59.99.93,2.09.93,3.31,0,1.33-.36,2.64-.93,3.66h-.38Z"/>
    <path class="cls-4" d="M124.22,63.07h.42v.62h-.42v-.62ZM124.26,64.77h.36v4.25h-.36v-4.25Z"/>
    <path class="cls-4" d="M125.97,68.23s.48.54,1.32.54c.52,0,.98-.27.98-.8,0-1.08-2.34-.77-2.34-2.16,0-.76.64-1.15,1.36-1.15.87,0,1.26.46,1.26.46l-.21.29s-.35-.4-1.07-.4c-.48,0-.96.22-.96.77,0,1.1,2.34.77,2.34,2.18,0,.68-.58,1.15-1.36,1.15-1.03,0-1.54-.61-1.54-.61l.23-.27Z"/>
    <path class="cls-4" d="M134.46,66.43h.28v-.14c0-.94-.48-1.27-1.16-1.27-.74,0-1.22.41-1.22.41l-.2-.29s.51-.47,1.44-.47c.98,0,1.5.54,1.5,1.61v2.75h-.36v-.56c0-.23.03-.38.03-.38h-.02s-.38,1.04-1.49,1.04c-.69,0-1.45-.38-1.45-1.23,0-1.44,1.88-1.46,2.63-1.46ZM133.29,68.79c.93,0,1.45-.96,1.45-1.8v-.23h-.27c-.72,0-2.27,0-2.27,1.1,0,.45.37.93,1.09.93Z"/>
    <path class="cls-4" d="M136.4,68.23s.48.54,1.32.54c.52,0,.98-.27.98-.8,0-1.08-2.34-.77-2.34-2.16,0-.76.64-1.15,1.36-1.15.87,0,1.26.46,1.26.46l-.21.29s-.35-.4-1.07-.4c-.48,0-.96.22-.96.77,0,1.1,2.34.77,2.34,2.18,0,.68-.58,1.15-1.36,1.15-1.03,0-1.54-.61-1.54-.61l.23-.27Z"/>
  </g>
  <g>
    <path class="cls-4" d="M9.88,77.12h-.56v-.32h.56v-1.21h.36v1.21h1.11v.32h-1.11v2.34c0,1.12.67,1.27,1.01,1.27.12,0,.2-.02.2-.02v.33s-.08.02-.21.02c-.44,0-1.35-.16-1.35-1.57v-2.36Z"/>
    <path class="cls-4" d="M12.42,75.07h.36v2.45c0,.2-.03.35-.03.35h.02c.14-.4.74-1.2,1.8-1.2s1.4.65,1.4,1.66v2.69h-.36v-2.57c0-.74-.09-1.44-1.04-1.44-.8,0-1.5.56-1.72,1.35-.05.18-.07.37-.07.58v2.07h-.36v-5.95Z"/>
    <path class="cls-4" d="M19.17,76.67c1.16,0,1.73.91,1.73,1.94,0,.09-.02.23-.02.23h-3.41c0,1.23.83,1.94,1.82,1.94.82,0,1.32-.54,1.32-.54l.2.3s-.6.59-1.51.59c-1.2,0-2.19-.87-2.19-2.22,0-1.44.98-2.24,2.07-2.24ZM20.53,78.5c-.04-1.04-.66-1.5-1.37-1.5-.78,0-1.5.51-1.66,1.5h3.03Z"/>
    <path class="cls-4" d="M24.41,75.07h.36v4.98c0,.59.3.66.5.66.07,0,.13,0,.13,0v.33s-.08.02-.15.02c-.25,0-.83-.09-.83-.89v-5.09Z"/>
    <path class="cls-4" d="M28.69,78.43h.28v-.14c0-.94-.48-1.27-1.16-1.27-.74,0-1.22.41-1.22.41l-.2-.29s.51-.47,1.44-.47c.98,0,1.5.54,1.5,1.61v2.75h-.36v-.56c0-.23.03-.38.03-.38h-.02s-.38,1.04-1.49,1.04c-.69,0-1.45-.38-1.45-1.23,0-1.44,1.88-1.46,2.63-1.46ZM27.52,80.79c.93,0,1.45-.96,1.45-1.8v-.23h-.27c-.72,0-2.27,0-2.27,1.1,0,.45.37.93,1.09.93Z"/>
    <path class="cls-4" d="M30.77,76.77h.36v.81c0,.2-.03.35-.03.35h.02c.21-.65.69-1.19,1.36-1.19.13,0,.25.03.25.03v.36s-.1-.02-.2-.02c-.66,0-1.08.56-1.27,1.19-.09.3-.13.61-.13.89v1.84h-.36v-4.25Z"/>
    <path class="cls-4" d="M35,82.46c.91,0,1.61-.43,1.61-1.46v-.49c0-.2.04-.35.04-.35h-.02c-.25.52-.72.87-1.43.87-1.11,0-1.89-.87-1.89-2.19s.72-2.16,1.83-2.16c1.21,0,1.48.83,1.48.83h.02s-.03-.06-.03-.16v-.57h.36v4.22c0,1.3-.94,1.81-1.95,1.81-.47,0-.92-.12-1.33-.33l.17-.31s.53.3,1.14.3ZM36.62,78.83c0-1.37-.65-1.81-1.48-1.81-.91,0-1.45.66-1.45,1.81s.63,1.84,1.54,1.84c.75,0,1.39-.47,1.39-1.84Z"/>
    <path class="cls-4" d="M40.24,76.67c1.16,0,1.73.91,1.73,1.94,0,.09-.02.23-.02.23h-3.41c0,1.23.83,1.94,1.82,1.94.82,0,1.32-.54,1.32-.54l.2.3s-.59.59-1.51.59c-1.2,0-2.19-.87-2.19-2.22,0-1.44.98-2.24,2.06-2.24ZM41.6,78.5c-.04-1.04-.66-1.5-1.37-1.5-.78,0-1.5.51-1.66,1.5h3.03Z"/>
    <path class="cls-4" d="M43.03,80.24s.48.54,1.32.54c.52,0,.98-.27.98-.8,0-1.08-2.34-.77-2.34-2.16,0-.76.64-1.15,1.36-1.15.87,0,1.26.46,1.26.46l-.21.29s-.35-.4-1.07-.4c-.48,0-.96.22-.96.77,0,1.1,2.34.77,2.34,2.18,0,.68-.58,1.15-1.36,1.15-1.03,0-1.54-.61-1.54-.61l.23-.27Z"/>
    <path class="cls-4" d="M47.01,77.12h-.56v-.32h.56v-1.21h.36v1.21h1.11v.32h-1.11v2.34c0,1.12.67,1.27,1.01,1.27.12,0,.2-.02.2-.02v.33s-.08.02-.21.02c-.44,0-1.35-.16-1.35-1.57v-2.36Z"/>
    <path class="cls-4" d="M51.9,76.77h.36v.81c0,.2-.03.35-.03.35h.02c.21-.65.69-1.19,1.36-1.19.13,0,.25.03.25.03v.36s-.1-.02-.2-.02c-.66,0-1.08.56-1.27,1.19-.09.3-.13.61-.13.89v1.84h-.36v-4.25Z"/>
    <path class="cls-4" d="M56.44,76.67c1.16,0,1.73.91,1.73,1.94,0,.09-.02.23-.02.23h-3.41c0,1.23.83,1.94,1.82,1.94.82,0,1.32-.54,1.32-.54l.2.3s-.6.59-1.51.59c-1.2,0-2.19-.87-2.19-2.22,0-1.44.98-2.24,2.06-2.24ZM57.8,78.5c-.04-1.04-.66-1.5-1.37-1.5-.78,0-1.5.51-1.66,1.5h3.03Z"/>
    <path class="cls-4" d="M59.51,77.12h-.56v-.32h.56v-1.21h.36v1.21h1.11v.32h-1.11v2.34c0,1.12.67,1.27,1.01,1.27.12,0,.2-.02.2-.02v.33s-.09.02-.21.02c-.44,0-1.35-.16-1.35-1.57v-2.36Z"/>
    <path class="cls-4" d="M64.33,78.43h.28v-.14c0-.94-.48-1.27-1.16-1.27-.74,0-1.21.41-1.21.41l-.21-.29s.51-.47,1.44-.47c.98,0,1.5.54,1.5,1.61v2.75h-.36v-.56c0-.23.03-.38.03-.38h-.02s-.38,1.04-1.49,1.04c-.69,0-1.44-.38-1.44-1.23,0-1.44,1.88-1.46,2.63-1.46ZM63.15,80.79c.93,0,1.45-.96,1.45-1.8v-.23h-.27c-.72,0-2.27,0-2.27,1.1,0,.45.37.93,1.09.93Z"/>
    <path class="cls-4" d="M66.37,75.07h.42v.62h-.42v-.62ZM66.4,76.77h.36v4.25h-.36v-4.25Z"/>
    <path class="cls-4" d="M68.21,75.07h.36v4.98c0,.59.31.66.5.66.07,0,.13,0,.13,0v.33s-.08.02-.15.02c-.25,0-.83-.09-.83-.89v-5.09Z"/>
    <path class="cls-4" d="M72.73,75.07h.34l3.39,4.67c.2.27.48.75.48.75h.02s-.04-.45-.04-.75v-4.67h.37v5.95h-.34l-3.39-4.67c-.2-.27-.48-.75-.48-.75h-.02s.04.45.04.75v4.67h-.37v-5.95Z"/>
    <path class="cls-4" d="M79.12,75.07h2c.87,0,1.5.58,1.5,1.49,0,.65-.31,1.08-.77,1.3v.02c.59.16,1.01.74,1.01,1.5,0,1-.71,1.64-1.66,1.64h-2.08v-5.95ZM81.11,77.72c.66,0,1.13-.46,1.13-1.16s-.44-1.15-1.14-1.15h-1.62v2.31h1.62ZM81.17,80.68c.8,0,1.31-.49,1.31-1.3s-.55-1.32-1.32-1.32h-1.67v2.62h1.68Z"/>
    <path class="cls-4" d="M84.38,75.07h3v.34h-2.63v2.48h2.28v.34h-2.28v2.79h-.37v-5.95Z"/>
    <path class="cls-4" d="M91.25,74.97c1.41,0,2.12.75,2.12.75l-.22.27s-.71-.67-1.89-.67c-1.46,0-2.58,1.15-2.58,2.69s1.11,2.77,2.6,2.77c1.27,0,2.01-.81,2.01-.81l.23.25s-.8.9-2.24.9c-1.73,0-2.98-1.39-2.98-3.12s1.27-3.03,2.95-3.03Z"/>
    <path class="cls-4" d="M97.09,75.07h.43v.62h-.43v-.62ZM97.13,76.77h.36v4.25h-.36v-4.25Z"/>
    <path class="cls-4" d="M98.98,76.77h.36v.75c0,.2-.03.35-.03.35h.02c.14-.4.74-1.2,1.8-1.2s1.4.65,1.4,1.66v2.69h-.36v-2.57c0-.74-.09-1.44-1.04-1.44-.8,0-1.5.56-1.72,1.35-.05.18-.07.37-.07.58v2.07h-.36v-4.25Z"/>
    <path class="cls-4" d="M106.45,77.12h-.56v-.32h.56v-1.21h.36v1.21h1.11v.32h-1.11v2.34c0,1.12.67,1.27,1.01,1.27.12,0,.2-.02.2-.02v.33s-.08.02-.21.02c-.44,0-1.35-.16-1.35-1.57v-2.36Z"/>
    <path class="cls-4" d="M108.98,75.07h.36v2.45c0,.2-.03.35-.03.35h.02c.14-.4.74-1.2,1.8-1.2s1.4.65,1.4,1.66v2.69h-.36v-2.57c0-.74-.09-1.44-1.05-1.44-.8,0-1.5.56-1.72,1.35-.05.18-.07.37-.07.58v2.07h-.36v-5.95Z"/>
    <path class="cls-4" d="M115.73,76.67c1.16,0,1.73.91,1.73,1.94,0,.09-.02.23-.02.23h-3.41c0,1.23.83,1.94,1.82,1.94.82,0,1.32-.54,1.32-.54l.2.3s-.6.59-1.51.59c-1.2,0-2.19-.87-2.19-2.22,0-1.44.98-2.24,2.06-2.24ZM117.09,78.5c-.04-1.04-.66-1.5-1.37-1.5-.78,0-1.5.51-1.66,1.5h3.03Z"/>
    <path class="cls-4" d="M122.91,76.67c1.01,0,1.52.6,1.52.6l-.22.29s-.48-.54-1.3-.54c-.99,0-1.82.74-1.82,1.89s.82,1.87,1.82,1.87c.94,0,1.42-.61,1.42-.61l.19.3s-.55.66-1.61.66c-1.2,0-2.19-.87-2.19-2.22s1.01-2.24,2.19-2.24Z"/>
    <path class="cls-4" d="M127.56,76.67c1.21,0,2.2.96,2.2,2.2s-.99,2.25-2.2,2.25-2.2-.99-2.2-2.25.99-2.2,2.2-2.2ZM127.56,80.77c1.01,0,1.83-.83,1.83-1.9s-.82-1.85-1.83-1.85-1.83.8-1.83,1.85.82,1.9,1.83,1.9Z"/>
    <path class="cls-4" d="M130.89,76.77h.36v2.57c0,.74.09,1.44,1.05,1.44,1.06,0,1.74-.94,1.74-1.93v-2.07h.36v4.25h-.36v-.75c0-.2.03-.35.03-.35h-.02c-.14.4-.73,1.2-1.76,1.2s-1.4-.58-1.4-1.66v-2.69Z"/>
    <path class="cls-4" d="M135.89,76.77h.36v.75c0,.2-.03.35-.03.35h.02c.14-.4.74-1.2,1.8-1.2s1.4.65,1.4,1.66v2.69h-.36v-2.57c0-.74-.09-1.44-1.05-1.44-.8,0-1.5.56-1.72,1.35-.05.18-.07.37-.07.58v2.07h-.36v-4.25Z"/>
    <path class="cls-4" d="M141,77.12h-.56v-.32h.56v-1.21h.36v1.21h1.11v.32h-1.11v2.34c0,1.12.67,1.27,1.01,1.27.12,0,.2-.02.2-.02v.33s-.08.02-.21.02c-.44,0-1.35-.16-1.35-1.57v-2.36Z"/>
    <path class="cls-4" d="M143.54,76.77h.36v.81c0,.2-.03.35-.03.35h.02c.21-.65.69-1.19,1.36-1.19.13,0,.25.03.25.03v.36s-.1-.02-.2-.02c-.66,0-1.08.56-1.27,1.19-.09.3-.13.61-.13.89v1.84h-.36v-4.25Z"/>
    <path class="cls-4" d="M145.89,82.26s.24.2.53.2c.41,0,.66-.37.83-.77l.31-.71-1.76-4.22h.38l1.4,3.39c.08.2.15.4.15.4h.02s.06-.2.14-.4l1.4-3.39h.38l-2.18,5.24c-.19.44-.54.79-1.08.79-.41,0-.69-.24-.69-.24l.16-.31Z"/>
    <path class="cls-4" d="M150.42,80.5h.48l-.57,1.32h-.36l.45-1.32Z"/>
  </g>
  <path class="cls-4" d="M9.71,87.07h.36v4.98c0,.59.31.66.5.66.07,0,.13,0,.13,0v.33s-.08.02-.15.02c-.25,0-.83-.09-.83-.89v-5.09ZM13.47,88.67c1.16,0,1.73.91,1.73,1.94,0,.09-.02.23-.02.23h-3.41c0,1.23.83,1.94,1.82,1.94.82,0,1.32-.54,1.32-.54l.2.3s-.59.59-1.51.59c-1.2,0-2.19-.87-2.19-2.22,0-1.44.98-2.24,2.07-2.24ZM14.83,90.51c-.04-1.04-.66-1.5-1.37-1.5-.78,0-1.5.51-1.66,1.5h3.03ZM18.69,90.43h.28v-.14c0-.94-.48-1.27-1.16-1.27-.74,0-1.22.41-1.22.41l-.2-.29s.51-.47,1.44-.47c.98,0,1.5.54,1.5,1.61v2.75h-.36v-.56c0-.23.03-.38.03-.38h-.02s-.38,1.05-1.49,1.05c-.69,0-1.44-.38-1.44-1.23,0-1.44,1.88-1.46,2.63-1.46ZM17.52,92.79c.93,0,1.45-.96,1.45-1.8v-.23h-.27c-.72,0-2.27,0-2.27,1.1,0,.45.37.93,1.09.93ZM22.39,88.67c1.07,0,1.47.96,1.47.96h.02s-.03-.15-.03-.35v-2.21h.36v5.95h-.36v-.54c0-.2.03-.32.03-.32h-.02s-.37.96-1.54.96-1.84-.91-1.84-2.23.79-2.23,1.9-2.23ZM22.34,92.77c.78,0,1.51-.55,1.51-1.89,0-.94-.48-1.87-1.48-1.87-.83,0-1.51.69-1.51,1.88s.61,1.88,1.48,1.88ZM25.66,87.07h.42v.62h-.42v-.62ZM25.69,88.77h.36v4.25h-.36v-4.25ZM27.55,88.77h.36v.75c0,.2-.03.35-.03.35h.02c.14-.4.74-1.2,1.8-1.2s1.4.65,1.4,1.66v2.69h-.36v-2.57c0-.74-.09-1.44-1.05-1.44-.8,0-1.5.56-1.72,1.35-.05.18-.07.37-.07.58v2.07h-.36v-4.25ZM33.93,94.46c.91,0,1.61-.43,1.61-1.46v-.49c0-.2.03-.35.03-.35h-.02c-.25.52-.72.87-1.43.87-1.1,0-1.89-.87-1.89-2.19s.72-2.16,1.83-2.16c1.21,0,1.48.83,1.48.83h.02s-.03-.06-.03-.16v-.57h.36v4.22c0,1.3-.93,1.81-1.95,1.81-.47,0-.92-.12-1.33-.33l.17-.31s.53.3,1.14.3ZM35.55,90.83c0-1.37-.65-1.81-1.48-1.81-.91,0-1.45.66-1.45,1.81s.63,1.84,1.54,1.84c.75,0,1.39-.47,1.39-1.84ZM42.35,89.09h-2.06v3.93h-.36v-3.93h-.54v-.32h.54v-.17c0-1.4.92-1.57,1.34-1.57.14,0,.22.02.22.02v.33s-.08-.02-.2-.02c-.34,0-1.01.14-1.01,1.23v.18h2.41v4.25h-.36v-3.93ZM42.31,87.07h.42v.62h-.42v-.62ZM44.2,88.77h.36v.75c0,.2-.03.35-.03.35h.02c.14-.4.74-1.2,1.8-1.2s1.4.65,1.4,1.66v2.69h-.36v-2.57c0-.74-.09-1.44-1.05-1.44-.8,0-1.5.56-1.72,1.35-.05.18-.07.37-.07.58v2.07h-.36v-4.25ZM51.47,90.43h.28v-.14c0-.94-.48-1.27-1.16-1.27-.74,0-1.22.41-1.22.41l-.2-.29s.51-.47,1.44-.47c.98,0,1.5.54,1.5,1.61v2.75h-.36v-.56c0-.23.03-.38.03-.38h-.02s-.38,1.05-1.49,1.05c-.69,0-1.44-.38-1.44-1.23,0-1.44,1.88-1.46,2.63-1.46ZM50.29,92.79c.93,0,1.45-.96,1.45-1.8v-.23h-.27c-.72,0-2.27,0-2.27,1.1,0,.45.37.93,1.09.93ZM53.54,88.77h.36v.75c0,.2-.03.35-.03.35h.02c.14-.4.74-1.2,1.8-1.2s1.4.65,1.4,1.66v2.69h-.36v-2.57c0-.74-.09-1.44-1.05-1.44-.8,0-1.5.56-1.72,1.35-.05.18-.07.37-.07.58v2.07h-.36v-4.25ZM60.42,88.67c1.01,0,1.52.6,1.52.6l-.22.29s-.48-.54-1.3-.54c-.99,0-1.82.74-1.82,1.89s.82,1.87,1.82,1.87c.93,0,1.42-.61,1.42-.61l.19.3s-.55.66-1.61.66c-1.2,0-2.19-.87-2.19-2.22s1.01-2.24,2.19-2.24ZM63.17,87.07h.42v.62h-.42v-.62ZM63.2,88.77h.36v4.25h-.36v-4.25ZM67.34,90.43h.28v-.14c0-.94-.48-1.27-1.16-1.27-.74,0-1.22.41-1.22.41l-.2-.29s.51-.47,1.44-.47c.98,0,1.5.54,1.5,1.61v2.75h-.36v-.56c0-.23.03-.38.03-.38h-.02s-.38,1.05-1.49,1.05c-.69,0-1.44-.38-1.44-1.23,0-1.44,1.88-1.46,2.63-1.46ZM66.17,92.79c.93,0,1.45-.96,1.45-1.8v-.23h-.27c-.72,0-2.27,0-2.27,1.1,0,.45.37.93,1.09.93ZM69.38,87.07h.36v4.98c0,.59.31.66.5.66.07,0,.13,0,.13,0v.33s-.08.02-.15.02c-.25,0-.83-.09-.83-.89v-5.09ZM73.69,87.07h.42v.62h-.42v-.62ZM73.73,88.77h.36v4.25h-.36v-4.25ZM75.58,88.77h.36v.75c0,.2-.03.35-.03.35h.02c.14-.4.74-1.2,1.8-1.2s1.4.65,1.4,1.66v2.69h-.36v-2.57c0-.74-.09-1.44-1.05-1.44-.8,0-1.5.56-1.72,1.35-.05.18-.07.37-.07.58v2.07h-.36v-4.25ZM82.46,88.67c1.01,0,1.52.6,1.52.6l-.22.29s-.48-.54-1.3-.54c-.99,0-1.82.74-1.82,1.89s.82,1.87,1.82,1.87c.93,0,1.42-.61,1.42-.61l.19.3s-.55.66-1.61.66c-1.2,0-2.19-.87-2.19-2.22s1.01-2.24,2.19-2.24ZM85.2,87.07h.36v4.98c0,.59.31.66.5.66.07,0,.13,0,.13,0v.33s-.08.02-.15.02c-.25,0-.83-.09-.83-.89v-5.09ZM87.14,88.77h.36v2.57c0,.74.09,1.44,1.05,1.44,1.06,0,1.74-.93,1.74-1.93v-2.07h.36v4.25h-.36v-.75c0-.2.03-.35.03-.35h-.02c-.14.4-.73,1.2-1.76,1.2s-1.4-.58-1.4-1.66v-2.69ZM92,92.24s.48.54,1.32.54c.52,0,.98-.27.98-.8,0-1.08-2.34-.77-2.34-2.16,0-.76.64-1.15,1.36-1.15.87,0,1.26.46,1.26.46l-.21.29s-.35-.4-1.07-.4c-.48,0-.96.22-.96.77,0,1.1,2.34.77,2.34,2.18,0,.68-.58,1.15-1.36,1.15-1.03,0-1.54-.61-1.54-.61l.23-.27ZM95.81,87.07h.42v.62h-.42v-.62ZM95.84,88.77h.36v4.25h-.36v-4.25ZM99.58,88.67c1.22,0,2.2.96,2.2,2.2s-.99,2.25-2.2,2.25-2.2-.99-2.2-2.25.99-2.2,2.2-2.2ZM99.58,92.77c1.01,0,1.83-.82,1.83-1.9s-.82-1.85-1.83-1.85-1.83.8-1.83,1.85.82,1.9,1.83,1.9ZM102.97,88.77h.36v.75c0,.2-.03.35-.03.35h.02c.14-.4.74-1.2,1.8-1.2s1.4.65,1.4,1.66v2.69h-.36v-2.57c0-.74-.09-1.44-1.05-1.44-.8,0-1.5.56-1.72,1.35-.05.18-.07.37-.07.58v2.07h-.36v-4.25ZM112.07,88.67c1.16,0,1.73.91,1.73,1.94,0,.09-.02.23-.02.23h-3.41c0,1.23.83,1.94,1.82,1.94.82,0,1.32-.54,1.32-.54l.2.3s-.59.59-1.51.59c-1.2,0-2.19-.87-2.19-2.22,0-1.44.98-2.24,2.07-2.24ZM113.43,90.51c-.04-1.04-.66-1.5-1.37-1.5-.78,0-1.5.51-1.66,1.5h3.03ZM117.77,89.09h-2.24v3.93h-.36v-3.93h-.54v-.32h.54v-.17c0-1.4.92-1.57,1.34-1.57.14,0,.22.02.22.02v.33s-.08-.02-.2-.02c-.34,0-1.01.14-1.01,1.23v.18h2.24v-.17c0-1.4.92-1.57,1.34-1.57.14,0,.22.02.22.02v.33s-.08-.02-.2-.02c-.34,0-1.01.14-1.01,1.23v.18h1.16v.32h-1.16v3.93h-.36v-3.93ZM122.03,88.67c1.22,0,2.2.96,2.2,2.2s-.99,2.25-2.2,2.25-2.2-.99-2.2-2.25.99-2.2,2.2-2.2ZM122.03,92.77c1.01,0,1.83-.82,1.83-1.9s-.82-1.85-1.83-1.85-1.83.8-1.83,1.85.82,1.9,1.83,1.9ZM125.42,88.77h.36v.81c0,.2-.03.35-.03.35h.02c.21-.65.69-1.19,1.36-1.19.13,0,.25.03.25.03v.36s-.1-.02-.2-.02c-.66,0-1.08.56-1.27,1.19-.09.3-.13.61-.13.89v1.84h-.36v-4.25ZM128.42,89.12h-.56v-.32h.56v-1.21h.36v1.21h1.11v.32h-1.11v2.34c0,1.12.67,1.27,1.01,1.27.12,0,.2-.02.2-.02v.33s-.08.02-.21.02c-.44,0-1.35-.16-1.35-1.57v-2.36ZM130.82,92.24s.48.54,1.32.54c.52,0,.98-.27.98-.8,0-1.08-2.34-.77-2.34-2.16,0-.76.64-1.15,1.36-1.15.87,0,1.26.46,1.26.46l-.21.29s-.35-.4-1.07-.4c-.48,0-.96.22-.96.77,0,1.1,2.34.77,2.34,2.18,0,.68-.58,1.15-1.36,1.15-1.03,0-1.54-.61-1.54-.61l.23-.27ZM137.02,87.07h.36v2.21c0,.2-.03.35-.03.35h.02s.37-.96,1.54-.96,1.84.91,1.84,2.23-.79,2.23-1.9,2.23-1.47-.96-1.47-.96h-.02s.03.15.03.37v.48h-.36v-5.95ZM138.85,92.77c.83,0,1.51-.69,1.51-1.88s-.61-1.88-1.48-1.88c-.78,0-1.51.55-1.51,1.89,0,.94.48,1.87,1.48,1.87ZM141.42,94.26s.24.2.53.2c.41,0,.66-.37.83-.76l.31-.71-1.76-4.22h.38l1.4,3.39c.08.2.15.4.15.4h.02s.06-.2.14-.4l1.4-3.39h.38l-2.18,5.24c-.19.44-.54.79-1.08.79-.41,0-.69-.24-.69-.24l.16-.31Z"/>
  <g>
    <path class="cls-4" d="M11.52,100.67c1.16,0,1.73.91,1.73,1.94,0,.09-.02.23-.02.23h-3.41c0,1.23.83,1.94,1.82,1.94.82,0,1.32-.54,1.32-.54l.2.3s-.6.59-1.51.59c-1.2,0-2.19-.87-2.19-2.22,0-1.44.98-2.24,2.06-2.24ZM12.88,102.51c-.04-1.04-.66-1.5-1.37-1.5-.78,0-1.5.51-1.66,1.5h3.03Z"/>
    <path class="cls-4" d="M15.48,102.78l-1.37-2.01h.43l1.03,1.55c.07.11.14.24.14.24h.02s.08-.13.14-.24l1.03-1.55h.43l-1.37,2.01,1.53,2.24h-.44l-1.17-1.76c-.08-.12-.15-.25-.15-.25h-.02s-.07.12-.15.25l-1.17,1.76h-.44l1.53-2.24Z"/>
    <path class="cls-4" d="M18.63,101.12h-.56v-.32h.56v-1.21h.36v1.21h1.11v.32h-1.11v2.34c0,1.12.67,1.27,1.01,1.27.12,0,.2-.02.2-.02v.33s-.08.02-.21.02c-.44,0-1.35-.16-1.35-1.57v-2.36Z"/>
    <path class="cls-4" d="M22.93,100.67c1.16,0,1.73.91,1.73,1.94,0,.09-.02.23-.02.23h-3.41c0,1.23.83,1.94,1.82,1.94.82,0,1.32-.54,1.32-.54l.2.3s-.6.59-1.51.59c-1.2,0-2.19-.87-2.19-2.22,0-1.44.98-2.24,2.07-2.24ZM24.29,102.51c-.04-1.04-.66-1.5-1.37-1.5-.78,0-1.5.51-1.66,1.5h3.03Z"/>
    <path class="cls-4" d="M25.86,100.77h.36v.75c0,.2-.03.35-.03.35h.02c.14-.4.74-1.2,1.8-1.2s1.4.65,1.4,1.66v2.69h-.36v-2.57c0-.74-.09-1.44-1.04-1.44-.8,0-1.5.56-1.72,1.35-.05.18-.07.37-.07.58v2.07h-.36v-4.25Z"/>
    <path class="cls-4" d="M32.47,100.67c1.07,0,1.47.96,1.47.96h.02s-.03-.15-.03-.35v-2.21h.36v5.95h-.36v-.54c0-.2.03-.32.03-.32h-.02s-.37.96-1.54.96-1.84-.91-1.84-2.23.79-2.23,1.9-2.23ZM32.42,104.78c.78,0,1.51-.55,1.51-1.89,0-.94-.48-1.87-1.48-1.87-.83,0-1.51.69-1.51,1.88s.61,1.88,1.48,1.88Z"/>
    <path class="cls-4" d="M35.74,99.07h.43v.62h-.43v-.62ZM35.78,100.77h.36v4.25h-.36v-4.25Z"/>
    <path class="cls-4" d="M37.63,100.77h.36v.75c0,.2-.03.35-.03.35h.02c.14-.4.74-1.2,1.8-1.2s1.4.65,1.4,1.66v2.69h-.36v-2.57c0-.74-.09-1.44-1.04-1.44-.8,0-1.5.56-1.72,1.35-.05.18-.07.37-.07.58v2.07h-.36v-4.25Z"/>
    <path class="cls-4" d="M44.01,106.46c.91,0,1.61-.43,1.61-1.46v-.49c0-.2.04-.35.04-.35h-.02c-.25.52-.72.87-1.43.87-1.11,0-1.89-.87-1.89-2.19s.72-2.16,1.83-2.16c1.21,0,1.48.83,1.48.83h.02s-.03-.06-.03-.16v-.57h.36v4.22c0,1.3-.94,1.81-1.95,1.81-.47,0-.92-.12-1.33-.33l.17-.31s.53.3,1.14.3ZM45.63,102.83c0-1.37-.65-1.81-1.48-1.81-.91,0-1.45.66-1.45,1.81s.63,1.84,1.54,1.84c.75,0,1.39-.47,1.39-1.84Z"/>
    <path class="cls-4" d="M51.6,100.67c1.16,0,1.73.91,1.73,1.94,0,.09-.02.23-.02.23h-3.41c0,1.23.83,1.94,1.82,1.94.82,0,1.32-.54,1.32-.54l.2.3s-.6.59-1.51.59c-1.2,0-2.19-.87-2.19-2.22,0-1.44.98-2.24,2.07-2.24ZM52.96,102.51c-.04-1.04-.66-1.5-1.37-1.5-.78,0-1.5.51-1.66,1.5h3.03Z"/>
    <path class="cls-4" d="M54.4,104.24s.48.54,1.32.54c.52,0,.98-.27.98-.8,0-1.08-2.34-.77-2.34-2.16,0-.76.64-1.15,1.36-1.15.87,0,1.26.46,1.26.46l-.21.29s-.35-.4-1.07-.4c-.48,0-.96.22-.96.77,0,1.1,2.34.77,2.34,2.18,0,.68-.58,1.15-1.36,1.15-1.03,0-1.54-.61-1.54-.61l.23-.27Z"/>
    <path class="cls-4" d="M58.1,104.24s.48.54,1.32.54c.52,0,.98-.27.98-.8,0-1.08-2.34-.77-2.34-2.16,0-.76.64-1.15,1.36-1.15.87,0,1.26.46,1.26.46l-.21.29s-.35-.4-1.07-.4c-.48,0-.96.22-.96.77,0,1.1,2.34.77,2.34,2.18,0,.68-.58,1.15-1.36,1.15-1.03,0-1.54-.61-1.54-.61l.23-.27Z"/>
    <path class="cls-4" d="M63.71,100.67c1.16,0,1.73.91,1.73,1.94,0,.09-.02.23-.02.23h-3.41c0,1.23.83,1.94,1.82,1.94.82,0,1.32-.54,1.32-.54l.2.3s-.59.59-1.51.59c-1.2,0-2.19-.87-2.19-2.22,0-1.44.98-2.24,2.06-2.24ZM65.07,102.51c-.04-1.04-.66-1.5-1.37-1.5-.78,0-1.5.51-1.66,1.5h3.03Z"/>
    <path class="cls-4" d="M66.65,100.77h.36v.75c0,.2-.03.35-.03.35h.02c.14-.4.74-1.2,1.8-1.2s1.4.65,1.4,1.66v2.69h-.36v-2.57c0-.74-.09-1.44-1.05-1.44-.8,0-1.5.56-1.72,1.35-.05.18-.07.37-.07.58v2.07h-.36v-4.25Z"/>
    <path class="cls-4" d="M71.76,101.12h-.56v-.32h.56v-1.21h.36v1.21h1.11v.32h-1.11v2.34c0,1.12.67,1.27,1.01,1.27.12,0,.2-.02.2-.02v.33s-.08.02-.21.02c-.44,0-1.35-.16-1.35-1.57v-2.36Z"/>
    <path class="cls-4" d="M74.26,99.07h.43v.62h-.43v-.62ZM74.3,100.77h.36v4.25h-.36v-4.25Z"/>
    <path class="cls-4" d="M78.44,102.43h.28v-.14c0-.94-.48-1.27-1.16-1.27-.74,0-1.21.41-1.21.41l-.2-.29s.51-.47,1.44-.47c.98,0,1.5.54,1.5,1.61v2.75h-.36v-.56c0-.23.04-.38.04-.38h-.02s-.38,1.04-1.49,1.04c-.69,0-1.44-.38-1.44-1.23,0-1.44,1.88-1.46,2.63-1.46ZM77.26,104.79c.93,0,1.45-.96,1.45-1.8v-.23h-.27c-.72,0-2.27,0-2.27,1.1,0,.45.37.93,1.09.93Z"/>
    <path class="cls-4" d="M80.47,99.07h.36v4.98c0,.59.3.66.5.66.07,0,.13,0,.13,0v.33s-.08.02-.15.02c-.25,0-.83-.09-.83-.89v-5.09Z"/>
    <path class="cls-4" d="M87.41,101.1h-2.06v3.93h-.36v-3.93h-.54v-.32h.54v-.17c0-1.4.92-1.57,1.34-1.57.14,0,.22.02.22.02v.33s-.08-.02-.2-.02c-.34,0-1.01.14-1.01,1.23v.18h2.41v4.25h-.36v-3.93ZM87.38,99.07h.42v.62h-.42v-.62Z"/>
    <path class="cls-4" d="M89.26,100.77h.36v.75c0,.2-.03.35-.03.35h.02c.14-.4.74-1.2,1.8-1.2s1.4.65,1.4,1.66v2.69h-.36v-2.57c0-.74-.09-1.44-1.04-1.44-.8,0-1.5.56-1.72,1.35-.05.18-.07.37-.07.58v2.07h-.36v-4.25Z"/>
    <path class="cls-4" d="M96.53,102.43h.28v-.14c0-.94-.48-1.27-1.16-1.27-.74,0-1.22.41-1.22.41l-.2-.29s.51-.47,1.44-.47c.98,0,1.5.54,1.5,1.61v2.75h-.36v-.56c0-.23.03-.38.03-.38h-.02s-.38,1.04-1.49,1.04c-.69,0-1.45-.38-1.45-1.23,0-1.44,1.88-1.46,2.63-1.46ZM95.36,104.79c.93,0,1.45-.96,1.45-1.8v-.23h-.27c-.72,0-2.27,0-2.27,1.1,0,.45.37.93,1.09.93Z"/>
    <path class="cls-4" d="M98.61,100.77h.36v.75c0,.2-.04.35-.04.35h.02c.14-.4.74-1.2,1.8-1.2s1.4.65,1.4,1.66v2.69h-.36v-2.57c0-.74-.09-1.44-1.05-1.44-.8,0-1.5.56-1.72,1.35-.05.18-.07.37-.07.58v2.07h-.36v-4.25Z"/>
    <path class="cls-4" d="M105.48,100.67c1.01,0,1.52.6,1.52.6l-.22.29s-.49-.54-1.3-.54c-.99,0-1.82.74-1.82,1.89s.83,1.87,1.82,1.87c.93,0,1.42-.61,1.42-.61l.19.3s-.55.66-1.61.66c-1.2,0-2.19-.87-2.19-2.22s1.01-2.24,2.19-2.24Z"/>
    <path class="cls-4" d="M108.24,99.07h.42v.62h-.42v-.62ZM108.27,100.77h.36v4.25h-.36v-4.25Z"/>
    <path class="cls-4" d="M112.41,102.43h.28v-.14c0-.94-.48-1.27-1.16-1.27-.74,0-1.21.41-1.21.41l-.21-.29s.51-.47,1.44-.47c.98,0,1.5.54,1.5,1.61v2.75h-.36v-.56c0-.23.03-.38.03-.38h-.02s-.38,1.04-1.49,1.04c-.69,0-1.44-.38-1.44-1.23,0-1.44,1.88-1.46,2.63-1.46ZM111.24,104.79c.93,0,1.45-.96,1.45-1.8v-.23h-.27c-.72,0-2.27,0-2.27,1.1,0,.45.37.93,1.09.93Z"/>
    <path class="cls-4" d="M114.44,99.07h.36v4.98c0,.59.31.66.5.66.07,0,.13,0,.13,0v.33s-.08.02-.15.02c-.25,0-.83-.09-.83-.89v-5.09Z"/>
    <path class="cls-4" d="M118.66,104.24s.48.54,1.32.54c.52,0,.98-.27.98-.8,0-1.08-2.34-.77-2.34-2.16,0-.76.64-1.15,1.36-1.15.87,0,1.26.46,1.26.46l-.21.29s-.35-.4-1.07-.4c-.48,0-.96.22-.96.77,0,1.1,2.34.77,2.34,2.18,0,.68-.58,1.15-1.36,1.15-1.03,0-1.54-.61-1.54-.61l.23-.27Z"/>
    <path class="cls-4" d="M124.27,100.67c1.16,0,1.73.91,1.73,1.94,0,.09-.02.23-.02.23h-3.41c0,1.23.83,1.94,1.82,1.94.82,0,1.32-.54,1.32-.54l.2.3s-.59.59-1.51.59c-1.2,0-2.19-.87-2.19-2.22,0-1.44.98-2.24,2.06-2.24ZM125.63,102.51c-.04-1.04-.66-1.5-1.37-1.5-.78,0-1.5.51-1.66,1.5h3.03Z"/>
    <path class="cls-4" d="M127.2,100.77h.36v.81c0,.2-.04.35-.04.35h.02c.21-.65.69-1.19,1.36-1.19.13,0,.25.03.25.03v.36s-.1-.02-.2-.02c-.66,0-1.08.56-1.27,1.19-.09.3-.13.61-.13.89v1.84h-.36v-4.25Z"/>
    <path class="cls-4" d="M129.48,100.77h.38l1.31,3.33c.08.2.14.46.14.46h.02s.07-.25.14-.46l1.31-3.33h.37l-1.67,4.25h-.34l-1.67-4.25Z"/>
    <path class="cls-4" d="M134.02,99.07h.42v.62h-.42v-.62ZM134.06,100.77h.36v4.25h-.36v-4.25Z"/>
    <path class="cls-4" d="M137.81,100.67c1.01,0,1.52.6,1.52.6l-.22.29s-.48-.54-1.3-.54c-.99,0-1.82.74-1.82,1.89s.83,1.87,1.82,1.87c.93,0,1.42-.61,1.42-.61l.19.3s-.55.66-1.61.66c-1.2,0-2.19-.87-2.19-2.22s1.01-2.24,2.19-2.24Z"/>
    <path class="cls-4" d="M142.35,100.67c1.16,0,1.73.91,1.73,1.94,0,.09-.02.23-.02.23h-3.41c0,1.23.83,1.94,1.82,1.94.82,0,1.32-.54,1.32-.54l.2.3s-.6.59-1.51.59c-1.2,0-2.19-.87-2.19-2.22,0-1.44.98-2.24,2.07-2.24ZM143.71,102.51c-.04-1.04-.66-1.5-1.37-1.5-.78,0-1.5.51-1.66,1.5h3.03Z"/>
    <path class="cls-4" d="M145.14,104.24s.48.54,1.32.54c.52,0,.98-.27.98-.8,0-1.08-2.34-.77-2.34-2.16,0-.76.64-1.15,1.36-1.15.87,0,1.26.46,1.26.46l-.21.29s-.35-.4-1.07-.4c-.48,0-.96.22-.96.77,0,1.1,2.34.77,2.34,2.18,0,.68-.58,1.15-1.36,1.15-1.03,0-1.54-.61-1.54-.61l.23-.27Z"/>
  </g>
  <g>
    <path class="cls-4" d="M9.88,113.12h-.56v-.32h.56v-1.21h.36v1.21h1.11v.32h-1.11v2.34c0,1.12.67,1.27,1.01,1.27.12,0,.2-.02.2-.02v.33s-.08.02-.21.02c-.44,0-1.35-.16-1.35-1.57v-2.36Z"/>
    <path class="cls-4" d="M14.3,112.67c1.22,0,2.2.96,2.2,2.2s-.99,2.25-2.2,2.25-2.2-.99-2.2-2.25.99-2.2,2.2-2.2ZM14.3,116.78c1.01,0,1.83-.83,1.83-1.9s-.82-1.85-1.83-1.85-1.83.8-1.83,1.85.82,1.9,1.83,1.9Z"/>
    <path class="cls-4" d="M20.04,111.08h.36v2.21c0,.2-.03.35-.03.35h.02s.37-.96,1.54-.96,1.84.91,1.84,2.23-.79,2.23-1.9,2.23-1.47-.96-1.47-.96h-.02s.03.15.03.37v.48h-.36v-5.95ZM21.87,116.78c.83,0,1.51-.69,1.51-1.88s-.61-1.88-1.48-1.88c-.78,0-1.51.55-1.51,1.89,0,.94.49,1.87,1.48,1.87Z"/>
    <path class="cls-4" d="M26.85,112.67c1.21,0,2.2.96,2.2,2.2s-.99,2.25-2.2,2.25-2.2-.99-2.2-2.25.99-2.2,2.2-2.2ZM26.85,116.78c1.01,0,1.83-.83,1.83-1.9s-.82-1.85-1.83-1.85-1.83.8-1.83,1.85.82,1.9,1.83,1.9Z"/>
    <path class="cls-4" d="M30.37,113.12h-.56v-.32h.56v-1.21h.36v1.21h1.11v.32h-1.11v2.34c0,1.12.67,1.27,1.01,1.27.12,0,.2-.02.2-.02v.33s-.08.02-.21.02c-.44,0-1.35-.16-1.35-1.57v-2.36Z"/>
    <path class="cls-4" d="M32.9,111.08h.36v2.45c0,.2-.03.35-.03.35h.02c.14-.4.74-1.2,1.8-1.2s1.4.65,1.4,1.66v2.69h-.36v-2.57c0-.74-.09-1.44-1.05-1.44-.8,0-1.5.56-1.72,1.35-.05.18-.07.37-.07.58v2.07h-.36v-5.95Z"/>
    <path class="cls-4" d="M40.18,112.77h.36v2.57c0,.74.09,1.44,1.04,1.44,1.06,0,1.74-.94,1.74-1.93v-2.07h.36v4.25h-.36v-.75c0-.2.03-.35.03-.35h-.02c-.14.4-.73,1.2-1.76,1.2s-1.4-.58-1.4-1.66v-2.69Z"/>
    <path class="cls-4" d="M45.18,112.77h.36v.75c0,.2-.04.35-.04.35h.02c.14-.4.74-1.2,1.8-1.2s1.4.65,1.4,1.66v2.69h-.36v-2.57c0-.74-.09-1.44-1.05-1.44-.8,0-1.5.56-1.72,1.35-.05.18-.07.37-.07.58v2.07h-.36v-4.25Z"/>
    <path class="cls-4" d="M50.16,111.08h.36v2.21c0,.2-.03.35-.03.35h.02s.37-.96,1.54-.96,1.84.91,1.84,2.23-.79,2.23-1.9,2.23-1.47-.96-1.47-.96h-.02s.03.15.03.37v.48h-.36v-5.95ZM51.98,116.78c.83,0,1.51-.69,1.51-1.88s-.61-1.88-1.48-1.88c-.78,0-1.51.55-1.51,1.89,0,.94.49,1.87,1.48,1.87Z"/>
    <path class="cls-4" d="M57.36,114.43h.28v-.14c0-.94-.48-1.27-1.16-1.27-.74,0-1.21.41-1.21.41l-.21-.29s.51-.47,1.44-.47c.98,0,1.5.54,1.5,1.61v2.75h-.36v-.56c0-.23.03-.38.03-.38h-.02s-.38,1.04-1.49,1.04c-.69,0-1.44-.38-1.44-1.23,0-1.44,1.88-1.46,2.63-1.46ZM56.19,116.8c.93,0,1.45-.96,1.45-1.8v-.23h-.27c-.72,0-2.27,0-2.27,1.1,0,.45.37.93,1.09.93Z"/>
    <path class="cls-4" d="M59.44,112.77h.36v.75c0,.2-.03.35-.03.35h.02c.14-.4.74-1.2,1.8-1.2s1.4.65,1.4,1.66v2.69h-.36v-2.57c0-.74-.09-1.44-1.04-1.44-.8,0-1.5.56-1.72,1.35-.05.18-.07.37-.07.58v2.07h-.36v-4.25Z"/>
    <path class="cls-4" d="M64.42,111.08h.36v3.37h.76l1.38-1.67h.47l-1.54,1.83v.02l1.68,2.41h-.45l-1.54-2.24h-.76v2.24h-.36v-5.95Z"/>
    <path class="cls-4" d="M70.2,112.67c1.16,0,1.73.91,1.73,1.94,0,.09-.02.23-.02.23h-3.41c0,1.23.83,1.94,1.82,1.94.82,0,1.32-.54,1.32-.54l.2.3s-.6.59-1.51.59c-1.2,0-2.19-.87-2.19-2.22,0-1.44.98-2.24,2.07-2.24ZM71.56,114.51c-.04-1.04-.66-1.5-1.37-1.5-.78,0-1.5.51-1.66,1.5h3.03Z"/>
    <path class="cls-4" d="M74.75,112.67c1.07,0,1.47.96,1.47.96h.02s-.03-.15-.03-.35v-2.21h.36v5.95h-.36v-.54c0-.2.03-.32.03-.32h-.02s-.37.96-1.54.96-1.84-.91-1.84-2.23.79-2.23,1.9-2.23ZM74.7,116.78c.78,0,1.51-.55,1.51-1.89,0-.94-.48-1.87-1.48-1.87-.83,0-1.51.69-1.51,1.88s.61,1.88,1.48,1.88Z"/>
    <path class="cls-4" d="M82.7,114.43h.28v-.14c0-.94-.48-1.27-1.16-1.27-.74,0-1.21.41-1.21.41l-.21-.29s.51-.47,1.44-.47c.98,0,1.5.54,1.5,1.61v2.75h-.36v-.56c0-.23.03-.38.03-.38h-.02s-.38,1.04-1.49,1.04c-.69,0-1.44-.38-1.44-1.23,0-1.44,1.88-1.46,2.63-1.46ZM81.53,116.8c.93,0,1.45-.96,1.45-1.8v-.23h-.27c-.72,0-2.27,0-2.27,1.1,0,.45.37.93,1.09.93Z"/>
    <path class="cls-4" d="M84.78,112.77h.36v.75c0,.2-.03.35-.03.35h.02c.14-.4.74-1.2,1.8-1.2s1.4.65,1.4,1.66v2.69h-.36v-2.57c0-.74-.09-1.44-1.04-1.44-.8,0-1.5.56-1.72,1.35-.05.18-.07.37-.07.58v2.07h-.36v-4.25Z"/>
    <path class="cls-4" d="M91.38,112.67c1.07,0,1.47.96,1.47.96h.02s-.03-.15-.03-.35v-2.21h.36v5.95h-.36v-.54c0-.2.03-.32.03-.32h-.02s-.37.96-1.54.96-1.84-.91-1.84-2.23.79-2.23,1.9-2.23ZM91.33,116.78c.78,0,1.51-.55,1.51-1.89,0-.94-.48-1.87-1.48-1.87-.83,0-1.51.69-1.51,1.88s.61,1.88,1.48,1.88Z"/>
    <path class="cls-4" d="M96.98,112.77h.36v2.57c0,.74.09,1.44,1.04,1.44,1.06,0,1.74-.94,1.74-1.93v-2.07h.36v4.25h-.36v-.75c0-.2.03-.35.03-.35h-.02c-.14.4-.73,1.2-1.76,1.2s-1.4-.58-1.4-1.66v-2.69Z"/>
    <path class="cls-4" d="M101.98,112.77h.36v.75c0,.2-.04.35-.04.35h.02c.14-.4.74-1.2,1.8-1.2s1.4.65,1.4,1.66v2.69h-.36v-2.57c0-.74-.09-1.44-1.05-1.44-.8,0-1.5.56-1.72,1.35-.05.18-.07.37-.07.58v2.07h-.36v-4.25Z"/>
    <path class="cls-4" d="M108.58,112.67c1.07,0,1.47.96,1.47.96h.02s-.03-.15-.03-.35v-2.21h.36v5.95h-.36v-.54c0-.2.03-.32.03-.32h-.02s-.37.96-1.54.96-1.84-.91-1.84-2.23.79-2.23,1.9-2.23ZM108.53,116.78c.78,0,1.51-.55,1.51-1.89,0-.94-.48-1.87-1.48-1.87-.83,0-1.51.69-1.51,1.88s.61,1.88,1.48,1.88Z"/>
    <path class="cls-4" d="M113.66,112.67c1.16,0,1.73.91,1.73,1.94,0,.09-.02.23-.02.23h-3.41c0,1.23.83,1.94,1.82,1.94.82,0,1.32-.54,1.32-.54l.2.3s-.59.59-1.51.59c-1.2,0-2.19-.87-2.19-2.22,0-1.44.98-2.24,2.06-2.24ZM115.02,114.51c-.04-1.04-.66-1.5-1.37-1.5-.78,0-1.5.51-1.66,1.5h3.03Z"/>
    <path class="cls-4" d="M116.59,112.77h.36v.81c0,.2-.04.35-.04.35h.02c.21-.65.69-1.19,1.36-1.19.13,0,.25.03.25.03v.36s-.1-.02-.2-.02c-.66,0-1.08.56-1.27,1.19-.09.3-.13.61-.13.89v1.84h-.36v-4.25Z"/>
    <path class="cls-4" d="M119.46,111.08h.36v2.21c0,.2-.03.35-.03.35h.02s.37-.96,1.54-.96,1.83.91,1.83,2.23-.79,2.23-1.9,2.23-1.47-.96-1.47-.96h-.02s.03.15.03.37v.48h-.36v-5.95ZM121.29,116.78c.83,0,1.51-.69,1.51-1.88s-.61-1.88-1.48-1.88c-.78,0-1.51.55-1.51,1.89,0,.94.48,1.87,1.48,1.87Z"/>
    <path class="cls-4" d="M126.67,114.43h.28v-.14c0-.94-.48-1.27-1.16-1.27-.74,0-1.22.41-1.22.41l-.2-.29s.51-.47,1.44-.47c.98,0,1.5.54,1.5,1.61v2.75h-.36v-.56c0-.23.03-.38.03-.38h-.02s-.38,1.04-1.49,1.04c-.69,0-1.45-.38-1.45-1.23,0-1.44,1.88-1.46,2.63-1.46ZM125.5,116.8c.93,0,1.45-.96,1.45-1.8v-.23h-.27c-.72,0-2.27,0-2.27,1.1,0,.45.37.93,1.09.93Z"/>
    <path class="cls-4" d="M128.75,112.77h.36v.75c0,.2-.03.35-.03.35h.02c.14-.4.74-1.2,1.8-1.2s1.4.65,1.4,1.66v2.69h-.36v-2.57c0-.74-.09-1.44-1.04-1.44-.8,0-1.5.56-1.72,1.35-.05.18-.07.37-.07.58v2.07h-.36v-4.25Z"/>
    <path class="cls-4" d="M133.73,111.08h.36v3.37h.76l1.38-1.67h.47l-1.54,1.83v.02l1.68,2.41h-.45l-1.54-2.24h-.76v2.24h-.36v-5.95Z"/>
    <path class="cls-4" d="M139.51,112.67c1.16,0,1.73.91,1.73,1.94,0,.09-.02.23-.02.23h-3.41c0,1.23.83,1.94,1.82,1.94.82,0,1.32-.54,1.32-.54l.2.3s-.59.59-1.51.59c-1.2,0-2.19-.87-2.19-2.22,0-1.44.98-2.24,2.07-2.24ZM140.87,114.51c-.04-1.04-.66-1.5-1.37-1.5-.78,0-1.5.51-1.66,1.5h3.03Z"/>
    <path class="cls-4" d="M144.06,112.67c1.07,0,1.47.96,1.47.96h.02s-.03-.15-.03-.35v-2.21h.36v5.95h-.36v-.54c0-.2.03-.32.03-.32h-.02s-.37.96-1.54.96-1.84-.91-1.84-2.23.79-2.23,1.9-2.23ZM144.01,116.78c.78,0,1.51-.55,1.51-1.89,0-.94-.48-1.87-1.48-1.87-.83,0-1.51.69-1.51,1.88s.61,1.88,1.48,1.88Z"/>
  </g>
  <g>
    <path class="cls-4" d="M9.61,128.24s.48.54,1.32.54c.52,0,.98-.27.98-.8,0-1.08-2.34-.77-2.34-2.16,0-.76.64-1.15,1.36-1.15.87,0,1.26.46,1.26.46l-.21.29s-.35-.4-1.07-.4c-.48,0-.96.22-.96.77,0,1.1,2.34.77,2.34,2.18,0,.68-.58,1.15-1.36,1.15-1.03,0-1.54-.61-1.54-.61l.23-.27Z"/>
    <path class="cls-4" d="M15.22,124.68c1.16,0,1.73.91,1.73,1.94,0,.09-.02.23-.02.23h-3.41c0,1.23.83,1.94,1.82,1.94.82,0,1.32-.54,1.32-.54l.2.3s-.59.59-1.51.59c-1.2,0-2.19-.87-2.19-2.22,0-1.44.98-2.24,2.07-2.24ZM16.58,126.51c-.04-1.04-.66-1.5-1.37-1.5-.78,0-1.5.51-1.66,1.5h3.03Z"/>
    <path class="cls-4" d="M20.05,124.68c1.01,0,1.52.6,1.52.6l-.22.29s-.48-.54-1.3-.54c-.99,0-1.82.74-1.82,1.89s.82,1.87,1.82,1.87c.94,0,1.42-.61,1.42-.61l.19.3s-.55.66-1.61.66c-1.2,0-2.19-.87-2.19-2.22s1.01-2.24,2.19-2.24Z"/>
    <path class="cls-4" d="M22.97,125.13h-.56v-.32h.56v-1.21h.36v1.21h1.11v.32h-1.11v2.34c0,1.12.67,1.27,1.01,1.27.12,0,.2-.02.2-.02v.33s-.08.02-.21.02c-.44,0-1.35-.16-1.35-1.57v-2.36Z"/>
    <path class="cls-4" d="M27.39,124.68c1.22,0,2.2.96,2.2,2.2s-.99,2.25-2.2,2.25-2.2-.99-2.2-2.25.99-2.2,2.2-2.2ZM27.39,128.78c1.01,0,1.83-.83,1.83-1.9s-.82-1.85-1.83-1.85-1.83.8-1.83,1.85.82,1.9,1.83,1.9Z"/>
    <path class="cls-4" d="M30.78,124.78h.36v.81c0,.2-.03.35-.03.35h.02c.21-.65.69-1.19,1.36-1.19.13,0,.25.03.25.03v.36s-.1-.02-.2-.02c-.66,0-1.08.56-1.27,1.19-.09.3-.13.61-.13.89v1.84h-.36v-4.25Z"/>
    <path class="cls-4" d="M33.51,128.24s.48.54,1.32.54c.52,0,.98-.27.98-.8,0-1.08-2.34-.77-2.34-2.16,0-.76.64-1.15,1.36-1.15.87,0,1.26.46,1.26.46l-.21.29s-.35-.4-1.07-.4c-.48,0-.96.22-.96.77,0,1.1,2.34.77,2.34,2.18,0,.68-.58,1.15-1.36,1.15-1.03,0-1.54-.61-1.54-.61l.23-.27Z"/>
    <path class="cls-4" d="M37.36,128.49h.52v.54h-.52v-.54Z"/>
    <path class="cls-4" d="M44.85,123.6s-.12.56-.23.94l-1.26,4.49h-.46l-1.56-5.95h.38l1.26,4.84c.08.29.14.64.14.64h.02s.08-.34.16-.64l1.36-4.84h.41l1.36,4.84c.08.3.15.64.16.64h.02s.07-.35.14-.64l1.3-4.84h.38l-1.61,5.95h-.46l-1.26-4.49c-.11-.38-.23-.94-.23-.94h-.04Z"/>
    <path class="cls-4" d="M49.5,123.08h.42v.62h-.42v-.62ZM49.54,124.78h.36v4.25h-.36v-4.25Z"/>
    <path class="cls-4" d="M51.52,125.13h-.56v-.32h.56v-1.21h.36v1.21h1.11v.32h-1.11v2.34c0,1.12.67,1.27,1.01,1.27.12,0,.2-.02.2-.02v.33s-.08.02-.21.02c-.44,0-1.35-.16-1.35-1.57v-2.36Z"/>
    <path class="cls-4" d="M54.06,123.08h.36v2.45c0,.2-.03.35-.03.35h.02c.14-.4.74-1.2,1.8-1.2s1.4.65,1.4,1.66v2.69h-.36v-2.57c0-.74-.09-1.44-1.04-1.44-.8,0-1.5.56-1.72,1.35-.05.18-.07.37-.07.58v2.07h-.36v-5.95Z"/>
    <path class="cls-4" d="M63.68,126.43h.28v-.14c0-.94-.48-1.27-1.16-1.27-.74,0-1.21.41-1.21.41l-.2-.29s.51-.47,1.44-.47c.98,0,1.5.54,1.5,1.61v2.75h-.36v-.56c0-.23.04-.38.04-.38h-.02s-.38,1.04-1.49,1.04c-.69,0-1.44-.38-1.44-1.23,0-1.44,1.88-1.46,2.63-1.46ZM62.51,128.8c.93,0,1.45-.96,1.45-1.8v-.23h-.27c-.72,0-2.27,0-2.27,1.1,0,.45.37.93,1.09.93Z"/>
    <path class="cls-4" d="M65.75,124.78h.36v.75c0,.2-.03.35-.03.35h.02c.14-.4.74-1.2,1.8-1.2s1.4.65,1.4,1.66v2.69h-.36v-2.57c0-.74-.09-1.44-1.05-1.44-.8,0-1.5.56-1.72,1.35-.05.18-.07.37-.07.58v2.07h-.36v-4.25Z"/>
    <path class="cls-4" d="M74.86,124.68c1.16,0,1.73.91,1.73,1.94,0,.09-.02.23-.02.23h-3.41c0,1.23.83,1.94,1.82,1.94.82,0,1.32-.54,1.32-.54l.2.3s-.59.59-1.51.59c-1.2,0-2.19-.87-2.19-2.22,0-1.44.98-2.24,2.07-2.24ZM76.22,126.51c-.04-1.04-.66-1.5-1.37-1.5-.78,0-1.5.51-1.66,1.5h3.03Z"/>
    <path class="cls-4" d="M78.82,126.78l-1.37-2.01h.43l1.03,1.55c.07.11.14.24.14.24h.02s.08-.13.14-.24l1.03-1.55h.43l-1.37,2.01,1.53,2.24h-.44l-1.17-1.76c-.08-.12-.15-.25-.15-.25h-.02s-.07.12-.15.25l-1.17,1.76h-.44l1.53-2.24Z"/>
    <path class="cls-4" d="M81.97,125.13h-.56v-.32h.56v-1.21h.36v1.21h1.11v.32h-1.11v2.34c0,1.12.67,1.27,1.01,1.27.12,0,.2-.02.2-.02v.33s-.08.02-.21.02c-.44,0-1.35-.16-1.35-1.57v-2.36Z"/>
    <path class="cls-4" d="M86.27,124.68c1.16,0,1.73.91,1.73,1.94,0,.09-.02.23-.02.23h-3.41c0,1.23.83,1.94,1.82,1.94.82,0,1.32-.54,1.32-.54l.2.3s-.59.59-1.51.59c-1.2,0-2.19-.87-2.19-2.22,0-1.44.98-2.24,2.06-2.24ZM87.63,126.51c-.04-1.04-.66-1.5-1.37-1.5-.78,0-1.5.51-1.66,1.5h3.03Z"/>
    <path class="cls-4" d="M89.21,124.78h.36v.75c0,.2-.04.35-.04.35h.02c.14-.4.74-1.2,1.8-1.2s1.4.65,1.4,1.66v2.69h-.36v-2.57c0-.74-.09-1.44-1.05-1.44-.8,0-1.5.56-1.72,1.35-.05.18-.07.37-.07.58v2.07h-.36v-4.25Z"/>
    <path class="cls-4" d="M94.05,128.24s.48.54,1.32.54c.52,0,.98-.27.98-.8,0-1.08-2.34-.77-2.34-2.16,0-.76.64-1.15,1.36-1.15.87,0,1.26.46,1.26.46l-.21.29s-.35-.4-1.07-.4c-.48,0-.96.22-.96.77,0,1.1,2.34.77,2.34,2.18,0,.68-.58,1.15-1.36,1.15-1.03,0-1.54-.61-1.54-.61l.23-.27Z"/>
    <path class="cls-4" d="M97.86,123.08h.42v.62h-.42v-.62ZM97.89,124.78h.36v4.25h-.36v-4.25Z"/>
    <path class="cls-4" d="M99.15,124.78h.38l1.31,3.33c.08.2.14.46.14.46h.02s.07-.25.14-.46l1.31-3.33h.38l-1.67,4.25h-.34l-1.67-4.25Z"/>
    <path class="cls-4" d="M105.5,124.68c1.16,0,1.73.91,1.73,1.94,0,.09-.02.23-.02.23h-3.41c0,1.23.83,1.94,1.82,1.94.82,0,1.32-.54,1.32-.54l.2.3s-.59.59-1.51.59c-1.2,0-2.19-.87-2.19-2.22,0-1.44.98-2.24,2.06-2.24ZM106.86,126.51c-.04-1.04-.66-1.5-1.37-1.5-.78,0-1.5.51-1.66,1.5h3.03Z"/>
    <path class="cls-4" d="M110.79,124.78h.36v.75c0,.2-.03.35-.03.35h.02c.14-.4.74-1.2,1.8-1.2s1.4.65,1.4,1.66v2.69h-.36v-2.57c0-.74-.09-1.44-1.04-1.44-.8,0-1.5.56-1.72,1.35-.05.18-.07.37-.07.58v2.07h-.36v-4.25Z"/>
    <path class="cls-4" d="M117.54,124.68c1.16,0,1.73.91,1.73,1.94,0,.09-.02.23-.02.23h-3.41c0,1.23.83,1.94,1.82,1.94.82,0,1.32-.54,1.32-.54l.2.3s-.6.59-1.51.59c-1.2,0-2.19-.87-2.19-2.22,0-1.44.98-2.24,2.07-2.24ZM118.89,126.51c-.04-1.04-.66-1.5-1.37-1.5-.78,0-1.5.51-1.66,1.5h3.03Z"/>
    <path class="cls-4" d="M120.6,125.13h-.56v-.32h.56v-1.21h.36v1.21h1.11v.32h-1.11v2.34c0,1.12.67,1.27,1.01,1.27.12,0,.2-.02.2-.02v.33s-.08.02-.21.02c-.44,0-1.35-.16-1.35-1.57v-2.36Z"/>
    <path class="cls-4" d="M122.57,124.78h.38l1.16,3.33c.07.2.14.46.14.46h.02s.08-.25.14-.46l1.16-3.31h.4l1.16,3.31c.07.2.14.46.14.46h.02s.07-.25.14-.46l1.16-3.33h.38l-1.5,4.25h-.38l-1.18-3.3c-.08-.2-.14-.46-.14-.46h-.02s-.07.25-.14.46l-1.17,3.3h-.38l-1.5-4.25Z"/>
    <path class="cls-4" d="M131.8,124.68c1.22,0,2.2.96,2.2,2.2s-.99,2.25-2.2,2.25-2.2-.99-2.2-2.25.99-2.2,2.2-2.2ZM131.8,128.78c1.01,0,1.83-.83,1.83-1.9s-.82-1.85-1.83-1.85-1.83.8-1.83,1.85.82,1.9,1.83,1.9Z"/>
    <path class="cls-4" d="M135.18,124.78h.36v.81c0,.2-.03.35-.03.35h.02c.21-.65.69-1.19,1.36-1.19.13,0,.25.03.25.03v.36s-.1-.02-.2-.02c-.66,0-1.08.56-1.27,1.19-.09.3-.13.61-.13.89v1.84h-.36v-4.25Z"/>
    <path class="cls-4" d="M138.05,123.08h.36v3.37h.76l1.38-1.67h.47l-1.54,1.83v.02l1.68,2.41h-.45l-1.54-2.24h-.76v2.24h-.36v-5.95Z"/>
  </g>
  <g>
    <path class="cls-4" d="M11.64,136.68c1.01,0,1.52.6,1.52.6l-.22.29s-.48-.54-1.3-.54c-.99,0-1.82.74-1.82,1.89s.82,1.87,1.82,1.87c.94,0,1.42-.61,1.42-.61l.19.3s-.55.66-1.61.66c-1.2,0-2.19-.87-2.19-2.22s1.01-2.24,2.19-2.24Z"/>
    <path class="cls-4" d="M16.29,136.68c1.21,0,2.2.96,2.2,2.2s-.99,2.25-2.2,2.25-2.2-.99-2.2-2.25.99-2.2,2.2-2.2ZM16.29,140.78c1.01,0,1.83-.83,1.83-1.9s-.82-1.85-1.83-1.85-1.83.8-1.83,1.85.82,1.9,1.83,1.9Z"/>
    <path class="cls-4" d="M19.68,136.78h.36v.75c0,.2-.04.35-.04.35h.02c.21-.64.97-1.2,1.63-1.2.85,0,1.25.4,1.34,1.16h.02c.24-.6.88-1.16,1.61-1.16,1.1,0,1.42.65,1.42,1.66v2.69h-.36v-2.57c0-.8-.16-1.45-1.06-1.45-.71,0-1.31.63-1.5,1.29-.06.2-.09.41-.09.65v2.07h-.36v-2.57c0-.73-.1-1.45-1.04-1.45-.76,0-1.35.66-1.55,1.37-.05.18-.07.37-.07.58v2.07h-.36v-4.25Z"/>
    <path class="cls-4" d="M27.48,136.78h.36v.51c0,.2-.03.34-.03.34h.02s.35-.95,1.53-.95,1.84.91,1.84,2.23-.79,2.23-1.89,2.23-1.49-.96-1.49-.96h-.02s.03.15.03.37v2.18h-.36v-5.95ZM29.31,140.78c.83,0,1.51-.69,1.51-1.88s-.61-1.88-1.48-1.88c-.78,0-1.51.55-1.51,1.89,0,.94.53,1.87,1.48,1.87Z"/>
    <path class="cls-4" d="M32.4,136.78h.36v.81c0,.2-.04.35-.04.35h.02c.21-.65.69-1.19,1.36-1.19.13,0,.25.03.25.03v.36s-.1-.02-.2-.02c-.66,0-1.08.56-1.27,1.19-.09.3-.13.61-.13.89v1.84h-.36v-4.25Z"/>
    <path class="cls-4" d="M35.24,135.08h.42v.62h-.42v-.62ZM35.27,136.78h.36v4.25h-.36v-4.25Z"/>
    <path class="cls-4" d="M36.99,140.25s.48.54,1.32.54c.52,0,.98-.27.98-.8,0-1.08-2.34-.77-2.34-2.16,0-.76.64-1.15,1.36-1.15.87,0,1.26.46,1.26.46l-.21.29s-.35-.4-1.07-.4c-.48,0-.96.22-.96.77,0,1.1,2.34.77,2.34,2.18,0,.68-.58,1.15-1.36,1.15-1.03,0-1.54-.61-1.54-.61l.23-.27Z"/>
    <path class="cls-4" d="M40.8,135.08h.42v.62h-.42v-.62ZM40.83,136.78h.36v4.25h-.36v-4.25Z"/>
    <path class="cls-4" d="M42.69,136.78h.36v.75c0,.2-.03.35-.03.35h.02c.14-.4.74-1.2,1.8-1.2s1.4.65,1.4,1.66v2.69h-.36v-2.57c0-.74-.09-1.44-1.05-1.44-.8,0-1.5.56-1.72,1.35-.05.18-.07.37-.07.58v2.07h-.36v-4.25Z"/>
    <path class="cls-4" d="M49.07,142.47c.91,0,1.62-.43,1.62-1.46v-.49c0-.2.03-.35.03-.35h-.02c-.25.52-.72.87-1.43.87-1.1,0-1.89-.87-1.89-2.19s.72-2.16,1.83-2.16c1.21,0,1.48.83,1.48.83h.02s-.03-.06-.03-.16v-.57h.36v4.22c0,1.3-.93,1.81-1.95,1.81-.47,0-.92-.12-1.33-.33l.17-.31s.53.3,1.14.3ZM50.69,138.84c0-1.37-.65-1.81-1.48-1.81-.91,0-1.45.66-1.45,1.81s.63,1.84,1.54,1.84c.75,0,1.39-.47,1.39-1.84Z"/>
    <path class="cls-4" d="M54.83,140.03s.62.74,1.6.74c.76,0,1.49-.59,1.49-1.46,0-.93-.78-1.42-1.59-1.42h-.41l-.1-.26,1.67-1.95c.13-.15.26-.27.26-.27v-.02s-.16.02-.46.02h-2.44v-.34h3.41v.25l-1.92,2.22c.71,0,1.96.36,1.96,1.76,0,1.02-.86,1.82-1.89,1.82-1.13,0-1.85-.82-1.85-.82l.27-.27Z"/>
    <path class="cls-4" d="M59.51,138.05c0-1.72.49-3.08,2.01-3.08s2.01,1.36,2.01,3.08-.49,3.08-2.01,3.08-2.01-1.35-2.01-3.08ZM63.14,138.05c0-1.53-.36-2.72-1.62-2.72s-1.62,1.19-1.62,2.72.36,2.72,1.62,2.72,1.62-1.18,1.62-2.72Z"/>
    <path class="cls-4" d="M65.8,137.65c-.45-.27-.77-.64-.77-1.21,0-.75.59-1.45,1.75-1.45s1.77.62,1.77,1.5-.74,1.62-.8,1.68c.5.28.88.65.88,1.28,0,.93-.84,1.69-1.91,1.69-.99,0-1.97-.63-1.97-1.8,0-1.09,1.06-1.68,1.06-1.68ZM66.15,137.84c-.12.06-1.03.58-1.03,1.49s.79,1.45,1.59,1.45c.76,0,1.53-.54,1.53-1.33,0-.89-1.16-1.16-2.09-1.61ZM67.41,137.99c.1-.09.76-.71.76-1.51,0-.71-.58-1.15-1.39-1.15-.86,0-1.37.49-1.37,1.1,0,.88,1.09,1.14,2,1.56Z"/>
    <path class="cls-4" d="M69.8,140.71c0-2.07,3.17-2.3,3.17-4.11,0-.71-.53-1.27-1.39-1.27-.95,0-1.44.85-1.44.85l-.27-.19s.54-1.02,1.73-1.02,1.76.78,1.76,1.63c0,2.03-3.16,2.29-3.16,4.08h3.25v.34h-3.62c-.02-.11-.03-.21-.03-.31Z"/>
    <path class="cls-4" d="M77.1,135.08h.36v2.21c0,.2-.03.35-.03.35h.02s.37-.96,1.54-.96,1.83.91,1.83,2.23-.79,2.23-1.9,2.23-1.47-.96-1.47-.96h-.02s.03.15.03.37v.48h-.36v-5.95ZM78.93,140.78c.83,0,1.51-.69,1.51-1.88s-.61-1.88-1.48-1.88c-.78,0-1.51.55-1.51,1.89,0,.94.48,1.87,1.48,1.87Z"/>
    <path class="cls-4" d="M82.02,136.78h.36v.81c0,.2-.03.35-.03.35h.02c.21-.65.69-1.19,1.36-1.19.13,0,.25.03.25.03v.36s-.1-.02-.2-.02c-.66,0-1.08.56-1.27,1.19-.09.3-.13.61-.13.89v1.84h-.36v-4.25Z"/>
    <path class="cls-4" d="M87.18,138.44h.28v-.14c0-.94-.48-1.27-1.16-1.27-.74,0-1.22.41-1.22.41l-.2-.29s.51-.47,1.44-.47c.98,0,1.5.54,1.5,1.61v2.75h-.36v-.56c0-.23.03-.38.03-.38h-.02s-.38,1.04-1.49,1.04c-.69,0-1.45-.38-1.45-1.23,0-1.44,1.88-1.46,2.63-1.46ZM86.01,140.8c.93,0,1.45-.96,1.45-1.8v-.23h-.27c-.72,0-2.27,0-2.27,1.1,0,.45.37.93,1.09.93Z"/>
    <path class="cls-4" d="M89.26,136.78h.36v.75c0,.2-.04.35-.04.35h.02c.14-.4.74-1.2,1.8-1.2s1.4.65,1.4,1.66v2.69h-.36v-2.57c0-.74-.09-1.44-1.05-1.44-.8,0-1.5.56-1.72,1.35-.05.18-.07.37-.07.58v2.07h-.36v-4.25Z"/>
    <path class="cls-4" d="M96.13,136.68c1.01,0,1.52.6,1.52.6l-.22.29s-.49-.54-1.3-.54c-.99,0-1.82.74-1.82,1.89s.83,1.87,1.82,1.87c.93,0,1.42-.61,1.42-.61l.19.3s-.55.66-1.61.66c-1.2,0-2.19-.87-2.19-2.22s1.01-2.24,2.19-2.24Z"/>
    <path class="cls-4" d="M98.92,135.08h.36v2.45c0,.2-.03.35-.03.35h.02c.14-.4.74-1.2,1.8-1.2s1.4.65,1.4,1.66v2.69h-.36v-2.57c0-.74-.09-1.44-1.04-1.44-.8,0-1.5.56-1.72,1.35-.05.18-.07.37-.07.58v2.07h-.36v-5.95Z"/>
    <path class="cls-4" d="M105.67,136.68c1.16,0,1.73.91,1.73,1.94,0,.09-.02.23-.02.23h-3.41c0,1.23.83,1.94,1.82,1.94.82,0,1.32-.54,1.32-.54l.2.3s-.59.59-1.51.59c-1.2,0-2.19-.87-2.19-2.22,0-1.44.98-2.24,2.07-2.24ZM107.03,138.51c-.04-1.04-.66-1.5-1.37-1.5-.78,0-1.5.51-1.66,1.5h3.03Z"/>
    <path class="cls-4" d="M108.47,140.25s.48.54,1.32.54c.52,0,.98-.27.98-.8,0-1.08-2.34-.77-2.34-2.16,0-.76.64-1.15,1.36-1.15.87,0,1.26.46,1.26.46l-.21.29s-.35-.4-1.07-.4c-.48,0-.96.22-.96.77,0,1.1,2.34.77,2.34,2.18,0,.68-.58,1.15-1.36,1.15-1.03,0-1.54-.61-1.54-.61l.23-.27Z"/>
    <path class="cls-4" d="M116.95,138.44h.28v-.14c0-.94-.48-1.27-1.16-1.27-.74,0-1.21.41-1.21.41l-.21-.29s.51-.47,1.44-.47c.98,0,1.5.54,1.5,1.61v2.75h-.36v-.56c0-.23.03-.38.03-.38h-.02s-.38,1.04-1.49,1.04c-.69,0-1.44-.38-1.44-1.23,0-1.44,1.88-1.46,2.63-1.46ZM115.78,140.8c.93,0,1.45-.96,1.45-1.8v-.23h-.27c-.72,0-2.27,0-2.27,1.1,0,.45.37.93,1.09.93Z"/>
    <path class="cls-4" d="M119.02,136.78h.36v.75c0,.2-.03.35-.03.35h.02c.14-.4.74-1.2,1.8-1.2s1.4.65,1.4,1.66v2.69h-.36v-2.57c0-.74-.09-1.44-1.04-1.44-.8,0-1.5.56-1.72,1.35-.05.18-.07.37-.07.58v2.07h-.36v-4.25Z"/>
    <path class="cls-4" d="M125.63,136.68c1.07,0,1.47.96,1.47.96h.02s-.03-.15-.03-.35v-2.21h.36v5.95h-.36v-.54c0-.2.03-.32.03-.32h-.02s-.37.96-1.54.96-1.84-.91-1.84-2.23.79-2.23,1.9-2.23ZM125.58,140.78c.78,0,1.51-.55,1.51-1.89,0-.94-.48-1.87-1.48-1.87-.83,0-1.51.69-1.51,1.88s.61,1.88,1.48,1.88Z"/>
  </g>
  <g>
    <path class="cls-4" d="M12.03,150.44h.28v-.14c0-.94-.48-1.27-1.16-1.27-.74,0-1.21.41-1.21.41l-.21-.29s.51-.47,1.44-.47c.98,0,1.5.54,1.5,1.61v2.75h-.36v-.56c0-.23.03-.38.03-.38h-.02s-.38,1.04-1.49,1.04c-.69,0-1.44-.38-1.44-1.23,0-1.44,1.88-1.46,2.63-1.46ZM10.86,152.8c.93,0,1.45-.96,1.45-1.8v-.23h-.27c-.72,0-2.27,0-2.27,1.1,0,.45.37.93,1.09.93Z"/>
    <path class="cls-4" d="M18.09,148.68c1.07,0,1.47.96,1.47.96h.02s-.03-.15-.03-.35v-2.21h.36v5.95h-.36v-.54c0-.2.03-.32.03-.32h-.02s-.37.96-1.54.96-1.84-.91-1.84-2.23.79-2.23,1.9-2.23ZM18.04,152.79c.78,0,1.51-.55,1.51-1.89,0-.94-.48-1.87-1.48-1.87-.83,0-1.51.69-1.51,1.88s.61,1.88,1.48,1.88Z"/>
    <path class="cls-4" d="M23.16,148.68c1.16,0,1.73.91,1.73,1.94,0,.09-.02.23-.02.23h-3.41c0,1.23.83,1.94,1.82,1.94.82,0,1.32-.54,1.32-.54l.2.3s-.6.59-1.51.59c-1.2,0-2.19-.87-2.19-2.22,0-1.44.98-2.24,2.06-2.24ZM24.52,150.52c-.04-1.04-.66-1.5-1.37-1.5-.78,0-1.5.51-1.66,1.5h3.03Z"/>
    <path class="cls-4" d="M27.72,148.68c1.07,0,1.47.96,1.47.96h.02s-.03-.15-.03-.35v-2.21h.36v5.95h-.36v-.54c0-.2.03-.32.03-.32h-.02s-.37.96-1.54.96-1.84-.91-1.84-2.23.79-2.23,1.9-2.23ZM27.67,152.79c.78,0,1.51-.55,1.51-1.89,0-.94-.48-1.87-1.48-1.87-.83,0-1.51.69-1.51,1.88s.61,1.88,1.48,1.88Z"/>
    <path class="cls-4" d="M30.99,147.08h.43v.62h-.43v-.62ZM31.02,148.78h.36v4.25h-.36v-4.25Z"/>
    <path class="cls-4" d="M34.77,148.68c1.01,0,1.52.6,1.52.6l-.22.29s-.48-.54-1.3-.54c-.99,0-1.82.74-1.82,1.89s.83,1.87,1.82,1.87c.93,0,1.42-.61,1.42-.61l.19.3s-.55.66-1.61.66c-1.2,0-2.19-.87-2.19-2.22s1.01-2.24,2.19-2.24Z"/>
    <path class="cls-4" d="M39.85,150.44h.28v-.14c0-.94-.48-1.27-1.16-1.27-.74,0-1.22.41-1.22.41l-.2-.29s.51-.47,1.44-.47c.98,0,1.5.54,1.5,1.61v2.75h-.36v-.56c0-.23.03-.38.03-.38h-.02s-.38,1.04-1.49,1.04c-.69,0-1.45-.38-1.45-1.23,0-1.44,1.88-1.46,2.63-1.46ZM38.67,152.8c.93,0,1.45-.96,1.45-1.8v-.23h-.27c-.72,0-2.27,0-2.27,1.1,0,.45.37.93,1.09.93Z"/>
    <path class="cls-4" d="M42.03,149.13h-.56v-.32h.56v-1.21h.36v1.21h1.11v.32h-1.11v2.34c0,1.12.67,1.27,1.01,1.27.12,0,.2-.02.2-.02v.33s-.08.02-.21.02c-.44,0-1.35-.16-1.35-1.57v-2.36Z"/>
    <path class="cls-4" d="M46.33,148.68c1.16,0,1.73.91,1.73,1.94,0,.09-.02.23-.02.23h-3.41c0,1.23.83,1.94,1.82,1.94.82,0,1.32-.54,1.32-.54l.2.3s-.59.59-1.51.59c-1.2,0-2.19-.87-2.19-2.22,0-1.44.98-2.24,2.06-2.24ZM47.69,150.52c-.04-1.04-.66-1.5-1.37-1.5-.78,0-1.5.51-1.66,1.5h3.03Z"/>
    <path class="cls-4" d="M50.89,148.68c1.07,0,1.47.96,1.47.96h.02s-.03-.15-.03-.35v-2.21h.36v5.95h-.36v-.54c0-.2.03-.32.03-.32h-.02s-.37.96-1.54.96-1.84-.91-1.84-2.23.79-2.23,1.9-2.23ZM50.84,152.79c.78,0,1.51-.55,1.51-1.89,0-.94-.48-1.87-1.48-1.87-.83,0-1.51.69-1.51,1.88s.61,1.88,1.48,1.88Z"/>
    <path class="cls-4" d="M55.98,148.78h.38l1.16,3.33c.07.2.14.46.14.46h.02s.08-.25.14-.46l1.16-3.31h.4l1.16,3.31c.07.2.14.46.14.46h.02s.07-.25.14-.46l1.16-3.33h.38l-1.5,4.25h-.38l-1.18-3.3c-.08-.2-.14-.46-.14-.46h-.02s-.07.25-.14.46l-1.17,3.3h-.38l-1.5-4.25Z"/>
    <path class="cls-4" d="M65.21,148.68c1.21,0,2.2.96,2.2,2.2s-.99,2.25-2.2,2.25-2.2-.99-2.2-2.25.99-2.2,2.2-2.2ZM65.21,152.79c1.01,0,1.83-.83,1.83-1.9s-.82-1.85-1.83-1.85-1.83.8-1.83,1.85.82,1.9,1.83,1.9Z"/>
    <path class="cls-4" d="M68.59,148.78h.36v.81c0,.2-.03.35-.03.35h.02c.21-.65.69-1.19,1.36-1.19.13,0,.25.03.25.03v.36s-.1-.02-.2-.02c-.66,0-1.08.56-1.27,1.19-.09.3-.13.61-.13.89v1.84h-.36v-4.25Z"/>
    <path class="cls-4" d="M71.46,147.08h.36v3.37h.76l1.38-1.67h.47l-1.54,1.83v.02l1.68,2.41h-.45l-1.54-2.24h-.76v2.24h-.36v-5.95Z"/>
    <path class="cls-4" d="M75.72,149.13h-.54v-.32h.54v-.2c0-1.4.92-1.57,1.34-1.57.14,0,.22.02.22.02v.33s-.08-.02-.2-.02c-.34,0-1.01.14-1.01,1.23v.2h1.17v.32h-1.17v3.9h-.36v-3.9Z"/>
    <path class="cls-4" d="M79.99,148.68c1.22,0,2.2.96,2.2,2.2s-.99,2.25-2.2,2.25-2.2-.99-2.2-2.25.99-2.2,2.2-2.2ZM79.99,152.79c1.01,0,1.83-.83,1.83-1.9s-.82-1.85-1.83-1.85-1.83.8-1.83,1.85.82,1.9,1.83,1.9Z"/>
    <path class="cls-4" d="M83.37,148.78h.36v.81c0,.2-.03.35-.03.35h.02c.21-.65.69-1.19,1.36-1.19.13,0,.25.03.25.03v.36s-.1-.02-.2-.02c-.66,0-1.08.56-1.27,1.19-.09.3-.13.61-.13.89v1.84h-.36v-4.25Z"/>
    <path class="cls-4" d="M88.05,148.68c1.01,0,1.52.6,1.52.6l-.22.29s-.48-.54-1.3-.54c-.99,0-1.82.74-1.82,1.89s.83,1.87,1.82,1.87c.93,0,1.42-.61,1.42-.61l.19.3s-.55.66-1.61.66c-1.2,0-2.19-.87-2.19-2.22s1.01-2.24,2.19-2.24Z"/>
    <path class="cls-4" d="M92.58,148.68c1.16,0,1.73.91,1.73,1.94,0,.09-.02.23-.02.23h-3.41c0,1.23.83,1.94,1.82,1.94.82,0,1.32-.54,1.32-.54l.2.3s-.59.59-1.51.59c-1.2,0-2.19-.87-2.19-2.22,0-1.44.98-2.24,2.06-2.24ZM93.94,150.52c-.04-1.04-.66-1.5-1.37-1.5-.78,0-1.5.51-1.66,1.5h3.03Z"/>
    <path class="cls-4" d="M99.75,148.68c1.22,0,2.2.96,2.2,2.2s-.99,2.25-2.2,2.25-2.2-.99-2.2-2.25.99-2.2,2.2-2.2ZM99.75,152.79c1.01,0,1.83-.83,1.83-1.9s-.82-1.85-1.83-1.85-1.83.8-1.83,1.85.82,1.9,1.83,1.9Z"/>
    <path class="cls-4" d="M103.29,149.13h-.54v-.32h.54v-.2c0-1.4.92-1.57,1.34-1.57.14,0,.22.02.22.02v.33s-.08-.02-.2-.02c-.34,0-1.01.14-1.01,1.23v.2h1.17v.32h-1.17v3.9h-.36v-3.9Z"/>
    <path class="cls-4" d="M110.68,147.97c.14-.3.31-.55.31-.55v-.02s-.17.02-.47.02h-2.89v-.34h3.77v.25l-2.82,5.69h-.38l2.48-5.06Z"/>
    <path class="cls-4" d="M111.72,151.08l3.08-3.99h.34v3.91h.88v.34h-.88v1.7h-.37v-1.7h-3.06v-.25ZM114.78,150.99v-2.79c0-.24.03-.54.03-.54h-.02s-.14.21-.3.41l-2.26,2.9v.02h2.55Z"/>
    <path class="cls-4" d="M117.01,152.51h.48l-.57,1.32h-.36l.45-1.32Z"/>
    <path class="cls-4" d="M118.56,150.35c0-1.45.72-3.38,2.56-3.38.61,0,1.04.24,1.04.24l-.18.33s-.37-.21-.88-.21c-1.38,0-2.07,1.43-2.16,2.74h.02c.33-.5.99-.82,1.68-.82,1.05,0,1.83.74,1.83,1.9,0,1.29-.85,1.98-1.83,1.98-1.32,0-2.08-1.26-2.08-2.78ZM122.09,151.15c0-.95-.6-1.54-1.46-1.54-.92,0-1.65.65-1.65,1.18,0,.82.65,1.98,1.66,1.98.92,0,1.45-.68,1.45-1.62Z"/>
    <path class="cls-4" d="M123.3,151.08l3.08-3.99h.34v3.91h.88v.34h-.88v1.7h-.37v-1.7h-3.06v-.25ZM126.36,150.99v-2.79c0-.24.03-.54.03-.54h-.02s-.14.21-.3.41l-2.26,2.9v.02h2.55Z"/>
    <path class="cls-4" d="M128.79,152.05s.41.73,1.38.73,1.65-.66,1.65-1.56-.72-1.57-1.65-1.57c-.68,0-1.16.36-1.16.36l-.27-.09.34-2.83h2.76v.34h-2.44l-.21,1.78c-.03.23-.06.37-.06.37h.02s.42-.27,1.02-.27c1.14,0,2.03.86,2.03,1.93s-.91,1.91-2.03,1.91-1.67-.86-1.67-.86l.3-.23Z"/>
  </g>
  <g>
    <path class="cls-4" d="M9.71,159.08h.42v.62h-.42v-.62ZM9.75,160.78h.36v4.25h-.36v-4.25Z"/>
    <path class="cls-4" d="M11.6,160.78h.36v.75c0,.2-.03.35-.03.35h.02c.14-.4.74-1.2,1.8-1.2s1.4.65,1.4,1.66v2.69h-.36v-2.57c0-.74-.09-1.44-1.05-1.44-.8,0-1.5.56-1.72,1.35-.05.18-.07.37-.07.58v2.07h-.36v-4.25Z"/>
    <path class="cls-4" d="M18.21,160.68c1.07,0,1.47.96,1.47.96h.02s-.03-.15-.03-.35v-2.21h.36v5.95h-.36v-.54c0-.2.03-.32.03-.32h-.02s-.37.96-1.54.96-1.84-.91-1.84-2.23.79-2.23,1.9-2.23ZM18.15,164.79c.78,0,1.51-.55,1.51-1.89,0-.94-.48-1.87-1.48-1.87-.83,0-1.51.69-1.51,1.88s.61,1.88,1.48,1.88Z"/>
    <path class="cls-4" d="M21.48,159.08h.42v.62h-.42v-.62ZM21.51,160.78h.36v4.25h-.36v-4.25Z"/>
    <path class="cls-4" d="M22.77,160.78h.38l1.31,3.33c.08.2.14.46.14.46h.02s.07-.25.14-.46l1.31-3.33h.37l-1.67,4.25h-.34l-1.67-4.25Z"/>
    <path class="cls-4" d="M27.32,159.08h.43v.62h-.43v-.62ZM27.35,160.78h.36v4.25h-.36v-4.25Z"/>
    <path class="cls-4" d="M30.83,160.68c1.07,0,1.47.96,1.47.96h.02s-.03-.15-.03-.35v-2.21h.36v5.95h-.36v-.54c0-.2.03-.32.03-.32h-.02s-.37.96-1.54.96-1.84-.91-1.84-2.23.79-2.23,1.9-2.23ZM30.78,164.79c.78,0,1.51-.55,1.51-1.89,0-.94-.48-1.87-1.48-1.87-.83,0-1.51.69-1.51,1.88s.61,1.88,1.48,1.88Z"/>
    <path class="cls-4" d="M34.07,160.78h.36v2.57c0,.74.09,1.44,1.04,1.44,1.06,0,1.74-.94,1.74-1.93v-2.07h.36v4.25h-.36v-.75c0-.2.03-.35.03-.35h-.02c-.14.4-.73,1.2-1.76,1.2s-1.4-.58-1.4-1.66v-2.69Z"/>
    <path class="cls-4" d="M41.36,162.44h.28v-.14c0-.94-.48-1.27-1.16-1.27-.74,0-1.21.41-1.21.41l-.21-.29s.51-.47,1.44-.47c.98,0,1.5.54,1.5,1.61v2.75h-.36v-.56c0-.23.03-.38.03-.38h-.02s-.38,1.04-1.49,1.04c-.69,0-1.44-.38-1.44-1.23,0-1.44,1.88-1.46,2.63-1.46ZM40.19,164.8c.93,0,1.45-.96,1.45-1.8v-.23h-.27c-.72,0-2.27,0-2.27,1.1,0,.45.37.93,1.09.93Z"/>
    <path class="cls-4" d="M43.39,159.08h.36v4.98c0,.59.31.66.5.66.07,0,.13,0,.13,0v.33s-.08.02-.15.02c-.25,0-.83-.09-.83-.89v-5.09Z"/>
    <path class="cls-4" d="M45.25,164.25s.48.54,1.32.54c.52,0,.98-.27.98-.8,0-1.08-2.34-.77-2.34-2.16,0-.76.64-1.15,1.36-1.15.87,0,1.26.46,1.26.46l-.21.29s-.35-.4-1.07-.4c-.48,0-.96.22-.96.77,0,1.1,2.34.77,2.34,2.18,0,.68-.58,1.15-1.36,1.15-1.03,0-1.54-.61-1.54-.61l.23-.27Z"/>
    <path class="cls-4" d="M49.18,164.51h.48l-.57,1.32h-.36l.45-1.32Z"/>
    <path class="cls-4" d="M53.47,164.12s.6.66,1.59.66c.74,0,1.33-.46,1.33-1.17,0-1.69-3.04-1.22-3.04-3.08,0-.79.71-1.54,1.79-1.54.97,0,1.51.55,1.51.55l-.2.31s-.51-.51-1.3-.51c-.88,0-1.41.59-1.41,1.17,0,1.57,3.04,1.09,3.04,3.08,0,.86-.66,1.55-1.73,1.55-1.17,0-1.82-.74-1.82-.74l.25-.28Z"/>
    <path class="cls-4" d="M58,159.08h.36v2.45c0,.2-.03.35-.03.35h.02c.14-.4.74-1.2,1.8-1.2s1.4.65,1.4,1.66v2.69h-.36v-2.57c0-.74-.09-1.44-1.05-1.44-.8,0-1.5.56-1.72,1.35-.05.18-.07.37-.07.58v2.07h-.36v-5.95Z"/>
    <path class="cls-4" d="M62.98,160.78h.36v.81c0,.2-.04.35-.04.35h.02c.21-.65.69-1.19,1.36-1.19.13,0,.25.03.25.03v.36s-.1-.02-.2-.02c-.66,0-1.08.56-1.27,1.19-.09.3-.13.61-.13.89v1.84h-.36v-4.25Z"/>
    <path class="cls-4" d="M65.82,159.08h.42v.62h-.42v-.62ZM65.86,160.78h.36v4.25h-.36v-4.25Z"/>
    <path class="cls-4" d="M67.71,160.78h.36v.81c0,.2-.03.35-.03.35h.02c.21-.65.69-1.19,1.36-1.19.13,0,.25.03.25.03v.36s-.1-.02-.2-.02c-.66,0-1.08.56-1.27,1.19-.09.3-.13.61-.13.89v1.84h-.36v-4.25Z"/>
    <path class="cls-4" d="M72.87,162.44h.28v-.14c0-.94-.48-1.27-1.16-1.27-.74,0-1.22.41-1.22.41l-.2-.29s.51-.47,1.44-.47c.98,0,1.5.54,1.5,1.61v2.75h-.36v-.56c0-.23.03-.38.03-.38h-.02s-.38,1.04-1.49,1.04c-.69,0-1.45-.38-1.45-1.23,0-1.44,1.88-1.46,2.63-1.46ZM71.7,164.8c.93,0,1.45-.96,1.45-1.8v-.23h-.27c-.72,0-2.27,0-2.27,1.1,0,.45.37.93,1.09.93Z"/>
    <path class="cls-4" d="M74.94,160.78h.36v.75c0,.2-.03.35-.03.35h.02c.21-.64.97-1.2,1.63-1.2.85,0,1.25.4,1.34,1.16h.02c.24-.6.88-1.16,1.62-1.16,1.1,0,1.42.65,1.42,1.66v2.69h-.36v-2.57c0-.8-.16-1.45-1.06-1.45-.71,0-1.31.63-1.5,1.29-.06.2-.08.41-.08.65v2.07h-.36v-2.57c0-.73-.1-1.45-1.04-1.45-.76,0-1.35.66-1.55,1.37-.05.18-.07.37-.07.58v2.07h-.36v-4.25Z"/>
    <path class="cls-4" d="M85.27,159.08h3v.34h-2.63v2.48h2.28v.34h-2.28v2.79h-.37v-5.95Z"/>
    <path class="cls-4" d="M89.38,159.08h.42v.62h-.42v-.62ZM89.42,160.78h.36v4.25h-.36v-4.25Z"/>
    <path class="cls-4" d="M91.27,160.78h.36v.75c0,.2-.03.35-.03.35h.02c.14-.4.74-1.2,1.8-1.2s1.4.65,1.4,1.66v2.69h-.36v-2.57c0-.74-.09-1.44-1.04-1.44-.8,0-1.5.56-1.72,1.35-.05.18-.07.37-.07.58v2.07h-.36v-4.25Z"/>
    <path class="cls-4" d="M98.54,162.44h.28v-.14c0-.94-.48-1.27-1.16-1.27-.74,0-1.22.41-1.22.41l-.2-.29s.51-.47,1.44-.47c.98,0,1.5.54,1.5,1.61v2.75h-.36v-.56c0-.23.03-.38.03-.38h-.02s-.38,1.04-1.49,1.04c-.69,0-1.45-.38-1.45-1.23,0-1.44,1.88-1.46,2.63-1.46ZM97.36,164.8c.93,0,1.45-.96,1.45-1.8v-.23h-.27c-.72,0-2.27,0-2.27,1.1,0,.45.37.93,1.09.93Z"/>
    <path class="cls-4" d="M100.61,160.78h.36v.75c0,.2-.04.35-.04.35h.02c.14-.4.74-1.2,1.8-1.2s1.4.65,1.4,1.66v2.69h-.36v-2.57c0-.74-.09-1.44-1.05-1.44-.8,0-1.5.56-1.72,1.35-.05.18-.07.37-.07.58v2.07h-.36v-4.25Z"/>
    <path class="cls-4" d="M107.49,160.68c1.01,0,1.52.6,1.52.6l-.22.29s-.49-.54-1.3-.54c-.99,0-1.82.74-1.82,1.89s.83,1.87,1.82,1.87c.93,0,1.42-.61,1.42-.61l.19.3s-.55.66-1.61.66c-1.2,0-2.19-.87-2.19-2.22s1.01-2.24,2.19-2.24Z"/>
    <path class="cls-4" d="M112.02,160.68c1.16,0,1.73.91,1.73,1.94,0,.09-.02.23-.02.23h-3.41c0,1.23.83,1.94,1.82,1.94.82,0,1.32-.54,1.32-.54l.2.3s-.59.59-1.51.59c-1.2,0-2.19-.87-2.19-2.22,0-1.44.98-2.24,2.06-2.24ZM113.38,162.52c-.04-1.04-.66-1.5-1.37-1.5-.78,0-1.5.51-1.66,1.5h3.03Z"/>
    <path class="cls-4" d="M117.3,159.08h.36v2.45c0,.2-.03.35-.03.35h.02c.14-.4.74-1.2,1.8-1.2s1.4.65,1.4,1.66v2.69h-.36v-2.57c0-.74-.09-1.44-1.04-1.44-.8,0-1.5.56-1.72,1.35-.05.18-.07.37-.07.58v2.07h-.36v-5.95Z"/>
    <path class="cls-4" d="M124.57,162.44h.28v-.14c0-.94-.48-1.27-1.16-1.27-.74,0-1.22.41-1.22.41l-.2-.29s.51-.47,1.44-.47c.98,0,1.5.54,1.5,1.61v2.75h-.36v-.56c0-.23.03-.38.03-.38h-.02s-.38,1.04-1.49,1.04c-.69,0-1.45-.38-1.45-1.23,0-1.44,1.88-1.46,2.63-1.46ZM123.4,164.8c.93,0,1.45-.96,1.45-1.8v-.23h-.27c-.72,0-2.27,0-2.27,1.1,0,.45.37.93,1.09.93Z"/>
    <path class="cls-4" d="M126.51,164.25s.48.54,1.32.54c.52,0,.98-.27.98-.8,0-1.08-2.34-.77-2.34-2.16,0-.76.64-1.15,1.36-1.15.87,0,1.26.46,1.26.46l-.21.29s-.35-.4-1.07-.4c-.48,0-.96.22-.96.77,0,1.1,2.34.77,2.34,2.18,0,.68-.58,1.15-1.36,1.15-1.03,0-1.54-.61-1.54-.61l.23-.27Z"/>
  </g>
  <g>
    <path class="cls-4" d="M12.03,174.44h.28v-.14c0-.94-.48-1.27-1.16-1.27-.74,0-1.21.41-1.21.41l-.21-.29s.51-.47,1.44-.47c.98,0,1.5.54,1.5,1.61v2.75h-.36v-.56c0-.23.03-.38.03-.38h-.02s-.38,1.04-1.49,1.04c-.69,0-1.44-.38-1.44-1.23,0-1.44,1.88-1.46,2.63-1.46ZM10.86,176.81c.93,0,1.45-.96,1.45-1.8v-.23h-.27c-.72,0-2.27,0-2.27,1.1,0,.45.37.93,1.09.93Z"/>
    <path class="cls-4" d="M14.11,172.79h.36v.75c0,.2-.03.35-.03.35h.02c.21-.64.97-1.2,1.63-1.2.85,0,1.25.4,1.34,1.16h.02c.24-.6.88-1.16,1.62-1.16,1.1,0,1.42.65,1.42,1.66v2.69h-.36v-2.57c0-.8-.16-1.45-1.06-1.45-.71,0-1.31.63-1.5,1.29-.06.2-.08.41-.08.65v2.07h-.36v-2.57c0-.73-.1-1.45-1.04-1.45-.76,0-1.35.66-1.55,1.37-.05.18-.07.37-.07.58v2.07h-.36v-4.25Z"/>
    <path class="cls-4" d="M24.2,174.44h.28v-.14c0-.94-.48-1.27-1.16-1.27-.74,0-1.22.41-1.22.41l-.2-.29s.51-.47,1.44-.47c.98,0,1.5.54,1.5,1.61v2.75h-.36v-.56c0-.23.03-.38.03-.38h-.02s-.38,1.04-1.49,1.04c-.69,0-1.45-.38-1.45-1.23,0-1.44,1.88-1.46,2.63-1.46ZM23.03,176.81c.93,0,1.45-.96,1.45-1.8v-.23h-.27c-.72,0-2.27,0-2.27,1.1,0,.45.37.93,1.09.93Z"/>
    <path class="cls-4" d="M26.14,176.25s.48.54,1.32.54c.52,0,.98-.27.98-.8,0-1.08-2.34-.77-2.34-2.16,0-.76.64-1.15,1.36-1.15.87,0,1.26.46,1.26.46l-.21.29s-.35-.4-1.07-.4c-.48,0-.96.22-.96.77,0,1.1,2.34.77,2.34,2.18,0,.68-.58,1.15-1.36,1.15-1.03,0-1.54-.61-1.54-.61l.23-.27Z"/>
    <path class="cls-4" d="M29.84,176.25s.48.54,1.32.54c.52,0,.98-.27.98-.8,0-1.08-2.34-.77-2.34-2.16,0-.76.64-1.15,1.36-1.15.87,0,1.26.46,1.26.46l-.21.29s-.35-.4-1.07-.4c-.48,0-.96.22-.96.77,0,1.1,2.34.77,2.34,2.18,0,.68-.58,1.15-1.36,1.15-1.03,0-1.54-.61-1.54-.61l.23-.27Z"/>
    <path class="cls-4" d="M35.45,172.68c1.16,0,1.73.91,1.73,1.94,0,.09-.02.23-.02.23h-3.41c0,1.23.83,1.94,1.82,1.94.82,0,1.32-.54,1.32-.54l.2.3s-.6.59-1.51.59c-1.2,0-2.19-.87-2.19-2.22,0-1.44.98-2.24,2.06-2.24ZM36.81,174.52c-.04-1.04-.66-1.5-1.37-1.5-.78,0-1.5.51-1.66,1.5h3.03Z"/>
    <path class="cls-4" d="M40.01,172.68c1.07,0,1.47.96,1.47.96h.02s-.03-.15-.03-.35v-2.21h.36v5.95h-.36v-.54c0-.2.03-.32.03-.32h-.02s-.37.96-1.54.96-1.84-.91-1.84-2.23.79-2.23,1.9-2.23ZM39.96,176.79c.78,0,1.51-.55,1.51-1.89,0-.94-.48-1.87-1.48-1.87-.83,0-1.51.69-1.51,1.88s.61,1.88,1.48,1.88Z"/>
    <path class="cls-4" d="M47.96,174.44h.28v-.14c0-.94-.48-1.27-1.16-1.27-.74,0-1.21.41-1.21.41l-.2-.29s.51-.47,1.44-.47c.98,0,1.5.54,1.5,1.61v2.75h-.36v-.56c0-.23.04-.38.04-.38h-.02s-.38,1.04-1.49,1.04c-.69,0-1.44-.38-1.44-1.23,0-1.44,1.88-1.46,2.63-1.46ZM46.78,176.81c.93,0,1.45-.96,1.45-1.8v-.23h-.27c-.72,0-2.27,0-2.27,1.1,0,.45.37.93,1.09.93Z"/>
    <path class="cls-4" d="M54.28,172.68c1.01,0,1.52.6,1.52.6l-.22.29s-.49-.54-1.3-.54c-.99,0-1.82.74-1.82,1.89s.83,1.87,1.82,1.87c.93,0,1.42-.61,1.42-.61l.19.3s-.55.66-1.61.66c-1.2,0-2.19-.87-2.19-2.22s1.01-2.24,2.19-2.24Z"/>
    <path class="cls-4" d="M58.93,172.68c1.21,0,2.2.96,2.2,2.2s-.99,2.25-2.2,2.25-2.2-.99-2.2-2.25.99-2.2,2.2-2.2ZM58.93,176.79c1.01,0,1.83-.83,1.83-1.9s-.82-1.85-1.83-1.85-1.83.8-1.83,1.85.82,1.9,1.83,1.9Z"/>
    <path class="cls-4" d="M62.31,172.79h.36v.75c0,.2-.03.35-.03.35h.02c.21-.64.97-1.2,1.63-1.2.85,0,1.25.4,1.34,1.16h.02c.24-.6.88-1.16,1.62-1.16,1.1,0,1.42.65,1.42,1.66v2.69h-.36v-2.57c0-.8-.16-1.45-1.06-1.45-.71,0-1.31.63-1.5,1.29-.06.2-.08.41-.08.65v2.07h-.36v-2.57c0-.73-.1-1.45-1.04-1.45-.76,0-1.35.66-1.55,1.37-.05.18-.07.37-.07.58v2.07h-.36v-4.25Z"/>
    <path class="cls-4" d="M70.11,171.09h.36v2.21c0,.2-.03.35-.03.35h.02s.37-.96,1.54-.96,1.84.91,1.84,2.23-.79,2.23-1.9,2.23-1.47-.96-1.47-.96h-.02s.03.15.03.37v.48h-.36v-5.95ZM71.94,176.79c.83,0,1.51-.69,1.51-1.88s-.61-1.88-1.48-1.88c-.78,0-1.51.55-1.51,1.89,0,.94.48,1.87,1.48,1.87Z"/>
    <path class="cls-4" d="M75,171.09h.42v.62h-.42v-.62ZM75.04,172.79h.36v4.25h-.36v-4.25Z"/>
    <path class="cls-4" d="M76.89,172.79h.36v.75c0,.2-.03.35-.03.35h.02c.14-.4.74-1.2,1.8-1.2s1.4.65,1.4,1.66v2.69h-.36v-2.57c0-.74-.09-1.44-1.05-1.44-.8,0-1.5.56-1.72,1.35-.05.18-.07.37-.07.58v2.07h-.36v-4.25Z"/>
    <path class="cls-4" d="M83.64,172.68c1.16,0,1.73.91,1.73,1.94,0,.09-.02.23-.02.23h-3.41c0,1.23.83,1.94,1.82,1.94.82,0,1.32-.54,1.32-.54l.2.3s-.6.59-1.51.59c-1.2,0-2.19-.87-2.19-2.22,0-1.44.98-2.24,2.06-2.24ZM85,174.52c-.04-1.04-.66-1.5-1.37-1.5-.78,0-1.5.51-1.66,1.5h3.03Z"/>
    <path class="cls-4" d="M88.19,172.68c1.07,0,1.47.96,1.47.96h.02s-.03-.15-.03-.35v-2.21h.36v5.95h-.36v-.54c0-.2.03-.32.03-.32h-.02s-.37.96-1.54.96-1.84-.91-1.84-2.23.79-2.23,1.9-2.23ZM88.14,176.79c.78,0,1.51-.55,1.51-1.89,0-.94-.48-1.87-1.48-1.87-.83,0-1.51.69-1.51,1.88s.61,1.88,1.48,1.88Z"/>
    <path class="cls-4" d="M96.94,174.98h-2.52l-.76,2.06h-.39l2.23-5.95h.39l2.23,5.95h-.39l-.77-2.06ZM95.67,171.51s-.13.46-.22.71l-.91,2.41h2.27l-.9-2.41c-.09-.25-.22-.71-.22-.71h-.02Z"/>
    <path class="cls-4" d="M98.87,176.25s.48.54,1.32.54c.52,0,.98-.27.98-.8,0-1.08-2.34-.77-2.34-2.16,0-.76.64-1.15,1.36-1.15.87,0,1.26.46,1.26.46l-.21.29s-.35-.4-1.07-.4c-.48,0-.96.22-.96.77,0,1.1,2.34.77,2.34,2.18,0,.68-.58,1.15-1.36,1.15-1.03,0-1.54-.61-1.54-.61l.23-.27Z"/>
    <path class="cls-4" d="M102.57,176.25s.48.54,1.32.54c.52,0,.98-.27.98-.8,0-1.08-2.34-.77-2.34-2.16,0-.76.64-1.15,1.36-1.15.87,0,1.26.46,1.26.46l-.21.29s-.35-.4-1.07-.4c-.48,0-.96.22-.96.77,0,1.1,2.34.77,2.34,2.18,0,.68-.58,1.15-1.36,1.15-1.03,0-1.54-.61-1.54-.61l.23-.27Z"/>
    <path class="cls-4" d="M108.18,172.68c1.16,0,1.73.91,1.73,1.94,0,.09-.02.23-.02.23h-3.41c0,1.23.83,1.94,1.82,1.94.82,0,1.32-.54,1.32-.54l.2.3s-.59.59-1.51.59c-1.2,0-2.19-.87-2.19-2.22,0-1.44.98-2.24,2.07-2.24ZM109.54,174.52c-.04-1.04-.66-1.5-1.37-1.5-.78,0-1.5.51-1.66,1.5h3.03Z"/>
    <path class="cls-4" d="M111.25,173.13h-.56v-.32h.56v-1.21h.36v1.21h1.11v.32h-1.11v2.34c0,1.12.67,1.27,1.01,1.27.12,0,.2-.02.2-.02v.33s-.08.02-.21.02c-.44,0-1.35-.16-1.35-1.57v-2.36Z"/>
    <path class="cls-4" d="M113.65,176.25s.48.54,1.32.54c.52,0,.98-.27.98-.8,0-1.08-2.34-.77-2.34-2.16,0-.76.64-1.15,1.36-1.15.87,0,1.26.46,1.26.46l-.21.29s-.35-.4-1.07-.4c-.48,0-.96.22-.96.77,0,1.1,2.34.77,2.34,2.18,0,.68-.58,1.15-1.36,1.15-1.03,0-1.54-.61-1.54-.61l.23-.27Z"/>
    <path class="cls-4" d="M119.93,171.09h.37v3.89c0,1.12.73,1.81,1.85,1.81s1.86-.69,1.86-1.83v-3.88h.37v3.91c0,1.31-.91,2.14-2.22,2.14s-2.23-.83-2.23-2.14v-3.91Z"/>
    <path class="cls-4" d="M125.96,172.79h.36v.75c0,.2-.03.35-.03.35h.02c.14-.4.74-1.2,1.8-1.2s1.4.65,1.4,1.66v2.69h-.36v-2.57c0-.74-.09-1.44-1.04-1.44-.8,0-1.5.56-1.72,1.35-.05.18-.07.37-.07.58v2.07h-.36v-4.25Z"/>
    <path class="cls-4" d="M132.56,172.68c1.07,0,1.47.96,1.47.96h.02s-.03-.15-.03-.35v-2.21h.36v5.95h-.36v-.54c0-.2.03-.32.03-.32h-.02s-.37.96-1.54.96-1.84-.91-1.84-2.23.79-2.23,1.9-2.23ZM132.51,176.79c.78,0,1.51-.55,1.51-1.89,0-.94-.48-1.87-1.48-1.87-.83,0-1.51.69-1.51,1.88s.61,1.88,1.48,1.88Z"/>
    <path class="cls-4" d="M137.64,172.68c1.16,0,1.73.91,1.73,1.94,0,.09-.02.23-.02.23h-3.41c0,1.23.83,1.94,1.82,1.94.82,0,1.32-.54,1.32-.54l.2.3s-.6.59-1.51.59c-1.2,0-2.19-.87-2.19-2.22,0-1.44.98-2.24,2.07-2.24ZM139,174.52c-.04-1.04-.66-1.5-1.37-1.5-.78,0-1.5.51-1.66,1.5h3.03Z"/>
    <path class="cls-4" d="M140.57,172.79h.36v.81c0,.2-.03.35-.03.35h.02c.21-.65.69-1.19,1.36-1.19.13,0,.25.03.25.03v.36s-.1-.02-.2-.02c-.66,0-1.08.56-1.27,1.19-.09.3-.13.61-.13.89v1.84h-.36v-4.25Z"/>
  </g>
  <g>
    <path class="cls-4" d="M10.22,183.09h.36l1.73,3.74c.14.29.29.67.29.67h.02s.15-.38.29-.67l1.73-3.74h.36l.48,5.95h-.37l-.37-4.54c-.03-.29-.03-.79-.03-.79h-.02s-.17.5-.31.79l-1.6,3.39h-.37l-1.59-3.39c-.13-.28-.31-.81-.31-.81h-.02s0,.52-.03.81l-.37,4.54h-.37l.48-5.95Z"/>
    <path class="cls-4" d="M19.26,186.45h.28v-.14c0-.94-.48-1.27-1.16-1.27-.74,0-1.21.41-1.21.41l-.2-.29s.51-.47,1.44-.47c.98,0,1.5.54,1.5,1.61v2.75h-.36v-.56c0-.23.04-.38.04-.38h-.02s-.38,1.04-1.49,1.04c-.69,0-1.44-.38-1.44-1.23,0-1.44,1.88-1.46,2.63-1.46ZM18.09,188.81c.93,0,1.45-.96,1.45-1.8v-.23h-.27c-.72,0-2.27,0-2.27,1.1,0,.45.37.93,1.09.93Z"/>
    <path class="cls-4" d="M21.33,184.79h.36v.75c0,.2-.03.35-.03.35h.02c.14-.4.74-1.2,1.8-1.2s1.4.65,1.4,1.66v2.69h-.36v-2.57c0-.74-.09-1.44-1.05-1.44-.8,0-1.5.56-1.72,1.35-.05.18-.07.37-.07.58v2.07h-.36v-4.25Z"/>
    <path class="cls-4" d="M28.6,186.45h.28v-.14c0-.94-.48-1.27-1.16-1.27-.74,0-1.21.41-1.21.41l-.21-.29s.51-.47,1.44-.47c.98,0,1.5.54,1.5,1.61v2.75h-.36v-.56c0-.23.03-.38.03-.38h-.02s-.38,1.04-1.49,1.04c-.69,0-1.44-.38-1.44-1.23,0-1.44,1.88-1.46,2.63-1.46ZM27.43,188.81c.93,0,1.45-.96,1.45-1.8v-.23h-.27c-.72,0-2.27,0-2.27,1.1,0,.45.37.93,1.09.93Z"/>
    <path class="cls-4" d="M32.08,190.47c.91,0,1.61-.43,1.61-1.46v-.49c0-.2.04-.35.04-.35h-.02c-.25.52-.72.87-1.43.87-1.11,0-1.89-.87-1.89-2.19s.72-2.16,1.83-2.16c1.21,0,1.48.83,1.48.83h.02s-.03-.06-.03-.16v-.57h.36v4.22c0,1.3-.94,1.81-1.95,1.81-.47,0-.92-.12-1.33-.33l.17-.31s.53.3,1.14.3ZM33.7,186.84c0-1.37-.65-1.81-1.48-1.81-.91,0-1.45.66-1.45,1.81s.63,1.84,1.54,1.84c.75,0,1.39-.47,1.39-1.84Z"/>
    <path class="cls-4" d="M37.31,184.69c1.16,0,1.73.91,1.73,1.94,0,.09-.02.23-.02.23h-3.41c0,1.23.83,1.94,1.82,1.94.82,0,1.32-.54,1.32-.54l.2.3s-.6.59-1.51.59c-1.2,0-2.19-.87-2.19-2.22,0-1.44.98-2.24,2.06-2.24ZM38.67,186.52c-.04-1.04-.66-1.5-1.37-1.5-.78,0-1.5.51-1.66,1.5h3.03Z"/>
    <path class="cls-4" d="M40.25,184.79h.36v.75c0,.2-.03.35-.03.35h.02c.21-.64.97-1.2,1.63-1.2.85,0,1.25.4,1.34,1.16h.02c.24-.6.88-1.16,1.61-1.16,1.1,0,1.42.65,1.42,1.66v2.69h-.36v-2.57c0-.8-.16-1.45-1.06-1.45-.71,0-1.31.63-1.5,1.29-.06.2-.08.41-.08.65v2.07h-.36v-2.57c0-.73-.1-1.45-1.04-1.45-.76,0-1.35.66-1.55,1.37-.05.18-.07.37-.07.58v2.07h-.36v-4.25Z"/>
    <path class="cls-4" d="M49.82,184.69c1.16,0,1.73.91,1.73,1.94,0,.09-.02.23-.02.23h-3.41c0,1.23.83,1.94,1.82,1.94.82,0,1.32-.54,1.32-.54l.2.3s-.6.59-1.51.59c-1.2,0-2.19-.87-2.19-2.22,0-1.44.98-2.24,2.06-2.24ZM51.18,186.52c-.04-1.04-.66-1.5-1.37-1.5-.78,0-1.5.51-1.66,1.5h3.03Z"/>
    <path class="cls-4" d="M52.75,184.79h.36v.75c0,.2-.03.35-.03.35h.02c.14-.4.74-1.2,1.8-1.2s1.4.65,1.4,1.66v2.69h-.36v-2.57c0-.74-.09-1.44-1.04-1.44-.8,0-1.5.56-1.72,1.35-.05.18-.07.37-.07.58v2.07h-.36v-4.25Z"/>
    <path class="cls-4" d="M57.87,185.14h-.56v-.32h.56v-1.21h.36v1.21h1.11v.32h-1.11v2.34c0,1.12.67,1.27,1.01,1.27.12,0,.2-.02.2-.02v.33s-.08.02-.21.02c-.44,0-1.35-.16-1.35-1.57v-2.36Z"/>
    <path class="cls-4" d="M62.71,186.19c0-1.22.34-2.33.93-3.31h.37c-.61,1.03-.96,2.12-.96,3.32,0,1.27.31,2.52.96,3.65h-.37c-.58-1.01-.93-2.33-.93-3.66Z"/>
    <path class="cls-4" d="M68.19,186.98h-2.52l-.76,2.06h-.39l2.23-5.95h.39l2.23,5.95h-.39l-.77-2.06ZM66.93,183.51s-.13.46-.22.71l-.91,2.41h2.27l-.9-2.41c-.09-.25-.22-.71-.22-.71h-.02Z"/>
    <path class="cls-4" d="M70.3,183.09h.37v3.89c0,1.12.73,1.81,1.85,1.81s1.86-.69,1.86-1.83v-3.88h.37v3.91c0,1.31-.91,2.14-2.22,2.14s-2.23-.83-2.23-2.14v-3.91Z"/>
    <path class="cls-4" d="M76.8,183.09h.36l1.73,3.74c.14.29.29.67.29.67h.02s.15-.38.29-.67l1.73-3.74h.36l.48,5.95h-.37l-.37-4.54c-.03-.29-.03-.79-.03-.79h-.02s-.17.5-.31.79l-1.6,3.39h-.37l-1.59-3.39c-.13-.28-.31-.81-.31-.81h-.02s0,.52-.03.81l-.37,4.54h-.37l.48-5.95Z"/>
    <path class="cls-4" d="M83.14,189.84c.65-1.13.96-2.38.96-3.65,0-1.2-.35-2.29-.96-3.32h.37c.59.99.93,2.09.93,3.31,0,1.33-.36,2.64-.93,3.66h-.37Z"/>
    <path class="cls-4" d="M88.4,185.14h-.56v-.32h.56v-1.21h.36v1.21h1.11v.32h-1.11v2.34c0,1.12.67,1.27,1.01,1.27.12,0,.2-.02.2-.02v.33s-.08.02-.21.02c-.44,0-1.35-.16-1.35-1.57v-2.36Z"/>
    <path class="cls-4" d="M92.82,184.69c1.22,0,2.2.96,2.2,2.2s-.99,2.25-2.2,2.25-2.2-.99-2.2-2.25.99-2.2,2.2-2.2ZM92.82,188.79c1.01,0,1.83-.83,1.83-1.9s-.82-1.85-1.83-1.85-1.83.8-1.83,1.85.82,1.9,1.83,1.9Z"/>
    <path class="cls-4" d="M96.34,185.14h-.56v-.32h.56v-1.21h.36v1.21h1.11v.32h-1.11v2.34c0,1.12.67,1.27,1.01,1.27.12,0,.2-.02.2-.02v.33s-.09.02-.21.02c-.44,0-1.35-.16-1.35-1.57v-2.36Z"/>
    <path class="cls-4" d="M101.16,186.45h.28v-.14c0-.94-.48-1.27-1.16-1.27-.74,0-1.21.41-1.21.41l-.21-.29s.51-.47,1.44-.47c.98,0,1.5.54,1.5,1.61v2.75h-.36v-.56c0-.23.03-.38.03-.38h-.02s-.38,1.04-1.49,1.04c-.69,0-1.44-.38-1.44-1.23,0-1.44,1.88-1.46,2.63-1.46ZM99.98,188.81c.93,0,1.45-.96,1.45-1.8v-.23h-.27c-.72,0-2.27,0-2.27,1.1,0,.45.37.93,1.09.93Z"/>
    <path class="cls-4" d="M103.19,183.09h.36v4.98c0,.59.31.66.5.66.07,0,.13,0,.13,0v.33s-.08.02-.15.02c-.25,0-.83-.09-.83-.89v-5.09Z"/>
    <path class="cls-4" d="M105.14,183.09h.36v4.98c0,.59.31.66.5.66.07,0,.13,0,.13,0v.33s-.08.02-.15.02c-.25,0-.83-.09-.83-.89v-5.09Z"/>
    <path class="cls-4" d="M107.11,183.09h.42v.62h-.42v-.62ZM107.14,184.79h.36v4.25h-.36v-4.25Z"/>
    <path class="cls-4" d="M108.99,184.79h.36v.75c0,.2-.03.35-.03.35h.02c.14-.4.74-1.2,1.8-1.2s1.4.65,1.4,1.66v2.69h-.36v-2.57c0-.74-.09-1.44-1.04-1.44-.8,0-1.5.56-1.72,1.35-.05.18-.07.37-.07.58v2.07h-.36v-4.25Z"/>
    <path class="cls-4" d="M115.38,190.47c.91,0,1.61-.43,1.61-1.46v-.49c0-.2.04-.35.04-.35h-.02c-.25.52-.72.87-1.43.87-1.11,0-1.89-.87-1.89-2.19s.72-2.16,1.83-2.16c1.21,0,1.48.83,1.48.83h.02s-.03-.06-.03-.16v-.57h.36v4.22c0,1.3-.94,1.81-1.95,1.81-.47,0-.92-.12-1.33-.33l.17-.31s.53.3,1.14.3ZM117,186.84c0-1.37-.65-1.81-1.48-1.81-.91,0-1.45.66-1.45,1.81s.63,1.84,1.54,1.84c.75,0,1.39-.47,1.39-1.84Z"/>
  </g>
  <path class="cls-4" d="M124.02,184.97h-.74c0,.26-.06.48-.17.68-.11.2-.25.36-.42.49s-.36.23-.58.29c-.22.06-.44.08-.67.07v.03c.11.11.23.23.34.36.11.13.22.25.33.38l1.37,1.72v.06h-.63l-1.51-1.92c-.06-.07-.12-.14-.19-.23s-.13-.16-.2-.22c-.07-.08-.14-.16-.21-.24l.17-.42c.23.05.45.07.66.05.22-.02.41-.07.58-.16s.31-.21.41-.36c.1-.16.16-.34.17-.57h-1.95v-.46h1.89c-.07-.21-.2-.38-.37-.49s-.37-.17-.57-.17h-.94v-.47h3.47l-.24.47h-1.24v.03c.08.05.17.12.25.23.09.1.16.24.2.39h1.03l-.24.46Z"/>
  <g>
    <path class="cls-4" d="M124.9,188.72c0-2.07,3.17-2.3,3.17-4.11,0-.71-.53-1.27-1.38-1.27-.95,0-1.45.85-1.45.85l-.27-.19s.54-1.02,1.72-1.02,1.76.78,1.76,1.63c0,2.03-3.16,2.29-3.16,4.08h3.26v.34h-3.62c-.02-.11-.03-.21-.03-.31Z"/>
    <path class="cls-4" d="M129.63,188.72c0-2.07,3.17-2.3,3.17-4.11,0-.71-.53-1.27-1.38-1.27-.95,0-1.45.85-1.45.85l-.27-.19s.54-1.02,1.72-1.02,1.76.78,1.76,1.63c0,2.03-3.16,2.29-3.16,4.08h3.26v.34h-3.62c-.02-.11-.03-.21-.03-.31Z"/>
    <path class="cls-4" d="M133.96,187.08l3.08-3.99h.34v3.91h.88v.34h-.88v1.7h-.37v-1.7h-3.06v-.25ZM137.02,187v-2.79c0-.24.03-.54.03-.54h-.02s-.14.21-.3.41l-2.26,2.9v.02h2.55Z"/>
    <path class="cls-4" d="M139.24,188.52h.48l-.57,1.32h-.36l.45-1.32Z"/>
    <path class="cls-4" d="M141.96,185.65c-.45-.27-.77-.64-.77-1.21,0-.75.59-1.45,1.75-1.45s1.77.62,1.77,1.5-.74,1.62-.8,1.68c.5.28.88.65.88,1.28,0,.93-.84,1.69-1.91,1.69-.99,0-1.97-.63-1.97-1.8,0-1.09,1.06-1.68,1.06-1.68ZM142.31,185.85c-.12.06-1.03.58-1.03,1.49s.79,1.45,1.59,1.45c.76,0,1.53-.54,1.53-1.33,0-.89-1.16-1.16-2.09-1.61ZM143.57,186c.1-.09.76-.71.76-1.51,0-.71-.58-1.15-1.39-1.15-.86,0-1.37.49-1.37,1.1,0,.88,1.09,1.14,2,1.56Z"/>
    <path class="cls-4" d="M146.03,186.36c0-1.45.72-3.38,2.56-3.38.61,0,1.04.24,1.04.24l-.18.33s-.37-.21-.88-.21c-1.38,0-2.07,1.43-2.16,2.74h.02c.33-.5.99-.82,1.68-.82,1.05,0,1.83.74,1.83,1.9,0,1.29-.85,1.98-1.83,1.98-1.32,0-2.08-1.26-2.08-2.78ZM149.55,187.16c0-.95-.6-1.54-1.46-1.54-.92,0-1.65.65-1.65,1.18,0,.82.65,1.98,1.66,1.98.92,0,1.45-.68,1.45-1.62Z"/>
    <path class="cls-4" d="M150.99,188.72c0-2.07,3.17-2.3,3.17-4.11,0-.71-.53-1.27-1.39-1.27-.95,0-1.44.85-1.44.85l-.27-.19s.54-1.02,1.73-1.02,1.76.78,1.76,1.63c0,2.03-3.16,2.29-3.16,4.08h3.25v.34h-3.62c-.02-.11-.03-.21-.03-.31Z"/>
  </g>
  <g>
    <path class="cls-4" d="M11.64,196.69c1.01,0,1.52.6,1.52.6l-.22.29s-.48-.54-1.3-.54c-.99,0-1.82.74-1.82,1.89s.82,1.87,1.82,1.87c.94,0,1.42-.61,1.42-.61l.19.3s-.55.66-1.61.66c-1.2,0-2.19-.87-2.19-2.22s1.01-2.24,2.19-2.24Z"/>
    <path class="cls-4" d="M14.43,196.79h.36v.81c0,.2-.04.35-.04.35h.02c.21-.65.69-1.19,1.36-1.19.13,0,.25.03.25.03v.36s-.1-.02-.2-.02c-.66,0-1.08.56-1.27,1.19-.09.3-.13.61-.13.89v1.84h-.36v-4.25Z"/>
    <path class="cls-4" d="M19.1,196.69c1.21,0,2.2.96,2.2,2.2s-.99,2.25-2.2,2.25-2.2-.99-2.2-2.25.99-2.2,2.2-2.2ZM19.1,200.79c1.01,0,1.83-.83,1.83-1.9s-.82-1.85-1.83-1.85-1.83.8-1.83,1.85.82,1.9,1.83,1.9Z"/>
    <path class="cls-4" d="M22.48,196.79h.36v.81c0,.2-.03.35-.03.35h.02c.21-.65.69-1.19,1.36-1.19.13,0,.25.03.25.03v.36s-.1-.02-.2-.02c-.66,0-1.08.56-1.27,1.19-.09.3-.13.61-.13.89v1.84h-.36v-4.25Z"/>
    <path class="cls-4" d="M27.03,196.69c1.16,0,1.73.91,1.73,1.94,0,.09-.02.23-.02.23h-3.41c0,1.23.83,1.94,1.82,1.94.82,0,1.32-.54,1.32-.54l.2.3s-.59.59-1.51.59c-1.2,0-2.19-.87-2.19-2.22,0-1.44.98-2.24,2.06-2.24ZM28.39,198.52c-.04-1.04-.66-1.5-1.37-1.5-.78,0-1.5.51-1.66,1.5h3.03Z"/>
    <path class="cls-4" d="M34.6,198.45h.28v-.14c0-.94-.48-1.27-1.16-1.27-.74,0-1.22.41-1.22.41l-.2-.29s.51-.47,1.44-.47c.98,0,1.5.54,1.5,1.61v2.75h-.36v-.56c0-.23.03-.38.03-.38h-.02s-.38,1.04-1.49,1.04c-.69,0-1.45-.38-1.45-1.23,0-1.44,1.88-1.46,2.63-1.46ZM33.43,200.81c.93,0,1.45-.96,1.45-1.8v-.23h-.27c-.72,0-2.27,0-2.27,1.1,0,.45.37.93,1.09.93Z"/>
    <path class="cls-4" d="M36.54,200.26s.48.54,1.32.54c.52,0,.98-.27.98-.8,0-1.08-2.34-.77-2.34-2.16,0-.76.64-1.15,1.36-1.15.87,0,1.26.46,1.26.46l-.21.29s-.35-.4-1.07-.4c-.48,0-.96.22-.96.77,0,1.1,2.34.77,2.34,2.18,0,.68-.58,1.15-1.36,1.15-1.03,0-1.54-.61-1.54-.61l.23-.27Z"/>
    <path class="cls-4" d="M44.62,196.69c1.21,0,2.2.96,2.2,2.2s-.99,2.25-2.2,2.25-2.2-.99-2.2-2.25.99-2.2,2.2-2.2ZM44.62,200.79c1.01,0,1.83-.83,1.83-1.9s-.82-1.85-1.83-1.85-1.83.8-1.83,1.85.82,1.9,1.83,1.9Z"/>
    <path class="cls-4" d="M48.16,197.14h-.54v-.32h.54v-.2c0-1.4.92-1.57,1.34-1.57.14,0,.22.02.22.02v.33s-.08-.02-.2-.02c-.34,0-1.01.14-1.01,1.23v.2h1.16v.32h-1.16v3.9h-.36v-3.9Z"/>
    <path class="cls-4" d="M53.4,195.09h.36l1.73,3.74c.14.29.29.67.29.67h.02s.15-.38.29-.67l1.73-3.74h.36l.48,5.95h-.37l-.37-4.54c-.03-.29-.03-.79-.03-.79h-.02s-.17.5-.31.79l-1.6,3.39h-.37l-1.59-3.39c-.13-.28-.31-.81-.31-.81h-.02s0,.52-.03.81l-.37,4.54h-.37l.48-5.95Z"/>
    <path class="cls-4" d="M62.44,198.45h.28v-.14c0-.94-.48-1.27-1.16-1.27-.74,0-1.21.41-1.21.41l-.21-.29s.51-.47,1.44-.47c.98,0,1.5.54,1.5,1.61v2.75h-.36v-.56c0-.23.03-.38.03-.38h-.02s-.38,1.04-1.49,1.04c-.69,0-1.44-.38-1.44-1.23,0-1.44,1.88-1.46,2.63-1.46ZM61.27,200.81c.93,0,1.45-.96,1.45-1.8v-.23h-.27c-.72,0-2.27,0-2.27,1.1,0,.45.37.93,1.09.93Z"/>
    <path class="cls-4" d="M64.51,196.79h.36v.81c0,.2-.03.35-.03.35h.02c.21-.65.69-1.19,1.36-1.19.13,0,.25.03.25.03v.36s-.1-.02-.2-.02c-.66,0-1.08.56-1.27,1.19-.09.3-.13.61-.13.89v1.84h-.36v-4.25Z"/>
    <path class="cls-4" d="M69.18,196.69c1.01,0,1.52.6,1.52.6l-.22.29s-.49-.54-1.3-.54c-.99,0-1.82.74-1.82,1.89s.83,1.87,1.82,1.87c.93,0,1.42-.61,1.42-.61l.19.3s-.55.66-1.61.66c-1.2,0-2.19-.87-2.19-2.22s1.01-2.24,2.19-2.24Z"/>
    <path class="cls-4" d="M71.97,195.09h.36v2.45c0,.2-.04.35-.04.35h.02c.14-.4.74-1.2,1.8-1.2s1.4.65,1.4,1.66v2.69h-.36v-2.57c0-.74-.09-1.44-1.05-1.44-.8,0-1.5.56-1.72,1.35-.05.18-.07.37-.07.58v2.07h-.36v-5.95Z"/>
    <path class="cls-4" d="M79.24,200.05s.62.74,1.6.74c.76,0,1.49-.59,1.49-1.46,0-.93-.78-1.42-1.59-1.42h-.41l-.1-.26,1.67-1.95c.13-.15.26-.27.26-.27v-.02s-.16.02-.46.02h-2.44v-.34h3.41v.25l-1.92,2.22c.71,0,1.96.36,1.96,1.76,0,1.02-.86,1.82-1.89,1.82-1.13,0-1.85-.82-1.85-.82l.27-.27Z"/>
    <path class="cls-4" d="M83.76,200.7h1.35v-4.84c0-.15,0-.3,0-.3h-.02s-.06.11-.31.37l-.71.71-.25-.25,1.28-1.29h.37v5.61h1.32v.34h-3.04v-.34Z"/>
    <path class="cls-4" d="M87.87,200.52h.48l-.57,1.32h-.36l.45-1.32Z"/>
    <path class="cls-4" d="M91.98,200.72c0-2.07,3.17-2.3,3.17-4.11,0-.71-.53-1.27-1.39-1.27-.95,0-1.44.85-1.44.85l-.27-.19s.54-1.02,1.73-1.02,1.76.78,1.76,1.63c0,2.03-3.16,2.29-3.16,4.08h3.25v.34h-3.62c-.02-.11-.03-.21-.03-.31Z"/>
    <path class="cls-4" d="M96.81,198.06c0-1.72.49-3.08,2.01-3.08s2.01,1.36,2.01,3.08-.49,3.08-2.01,3.08-2.01-1.35-2.01-3.08ZM100.44,198.06c0-1.53-.36-2.72-1.62-2.72s-1.62,1.19-1.62,2.72.36,2.72,1.62,2.72,1.62-1.18,1.62-2.72Z"/>
    <path class="cls-4" d="M102,200.72c0-2.07,3.17-2.3,3.17-4.11,0-.71-.53-1.27-1.39-1.27-.95,0-1.44.85-1.44.85l-.27-.19s.54-1.02,1.73-1.02,1.76.78,1.76,1.63c0,2.03-3.16,2.29-3.16,4.08h3.25v.34h-3.62c-.02-.11-.03-.21-.03-.31Z"/>
    <path class="cls-4" d="M106.32,199.08l3.08-3.99h.34v3.91h.88v.34h-.88v1.7h-.37v-1.7h-3.06v-.25ZM109.38,199v-2.79c0-.24.03-.54.03-.54h-.02s-.14.21-.3.41l-2.26,2.9v.02h2.55Z"/>
    <path class="cls-4" d="M111.52,200.5h.52v.54h-.52v-.54Z"/>
  </g>
  <g>
    <path class="cls-3" d="M10.06,13.28s.77.75,1.77.75c.54,0,1.03-.28,1.03-.86,0-1.27-3.35-1.05-3.35-3.23,0-1.18,1.02-2.06,2.38-2.06s2.12.76,2.12.76l-.56,1.05s-.68-.62-1.57-.62c-.6,0-1.07.35-1.07.85,0,1.26,3.34.95,3.34,3.22,0,1.13-.86,2.08-2.34,2.08-1.58,0-2.45-.97-2.45-.97l.7-.97Z"/>
    <path class="cls-3" d="M15.24,8h1.27v2.46c0,.25-.02.43-.02.43h.02c.25-.49.87-1.01,1.76-1.01,1.13,0,1.77.59,1.77,1.94v3.28h-1.26v-3.02c0-.62-.16-1.04-.81-1.04s-1.19.44-1.38,1.06c-.06.2-.08.42-.08.66v2.34h-1.27v-7.1Z"/>
    <path class="cls-3" d="M21.37,10h1.22v.88c0,.19-.02.36-.02.36h.02c.23-.73.84-1.31,1.62-1.31.12,0,.23.02.23.02v1.25s-.13-.02-.3-.02c-.54,0-1.15.31-1.39,1.07-.08.25-.11.53-.11.83v2.02h-1.27v-5.1Z"/>
    <path class="cls-3" d="M25.3,8h1.26v1.13h-1.26v-1.13ZM25.3,10h1.27v5.1h-1.27v-5.1Z"/>
    <path class="cls-3" d="M27.97,10h1.22v.88c0,.19-.02.36-.02.36h.02c.23-.73.84-1.31,1.62-1.31.12,0,.23.02.23.02v1.25s-.13-.02-.3-.02c-.54,0-1.15.31-1.39,1.07-.08.25-.11.53-.11.83v2.02h-1.27v-5.1Z"/>
    <path class="cls-3" d="M34.49,11.9h.17v-.07c0-.67-.42-.9-.98-.9-.73,0-1.4.49-1.4.49l-.48-.91s.79-.63,2-.63c1.34,0,2.12.74,2.12,2.03v3.19h-1.17v-.42c0-.2.02-.36.02-.36h-.02s-.39.9-1.55.9c-.91,0-1.73-.57-1.73-1.59,0-1.62,2.19-1.73,3.02-1.73ZM33.52,14.23c.67,0,1.15-.72,1.15-1.34v-.12h-.22c-.65,0-1.7.09-1.7.8,0,.34.25.66.77.66Z"/>
    <path class="cls-3" d="M37.24,10h1.22v.59c0,.19-.02.35-.02.35h.02c.25-.5.86-1.06,1.66-1.06s1.28.36,1.49,1.05h.02c.28-.55.94-1.05,1.74-1.05,1.06,0,1.67.6,1.67,1.94v3.28h-1.27v-3.04c0-.58-.11-1.02-.7-1.02-.65,0-1.08.52-1.23,1.16-.05.2-.06.42-.06.66v2.24h-1.27v-3.04c0-.55-.09-1.02-.69-1.02-.66,0-1.09.52-1.25,1.17-.05.19-.06.42-.06.65v2.24h-1.27v-5.1Z"/>
    <path class="cls-3" d="M49,8h4.08v1.11h-2.79v2.01h2.35v1.11h-2.35v2.87h-1.29v-7.1Z"/>
    <path class="cls-3" d="M54.09,8h1.26v1.13h-1.26v-1.13ZM54.09,10h1.27v5.1h-1.27v-5.1Z"/>
    <path class="cls-3" d="M56.76,10h1.22v.59c0,.19-.02.35-.02.35h.02c.22-.43.78-1.06,1.81-1.06,1.13,0,1.77.59,1.77,1.94v3.28h-1.26v-3.02c0-.62-.16-1.04-.81-1.04s-1.18.43-1.37,1.04c-.07.21-.09.44-.09.68v2.34h-1.27v-5.1Z"/>
    <path class="cls-3" d="M65.48,11.9h.17v-.07c0-.67-.42-.9-.98-.9-.73,0-1.4.49-1.4.49l-.48-.91s.79-.63,2-.63c1.34,0,2.12.74,2.12,2.03v3.19h-1.17v-.42c0-.2.02-.36.02-.36h-.02s-.39.9-1.55.9c-.91,0-1.73-.57-1.73-1.59,0-1.62,2.19-1.73,3.02-1.73ZM64.51,14.23c.67,0,1.15-.72,1.15-1.34v-.12h-.22c-.65,0-1.7.09-1.7.8,0,.34.25.66.77.66Z"/>
    <path class="cls-3" d="M68.23,10h1.22v.59c0,.19-.02.35-.02.35h.02c.22-.43.78-1.06,1.81-1.06,1.13,0,1.77.59,1.77,1.94v3.28h-1.26v-3.02c0-.62-.16-1.04-.81-1.04s-1.18.43-1.37,1.04c-.07.21-.09.44-.09.68v2.34h-1.27v-5.1Z"/>
    <path class="cls-3" d="M76.76,9.88c1.33,0,1.96.76,1.96.76l-.56.87s-.53-.55-1.33-.55c-.94,0-1.55.71-1.55,1.58s.62,1.6,1.59,1.6c.86,0,1.5-.65,1.5-.65l.49.9s-.73.83-2.1.83c-1.69,0-2.77-1.19-2.77-2.67s1.08-2.67,2.77-2.67Z"/>
    <path class="cls-3" d="M82.04,9.88c1.47,0,2.26,1.07,2.26,2.42,0,.15-.03.49-.03.49h-3.52c.08.89.77,1.35,1.53,1.35.82,0,1.47-.56,1.47-.56l.49.91s-.78.73-2.05.73c-1.69,0-2.74-1.22-2.74-2.67,0-1.57,1.07-2.67,2.59-2.67ZM83.02,11.92c-.02-.69-.45-1.06-1.01-1.06-.65,0-1.1.4-1.22,1.06h2.23Z"/>
    <path class="cls-3" d="M87.98,8h1.29v5.99h3.07v1.11h-4.36v-7.1Z"/>
    <path class="cls-3" d="M93.17,8h1.26v1.13h-1.26v-1.13ZM93.17,10h1.27v5.1h-1.27v-5.1Z"/>
    <path class="cls-3" d="M95.84,10h1.22v.59c0,.19-.02.35-.02.35h.02c.25-.5.86-1.06,1.66-1.06s1.28.36,1.49,1.05h.02c.28-.55.94-1.05,1.74-1.05,1.06,0,1.67.6,1.67,1.94v3.28h-1.27v-3.04c0-.58-.11-1.02-.7-1.02-.65,0-1.08.52-1.23,1.16-.05.2-.06.42-.06.66v2.24h-1.27v-3.04c0-.55-.09-1.02-.69-1.02-.66,0-1.09.52-1.25,1.17-.05.19-.06.42-.06.65v2.24h-1.27v-5.1Z"/>
    <path class="cls-3" d="M104.97,8h1.26v1.13h-1.26v-1.13ZM104.97,10h1.27v5.1h-1.27v-5.1Z"/>
    <path class="cls-3" d="M107.86,11.09h-.66v-1.01h.69v-1.47h1.24v1.47h1.16v1.01h-1.16v1.98c0,.84.66.96,1.01.96.14,0,.23-.02.23-.02v1.11s-.15.03-.39.03c-.71,0-2.12-.21-2.12-1.92v-2.14Z"/>
    <path class="cls-3" d="M113.64,9.88c1.47,0,2.26,1.07,2.26,2.42,0,.15-.03.49-.03.49h-3.52c.08.89.77,1.35,1.53,1.35.82,0,1.47-.56,1.47-.56l.49.91s-.78.73-2.05.73c-1.69,0-2.74-1.22-2.74-2.67,0-1.57,1.07-2.67,2.59-2.67ZM114.62,11.92c-.02-.69-.45-1.06-1.01-1.06-.65,0-1.1.4-1.22,1.06h2.23Z"/>
    <path class="cls-3" d="M118.91,9.88c1.12,0,1.47.65,1.47.65h.02s0-.13,0-.29v-2.24h1.27v7.1h-1.2v-.42c0-.19.02-.33.02-.33h-.02s-.43.87-1.6.87c-1.38,0-2.26-1.09-2.26-2.67s.96-2.67,2.31-2.67ZM119.15,14.15c.66,0,1.28-.48,1.28-1.61,0-.79-.42-1.57-1.27-1.57-.7,0-1.28.57-1.28,1.58s.52,1.6,1.27,1.6Z"/>
  </g>
  <g class="cls-1">
    <path class="cls-5" d="M23.77,39.08l-1.54-14.69c.45-.05,1.09-.08,1.54-.08v14.77Z"/>
    <path class="cls-5" d="M23.77,39.08l-12.66-7.61c2.49-4.14,6.31-6.58,11.11-7.08l1.54,14.69Z"/>
    <path class="cls-7" d="M23.77,39.08v-14.77c8.16,0,14.77,6.61,14.77,14.77s-6.61,14.77-14.77,14.77-14.77-6.61-14.77-14.77c0-2.87.63-5.15,2.11-7.61l12.66,7.61Z"/>
    <path class="cls-6" d="M23.77,51.22c6.7,0,12.13-5.43,12.13-12.13s-5.43-12.14-12.13-12.14-12.14,5.43-12.14,12.14,5.43,12.13,12.14,12.13"/>
  </g>
  <g>
    <path class="cls-7" d="M48.28,38.57c-.65-.5-1.09-1.14-1.09-2.08,0-1.47,1.08-2.91,3.42-2.91,1.98,0,3.45,1.11,3.45,2.95,0,1.32-1.08,2.5-1.18,2.62.78.5,1.36,1.17,1.36,2.26,0,1.64-1.36,3.17-3.75,3.17s-3.81-1.44-3.81-3.27c0-1.51,1.27-2.52,1.6-2.75ZM49.64,39.37c-.34.29-.99.92-.99,1.8,0,1,.85,1.71,1.83,1.71s1.79-.6,1.79-1.54-1.33-1.35-2.62-1.96ZM51.45,38.45c.15-.17.72-.87.72-1.8,0-.83-.63-1.35-1.59-1.35s-1.49.54-1.49,1.23c0,.98,1.14,1.4,2.36,1.92Z"/>
    <path class="cls-7" d="M56.59,41.68s1.01,1.08,2.42,1.08c1.11,0,1.92-.67,1.92-1.59,0-1.12-1.03-1.65-2.28-1.65h-.73l-.44-.99,1.95-2.31c.42-.5.76-.81.76-.81v-.03s-.31.04-.94.04h-3.18v-1.67h6.51v1.21l-2.61,3.01c1.47.21,2.91,1.26,2.91,3.11s-1.38,3.49-3.75,3.49-3.53-1.42-3.53-1.42l.99-1.48Z"/>
    <path class="cls-7" d="M64.57,42.5h1.9v1.91h-1.9v-1.91Z"/>
    <path class="cls-7" d="M72.49,36.4c.33-.66.65-.97.65-.97v-.03s-.21.03-.74.03h-4.54v-1.67h7.32v1.35l-4.66,9.3h-2.01l3.99-8.01Z"/>
    <path class="cls-7" d="M77.86,38.57c-.64-.5-1.09-1.14-1.09-2.08,0-1.47,1.08-2.91,3.42-2.91,1.98,0,3.45,1.11,3.45,2.95,0,1.32-1.08,2.5-1.19,2.62.78.5,1.37,1.17,1.37,2.26,0,1.64-1.37,3.17-3.75,3.17s-3.81-1.44-3.81-3.27c0-1.51,1.27-2.52,1.6-2.75ZM79.22,39.37c-.35.29-.99.92-.99,1.8,0,1,.86,1.71,1.83,1.71s1.79-.6,1.79-1.54-1.33-1.35-2.62-1.96ZM81.02,38.45c.15-.17.72-.87.72-1.8,0-.83-.63-1.35-1.59-1.35s-1.48.54-1.48,1.23c0,.98,1.14,1.4,2.35,1.92Z"/>
    <path class="cls-7" d="M85.22,35.95c0-1.29,1.09-2.37,2.44-2.37s2.46,1.08,2.46,2.37-1.11,2.37-2.46,2.37-2.44-1.05-2.44-2.37ZM93.77,33.76h1.76l-8.18,10.65h-1.75l8.17-10.65ZM88.67,35.95c0-.54-.45-.99-1-.99s-.99.45-.99.99.43.99.99.99,1-.43,1-.99ZM93.49,39.86c1.35,0,2.45,1.08,2.45,2.37s-1.09,2.35-2.45,2.35-2.44-1.05-2.44-2.35,1.08-2.37,2.44-2.37ZM93.49,43.21c.56,0,1.01-.43,1.01-.99s-.45-.99-1.01-.99-.99.45-.99.99.43.99.99.99Z"/>
  </g>
  <rect class="cls-2" y="-55.08" width="171.59" height="269.1"/>
</svg>