<?xml version="1.0" encoding="UTF-8"?>
<svg id="Layer_1" data-name="Layer 1" xmlns="http://www.w3.org/2000/svg" viewBox="0 0 136.33 52.82">
  <defs>
    <style>
      .cls-1 {
        stroke: #dda52b;
        stroke-width: 3px;
      }

      .cls-1, .cls-2 {
        fill: none;
      }

      .cls-3 {
        fill: #089cb5;
      }

      .cls-3, .cls-4 {
        stroke-width: 0px;
      }

      .cls-4 {
        fill: #71c7aa;
      }

      .cls-2 {
        stroke: #a5378a;
        stroke-width: .5px;
      }
    </style>
  </defs>
  <g>
    <path class="cls-3" d="M4.5,42.51c2.38,0,4.11,1.76,4.11,4.02s-1.74,4.11-4.11,4.11-4.12-1.8-4.12-4.11,1.74-4.02,4.12-4.02ZM4.5,48.88c1.18,0,2.12-1.01,2.12-2.35s-.95-2.26-2.12-2.26-2.12.97-2.12,2.26.95,2.35,2.12,2.35Z"/>
    <path class="cls-3" d="M9.62,44.84h1.9v3.32c0,.53.21.75.6.75.81,0,1.2-.71,1.2-1.56v-2.51h1.9v5.67h-1.83v-.5c0-.19.02-.35.02-.35h-.02c-.31.6-1.01.98-1.77.98-1.12,0-2.01-.53-2.01-2.12v-3.67Z"/>
    <path class="cls-3" d="M16.64,44.84h1.83v.96c0,.19-.02.35-.02.35h.02c.24-.77.96-1.41,1.8-1.41.11,0,.22.02.22.02v1.87s-.15-.03-.39-.03c-.45,0-1.19.14-1.46.99-.07.21-.1.46-.1.77v2.15h-1.9v-5.67Z"/>
    <path class="cls-3" d="M24.27,48.53s.63.57,1.44.57c.29,0,.56-.08.56-.26,0-.5-2.65-.55-2.65-2.4,0-1.07,1.02-1.73,2.33-1.73s1.99.65,1.99.65l-.65,1.35s-.55-.46-1.34-.46c-.29,0-.56.08-.56.28,0,.43,2.65.5,2.65,2.32,0,.97-.86,1.79-2.32,1.79s-2.27-.84-2.27-.84l.81-1.28Z"/>
    <path class="cls-3" d="M29.07,42.64h1.9v2.49c0,.29-.02.48-.02.48h.02c.32-.56.98-.9,1.73-.9,1.14,0,2.04.53,2.04,2.12v3.67h-1.9v-3.32c0-.53-.21-.75-.63-.75-.58,0-.97.34-1.13.84-.08.22-.1.46-.1.73v2.51h-1.9v-7.87Z"/>
    <path class="cls-3" d="M38.93,46.98h.08v-.1c0-.47-.36-.63-.84-.63-.71,0-1.53.54-1.53.54l-.66-1.34s.98-.74,2.38-.74c1.6,0,2.55.87,2.55,2.31v3.49h-1.74v-.34c0-.19.02-.35.02-.35h-.02s-.42.83-1.61.83c-1.06,0-1.93-.7-1.93-1.83,0-1.65,2.41-1.84,3.29-1.84ZM38.09,49.19c.5,0,.93-.54.93-1v-.12h-.18c-.61,0-1.3.18-1.3.65,0,.26.17.47.54.47Z"/>
    <path class="cls-3" d="M42.23,44.84h1.83v.96c0,.19-.02.35-.02.35h.02c.24-.77.96-1.41,1.8-1.41.11,0,.22.02.22.02v1.87s-.15-.03-.39-.03c-.45,0-1.19.14-1.46.99-.07.21-.1.46-.1.77v2.15h-1.9v-5.67Z"/>
    <path class="cls-3" d="M49.5,44.71c1.67,0,2.62,1.17,2.62,2.74,0,.19-.04.59-.04.59h-3.58c.14.69.72,1.01,1.32,1.01.81,0,1.56-.57,1.56-.57l.71,1.33s-.91.83-2.42.83c-2.02,0-3.11-1.46-3.11-2.97,0-1.66,1.12-2.96,2.95-2.96ZM50.2,46.96c0-.43-.3-.81-.75-.81-.55,0-.81.4-.91.81h1.66Z"/>
    <path class="cls-3" d="M53.15,42.64h1.9v2.49c0,.29-.02.48-.02.48h.02c.32-.56.98-.9,1.73-.9,1.14,0,2.04.53,2.04,2.12v3.67h-1.9v-3.32c0-.53-.21-.75-.63-.75-.58,0-.97.34-1.13.84-.08.22-.1.46-.1.73v2.51h-1.9v-7.87Z"/>
    <path class="cls-3" d="M62.93,44.71c1.79,0,3.22,1.2,3.22,2.98s-1.43,2.95-3.21,2.95-3.21-1.18-3.21-2.95,1.43-2.98,3.2-2.98ZM62.94,49.06c.69,0,1.29-.52,1.29-1.36s-.59-1.4-1.29-1.4-1.29.54-1.29,1.4.59,1.36,1.29,1.36Z"/>
    <path class="cls-3" d="M67.07,42.64h1.9v5.52c0,.54.1.73.53.73.12,0,.23-.01.23-.01v1.65s-.26.03-.57.03c-1.01,0-2.09-.24-2.09-2.14v-5.78Z"/>
    <path class="cls-3" d="M72.9,44.71c1.14,0,1.48.45,1.48.45h.02s-.01-.11-.01-.25v-2.27h1.9v7.87h-1.78v-.37c0-.18.01-.32.01-.32h-.02s-.47.83-1.64.83c-1.54,0-2.55-1.21-2.55-2.97s1.08-2.96,2.59-2.96ZM73.34,49.07c.57,0,1.11-.42,1.11-1.4,0-.68-.36-1.35-1.11-1.35-.59,0-1.11.48-1.11,1.35s.45,1.4,1.11,1.4Z"/>
    <path class="cls-3" d="M77.7,44.84h1.9v5.67h-1.9v-5.67ZM77.72,42.64h1.86v1.49h-1.86v-1.49Z"/>
    <path class="cls-3" d="M81.01,44.84h1.83v.5c0,.19-.02.35-.02.35h.02c.26-.44.8-.98,1.8-.98,1.14,0,2.04.53,2.04,2.12v3.67h-1.9v-3.32c0-.53-.21-.75-.63-.75-.59,0-.96.33-1.12.81-.08.22-.11.47-.11.75v2.51h-1.9v-5.67Z"/>
    <path class="cls-3" d="M90.31,51.24c.68,0,1.31-.25,1.31-1.09v-.19c0-.07.01-.21.01-.21h-.02c-.33.4-.76.59-1.42.59-1.71,0-2.55-1.4-2.55-2.85s.83-2.78,2.54-2.78c1.03,0,1.54.55,1.54.55h.03s-.01-.07-.01-.13v-.29h1.78v5.15c0,2.07-1.65,2.83-3.2,2.83-.76,0-1.6-.22-2.15-.51l.54-1.44s.7.36,1.59.36ZM91.66,47.52c0-1-.53-1.22-1.1-1.22-.67,0-1.01.48-1.01,1.13,0,.7.33,1.33,1.09,1.33.5,0,1.02-.25,1.02-1.24Z"/>
    <path class="cls-3" d="M97.45,44.84h1.72v.29c0,.19-.02.36-.02.36h.02s.52-.78,1.72-.78c1.54,0,2.55,1.21,2.55,2.97s-1.13,2.96-2.64,2.96c-.92,0-1.44-.54-1.44-.54h-.02s.02.2.02.48v2.12h-1.9v-7.87ZM100.41,49.07c.59,0,1.11-.48,1.11-1.35s-.45-1.4-1.11-1.4c-.57,0-1.11.42-1.11,1.4,0,.68.36,1.35,1.11,1.35Z"/>
    <path class="cls-3" d="M107.31,46.98h.08v-.1c0-.47-.36-.63-.84-.63-.71,0-1.53.54-1.53.54l-.66-1.34s.98-.74,2.38-.74c1.59,0,2.55.87,2.55,2.31v3.49h-1.74v-.34c0-.19.02-.35.02-.35h-.02s-.42.83-1.61.83c-1.06,0-1.93-.7-1.93-1.83,0-1.65,2.41-1.84,3.29-1.84ZM106.48,49.19c.5,0,.94-.54.94-1v-.12h-.18c-.61,0-1.3.18-1.3.65,0,.26.17.47.54.47Z"/>
    <path class="cls-3" d="M110.9,46.43h-.73v-1.48h.78v-1.63h1.85v1.63h1.19v1.48h-1.19v1.74c0,.64.65.73,1.01.73.15,0,.25-.01.25-.01v1.65s-.21.03-.52.03c-.9,0-2.65-.24-2.65-2.14v-1.99Z"/>
    <path class="cls-3" d="M115.46,46.43h-.73v-1.48h.78v-1.63h1.85v1.63h1.19v1.48h-1.19v1.74c0,.64.65.73,1.01.73.15,0,.25-.01.25-.01v1.65s-.21.03-.52.03c-.9,0-2.65-.24-2.65-2.14v-1.99Z"/>
    <path class="cls-3" d="M122.28,44.71c1.67,0,2.62,1.17,2.62,2.74,0,.19-.04.59-.04.59h-3.58c.14.69.72,1.01,1.32,1.01.81,0,1.56-.57,1.56-.57l.7,1.33s-.91.83-2.42.83c-2.03,0-3.11-1.46-3.11-2.97,0-1.66,1.12-2.96,2.95-2.96ZM122.99,46.96c0-.43-.3-.81-.75-.81-.55,0-.81.4-.91.81h1.66Z"/>
    <path class="cls-3" d="M125.94,44.84h1.83v.96c0,.19-.02.35-.02.35h.02c.24-.77.96-1.41,1.8-1.41.11,0,.22.02.22.02v1.87s-.15-.03-.38-.03c-.45,0-1.19.14-1.46.99-.07.21-.1.46-.1.77v2.15h-1.9v-5.67Z"/>
    <path class="cls-3" d="M130.67,44.84h1.83v.5c0,.19-.02.35-.02.35h.02c.26-.44.8-.98,1.8-.98,1.14,0,2.04.53,2.04,2.12v3.67h-1.9v-3.32c0-.53-.21-.75-.63-.75-.59,0-.96.33-1.12.81-.08.22-.11.47-.11.75v2.51h-1.9v-5.67Z"/>
  </g>
  <path class="cls-2" d="M17.31.25C7.89.25.25,7.89.25,17.31s7.64,17.06,17.06,17.06,17.06-7.64,17.06-17.06c0-4.96-2.12-9.43-5.5-12.54"/>
  <path class="cls-1" d="M33.45,22.84c.59-1.74.92-3.6.92-5.53,0-2.56-.56-4.99-1.57-7.16"/>
  <path class="cls-4" d="M17.58,18.34c0,.36-.29.65-.65.65s-.65-.29-.65-.65.29-.65.65-.65.65.29.65.65M25.29,18.38v-2.03c0-.11-.09-.21-.21-.21h-2.97c.95-1.09,1.57-2.49,1.68-4.02.02-.27-.39-.3-.41-.03-.12,1.68-.88,3.18-2.05,4.26-.92.85-2.09,1.44-3.39,1.65-.14-.42-.54-.73-1.01-.73s-.87.3-1.01.73c-1.3-.2-2.47-.79-3.39-1.65-1.16-1.08-1.93-2.58-2.05-4.26-.02-.27-.43-.24-.41.03.11,1.53.72,2.93,1.67,4.02h-2.97c-.11,0-.21.09-.21.21v2.03c0,.27.41.27.41,0v-1.82h3.16c1.02.99,2.32,1.64,3.73,1.86.04.55.5.99,1.06.99s1.02-.43,1.06-.99c1.41-.22,2.71-.87,3.73-1.86h3.16v1.82c0,.27.41.27.41,0"/>
  <path class="cls-3" d="M28.17,22.63c0,1.7-1.38,3.07-3.07,3.07s-3.07-1.38-3.07-3.07,1.38-3.07,3.07-3.07,3.07,1.38,3.07,3.07M28.59,22.63c0-1.93-1.56-3.49-3.49-3.49s-3.49,1.56-3.49,3.49c0,.96.39,1.84,1.02,2.47.63.63,1.5,1.02,2.47,1.02,1.93,0,3.49-1.56,3.49-3.49"/>
  <path class="cls-4" d="M26.56,23.83c-.36.43-.89.68-1.46.68s-1.1-.25-1.46-.68c.05-.77.69-1.37,1.46-1.37s1.42.6,1.46,1.37M25.1,22.01c-.39,0-.71-.32-.71-.71s.32-.71.71-.71.72.32.72.71-.32.71-.72.71M25.81,22.18c.27-.22.42-.54.42-.88,0-.62-.51-1.13-1.13-1.13s-1.13.5-1.13,1.13c0,.34.15.66.42.88-.7.29-1.16.96-1.17,1.72l.04.13c.44.57,1.12.9,1.83.9.62,0,1.67-.4,1.88-1.03,0-.76-.47-1.43-1.17-1.72"/>
  <path class="cls-3" d="M11.84,22.63c0,1.7-1.38,3.07-3.07,3.07s-3.07-1.38-3.07-3.07,1.38-3.07,3.07-3.07,3.07,1.38,3.07,3.07M12.26,22.63c0-1.93-1.56-3.49-3.49-3.49s-3.49,1.56-3.49,3.49c0,.96.39,1.84,1.02,2.47.63.63,1.5,1.02,2.47,1.02,1.93,0,3.49-1.56,3.49-3.49"/>
  <path class="cls-4" d="M10.23,23.83c-.36.43-.89.68-1.46.68s-1.1-.25-1.46-.68c.05-.77.69-1.37,1.46-1.37s1.41.6,1.46,1.37M8.77,22.01c-.39,0-.71-.32-.71-.71s.32-.71.71-.71.71.32.71.71-.32.71-.71.71M9.48,22.18c.26-.22.42-.54.42-.88,0-.62-.51-1.13-1.13-1.13s-1.13.5-1.13,1.13c0,.34.15.66.42.88-.7.29-1.16.96-1.17,1.72l.04.13c.44.57,1.12.9,1.83.9.62,0,1.67-.4,1.88-1.03,0-.76-.47-1.43-1.17-1.72"/>
  <path class="cls-4" d="M20.67,23.85c0,2.03-1.65,3.68-3.68,3.68s-3.68-1.65-3.68-3.68,1.65-3.69,3.68-3.69,3.68,1.65,3.68,3.69M21.08,23.85c0-2.26-1.84-4.1-4.1-4.1s-4.1,1.84-4.1,4.1,1.84,4.1,4.1,4.1,4.1-1.84,4.1-4.1"/>
  <path class="cls-3" d="M18.75,25.29c-.44.53-1.08.83-1.77.83s-1.33-.3-1.77-.83c.05-.94.83-1.68,1.77-1.68s1.72.74,1.77,1.68M16.98,23.16c-.49,0-.89-.39-.89-.88s.4-.89.89-.89.89.4.88.89c0,.49-.4.88-.88.88M17.75,23.33c1-.73.5-2.35-.76-2.35-.72,0-1.3.58-1.3,1.3,0,.42.2.81.53,1.05-.84.31-1.41,1.12-1.42,2.02l.04.13c.52.66,1.31,1.05,2.15,1.05s1.63-.39,2.14-1.05l.04-.13c-.01-.9-.58-1.71-1.42-2.02"/>
  <path class="cls-4" d="M23.43,10.34h-5.05v-5.25c2.96.23,5.03,2.23,5.05,5.25M23.84,10.54c0-3.45-2.22-5.72-5.66-5.88-.12,0-.22.09-.22.21v5.67c0,.11.09.21.21.21h5.46c.11,0,.21-.09.21-.21"/>
  <path class="cls-3" d="M21.76,11.98c-.21,2.51-2.31,4.44-4.83,4.44-2.67,0-4.84-2.17-4.84-4.85s2.05-4.73,4.64-4.84v5.04c0,.12.09.21.21.21h4.83ZM22.18,11.78c0-.11-.09-.21-.21-.21h-4.84v-5.04c0-.11-.09-.21-.21-.21-2.9,0-5.26,2.35-5.26,5.26s2.35,5.26,5.26,5.26c2.71,0,5.26-2.28,5.26-5.06"/>
</svg>