<?xml version="1.0" encoding="UTF-8"?>
<svg id="Layer_1" data-name="Layer 1" xmlns="http://www.w3.org/2000/svg" xmlns:xlink="http://www.w3.org/1999/xlink" viewBox="0 0 171.59 335.62">
  <defs>
    <style>
      .cls-1 {
        stroke: #dda52b;
        stroke-width: 3px;
      }

      .cls-1, .cls-2, .cls-3, .cls-4 {
        fill: none;
      }

      .cls-5 {
        clip-path: url(#clippath);
      }

      .cls-2, .cls-6, .cls-7, .cls-8, .cls-9 {
        stroke-width: 0px;
      }

      .cls-6 {
        fill: #089cb5;
      }

      .cls-7 {
        fill: #71c7aa;
      }

      .cls-3 {
        stroke: #808285;
        stroke-linecap: round;
        stroke-linejoin: round;
      }

      .cls-3, .cls-4 {
        stroke-width: .5px;
      }

      .cls-8 {
        fill: #58595b;
      }

      .cls-9 {
        fill: #a5378a;
      }

      .cls-4 {
        stroke: #a5378a;
      }
    </style>
    <clipPath id="clippath">
      <rect class="cls-2" y="0" width="171.59" height="335.62"/>
    </clipPath>
  </defs>
  <g>
    <path class="cls-8" d="M12.83,102.27h-2.52l-.77,2.06h-.39l2.23-5.95h.39l2.23,5.95h-.39l-.77-2.06ZM11.57,98.8s-.13.46-.22.71l-.91,2.41h2.27l-.9-2.41c-.09-.25-.22-.71-.22-.71h-.02Z"/>
    <path class="cls-8" d="M14.86,98.38h.36v4.98c0,.59.31.66.5.66.07,0,.13,0,.13,0v.33s-.08.02-.15.02c-.25,0-.83-.09-.83-.89v-5.09Z"/>
    <path class="cls-8" d="M16.28,100.08h.38l1.16,3.33c.07.2.14.46.14.46h.02s.08-.25.14-.46l1.16-3.31h.4l1.17,3.31c.07.2.14.46.14.46h.02s.07-.25.14-.46l1.16-3.33h.38l-1.5,4.25h-.38l-1.18-3.3c-.08-.2-.14-.46-.14-.46h-.02s-.07.25-.14.46l-1.17,3.3h-.38l-1.5-4.25Z"/>
    <path class="cls-8" d="M25.91,101.73h.28v-.14c0-.94-.48-1.27-1.16-1.27-.74,0-1.22.41-1.22.41l-.2-.29s.51-.47,1.44-.47c.98,0,1.5.54,1.5,1.61v2.75h-.36v-.56c0-.23.03-.38.03-.38h-.02s-.38,1.04-1.49,1.04c-.69,0-1.44-.38-1.44-1.23,0-1.44,1.88-1.46,2.63-1.46ZM24.74,104.1c.93,0,1.45-.96,1.45-1.8v-.23h-.27c-.72,0-2.27,0-2.27,1.1,0,.45.37.93,1.09.93Z"/>
    <path class="cls-8" d="M27.47,105.57s.24.2.53.2c.41,0,.66-.37.83-.77l.31-.71-1.76-4.22h.38l1.4,3.39c.08.2.15.4.15.4h.02s.06-.2.14-.4l1.4-3.39h.38l-2.18,5.24c-.19.44-.54.79-1.08.79-.41,0-.69-.24-.69-.24l.16-.31Z"/>
    <path class="cls-8" d="M32.01,103.54s.48.54,1.32.54c.52,0,.98-.27.98-.8,0-1.08-2.34-.77-2.34-2.16,0-.76.64-1.15,1.36-1.15.87,0,1.26.46,1.26.46l-.21.29s-.35-.4-1.07-.4c-.48,0-.96.22-.96.77,0,1.1,2.34.77,2.34,2.18,0,.68-.58,1.15-1.36,1.15-1.03,0-1.54-.61-1.54-.61l.23-.27Z"/>
    <path class="cls-8" d="M38.34,100.42h-.56v-.32h.56v-1.21h.36v1.21h1.11v.32h-1.11v2.34c0,1.12.67,1.27,1.01,1.27.12,0,.2-.02.2-.02v.33s-.08.02-.21.02c-.44,0-1.35-.16-1.35-1.57v-2.36Z"/>
    <path class="cls-8" d="M40.87,100.08h.36v.81c0,.2-.03.35-.03.35h.02c.21-.65.69-1.19,1.36-1.19.13,0,.25.03.25.03v.36s-.1-.02-.2-.02c-.66,0-1.08.56-1.27,1.19-.09.3-.13.61-.13.89v1.84h-.36v-4.25Z"/>
    <path class="cls-8" d="M43.23,105.57s.24.2.53.2c.41,0,.66-.37.83-.77l.31-.71-1.76-4.22h.38l1.4,3.39c.08.2.15.4.15.4h.02s.06-.2.14-.4l1.4-3.39h.38l-2.18,5.24c-.19.44-.54.79-1.08.79-.41,0-.69-.24-.69-.24l.16-.31Z"/>
    <path class="cls-8" d="M50.39,100.42h-.56v-.32h.56v-1.21h.36v1.21h1.11v.32h-1.11v2.34c0,1.12.67,1.27,1.01,1.27.12,0,.2-.02.2-.02v.33s-.08.02-.21.02c-.44,0-1.35-.16-1.35-1.57v-2.36Z"/>
    <path class="cls-8" d="M54.81,99.97c1.21,0,2.2.96,2.2,2.2s-.99,2.25-2.2,2.25-2.2-.99-2.2-2.25.99-2.2,2.2-2.2ZM54.81,104.08c1.01,0,1.83-.83,1.83-1.9s-.82-1.85-1.83-1.85-1.83.8-1.83,1.85.82,1.9,1.83,1.9Z"/>
    <path class="cls-8" d="M62.17,99.97c1.07,0,1.47.96,1.47.96h.02s-.03-.15-.03-.35v-2.21h.36v5.95h-.36v-.54c0-.2.03-.32.03-.32h-.02s-.37.96-1.54.96-1.84-.91-1.84-2.23.79-2.23,1.9-2.23ZM62.12,104.08c.78,0,1.51-.55,1.51-1.89,0-.94-.48-1.87-1.48-1.87-.83,0-1.51.69-1.51,1.88s.61,1.88,1.48,1.88Z"/>
    <path class="cls-8" d="M67.37,99.97c1.22,0,2.2.96,2.2,2.2s-.99,2.25-2.2,2.25-2.2-.99-2.2-2.25.99-2.2,2.2-2.2ZM67.37,104.08c1.01,0,1.83-.83,1.83-1.9s-.82-1.85-1.83-1.85-1.83.8-1.83,1.85.82,1.9,1.83,1.9Z"/>
    <path class="cls-8" d="M73.24,100.42h-.56v-.32h.56v-1.21h.36v1.21h1.11v.32h-1.11v2.34c0,1.12.67,1.27,1.01,1.27.12,0,.2-.02.2-.02v.33s-.08.02-.21.02c-.44,0-1.35-.16-1.35-1.57v-2.36Z"/>
    <path class="cls-8" d="M75.77,98.38h.36v2.45c0,.2-.03.35-.03.35h.02c.14-.4.74-1.2,1.8-1.2s1.4.65,1.4,1.66v2.69h-.36v-2.57c0-.74-.09-1.44-1.04-1.44-.8,0-1.5.56-1.72,1.35-.05.18-.07.37-.07.58v2.07h-.36v-5.95Z"/>
    <path class="cls-8" d="M82.52,99.97c1.16,0,1.73.91,1.73,1.94,0,.09-.02.23-.02.23h-3.41c0,1.23.83,1.94,1.82,1.94.82,0,1.32-.54,1.32-.54l.2.3s-.59.59-1.51.59c-1.2,0-2.19-.87-2.19-2.22,0-1.44.98-2.24,2.06-2.24ZM83.88,101.81c-.04-1.04-.66-1.5-1.37-1.5-.78,0-1.5.51-1.66,1.5h3.03Z"/>
    <path class="cls-8" d="M87.81,100.08h.36v.81c0,.2-.03.35-.03.35h.02c.21-.65.69-1.19,1.36-1.19.13,0,.25.03.25.03v.36s-.1-.02-.2-.02c-.66,0-1.08.56-1.27,1.19-.09.3-.13.61-.13.89v1.84h-.36v-4.25Z"/>
    <path class="cls-8" d="M90.65,98.38h.42v.62h-.42v-.62ZM90.68,100.08h.36v4.25h-.36v-4.25Z"/>
    <path class="cls-8" d="M93.94,105.76c.91,0,1.61-.43,1.61-1.46v-.49c0-.2.03-.35.03-.35h-.02c-.25.52-.72.87-1.43.87-1.11,0-1.89-.87-1.89-2.19s.72-2.16,1.83-2.16c1.21,0,1.48.83,1.48.83h.02s-.03-.06-.03-.16v-.57h.36v4.22c0,1.3-.94,1.81-1.95,1.81-.47,0-.92-.12-1.33-.33l.17-.31s.53.3,1.14.3ZM95.56,102.13c0-1.37-.65-1.81-1.48-1.81-.91,0-1.45.66-1.45,1.81s.63,1.84,1.54,1.84c.75,0,1.39-.47,1.39-1.84Z"/>
    <path class="cls-8" d="M97.41,98.38h.36v2.45c0,.2-.03.35-.03.35h.02c.14-.4.74-1.2,1.8-1.2s1.4.65,1.4,1.66v2.69h-.36v-2.57c0-.74-.09-1.44-1.05-1.44-.8,0-1.5.56-1.72,1.35-.05.18-.07.37-.07.58v2.07h-.36v-5.95Z"/>
    <path class="cls-8" d="M102.52,100.42h-.56v-.32h.56v-1.21h.36v1.21h1.11v.32h-1.11v2.34c0,1.12.67,1.27,1.01,1.27.12,0,.2-.02.2-.02v.33s-.08.02-.21.02c-.44,0-1.35-.16-1.35-1.57v-2.36Z"/>
    <path class="cls-8" d="M107.55,100.42h-.56v-.32h.56v-1.21h.36v1.21h1.11v.32h-1.11v2.34c0,1.12.67,1.27,1.01,1.27.12,0,.2-.02.2-.02v.33s-.08.02-.21.02c-.44,0-1.35-.16-1.35-1.57v-2.36Z"/>
    <path class="cls-8" d="M110.08,98.38h.36v2.45c0,.2-.03.35-.03.35h.02c.14-.4.74-1.2,1.8-1.2s1.4.65,1.4,1.66v2.69h-.36v-2.57c0-.74-.09-1.44-1.04-1.44-.8,0-1.5.56-1.72,1.35-.05.18-.07.37-.07.58v2.07h-.36v-5.95Z"/>
    <path class="cls-8" d="M115.03,98.38h.42v.62h-.42v-.62ZM115.06,100.08h.36v4.25h-.36v-4.25Z"/>
    <path class="cls-8" d="M116.91,100.08h.36v.75c0,.2-.03.35-.03.35h.02c.14-.4.74-1.2,1.8-1.2s1.4.65,1.4,1.66v2.69h-.36v-2.57c0-.74-.09-1.44-1.04-1.44-.8,0-1.5.56-1.72,1.35-.05.18-.07.37-.07.58v2.07h-.36v-4.25Z"/>
    <path class="cls-8" d="M123.3,105.76c.91,0,1.62-.43,1.62-1.46v-.49c0-.2.03-.35.03-.35h-.02c-.25.52-.72.87-1.43.87-1.1,0-1.89-.87-1.89-2.19s.72-2.16,1.83-2.16c1.21,0,1.48.83,1.48.83h.02s-.03-.06-.03-.16v-.57h.36v4.22c0,1.3-.93,1.81-1.95,1.81-.47,0-.92-.12-1.33-.33l.17-.31s.53.3,1.14.3ZM124.92,102.13c0-1.37-.65-1.81-1.48-1.81-.91,0-1.45.66-1.45,1.81s.63,1.84,1.54,1.84c.75,0,1.39-.47,1.39-1.84Z"/>
    <path class="cls-8" d="M126.77,103.79h.52v.54h-.52v-.54Z"/>
    <path class="cls-8" d="M131.3,98.38h.37v2.8h3.77v-2.8h.37v5.95h-.37v-2.81h-3.77v2.81h-.37v-5.95Z"/>
    <path class="cls-8" d="M139.36,99.97c1.22,0,2.2.96,2.2,2.2s-.99,2.25-2.2,2.25-2.2-.99-2.2-2.25.99-2.2,2.2-2.2ZM139.36,104.08c1.01,0,1.83-.83,1.83-1.9s-.82-1.85-1.83-1.85-1.83.8-1.83,1.85.82,1.9,1.83,1.9Z"/>
    <path class="cls-8" d="M142.7,98.38h.36v4.98c0,.59.31.66.5.66.07,0,.13,0,.13,0v.33s-.08.02-.15.02c-.25,0-.83-.09-.83-.89v-5.09Z"/>
    <path class="cls-8" d="M146.32,99.97c1.07,0,1.47.96,1.47.96h.02s-.03-.15-.03-.35v-2.21h.36v5.95h-.36v-.54c0-.2.03-.32.03-.32h-.02s-.37.96-1.54.96-1.84-.91-1.84-2.23.79-2.23,1.9-2.23ZM146.27,104.08c.78,0,1.51-.55,1.51-1.89,0-.94-.48-1.87-1.48-1.87-.83,0-1.51.69-1.51,1.88s.61,1.88,1.48,1.88Z"/>
  </g>
  <g>
    <path class="cls-8" d="M11.63,111.98c1.22,0,2.2.96,2.2,2.2s-.99,2.25-2.2,2.25-2.2-.99-2.2-2.25.99-2.2,2.2-2.2ZM11.63,116.08c1.01,0,1.83-.83,1.83-1.9s-.82-1.85-1.83-1.85-1.83.8-1.83,1.85.82,1.9,1.83,1.9Z"/>
    <path class="cls-8" d="M14.96,112.08h.36v2.57c0,.74.09,1.44,1.05,1.44,1.06,0,1.74-.94,1.74-1.93v-2.07h.36v4.25h-.36v-.75c0-.2.03-.35.03-.35h-.02c-.14.4-.73,1.2-1.76,1.2s-1.4-.58-1.4-1.66v-2.69Z"/>
    <path class="cls-8" d="M19.96,112.08h.36v.81c0,.2-.03.35-.03.35h.02c.21-.65.69-1.19,1.36-1.19.13,0,.25.03.25.03v.36s-.1-.02-.2-.02c-.66,0-1.08.56-1.27,1.19-.09.3-.13.61-.13.89v1.84h-.36v-4.25Z"/>
    <path class="cls-8" d="M22.69,115.54s.48.54,1.32.54c.52,0,.98-.27.98-.8,0-1.08-2.34-.77-2.34-2.16,0-.76.64-1.15,1.36-1.15.87,0,1.26.46,1.26.46l-.21.29s-.35-.4-1.07-.4c-.48,0-.96.22-.96.77,0,1.1,2.34.77,2.34,2.18,0,.68-.58,1.15-1.36,1.15-1.03,0-1.54-.61-1.54-.61l.23-.27Z"/>
    <path class="cls-8" d="M28.3,111.98c1.16,0,1.73.91,1.73,1.94,0,.09-.02.23-.02.23h-3.41c0,1.23.83,1.94,1.82,1.94.82,0,1.32-.54,1.32-.54l.2.3s-.59.59-1.51.59c-1.2,0-2.19-.87-2.19-2.22,0-1.44.98-2.24,2.06-2.24ZM29.66,113.81c-.04-1.04-.66-1.5-1.37-1.5-.78,0-1.5.51-1.66,1.5h3.03Z"/>
    <path class="cls-8" d="M31.19,110.38h.36v4.98c0,.59.31.66.5.66.07,0,.13,0,.13,0v.33s-.08.02-.15.02c-.25,0-.83-.09-.83-.89v-5.09Z"/>
    <path class="cls-8" d="M32.6,112.08h.38l1.31,3.33c.08.2.14.46.14.46h.02s.07-.25.14-.46l1.31-3.33h.37l-1.67,4.25h-.34l-1.67-4.25Z"/>
    <path class="cls-8" d="M38.94,111.98c1.16,0,1.73.91,1.73,1.94,0,.09-.02.23-.02.23h-3.41c0,1.23.83,1.94,1.82,1.94.82,0,1.32-.54,1.32-.54l.2.3s-.6.59-1.51.59c-1.2,0-2.19-.87-2.19-2.22,0-1.44.98-2.24,2.07-2.24ZM40.3,113.81c-.04-1.04-.66-1.5-1.37-1.5-.78,0-1.5.51-1.66,1.5h3.03Z"/>
    <path class="cls-8" d="M41.74,115.54s.48.54,1.32.54c.52,0,.98-.27.98-.8,0-1.08-2.34-.77-2.34-2.16,0-.76.64-1.15,1.36-1.15.87,0,1.26.46,1.26.46l-.21.29s-.35-.4-1.07-.4c-.48,0-.96.22-.96.77,0,1.1,2.34.77,2.34,2.18,0,.68-.58,1.15-1.36,1.15-1.03,0-1.54-.61-1.54-.61l.23-.27Z"/>
    <path class="cls-8" d="M48.07,112.43h-.56v-.32h.56v-1.21h.36v1.21h1.11v.32h-1.11v2.34c0,1.12.67,1.27,1.01,1.27.12,0,.2-.02.2-.02v.33s-.08.02-.21.02c-.44,0-1.35-.16-1.35-1.57v-2.36Z"/>
    <path class="cls-8" d="M52.49,111.98c1.21,0,2.2.96,2.2,2.2s-.99,2.25-2.2,2.25-2.2-.99-2.2-2.25.99-2.2,2.2-2.2ZM52.49,116.08c1.01,0,1.83-.83,1.83-1.9s-.82-1.85-1.83-1.85-1.83.8-1.83,1.85.82,1.9,1.83,1.9Z"/>
    <path class="cls-8" d="M58.37,112.43h-.56v-.32h.56v-1.21h.36v1.21h1.11v.32h-1.11v2.34c0,1.12.67,1.27,1.01,1.27.12,0,.2-.02.2-.02v.33s-.08.02-.21.02c-.44,0-1.35-.16-1.35-1.57v-2.36Z"/>
    <path class="cls-8" d="M60.9,110.38h.36v2.45c0,.2-.03.35-.03.35h.02c.14-.4.74-1.2,1.8-1.2s1.4.65,1.4,1.66v2.69h-.36v-2.57c0-.74-.09-1.44-1.05-1.44-.8,0-1.5.56-1.72,1.35-.05.18-.07.37-.07.58v2.07h-.36v-5.95Z"/>
    <path class="cls-8" d="M67.65,111.98c1.16,0,1.73.91,1.73,1.94,0,.09-.02.23-.02.23h-3.41c0,1.23.83,1.94,1.82,1.94.82,0,1.32-.54,1.32-.54l.2.3s-.6.59-1.51.59c-1.2,0-2.19-.87-2.19-2.22,0-1.44.98-2.24,2.07-2.24ZM69.01,113.81c-.04-1.04-.66-1.5-1.37-1.5-.78,0-1.5.51-1.66,1.5h3.03Z"/>
    <path class="cls-8" d="M72.94,110.38h.36v2.45c0,.2-.03.35-.03.35h.02c.14-.4.74-1.2,1.8-1.2s1.4.65,1.4,1.66v2.69h-.36v-2.57c0-.74-.09-1.44-1.04-1.44-.8,0-1.5.56-1.72,1.35-.05.18-.07.37-.07.58v2.07h-.36v-5.95Z"/>
    <path class="cls-8" d="M77.88,110.38h.42v.62h-.42v-.62ZM77.92,112.08h.36v4.25h-.36v-4.25Z"/>
    <path class="cls-8" d="M81.17,117.76c.91,0,1.61-.43,1.61-1.46v-.49c0-.2.03-.35.03-.35h-.02c-.25.52-.72.87-1.43.87-1.11,0-1.89-.87-1.89-2.19s.72-2.16,1.83-2.16c1.21,0,1.48.83,1.48.83h.02s-.03-.06-.03-.16v-.57h.36v4.22c0,1.3-.94,1.81-1.95,1.81-.47,0-.92-.12-1.33-.33l.17-.31s.53.3,1.14.3ZM82.8,114.13c0-1.37-.65-1.81-1.48-1.81-.91,0-1.45.66-1.45,1.81s.63,1.84,1.54,1.84c.75,0,1.39-.47,1.39-1.84Z"/>
    <path class="cls-8" d="M84.64,110.38h.36v2.45c0,.2-.03.35-.03.35h.02c.14-.4.74-1.2,1.8-1.2s1.4.65,1.4,1.66v2.69h-.36v-2.57c0-.74-.09-1.44-1.05-1.44-.8,0-1.5.56-1.72,1.35-.05.18-.07.37-.07.58v2.07h-.36v-5.95Z"/>
    <path class="cls-8" d="M91.39,111.98c1.16,0,1.73.91,1.73,1.94,0,.09-.02.23-.02.23h-3.41c0,1.23.83,1.94,1.82,1.94.82,0,1.32-.54,1.32-.54l.2.3s-.6.59-1.51.59c-1.2,0-2.19-.87-2.19-2.22,0-1.44.98-2.24,2.07-2.24ZM92.75,113.81c-.04-1.04-.66-1.5-1.37-1.5-.78,0-1.5.51-1.66,1.5h3.03Z"/>
    <path class="cls-8" d="M94.19,115.54s.48.54,1.32.54c.52,0,.98-.27.98-.8,0-1.08-2.34-.77-2.34-2.16,0-.76.64-1.15,1.36-1.15.87,0,1.26.46,1.26.46l-.21.29s-.35-.4-1.07-.4c-.48,0-.96.22-.96.77,0,1.1,2.34.77,2.34,2.18,0,.68-.58,1.15-1.36,1.15-1.03,0-1.54-.61-1.54-.61l.23-.27Z"/>
    <path class="cls-8" d="M98.16,112.43h-.56v-.32h.56v-1.21h.36v1.21h1.11v.32h-1.11v2.34c0,1.12.67,1.27,1.01,1.27.12,0,.2-.02.2-.02v.33s-.08.02-.21.02c-.44,0-1.35-.16-1.35-1.57v-2.36Z"/>
    <path class="cls-8" d="M103.05,112.08h.36v.51c0,.2-.03.34-.03.34h.02s.35-.95,1.53-.95,1.84.91,1.84,2.23-.79,2.23-1.89,2.23-1.49-.96-1.49-.96h-.02s.03.15.03.37v2.18h-.36v-5.95ZM104.88,116.08c.83,0,1.51-.69,1.51-1.88s-.61-1.88-1.48-1.88c-.78,0-1.51.55-1.51,1.89,0,.94.53,1.87,1.48,1.87Z"/>
    <path class="cls-8" d="M109.74,111.98c1.16,0,1.73.91,1.73,1.94,0,.09-.02.23-.02.23h-3.41c0,1.23.83,1.94,1.82,1.94.82,0,1.32-.54,1.32-.54l.2.3s-.59.59-1.51.59c-1.2,0-2.19-.87-2.19-2.22,0-1.44.98-2.24,2.06-2.24ZM111.1,113.81c-.04-1.04-.66-1.5-1.37-1.5-.78,0-1.5.51-1.66,1.5h3.03Z"/>
    <path class="cls-8" d="M112.67,112.08h.36v.81c0,.2-.03.35-.03.35h.02c.21-.65.69-1.19,1.36-1.19.13,0,.25.03.25.03v.36s-.1-.02-.2-.02c-.66,0-1.08.56-1.27,1.19-.09.3-.13.61-.13.89v1.84h-.36v-4.25Z"/>
    <path class="cls-8" d="M115.41,115.54s.48.54,1.32.54c.52,0,.98-.27.98-.8,0-1.08-2.34-.77-2.34-2.16,0-.76.64-1.15,1.36-1.15.87,0,1.26.46,1.26.46l-.21.29s-.35-.4-1.07-.4c-.48,0-.96.22-.96.77,0,1.1,2.34.77,2.34,2.18,0,.68-.58,1.15-1.36,1.15-1.03,0-1.54-.61-1.54-.61l.23-.27Z"/>
    <path class="cls-8" d="M121.14,111.98c1.22,0,2.2.96,2.2,2.2s-.99,2.25-2.2,2.25-2.2-.99-2.2-2.25.99-2.2,2.2-2.2ZM121.14,116.08c1.01,0,1.83-.83,1.83-1.9s-.82-1.85-1.83-1.85-1.83.8-1.83,1.85.82,1.9,1.83,1.9Z"/>
    <path class="cls-8" d="M124.52,112.08h.36v.75c0,.2-.03.35-.03.35h.02c.14-.4.74-1.2,1.8-1.2s1.4.65,1.4,1.66v2.69h-.36v-2.57c0-.74-.09-1.44-1.04-1.44-.8,0-1.5.56-1.72,1.35-.05.18-.07.37-.07.58v2.07h-.36v-4.25Z"/>
    <path class="cls-8" d="M131.79,113.74h.28v-.14c0-.94-.48-1.27-1.16-1.27-.74,0-1.21.41-1.21.41l-.2-.29s.51-.47,1.44-.47c.98,0,1.5.54,1.5,1.61v2.75h-.36v-.56c0-.23.03-.38.03-.38h-.02s-.38,1.04-1.49,1.04c-.69,0-1.45-.38-1.45-1.23,0-1.44,1.88-1.46,2.63-1.46ZM130.62,116.1c.93,0,1.45-.96,1.45-1.8v-.23h-.27c-.72,0-2.27,0-2.27,1.1,0,.45.37.93,1.09.93Z"/>
    <path class="cls-8" d="M133.82,110.38h.36v4.98c0,.59.31.66.5.66.07,0,.13,0,.13,0v.33s-.08.02-.15.02c-.25,0-.83-.09-.83-.89v-5.09Z"/>
  </g>
  <g>
    <path class="cls-8" d="M9.61,127.55s.48.54,1.32.54c.52,0,.98-.27.98-.8,0-1.08-2.34-.77-2.34-2.16,0-.76.64-1.15,1.36-1.15.87,0,1.26.46,1.26.46l-.21.29s-.35-.4-1.07-.4c-.48,0-.96.22-.96.77,0,1.1,2.34.77,2.34,2.18,0,.68-.58,1.15-1.36,1.15-1.03,0-1.54-.61-1.54-.61l.23-.27Z"/>
    <path class="cls-8" d="M13.59,124.43h-.56v-.32h.56v-1.21h.36v1.21h1.11v.32h-1.11v2.34c0,1.12.67,1.27,1.01,1.27.12,0,.2-.02.2-.02v.33s-.08.02-.21.02c-.44,0-1.35-.16-1.35-1.57v-2.36Z"/>
    <path class="cls-8" d="M18.41,125.74h.28v-.14c0-.94-.48-1.27-1.16-1.27-.74,0-1.21.41-1.21.41l-.2-.29s.51-.47,1.44-.47c.98,0,1.5.54,1.5,1.61v2.75h-.36v-.56c0-.23.03-.38.03-.38h-.02s-.38,1.04-1.49,1.04c-.69,0-1.45-.38-1.45-1.23,0-1.44,1.88-1.46,2.63-1.46ZM17.24,128.1c.93,0,1.45-.96,1.45-1.8v-.23h-.27c-.72,0-2.27,0-2.27,1.1,0,.45.37.93,1.09.93Z"/>
    <path class="cls-8" d="M20.48,124.08h.36v.75c0,.2-.03.35-.03.35h.02c.14-.4.74-1.2,1.8-1.2s1.4.65,1.4,1.66v2.69h-.36v-2.57c0-.74-.09-1.44-1.05-1.44-.8,0-1.5.56-1.72,1.35-.05.18-.07.37-.07.58v2.07h-.36v-4.25Z"/>
    <path class="cls-8" d="M27.09,123.98c1.07,0,1.47.96,1.47.96h.02s-.03-.15-.03-.35v-2.21h.36v5.95h-.36v-.54c0-.2.03-.32.03-.32h-.02s-.37.96-1.54.96-1.84-.91-1.84-2.23.79-2.23,1.9-2.23ZM27.04,128.08c.78,0,1.51-.55,1.51-1.89,0-.94-.48-1.87-1.48-1.87-.83,0-1.51.69-1.51,1.88s.61,1.88,1.48,1.88Z"/>
    <path class="cls-8" d="M32.68,125.74h.28v-.14c0-.94-.48-1.27-1.16-1.27-.74,0-1.22.41-1.22.41l-.2-.29s.51-.47,1.44-.47c.98,0,1.5.54,1.5,1.61v2.75h-.36v-.56c0-.23.03-.38.03-.38h-.02s-.38,1.04-1.49,1.04c-.69,0-1.44-.38-1.44-1.23,0-1.44,1.88-1.46,2.63-1.46ZM31.51,128.1c.93,0,1.45-.96,1.45-1.8v-.23h-.27c-.72,0-2.27,0-2.27,1.1,0,.45.37.93,1.09.93Z"/>
    <path class="cls-8" d="M34.75,124.08h.36v.81c0,.2-.03.35-.03.35h.02c.21-.65.69-1.19,1.36-1.19.13,0,.25.03.25.03v.36s-.1-.02-.2-.02c-.66,0-1.08.56-1.27,1.19-.09.3-.13.61-.13.89v1.84h-.36v-4.25Z"/>
    <path class="cls-8" d="M39.19,123.98c1.07,0,1.47.96,1.47.96h.02s-.03-.15-.03-.35v-2.21h.36v5.95h-.36v-.54c0-.2.03-.32.03-.32h-.02s-.37.96-1.54.96-1.84-.91-1.84-2.23.79-2.23,1.9-2.23ZM39.14,128.08c.78,0,1.51-.55,1.51-1.89,0-.94-.48-1.87-1.48-1.87-.83,0-1.51.69-1.51,1.88s.61,1.88,1.48,1.88Z"/>
    <path class="cls-8" d="M42.36,127.55s.48.54,1.32.54c.52,0,.98-.27.98-.8,0-1.08-2.34-.77-2.34-2.16,0-.76.64-1.15,1.36-1.15.87,0,1.26.46,1.26.46l-.21.29s-.35-.4-1.07-.4c-.48,0-.96.22-.96.77,0,1.1,2.34.77,2.34,2.18,0,.68-.58,1.15-1.36,1.15-1.03,0-1.54-.61-1.54-.61l.23-.27Z"/>
    <path class="cls-8" d="M50.44,123.98c1.21,0,2.2.96,2.2,2.2s-.99,2.25-2.2,2.25-2.2-.99-2.2-2.25.99-2.2,2.2-2.2ZM50.44,128.08c1.01,0,1.83-.83,1.83-1.9s-.82-1.85-1.83-1.85-1.83.8-1.83,1.85.82,1.9,1.83,1.9Z"/>
    <path class="cls-8" d="M53.98,124.43h-.54v-.32h.54v-.2c0-1.4.92-1.57,1.34-1.57.14,0,.22.02.22.02v.33s-.08-.02-.2-.02c-.34,0-1.01.14-1.01,1.23v.2h1.17v.32h-1.17v3.9h-.36v-3.9Z"/>
    <path class="cls-8" d="M58.75,122.38h.36v2.45c0,.2-.03.35-.03.35h.02c.14-.4.74-1.2,1.8-1.2s1.4.65,1.4,1.66v2.69h-.36v-2.57c0-.74-.09-1.44-1.04-1.44-.8,0-1.5.56-1.72,1.35-.05.18-.07.37-.07.58v2.07h-.36v-5.95Z"/>
    <path class="cls-8" d="M65.62,123.98c1.22,0,2.2.96,2.2,2.2s-.99,2.25-2.2,2.25-2.2-.99-2.2-2.25.99-2.2,2.2-2.2ZM65.62,128.08c1.01,0,1.83-.83,1.83-1.9s-.82-1.85-1.83-1.85-1.83.8-1.83,1.85.82,1.9,1.83,1.9Z"/>
    <path class="cls-8" d="M69,124.08h.36v.75c0,.2-.03.35-.03.35h.02c.14-.4.74-1.2,1.8-1.2s1.4.65,1.4,1.66v2.69h-.36v-2.57c0-.74-.09-1.44-1.04-1.44-.8,0-1.5.56-1.72,1.35-.05.18-.07.37-.07.58v2.07h-.36v-4.25Z"/>
    <path class="cls-8" d="M75.75,123.98c1.16,0,1.73.91,1.73,1.94,0,.09-.02.23-.02.23h-3.41c0,1.23.83,1.94,1.82,1.94.82,0,1.32-.54,1.32-.54l.2.3s-.59.59-1.51.59c-1.2,0-2.19-.87-2.19-2.22,0-1.44.98-2.24,2.06-2.24ZM77.11,125.81c-.04-1.04-.66-1.5-1.37-1.5-.78,0-1.5.51-1.66,1.5h3.03Z"/>
    <path class="cls-8" d="M78.55,127.55s.48.54,1.32.54c.52,0,.98-.27.98-.8,0-1.08-2.34-.77-2.34-2.16,0-.76.64-1.15,1.36-1.15.87,0,1.26.46,1.26.46l-.21.29s-.35-.4-1.07-.4c-.48,0-.96.22-.96.77,0,1.1,2.34.77,2.34,2.18,0,.68-.58,1.15-1.36,1.15-1.03,0-1.54-.61-1.54-.61l.23-.27Z"/>
    <path class="cls-8" d="M82.52,124.43h-.56v-.32h.56v-1.21h.36v1.21h1.11v.32h-1.11v2.34c0,1.12.67,1.27,1.01,1.27.12,0,.2-.02.2-.02v.33s-.08.02-.21.02c-.44,0-1.35-.16-1.35-1.57v-2.36Z"/>
    <path class="cls-8" d="M84.54,129.57s.24.2.53.2c.41,0,.66-.37.83-.77l.31-.71-1.76-4.22h.38l1.4,3.39c.08.2.15.4.15.4h.02s.06-.2.14-.4l1.4-3.39h.38l-2.18,5.24c-.19.44-.54.79-1.08.79-.41,0-.69-.24-.69-.24l.16-.31Z"/>
    <path class="cls-8" d="M93.85,125.74h.28v-.14c0-.94-.48-1.27-1.16-1.27-.74,0-1.22.41-1.22.41l-.2-.29s.51-.47,1.44-.47c.98,0,1.5.54,1.5,1.61v2.75h-.36v-.56c0-.23.03-.38.03-.38h-.02s-.38,1.04-1.49,1.04c-.69,0-1.44-.38-1.44-1.23,0-1.44,1.88-1.46,2.63-1.46ZM92.68,128.1c.93,0,1.45-.96,1.45-1.8v-.23h-.27c-.72,0-2.27,0-2.27,1.1,0,.45.37.93,1.09.93Z"/>
    <path class="cls-8" d="M95.93,124.08h.36v.75c0,.2-.03.35-.03.35h.02c.14-.4.74-1.2,1.8-1.2s1.4.65,1.4,1.66v2.69h-.36v-2.57c0-.74-.09-1.44-1.04-1.44-.8,0-1.5.56-1.72,1.35-.05.18-.07.37-.07.58v2.07h-.36v-4.25Z"/>
    <path class="cls-8" d="M102.53,123.98c1.07,0,1.47.96,1.47.96h.02s-.03-.15-.03-.35v-2.21h.36v5.95h-.36v-.54c0-.2.03-.32.03-.32h-.02s-.37.96-1.54.96-1.84-.91-1.84-2.23.79-2.23,1.9-2.23ZM102.48,128.08c.78,0,1.51-.55,1.51-1.89,0-.94-.48-1.87-1.48-1.87-.83,0-1.51.69-1.51,1.88s.61,1.88,1.48,1.88Z"/>
    <path class="cls-8" d="M108.33,124.43h-.56v-.32h.56v-1.21h.36v1.21h1.11v.32h-1.11v2.34c0,1.12.67,1.27,1.01,1.27.12,0,.2-.02.2-.02v.33s-.08.02-.21.02c-.44,0-1.35-.16-1.35-1.57v-2.36Z"/>
    <path class="cls-8" d="M110.86,124.08h.36v.81c0,.2-.03.35-.03.35h.02c.21-.65.69-1.19,1.36-1.19.13,0,.25.03.25.03v.36s-.1-.02-.2-.02c-.66,0-1.08.56-1.27,1.19-.09.3-.13.61-.13.89v1.84h-.36v-4.25Z"/>
    <path class="cls-8" d="M116.02,125.74h.28v-.14c0-.94-.48-1.27-1.16-1.27-.74,0-1.21.41-1.21.41l-.2-.29s.51-.47,1.44-.47c.98,0,1.5.54,1.5,1.61v2.75h-.36v-.56c0-.23.03-.38.03-.38h-.02s-.38,1.04-1.49,1.04c-.69,0-1.45-.38-1.45-1.23,0-1.44,1.88-1.46,2.63-1.46ZM114.85,128.1c.93,0,1.45-.96,1.45-1.8v-.23h-.27c-.72,0-2.27,0-2.27,1.1,0,.45.37.93,1.09.93Z"/>
    <path class="cls-8" d="M118.1,124.08h.36v.75c0,.2-.03.35-.03.35h.02c.14-.4.74-1.2,1.8-1.2s1.4.65,1.4,1.66v2.69h-.36v-2.57c0-.74-.09-1.44-1.05-1.44-.8,0-1.5.56-1.72,1.35-.05.18-.07.37-.07.58v2.07h-.36v-4.25Z"/>
    <path class="cls-8" d="M122.94,127.55s.48.54,1.32.54c.52,0,.98-.27.98-.8,0-1.08-2.34-.77-2.34-2.16,0-.76.64-1.15,1.36-1.15.87,0,1.26.46,1.26.46l-.21.29s-.35-.4-1.07-.4c-.48,0-.96.22-.96.77,0,1.1,2.34.77,2.34,2.18,0,.68-.58,1.15-1.36,1.15-1.03,0-1.54-.61-1.54-.61l.23-.27Z"/>
    <path class="cls-8" d="M126.78,124.08h.36v.51c0,.2-.03.34-.03.34h.02s.35-.95,1.53-.95,1.84.91,1.84,2.23-.79,2.23-1.89,2.23-1.49-.96-1.49-.96h-.02s.03.15.03.37v2.18h-.36v-5.95ZM128.61,128.08c.83,0,1.51-.69,1.51-1.88s-.61-1.88-1.48-1.88c-.78,0-1.51.55-1.51,1.89,0,.94.53,1.87,1.48,1.87Z"/>
    <path class="cls-8" d="M133.99,125.74h.28v-.14c0-.94-.48-1.27-1.16-1.27-.74,0-1.21.41-1.21.41l-.2-.29s.51-.47,1.44-.47c.98,0,1.5.54,1.5,1.61v2.75h-.36v-.56c0-.23.03-.38.03-.38h-.02s-.38,1.04-1.49,1.04c-.69,0-1.45-.38-1.45-1.23,0-1.44,1.88-1.46,2.63-1.46ZM132.82,128.1c.93,0,1.45-.96,1.45-1.8v-.23h-.27c-.72,0-2.27,0-2.27,1.1,0,.45.37.93,1.09.93Z"/>
    <path class="cls-8" d="M136.06,124.08h.36v.81c0,.2-.03.35-.03.35h.02c.21-.65.69-1.19,1.36-1.19.13,0,.25.03.25.03v.36s-.1-.02-.2-.02c-.66,0-1.08.56-1.27,1.19-.09.3-.13.61-.13.89v1.84h-.36v-4.25Z"/>
    <path class="cls-8" d="M140.61,123.98c1.16,0,1.73.91,1.73,1.94,0,.09-.02.23-.02.23h-3.41c0,1.23.83,1.94,1.82,1.94.82,0,1.32-.54,1.32-.54l.2.3s-.59.59-1.51.59c-1.2,0-2.19-.87-2.19-2.22,0-1.44.98-2.24,2.06-2.24ZM141.97,125.81c-.04-1.04-.66-1.5-1.37-1.5-.78,0-1.5.51-1.66,1.5h3.03Z"/>
    <path class="cls-8" d="M143.54,124.08h.36v.75c0,.2-.03.35-.03.35h.02c.14-.4.74-1.2,1.8-1.2s1.4.65,1.4,1.66v2.69h-.36v-2.57c0-.74-.09-1.44-1.04-1.44-.8,0-1.5.56-1.72,1.35-.05.18-.07.37-.07.58v2.07h-.36v-4.25Z"/>
    <path class="cls-8" d="M150.42,123.98c1.01,0,1.52.6,1.52.6l-.22.29s-.48-.54-1.3-.54c-.99,0-1.82.74-1.82,1.89s.83,1.87,1.82,1.87c.93,0,1.42-.61,1.42-.61l.19.3s-.55.66-1.61.66c-1.2,0-2.19-.87-2.19-2.22s1.01-2.24,2.19-2.24Z"/>
    <path class="cls-8" d="M152.69,129.57s.24.2.53.2c.41,0,.66-.37.83-.77l.31-.71-1.76-4.22h.38l1.4,3.39c.08.2.15.4.15.4h.02s.06-.2.14-.4l1.4-3.39h.38l-2.18,5.24c-.19.44-.54.79-1.08.79-.41,0-.69-.24-.69-.24l.16-.31Z"/>
    <path class="cls-8" d="M157.14,127.79h.52v.54h-.52v-.54Z"/>
  </g>
  <g>
    <path class="cls-6" d="M8.93,42.64h2.09l1.39,4.48c.15.5.3,1.27.3,1.27h.02s.14-.77.3-1.27l1.41-4.48h2.06l-2.77,7.87h-2l-2.78-7.87Z"/>
    <path class="cls-6" d="M19.78,46.98h.08v-.1c0-.47-.36-.63-.84-.63-.71,0-1.53.54-1.53.54l-.66-1.34s.98-.74,2.38-.74c1.6,0,2.55.87,2.55,2.31v3.49h-1.74v-.34c0-.19.02-.35.02-.35h-.02s-.42.83-1.61.83c-1.06,0-1.92-.7-1.92-1.83,0-1.65,2.41-1.84,3.29-1.84ZM18.94,49.19c.5,0,.94-.54.94-1v-.12h-.18c-.6,0-1.3.18-1.3.65,0,.26.17.47.54.47Z"/>
    <path class="cls-6" d="M23,42.64h1.9v5.52c0,.54.1.73.53.73.12,0,.23-.01.23-.01v1.65s-.26.03-.57.03c-1.01,0-2.09-.24-2.09-2.14v-5.78Z"/>
    <path class="cls-6" d="M26.56,44.84h1.9v3.32c0,.53.21.75.61.75.81,0,1.2-.71,1.2-1.56v-2.51h1.9v5.67h-1.83v-.5c0-.19.02-.35.02-.35h-.02c-.31.6-1.01.98-1.77.98-1.12,0-2.01-.53-2.01-2.12v-3.67Z"/>
    <path class="cls-6" d="M36.11,44.71c1.67,0,2.62,1.17,2.62,2.74,0,.19-.04.59-.04.59h-3.58c.14.69.71,1.01,1.32,1.01.81,0,1.56-.57,1.56-.57l.7,1.33s-.91.83-2.42.83c-2.02,0-3.11-1.46-3.11-2.97,0-1.66,1.12-2.96,2.95-2.96ZM36.82,46.96c0-.43-.3-.81-.75-.81-.55,0-.81.4-.91.81h1.66Z"/>
    <path class="cls-6" d="M40.14,48.53s.63.57,1.44.57c.29,0,.56-.08.56-.26,0-.5-2.65-.55-2.65-2.4,0-1.07,1.02-1.73,2.33-1.73s1.99.65,1.99.65l-.65,1.35s-.55-.46-1.34-.46c-.29,0-.56.08-.56.28,0,.43,2.65.5,2.65,2.32,0,.97-.86,1.79-2.32,1.79s-2.27-.84-2.27-.84l.81-1.28Z"/>
  </g>
  <g class="cls-5">
    <path class="cls-4" d="M26.31.25C16.89.25,9.25,7.89,9.25,17.31s7.64,17.06,17.06,17.06,17.06-7.64,17.06-17.06c0-4.96-2.12-9.43-5.5-12.54"/>
    <path class="cls-1" d="M42.45,22.84c.59-1.73.92-3.6.92-5.53,0-2.56-.56-4.98-1.57-7.16"/>
    <path class="cls-6" d="M27.09,10.01c.27,0,.48-.21.49-.48h0v-2.19c-.02-.27-.26-.46-.53-.44-.23.02-.42.21-.44.44v2.19c0,.27.22.48.48.48"/>
    <path class="cls-7" d="M21.44,10.54c.09.12.24.18.39.18.1,0,.2-.04.29-.1.21-.17.24-.47.07-.68h0s-1.44-1.81-1.44-1.81c-.17-.21-.47-.24-.68-.07-.21.17-.24.47-.07.68h0s1.45,1.8,1.45,1.8Z"/>
    <path class="cls-7" d="M32.07,10.62c.09.07.19.1.3.1.15,0,.29-.06.38-.18l1.45-1.8c.17-.21.13-.52-.08-.69-.21-.17-.52-.13-.69.08l-1.44,1.8c-.17.21-.13.51.08.68h0Z"/>
    <path class="cls-6" d="M31.79,12.51h-9.7c-.14,0-.27.06-.36.16l-4.14,4.66c-.15.08-.25.24-.25.42,0,.13.04.26.13.36l9.07,9.43c.07.09.17.15.28.18h.18c.06-.01.11-.04.16-.07.05-.03.09-.07.12-.11l9.07-9.43c.09-.1.14-.22.13-.36h.04c0-.17-.09-.33-.24-.42l-4.13-4.66c-.09-.1-.22-.16-.36-.16M31.67,13.57c-.07-.05-.16-.09-.25-.09h.17l.08.09ZM22.32,13.5l6.06-.03h1.07l2.21.09.07.05,3.31,3.76c.13.07.21.21.21.36h-.03c0,.12-.04.23-.12.31l-.18.18h.02l-6.66,6.93v-.04s-1.05,1.11-1.05,1.11c-.03.04-.07.07-.11.1-.04.03-.09.05-.14.06h-.15c-.1-.02-.18-.07-.25-.15l-7.87-8.18c-.08-.08-.12-.19-.11-.31,0-.15.09-.29.22-.36l3.31-3.76c.05-.05.11-.09.18-.11l.03-.03h.11s-.09.01-.14.03"/>
    <path class="cls-7" d="M24.07,15.74c.06.03.12.04.18.04.18-.02.33-.13.4-.3l.82-2h-.99l-.67,1.64c-.1.25.02.53.26.63"/>
    <path class="cls-7" d="M26.96,25.94l-3.08-7.72h6.11l-3.03,7.72ZM35.05,17.37l-.1-.11h-3.95l-1.54-3.79h-1.07l1.54,3.79h-10.98l-.11.11c-.13.07-.22.21-.22.36,0,.11.03.23.11.31l.2.18h3.92l2.74,6.93,1,1.07c.06.08.15.13.25.15h.15c.05-.01.1-.03.14-.06.04-.03.08-.06.11-.1l1.06-1.1,2.73-6.9h3.9l.18-.18c.08-.08.12-.2.12-.31h.03c0-.15-.08-.29-.21-.36"/>
  </g>
  <g>
    <path class="cls-7" d="M9.9,72.21h1.29v7.1h-1.29v-7.1Z"/>
    <path class="cls-7" d="M12.79,74.2h1.22v.59c0,.19-.02.35-.02.35h.02c.22-.43.78-1.06,1.81-1.06,1.13,0,1.77.59,1.77,1.94v3.28h-1.26v-3.02c0-.62-.16-1.04-.81-1.04s-1.18.43-1.37,1.04c-.07.21-.09.44-.09.68v2.34h-1.27v-5.1Z"/>
    <path class="cls-7" d="M19.14,75.29h-.66v-1.01h.69v-1.47h1.24v1.47h1.16v1.01h-1.16v1.98c0,.84.66.96,1.01.96.14,0,.23-.02.23-.02v1.11s-.15.03-.39.03c-.71,0-2.12-.21-2.12-1.92v-2.14Z"/>
    <path class="cls-7" d="M24.92,74.08c1.47,0,2.26,1.07,2.26,2.42,0,.15-.03.49-.03.49h-3.52c.08.89.77,1.35,1.53,1.35.82,0,1.47-.56,1.47-.56l.49.91s-.78.73-2.05.73c-1.69,0-2.74-1.22-2.74-2.67,0-1.57,1.07-2.67,2.59-2.67ZM25.9,76.12c-.02-.69-.45-1.06-1.01-1.06-.65,0-1.1.4-1.22,1.06h2.23Z"/>
    <path class="cls-7" d="M30.16,80.32c.78,0,1.44-.33,1.44-1.24v-.3c0-.12.02-.27.02-.27h-.02c-.3.45-.74.69-1.42.69-1.46,0-2.29-1.18-2.29-2.58s.79-2.54,2.26-2.54c1.11,0,1.51.65,1.51.65h.03s0-.06,0-.14v-.39h1.19v4.79c0,1.75-1.36,2.41-2.69,2.41-.64,0-1.32-.18-1.81-.44l.38-.97s.64.33,1.41.33ZM31.63,76.63c0-1.16-.57-1.47-1.26-1.47-.77,0-1.2.56-1.2,1.42s.46,1.55,1.28,1.55c.61,0,1.18-.35,1.18-1.5Z"/>
    <path class="cls-7" d="M34.27,74.2h1.22v.88c0,.19-.02.36-.02.36h.02c.23-.73.84-1.31,1.62-1.31.12,0,.23.02.23.02v1.25s-.13-.02-.3-.02c-.54,0-1.15.31-1.39,1.07-.08.25-.11.53-.11.83v2.02h-1.27v-5.1Z"/>
    <path class="cls-7" d="M38.2,72.21h1.26v1.13h-1.26v-1.13ZM38.2,74.2h1.27v5.1h-1.27v-5.1Z"/>
    <path class="cls-7" d="M41.09,75.29h-.66v-1.01h.69v-1.47h1.24v1.47h1.16v1.01h-1.16v1.98c0,.84.66.96,1.01.96.14,0,.23-.02.23-.02v1.11s-.15.03-.39.03c-.71,0-2.12-.21-2.12-1.92v-2.14Z"/>
    <path class="cls-7" d="M44.37,80.12s.28.21.57.21c.35,0,.69-.21.88-.66l.19-.45-2.15-5.02h1.43l1.07,2.94c.1.27.19.69.19.69h.02s.08-.4.17-.67l1-2.96h1.39l-2.28,5.87c-.36.93-1.07,1.33-1.84,1.33-.61,0-1.06-.33-1.06-.33l.42-.95Z"/>
  </g>
  <line class="cls-3" x1="9.25" y1="86.59" x2="160.73" y2="86.59"/>
  <rect class="cls-9" x="139.91" y="85.17" width="22.68" height="2.84"/>
  <g>
    <path class="cls-8" d="M9.92,189.07h.37v2.8h3.77v-2.8h.37v5.95h-.37v-2.81h-3.77v2.81h-.37v-5.95Z"/>
    <path class="cls-8" d="M18.37,192.43h.28v-.14c0-.94-.48-1.27-1.16-1.27-.74,0-1.21.41-1.21.41l-.2-.29s.51-.47,1.44-.47c.98,0,1.5.54,1.5,1.61v2.75h-.36v-.56c0-.23.03-.38.03-.38h-.02s-.38,1.04-1.49,1.04c-.69,0-1.45-.38-1.45-1.23,0-1.44,1.88-1.46,2.63-1.46ZM17.2,194.79c.93,0,1.45-.96,1.45-1.8v-.23h-.27c-.72,0-2.27,0-2.27,1.1,0,.45.37.93,1.09.93Z"/>
    <path class="cls-8" d="M19.85,190.77h.38l1.31,3.33c.08.2.14.46.14.46h.02s.07-.25.14-.46l1.31-3.33h.37l-1.67,4.25h-.34l-1.67-4.25Z"/>
    <path class="cls-8" d="M26.2,190.67c1.16,0,1.73.91,1.73,1.94,0,.09-.02.23-.02.23h-3.41c0,1.23.83,1.94,1.82,1.94.82,0,1.32-.54,1.32-.54l.2.3s-.59.59-1.51.59c-1.2,0-2.19-.87-2.19-2.22,0-1.44.98-2.24,2.06-2.24ZM27.56,192.5c-.04-1.04-.66-1.5-1.37-1.5-.78,0-1.5.51-1.66,1.5h3.03Z"/>
    <path class="cls-8" d="M33.39,190.67c1.01,0,1.52.6,1.52.6l-.22.29s-.48-.54-1.3-.54c-.99,0-1.82.74-1.82,1.89s.82,1.87,1.82,1.87c.94,0,1.42-.61,1.42-.61l.19.3s-.55.66-1.61.66c-1.2,0-2.19-.87-2.19-2.22s1.01-2.24,2.19-2.24Z"/>
    <path class="cls-8" d="M38.04,190.67c1.22,0,2.2.96,2.2,2.2s-.99,2.25-2.2,2.25-2.2-.99-2.2-2.25.99-2.2,2.2-2.2ZM38.04,194.77c1.01,0,1.83-.83,1.83-1.9s-.82-1.85-1.83-1.85-1.83.8-1.83,1.85.82,1.9,1.83,1.9Z"/>
    <path class="cls-8" d="M41.43,190.77h.36v.75c0,.2-.03.35-.03.35h.02c.14-.4.74-1.2,1.8-1.2s1.4.65,1.4,1.66v2.69h-.36v-2.57c0-.74-.09-1.44-1.04-1.44-.8,0-1.5.56-1.72,1.35-.05.18-.07.37-.07.58v2.07h-.36v-4.25Z"/>
    <path class="cls-8" d="M48.97,191.09h-2.06v3.93h-.36v-3.93h-.54v-.32h.54v-.17c0-1.4.92-1.57,1.34-1.57.14,0,.22.02.22.02v.33s-.08-.02-.2-.02c-.34,0-1.01.14-1.01,1.23v.18h2.41v4.25h-.36v-3.93ZM48.94,189.07h.42v.62h-.42v-.62Z"/>
    <path class="cls-8" d="M52.45,190.67c1.07,0,1.47.96,1.47.96h.02s-.03-.15-.03-.35v-2.21h.36v5.95h-.36v-.54c0-.2.03-.32.03-.32h-.02s-.37.96-1.54.96-1.84-.91-1.84-2.23.79-2.23,1.9-2.23ZM52.4,194.77c.78,0,1.51-.55,1.51-1.89,0-.94-.48-1.87-1.48-1.87-.83,0-1.51.69-1.51,1.88s.61,1.88,1.48,1.88Z"/>
    <path class="cls-8" d="M57.52,190.67c1.16,0,1.73.91,1.73,1.94,0,.09-.02.23-.02.23h-3.41c0,1.23.83,1.94,1.82,1.94.82,0,1.32-.54,1.32-.54l.2.3s-.59.59-1.51.59c-1.2,0-2.19-.87-2.19-2.22,0-1.44.98-2.24,2.06-2.24ZM58.89,192.5c-.04-1.04-.66-1.5-1.37-1.5-.78,0-1.5.51-1.66,1.5h3.03Z"/>
    <path class="cls-8" d="M60.46,190.77h.36v.75c0,.2-.03.35-.03.35h.02c.14-.4.74-1.2,1.8-1.2s1.4.65,1.4,1.66v2.69h-.36v-2.57c0-.74-.09-1.44-1.04-1.44-.8,0-1.5.56-1.72,1.35-.05.18-.07.37-.07.58v2.07h-.36v-4.25Z"/>
    <path class="cls-8" d="M67.33,190.67c1.01,0,1.52.6,1.52.6l-.22.29s-.48-.54-1.3-.54c-.99,0-1.82.74-1.82,1.89s.83,1.87,1.82,1.87c.93,0,1.42-.61,1.42-.61l.19.3s-.55.66-1.61.66c-1.2,0-2.19-.87-2.19-2.22s1.01-2.24,2.19-2.24Z"/>
    <path class="cls-8" d="M71.87,190.67c1.16,0,1.73.91,1.73,1.94,0,.09-.02.23-.02.23h-3.41c0,1.23.83,1.94,1.82,1.94.82,0,1.32-.54,1.32-.54l.2.3s-.6.59-1.51.59c-1.2,0-2.19-.87-2.19-2.22,0-1.44.98-2.24,2.07-2.24ZM73.23,192.5c-.04-1.04-.66-1.5-1.37-1.5-.78,0-1.5.51-1.66,1.5h3.03Z"/>
    <path class="cls-8" d="M77.13,189.07h.42v.62h-.42v-.62ZM77.16,190.77h.36v4.25h-.36v-4.25Z"/>
    <path class="cls-8" d="M79.01,190.77h.36v.75c0,.2-.03.35-.03.35h.02c.14-.4.74-1.2,1.8-1.2s1.4.65,1.4,1.66v2.69h-.36v-2.57c0-.74-.09-1.44-1.05-1.44-.8,0-1.5.56-1.72,1.35-.05.18-.07.37-.07.58v2.07h-.36v-4.25Z"/>
    <path class="cls-8" d="M88.12,190.67c1.16,0,1.73.91,1.73,1.94,0,.09-.02.23-.02.23h-3.41c0,1.23.83,1.94,1.82,1.94.82,0,1.32-.54,1.32-.54l.2.3s-.6.59-1.51.59c-1.2,0-2.19-.87-2.19-2.22,0-1.44.98-2.24,2.07-2.24ZM89.48,192.5c-.04-1.04-.66-1.5-1.37-1.5-.78,0-1.5.51-1.66,1.5h3.03Z"/>
    <path class="cls-8" d="M93.34,192.43h.28v-.14c0-.94-.48-1.27-1.16-1.27-.74,0-1.22.41-1.22.41l-.2-.29s.51-.47,1.44-.47c.98,0,1.5.54,1.5,1.61v2.75h-.36v-.56c0-.23.03-.38.03-.38h-.02s-.38,1.04-1.49,1.04c-.69,0-1.44-.38-1.44-1.23,0-1.44,1.88-1.46,2.63-1.46ZM92.16,194.79c.93,0,1.45-.96,1.45-1.8v-.23h-.27c-.72,0-2.27,0-2.27,1.1,0,.45.37.93,1.09.93Z"/>
    <path class="cls-8" d="M97.3,190.67c1.01,0,1.52.6,1.52.6l-.22.29s-.48-.54-1.3-.54c-.99,0-1.82.74-1.82,1.89s.82,1.87,1.82,1.87c.94,0,1.42-.61,1.42-.61l.19.3s-.55.66-1.61.66c-1.2,0-2.19-.87-2.19-2.22s1.01-2.24,2.19-2.24Z"/>
    <path class="cls-8" d="M100.09,189.07h.36v2.45c0,.2-.03.35-.03.35h.02c.14-.4.74-1.2,1.8-1.2s1.4.65,1.4,1.66v2.69h-.36v-2.57c0-.74-.09-1.44-1.04-1.44-.8,0-1.5.56-1.72,1.35-.05.18-.07.37-.07.58v2.07h-.36v-5.95Z"/>
    <path class="cls-8" d="M109.32,190.67c1.22,0,2.2.96,2.2,2.2s-.99,2.25-2.2,2.25-2.2-.99-2.2-2.25.99-2.2,2.2-2.2ZM109.32,194.77c1.01,0,1.83-.83,1.83-1.9s-.82-1.85-1.83-1.85-1.83.8-1.83,1.85.82,1.9,1.83,1.9Z"/>
    <path class="cls-8" d="M112.83,191.12h-.56v-.32h.56v-1.21h.36v1.21h1.11v.32h-1.11v2.34c0,1.12.67,1.27,1.01,1.27.12,0,.2-.02.2-.02v.33s-.08.02-.21.02c-.44,0-1.35-.16-1.35-1.57v-2.36Z"/>
    <path class="cls-8" d="M115.37,189.07h.36v2.45c0,.2-.03.35-.03.35h.02c.14-.4.74-1.2,1.8-1.2s1.4.65,1.4,1.66v2.69h-.36v-2.57c0-.74-.09-1.44-1.04-1.44-.8,0-1.5.56-1.72,1.35-.05.18-.07.37-.07.58v2.07h-.36v-5.95Z"/>
    <path class="cls-8" d="M122.12,190.67c1.16,0,1.73.91,1.73,1.94,0,.09-.02.23-.02.23h-3.41c0,1.23.83,1.94,1.82,1.94.82,0,1.32-.54,1.32-.54l.2.3s-.59.59-1.51.59c-1.2,0-2.19-.87-2.19-2.22,0-1.44.98-2.24,2.06-2.24ZM123.48,192.5c-.04-1.04-.66-1.5-1.37-1.5-.78,0-1.5.51-1.66,1.5h3.03Z"/>
    <path class="cls-8" d="M125.05,190.77h.36v.81c0,.2-.03.35-.03.35h.02c.21-.65.69-1.19,1.36-1.19.13,0,.25.03.25.03v.36s-.1-.02-.2-.02c-.66,0-1.08.56-1.27,1.19-.09.3-.13.61-.13.89v1.84h-.36v-4.25Z"/>
    <path class="cls-8" d="M128.01,189h.44l-.41,1.28h-.33l.3-1.28Z"/>
    <path class="cls-8" d="M129.46,194.24s.48.54,1.32.54c.52,0,.98-.27.98-.8,0-1.08-2.34-.77-2.34-2.16,0-.76.64-1.15,1.36-1.15.87,0,1.26.46,1.26.46l-.21.29s-.35-.4-1.07-.4c-.48,0-.96.22-.96.77,0,1.1,2.34.77,2.34,2.18,0,.68-.58,1.15-1.36,1.15-1.03,0-1.54-.61-1.54-.61l.23-.27Z"/>
  </g>
  <g>
    <path class="cls-8" d="M11.64,202.67c1.01,0,1.52.6,1.52.6l-.22.29s-.48-.54-1.3-.54c-.99,0-1.82.74-1.82,1.89s.83,1.87,1.82,1.87c.93,0,1.42-.61,1.42-.61l.19.3s-.55.66-1.61.66c-1.2,0-2.19-.87-2.19-2.22s1.01-2.24,2.19-2.24Z"/>
    <path class="cls-8" d="M16.72,204.43h.28v-.14c0-.94-.48-1.27-1.16-1.27-.74,0-1.21.41-1.21.41l-.2-.29s.51-.47,1.44-.47c.98,0,1.5.54,1.5,1.61v2.75h-.36v-.56c0-.23.03-.38.03-.38h-.02s-.38,1.04-1.49,1.04c-.69,0-1.45-.38-1.45-1.23,0-1.44,1.88-1.46,2.63-1.46ZM15.54,206.79c.93,0,1.45-.96,1.45-1.8v-.23h-.27c-.72,0-2.27,0-2.27,1.1,0,.45.37.93,1.09.93Z"/>
    <path class="cls-8" d="M18.79,202.77h.36v.51c0,.2-.03.34-.03.34h.02s.35-.95,1.53-.95,1.83.91,1.83,2.23-.79,2.23-1.89,2.23-1.49-.96-1.49-.96h-.02s.03.15.03.37v2.18h-.36v-5.95ZM20.62,206.77c.83,0,1.51-.69,1.51-1.88s-.61-1.88-1.48-1.88c-.78,0-1.51.55-1.51,1.89,0,.94.53,1.87,1.48,1.87Z"/>
    <path class="cls-8" d="M26,204.43h.28v-.14c0-.94-.48-1.27-1.16-1.27-.74,0-1.22.41-1.22.41l-.2-.29s.51-.47,1.44-.47c.98,0,1.5.54,1.5,1.61v2.75h-.36v-.56c0-.23.03-.38.03-.38h-.02s-.38,1.04-1.49,1.04c-.69,0-1.44-.38-1.44-1.23,0-1.44,1.88-1.46,2.63-1.46ZM24.83,206.79c.93,0,1.45-.96,1.45-1.8v-.23h-.27c-.72,0-2.27,0-2.27,1.1,0,.45.37.93,1.09.93Z"/>
    <path class="cls-8" d="M28.07,201.07h.36v2.21c0,.2-.03.35-.03.35h.02s.37-.96,1.54-.96,1.84.91,1.84,2.23-.79,2.23-1.9,2.23-1.47-.96-1.47-.96h-.02s.03.15.03.37v.48h-.36v-5.95ZM29.9,206.77c.83,0,1.51-.69,1.51-1.88s-.61-1.88-1.48-1.88c-.78,0-1.51.55-1.51,1.89,0,.94.49,1.87,1.48,1.87Z"/>
    <path class="cls-8" d="M32.96,201.07h.42v.62h-.42v-.62ZM32.99,202.77h.36v4.25h-.36v-4.25Z"/>
    <path class="cls-8" d="M34.81,201.07h.36v4.98c0,.59.31.66.5.66.07,0,.13,0,.13,0v.33s-.08.02-.15.02c-.25,0-.83-.09-.83-.89v-5.09Z"/>
    <path class="cls-8" d="M36.77,201.07h.42v.62h-.42v-.62ZM36.8,202.77h.36v4.25h-.36v-4.25Z"/>
    <path class="cls-8" d="M38.79,203.12h-.56v-.32h.56v-1.21h.36v1.21h1.11v.32h-1.11v2.34c0,1.12.67,1.27,1.01,1.27.12,0,.2-.02.2-.02v.33s-.08.02-.21.02c-.44,0-1.35-.16-1.35-1.57v-2.36Z"/>
    <path class="cls-8" d="M41.29,201.07h.42v.62h-.42v-.62ZM41.32,202.77h.36v4.25h-.36v-4.25Z"/>
    <path class="cls-8" d="M44.94,202.67c1.16,0,1.73.91,1.73,1.94,0,.09-.02.23-.02.23h-3.41c0,1.23.83,1.94,1.82,1.94.82,0,1.32-.54,1.32-.54l.2.3s-.59.59-1.51.59c-1.2,0-2.19-.87-2.19-2.22,0-1.44.98-2.24,2.06-2.24ZM46.31,204.51c-.04-1.04-.66-1.5-1.37-1.5-.78,0-1.5.51-1.66,1.5h3.03Z"/>
    <path class="cls-8" d="M47.74,206.24s.48.54,1.32.54c.52,0,.98-.27.98-.8,0-1.08-2.34-.77-2.34-2.16,0-.76.64-1.15,1.36-1.15.87,0,1.26.46,1.26.46l-.21.29s-.35-.4-1.07-.4c-.48,0-.96.22-.96.77,0,1.1,2.34.77,2.34,2.18,0,.68-.58,1.15-1.36,1.15-1.03,0-1.54-.61-1.54-.61l.23-.27Z"/>
    <path class="cls-8" d="M56.22,204.43h.28v-.14c0-.94-.48-1.27-1.16-1.27-.74,0-1.21.41-1.21.41l-.2-.29s.51-.47,1.44-.47c.98,0,1.5.54,1.5,1.61v2.75h-.36v-.56c0-.23.03-.38.03-.38h-.02s-.38,1.04-1.49,1.04c-.69,0-1.45-.38-1.45-1.23,0-1.44,1.88-1.46,2.63-1.46ZM55.05,206.79c.93,0,1.45-.96,1.45-1.8v-.23h-.27c-.72,0-2.27,0-2.27,1.1,0,.45.37.93,1.09.93Z"/>
    <path class="cls-8" d="M58.3,202.77h.36v.75c0,.2-.03.35-.03.35h.02c.14-.4.74-1.2,1.8-1.2s1.4.65,1.4,1.66v2.69h-.36v-2.57c0-.74-.09-1.44-1.05-1.44-.8,0-1.5.56-1.72,1.35-.05.18-.07.37-.07.58v2.07h-.36v-4.25Z"/>
    <path class="cls-8" d="M64.9,202.67c1.07,0,1.47.96,1.47.96h.02s-.03-.15-.03-.35v-2.21h.36v5.95h-.36v-.54c0-.2.03-.32.03-.32h-.02s-.37.96-1.54.96-1.84-.91-1.84-2.23.79-2.23,1.9-2.23ZM64.85,206.77c.78,0,1.51-.55,1.51-1.89,0-.94-.48-1.87-1.48-1.87-.83,0-1.51.69-1.51,1.88s.61,1.88,1.48,1.88Z"/>
    <path class="cls-8" d="M70.53,201.07h.42v.62h-.42v-.62ZM70.56,202.77h.36v4.25h-.36v-4.25Z"/>
    <path class="cls-8" d="M72.42,202.77h.36v.75c0,.2-.03.35-.03.35h.02c.14-.4.74-1.2,1.8-1.2s1.4.65,1.4,1.66v2.69h-.36v-2.57c0-.74-.09-1.44-1.05-1.44-.8,0-1.5.56-1.72,1.35-.05.18-.07.37-.07.58v2.07h-.36v-4.25Z"/>
    <path class="cls-8" d="M77.53,203.12h-.56v-.32h.56v-1.21h.36v1.21h1.11v.32h-1.11v2.34c0,1.12.67,1.27,1.01,1.27.12,0,.2-.02.2-.02v.33s-.08.02-.21.02c-.44,0-1.35-.16-1.35-1.57v-2.36Z"/>
    <path class="cls-8" d="M81.83,202.67c1.16,0,1.73.91,1.73,1.94,0,.09-.02.23-.02.23h-3.41c0,1.23.83,1.94,1.82,1.94.82,0,1.32-.54,1.32-.54l.2.3s-.6.59-1.51.59c-1.2,0-2.19-.87-2.19-2.22,0-1.44.98-2.24,2.07-2.24ZM83.19,204.51c-.04-1.04-.66-1.5-1.37-1.5-.78,0-1.5.51-1.66,1.5h3.03Z"/>
    <path class="cls-8" d="M84.77,202.77h.36v.75c0,.2-.03.35-.03.35h.02c.14-.4.74-1.2,1.8-1.2s1.4.65,1.4,1.66v2.69h-.36v-2.57c0-.74-.09-1.44-1.05-1.44-.8,0-1.5.56-1.72,1.35-.05.18-.07.37-.07.58v2.07h-.36v-4.25Z"/>
    <path class="cls-8" d="M89.88,203.12h-.56v-.32h.56v-1.21h.36v1.21h1.11v.32h-1.11v2.34c0,1.12.67,1.27,1.01,1.27.12,0,.2-.02.2-.02v.33s-.08.02-.21.02c-.44,0-1.35-.16-1.35-1.57v-2.36Z"/>
    <path class="cls-8" d="M92.38,201.07h.42v.62h-.42v-.62ZM92.42,202.77h.36v4.25h-.36v-4.25Z"/>
    <path class="cls-8" d="M96.16,202.67c1.22,0,2.2.96,2.2,2.2s-.99,2.25-2.2,2.25-2.2-.99-2.2-2.25.99-2.2,2.2-2.2ZM96.16,206.77c1.01,0,1.83-.83,1.83-1.9s-.82-1.85-1.83-1.85-1.83.8-1.83,1.85.82,1.9,1.83,1.9Z"/>
    <path class="cls-8" d="M99.54,202.77h.36v.75c0,.2-.03.35-.03.35h.02c.14-.4.74-1.2,1.8-1.2s1.4.65,1.4,1.66v2.69h-.36v-2.57c0-.74-.09-1.44-1.05-1.44-.8,0-1.5.56-1.72,1.35-.05.18-.07.37-.07.58v2.07h-.36v-4.25Z"/>
    <path class="cls-8" d="M104.38,206.24s.48.54,1.32.54c.52,0,.98-.27.98-.8,0-1.08-2.34-.77-2.34-2.16,0-.76.64-1.15,1.36-1.15.87,0,1.26.46,1.26.46l-.21.29s-.35-.4-1.07-.4c-.48,0-.96.22-.96.77,0,1.1,2.34.77,2.34,2.18,0,.68-.58,1.15-1.36,1.15-1.03,0-1.54-.61-1.54-.61l.23-.27Z"/>
    <path class="cls-8" d="M108.23,206.49h.52v.54h-.52v-.54Z"/>
    <path class="cls-8" d="M112.77,201.07h2c.87,0,1.5.58,1.5,1.49,0,.65-.31,1.08-.77,1.3v.02c.59.16,1.01.74,1.01,1.5,0,1-.71,1.64-1.66,1.64h-2.08v-5.95ZM114.75,203.72c.66,0,1.13-.46,1.13-1.16s-.44-1.15-1.14-1.15h-1.62v2.31h1.62ZM114.81,206.68c.8,0,1.31-.49,1.31-1.3s-.55-1.32-1.32-1.32h-1.67v2.62h1.68Z"/>
    <path class="cls-8" d="M119.62,202.67c1.16,0,1.73.91,1.73,1.94,0,.09-.02.23-.02.23h-3.41c0,1.23.83,1.94,1.82,1.94.82,0,1.32-.54,1.32-.54l.2.3s-.59.59-1.51.59c-1.2,0-2.19-.87-2.19-2.22,0-1.44.98-2.24,2.06-2.24ZM120.98,204.51c-.04-1.04-.66-1.5-1.37-1.5-.78,0-1.5.51-1.66,1.5h3.03Z"/>
  </g>
  <g>
    <path class="cls-8" d="M9.75,214.77h.36v.75c0,.2-.03.35-.03.35h.02c.21-.64.97-1.2,1.63-1.2.85,0,1.25.4,1.34,1.16h.02c.24-.6.88-1.16,1.61-1.16,1.1,0,1.42.65,1.42,1.66v2.69h-.36v-2.57c0-.8-.16-1.45-1.06-1.45-.71,0-1.31.63-1.5,1.29-.06.2-.08.41-.08.65v2.07h-.36v-2.57c0-.73-.1-1.45-1.04-1.45-.76,0-1.35.66-1.55,1.37-.05.18-.07.37-.07.58v2.07h-.36v-4.25Z"/>
    <path class="cls-8" d="M19.32,214.67c1.16,0,1.73.91,1.73,1.94,0,.09-.02.23-.02.23h-3.41c0,1.23.83,1.94,1.82,1.94.82,0,1.32-.54,1.32-.54l.2.3s-.6.59-1.51.59c-1.2,0-2.19-.87-2.19-2.22,0-1.44.98-2.24,2.07-2.24ZM20.68,216.51c-.04-1.04-.66-1.5-1.37-1.5-.78,0-1.5.51-1.66,1.5h3.03Z"/>
    <path class="cls-8" d="M22.25,214.77h.36v.81c0,.2-.03.35-.03.35h.02c.21-.65.69-1.19,1.36-1.19.13,0,.25.03.25.03v.36s-.1-.02-.2-.02c-.66,0-1.08.56-1.27,1.19-.09.3-.13.61-.13.89v1.84h-.36v-4.25Z"/>
    <path class="cls-8" d="M25.09,213.07h.42v.62h-.42v-.62ZM25.12,214.77h.36v4.25h-.36v-4.25Z"/>
    <path class="cls-8" d="M27.11,215.12h-.56v-.32h.56v-1.21h.36v1.21h1.11v.32h-1.11v2.34c0,1.12.67,1.27,1.01,1.27.12,0,.2-.02.2-.02v.33s-.08.02-.21.02c-.44,0-1.35-.16-1.35-1.57v-2.36Z"/>
    <path class="cls-8" d="M31.53,214.67c1.22,0,2.2.96,2.2,2.2s-.99,2.25-2.2,2.25-2.2-.99-2.2-2.25.99-2.2,2.2-2.2ZM31.53,218.78c1.01,0,1.83-.83,1.83-1.9s-.82-1.85-1.83-1.85-1.83.8-1.83,1.85.82,1.9,1.83,1.9Z"/>
    <path class="cls-8" d="M36.81,214.67c1.01,0,1.52.6,1.52.6l-.22.29s-.48-.54-1.3-.54c-.99,0-1.82.74-1.82,1.89s.83,1.87,1.82,1.87c.93,0,1.42-.61,1.42-.61l.19.3s-.55.66-1.61.66c-1.2,0-2.19-.87-2.19-2.22s1.01-2.24,2.19-2.24Z"/>
    <path class="cls-8" d="M39.6,214.77h.36v.81c0,.2-.03.35-.03.35h.02c.21-.65.69-1.19,1.36-1.19.13,0,.25.03.25.03v.36s-.1-.02-.2-.02c-.66,0-1.08.56-1.27,1.19-.09.3-.13.61-.13.89v1.84h-.36v-4.25Z"/>
    <path class="cls-8" d="M44.76,216.43h.28v-.14c0-.94-.48-1.27-1.16-1.27-.74,0-1.21.41-1.21.41l-.2-.29s.51-.47,1.44-.47c.98,0,1.5.54,1.5,1.61v2.75h-.36v-.56c0-.23.03-.38.03-.38h-.02s-.38,1.04-1.49,1.04c-.69,0-1.45-.38-1.45-1.23,0-1.44,1.88-1.46,2.63-1.46ZM43.59,218.79c.93,0,1.45-.96,1.45-1.8v-.23h-.27c-.72,0-2.27,0-2.27,1.1,0,.45.37.93,1.09.93Z"/>
    <path class="cls-8" d="M46.95,215.12h-.56v-.32h.56v-1.21h.36v1.21h1.11v.32h-1.11v2.34c0,1.12.67,1.27,1.01,1.27.12,0,.2-.02.2-.02v.33s-.08.02-.21.02c-.44,0-1.35-.16-1.35-1.57v-2.36Z"/>
    <path class="cls-8" d="M49.45,213.07h.42v.62h-.42v-.62ZM49.48,214.77h.36v4.25h-.36v-4.25Z"/>
    <path class="cls-8" d="M53.23,214.67c1.01,0,1.52.6,1.52.6l-.22.29s-.48-.54-1.3-.54c-.99,0-1.82.74-1.82,1.89s.83,1.87,1.82,1.87c.93,0,1.42-.61,1.42-.61l.19.3s-.55.66-1.61.66c-1.2,0-2.19-.87-2.19-2.22s1.01-2.24,2.19-2.24Z"/>
    <path class="cls-8" d="M56.11,218.5h.48l-.57,1.32h-.36l.45-1.32Z"/>
    <path class="cls-8" d="M60.6,215.12h-.54v-.32h.54v-.2c0-1.4.92-1.57,1.34-1.57.14,0,.22.02.22.02v.33s-.08-.02-.2-.02c-.34,0-1.01.14-1.01,1.23v.2h1.16v.32h-1.16v3.9h-.36v-3.9Z"/>
    <path class="cls-8" d="M65.3,216.43h.28v-.14c0-.94-.48-1.27-1.16-1.27-.74,0-1.21.41-1.21.41l-.2-.29s.51-.47,1.44-.47c.98,0,1.5.54,1.5,1.61v2.75h-.36v-.56c0-.23.03-.38.03-.38h-.02s-.38,1.04-1.49,1.04c-.69,0-1.45-.38-1.45-1.23,0-1.44,1.88-1.46,2.63-1.46ZM64.13,218.79c.93,0,1.45-.96,1.45-1.8v-.23h-.27c-.72,0-2.27,0-2.27,1.1,0,.45.37.93,1.09.93Z"/>
    <path class="cls-8" d="M67.34,213.07h.42v.62h-.42v-.62ZM67.38,214.77h.36v4.25h-.36v-4.25Z"/>
    <path class="cls-8" d="M69.23,214.77h.36v.81c0,.2-.03.35-.03.35h.02c.21-.65.69-1.19,1.36-1.19.13,0,.25.03.25.03v.36s-.1-.02-.2-.02c-.66,0-1.08.56-1.27,1.19-.09.3-.13.61-.13.89v1.84h-.36v-4.25Z"/>
    <path class="cls-8" d="M71.91,218.5h.48l-.57,1.32h-.36l.45-1.32Z"/>
    <path class="cls-8" d="M76.09,218.24s.48.54,1.32.54c.52,0,.98-.27.98-.8,0-1.08-2.34-.77-2.34-2.16,0-.76.64-1.15,1.36-1.15.87,0,1.26.46,1.26.46l-.21.29s-.35-.4-1.07-.4c-.48,0-.96.22-.96.77,0,1.1,2.34.77,2.34,2.18,0,.68-.58,1.15-1.36,1.15-1.03,0-1.54-.61-1.54-.61l.23-.27Z"/>
    <path class="cls-8" d="M79.87,214.77h.36v2.57c0,.74.09,1.44,1.05,1.44,1.06,0,1.74-.94,1.74-1.93v-2.07h.36v4.25h-.36v-.75c0-.2.03-.35.03-.35h-.02c-.14.4-.73,1.2-1.76,1.2s-1.4-.58-1.4-1.66v-2.69Z"/>
    <path class="cls-8" d="M84.87,214.77h.36v.51c0,.2-.03.34-.03.34h.02s.35-.95,1.53-.95,1.84.91,1.84,2.23-.79,2.23-1.89,2.23-1.49-.96-1.49-.96h-.02s.03.15.03.37v2.18h-.36v-5.95ZM86.7,218.78c.83,0,1.51-.69,1.51-1.88s-.61-1.88-1.48-1.88c-.78,0-1.51.55-1.51,1.89,0,.94.53,1.87,1.48,1.87Z"/>
    <path class="cls-8" d="M89.79,214.77h.36v.51c0,.2-.03.34-.03.34h.02s.35-.95,1.53-.95,1.83.91,1.83,2.23-.79,2.23-1.89,2.23-1.49-.96-1.49-.96h-.02s.03.15.03.37v2.18h-.36v-5.95ZM91.62,218.78c.83,0,1.51-.69,1.51-1.88s-.61-1.88-1.48-1.88c-.78,0-1.51.55-1.51,1.89,0,.94.53,1.87,1.48,1.87Z"/>
    <path class="cls-8" d="M96.6,214.67c1.21,0,2.2.96,2.2,2.2s-.99,2.25-2.2,2.25-2.2-.99-2.2-2.25.99-2.2,2.2-2.2ZM96.6,218.78c1.01,0,1.83-.83,1.83-1.9s-.82-1.85-1.83-1.85-1.83.8-1.83,1.85.82,1.9,1.83,1.9Z"/>
    <path class="cls-8" d="M99.98,214.77h.36v.81c0,.2-.03.35-.03.35h.02c.21-.65.69-1.19,1.36-1.19.13,0,.25.03.25.03v.36s-.1-.02-.2-.02c-.66,0-1.08.56-1.27,1.19-.09.3-.13.61-.13.89v1.84h-.36v-4.25Z"/>
    <path class="cls-8" d="M102.99,215.12h-.56v-.32h.56v-1.21h.36v1.21h1.11v.32h-1.11v2.34c0,1.12.67,1.27,1.01,1.27.12,0,.2-.02.2-.02v.33s-.08.02-.21.02c-.44,0-1.35-.16-1.35-1.57v-2.36Z"/>
    <path class="cls-8" d="M105.49,213.07h.42v.62h-.42v-.62ZM105.52,214.77h.36v4.25h-.36v-4.25Z"/>
    <path class="cls-8" d="M106.78,214.77h.38l1.31,3.33c.08.2.14.46.14.46h.02s.07-.25.14-.46l1.31-3.33h.37l-1.67,4.25h-.34l-1.67-4.25Z"/>
    <path class="cls-8" d="M113.13,214.67c1.16,0,1.73.91,1.73,1.94,0,.09-.02.23-.02.23h-3.41c0,1.23.83,1.94,1.82,1.94.82,0,1.32-.54,1.32-.54l.2.3s-.6.59-1.51.59c-1.2,0-2.19-.87-2.19-2.22,0-1.44.98-2.24,2.07-2.24ZM114.49,216.51c-.04-1.04-.66-1.5-1.37-1.5-.78,0-1.5.51-1.66,1.5h3.03Z"/>
    <path class="cls-8" d="M120.7,216.43h.28v-.14c0-.94-.48-1.27-1.16-1.27-.74,0-1.22.41-1.22.41l-.2-.29s.51-.47,1.44-.47c.98,0,1.5.54,1.5,1.61v2.75h-.36v-.56c0-.23.03-.38.03-.38h-.02s-.38,1.04-1.49,1.04c-.69,0-1.44-.38-1.44-1.23,0-1.44,1.88-1.46,2.63-1.46ZM119.53,218.79c.93,0,1.45-.96,1.45-1.8v-.23h-.27c-.72,0-2.27,0-2.27,1.1,0,.45.37.93,1.09.93Z"/>
    <path class="cls-8" d="M122.78,214.77h.36v.75c0,.2-.03.35-.03.35h.02c.14-.4.74-1.2,1.8-1.2s1.4.65,1.4,1.66v2.69h-.36v-2.57c0-.74-.09-1.44-1.05-1.44-.8,0-1.5.56-1.72,1.35-.05.18-.07.37-.07.58v2.07h-.36v-4.25Z"/>
    <path class="cls-8" d="M129.38,214.67c1.07,0,1.47.96,1.47.96h.02s-.03-.15-.03-.35v-2.21h.36v5.95h-.36v-.54c0-.2.03-.32.03-.32h-.02s-.37.96-1.54.96-1.84-.91-1.84-2.23.79-2.23,1.9-2.23ZM129.33,218.78c.78,0,1.51-.55,1.51-1.89,0-.94-.48-1.87-1.48-1.87-.83,0-1.51.69-1.51,1.88s.61,1.88,1.48,1.88Z"/>
    <path class="cls-8" d="M135.04,213.07h.36v2.21c0,.2-.03.35-.03.35h.02s.37-.96,1.54-.96,1.84.91,1.84,2.23-.79,2.23-1.9,2.23-1.47-.96-1.47-.96h-.02s.03.15.03.37v.48h-.36v-5.95ZM136.87,218.78c.83,0,1.51-.69,1.51-1.88s-.61-1.88-1.48-1.88c-.78,0-1.51.55-1.51,1.89,0,.94.49,1.87,1.48,1.87Z"/>
    <path class="cls-8" d="M141.73,214.67c1.16,0,1.73.91,1.73,1.94,0,.09-.02.23-.02.23h-3.41c0,1.23.83,1.94,1.82,1.94.82,0,1.32-.54,1.32-.54l.2.3s-.59.59-1.51.59c-1.2,0-2.19-.87-2.19-2.22,0-1.44.98-2.24,2.06-2.24ZM143.09,216.51c-.04-1.04-.66-1.5-1.37-1.5-.78,0-1.5.51-1.66,1.5h3.03Z"/>
    <path class="cls-8" d="M144.62,213.07h.36v4.98c0,.59.31.66.5.66.07,0,.13,0,.13,0v.33s-.08.02-.15.02c-.25,0-.83-.09-.83-.89v-5.09Z"/>
    <path class="cls-8" d="M146.59,213.07h.42v.62h-.42v-.62ZM146.62,214.77h.36v4.25h-.36v-4.25Z"/>
    <path class="cls-8" d="M150.24,214.67c1.16,0,1.73.91,1.73,1.94,0,.09-.02.23-.02.23h-3.41c0,1.23.83,1.94,1.82,1.94.82,0,1.32-.54,1.32-.54l.2.3s-.6.59-1.51.59c-1.2,0-2.19-.87-2.19-2.22,0-1.44.98-2.24,2.07-2.24ZM151.6,216.51c-.04-1.04-.66-1.5-1.37-1.5-.78,0-1.5.51-1.66,1.5h3.03Z"/>
    <path class="cls-8" d="M152.58,214.77h.38l1.31,3.33c.08.2.14.46.14.46h.02s.07-.25.14-.46l1.31-3.33h.37l-1.67,4.25h-.34l-1.67-4.25Z"/>
    <path class="cls-8" d="M158.93,214.67c1.16,0,1.73.91,1.73,1.94,0,.09-.02.23-.02.23h-3.41c0,1.23.83,1.94,1.82,1.94.82,0,1.32-.54,1.32-.54l.2.3s-.59.59-1.51.59c-1.2,0-2.19-.87-2.19-2.22,0-1.44.98-2.24,2.06-2.24ZM160.29,216.51c-.04-1.04-.66-1.5-1.37-1.5-.78,0-1.5.51-1.66,1.5h3.03Z"/>
  </g>
  <g>
    <path class="cls-8" d="M9.71,225.08h.42v.62h-.42v-.62ZM9.75,226.77h.36v4.25h-.36v-4.25Z"/>
    <path class="cls-8" d="M11.6,226.77h.36v.75c0,.2-.03.35-.03.35h.02c.14-.4.74-1.2,1.8-1.2s1.4.65,1.4,1.66v2.69h-.36v-2.57c0-.74-.09-1.44-1.04-1.44-.8,0-1.5.56-1.72,1.35-.05.18-.07.37-.07.58v2.07h-.36v-4.25Z"/>
    <path class="cls-8" d="M20.7,226.67c1.16,0,1.73.91,1.73,1.94,0,.09-.02.23-.02.23h-3.41c0,1.23.83,1.94,1.82,1.94.82,0,1.32-.54,1.32-.54l.2.3s-.59.59-1.51.59c-1.2,0-2.19-.87-2.19-2.22,0-1.44.98-2.24,2.06-2.24ZM22.06,228.51c-.04-1.04-.66-1.5-1.37-1.5-.78,0-1.5.51-1.66,1.5h3.03Z"/>
    <path class="cls-8" d="M25.26,226.67c1.07,0,1.46.95,1.46.95h.02s-.03-.14-.03-.34v-.51h.36v5.95h-.36v-2.18c0-.22.03-.37.03-.37h-.02s-.37.96-1.54.96-1.84-.91-1.84-2.23.79-2.23,1.9-2.23ZM25.21,230.78c.78,0,1.51-.55,1.51-1.89,0-.94-.48-1.87-1.48-1.87-.83,0-1.51.69-1.51,1.88s.61,1.88,1.48,1.88Z"/>
    <path class="cls-8" d="M28.51,226.77h.36v2.57c0,.74.09,1.44,1.05,1.44,1.06,0,1.74-.94,1.74-1.93v-2.07h.36v4.25h-.36v-.75c0-.2.03-.35.03-.35h-.02c-.14.4-.73,1.2-1.76,1.2s-1.4-.58-1.4-1.66v-2.69Z"/>
    <path class="cls-8" d="M35.79,228.43h.28v-.14c0-.94-.48-1.27-1.16-1.27-.74,0-1.21.41-1.21.41l-.2-.29s.51-.47,1.44-.47c.98,0,1.5.54,1.5,1.61v2.75h-.36v-.56c0-.23.03-.38.03-.38h-.02s-.38,1.04-1.49,1.04c-.69,0-1.45-.38-1.45-1.23,0-1.44,1.88-1.46,2.63-1.46ZM34.62,230.8c.93,0,1.45-.96,1.45-1.8v-.23h-.27c-.72,0-2.27,0-2.27,1.1,0,.45.37.93,1.09.93Z"/>
    <path class="cls-8" d="M37.82,225.08h.36v4.98c0,.59.31.66.5.66.07,0,.13,0,.13,0v.33s-.08.02-.15.02c-.25,0-.83-.09-.83-.89v-5.09Z"/>
    <path class="cls-8" d="M44.06,226.67c1.22,0,2.2.96,2.2,2.2s-.99,2.25-2.2,2.25-2.2-.99-2.2-2.25.99-2.2,2.2-2.2ZM44.06,230.78c1.01,0,1.83-.83,1.83-1.9s-.82-1.85-1.83-1.85-1.83.8-1.83,1.85.82,1.9,1.83,1.9Z"/>
    <path class="cls-8" d="M47.44,226.77h.36v.51c0,.2-.03.34-.03.34h.02s.35-.95,1.53-.95,1.84.91,1.84,2.23-.79,2.23-1.89,2.23-1.49-.96-1.49-.96h-.02s.03.15.03.37v2.18h-.36v-5.95ZM49.27,230.78c.83,0,1.51-.69,1.51-1.88s-.61-1.88-1.48-1.88c-.78,0-1.51.55-1.51,1.89,0,.94.53,1.87,1.48,1.87Z"/>
    <path class="cls-8" d="M52.37,226.77h.36v.51c0,.2-.03.34-.03.34h.02s.35-.95,1.53-.95,1.83.91,1.83,2.23-.79,2.23-1.89,2.23-1.49-.96-1.49-.96h-.02s.03.15.03.37v2.18h-.36v-5.95ZM54.19,230.78c.83,0,1.51-.69,1.51-1.88s-.61-1.88-1.48-1.88c-.78,0-1.51.55-1.51,1.89,0,.94.53,1.87,1.48,1.87Z"/>
    <path class="cls-8" d="M59.17,226.67c1.21,0,2.2.96,2.2,2.2s-.99,2.25-2.2,2.25-2.2-.99-2.2-2.25.99-2.2,2.2-2.2ZM59.17,230.78c1.01,0,1.83-.83,1.83-1.9s-.82-1.85-1.83-1.85-1.83.8-1.83,1.85.82,1.9,1.83,1.9Z"/>
    <path class="cls-8" d="M62.56,226.77h.36v.81c0,.2-.03.35-.03.35h.02c.21-.65.69-1.19,1.36-1.19.13,0,.25.03.25.03v.36s-.1-.02-.2-.02c-.66,0-1.08.56-1.27,1.19-.09.3-.13.61-.13.89v1.84h-.36v-4.25Z"/>
    <path class="cls-8" d="M65.57,227.12h-.56v-.32h.56v-1.21h.36v1.21h1.11v.32h-1.11v2.34c0,1.12.67,1.27,1.01,1.27.12,0,.2-.02.2-.02v.33s-.08.02-.21.02c-.44,0-1.35-.16-1.35-1.57v-2.36Z"/>
    <path class="cls-8" d="M68.04,226.77h.36v2.57c0,.74.09,1.44,1.04,1.44,1.06,0,1.74-.94,1.74-1.93v-2.07h.36v4.25h-.36v-.75c0-.2.03-.35.03-.35h-.02c-.14.4-.73,1.2-1.76,1.2s-1.4-.58-1.4-1.66v-2.69Z"/>
    <path class="cls-8" d="M73.04,226.77h.36v.75c0,.2-.03.35-.03.35h.02c.14-.4.74-1.2,1.8-1.2s1.4.65,1.4,1.66v2.69h-.36v-2.57c0-.74-.09-1.44-1.05-1.44-.8,0-1.5.56-1.72,1.35-.05.18-.07.37-.07.58v2.07h-.36v-4.25Z"/>
    <path class="cls-8" d="M77.98,225.08h.42v.62h-.42v-.62ZM78.02,226.77h.36v4.25h-.36v-4.25Z"/>
    <path class="cls-8" d="M80.01,227.12h-.56v-.32h.56v-1.21h.36v1.21h1.11v.32h-1.11v2.34c0,1.12.67,1.27,1.01,1.27.12,0,.2-.02.2-.02v.33s-.08.02-.21.02c-.44,0-1.35-.16-1.35-1.57v-2.36Z"/>
    <path class="cls-8" d="M82.02,232.27s.24.2.53.2c.41,0,.66-.37.83-.77l.31-.71-1.76-4.22h.38l1.4,3.39c.08.2.15.4.15.4h.02s.06-.2.14-.4l1.4-3.39h.38l-2.18,5.24c-.19.44-.54.79-1.08.79-.41,0-.69-.24-.69-.24l.16-.31Z"/>
    <path class="cls-8" d="M86.48,230.49h.52v.54h-.52v-.54Z"/>
  </g>
  <g>
    <path class="cls-8" d="M9.92,289.99h2c.87,0,1.5.58,1.5,1.49,0,.65-.31,1.08-.77,1.3v.02c.59.16,1.01.74,1.01,1.5,0,1-.71,1.64-1.66,1.64h-2.08v-5.95ZM11.91,292.64c.66,0,1.13-.46,1.13-1.16s-.44-1.15-1.14-1.15h-1.62v2.31h1.62ZM11.97,295.6c.8,0,1.31-.49,1.31-1.3s-.55-1.32-1.32-1.32h-1.67v2.62h1.68Z"/>
    <path class="cls-8" d="M16.78,291.59c1.16,0,1.73.91,1.73,1.94,0,.09-.02.23-.02.23h-3.41c0,1.23.83,1.94,1.82,1.94.82,0,1.32-.54,1.32-.54l.2.3s-.6.59-1.51.59c-1.2,0-2.19-.87-2.19-2.22,0-1.44.98-2.24,2.07-2.24ZM18.14,293.42c-.04-1.04-.66-1.5-1.37-1.5-.78,0-1.5.51-1.66,1.5h3.03Z"/>
    <path class="cls-8" d="M24.35,293.35h.28v-.14c0-.94-.48-1.27-1.16-1.27-.74,0-1.21.41-1.21.41l-.2-.29s.51-.47,1.44-.47c.98,0,1.5.54,1.5,1.61v2.75h-.36v-.56c0-.23.03-.38.03-.38h-.02s-.38,1.04-1.49,1.04c-.69,0-1.45-.38-1.45-1.23,0-1.44,1.88-1.46,2.63-1.46ZM23.18,295.71c.93,0,1.45-.96,1.45-1.8v-.23h-.27c-.72,0-2.27,0-2.27,1.1,0,.45.37.93,1.09.93Z"/>
    <path class="cls-8" d="M26.38,289.99h.36v4.98c0,.59.31.66.5.66.07,0,.13,0,.13,0v.33s-.08.02-.15.02c-.25,0-.83-.09-.83-.89v-5.09Z"/>
    <path class="cls-8" d="M30.15,291.59c1.16,0,1.73.91,1.73,1.94,0,.09-.02.23-.02.23h-3.41c0,1.23.83,1.94,1.82,1.94.82,0,1.32-.54,1.32-.54l.2.3s-.59.59-1.51.59c-1.2,0-2.19-.87-2.19-2.22,0-1.44.98-2.24,2.06-2.24ZM31.51,293.42c-.04-1.04-.66-1.5-1.37-1.5-.78,0-1.5.51-1.66,1.5h3.03Z"/>
    <path class="cls-8" d="M33.08,291.69h.36v.81c0,.2-.03.35-.03.35h.02c.21-.65.69-1.19,1.36-1.19.13,0,.25.03.25.03v.36s-.1-.02-.2-.02c-.66,0-1.08.56-1.27,1.19-.09.3-.13.61-.13.89v1.84h-.36v-4.25Z"/>
    <path class="cls-8" d="M36.09,292.04h-.56v-.32h.56v-1.21h.36v1.21h1.11v.32h-1.11v2.34c0,1.12.67,1.27,1.01,1.27.12,0,.2-.02.2-.02v.33s-.08.02-.21.02c-.44,0-1.35-.16-1.35-1.57v-2.36Z"/>
    <path class="cls-8" d="M41.11,292.04h-.56v-.32h.56v-1.21h.36v1.21h1.11v.32h-1.11v2.34c0,1.12.67,1.27,1.01,1.27.12,0,.2-.02.2-.02v.33s-.08.02-.21.02c-.44,0-1.35-.16-1.35-1.57v-2.36Z"/>
    <path class="cls-8" d="M45.53,291.59c1.22,0,2.2.96,2.2,2.2s-.99,2.25-2.2,2.25-2.2-.99-2.2-2.25.99-2.2,2.2-2.2ZM45.53,295.69c1.01,0,1.83-.83,1.83-1.9s-.82-1.85-1.83-1.85-1.83.8-1.83,1.85.82,1.9,1.83,1.9Z"/>
    <path class="cls-8" d="M53.16,291.59c1.01,0,1.52.6,1.52.6l-.22.29s-.48-.54-1.3-.54c-.99,0-1.82.74-1.82,1.89s.82,1.87,1.82,1.87c.94,0,1.42-.61,1.42-.61l.19.3s-.55.66-1.61.66c-1.2,0-2.19-.87-2.19-2.22s1.01-2.24,2.19-2.24Z"/>
    <path class="cls-8" d="M55.95,289.99h.36v2.45c0,.2-.03.35-.03.35h.02c.14-.4.74-1.2,1.8-1.2s1.4.65,1.4,1.66v2.69h-.36v-2.57c0-.74-.09-1.44-1.05-1.44-.8,0-1.5.56-1.72,1.35-.05.18-.07.37-.07.58v2.07h-.36v-5.95Z"/>
    <path class="cls-8" d="M63.22,293.35h.28v-.14c0-.94-.48-1.27-1.16-1.27-.74,0-1.22.41-1.22.41l-.2-.29s.51-.47,1.44-.47c.98,0,1.5.54,1.5,1.61v2.75h-.36v-.56c0-.23.03-.38.03-.38h-.02s-.38,1.04-1.49,1.04c-.69,0-1.44-.38-1.44-1.23,0-1.44,1.88-1.46,2.63-1.46ZM62.05,295.71c.93,0,1.45-.96,1.45-1.8v-.23h-.27c-.72,0-2.27,0-2.27,1.1,0,.45.37.93,1.09.93Z"/>
    <path class="cls-8" d="M65.29,291.69h.36v.75c0,.2-.03.35-.03.35h.02c.14-.4.74-1.2,1.8-1.2s1.4.65,1.4,1.66v2.69h-.36v-2.57c0-.74-.09-1.44-1.04-1.44-.8,0-1.5.56-1.72,1.35-.05.18-.07.37-.07.58v2.07h-.36v-4.25Z"/>
    <path class="cls-8" d="M71.68,297.38c.91,0,1.62-.43,1.62-1.46v-.49c0-.2.03-.35.03-.35h-.02c-.25.52-.72.87-1.43.87-1.1,0-1.89-.87-1.89-2.19s.72-2.16,1.83-2.16c1.21,0,1.48.83,1.48.83h.02s-.03-.06-.03-.16v-.57h.36v4.22c0,1.3-.93,1.81-1.95,1.81-.47,0-.92-.12-1.33-.33l.17-.31s.53.3,1.14.3ZM73.3,293.75c0-1.37-.65-1.81-1.48-1.81-.91,0-1.45.66-1.45,1.81s.63,1.84,1.54,1.84c.75,0,1.39-.47,1.39-1.84Z"/>
    <path class="cls-8" d="M76.91,291.59c1.16,0,1.73.91,1.73,1.94,0,.09-.02.23-.02.23h-3.41c0,1.23.83,1.94,1.82,1.94.82,0,1.32-.54,1.32-.54l.2.3s-.6.59-1.51.59c-1.2,0-2.19-.87-2.19-2.22,0-1.44.98-2.24,2.07-2.24ZM78.27,293.42c-.04-1.04-.66-1.5-1.37-1.5-.78,0-1.5.51-1.66,1.5h3.03Z"/>
    <path class="cls-8" d="M84.49,293.35h.28v-.14c0-.94-.48-1.27-1.16-1.27-.74,0-1.21.41-1.21.41l-.2-.29s.51-.47,1.44-.47c.98,0,1.5.54,1.5,1.61v2.75h-.36v-.56c0-.23.03-.38.03-.38h-.02s-.38,1.04-1.49,1.04c-.69,0-1.45-.38-1.45-1.23,0-1.44,1.88-1.46,2.63-1.46ZM83.31,295.71c.93,0,1.45-.96,1.45-1.8v-.23h-.27c-.72,0-2.27,0-2.27,1.1,0,.45.37.93,1.09.93Z"/>
    <path class="cls-8" d="M86.56,291.69h.36v.75c0,.2-.03.35-.03.35h.02c.14-.4.74-1.2,1.8-1.2s1.4.65,1.4,1.66v2.69h-.36v-2.57c0-.74-.09-1.44-1.05-1.44-.8,0-1.5.56-1.72,1.35-.05.18-.07.37-.07.58v2.07h-.36v-4.25Z"/>
    <path class="cls-8" d="M93.17,291.59c1.07,0,1.47.96,1.47.96h.02s-.03-.15-.03-.35v-2.21h.36v5.95h-.36v-.54c0-.2.03-.32.03-.32h-.02s-.37.96-1.54.96-1.84-.91-1.84-2.23.79-2.23,1.9-2.23ZM93.11,295.69c.78,0,1.51-.55,1.51-1.89,0-.94-.48-1.87-1.48-1.87-.83,0-1.51.69-1.51,1.88s.61,1.88,1.48,1.88Z"/>
    <path class="cls-8" d="M98.83,291.69h.36v.75c0,.2-.03.35-.03.35h.02c.21-.64.97-1.2,1.63-1.2.85,0,1.25.4,1.34,1.16h.02c.24-.6.88-1.16,1.62-1.16,1.1,0,1.42.65,1.42,1.66v2.69h-.36v-2.57c0-.8-.16-1.45-1.06-1.45-.71,0-1.31.63-1.5,1.29-.06.2-.08.41-.08.65v2.07h-.36v-2.57c0-.73-.1-1.45-1.04-1.45-.76,0-1.35.66-1.55,1.37-.05.18-.07.37-.07.58v2.07h-.36v-4.25Z"/>
    <path class="cls-8" d="M108.52,291.59c1.21,0,2.2.96,2.2,2.2s-.99,2.25-2.2,2.25-2.2-.99-2.2-2.25.99-2.2,2.2-2.2ZM108.52,295.69c1.01,0,1.83-.83,1.83-1.9s-.82-1.85-1.83-1.85-1.83.8-1.83,1.85.82,1.9,1.83,1.9Z"/>
    <path class="cls-8" d="M111.3,291.69h.38l1.31,3.33c.08.2.14.46.14.46h.02s.07-.25.14-.46l1.31-3.33h.37l-1.67,4.25h-.34l-1.67-4.25Z"/>
    <path class="cls-8" d="M117.65,291.59c1.16,0,1.73.91,1.73,1.94,0,.09-.02.23-.02.23h-3.41c0,1.23.83,1.94,1.82,1.94.82,0,1.32-.54,1.32-.54l.2.3s-.6.59-1.51.59c-1.2,0-2.19-.87-2.19-2.22,0-1.44.98-2.24,2.07-2.24ZM119.01,293.42c-.04-1.04-.66-1.5-1.37-1.5-.78,0-1.5.51-1.66,1.5h3.03Z"/>
    <path class="cls-8" d="M123.12,292.04h-.54v-.32h.54v-.2c0-1.4.92-1.57,1.34-1.57.14,0,.22.02.22.02v.33s-.08-.02-.2-.02c-.34,0-1.01.14-1.01,1.23v.2h1.16v.32h-1.16v3.9h-.36v-3.9Z"/>
    <path class="cls-8" d="M127.82,293.35h.28v-.14c0-.94-.48-1.27-1.16-1.27-.74,0-1.21.41-1.21.41l-.2-.29s.51-.47,1.44-.47c.98,0,1.5.54,1.5,1.61v2.75h-.36v-.56c0-.23.03-.38.03-.38h-.02s-.38,1.04-1.49,1.04c-.69,0-1.45-.38-1.45-1.23,0-1.44,1.88-1.46,2.63-1.46ZM126.65,295.71c.93,0,1.45-.96,1.45-1.8v-.23h-.27c-.72,0-2.27,0-2.27,1.1,0,.45.37.93,1.09.93Z"/>
    <path class="cls-8" d="M129.76,295.16s.48.54,1.32.54c.52,0,.98-.27.98-.8,0-1.08-2.34-.77-2.34-2.16,0-.76.64-1.15,1.36-1.15.87,0,1.26.46,1.26.46l-.21.29s-.35-.4-1.07-.4c-.48,0-.96.22-.96.77,0,1.1,2.34.77,2.34,2.18,0,.68-.58,1.15-1.36,1.15-1.03,0-1.54-.61-1.54-.61l.23-.27Z"/>
    <path class="cls-8" d="M133.73,292.04h-.56v-.32h.56v-1.21h.36v1.21h1.11v.32h-1.11v2.34c0,1.12.67,1.27,1.01,1.27.12,0,.2-.02.2-.02v.33s-.08.02-.21.02c-.44,0-1.35-.16-1.35-1.57v-2.36Z"/>
  </g>
  <g>
    <path class="cls-8" d="M9.18,303.69h.38l1.16,3.33c.07.2.14.46.14.46h.02s.08-.25.14-.46l1.16-3.31h.4l1.16,3.31c.07.2.14.46.14.46h.02s.07-.25.14-.46l1.16-3.33h.38l-1.5,4.25h-.38l-1.18-3.3c-.08-.2-.14-.46-.14-.46h-.02s-.07.25-.14.46l-1.17,3.3h-.38l-1.5-4.25Z"/>
    <path class="cls-8" d="M16.49,301.99h.42v.62h-.42v-.62ZM16.52,303.69h.36v4.25h-.36v-4.25Z"/>
    <path class="cls-8" d="M18.51,304.04h-.56v-.32h.56v-1.21h.36v1.21h1.11v.32h-1.11v2.34c0,1.12.67,1.27,1.01,1.27.12,0,.2-.02.2-.02v.33s-.08.02-.21.02c-.44,0-1.35-.16-1.35-1.57v-2.36Z"/>
    <path class="cls-8" d="M21.04,301.99h.36v2.45c0,.2-.03.35-.03.35h.02c.14-.4.74-1.2,1.8-1.2s1.4.65,1.4,1.66v2.69h-.36v-2.57c0-.74-.09-1.44-1.04-1.44-.8,0-1.5.56-1.72,1.35-.05.18-.07.37-.07.58v2.07h-.36v-5.95Z"/>
    <path class="cls-8" d="M28.56,304.04h-.54v-.32h.54v-.2c0-1.4.92-1.57,1.34-1.57.14,0,.22.02.22.02v.33s-.08-.02-.2-.02c-.34,0-1.01.14-1.01,1.23v.2h1.17v.32h-1.17v3.9h-.36v-3.9ZM30.93,301.99h.36v4.98c0,.59.31.66.5.66.07,0,.13,0,.13,0v.33s-.08.02-.15.02c-.25,0-.83-.09-.83-.89v-5.09Z"/>
    <path class="cls-8" d="M34.69,303.59c1.16,0,1.73.91,1.73,1.94,0,.09-.02.23-.02.23h-3.41c0,1.23.83,1.94,1.82,1.94.82,0,1.32-.54,1.32-.54l.2.3s-.6.59-1.51.59c-1.2,0-2.19-.87-2.19-2.22,0-1.44.98-2.24,2.07-2.24ZM36.05,305.43c-.04-1.04-.66-1.5-1.37-1.5-.78,0-1.5.51-1.66,1.5h3.03Z"/>
    <path class="cls-8" d="M38.66,305.7l-1.37-2.01h.43l1.03,1.55c.07.11.14.24.14.24h.02s.08-.13.14-.24l1.03-1.55h.43l-1.37,2.01,1.53,2.24h-.44l-1.17-1.76c-.08-.12-.15-.25-.15-.25h-.02s-.07.12-.15.25l-1.17,1.76h-.44l1.53-2.24Z"/>
    <path class="cls-8" d="M41.64,301.99h.42v.62h-.42v-.62ZM41.67,303.69h.36v4.25h-.36v-4.25Z"/>
    <path class="cls-8" d="M43.53,301.99h.36v2.21c0,.2-.03.35-.03.35h.02s.37-.96,1.54-.96,1.83.91,1.83,2.23-.79,2.23-1.9,2.23-1.47-.96-1.47-.96h-.02s.03.15.03.37v.48h-.36v-5.95ZM45.35,307.69c.83,0,1.51-.69,1.51-1.88s-.61-1.88-1.48-1.88c-.78,0-1.51.55-1.51,1.89,0,.94.48,1.87,1.48,1.87Z"/>
    <path class="cls-8" d="M48.41,301.99h.42v.62h-.42v-.62ZM48.45,303.69h.36v4.25h-.36v-4.25Z"/>
    <path class="cls-8" d="M50.26,301.99h.36v4.98c0,.59.31.66.5.66.07,0,.13,0,.13,0v.33s-.08.02-.15.02c-.25,0-.83-.09-.83-.89v-5.09Z"/>
    <path class="cls-8" d="M52.22,301.99h.42v.62h-.42v-.62ZM52.26,303.69h.36v4.25h-.36v-4.25Z"/>
    <path class="cls-8" d="M54.24,304.04h-.56v-.32h.56v-1.21h.36v1.21h1.11v.32h-1.11v2.34c0,1.12.67,1.27,1.01,1.27.12,0,.2-.02.2-.02v.33s-.08.02-.21.02c-.44,0-1.35-.16-1.35-1.57v-2.36Z"/>
    <path class="cls-8" d="M56.26,309.18s.24.2.53.2c.41,0,.66-.37.83-.77l.31-.71-1.76-4.22h.38l1.4,3.39c.08.2.15.4.15.4h.02s.06-.2.14-.4l1.4-3.39h.38l-2.18,5.24c-.19.44-.54.79-1.08.79-.41,0-.69-.24-.69-.24l.16-.31Z"/>
    <path class="cls-8" d="M65.57,305.35h.28v-.14c0-.94-.48-1.27-1.16-1.27-.74,0-1.22.41-1.22.41l-.2-.29s.51-.47,1.44-.47c.98,0,1.5.54,1.5,1.61v2.75h-.36v-.56c0-.23.03-.38.03-.38h-.02s-.38,1.04-1.49,1.04c-.69,0-1.44-.38-1.44-1.23,0-1.44,1.88-1.46,2.63-1.46ZM64.4,307.71c.93,0,1.45-.96,1.45-1.8v-.23h-.27c-.72,0-2.27,0-2.27,1.1,0,.45.37.93,1.09.93Z"/>
    <path class="cls-8" d="M67.65,303.69h.36v.75c0,.2-.03.35-.03.35h.02c.14-.4.74-1.2,1.8-1.2s1.4.65,1.4,1.66v2.69h-.36v-2.57c0-.74-.09-1.44-1.04-1.44-.8,0-1.5.56-1.72,1.35-.05.18-.07.37-.07.58v2.07h-.36v-4.25Z"/>
    <path class="cls-8" d="M74.25,303.59c1.07,0,1.47.96,1.47.96h.02s-.03-.15-.03-.35v-2.21h.36v5.95h-.36v-.54c0-.2.03-.32.03-.32h-.02s-.37.96-1.54.96-1.84-.91-1.84-2.23.79-2.23,1.9-2.23ZM74.2,307.69c.78,0,1.51-.55,1.51-1.89,0-.94-.48-1.87-1.48-1.87-.83,0-1.51.69-1.51,1.88s.61,1.88,1.48,1.88Z"/>
    <path class="cls-8" d="M81.54,303.59c1.07,0,1.47.96,1.47.96h.02s-.03-.15-.03-.35v-2.21h.36v5.95h-.36v-.54c0-.2.03-.32.03-.32h-.02s-.37.96-1.54.96-1.84-.91-1.84-2.23.79-2.23,1.9-2.23ZM81.49,307.69c.78,0,1.51-.55,1.51-1.89,0-.94-.48-1.87-1.48-1.87-.83,0-1.51.69-1.51,1.88s.61,1.88,1.48,1.88Z"/>
    <path class="cls-8" d="M86.61,303.59c1.16,0,1.73.91,1.73,1.94,0,.09-.02.23-.02.23h-3.41c0,1.23.83,1.94,1.82,1.94.82,0,1.32-.54,1.32-.54l.2.3s-.6.59-1.51.59c-1.2,0-2.19-.87-2.19-2.22,0-1.44.98-2.24,2.07-2.24ZM87.97,305.43c-.04-1.04-.66-1.5-1.37-1.5-.78,0-1.5.51-1.66,1.5h3.03Z"/>
    <path class="cls-8" d="M91.44,303.59c1.01,0,1.52.6,1.52.6l-.22.29s-.48-.54-1.3-.54c-.99,0-1.82.74-1.82,1.89s.82,1.87,1.82,1.87c.94,0,1.42-.61,1.42-.61l.19.3s-.55.66-1.61.66c-1.2,0-2.19-.87-2.19-2.22s1.01-2.24,2.19-2.24Z"/>
    <path class="cls-8" d="M94.19,301.99h.42v.62h-.42v-.62ZM94.23,303.69h.36v4.25h-.36v-4.25Z"/>
    <path class="cls-8" d="M95.94,307.16s.48.54,1.32.54c.52,0,.98-.27.98-.8,0-1.08-2.34-.77-2.34-2.16,0-.76.64-1.15,1.36-1.15.87,0,1.26.46,1.26.46l-.21.29s-.35-.4-1.07-.4c-.48,0-.96.22-.96.77,0,1.1,2.34.77,2.34,2.18,0,.68-.58,1.15-1.36,1.15-1.03,0-1.54-.61-1.54-.61l.23-.27Z"/>
    <path class="cls-8" d="M99.75,301.99h.42v.62h-.42v-.62ZM99.79,303.69h.36v4.25h-.36v-4.25Z"/>
    <path class="cls-8" d="M101.04,303.69h.38l1.31,3.33c.08.2.14.46.14.46h.02s.07-.25.14-.46l1.31-3.33h.37l-1.67,4.25h-.34l-1.67-4.25Z"/>
    <path class="cls-8" d="M107.39,303.59c1.16,0,1.73.91,1.73,1.94,0,.09-.02.23-.02.23h-3.41c0,1.23.83,1.94,1.82,1.94.82,0,1.32-.54,1.32-.54l.2.3s-.59.59-1.51.59c-1.2,0-2.19-.87-2.19-2.22,0-1.44.98-2.24,2.06-2.24ZM108.75,305.43c-.04-1.04-.66-1.5-1.37-1.5-.78,0-1.5.51-1.66,1.5h3.03Z"/>
    <path class="cls-8" d="M110.33,303.69h.36v.75c0,.2-.03.35-.03.35h.02c.14-.4.74-1.2,1.8-1.2s1.4.65,1.4,1.66v2.69h-.36v-2.57c0-.74-.09-1.44-1.04-1.44-.8,0-1.5.56-1.72,1.35-.05.18-.07.37-.07.58v2.07h-.36v-4.25Z"/>
    <path class="cls-8" d="M117.07,303.59c1.16,0,1.73.91,1.73,1.94,0,.09-.02.23-.02.23h-3.41c0,1.23.83,1.94,1.82,1.94.82,0,1.32-.54,1.32-.54l.2.3s-.59.59-1.51.59c-1.2,0-2.19-.87-2.19-2.22,0-1.44.98-2.24,2.06-2.24ZM118.44,305.43c-.04-1.04-.66-1.5-1.37-1.5-.78,0-1.5.51-1.66,1.5h3.03Z"/>
    <path class="cls-8" d="M119.87,307.16s.48.54,1.32.54c.52,0,.98-.27.98-.8,0-1.08-2.34-.77-2.34-2.16,0-.76.64-1.15,1.36-1.15.87,0,1.26.46,1.26.46l-.21.29s-.35-.4-1.07-.4c-.48,0-.96.22-.96.77,0,1.1,2.34.77,2.34,2.18,0,.68-.58,1.15-1.36,1.15-1.03,0-1.54-.61-1.54-.61l.23-.27Z"/>
    <path class="cls-8" d="M123.58,307.16s.48.54,1.32.54c.52,0,.98-.27.98-.8,0-1.08-2.34-.77-2.34-2.16,0-.76.64-1.15,1.36-1.15.87,0,1.26.46,1.26.46l-.21.29s-.35-.4-1.07-.4c-.48,0-.96.22-.96.77,0,1.1,2.34.77,2.34,2.18,0,.68-.58,1.15-1.36,1.15-1.03,0-1.54-.61-1.54-.61l.23-.27Z"/>
    <path class="cls-8" d="M127.42,307.41h.52v.54h-.52v-.54Z"/>
  </g>
  <g>
    <path class="cls-8" d="M9.92,313.99h2c.87,0,1.5.58,1.5,1.49,0,.65-.31,1.08-.77,1.3v.02c.59.16,1.01.74,1.01,1.5,0,1-.71,1.64-1.66,1.64h-2.08v-5.95ZM11.91,316.65c.66,0,1.13-.46,1.13-1.16s-.44-1.15-1.14-1.15h-1.62v2.31h1.62ZM11.97,319.6c.8,0,1.31-.49,1.31-1.3s-.55-1.32-1.32-1.32h-1.67v2.62h1.68Z"/>
    <path class="cls-8" d="M16.78,315.59c1.16,0,1.73.91,1.73,1.94,0,.09-.02.23-.02.23h-3.41c0,1.23.83,1.94,1.82,1.94.82,0,1.32-.54,1.32-.54l.2.3s-.6.59-1.51.59c-1.2,0-2.19-.87-2.19-2.22,0-1.44.98-2.24,2.07-2.24ZM18.14,317.43c-.04-1.04-.66-1.5-1.37-1.5-.78,0-1.5.51-1.66,1.5h3.03Z"/>
    <path class="cls-8" d="M19.67,313.99h.36v4.98c0,.59.31.66.5.66.07,0,.13,0,.13,0v.33s-.08.02-.15.02c-.25,0-.83-.09-.83-.89v-5.09Z"/>
    <path class="cls-8" d="M21.63,313.99h.42v.62h-.42v-.62ZM21.66,315.69h.36v4.25h-.36v-4.25Z"/>
    <path class="cls-8" d="M25.28,315.59c1.16,0,1.73.91,1.73,1.94,0,.09-.02.23-.02.23h-3.41c0,1.23.83,1.94,1.82,1.94.82,0,1.32-.54,1.32-.54l.2.3s-.59.59-1.51.59c-1.2,0-2.19-.87-2.19-2.22,0-1.44.98-2.24,2.06-2.24ZM26.65,317.43c-.04-1.04-.66-1.5-1.37-1.5-.78,0-1.5.51-1.66,1.5h3.03Z"/>
    <path class="cls-8" d="M27.62,315.69h.38l1.31,3.33c.08.2.14.46.14.46h.02s.07-.25.14-.46l1.31-3.33h.37l-1.67,4.25h-.34l-1.67-4.25Z"/>
    <path class="cls-8" d="M33.97,315.59c1.16,0,1.73.91,1.73,1.94,0,.09-.02.23-.02.23h-3.41c0,1.23.83,1.94,1.82,1.94.82,0,1.32-.54,1.32-.54l.2.3s-.6.59-1.51.59c-1.2,0-2.19-.87-2.19-2.22,0-1.44.98-2.24,2.07-2.24ZM35.33,317.43c-.04-1.04-.66-1.5-1.37-1.5-.78,0-1.5.51-1.66,1.5h3.03Z"/>
    <path class="cls-8" d="M39.23,313.99h.42v.62h-.42v-.62ZM39.26,315.69h.36v4.25h-.36v-4.25Z"/>
    <path class="cls-8" d="M41.11,315.69h.36v.75c0,.2-.03.35-.03.35h.02c.14-.4.74-1.2,1.8-1.2s1.4.65,1.4,1.66v2.69h-.36v-2.57c0-.74-.09-1.44-1.05-1.44-.8,0-1.5.56-1.72,1.35-.05.18-.07.37-.07.58v2.07h-.36v-4.25Z"/>
    <path class="cls-8" d="M48.58,316.04h-.56v-.32h.56v-1.21h.36v1.21h1.11v.32h-1.11v2.34c0,1.12.67,1.27,1.01,1.27.12,0,.2-.02.2-.02v.33s-.08.02-.21.02c-.44,0-1.35-.16-1.35-1.57v-2.36Z"/>
    <path class="cls-8" d="M53.4,317.35h.28v-.14c0-.94-.48-1.27-1.16-1.27-.74,0-1.22.41-1.22.41l-.2-.29s.51-.47,1.44-.47c.98,0,1.5.54,1.5,1.61v2.75h-.36v-.56c0-.23.03-.38.03-.38h-.02s-.38,1.04-1.49,1.04c-.69,0-1.44-.38-1.44-1.23,0-1.44,1.88-1.46,2.63-1.46ZM52.23,319.71c.93,0,1.45-.96,1.45-1.8v-.23h-.27c-.72,0-2.27,0-2.27,1.1,0,.45.37.93,1.09.93Z"/>
    <path class="cls-8" d="M55.48,313.99h.36v3.37h.76l1.38-1.67h.47l-1.54,1.83v.02l1.68,2.41h-.45l-1.54-2.24h-.76v2.24h-.36v-5.95Z"/>
    <path class="cls-8" d="M59.52,313.99h.42v.62h-.42v-.62ZM59.56,315.69h.36v4.25h-.36v-4.25Z"/>
    <path class="cls-8" d="M61.41,315.69h.36v.75c0,.2-.03.35-.03.35h.02c.14-.4.74-1.2,1.8-1.2s1.4.65,1.4,1.66v2.69h-.36v-2.57c0-.74-.09-1.44-1.05-1.44-.8,0-1.5.56-1.72,1.35-.05.18-.07.37-.07.58v2.07h-.36v-4.25Z"/>
    <path class="cls-8" d="M67.79,321.38c.91,0,1.61-.43,1.61-1.46v-.49c0-.2.03-.35.03-.35h-.02c-.25.52-.72.87-1.43.87-1.11,0-1.89-.87-1.89-2.19s.72-2.16,1.83-2.16c1.21,0,1.48.83,1.48.83h.02s-.03-.06-.03-.16v-.57h.36v4.22c0,1.3-.94,1.81-1.95,1.81-.47,0-.92-.12-1.33-.33l.17-.31s.53.3,1.14.3ZM69.42,317.75c0-1.37-.65-1.81-1.48-1.81-.91,0-1.45.66-1.45,1.81s.63,1.84,1.54,1.84c.75,0,1.39-.47,1.39-1.84Z"/>
    <path class="cls-8" d="M73.58,313.99h.42v.62h-.42v-.62ZM73.62,315.69h.36v4.25h-.36v-4.25Z"/>
    <path class="cls-8" d="M75.47,315.69h.36v.75c0,.2-.03.35-.03.35h.02c.14-.4.74-1.2,1.8-1.2s1.4.65,1.4,1.66v2.69h-.36v-2.57c0-.74-.09-1.44-1.05-1.44-.8,0-1.5.56-1.72,1.35-.05.18-.07.37-.07.58v2.07h-.36v-4.25Z"/>
    <path class="cls-8" d="M80.42,313.99h.42v.62h-.42v-.62ZM80.45,315.69h.36v4.25h-.36v-4.25Z"/>
    <path class="cls-8" d="M82.44,316.04h-.56v-.32h.56v-1.21h.36v1.21h1.11v.32h-1.11v2.34c0,1.12.67,1.27,1.01,1.27.12,0,.2-.02.2-.02v.33s-.08.02-.21.02c-.44,0-1.35-.16-1.35-1.57v-2.36Z"/>
    <path class="cls-8" d="M84.94,313.99h.42v.62h-.42v-.62ZM84.97,315.69h.36v4.25h-.36v-4.25Z"/>
    <path class="cls-8" d="M89.11,317.35h.28v-.14c0-.94-.48-1.27-1.16-1.27-.74,0-1.22.41-1.22.41l-.2-.29s.51-.47,1.44-.47c.98,0,1.5.54,1.5,1.61v2.75h-.36v-.56c0-.23.03-.38.03-.38h-.02s-.38,1.04-1.49,1.04c-.69,0-1.44-.38-1.44-1.23,0-1.44,1.88-1.46,2.63-1.46ZM87.94,319.71c.93,0,1.45-.96,1.45-1.8v-.23h-.27c-.72,0-2.27,0-2.27,1.1,0,.45.37.93,1.09.93Z"/>
    <path class="cls-8" d="M91.29,316.04h-.56v-.32h.56v-1.21h.36v1.21h1.11v.32h-1.11v2.34c0,1.12.67,1.27,1.01,1.27.12,0,.2-.02.2-.02v.33s-.08.02-.21.02c-.44,0-1.35-.16-1.35-1.57v-2.36Z"/>
    <path class="cls-8" d="M93.79,313.99h.42v.62h-.42v-.62ZM93.83,315.69h.36v4.25h-.36v-4.25Z"/>
    <path class="cls-8" d="M95.09,315.69h.38l1.31,3.33c.08.2.14.46.14.46h.02s.07-.25.14-.46l1.31-3.33h.37l-1.67,4.25h-.34l-1.67-4.25Z"/>
    <path class="cls-8" d="M101.44,315.59c1.16,0,1.73.91,1.73,1.94,0,.09-.02.23-.02.23h-3.41c0,1.23.83,1.94,1.82,1.94.82,0,1.32-.54,1.32-.54l.2.3s-.6.59-1.51.59c-1.2,0-2.19-.87-2.19-2.22,0-1.44.98-2.24,2.07-2.24ZM102.79,317.43c-.04-1.04-.66-1.5-1.37-1.5-.78,0-1.5.51-1.66,1.5h3.03Z"/>
    <path class="cls-8" d="M109.01,317.35h.28v-.14c0-.94-.48-1.27-1.16-1.27-.74,0-1.21.41-1.21.41l-.2-.29s.51-.47,1.44-.47c.98,0,1.5.54,1.5,1.61v2.75h-.36v-.56c0-.23.03-.38.03-.38h-.02s-.38,1.04-1.49,1.04c-.69,0-1.45-.38-1.45-1.23,0-1.44,1.88-1.46,2.63-1.46ZM107.84,319.71c.93,0,1.45-.96,1.45-1.8v-.23h-.27c-.72,0-2.27,0-2.27,1.1,0,.45.37.93,1.09.93Z"/>
    <path class="cls-8" d="M111.08,315.69h.36v.75c0,.2-.03.35-.03.35h.02c.14-.4.74-1.2,1.8-1.2s1.4.65,1.4,1.66v2.69h-.36v-2.57c0-.74-.09-1.44-1.05-1.44-.8,0-1.5.56-1.72,1.35-.05.18-.07.37-.07.58v2.07h-.36v-4.25Z"/>
    <path class="cls-8" d="M117.69,315.59c1.07,0,1.47.96,1.47.96h.02s-.03-.15-.03-.35v-2.21h.36v5.95h-.36v-.54c0-.2.03-.32.03-.32h-.02s-.37.96-1.54.96-1.84-.91-1.84-2.23.79-2.23,1.9-2.23ZM117.64,319.7c.78,0,1.51-.55,1.51-1.89,0-.94-.48-1.87-1.48-1.87-.83,0-1.51.69-1.51,1.88s.61,1.88,1.48,1.88Z"/>
  </g>
  <g>
    <path class="cls-8" d="M11.52,327.59c1.16,0,1.73.91,1.73,1.94,0,.09-.02.23-.02.23h-3.41c0,1.23.83,1.94,1.82,1.94.82,0,1.32-.54,1.32-.54l.2.3s-.59.59-1.51.59c-1.2,0-2.19-.87-2.19-2.22,0-1.44.98-2.24,2.06-2.24ZM12.88,329.43c-.04-1.04-.66-1.5-1.37-1.5-.78,0-1.5.51-1.66,1.5h3.03Z"/>
    <path class="cls-8" d="M14.45,327.7h.36v.75c0,.2-.03.35-.03.35h.02c.14-.4.74-1.2,1.8-1.2s1.4.65,1.4,1.66v2.69h-.36v-2.57c0-.74-.09-1.44-1.05-1.44-.8,0-1.5.56-1.72,1.35-.05.18-.07.37-.07.58v2.07h-.36v-4.25Z"/>
    <path class="cls-8" d="M21.32,327.59c1.01,0,1.52.6,1.52.6l-.22.29s-.48-.54-1.3-.54c-.99,0-1.82.74-1.82,1.89s.83,1.87,1.82,1.87c.93,0,1.42-.61,1.42-.61l.19.3s-.55.66-1.61.66c-1.2,0-2.19-.87-2.19-2.22s1.01-2.24,2.19-2.24Z"/>
    <path class="cls-8" d="M25.97,327.59c1.21,0,2.2.96,2.2,2.2s-.99,2.25-2.2,2.25-2.2-.99-2.2-2.25.99-2.2,2.2-2.2ZM25.97,331.7c1.01,0,1.83-.83,1.83-1.9s-.82-1.85-1.83-1.85-1.83.8-1.83,1.85.82,1.9,1.83,1.9Z"/>
    <path class="cls-8" d="M29.3,327.7h.36v2.57c0,.74.09,1.44,1.04,1.44,1.06,0,1.74-.94,1.74-1.93v-2.07h.36v4.25h-.36v-.75c0-.2.03-.35.03-.35h-.02c-.14.4-.73,1.2-1.76,1.2s-1.4-.58-1.4-1.66v-2.69Z"/>
    <path class="cls-8" d="M34.3,327.7h.36v.81c0,.2-.03.35-.03.35h.02c.21-.65.69-1.19,1.36-1.19.13,0,.25.03.25.03v.36s-.1-.02-.2-.02c-.66,0-1.08.56-1.27,1.19-.09.3-.13.61-.13.89v1.84h-.36v-4.25Z"/>
    <path class="cls-8" d="M39.45,329.35h.28v-.14c0-.94-.48-1.27-1.16-1.27-.74,0-1.21.41-1.21.41l-.2-.29s.51-.47,1.44-.47c.98,0,1.5.54,1.5,1.61v2.75h-.36v-.56c0-.23.03-.38.03-.38h-.02s-.38,1.04-1.49,1.04c-.69,0-1.45-.38-1.45-1.23,0-1.44,1.88-1.46,2.63-1.46ZM38.28,331.72c.93,0,1.45-.96,1.45-1.8v-.23h-.27c-.72,0-2.27,0-2.27,1.1,0,.45.37.93,1.09.93Z"/>
    <path class="cls-8" d="M42.93,333.38c.91,0,1.62-.43,1.62-1.46v-.49c0-.2.03-.35.03-.35h-.02c-.25.52-.72.87-1.43.87-1.1,0-1.89-.87-1.89-2.19s.72-2.16,1.83-2.16c1.21,0,1.48.83,1.48.83h.02s-.03-.06-.03-.16v-.57h.36v4.22c0,1.3-.93,1.81-1.95,1.81-.47,0-.92-.12-1.33-.33l.17-.31s.53.3,1.14.3ZM44.55,329.75c0-1.37-.65-1.81-1.48-1.81-.91,0-1.45.66-1.45,1.81s.63,1.84,1.54,1.84c.75,0,1.39-.47,1.39-1.84Z"/>
    <path class="cls-8" d="M48.17,327.59c1.16,0,1.73.91,1.73,1.94,0,.09-.02.23-.02.23h-3.41c0,1.23.83,1.94,1.82,1.94.82,0,1.32-.54,1.32-.54l.2.3s-.59.59-1.51.59c-1.2,0-2.19-.87-2.19-2.22,0-1.44.98-2.24,2.06-2.24ZM49.53,329.43c-.04-1.04-.66-1.5-1.37-1.5-.78,0-1.5.51-1.66,1.5h3.03Z"/>
    <path class="cls-8" d="M55.08,327.59c1.07,0,1.47.96,1.47.96h.02s-.03-.15-.03-.35v-2.21h.36v5.95h-.36v-.54c0-.2.03-.32.03-.32h-.02s-.37.96-1.54.96-1.84-.91-1.84-2.23.79-2.23,1.9-2.23ZM55.03,331.7c.78,0,1.51-.55,1.51-1.89,0-.94-.48-1.87-1.48-1.87-.83,0-1.51.69-1.51,1.88s.61,1.88,1.48,1.88Z"/>
    <path class="cls-8" d="M60.15,327.59c1.16,0,1.73.91,1.73,1.94,0,.09-.02.23-.02.23h-3.41c0,1.23.83,1.94,1.82,1.94.82,0,1.32-.54,1.32-.54l.2.3s-.6.59-1.51.59c-1.2,0-2.19-.87-2.19-2.22,0-1.44.98-2.24,2.07-2.24ZM61.51,329.43c-.04-1.04-.66-1.5-1.37-1.5-.78,0-1.5.51-1.66,1.5h3.03Z"/>
    <path class="cls-8" d="M64.98,327.59c1.01,0,1.52.6,1.52.6l-.22.29s-.48-.54-1.3-.54c-.99,0-1.82.74-1.82,1.89s.83,1.87,1.82,1.87c.93,0,1.42-.61,1.42-.61l.19.3s-.55.66-1.61.66c-1.2,0-2.19-.87-2.19-2.22s1.01-2.24,2.19-2.24Z"/>
    <path class="cls-8" d="M67.73,326h.42v.62h-.42v-.62ZM67.77,327.7h.36v4.25h-.36v-4.25Z"/>
    <path class="cls-8" d="M69.48,331.16s.48.54,1.32.54c.52,0,.98-.27.98-.8,0-1.08-2.34-.77-2.34-2.16,0-.76.64-1.15,1.36-1.15.87,0,1.26.46,1.26.46l-.21.29s-.35-.4-1.07-.4c-.48,0-.96.22-.96.77,0,1.1,2.34.77,2.34,2.18,0,.68-.58,1.15-1.36,1.15-1.03,0-1.54-.61-1.54-.61l.23-.27Z"/>
    <path class="cls-8" d="M73.29,326h.42v.62h-.42v-.62ZM73.33,327.7h.36v4.25h-.36v-4.25Z"/>
    <path class="cls-8" d="M77.07,327.59c1.21,0,2.2.96,2.2,2.2s-.99,2.25-2.2,2.25-2.2-.99-2.2-2.25.99-2.2,2.2-2.2ZM77.07,331.7c1.01,0,1.83-.83,1.83-1.9s-.82-1.85-1.83-1.85-1.83.8-1.83,1.85.82,1.9,1.83,1.9Z"/>
    <path class="cls-8" d="M80.45,327.7h.36v.75c0,.2-.03.35-.03.35h.02c.14-.4.74-1.2,1.8-1.2s1.4.65,1.4,1.66v2.69h-.36v-2.57c0-.74-.09-1.44-1.05-1.44-.8,0-1.5.56-1.72,1.35-.05.18-.07.37-.07.58v2.07h-.36v-4.25Z"/>
    <path class="cls-8" d="M87.78,327.7h.36v.75c0,.2-.03.35-.03.35h.02c.21-.64.97-1.2,1.63-1.2.85,0,1.25.4,1.34,1.16h.02c.24-.6.88-1.16,1.61-1.16,1.1,0,1.42.65,1.42,1.66v2.69h-.36v-2.57c0-.8-.16-1.45-1.06-1.45-.71,0-1.31.63-1.5,1.29-.06.2-.08.41-.08.65v2.07h-.36v-2.57c0-.73-.1-1.45-1.04-1.45-.76,0-1.35.66-1.55,1.37-.05.18-.07.37-.07.58v2.07h-.36v-4.25Z"/>
    <path class="cls-8" d="M97.87,329.35h.28v-.14c0-.94-.48-1.27-1.16-1.27-.74,0-1.22.41-1.22.41l-.2-.29s.51-.47,1.44-.47c.98,0,1.5.54,1.5,1.61v2.75h-.36v-.56c0-.23.03-.38.03-.38h-.02s-.38,1.04-1.49,1.04c-.69,0-1.44-.38-1.44-1.23,0-1.44,1.88-1.46,2.63-1.46ZM96.7,331.72c.93,0,1.45-.96,1.45-1.8v-.23h-.27c-.72,0-2.27,0-2.27,1.1,0,.45.37.93,1.09.93Z"/>
    <path class="cls-8" d="M99.95,326h.36v3.37h.76l1.38-1.67h.47l-1.54,1.83v.02l1.68,2.41h-.45l-1.54-2.24h-.76v2.24h-.36v-5.95Z"/>
    <path class="cls-8" d="M103.99,326h.42v.62h-.42v-.62ZM104.03,327.7h.36v4.25h-.36v-4.25Z"/>
    <path class="cls-8" d="M105.88,327.7h.36v.75c0,.2-.03.35-.03.35h.02c.14-.4.74-1.2,1.8-1.2s1.4.65,1.4,1.66v2.69h-.36v-2.57c0-.74-.09-1.44-1.04-1.44-.8,0-1.5.56-1.72,1.35-.05.18-.07.37-.07.58v2.07h-.36v-4.25Z"/>
    <path class="cls-8" d="M112.27,333.38c.91,0,1.61-.43,1.61-1.46v-.49c0-.2.03-.35.03-.35h-.02c-.25.52-.72.87-1.43.87-1.11,0-1.89-.87-1.89-2.19s.72-2.16,1.83-2.16c1.21,0,1.48.83,1.48.83h.02s-.03-.06-.03-.16v-.57h.36v4.22c0,1.3-.94,1.81-1.95,1.81-.47,0-.92-.12-1.33-.33l.17-.31s.53.3,1.14.3ZM113.89,329.75c0-1.37-.65-1.81-1.48-1.81-.91,0-1.45.66-1.45,1.81s.63,1.84,1.54,1.84c.75,0,1.39-.47,1.39-1.84Z"/>
    <path class="cls-8" d="M115.73,331.41h.52v.54h-.52v-.54Z"/>
  </g>
  <g>
    <path class="cls-7" d="M11.37,164.01h-2.33v-1.11h5.95v1.11h-2.33v5.99h-1.29v-5.99Z"/>
    <path class="cls-7" d="M14.93,164.9h1.22v.88c0,.19-.02.36-.02.36h.02c.23-.73.84-1.31,1.62-1.31.12,0,.23.02.23.02v1.25s-.13-.02-.3-.02c-.54,0-1.15.31-1.39,1.07-.08.25-.11.53-.11.83v2.02h-1.27v-5.1Z"/>
    <path class="cls-7" d="M18.79,164.9h1.27v3.02c0,.62.16,1.04.79,1.04.92,0,1.43-.81,1.43-1.72v-2.34h1.27v5.1h-1.22v-.58c0-.2.02-.36.02-.36h-.02c-.25.53-.9,1.06-1.77,1.06-1.09,0-1.77-.55-1.77-1.94v-3.28Z"/>
    <path class="cls-7" d="M25.1,168.48s.56.56,1.39.56c.36,0,.67-.16.67-.46,0-.76-2.48-.66-2.48-2.3,0-.95.85-1.5,1.95-1.5s1.71.58,1.71.58l-.47.94s-.47-.44-1.25-.44c-.33,0-.65.14-.65.46,0,.72,2.48.63,2.48,2.27,0,.85-.74,1.53-1.95,1.53-1.27,0-1.98-.75-1.98-.75l.58-.89Z"/>
    <path class="cls-7" d="M29.69,165.99h-.66v-1.01h.69v-1.47h1.24v1.47h1.16v1.01h-1.16v1.98c0,.84.66.96,1.01.96.14,0,.23-.02.23-.02v1.11s-.15.03-.39.03c-.71,0-2.12-.21-2.12-1.92v-2.14Z"/>
  </g>
  <g>
    <path class="cls-7" d="M13.43,269.1h-2.49l-.6,1.82h-1.33l2.5-7.1h1.35l2.5,7.1h-1.33l-.6-1.82ZM12.18,265.05s-.16.7-.3,1.1l-.63,1.9h1.86l-.63-1.9c-.13-.4-.28-1.1-.28-1.1h-.02Z"/>
    <path class="cls-7" d="M18,271.94c.78,0,1.44-.33,1.44-1.24v-.3c0-.12.02-.27.02-.27h-.02c-.3.45-.74.69-1.42.69-1.46,0-2.29-1.18-2.29-2.58s.79-2.54,2.26-2.54c1.11,0,1.51.65,1.51.65h.03s0-.06,0-.14v-.39h1.19v4.79c0,1.75-1.36,2.41-2.69,2.41-.64,0-1.32-.18-1.81-.44l.38-.97s.64.33,1.41.33ZM19.47,268.25c0-1.16-.57-1.47-1.26-1.47-.77,0-1.2.56-1.2,1.42s.46,1.55,1.28,1.55c.61,0,1.18-.35,1.18-1.5Z"/>
    <path class="cls-7" d="M22.11,263.82h1.26v1.13h-1.26v-1.13ZM22.11,265.82h1.27v5.1h-1.27v-5.1Z"/>
    <path class="cls-7" d="M24.71,263.82h1.26v5.32c0,.56.19.7.52.7.1,0,.19-.01.19-.01v1.11s-.19.03-.4.03c-.7,0-1.57-.18-1.57-1.64v-5.51Z"/>
    <path class="cls-7" d="M27.62,263.82h1.26v1.13h-1.26v-1.13ZM27.62,265.82h1.27v5.1h-1.27v-5.1Z"/>
    <path class="cls-7" d="M30.51,266.91h-.66v-1.01h.69v-1.47h1.24v1.47h1.16v1.01h-1.16v1.98c0,.84.66.96,1.01.96.14,0,.23-.02.23-.02v1.11s-.15.03-.39.03c-.71,0-2.12-.21-2.12-1.92v-2.14Z"/>
    <path class="cls-7" d="M33.79,271.73s.28.21.57.21c.35,0,.69-.21.88-.66l.19-.45-2.15-5.02h1.43l1.07,2.94c.1.27.19.69.19.69h.02s.08-.4.17-.67l1-2.96h1.39l-2.28,5.87c-.36.93-1.07,1.33-1.84,1.33-.61,0-1.06-.33-1.06-.33l.42-.95Z"/>
  </g>
  <line class="cls-3" x1="9.25" y1="177.28" x2="160.73" y2="177.28"/>
  <rect class="cls-9" x="139.91" y="175.87" width="22.68" height="2.84"/>
  <line class="cls-3" x1="9.25" y1="278.2" x2="160.73" y2="278.2"/>
  <rect class="cls-9" x="139.91" y="276.78" width="22.68" height="2.83"/>
</svg>